<svg xmlns="http://www.w3.org/2000/svg" width="159" height="100" viewBox="0 0 159 100">
  <g id="Defter" transform="translate(-965 -55)">
    <rect id="Rectangle_215" data-name="Rectangle 215" width="70" height="100" transform="translate(965 55)" fill="#fff"/>
    <g id="Group_2430" data-name="Group 2430" transform="translate(425 -529)">
      <text id="MY" transform="translate(613 607.814)" fill="#1f1e1e" font-size="20" font-family="AvenirNextCondensed-DemiBold, Avenir Next Condensed" font-weight="300"><tspan x="0" y="0">MY</tspan></text>
      <text id="E-DEFTER" transform="translate(613 636.841)" fill="#1f1e1e" font-size="25" font-family="AvenirNextCondensed-DemiBold, Avenir Next Condensed" font-weight="300"><tspan x="0" y="0">E-DEFTER</tspan></text>
    </g>
    <g id="Group_2699" data-name="Group 2699" transform="translate(-5 -224)">
      <g id="Group_2420" data-name="Group 2420" transform="translate(54.093 -545.305)">
        <g id="Group_2419" data-name="Group 2419" transform="translate(928.907 826.305)">
          <g id="Group_2413" data-name="Group 2413" transform="translate(0 0)">
            <path id="Path_4517" data-name="Path 4517" d="M19.7,70.227A12.932,12.932,0,0,0,22.073,72.5l34.7-20.071a5.845,5.845,0,0,0,2.571-4.548V10.112L49.758,2.7l-.791-.1L38.684,2.4l-17.6,10.085A13.292,13.292,0,0,0,19.7,13.573Z" transform="translate(-18.118 -0.055)" fill="#ebebeb" fill-rule="evenodd"/>
            <path id="Path_4518" data-name="Path 4518" d="M53.654,17.029,58.5,14.26c2.373-1.285,3.658-2.472,1.285-4.35L49.6,2l4.054,6.229Z" transform="translate(-18.455 -0.05)" fill="#f5f9fa" fill-rule="evenodd"/>
            <path id="Path_4519" data-name="Path 4519" d="M22.055,72.475,18.99,70.7l-.3-.3-.3-.4-.2-.494-.1-.593V16.71l.1-.3.1-.3.1-.3.1-.3.2-.3.2-.3.2-.3.2-.3.2-.3.2-.3.2-.3.3-.2.3-.2.3-.2L39.951,1.681C42.72.1,44.3-.692,47.663.89A10.421,10.421,0,0,1,53.4,8.207v8.9l-3.263-1.879V8.6c.1-3.065-3.362-6.822-8.009-4.449L24.032,14.436l-.3.2-.3.2-.3.2-.2.2-.2.3-.2.3-.2.3-.2.3-.2.3-.2.3-.1.3-.1.3-.1.3-.1.3V70.4l.1.593.2.494.3.4Z" transform="translate(-18.1 -0.028)" fill="#bdbdbd" fill-rule="evenodd"/>
            <path id="Path_4521" data-name="Path 4521" d="M27.4,32.855,49.35,20.1v.989L27.4,33.843Z" transform="translate(-18.205 -0.254)" fill="#3d566e" fill-rule="evenodd"/>
            <path id="Path_4757" data-name="Path 4757" d="M27.4,32.855,49.35,20.1v.989L27.4,33.843Z" transform="translate(-18.205 10.299)" fill="#3d566e" fill-rule="evenodd"/>
            <path id="Path_4522" data-name="Path 4522" d="M27.4,38.343,51.13,24.6v.989L27.4,39.332Z" transform="translate(-18.205 -0.305)" fill="#3d566e" fill-rule="evenodd"/>
            <path id="Path_4756" data-name="Path 4756" d="M27.4,38.343,51.13,24.6v.989L27.4,39.332Z" transform="translate(-18.205 10.248)" fill="#3d566e" fill-rule="evenodd"/>
            <path id="Path_4758" data-name="Path 4758" d="M27.4,38.343,51.13,24.6v.989L27.4,39.332Z" transform="translate(-18.205 14.377)" fill="#3d566e" fill-rule="evenodd"/>
            <path id="Path_4523" data-name="Path 4523" d="M27.4,44.177,46.087,33.4v.989L27.4,45.265Z" transform="translate(-18.205 13.36)" fill="#3d566e" fill-rule="evenodd"/>
            <path id="Path_4524" data-name="Path 4524" d="M47.4,3.863V.6c.2.1.3.2.494.2a10.421,10.421,0,0,1,5.735,7.317v8.9l-3.263-1.879V8.51A5.294,5.294,0,0,0,47.4,3.863Z" transform="translate(-18.43 -0.034)" fill="#9c9c9c" fill-rule="evenodd"/>
            <path id="Path_4525" data-name="Path 4525" d="M22.056,72.657l-3.065-1.78-.3-.3-.3-.4-.1-.494-.1-.593V17.189l.1-.4.1-.3v-.3l3.164,1.78-.1.3-.1.3v.4l-.1.3V70.877l.1.593.1.494.3.4Z" transform="translate(-18.101 -0.21)" fill="#9c9c9c" fill-rule="evenodd"/>
          </g>
          <g id="Group_2418" data-name="Group 2418" transform="translate(30.449 17.295)">
            <path id="Path_4738" data-name="Path 4738" d="M59.551,91.421,59,91.1l.092.046.092.046.138.046h.367l.138-.046.092-.046.6.367h-.138l-.138.046h-.367l-.138-.046-.092-.046Z" transform="translate(-53.77 -49.303)" fill="#e6eaeb" fill-rule="evenodd"/>
            <path id="Path_4739" data-name="Path 4739" d="M55.7,106.34l-.6-.321-5-5.919.551.321Z" transform="translate(-48.953 -54.174)" fill="#abb3b5" fill-rule="evenodd"/>
            <path id="Path_4740" data-name="Path 4740" d="M50.651,87.649l-.551-.321L51.476,76.5l.6.321Z" transform="translate(-48.953 -41.401)" fill="#abb3b5" fill-rule="evenodd"/>
            <path id="Path_4741" data-name="Path 4741" d="M53.7,71.3l-.6-.321,8.121-4.68.551.321Z" transform="translate(-50.577 -35.881)" fill="#bfc7c9" fill-rule="evenodd"/>
            <path id="Path_4742" data-name="Path 4742" d="M63.451,100.523,62.9,100.2v-10l.551.321Z" transform="translate(-55.88 -48.816)" fill="#abb3b5" fill-rule="evenodd"/>
            <path id="Path_4743" data-name="Path 4743" d="M63.451,89.168l-.551-.321.138-.138.092-.092.138-.138.138-.138.092-.184.138-.138.092-.138.092-.184.6.321-.138.184-.092.138-.092.138-.138.184-.138.138-.092.138-.138.092Z" transform="translate(-55.88 -47.463)" fill="#e6eaeb" fill-rule="evenodd"/>
            <path id="Path_4744" data-name="Path 4744" d="M65.5,85.748l-.6-.321.138-.229.092-.229.138-.229.046-.275.092-.229L65.451,84v-.229L65.5,83.5l.551.367V84.1L66,84.326l-.046.229-.046.229-.092.275-.092.229-.138.229Z" transform="translate(-56.963 -45.19)" fill="#abb3b5" fill-rule="evenodd"/>
            <path id="Path_4745" data-name="Path 4745" d="M66.047,82.406l-.551-.367-.046-.184v-.229l-.046-.184-.092-.184-.046-.138-.138-.138-.092-.092L64.9,80.8l.6.321.092.092.138.092.092.138.092.184.046.138.046.184.046.229Z" transform="translate(-56.963 -43.729)" fill="#abb3b5" fill-rule="evenodd"/>
            <path id="Path_4746" data-name="Path 4746" d="M56.76,73.79a4.1,4.1,0,0,0-1.376,1.422,3.7,3.7,0,0,0-.551,1.881,1.393,1.393,0,0,0,.551,1.239,1.159,1.159,0,0,0,.963.046v10L51.3,82.462l1.422-10.828L60.8,67l1.422,9.222L57.173,87.967v-10a4.737,4.737,0,0,0,.963-1.147,3.7,3.7,0,0,0,.551-1.881,1.393,1.393,0,0,0-.551-1.239A1.366,1.366,0,0,0,56.76,73.79Z" transform="translate(-49.602 -36.26)" fill="#c9d2d4" fill-rule="evenodd"/>
            <path id="Path_4747" data-name="Path 4747" d="M53.977,46.187a9.431,9.431,0,0,0,4.5-1.055,3.208,3.208,0,0,0,1.881-2.615A3.208,3.208,0,0,0,58.474,39.9a9.068,9.068,0,0,0-4.5-1.1,8.946,8.946,0,0,0-4.5,1.1A3.208,3.208,0,0,0,47.6,42.516a3.208,3.208,0,0,0,1.881,2.615A9.3,9.3,0,0,0,53.977,46.187Z" transform="translate(-47.6 -20.998)" fill="#bfc7c9" fill-rule="evenodd"/>
            <path id="Path_4748" data-name="Path 4748" d="M60.363,58.057V47.5l-.046.092-.046.092-.046.046v.092l-.046.092-.046.092-.046.092-.046.092L60,48.285l-.046.092-.046.092-.046.092-.046.092-.092.092-.092.092h-.138l-.092.092-.092.092-.092.092-.092.092-.092.092-.092.092-.092-.046-.092.092-.092.092-.138.046-.138.046-.138.046-.092.092-.138.046-.092.046-.138.046-.138.046-.138.046-.138.046-.138.046-.138.046-.138.092-.138.046-.138.046h-.138l-.138.046-.138.046-.138.046L56,50.487l-.138.046-.138.046H52.7l-.138-.046-.138-.046-.138-.046L52.15,50.4l-.138-.046-.138-.046-.138-.046-.138-.046h-.551l-.138-.046-.138-.046-.138-.046-.138-.046-.138-.046-.138-.046-.092-.092-.138-.046-.138-.046-.138-.046-.138-.046-.138-.046-.138-.046-.092-.092-.092-.092-.092-.092-.092-.092-.092-.092-.092-.046-.092-.092-.092-.092-.046-.046-.092-.092-.092-.092L48.3,48.56l-.046-.092-.046-.092-.046-.092-.046-.092-.046-.092-.046-.092-.046-.092h-.138v-.092l-.046-.092-.046-.092-.046-.092V58.011C48.113,62.737,59.9,62.737,60.363,58.057Z" transform="translate(-47.654 -25.436)" fill="#bfc7c9" fill-rule="evenodd"/>
            <path id="Path_4749" data-name="Path 4749" d="M58.474,28.7l.092-.046.138-.092.092-.046.092-.092.138-.046.092-.092.092-.092.092-.046.092-.092.046-.092.092-.046.092-.092.046-.092.092-.092.046-.046.046-.092.092-.092.046-.092.046-.092.046-.046.046-.092L60.171,27v-.092l.046-.092.046-.092v-.092l.046-.092V26.31l.046-.092V8.6l-.046.092v.229l-.046.092V9.1l-.046.092-.046.092V9.38l-.046.092-.046.092-.046.092-.046.046-.046.092-.092.092-.046.092-.046.092-.092.046-.046.092-.092.092-.092.092-.046.046-.092.092-.092.092-.092.046-.092.092-.138.046-.092.092-.092.092-.138.046-.092.092-.138.046-.092.046-.138.092-.138.046-.092.046-.138.092-.138.046-.138.046-.138.046-.138.046-.138.046-.138.046-.138.046-.138.046H56.5l-.138.046-.138.046L56.088,12H55.9l-.138.046h-.138l-.138.046h-.184l-.138.046h-.459l-.138.046H53.335l-.138-.046h-.459l-.138-.046h-.184l-.138-.046h-.138L52,12h-.138l-.184-.046-.138-.046-.138-.046H51.27l-.138-.046L51,11.766l-.138-.046-.138-.046-.138-.046-.138-.046-.138-.046-.138-.046-.092-.092-.138-.046-.138-.046-.138-.092-.092-.046-.138-.046-.092-.092-.138-.046-.092-.092-.092-.092-.092-.046-.138-.092-.092-.046-.046-.092-.092-.092-.092-.046L48.38,10.3l-.046-.092-.092-.092-.092-.046L48.1,9.976l-.046-.092-.046-.092L47.921,9.7l-.046-.046-.046-.092-.046-.092V9.38l-.046-.092L47.692,9.2V9.1l-.046-.092V8.921L47.6,8.829V26.447l.046.092v.092l.046.092v.092l.046.092.046.092v.092l.046.092.046.046.046.092.092.092.046.092.046.092.046.046.092.092.092.092.046.092.092.046.092.092.092.092.046.046.092.092.138.092.092.046.092.092.092.046.138.092.092.046.138.092.092.046.138.092.138.046.138.046.092.046.138.092.138.046.138.046.138.046.138.046.138.046.138.046h.138l.138.046.138.046.138.046h.184l.138.046.138.046h.138l.138.046h.321l.138.046H53.2l.138.046h1.239l.138-.046h.321l.138-.046h.321l.138-.046h.138l.138-.046.184-.046h.138l.138-.046.138-.046.138-.046h.138l.138-.046.138-.046.138-.046.138-.046.138-.046.138-.046.138-.092.138-.046.092-.046.138-.046.138-.092.092-.046Z" transform="translate(-47.6 -4.654)" fill="#fac13c" fill-rule="evenodd"/>
            <path id="Path_4750" data-name="Path 4750" d="M53.977,7.687a9.431,9.431,0,0,0,4.5-1.055,3.208,3.208,0,0,0,1.881-2.615A3.208,3.208,0,0,0,58.474,1.4a9.068,9.068,0,0,0-4.5-1.1,9.431,9.431,0,0,0-4.5,1.055A3.208,3.208,0,0,0,47.6,3.97a3.208,3.208,0,0,0,1.881,2.615A8.826,8.826,0,0,0,53.977,7.687Z" transform="translate(-47.6 -0.162)" fill="#f5be3d" fill-rule="evenodd"/>
            <path id="Path_4751" data-name="Path 4751" d="M68.89,51.9h0l-.138.092-.092.092-.092.092-.138.046-.138.046-.138.046-.092.092-.138.046-.092.046-.138.046-.138.046-.138.046-.138.046-.138.046-.138.046-.138.092-.138.046-.138.046h-.138L66.321,53l-.138.046-.138.046H66V64.058a7.3,7.3,0,0,0,2.936-1.147V51.9Z" transform="translate(-57.558 -28.088)" fill="#e6eaeb" fill-rule="evenodd"/>
            <path id="Path_4752" data-name="Path 4752" d="M68.378,31.293l.092-.046.138-.092.092-.046.092-.092h.046V13.4H68.79l-.092.092-.092.092-.138.046-.092.092-.138.046-.092.046-.138.092-.138.046L67.781,14l-.138.092-.138.046-.138.046-.138.046-.138.046-.138.046-.138.046-.138.046-.138.046H66.4l-.138.046-.138.046-.138.046H65.9V32.211l.092-.046h.138l.138-.046.138-.046.138-.046h.138l.138-.046.138-.046.138-.046.138-.046.138-.046.138-.046.138-.092.138-.046.092-.046.138-.046.138-.092.092-.046Z" transform="translate(-57.504 -7.252)" fill="#ffdc6a" fill-rule="evenodd"/>
            <path id="Path_4753" data-name="Path 4753" d="M53.766,53.193l-.138-.046L53.49,53.1l-.138-.046-.138-.046-.138-.046-.138-.046-.138-.046-.184.046-.138-.046-.138-.046-.138-.046-.138-.046-.138-.046-.138-.046-.092-.092-.138-.046-.138-.046-.138-.046-.138-.046-.138-.046-.138-.046-.092-.092-.092-.092L50.6,52h0V63.011a7.245,7.245,0,0,0,3.12,1.147V53.193Z" transform="translate(-49.224 -28.142)" fill="#abb3b5" fill-rule="evenodd"/>
            <path id="Path_4754" data-name="Path 4754" d="M53.82,14.639l-.138-.046h-.138l-.184-.046-.138-.046-.138-.046h-.138l-.138-.046-.138-.046-.138-.046-.138-.046-.138-.046-.138-.046-.138-.046-.138-.046L51.755,14l-.138-.046L51.48,13.9l-.138-.092-.092-.046-.138-.046-.092-.092-.138-.046-.092-.092L50.7,13.4h0V31.018h0l.092.092.092.046.138.092.092.046.138.092.092.046.138.092.138.046.138.046.092.046.138.092.138.046.138.046.138.046.138.046.138.046.138.046h.138l.138.046.138.046.138.046h.184l.138.046.138.046Z" transform="translate(-49.278 -7.252)" fill="#e6b543" fill-rule="evenodd"/>
            <path id="Path_4755" data-name="Path 4755" d="M54.843,6.515a8.033,8.033,0,0,0,3.992-.963,2.809,2.809,0,0,0,1.652-2.294A2.809,2.809,0,0,0,58.835.963,8.156,8.156,0,0,0,54.843,0a8.033,8.033,0,0,0-3.992.963A2.809,2.809,0,0,0,49.2,3.258a2.809,2.809,0,0,0,1.652,2.294A7.912,7.912,0,0,0,54.843,6.515Z" transform="translate(-48.466)" fill="#d19917" fill-rule="evenodd"/>
          </g>
        </g>
      </g>
      <g id="Group_2434" data-name="Group 2434" transform="translate(979 346.447)">
        <path id="Path_4484" data-name="Path 4484" d="M44.419,115c10.16,5.862,10.16,15.371,0,21.232s-26.638,5.862-36.8,0S-2.54,120.858,7.62,115,34.258,109.135,44.419,115Z" transform="translate(0 -110.6)" fill="#040507" fill-rule="evenodd" opacity="0.003"/>
        <path id="Path_4485" data-name="Path 4485" d="M46.806,117.8c9.476,5.471,9.476,14.361,0,19.832s-24.847,5.471-34.323,0-9.476-14.361,0-19.832S37.329,112.332,46.806,117.8Z" transform="translate(-3.625 -112.69)" fill="#080a0d" fill-rule="evenodd" opacity="0.007"/>
        <path id="Path_4486" data-name="Path 4486" d="M49.193,120.61c8.793,5.08,8.793,13.319,0,18.4s-23.056,5.08-31.849,0-8.793-13.319,0-18.4S40.4,115.53,49.193,120.61Z" transform="translate(-7.249 -114.781)" fill="#0b0e14" fill-rule="evenodd" opacity="0.01"/>
        <path id="Path_4487" data-name="Path 4487" d="M51.513,123.317c8.109,4.689,8.109,12.277,0,16.966s-21.265,4.689-29.406,0c-8.109-4.689-8.109-12.277,0-16.966C30.248,118.628,43.4,118.628,51.513,123.317Z" transform="translate(-10.806 -116.804)" fill="#0f131b" fill-rule="evenodd" opacity="0.013"/>
        <path id="Path_4488" data-name="Path 4488" d="M53.9,126.124c7.425,4.3,7.425,11.267,0,15.566s-19.506,4.3-26.931,0-7.425-11.267,0-15.566C34.426,121.825,46.475,121.825,53.9,126.124Z" transform="translate(-14.431 -118.895)" fill="#131822" fill-rule="evenodd" opacity="0.017"/>
        <path id="Path_4489" data-name="Path 4489" d="M56.287,128.931c6.741,3.908,6.741,10.225,0,14.133s-17.715,3.908-24.456,0-6.741-10.225,0-14.133C38.6,125.023,49.546,125.023,56.287,128.931Z" transform="translate(-18.056 -120.985)" fill="#171d29" fill-rule="evenodd" opacity="0.02"/>
        <path id="Path_4490" data-name="Path 4490" d="M58.656,131.738c6.09,3.517,6.09,9.183,0,12.7s-15.924,3.517-22.014,0-6.09-9.183,0-12.7S52.567,128.221,58.656,131.738Z" transform="translate(-21.63 -123.075)" fill="#1b2230" fill-rule="evenodd" opacity="0.023"/>
        <path id="Path_4491" data-name="Path 4491" d="M61.043,134.545c5.406,3.126,5.406,8.174,0,11.267-5.406,3.126-14.133,3.126-19.539,0s-5.406-8.174,0-11.267C46.91,131.418,55.638,131.418,61.043,134.545Z" transform="translate(-25.254 -125.166)" fill="#1f2737" fill-rule="evenodd" opacity="0.027"/>
        <path id="Path_4492" data-name="Path 4492" d="M63.43,137.352c4.722,2.735,4.722,7.132,0,9.867s-12.342,2.735-17.064,0-4.722-7.132,0-9.867C51.056,134.616,58.709,134.616,63.43,137.352Z" transform="translate(-28.879 -127.256)" fill="#232c3f" fill-rule="evenodd" opacity="0.03"/>
        <path id="Path_4493" data-name="Path 4493" d="M65.818,140.159c4.038,2.345,4.038,6.09,0,8.434a16.009,16.009,0,0,1-14.589,0c-4.038-2.345-4.038-6.09,0-8.434A16.009,16.009,0,0,1,65.818,140.159Z" transform="translate(-32.504 -129.347)" fill="#273246" fill-rule="evenodd" opacity="0.033"/>
        <path id="Path_4494" data-name="Path 4494" d="M68.137,142.916c3.354,1.921,3.354,5.08,0,7a13.519,13.519,0,0,1-12.147,0c-3.354-1.921-3.354-5.08,0-7A13.519,13.519,0,0,1,68.137,142.916Z" transform="translate(-36.061 -131.421)" fill="#2b374d" fill-rule="evenodd" opacity="0.037"/>
        <path id="Path_4495" data-name="Path 4495" d="M70.525,145.723c2.67,1.531,2.67,4.038,0,5.6a10.76,10.76,0,0,1-9.672,0c-2.67-1.531-2.67-4.038,0-5.6A10.76,10.76,0,0,1,70.525,145.723Z" transform="translate(-39.686 -133.511)" fill="#2f3c54" fill-rule="evenodd" opacity="0.04"/>
        <path id="Path_4496" data-name="Path 4496" d="M72.912,148.53c1.986,1.14,1.986,3.029,0,4.168a8,8,0,0,1-7.2,0c-1.986-1.14-1.986-3.029,0-4.168A8,8,0,0,1,72.912,148.53Z" transform="translate(-43.31 -135.602)" fill="#34415c" fill-rule="evenodd" opacity="0.043"/>
        <path id="Path_4497" data-name="Path 4497" d="M75.331,151.337a1.446,1.446,0,0,1,0,2.735,5.311,5.311,0,0,1-4.754,0,1.446,1.446,0,0,1,0-2.735A5.311,5.311,0,0,1,75.331,151.337Z" transform="translate(-46.935 -137.692)" fill="#384763" fill-rule="evenodd" opacity="0.047"/>
      </g>
    </g>
  </g>
</svg>
