<svg xmlns="http://www.w3.org/2000/svg" width="187" height="100" viewBox="0 0 187 100">
  <g id="Müstahsil_Makbuz" data-name="Müstahsil Makbuz" transform="translate(-601 -346)">
    <rect id="Rectangle_212" data-name="Rectangle 212" width="70" height="100" transform="translate(601 346)" fill="#fff"/>
    <g id="Group_2410" data-name="Group 2410" transform="translate(602.037 354)">
      <g id="Group_2405" data-name="Group 2405" transform="translate(-0.038 44.34)">
        <path id="Path_4683" data-name="Path 4683" d="M58.649,97.656c13.424,7.774,13.424,20.329,0,28.055-13.424,7.774-35.2,7.774-48.625,0C-3.4,117.985-3.4,105.43,10.073,97.656,23.5,89.881,45.226,89.881,58.649,97.656Z" transform="translate(0.038 -91.825)" fill="#040507" fill-rule="evenodd" opacity="0.003"/>
        <path id="Path_4684" data-name="Path 4684" d="M59.6,100.082c12.506,7.243,12.506,18.977,0,26.172-12.506,7.243-32.835,7.243-45.342,0s-12.506-18.977,0-26.172C26.761,92.839,47.042,92.839,59.6,100.082Z" transform="translate(-2.503 -93.286)" fill="#080a0d" fill-rule="evenodd" opacity="0.007"/>
        <path id="Path_4685" data-name="Path 4685" d="M60.359,102.409c11.637,6.712,11.637,17.577,0,24.337-11.637,6.712-30.469,6.712-42.106,0s-11.637-17.577,0-24.337C29.89,95.7,48.722,95.7,60.359,102.409Z" transform="translate(-4.908 -94.695)" fill="#0b0e14" fill-rule="evenodd" opacity="0.01"/>
        <ellipse id="Ellipse_53" data-name="Ellipse 53" cx="27.475" cy="15.886" rx="27.475" ry="15.886" transform="translate(6.923 3.996)" fill="#0f131b" opacity="0.013"/>
        <path id="Path_4686" data-name="Path 4686" d="M62.014,107.123c9.8,5.7,9.8,14.872,0,20.57s-25.737,5.7-35.588,0c-9.8-5.7-9.8-14.872,0-20.57C36.277,101.426,52.212,101.426,62.014,107.123Z" transform="translate(-9.846 -97.526)" fill="#131822" fill-rule="evenodd" opacity="0.017"/>
        <path id="Path_4687" data-name="Path 4687" d="M62.929,109.489c8.933,5.167,8.933,13.52,0,18.687s-23.419,5.167-32.3,0c-8.933-5.167-8.933-13.52,0-18.687C39.51,104.37,54,104.37,62.929,109.489Z" transform="translate(-12.354 -98.974)" fill="#171d29" fill-rule="evenodd" opacity="0.02"/>
        <path id="Path_4688" data-name="Path 4688" d="M63.731,111.877c8.016,4.636,8.016,12.168,0,16.8s-21.053,4.636-29.069,0-8.016-12.168,0-16.8S55.715,107.241,63.731,111.877Z" transform="translate(-14.798 -100.396)" fill="#1b2230" fill-rule="evenodd" opacity="0.023"/>
        <path id="Path_4689" data-name="Path 4689" d="M64.493,114.2c7.146,4.1,7.146,10.768,0,14.921-7.147,4.1-18.687,4.1-25.834,0s-7.146-10.768,0-14.921C45.806,110.1,57.4,110.1,64.493,114.2Z" transform="translate(-17.202 -101.806)" fill="#1f2737" fill-rule="evenodd" opacity="0.027"/>
        <path id="Path_4690" data-name="Path 4690" d="M65.347,116.591c6.229,3.573,6.229,9.416,0,13.038-6.229,3.573-16.321,3.573-22.55,0s-6.229-9.416,0-13.038S59.118,112.97,65.347,116.591Z" transform="translate(-19.697 -103.228)" fill="#232c3f" fill-rule="evenodd" opacity="0.03"/>
        <path id="Path_4691" data-name="Path 4691" d="M66.249,118.957c5.312,3.09,5.312,8.064,0,11.154s-13.955,3.09-19.315,0c-5.312-3.09-5.312-8.064,0-11.154C52.245,115.914,60.889,115.914,66.249,118.957Z" transform="translate(-22.193 -104.676)" fill="#273246" fill-rule="evenodd" opacity="0.033"/>
        <path id="Path_4692" data-name="Path 4692" d="M67.063,121.344c4.442,2.559,4.442,6.712,0,9.271a17.7,17.7,0,0,1-16.031,0c-4.442-2.559-4.442-6.712,0-9.271A17.7,17.7,0,0,1,67.063,121.344Z" transform="translate(-24.649 -106.098)" fill="#2b374d" fill-rule="evenodd" opacity="0.037"/>
        <path id="Path_4693" data-name="Path 4693" d="M67.865,123.671c3.525,2.028,3.525,5.36,0,7.388a14.217,14.217,0,0,1-12.8,0c-3.525-2.028-3.525-5.36,0-7.388A14.217,14.217,0,0,1,67.865,123.671Z" transform="translate(-27.092 -107.507)" fill="#2f3c54" fill-rule="evenodd" opacity="0.04"/>
        <path id="Path_4694" data-name="Path 4694" d="M68.818,126.059c2.608,1.5,2.608,3.96,0,5.5a10.636,10.636,0,0,1-9.513,0c-2.608-1.5-2.608-3.96,0-5.5A10.34,10.34,0,0,1,68.818,126.059Z" transform="translate(-29.639 -108.929)" fill="#34415c" fill-rule="evenodd" opacity="0.043"/>
        <path id="Path_4695" data-name="Path 4695" d="M69.581,128.424c1.738,1.014,1.738,2.608,0,3.622a6.857,6.857,0,0,1-6.277,0c-1.738-1.014-1.738-2.608,0-3.622A7.163,7.163,0,0,1,69.581,128.424Z" transform="translate(-32.044 -110.377)" fill="#384763" fill-rule="evenodd" opacity="0.047"/>
      </g>
      <g id="Group_2409" data-name="Group 2409" transform="translate(2.141)">
        <g id="Group_2406" data-name="Group 2406" transform="translate(0.012 20.232)">
          <path id="Path_4696" data-name="Path 4696" d="M135.911,41.9V53.924l-.1.435-.193.435-.338.386-.483.338V43.445l.483-.338.338-.386.193-.386Z" transform="translate(-71.882 -41.9)" fill="#2c3e50" fill-rule="evenodd"/>
          <path id="Path_4697" data-name="Path 4697" d="M67.418,45.1V57.172l-1.111.628-1.062.628-1.062.579-1.014.628-1.062.579-1.014.579-.966.579-1.014.579-1.014.579-.966.531-.966.579-.966.579-.966.531-.966.579-.966.531-.966.579-.966.531-.966.579-.966.531-.966.579-.966.531-.966.579-.966.579-1.014.579-.966.531-1.014.628-1.014.579-1.014.579-1.062.579-1.062.628-1.062.628-1.062.628-.29.145L34.679,76l-.338.1L34,76.2l-.338.048-.338.048-.386.048h-.724l-.386-.048-.338-.048-.386-.048-.338-.1-.29-.1-.338-.145-.29-.145-.869-.531-.869-.483-.869-.483-.821-.483-.773-.483-.773-.435-.773-.435-.773-.435-.724-.435-.724-.386-.676-.435-.724-.386-.676-.435-.676-.386-.724-.386-.676-.386-.676-.386-.676-.386-.676-.435-.724-.386-.676-.386-.724-.435-.724-.386-.724-.435-.724-.435-.773-.435-.773-.483-.821-.435-.821-.483L7.4,62.725l-.869-.483-.917-.531-.483-.338-.338-.386L4.6,60.552l-.1-.386V48.094l.1.435.193.386.338.386.483.386.917.483L7.4,50.7l.821.483.821.483.821.435.773.435.773.435.724.435.724.435.724.435.724.386.676.435.724.386.676.386.676.386.676.386.676.435.724.386.676.386.676.386.724.435.676.386.724.435.724.386.773.435.773.435.773.483.773.435.821.483.869.483.869.531.869.483.29.145.338.145.29.1.338.1.386.1.338.048h.386l.338.048.386-.048h.386l.338-.048.338-.1.338-.1.338-.1.338-.145.29-.145,1.062-.628,1.062-.579,1.062-.628,1.062-.579L40.57,60.6l1.014-.579,1.014-.579.966-.579,1.014-.579.966-.531.966-.579.966-.579.966-.531.966-.579.966-.531.966-.579.966-.531.966-.579.966-.531.966-.579.966-.531.966-.579.966-.579,1.014-.579,1.014-.531.966-.579,1.014-.628,1.062-.579,1.014-.579,1.062-.628,1.062-.628Z" transform="translate(-4.5 -43.555)" fill="#2c3e50" fill-rule="evenodd"/>
        </g>
        <path id="Path_4698" data-name="Path 4698" d="M37.709,9a5.934,5.934,0,0,1,5.408,0c9.8,5.65,14.438,8.305,24.24,14,1.5.869,1.5,2.269,0,3.139C55.72,32.856,46.883,37.974,35.246,44.686a5.934,5.934,0,0,1-5.408,0c-9.706-5.6-14.534-8.4-24.24-14-1.5-.869-1.5-2.269,0-3.139C11.054,24.405,25.685,15.955,37.709,9Z" transform="translate(-4.475 -4.318)" fill="#34485c" fill-rule="evenodd"/>
        <path id="Path_4699" data-name="Path 4699" d="M63.461,17.276c1.69.966,1.4.821,3.09,1.787.241.145.241.338,0,.483L52.017,27.9a.828.828,0,0,1-.821,0l-3.09-1.787c-.241-.145-.241-.338,0-.483l14.534-8.4A.969.969,0,0,1,63.461,17.276Z" transform="translate(-26.944 -8.874)" fill="#849cc9" fill-rule="evenodd"/>
        <path id="Path_4700" data-name="Path 4700" d="M97.463,55.517l-1.111.628-1.062.628-1.062.579-1.014.628-1.062.579-1.014.579-.966.579-1.014.579-1.014.579-.966.531-.966.579-.966.579-.966.531-.966.579-.966.531-.966.579-.966.531-.966.579-.966.531-.966.579-.966.531-.966.579-.966.579-1.014.579-.966.531-1.014.628-1.014.579L69.6,71.6l-1.062.579-1.062.628-1.062.628-1.062.628-.29.145-.338.145-.338.1-.338.1-.338.048-.338.048-.386.048H62.6V62.663l.386-.048h.386l.338-.048.338-.1.338-.1.338-.1.338-.145.29-.145,1.062-.628,1.062-.579,1.062-.628,1.062-.579,1.014-.628,1.014-.579,1.014-.579.966-.579,1.014-.579.966-.531.966-.579.966-.579.966-.531.966-.579.966-.531.966-.579.966-.531.966-.579.966-.531.966-.579.966-.531.966-.579.966-.579,1.014-.579,1.014-.531.966-.579,1.014-.628,1.062-.579,1.014-.579L95.29,44.7l1.062-.628,1.111-.628.483-.338.338-.386.193-.386.1-.435V53.924l-.1.435-.193.435-.338.386Z" transform="translate(-34.533 -21.668)" fill="#3d566e" fill-rule="evenodd"/>
        <path id="Path_4701" data-name="Path 4701" d="M11.8,50.8v1.593l1.69.966V51.766Z" transform="translate(-8.263 -26.27)" fill="#5e5e69" fill-rule="evenodd"/>
        <path id="Path_4702" data-name="Path 4702" d="M15.3,44.94v1.593L28,39.193V37.6Z" transform="translate(-10.073 -19.444)" fill="#737380" fill-rule="evenodd"/>
        <path id="Path_4703" data-name="Path 4703" d="M24.5,35.6,11.8,42.94l1.69.966,12.7-7.34Z" transform="translate(-8.263 -18.41)" fill="#80808f" fill-rule="evenodd"/>
        <g id="Group_2407" data-name="Group 2407" transform="translate(6.096)">
          <path id="Path_4704" data-name="Path 4704" d="M18.066,27.62l-.966-.579V6.47l.338.193.676-.386.676-1.159.676.386.773-.435.676-1.159.676.386.773-.435L22.991,2.7l.676.386.773-.435L25.116,1.5l.676.386.773-.435L27.24.29l.628.386.676-.435L28.737,0,29.7.579,29.51.821l-.628.386L28.206.821,27.53,1.98l-.773.435-.676-.386-.676,1.159-.773.435-.676-.338-.676,1.111-.724.435-.676-.338L21.2,5.65l-.773.435L19.756,5.7,19.08,6.857l-.676.386-.338-.193V27.62Z" transform="translate(-17.1)" fill="#a6aeb3" fill-rule="evenodd"/>
          <path id="Path_4705" data-name="Path 4705" d="M30.737,6.077v15.21l-.193-.1-.628.386-.676,1.159-.676-.386-.773.435-.676,1.159-.676-.338-.773.435L24.991,25.2l-.676-.386-.724.435-.676,1.159-.676-.386-.773.435-.676,1.159-.676-.386-.676.386-.338.628V7.67l.338.193.676-.386.676-1.159.676.386.773-.435.676-1.159.676.338.724-.435L24.991,3.9l.676.338.773-.435.676-1.159.676.386.773-.435.676-1.159.676.386.628-.386.193-.241V6.077Z" transform="translate(-18.134 -0.621)" fill="#e6eaeb" fill-rule="evenodd"/>
          <path id="Path_4706" data-name="Path 4706" d="M22,25.284,30.161,20.6v.386L22,25.67Z" transform="translate(-19.634 -10.653)" fill="#676775" fill-rule="evenodd"/>
          <path id="Path_4707" data-name="Path 4707" d="M22,29.07,30.788,24v.386L22,29.456Z" transform="translate(-19.634 -12.411)" fill="#676775" fill-rule="evenodd"/>
          <path id="Path_4708" data-name="Path 4708" d="M22,34.66l6.953-3.96v.338L22,35.046Z" transform="translate(-19.634 -15.876)" fill="#676775" fill-rule="evenodd"/>
          <path id="Path_4709" data-name="Path 4709" d="M22,46.78l3.477-1.98v.338L22,47.166Z" transform="translate(-19.634 -23.167)" fill="#676775" fill-rule="evenodd"/>
          <path id="Path_4710" data-name="Path 4710" d="M36.6,39.466l1.69-.966v.338L36.6,39.852Z" transform="translate(-27.184 -19.909)" fill="#676775" fill-rule="evenodd"/>
          <path id="Path_4711" data-name="Path 4711" d="M22,16.145,24.656,14.6v.386L22,16.531Z" transform="translate(-19.634 -7.55)" fill="#676775" fill-rule="evenodd"/>
          <path id="Path_4712" data-name="Path 4712" d="M34.1,8.99,37,7.3v.386l-2.9,1.69Z" transform="translate(-25.891 -3.775)" fill="#676775" fill-rule="evenodd"/>
          <path id="Path_4713" data-name="Path 4713" d="M22,18.549,26.925,15.7v.386L22,18.935Z" transform="translate(-19.634 -8.119)" fill="#676775" fill-rule="evenodd"/>
          <path id="Path_4714" data-name="Path 4714" d="M38.3,11.631l.869-.531v.386l-.869.483Z" transform="translate(-28.063 -5.74)" fill="#676775" fill-rule="evenodd"/>
        </g>
        <path id="Path_4715" data-name="Path 4715" d="M18.3,54.6v1.593l1.69.966V55.517Z" transform="translate(-11.624 -28.235)" fill="#5e5e69" fill-rule="evenodd"/>
        <path id="Path_4716" data-name="Path 4716" d="M21.8,48.64v1.642l12.7-7.34V41.3Z" transform="translate(-13.434 -21.357)" fill="#737380" fill-rule="evenodd"/>
        <path id="Path_4717" data-name="Path 4717" d="M31,39.4,18.3,46.74l1.69.917,12.7-7.34Z" transform="translate(-11.624 -20.375)" fill="#80808f" fill-rule="evenodd"/>
        <path id="Path_4718" data-name="Path 4718" d="M66.742,19.97h0l-14.583,8.4a.828.828,0,0,1-.821,0l-3.09-1.787h0l14.534-8.4a.828.828,0,0,1,.821,0c1.738.966,1.4.821,3.139,1.787Z" transform="translate(-27.086 -9.347)" fill="#b4ccfa" fill-rule="evenodd"/>
        <path id="Path_4719" data-name="Path 4719" d="M78.433,21.585l1.449-.821h0c.145-.1.145-.241,0-.29l-2.318-1.352h0a.523.523,0,0,0-.531,0l-1.449.821h0c-.145.1-.145.241,0,.29L77.9,21.585h0a.523.523,0,0,0,.531,0Zm.628-.966-.917.531-1.835-1.062.917-.531Z" transform="translate(-41.191 -9.851)" fill="#3d566e" fill-rule="evenodd"/>
        <g id="Group_2408" data-name="Group 2408" transform="translate(28.405 14.052)">
          <path id="Path_4720" data-name="Path 4720" d="M71.171,41.5v.724l-.048.048-.048.1-.1.048L67.549,44.4l-.1.048h-.1l-.145.048h-.193l-.1-.048h-.145l-.1-.048-3.187-1.883-.1-.048-.048-.048-.048-.048v-.676l.048.048.048.048.1.048,3.187,1.883.1.048h.145l.1.048h.193l.145-.048h.1l.1-.048,3.428-1.98.1-.1.048-.048.048-.048Z" transform="translate(-63.3 -35.512)" fill="#ccc" fill-rule="evenodd"/>
          <path id="Path_4721" data-name="Path 4721" d="M113.123,41.1v.821l-.1.048-.048.048L109.5,44l-.048.048-.145.048h-.435l-.1-.048-.1-.048-3.235-1.883-.048-.048-.048-.048-.048-.048v-.676l.048.048.048.048.048.048,3.235,1.883.1.048h.1l.1.048h.241l.1-.048h.145l.048-.048,3.477-1.98.048-.048.1-.1v-.1Z" transform="translate(-85.019 -35.306)" fill="#ccc" fill-rule="evenodd"/>
          <path id="Path_4722" data-name="Path 4722" d="M102.471,47.2v.773l-.048.048-.048.048-.1.048-3.428,2.028-.1.048h-.1l-.1.048h-.241l-.1-.048h-.145l-.048-.048-3.235-1.883-.1-.048-.048-.048-.048-.1v-.676l.048.1.048.048.1.048,3.235,1.835.048.048.145.048h.1l.1.048.145-.048h.1l.1-.048.1-.048,3.428-1.98.1-.048.048-.048.048-.048Z" transform="translate(-79.486 -38.46)" fill="#ccc" fill-rule="evenodd"/>
          <path id="Path_4723" data-name="Path 4723" d="M91.823,53.4v.724l-.048.1-.048.048-.048.048L88.2,56.3l-.1.048-.1.048h-.435l-.1-.048-.1-.048-3.235-1.835-.048-.1-.1-.048v-.676l.1.048.048.048,3.235,1.883.1.048.1.048h.435l.1-.048.1-.048,3.477-1.98.048-.048.048-.1.048-.048Z" transform="translate(-74.005 -41.666)" fill="#ccc" fill-rule="evenodd"/>
          <path id="Path_4724" data-name="Path 4724" d="M102.823,35.1v.773l-.048.048-.048.048-.048.048L99.2,38l-.1.048-.1.048h-.1l-.1.048-.145-.048h-.1l-.1-.048L98.38,38l-3.235-1.835-.048-.048-.1-.048v-.724l.1.1.048.048,3.235,1.835.1.048.1.048h.435l.1-.048.1-.048,3.477-1.98.048-.048.048-.048.048-.1Z" transform="translate(-79.693 -32.203)" fill="#ccc" fill-rule="evenodd"/>
          <path id="Path_4725" data-name="Path 4725" d="M92.171,41.3v.676l-.048.048v.048l-.048.1-.1.048L88.549,44.2l-.1.048-.1.048h-.483l-.1-.048-.1-.048-3.187-1.883-.1-.048-.048-.048-.048-.048v-.676l.048.048.048.048.1.048,3.187,1.883.1.048h.1l.145.048h.193l.145-.048h.1l.1-.048,3.428-1.98.1-.048.048-.1v-.048Z" transform="translate(-74.16 -35.409)" fill="#ccc" fill-rule="evenodd"/>
          <path id="Path_4726" data-name="Path 4726" d="M81.471,47.4v.773l-.048.048-.048.048-.1.048-3.428,2.028h-.1l-.1.048h-.1l-.145.048-.1-.048h-.1l-.1-.048h-.1l-3.235-1.883-.1-.048-.048-.048v-.1l-.048-.048v-.676l.048.048v.048l.048.1.1.048,3.235,1.835.1.048.1.048h.435l.1-.048.1-.048,3.428-1.98.1-.048.048-.048.048-.048Z" transform="translate(-68.626 -38.563)" fill="#ccc" fill-rule="evenodd"/>
          <path id="Path_4727" data-name="Path 4727" d="M92.471,29.1v.773l-.048.048-.048.1-.1.048-3.428,1.98-.1.048h-.1l-.1.048h-.241l-.1-.048h-.1l-.1-.048-3.235-1.883-.1-.048-.048-.048v-.048l-.048-.1v-.676l.048.048v.1l.048.048.1.048,3.235,1.883.1.048h.1l.1.048h.241l.1-.048h.1l.1-.048,3.428-2.028.1-.048.048-.048.048-.048Z" transform="translate(-74.315 -29.1)" fill="#ccc" fill-rule="evenodd"/>
          <path id="Path_4728" data-name="Path 4728" d="M81.823,35.3v.773l-.048.048-.048.048-.048.048L78.2,38.2l-.1.048-.1.048h-.435l-.1-.048-.1-.048-3.235-1.835-.048-.048-.048-.1L74,36.169v-.676l.048.048.048.1.048.048,3.235,1.835.1.048.1.048h.435l.1-.048.1-.048,3.477-1.98.048-.048.048-.048.048-.1Z" transform="translate(-68.833 -32.306)" fill="#ccc" fill-rule="evenodd"/>
        </g>
        <path id="Path_4729" data-name="Path 4729" d="M63.506,32.6l3.428-1.98a.828.828,0,0,1,.821,0l3.235,1.883c.241.145.241.338,0,.483l-3.428,1.98a.828.828,0,0,1-.821,0l-3.235-1.883c-.241-.145-.241-.338,0-.483Zm20.232-.193,3.428-1.98a.828.828,0,0,1,.821,0l3.235,1.883c.241.145.241.338,0,.483l-3.428,1.98a.828.828,0,0,1-.821,0l-3.235-1.883a.273.273,0,0,1,0-.483ZM78.62,35.4c-.241.145-.241.338,0,.483l3.235,1.883a.828.828,0,0,0,.821,0L86.1,35.79c.241-.145.241-.338,0-.483l-3.235-1.883a.828.828,0,0,0-.821,0L78.62,35.4Zm-5.167,2.946,3.428-1.98a.828.828,0,0,1,.821,0l3.235,1.883c.241.145.241.338,0,.483l-3.428,1.98a.828.828,0,0,1-.821,0l-3.235-1.883c-.241-.1-.241-.338,0-.483Zm5.312-8.788c-.241.145-.241.338,0,.483L82,31.927a.828.828,0,0,0,.821,0l3.428-1.98c.241-.145.241-.338,0-.483l-3.235-1.883a.828.828,0,0,0-.821,0l-3.428,1.98Zm-5.118,2.946,3.428-1.98a.828.828,0,0,1,.821,0l3.235,1.883c.241.145.241.338,0,.483L77.7,34.872a.828.828,0,0,1-.821,0l-3.235-1.883c-.241-.1-.241-.338,0-.483ZM68.48,35.5c-.241.145-.241.338,0,.483l3.235,1.883a.828.828,0,0,0,.821,0l3.428-1.98c.241-.145.241-.338,0-.483L72.729,33.52a.828.828,0,0,0-.821,0L68.48,35.5Zm5.312-8.837,3.428-1.98a.828.828,0,0,1,.821,0l3.235,1.883c.241.145.241.338,0,.483l-3.428,1.98a.828.828,0,0,1-.821,0l-3.235-1.883c-.241-.145-.241-.338,0-.483Zm-5.167,2.994c-.241.145-.241.338,0,.483l3.235,1.883a.828.828,0,0,0,.821,0l3.428-1.98c.241-.145.241-.338,0-.483l-3.235-1.883a.828.828,0,0,0-.821,0Z" transform="translate(-34.908 -12.708)" fill="#e6e6e6" fill-rule="evenodd"/>
      </g>
    </g>
    <g id="Group_2425" data-name="Group 2425" transform="translate(86 -1212.814)">
      <text id="MY" transform="translate(589 1585.814)" fill="#1f1e1e" font-size="20" font-family="AvenirNextCondensed-DemiBold, Avenir Next Condensed" font-weight="300"><tspan x="0" y="0">MY</tspan></text>
      <text id="MÜSTAHSİL_MAKBUZU" data-name="MÜSTAHSİL 
MAKBUZU" transform="translate(589 1614.841)" fill="#1f1e1e" font-size="25" font-family="AvenirNextCondensed-DemiBold, Avenir Next Condensed" font-weight="300"><tspan x="0" y="0">MÜSTAHSİL </tspan><tspan x="0" y="24">MAKBUZU</tspan></text>
    </g>
  </g>
</svg>
