<?xml version="1.0" encoding="utf-8"?>
<!-- Generator: Adobe Illustrator 22.1.0, SVG Export Plug-In . SVG Version: 6.00 Build 0)  -->
<svg version="1.1" id="Layer_1" xmlns="http://www.w3.org/2000/svg" xmlns:xlink="http://www.w3.org/1999/xlink" x="0px" y="0px"
	 viewBox="0 0 2422.8 1386.7" style="enable-background:new 0 0 2422.8 1386.7;" xml:space="preserve">
<style type="text/css">
	.st0{fill:#3B475A;}
</style>
<path class="st0" d="M1787.4,452c-76-118-171.2-206.2-285.8-264.8c30.5,52,45.8,108.2,45.8,168.8c0,92.5-32.9,171.6-98.6,237.4
	S1303.9,692,1211.4,692s-171.6-32.9-237.4-98.6S875.4,448.5,875.4,356c0-60.5,15.2-116.8,45.8-168.8
	C806.6,245.8,711.4,334,635.4,452c66.5,102.5,149.9,184.1,250.1,244.9s208.9,91.1,325.9,91.1s225.6-30.4,325.9-91.1
	S1720.9,554.5,1787.4,452z M1247.4,164c0-10-3.5-18.5-10.5-25.5s-15.5-10.5-25.5-10.5c-62.5,0-116.1,22.4-160.9,67.1
	s-67.1,98.4-67.1,160.9c0,10,3.5,18.5,10.5,25.5s15.5,10.5,25.5,10.5s18.5-3.5,25.5-10.5s10.5-15.5,10.5-25.5
	c0-43,15.2-79.8,45.8-110.2s67.2-45.8,110.2-45.8c10,0,18.5-3.5,25.5-10.5S1247.4,174,1247.4,164z M1883.4,452c0,17-5,34.2-15,51.8
	c-70,115-164.1,207.1-282.4,276.4S1342.9,884,1211.4,884S955,849.2,836.8,779.8s-212.4-161.5-282.4-276c-10-17.5-15-34.8-15-51.8
	s5-34.2,15-51.8c70-114.5,164.1-206.5,282.4-276S1079.9,20,1211.4,20s256.4,34.8,374.6,104.2s212.4,161.5,282.4,276
	C1878.4,417.8,1883.4,435,1883.4,452z"/>
<g>
	<path class="st0" d="M28.8,1290V967.9h90.9c28,0,52.8,6.2,74.3,18.6c21.5,12.4,38.2,30,49.9,52.9c11.7,22.9,17.7,49.1,17.8,78.8
		v20.6c0,30.4-5.9,57-17.6,79.9c-11.7,22.9-28.5,40.4-50.2,52.7c-21.8,12.2-47.1,18.5-76,18.8H28.8z M71.3,1002.6v252.7H116
		c32.7,0,58.2-10.2,76.4-30.6c18.2-20.4,27.3-49.4,27.3-87v-18.8c0-36.6-8.6-65.1-25.8-85.4c-17.2-20.3-41.6-30.6-73.1-30.9H71.3z"
		/>
	<path class="st0" d="M308.7,1168.1c0-23.5,4.6-44.5,13.8-63.3c9.2-18.7,22.1-33.2,38.5-43.4c16.4-10.2,35.2-15.3,56.3-15.3
		c32.6,0,59,11.3,79.1,33.9c20.1,22.6,30.2,52.6,30.2,90.1v2.9c0,23.3-4.5,44.2-13.4,62.7c-8.9,18.5-21.7,32.9-38.3,43.3
		c-16.6,10.3-35.7,15.5-57.2,15.5c-32.5,0-58.7-11.3-78.9-33.9c-20.1-22.6-30.2-52.4-30.2-89.6V1168.1z M349.9,1173
		c0,26.6,6.2,47.9,18.5,63.9c12.3,16.1,28.8,24.1,49.5,24.1c20.8,0,37.3-8.1,49.6-24.5c12.2-16.3,18.4-39.1,18.4-68.5
		c0-26.3-6.2-47.5-18.7-63.8c-12.5-16.3-29-24.5-49.7-24.5c-20.2,0-36.5,8-48.9,24.1C356.1,1120,349.9,1143,349.9,1173z"/>
	<path class="st0" d="M717.4,1226.5c0-11.1-4.2-19.7-12.5-25.8c-8.3-6.1-22.9-11.4-43.6-15.8c-20.7-4.4-37.2-9.7-49.3-15.9
		s-21.2-13.6-27-22.1c-5.8-8.6-8.7-18.7-8.7-30.5c0-19.6,8.3-36.2,24.9-49.8c16.6-13.6,37.8-20.4,63.6-20.4c27.1,0,49.2,7,66,21
		c16.9,14,25.3,31.9,25.3,53.8H715c0-11.2-4.8-20.9-14.3-29c-9.5-8.1-21.5-12.2-36-12.2c-14.9,0-26.6,3.2-35,9.7
		c-8.4,6.5-12.6,15-12.6,25.4c0,9.9,3.9,17.3,11.7,22.3c7.8,5,21.9,9.8,42.4,14.4c20.4,4.6,37,10,49.7,16.4
		c12.7,6.3,22.1,14,28.2,22.9c6.1,8.9,9.2,19.8,9.2,32.6c0,21.4-8.6,38.5-25.7,51.4c-17.1,12.9-39.3,19.4-66.6,19.4
		c-19.2,0-36.1-3.4-50.9-10.2c-14.8-6.8-26.3-16.3-34.6-28.4c-8.3-12.2-12.5-25.3-12.5-39.5H609c0.7,13.7,6.2,24.6,16.5,32.6
		c10.3,8,23.8,12.1,40.6,12.1c15.5,0,27.9-3.1,37.3-9.4C712.7,1245.4,717.4,1237,717.4,1226.5z"/>
	<path class="st0" d="M890,1230.1l55.8-179.4h43.8L893.3,1327c-14.9,39.8-38.6,59.7-71,59.7l-7.7-0.7l-15.3-2.9V1350l11.1,0.9
		c13.9,0,24.7-2.8,32.4-8.4c7.7-5.6,14.1-15.9,19.1-30.8l9.1-24.3l-85.4-236.8h44.7L890,1230.1z"/>
	<path class="st0" d="M1173.9,1290c-2.4-4.7-4.3-13.1-5.8-25.2c-19,19.8-41.7,29.7-68.2,29.7c-23.6,0-43-6.7-58.1-20
		c-15.1-13.3-22.7-30.3-22.7-50.8c0-24.9,9.5-44.3,28.4-58.1c19-13.8,45.6-20.7,80-20.7h39.8v-18.8c0-14.3-4.3-25.7-12.8-34.2
		c-8.6-8.5-21.2-12.7-37.8-12.7c-14.6,0-26.8,3.7-36.7,11.1c-9.9,7.4-14.8,16.3-14.8,26.8h-41.2c0-11.9,4.2-23.5,12.7-34.6
		c8.5-11.1,20-19.9,34.5-26.4c14.5-6.5,30.5-9.7,47.9-9.7c27.6,0,49.2,6.9,64.8,20.7c15.6,13.8,23.7,32.8,24.3,57V1234
		c0,22,2.8,39.5,8.4,52.4v3.5H1173.9z M1105.9,1258.8c12.8,0,25-3.3,36.5-10c11.5-6.6,19.8-15.3,25-25.9v-49.1h-32.1
		c-50.2,0-75.2,14.7-75.2,44c0,12.8,4.3,22.9,12.8,30.1C1081.5,1255.2,1092.5,1258.8,1105.9,1258.8z"/>
	<path class="st0" d="M1350.9,1230.1l55.8-179.4h43.8l-96.3,276.4c-14.9,39.8-38.6,59.7-71,59.7l-7.7-0.7l-15.3-2.9V1350l11.1,0.9
		c13.9,0,24.7-2.8,32.4-8.4c7.7-5.6,14.1-15.9,19.1-30.8l9.1-24.3l-85.4-236.8h44.7L1350.9,1230.1z"/>
	<path class="st0" d="M1531.4,1290h-41.2v-239.4h41.2V1290z"/>
	<path class="st0" d="M1955.4,1247.8c-10.9,15.6-26.1,27.3-45.7,35.1c-19.5,7.7-42.3,11.6-68.3,11.6c-26.3,0-49.6-6.2-69.9-18.5
		c-20.4-12.3-36.1-29.8-47.2-52.6c-11.1-22.7-16.9-49-17.1-79v-28.1c0-48.5,11.3-86.1,34-112.8c22.6-26.7,54.5-40,95.5-40
		c33.6,0,60.7,8.6,81.2,25.8c20.5,17.2,33,41.6,37.6,73.1h-42.5c-8-42.8-33.3-64.2-76.1-64.2c-28.5,0-50,10-64.7,30
		c-14.7,20-22.1,49-22.2,86.9v26.4c0,36.2,8.3,64.9,24.8,86.3c16.5,21.3,38.9,32,67,32c15.9,0,29.9-1.8,41.8-5.3s21.8-9.5,29.7-17.9
		v-72.2h-74.6v-34.7h116.8V1247.8z"/>
	<path class="st0" d="M2008.9,1168.1c0-23.5,4.6-44.5,13.8-63.3c9.2-18.7,22.1-33.2,38.5-43.4c16.4-10.2,35.2-15.3,56.3-15.3
		c32.6,0,59,11.3,79.1,33.9c20.1,22.6,30.2,52.6,30.2,90.1v2.9c0,23.3-4.5,44.2-13.4,62.7c-8.9,18.5-21.7,32.9-38.3,43.3
		c-16.6,10.3-35.7,15.5-57.2,15.5c-32.5,0-58.7-11.3-78.9-33.9c-20.1-22.6-30.2-52.4-30.2-89.6V1168.1z M2044.8,986.6
		c0-6.7,2-12.3,6.1-16.8c4.1-4.5,10.1-6.8,18-6.8c8,0,14,2.3,18.1,6.8c4.1,4.5,6.2,10.1,6.2,16.8s-2.1,12.2-6.2,16.7
		c-4.1,4.4-10.2,6.7-18.1,6.7c-8,0-14-2.2-18-6.7C2046.8,998.8,2044.8,993.2,2044.8,986.6z M2050.1,1173c0,26.6,6.2,47.9,18.5,63.9
		c12.3,16.1,28.8,24.1,49.5,24.1c20.8,0,37.3-8.1,49.6-24.5c12.2-16.3,18.4-39.1,18.4-68.5c0-26.3-6.2-47.5-18.7-63.8
		c-12.5-16.3-29-24.5-49.7-24.5c-20.2,0-36.5,8-48.9,24.1C2056.3,1120,2050.1,1143,2050.1,1173z M2139.9,987c0-6.7,2-12.3,6.1-16.9
		c4.1-4.6,10.1-6.9,18-6.9c8,0,14,2.3,18.1,6.9c4.1,4.6,6.2,10.2,6.2,16.9s-2.1,12.2-6.2,16.7c-4.1,4.4-10.2,6.7-18.1,6.7
		c-8,0-14-2.2-18-6.7C2142,999.2,2139.9,993.7,2139.9,987z"/>
	<path class="st0" d="M2393.9,1087.3c-6.2-1-12.9-1.5-20.1-1.5c-26.8,0-45.1,11.4-54.7,34.3V1290h-40.9v-239.4h39.8l0.7,27.7
		c13.4-21.4,32.4-32.1,57.1-32.1c8,0,14,1,18.1,3.1V1087.3z"/>
</g>
</svg>
