<?xml version="1.0" encoding="utf-8"?>
<!-- Generator: Adobe Illustrator 22.1.0, SVG Export Plug-In . SVG Version: 6.00 Build 0)  -->
<svg version="1.1" id="Layer_1" xmlns="http://www.w3.org/2000/svg" xmlns:xlink="http://www.w3.org/1999/xlink" x="0px" y="0px"
	 viewBox="0 0 120 136.9" style="enable-background:new 0 0 120 136.9;" xml:space="preserve">
<style type="text/css">
	.st0{fill:#E6EAEB;}
	.st1{fill:#C0392B;}
	.st2{fill:#BDBDBD;}
	.st3{fill:#9C9C9C;}
	.st4{fill:#E74C3C;}
	.st5{enable-background:new    ;}
	.st6{fill:#1F1E1E;}
</style>
<g id="Group_2394" transform="translate(7.337 -0.6)">
	<path id="Path_4498" class="st0" d="M72.6,2.8l9.6,5.5l0,0c0,0,0,0,0.1,0c0.6,0.5,0.9,1.1,0.9,1.8v3.8l0,0v23.9l0,0v3.8
		c-0.1,1-0.4,1.9-0.9,2.8c-0.5,0.9-1.3,1.7-2.1,2.3L34.8,72.9c-0.6,0.5-1.4,0.5-2.1,0.2c0,0,0,0-0.1,0l0,0L23,67.5h-0.1l-0.1-0.1
		l-0.1-0.1l-0.1-0.1v-0.1V67v-0.1v-0.1v-0.1v-0.1v-0.1v-0.1v-0.1v-4.1l0,0V33.9v-0.2v-0.2v-0.2v-0.2v-0.2v-0.2v-0.2v-0.2v-0.2
		l0.1-0.2l0.1-0.2l0.1-0.2l0.1-0.2l0.1-0.2h0.1l0.1-0.2l0.1-0.2l0.1-0.2l0.1-0.1l0.1-0.1l0.1-0.1l0.1-0.1l0.3-0.3l0.1-0.1l0.2-0.2
		l0.1-0.1l0.1-0.1l0.1-0.1l0.1-0.1l0.3-0.1L70.5,2.8l0.1-0.1l0.1-0.1h0.1h0.1l0.3-0.1h0.1h0.1h0.8h0.1h0.1L72.6,2.8z"/>
	<path id="Path_4499" class="st1" d="M31.8,39.8l-9.6-5.5v3.8l9.6,5.5V39.8z"/>
	<path id="Path_4500" class="st2" d="M82.2,8.3l-9.6-5.5h-0.1h-0.1h-0.1h-0.1h-0.4h-0.1h-0.1h-0.1h-0.1h-0.1h-0.2L71,2.9L70.9,3
		L25.2,29.2l-0.1,0.1L25,29.4l-0.2,0.1l-0.1,0.1l-0.1,0.1l-0.2,0.1l-0.2,0.3l-0.1,0.1L24,30.3l-0.2,0.2l-0.1,0.1l-0.1,0.2l-0.1,0.1
		l-0.1,0.2l-0.2,0.2l-0.1,0.2L23,31.7l-0.1,0.1V32l-0.1,0.2l-0.1,0.1v0.2v0.2l-0.1,0.1V33v0.2v0.2v0.1v0.2v0.2v0.3l9.6,5.5v-0.2
		v-0.2v-0.2v-0.2v-0.1v-0.2v-0.2l0.1-0.2v-0.1l0.1-0.2v-0.2l0.1-0.1l0.1-0.2l0.1-0.2l0.1-0.1l0.1-0.2l0.1-0.2l0.1-0.1l0.1-0.2
		l0.1-0.1l0.1-0.1l0.1-0.2l0.1-0.1l0.1-0.1l0.1-0.1l0.1-0.1l0.1-0.1l0.1-0.1l0.1-0.1l0.1-0.1l0.2-0.1L80.1,8.6h0.1l0.2-0.1h0.1
		l0.1-0.1h0.1h0.1h0.1h0.7h0.1L82.2,8.3L82.2,8.3z"/>
	<path id="Path_4501" class="st3" d="M31.8,43.6l-9.6-5.5v24l0,0v4.1v0.1v0.2v0.1v0.1v0.1v0.1l0.1,0.1v0.1v0.1l0.1,0.1l0.1,0.1l0,0
		l0.1,0.1l9.6,5.5h-0.1H32l-0.1-0.1v-0.1l0.3-0.1v-0.1L32,72.5v-0.1v-0.1v-0.1v-0.1V72v-0.1v-4.4l0,0L31.8,43.6z"/>
	<path id="Path_4502" class="st0" d="M82.3,44.5c0.5-0.8,0.8-1.8,0.9-2.8L67.3,37l-7.5,10.8c-0.6,0.9-1.4,1.7-2.3,2.3
		c-0.7,0.4-1.5,0.6-2.3,0.4l-7.5-2.2L31.8,71.4c0,0.7,0.3,1.4,0.9,1.8c0.7,0.3,1.5,0.3,2.1-0.2l45.3-26.2
		C81,46.2,81.8,45.5,82.3,44.5z"/>
	<path id="Path_4503" class="st0" d="M31.8,43.6v23.9l0,0v3.8l15.9-23l-2.2-0.7L31.8,43.6z"/>
	<path id="Path_4504" class="st0" d="M83.2,41.7v-3.8l0,0v-24L69.4,33.8L67.2,37L83.2,41.7z"/>
	<path id="Path_4505" class="st0" d="M80.1,8.6L34.8,34.7c-0.9,0.5-1.6,1.3-2.1,2.3c-0.5,0.8-0.8,1.8-0.9,2.8v3.8
		c23.2,6.9,0.7,0.2,23.3,6.9c0.8,0.2,1.6,0,2.3-0.4c0.9-0.6,1.7-1.4,2.3-2.3c23.9-34.7,0.5-0.7,23.3-33.9v-3.8c0.1-1-0.6-1.9-1.6-2
		C81,8.1,80.5,8.2,80.1,8.6z"/>
	<path id="Path_4506" class="st4" d="M83.2,14v-3.9l-24.1,35c-0.4,0.6-0.9,1.1-1.5,1.5c-0.4,0.3-1,0.4-1.5,0.3l-24.2-7.1v3.8
		c20.9,6.2,5,1.5,23.3,6.9c0.8,0.2,1.6,0,2.3-0.4c0.9-0.6,1.7-1.4,2.3-2.3C83.7,13.2,60.3,47.2,83.2,14z"/>
	<path id="Path_4507" class="st3" d="M32.5,37.4l-9.6-5.5V32l-0.1,0.2l-0.1,0.1v0.2v0.2l-0.1,0.1V33v0.2v0.2v0.1v0.2v0.2v0.3
		l9.6,5.5v-0.2v-0.2v-0.2v-0.2v-0.1v-0.2v-0.2l0.1-0.2v-0.1l0.1-0.2v-0.2l0.1-0.1C32.5,37.6,32.5,37.4,32.5,37.4z"/>
</g>
<g class="st5">
	<path class="st6" d="M27.9,87.3h3.9l3.7,10.1h0.1l3.6-10.1h4v14.2h-2.5V90.1h0l-4.3,11.4h-1.8l-4.2-11.4h0v11.4h-2.4V87.3z"/>
	<path class="st6" d="M46,84.6c0-0.4,0.1-0.7,0.4-1c0.3-0.3,0.6-0.4,1.1-0.4c0.4,0,0.8,0.1,1.1,0.4c0.3,0.3,0.4,0.6,0.4,1
		c0,0.4-0.1,0.8-0.4,1c-0.3,0.3-0.7,0.4-1.1,0.4c-0.4,0-0.8-0.1-1.1-0.4C46.1,85.4,46,85,46,84.6z M46.3,87.3h2.5v14.2h-2.5V87.3z"
		/>
	<path class="st6" d="M51.9,87.3h2.5v6.1h0.1l5.9-6.1h3.4l-6.6,6.5l7.1,7.6h-3.5l-6.2-7.1h-0.1v7.1h-2.5V87.3z"/>
	<path class="st6" d="M65.7,87.3h4.9c0.7,0,1.3,0.1,1.9,0.2c0.6,0.1,1.2,0.4,1.7,0.7c0.5,0.3,0.9,0.7,1.2,1.3s0.4,1.2,0.4,1.9
		c0,1-0.3,1.9-0.9,2.5s-1.4,1.1-2.4,1.3l3.8,6.3h-3l-3.3-6h-1.8v6h-2.5V87.3z M70.3,93.4c0.4,0,0.7,0,1.1-0.1c0.4-0.1,0.7-0.2,1-0.3
		c0.3-0.1,0.5-0.4,0.7-0.6c0.2-0.3,0.3-0.6,0.3-1c0-0.4-0.1-0.7-0.3-1c-0.2-0.2-0.4-0.4-0.7-0.6c-0.3-0.1-0.6-0.2-0.9-0.3
		c-0.3-0.1-0.7-0.1-1-0.1h-2.3v4H70.3z"/>
	<path class="st6" d="M77.6,94.4c0-1.1,0.2-2.2,0.6-3.1c0.4-0.9,0.9-1.7,1.6-2.3c0.7-0.6,1.5-1.1,2.4-1.5s1.9-0.5,3-0.5
		c1.1,0,2.1,0.2,3.1,0.5c0.9,0.3,1.7,0.8,2.4,1.5c0.7,0.6,1.2,1.4,1.6,2.3c0.4,0.9,0.6,1.9,0.6,3.1c0,1.1-0.2,2.1-0.6,3
		s-0.9,1.7-1.6,2.4c-0.7,0.7-1.5,1.2-2.4,1.5c-0.9,0.4-2,0.6-3.1,0.6c-1.1,0-2.1-0.2-3-0.6c-0.9-0.4-1.7-0.9-2.4-1.5
		c-0.7-0.7-1.2-1.4-1.6-2.4S77.6,95.5,77.6,94.4z M80.3,94.4c0,0.8,0.1,1.5,0.3,2.1c0.2,0.6,0.6,1.2,1,1.7s0.9,0.8,1.5,1.1
		c0.6,0.3,1.2,0.4,2,0.4c0.7,0,1.4-0.1,2-0.4s1.1-0.6,1.5-1.1s0.8-1,1-1.7c0.2-0.6,0.4-1.3,0.4-2.1c0-0.7-0.1-1.4-0.4-2
		c-0.2-0.6-0.6-1.2-1-1.6s-0.9-0.8-1.5-1.1c-0.6-0.3-1.3-0.4-2-0.4c-0.7,0-1.4,0.1-2,0.4c-0.6,0.3-1.1,0.6-1.5,1.1s-0.8,1-1,1.6
		C80.4,93,80.3,93.6,80.3,94.4z"/>
</g>
<g class="st5">
	<path class="st6" d="M38.1,112.8h3.1v7.7h0.1l7.4-7.7H53l-8.3,8.2l8.8,9.5h-4.4l-7.8-8.9h-0.1v8.9h-3.1V112.8z"/>
	<path class="st6" d="M55.3,112.8H67v2.8h-8.6v4.5h8.1v2.7h-8.1v5h9v2.8H55.3V112.8z"/>
	<path class="st6" d="M70.6,112.8h5.8c1,0,1.9,0.1,2.8,0.3s1.5,0.5,2.1,0.9c0.6,0.4,1,1,1.3,1.6c0.3,0.6,0.5,1.4,0.5,2.3
		c0,1-0.2,1.8-0.6,2.5c-0.4,0.7-0.9,1.2-1.5,1.6s-1.4,0.7-2.2,0.9s-1.7,0.3-2.6,0.3h-2.4v7.3h-3.1V112.8z M75.9,120.5
		c0.5,0,1,0,1.5-0.1c0.5-0.1,0.9-0.2,1.2-0.4c0.4-0.2,0.7-0.5,0.9-0.8c0.2-0.3,0.3-0.8,0.3-1.3c0-0.5-0.1-0.9-0.3-1.3
		c-0.2-0.3-0.5-0.6-0.9-0.8s-0.8-0.3-1.2-0.4c-0.5-0.1-0.9-0.1-1.4-0.1h-2.3v5.1H75.9z"/>
</g>
</svg>
