<?xml version="1.0" encoding="utf-8"?>
<!-- Generator: Adobe Illustrator 22.1.0, SVG Export Plug-In . SVG Version: 6.00 Build 0)  -->
<svg version="1.1" id="Layer_1" xmlns="http://www.w3.org/2000/svg" xmlns:xlink="http://www.w3.org/1999/xlink" x="0px" y="0px"
	 viewBox="0 0 100 100" style="enable-background:new 0 0 100 100;" xml:space="preserve">
<style type="text/css">
	.st0{opacity:3.000000e-03;fill:#040507;enable-background:new    ;}
	.st1{opacity:7.000000e-03;fill:#080A0D;enable-background:new    ;}
	.st2{opacity:1.000000e-02;fill:#0B0E14;enable-background:new    ;}
	.st3{opacity:1.300000e-02;fill:#0F131B;enable-background:new    ;}
	.st4{opacity:1.700000e-02;fill:#131822;enable-background:new    ;}
	.st5{opacity:2.000000e-02;fill:#171D29;enable-background:new    ;}
	.st6{opacity:2.300000e-02;fill:#1B2230;enable-background:new    ;}
	.st7{opacity:2.700000e-02;fill:#1F2737;enable-background:new    ;}
	.st8{opacity:3.000000e-02;fill:#232C3F;enable-background:new    ;}
	.st9{opacity:3.300000e-02;fill:#273246;enable-background:new    ;}
	.st10{opacity:3.700000e-02;fill:#2B374D;enable-background:new    ;}
	.st11{opacity:4.000000e-02;fill:#2F3C54;enable-background:new    ;}
	.st12{opacity:4.300000e-02;fill:#34415C;enable-background:new    ;}
	.st13{opacity:4.700000e-02;fill:#384763;enable-background:new    ;}
	.st14{fill:#E6EAEB;}
	.st15{fill:#C0392B;}
	.st16{fill:#BDBDBD;}
	.st17{fill:#9C9C9C;}
	.st18{fill:#E74C3C;}
</style>
<g id="Group_2696" transform="translate(-953 -425)">
	<g id="Group_2468" transform="translate(759.921 -90)">
		<g id="Group_2395" transform="translate(193.078 515.6)">
			<g id="Group_2393" transform="translate(0 52.038)">
				<path id="Path_4484" class="st0" d="M69.6-2.1c10.8,6.3,10.8,16.3,0,22.6s-28.3,6.3-39.1,0s-10.8-16.3,0-22.6S58.7-8.3,69.6-2.1
					z"/>
				<path id="Path_4485" class="st1" d="M68.3-1.4c10.1,5.9,10.1,15.2,0,21.1s-26.4,5.9-36.6,0s-10.1-15.2,0-21.1S58.1-7.2,68.3-1.4
					z"/>
				<path id="Path_4486" class="st2" d="M66.9-0.6c9.4,5.4,9.4,14.2,0,19.6s-24.5,5.4-33.8,0s-9.4-14.2,0-19.6S57.6-6,66.9-0.6z"/>
				<path id="Path_4487" class="st3" d="M65.7,0.1c8.7,5,8.7,13.2,0,18s-22.6,5-31.3,0s-8.7-13.1,0-18S57-4.9,65.7,0.1z"/>
				<path id="Path_4488" class="st4" d="M64.3,1c7.9,4.5,7.9,11.9,0,16.5s-20.9,4.5-28.7,0S27.7,5.5,35.6,1
					C43.7-3.8,56.4-3.8,64.3,1z"/>
				<path id="Path_4489" class="st5" d="M63,1.6c7.2,4.1,7.2,10.9,0,15s-18.9,4.1-26.2,0.1s-7.2-10.9,0-15C44.3-2.5,55.8-2.5,63,1.6
					z"/>
				<path id="Path_4490" class="st6" d="M61.6,2.5c6.5,3.8,6.5,9.7,0,13.6s-16.9,3.8-23.4,0s-6.5-9.7,0-13.6S55.2-1.4,61.6,2.5z"/>
				<path id="Path_4491" class="st7" d="M60.4,3.2c5.8,3.3,5.8,8.7,0,11.9s-15,3.3-20.9,0s-5.8-8.7,0-11.9
					C45.4-0.1,54.7-0.1,60.4,3.2z"/>
				<path id="Path_4492" class="st8" d="M59.1,3.9c5,3,5,7.5,0,10.4s-13.2,3-18.1,0s-5-7.5,0-10.4C45.9,1.1,54.1,1.1,59.1,3.9z"/>
				<path id="Path_4493" class="st9" d="M57.7,4.8c4.3,2.5,4.3,6.5,0,9.1s-11.2,2.5-15.6,0s-4.3-6.5,0-9.1S53.6,2.3,57.7,4.8z"/>
				<path id="Path_4494" class="st10" d="M56.4,5.5c3.5,2,3.5,5.4,0,7.5c-3.5,2-9.4,2-13,0s-3.5-5.4,0-7.5S52.8,3.4,56.4,5.5z"/>
				<path id="Path_4495" class="st11" d="M55.1,6.2c2.9,1.6,2.9,4.3,0,5.9c-3.3,1.6-7,1.6-10.3,0c-2.9-1.6-2.9-4.3,0-5.9
					C48.1,4.7,52,4.7,55.1,6.2z"/>
				<path id="Path_4496" class="st12" d="M53.8,7.1c2.1,1.3,2.1,3.3,0,4.5c-2.4,1.3-5.3,1.3-7.7,0c-2.1-1.3-2.1-3.3,0-4.5
					C48.6,5.8,51.3,5.8,53.8,7.1z"/>
				<path id="Path_4497" class="st13" d="M52.6,7.7c1.4,0.8,1.4,2.1,0,3c-1.6,0.8-3.4,0.8-5,0c-1.4-0.8-1.4-2.1,0-3
					C49.1,6.9,50.9,6.9,52.6,7.7z"/>
			</g>
			<g id="Group_2394" transform="translate(7.337 -0.6)">
				<path id="Path_4498" class="st14" d="M57.2,7.6l7,4l0,0c0,0,0,0,0.1,0C64.9,12,65,12.4,65,13v2.8l0,0v17.5l0,0V36
					c-0.1,0.8-0.3,1.4-0.6,2c-0.4,0.6-1,1.3-1.5,1.8L29.6,59c-0.5,0.4-1,0.4-1.5,0.3c0,0,0,0-0.1,0l0,0l-7-4.1h-0.1L20.6,55v-0.1
					l-0.1-0.1v-0.1v-0.1v-0.1v-0.1v-0.1V54v-0.1v-0.1v-0.1v-3l0,0V30.5v-0.3V30v-0.3v0v-0.3v-0.3V29v-0.3V29l0.1-0.3l0.1-0.3
					l0.1-0.3L21,28l0.1-0.3h0.1l0.1-0.3l0.1-0.3l0.1-0.3l0.1-0.1l0.1-0.1l0.1-0.1l0.1-0.1l0.3-0.3l0.1-0.1l0.3-0.3l0.1-0.1l0.1-0.1
					l0.1-0.1l0.1-0.1l0.3-0.1L56,7.1L56.1,7l0.1-0.1h0.1h0.1l0.3-0.1h0.1H57h0.6h0.1h0.1L57.2,7.6z"/>
				<path id="Path_4499" class="st15" d="M27.3,34.7l-7-4v2.8l7,4V34.7z"/>
				<path id="Path_4500" class="st16" d="M64.3,11.6l-7-4h-0.1l0,0H57h-0.1h-0.3h-0.1l0,0h-0.1h-0.1h-0.1h-0.3l-0.1,0.1l0.1,0.1
					L22.3,26.9l-0.1,0.1l0,0.1h0.1l-0.1,0.1L22,27.5h-0.1l-0.3,0.3l-0.1,0.1L21.4,28l-0.3,0.3L21,28.3l0.1,0.1L21,28.6l0.1-0.1
					l-0.3,0.3l0,0L20.8,29l-0.1,0.1v0.3h0v0.1v0.3V30l-0.1,0.1v0.3v0.3v-0.3l0,0v0.3v0.3v0.3l7,4v-0.3v-0.3v-0.3v-0.3V34v-0.3v-0.3
					l0.1-0.3v-0.1l0.1-0.3v-0.3l0.1-0.1l0.1-0.3l0.1-0.3l0.1-0.1l0.1-0.3l0.1-0.3l0.1-0.1l0.1-0.3l0.1-0.1l0.1-0.1l0.1-0.3l0.1-0.1
					l0.1-0.1l0.1-0.1l0.1-0.1l0.1-0.1l0.1-0.1l0.1-0.1l0.1-0.1l0.3-0.1l32.7-18.5h0.1l0.3-0.1h0.1l0.1-0.1h0.1h-0.5h0.1H64h0.1
					L64.3,11.6L64.3,11.6z"/>
				<path id="Path_4501" class="st17" d="M27.3,37.5l-7-4v17.6l0,0v3v0.1v0.3v0.1v0.1v0.1V55l0.1,0.1v0.1v0.1l0.1,0.1l0.1,0.1l0,0
					l0.1,0.1l7,4h-0.1h-0.1l-0.1-0.1v-0.4l0.3-0.1v-0.5h-0.3v-0.1v-0.1v-0.1v-0.1V58v-0.1v-3l0,0L27.3,37.5z"/>
				<path id="Path_4502" class="st14" d="M64.4,38.1c0.4-0.6,0.6-1.4,0.6-2l-11.6-3.4l-5.5,7.9c-0.5,0.6-1,1.3-1.8,1.8
					c-0.5,0.3-1,0.5-1.8,0.3L38.9,41L27.3,57.9c0,0.5,0.3,1,0.6,1.4c0.5,0.3,1,0.3,1.5-0.3l33.2-19.2C63.4,39.4,64,38.9,64.4,38.1z"
					/>
				<path id="Path_4503" class="st14" d="M27.3,37.5V55l0,0v2.8L38.9,41l-1.6-0.5L27.3,37.5z"/>
				<path id="Path_4504" class="st14" d="M65,36.1v-2.8l0,0V15.8L54.8,30.3l-1.6,2.3L65,36.1z"/>
				<path id="Path_4505" class="st14" d="M62.8,12L29.6,31.1c-0.6,0.4-1.1,1-1.5,1.8c-0.4,0.6-0.6,1.4-0.6,2v2.8
					c17,5,0.5,0.3,17.1,5c0.6,0.3,1.1,0,1.8-0.3c0.6-0.5,1.3-1,1.8-1.8c17.5-25.4,0.4-0.5,17.1-24.9V13c0.1-0.8-0.5-1.4-1.1-1.4
					C63.4,11.6,63,11.6,62.8,12z"/>
				<path id="Path_4506" class="st18" d="M65,15.9V13L47.4,38.6c-0.3,0.5-0.6,0.8-1,1c-0.3,0.3-0.8,0.3-1,0.3l-17.9-5.2v2.8
					c15.2,4.5,3.6,1,17.1,5c0.6,0.3,1.1,0,1.8-0.3c0.6-0.5,1.3-1,1.8-1.8C65.3,15.3,48.3,40.2,65,15.9z"/>
				<path id="Path_4507" class="st17" d="M27.9,33l-7-4v0.1l-0.1,0.3l-0.1,0v0.3v0.1v0.1v0.3v0.3v-0.1l0,0v0.3v0.3V31l7,4v-0.3v-0.3
					v-0.3V34v-0.1v-0.3v-0.1l0.1-0.3v-0.1L27.9,33l-0.1-0.3l0.1-0.1V33z"/>
			</g>
		</g>
	</g>
</g>
</svg>
