<?xml version="1.0" encoding="utf-8"?>
<!-- Generator: Adobe Illustrator 22.1.0, SVG Export Plug-In . SVG Version: 6.00 Build 0)  -->
<svg version="1.1" id="Layer_1" xmlns="http://www.w3.org/2000/svg" xmlns:xlink="http://www.w3.org/1999/xlink" x="0px" y="0px"
	 viewBox="0 0 180.3 96" style="enable-background:new 0 0 180.3 96;" xml:space="preserve">
<style type="text/css">
	.st0{enable-background:new    ;}
	.st1{fill:#1F1E1E;}
	.st2{fill:#EBEBEB;}
	.st3{fill:#F5F9FA;}
	.st4{fill:#BDBDBD;}
	.st5{fill:#3D566E;}
	.st6{fill:#9C9C9C;}
	.st7{fill:#E6EAEB;}
	.st8{fill:#ABB3B5;}
	.st9{fill:#BFC7C9;}
	.st10{fill:#C9D2D4;}
	.st11{fill:#FAC13C;}
	.st12{fill:#F5BE3D;}
	.st13{fill:#FFDC6A;}
	.st14{fill:#E6B543;}
	.st15{fill:#D19917;}
	.st16{opacity:3.000000e-03;fill:#040507;enable-background:new    ;}
	.st17{opacity:7.000000e-03;fill:#080A0D;enable-background:new    ;}
	.st18{opacity:1.000000e-02;fill:#0B0E14;enable-background:new    ;}
	.st19{opacity:1.300000e-02;fill:#0F131B;enable-background:new    ;}
	.st20{opacity:1.700000e-02;fill:#131822;enable-background:new    ;}
	.st21{opacity:2.000000e-02;fill:#171D29;enable-background:new    ;}
	.st22{opacity:2.300000e-02;fill:#1B2230;enable-background:new    ;}
	.st23{opacity:2.700000e-02;fill:#1F2737;enable-background:new    ;}
	.st24{opacity:3.000000e-02;fill:#232C3F;enable-background:new    ;}
	.st25{opacity:3.300000e-02;fill:#273246;enable-background:new    ;}
	.st26{opacity:3.700000e-02;fill:#2B374D;enable-background:new    ;}
	.st27{opacity:4.000000e-02;fill:#2F3C54;enable-background:new    ;}
	.st28{opacity:4.300000e-02;fill:#34415C;enable-background:new    ;}
	.st29{opacity:4.700000e-02;fill:#384763;enable-background:new    ;}
</style>
<g id="Group_2695" transform="translate(-979 -281)">
	<g id="_3" transform="translate(461 -195)">
		<g id="Group_2430" transform="translate(-36 -107)">
			<g class="st0">
				<path class="st1" d="M619.1,600.1h3.3l3.1,8.4h0l3-8.4h3.3v11.8h-2.1v-9.5h0l-3.6,9.5h-1.5l-3.5-9.5h0v9.5h-2V600.1z"/>
				<path class="st1" d="M637.3,606.8l-4.4-6.7h2.6l3,5l3-5h2.4l-4.4,6.7v5.1h-2.1V606.8z"/>
			</g>
			<g class="st0">
				<path class="st1" d="M619.4,621.3h9.8v2.3h-7.2v3.8h6.8v2.2h-6.8v4.2h7.5v2.3h-10.2V621.3z"/>
				<path class="st1" d="M636.4,632h-5v-2.1h5V632z"/>
				<path class="st1" d="M638.8,621.3h5.2c1,0,1.9,0.1,2.9,0.4c1,0.3,1.8,0.7,2.6,1.2c0.8,0.6,1.4,1.3,1.9,2.3s0.7,2.1,0.7,3.5
					c0,1.3-0.2,2.4-0.7,3.3s-1.1,1.7-1.9,2.3c-0.8,0.6-1.7,1-2.6,1.3c-1,0.3-1.9,0.4-2.9,0.4h-5.2V621.3z M643.7,633.8
					c0.7,0,1.4-0.1,2-0.2s1.3-0.4,1.8-0.8c0.5-0.4,1-0.9,1.3-1.6c0.3-0.7,0.5-1.5,0.5-2.5c0-1.1-0.2-1.9-0.5-2.6
					c-0.3-0.7-0.8-1.2-1.3-1.6c-0.5-0.4-1.2-0.6-1.8-0.8c-0.7-0.1-1.4-0.2-2-0.2h-2.2v10.2H643.7z"/>
				<path class="st1" d="M654.8,621.3h9.8v2.3h-7.2v3.8h6.8v2.2h-6.8v4.2h7.5v2.3h-10.2V621.3z"/>
				<path class="st1" d="M667.5,621.3h9.5v2.3h-6.9v4h6.5v2.2h-6.5v6.2h-2.6V621.3z"/>
				<path class="st1" d="M682.4,623.6h-4.5v-2.3h11.7v2.3H685v12.5h-2.6V623.6z"/>
				<path class="st1" d="M691.3,621.3h9.8v2.3h-7.2v3.8h6.8v2.2h-6.8v4.2h7.5v2.3h-10.2V621.3z"/>
				<path class="st1" d="M704,621.3h5.1c0.7,0,1.4,0.1,2,0.2c0.7,0.1,1.2,0.4,1.7,0.7c0.5,0.3,0.9,0.8,1.2,1.3s0.5,1.2,0.5,2
					c0,1.1-0.3,1.9-0.9,2.6c-0.6,0.7-1.4,1.1-2.5,1.4l3.9,6.5H712l-3.4-6.3h-1.9v6.3H704V621.3z M708.8,627.7c0.4,0,0.8,0,1.1-0.1
					s0.7-0.2,1-0.3c0.3-0.2,0.5-0.4,0.7-0.7c0.2-0.3,0.3-0.6,0.3-1.1c0-0.4-0.1-0.7-0.3-1s-0.4-0.5-0.7-0.6
					c-0.3-0.2-0.6-0.3-0.9-0.3s-0.7-0.1-1-0.1h-2.4v4.1H708.8z"/>
			</g>
		</g>
		<g id="Group_2420" transform="translate(-406.907 -350.305)">
			<g id="Group_2419" transform="translate(928.907 826.305)">
				<g id="Group_2413" transform="translate(0 0)">
					<path id="Path_4517" class="st2" d="M15.3,66.7c0.6,0.8,1.3,1.3,2,1.9l28.9-16.8c1.3-0.8,2.1-2.3,2.2-3.8V16.6l-8-6.2l-0.7-0.1
						l-8.6-0.2l-14.7,8.4c-0.4,0.3-0.8,0.6-1.2,0.9v47.3H15.3z"/>
					<path id="Path_4518" class="st3" d="M43.3,22.3l4-2.3c2-1.1,3.1-2.1,1.1-3.7l-8.5-6.5l3.4,5.2V22.3z"/>
					<path id="Path_4519" class="st4" d="M17.3,68.6l-2.6-1.5l-0.3-0.3l-0.3-0.3L14,66.1l-0.1-0.5V22.1l0.1-0.3l0.1-0.3l0.1-0.3
						l0.1-0.3l0.2-0.3l0.2-0.3l0.2-0.3l0.2-0.3l0.2-0.3l0.2-0.3l0.2-0.3l0.3-0.2l0.3-0.2l0.3-0.2l16-9.3c2.3-1.3,3.6-2,6.4-0.7
						c2.5,1.2,4.3,3.4,4.8,6.1v7.4L41,20.2v-5.6c0.1-2.6-2.8-5.7-6.7-3.7l-15.1,8.6l-0.3,0.2l-0.3,0.2l-0.3,0.2l-0.2,0.2l-0.2,0.3
						l-0.2,0.3l-0.2,0.3l-0.2,0.3l-0.2,0.3l-0.2,0.3l-0.1,0.3l-0.1,0.3L16.6,23l-0.1,0.3v43.5l0.1,0.5l0.2,0.4l0.3,0.3L17.3,68.6z"
						/>
					<path id="Path_4521" class="st5" d="M21.6,35.4l18.3-10.7v0.8L21.6,36.2V35.4z"/>
					<path id="Path_4757" class="st5" d="M21.6,44.2l18.3-10.7v0.8L21.6,45V44.2z"/>
					<path id="Path_4522" class="st5" d="M21.6,39.9l19.8-11.4v0.8L21.6,40.7V39.9z"/>
					<path id="Path_4756" class="st5" d="M21.6,48.7l19.8-11.4v0.8L21.6,49.5V48.7z"/>
					<path id="Path_4758" class="st5" d="M21.6,52.2l19.8-11.4v0.8L21.6,53V52.2z"/>
					<path id="Path_4523" class="st5" d="M21.6,56.2l15.6-9V48l-15.6,9.1V56.2z"/>
					<path id="Path_4524" class="st6" d="M38.1,11.4V8.6c0.2,0.1,0.3,0.2,0.4,0.2c2.5,1.2,4.3,3.4,4.8,6.1v7.4l-2.8-1.6v-5.5
						C40.6,13.6,39.6,12.1,38.1,11.4z"/>
					<path id="Path_4525" class="st6" d="M17.3,68.6l-2.6-1.5l-0.3-0.3l-0.3-0.3L14,66.1l0-0.5V22.3l0.1-0.3l0.1-0.3v-0.3l2.7,1.5
						l-0.1,0.3l-0.1,0.3v0.3l-0.1,0.3v43l0.1,0.5l0.1,0.4l0.3,0.3L17.3,68.6z"/>
				</g>
				<g id="Group_2418" transform="translate(30.449 17.295)">
					<path id="Path_4738" class="st7" d="M13.7,40.5l-0.5-0.3h0.1h0.1h0.1h0.3h0.1H14l0.5,0.3h-0.1h-0.1H14h-0.1H13.7L13.7,40.5z"/>
					<path id="Path_4739" class="st8" d="M14.5,48.8L14,48.5l-4.2-4.9l0.5,0.3L14.5,48.8z"/>
					<path id="Path_4740" class="st8" d="M10.3,43.9l-0.5-0.3l1.2-9l0.5,0.3L10.3,43.9z"/>
					<path id="Path_4741" class="st9" d="M11.5,34.9L11,34.6l6.8-3.9l0.5,0.3L11.5,34.9z"/>
					<path id="Path_4742" class="st8" d="M15.2,48.5l-0.5-0.3v-8.3l0.5,0.3V48.5z"/>
					<path id="Path_4743" class="st7" d="M15.2,40.1l-0.5-0.3l0.1-0.1l0.1-0.1l0.1-0.1l0.1-0.1l0.2-0.2l0.1-0.1l0.1-0.1l0.1-0.2
						l0.5,0.3L16,39.2l-0.1,0.1l-0.1,0.1l-0.1,0.2l-0.1,0.1l-0.1,0.1l-0.1,0.1L15.2,40.1z"/>
					<path id="Path_4744" class="st8" d="M16,39.1l-0.5-0.3l0.1-0.2l0.2-0.3l0.1-0.2V38l0.1-0.2v-0.2v-0.2v-0.3l0.5,0.3v0.2V38v0.2
						v0.2l-0.1,0.3l-0.1,0.2l-0.1,0.2L16,39.1z"/>
					<path id="Path_4745" class="st8" d="M16.5,37.5L16,37.2V37v-0.2v-0.2l-0.1-0.2v-0.1l-0.1-0.1l-0.1-0.1L15.6,36l0.5,0.3l0.1,0.1
						l0.1,0.1v0.2l0.1,0.2V37v0.2v0.2L16.5,37.5z"/>
					<path id="Path_4746" class="st10" d="M14.9,36.6c-0.5,0.3-0.8,0.7-1.2,1.2c-0.3,0.5-0.4,1-0.5,1.6c0,0.4,0.2,0.8,0.5,1
						s0.6,0.2,0.8,0v8.3l-4.2-4.9l1.2-9l6.8-3.8l1.2,7.7l-4.3,9.8v-8.3c0.3-0.3,0.6-0.6,0.8-0.9c0.3-0.5,0.4-1,0.5-1.6
						c0-0.4-0.2-0.8-0.5-1C15.6,36.4,15.2,36.4,14.9,36.6z"/>
					<path id="Path_4747" class="st9" d="M14.2,26.4c1.3,0,2.6-0.3,3.8-0.9c0.9-0.4,1.5-1.3,1.6-2.2c-0.1-0.9-0.7-1.8-1.6-2.2
						c-1.2-0.7-2.4-0.9-3.8-0.9s-2.6,0.3-3.8,0.9c-0.8,0.4-1.5,1.3-1.6,2.2c0.1,0.9,0.7,1.8,1.6,2.2C11.6,26,12.9,26.4,14.2,26.4z"
						/>
					<path id="Path_4748" class="st9" d="M19.5,32.5v-8.8v0.1v0.1l0,0V24v0v0.1v0.1v0.1v0.1v0.1v0.1v0.1v0.1l-0.1,0.1L18.9,25h-0.1
						l-0.1,0.1L18.6,25l-0.1,0.1h-0.1l-0.1,0.1l-0.1,0.1h-0.1L18,25.4l-0.1,0.1H18h-0.1h-0.1l-0.1,0.1h-0.1h-0.1h-0.1h-0.1h-0.1
						h-0.1H17h-0.1L16.5,26h-0.1h-0.1h-0.2H16h-0.1h-0.1H16h-0.1h-0.1H13h0h-0.1h-0.1h-0.1h-0.1h-0.1h-0.1h-0.1h-0.7h-0.1h-0.1h-0.1
						h-0.1h-0.1H11l-0.1-0.1h-0.1H11h-0.1h-0.1h-0.1h-0.1l-0.1-0.1l-0.1-0.1l-0.1-0.1L10,25.1L9.9,25H9.8l-0.1-0.1l-0.1-0.1l0,0
						l-0.1-0.1l-0.1-0.1v-0.1v-0.1v-0.1v-0.1v-0.1V24v-0.1V24H9.1v-0.1v-0.1v-0.1v-0.1v8.8C9.3,36.5,19.1,36.5,19.5,32.5z"/>
					<path id="Path_4749" class="st11" d="M18,25.4L18,25.4l0.2-0.1h0.1l0.1-0.1h0.1l0.1-0.1l0.1-0.1h0.1l0.1-0.1v-0.1H19l0.1-0.1
						v-0.1l0.1-0.1l0,0v-0.1l0.1-0.1v-0.1v-0.1l0,0V24v-0.1V24v-0.1v-0.1v-0.1v-0.1v-0.2v-0.1V8.6v0.1v0.2V9v0v0.1v0.1v0.1v0.1v0.1
						v0.1l0,0v0.1l-0.3,0v0.1v0.1h-0.1V10l-0.1,0l-0.1,0.1l0,0l-0.1,0.1l-0.1,0.1h-0.1l-0.1,0.1h-0.1l-0.1,0.1L18,10.6h-0.1l0.1,0
						h-0.1h-0.1l-0.1,0.1h-0.1h-0.1l-0.1,0.1h-0.1h-0.1h-0.1H17h-0.1H17h-0.1l-0.5,0.6h-0.1h-0.1h-0.1H16h-0.3h-0.1h-0.2h-0.1h-0.2
						H15h-0.4l-0.1,0.3h-1.1h-0.1h-0.4l-0.1-0.1h-0.2h-0.1h-0.2h-0.1h-0.1h-0.2h-0.1h-0.1H12h-0.1l-0.2-0.3h-0.1h-0.1l-0.2-0.2h-0.1
						h-0.1H11l0-0.2h-0.2h-0.1l-0.1-0.2h-0.1h-0.1l-0.2-0.2h-0.1L10,10.4l-0.1-0.1H10l-0.1-0.1H9.8v-0.1L9.7,9.9H9.6V10V9.9L9.4,9.8
						H9.3l0,0V9.7V9.6L9.1,9.5l0,0V9.4V9.3l0,0V9.2V9.1V9V8.9V8.8l0,0v14.7v0.1v0.1v0.1v0.1V24v0.1V24v0.1l0,0v0.1l0.1,0.1v0.1v0.1
						l0,0l0.1,0.1l0.1,0.1v0.1h0.1L9.8,25l0.1,0.1l0,0l0-0.1l0.1,0.1h0.1l0.1,0.1h0.1l0.1,0.1h0.1l0.2,0.2h0.1l0.1,0.1H11h0.1H11
						l0.1,0.1h0.1h0.1h0.1h0.1h0.1h0.1h0.1h0.1H12h0.1h0.2h0.1h0.1h0.1h0.1H13h0.1H13h0.1h1.7h0.1h0.3h0.1h0.3h0.1h0.1h0.1h0.2h0.1
						H16h0.1l0.3,0.3h0.1h0.1h0.1h0.1h0.1H17h0l0.1-0.1h0.1h0.1h0.1l0.1-0.1h0.1L18,25.4z"/>
					<path id="Path_4750" class="st12" d="M14.2,11.6c1.3,0,2.6-0.3,3.8-0.9c0.9-0.4,1.5-1.3,1.6-2.2c-0.2-0.9-0.8-1.8-1.6-2.2
						c-1.2-0.6-2.5-0.9-3.8-0.9s-2.6,0.3-3.8,0.9C9.6,6.7,9,7.5,8.9,8.5c0.1,0.9,0.7,1.8,1.6,2.2C11.6,11.3,12.9,11.6,14.2,11.6z"/>
					<path id="Path_4751" class="st7" d="M18.3,25.2L18.3,25.2L18.3,25.2l-0.2,0.2L18,25.5h0h-0.1h-0.1l-0.1,0.1h-0.1h-0.1h-0.1
						h-0.1h-0.1h-0.1H17h-0.1L16.5,26h-0.1h-0.1h-0.2H16h-0.1h-0.1l0,0v9.2c0.9-0.2,1.8-0.5,2.4-0.9L18.3,25.2L18.3,25.2z"/>
					<path id="Path_4752" class="st13" d="M18,25.4L18,25.4l0.2-0.1h0.1l0.1-0.1l0,0V10.4l0,0l-0.1,0.1l-0.1,0.1h-0.1L18,10.7h-0.1
						h-0.1l-0.1,0.1h-0.1h-0.1l-0.1,0.1h-0.1h-0.1h-0.1H17h-0.1H17h-0.1l-0.5,0.5h-0.1h-0.1h-0.1H16h-0.2V26H16h0.1h0.1h0.1l0.2-0.1
						h0.1h0.1h0.1h0.1H17h0.1H17l0.1-0.1h0.1h0.1h0.1l0.1-0.1h0.1L18,25.4z"/>
					<path id="Path_4753" class="st8" d="M12.6,26.2L12.6,26.2h-0.2h-0.1h-0.1h-0.1H12h-0.1h-0.2h-0.1h-0.1h-0.1h-0.1h-0.1h-0.1
						L11,26.1h-0.1h-0.1h-0.1H11h-0.1h-0.1L10.7,26l-0.1-0.1l-0.1-0.1l0,0V35c0.8,0.5,1.7,0.8,2.6,0.9L12.6,26.2L12.6,26.2z"/>
					<path id="Path_4754" class="st14" d="M12.6,11.5L12.6,11.5h-0.2h-0.2h-0.1H12l0,0h-0.1h-0.1h-0.1h-0.1l-0.3-0.4h-0.1h-0.1H11
						l0-0.2h-0.2l-0.1-0.1l-0.1-0.1h-0.1h-0.1l-0.2-0.2h-0.1L10,10.4l-0.1-0.1l0,0V25l0,0l0.1,0.1h0.1l0.1,0.1h0.1l0.2,0.2h0.1
						l0.1,0.1h0.1h0.1H11l0.1,0.1h0.1h0.1h0.1h0.1h0.1h0.1h0.1h0.1H12h0.1h0.2h0.1h0.1L12.6,11.5z"/>
					<path id="Path_4755" class="st15" d="M14.2,10.8c1.2,0,2.3-0.3,3.3-0.8c0.8-0.4,1.4-1.2,1.5-2c-0.1-0.8-0.6-1.6-1.4-1.9
						c-1-0.6-2.2-0.8-3.3-0.8S12,5.6,11,6.1C10.1,6.4,9.6,7.2,9.5,8c0.1,0.8,0.6,1.6,1.4,1.9C11.9,10.5,13.1,10.8,14.2,10.8z"/>
				</g>
			</g>
		</g>
		<g id="Group_2434" transform="translate(518 541.447)">
			<path id="Path_4484" class="st16" d="M51.6,1c8.5,4.9,8.5,12.8,0,17.7s-22.2,4.9-30.7,0S12.4,5.9,20.9,1S43.2-3.9,51.6,1z"/>
			<path id="Path_4485" class="st17" d="M50.6,1.6c7.9,4.6,7.9,12,0,16.5S30,22.7,22,18.1s-7.9-12,0-16.5S42.7-3,50.6,1.6z"/>
			<path id="Path_4486" class="st18" d="M49.6,2.2c7.3,4.3,7.3,11.1,0,15.3s-19.3,4.3-26.5,0S15.7,6.4,23,2.2S42.3-2.1,49.6,2.2z"/>
			<path id="Path_4487" class="st19" d="M48.6,2.8c6.8,3.9,6.8,10.3,0,14.2S30.8,20.9,24,17S17.3,6.7,24,2.8S41.8-1.1,48.6,2.8z"/>
			<path id="Path_4488" class="st20" d="M47.6,3.4c6.2,3.6,6.2,9.4,0,13s-16.3,3.6-22.4,0s-6.2-9.4,0-13S41.3-0.2,47.6,3.4z"/>
			<path id="Path_4489" class="st21" d="M46.5,3.9c5.6,3.3,5.6,8.5,0,11.8S31.7,19,26,15.7s-5.6-8.5,0.1-11.8
				C31.7,0.7,40.9,0.7,46.5,3.9z"/>
			<path id="Path_4490" class="st22" d="M45.5,4.5c5.1,2.9,5.1,7.7,0,10.6s-13.3,2.9-18.3,0s-5.1-7.7,0-10.6S40.4,1.6,45.5,4.5z"/>
			<path id="Path_4491" class="st23" d="M44.5,5.1c4.5,2.6,4.5,6.8,0,9.4s-11.8,2.6-16.3,0s-4.5-6.8,0-9.4S40,2.5,44.5,5.1z"/>
			<path id="Path_4492" class="st24" d="M43.5,5.8c3.9,2.3,3.9,5.9,0,8.3s-10.3,2.3-14.3,0s-3.9-5.9,0-8.3S39.5,3.4,43.5,5.8z"/>
			<path id="Path_4493" class="st25" d="M42.4,6.4c3.3,1.9,3.3,5.1,0,7c-3.8,1.9-8.3,1.9-12.2,0c-3.3-1.9-3.3-5.1,0-7
				C34,4.4,38.5,4.4,42.4,6.4z"/>
			<path id="Path_4494" class="st26" d="M41.4,6.9c2.8,1.6,2.8,4.3,0,5.8c-3.2,1.6-6.9,1.6-10.1,0c-2.8-1.6-2.8-4.3,0-5.8
				C34.5,5.3,38.2,5.3,41.4,6.9z"/>
			<path id="Path_4495" class="st27" d="M40.3,7.5c2.3,1.3,2.3,3.3,0,4.7c-2.5,1.3-5.5,1.3-8.1,0c-2.3-1.3-2.3-3.3,0-4.7
				C34.8,6.2,37.8,6.2,40.3,7.5z"/>
			<path id="Path_4496" class="st28" d="M39.3,8.1c1.7,0.9,1.7,2.5,0,3.5c-1.9,0.9-4.1,0.9-6,0c-1.7-0.9-1.7-2.5,0-3.5
				C35.2,7.2,37.4,7.2,39.3,8.1z"/>
			<path id="Path_4497" class="st29" d="M38.3,8.7c0.7,0.3,1,0.9,0.8,1.5c-0.1,0.3-0.4,0.7-0.8,0.8c-1.3,0.6-2.8,0.6-4,0
				c-0.7-0.3-1-0.9-0.8-1.5c0.1-0.3,0.4-0.7,0.8-0.8C35.5,8.1,37,8.1,38.3,8.7z"/>
		</g>
	</g>
</g>
</svg>
