<?xml version="1.0" encoding="utf-8"?>
<!-- Generator: Adobe Illustrator 22.1.0, SVG Export Plug-In . SVG Version: 6.00 Build 0)  -->
<svg version="1.1" id="Layer_1" xmlns="http://www.w3.org/2000/svg" xmlns:xlink="http://www.w3.org/1999/xlink" x="0px" y="0px"
	 viewBox="0 0 100 100" style="enable-background:new 0 0 100 100;" xml:space="preserve">
<style type="text/css">
	.st0{fill:#415A73;}
	.st1{fill:#2C3E50;}
	.st2{fill:#E6EAEB;}
	.st3{fill:#BDBDBD;}
	.st4{fill:#E8D5A7;}
	.st5{fill:#C2AC78;}
	.st6{fill:#D4BE8C;}
	.st7{fill:#AB9667;}
	.st8{opacity:3.000000e-03;fill:#040507;enable-background:new    ;}
	.st9{opacity:7.000000e-03;fill:#080A0D;enable-background:new    ;}
	.st10{opacity:1.000000e-02;fill:#0B0E14;enable-background:new    ;}
	.st11{opacity:1.300000e-02;fill:#0F131B;enable-background:new    ;}
	.st12{opacity:1.700000e-02;fill:#131822;enable-background:new    ;}
	.st13{opacity:2.000000e-02;fill:#171D29;enable-background:new    ;}
	.st14{opacity:2.300000e-02;fill:#1B2230;enable-background:new    ;}
	.st15{opacity:2.700000e-02;fill:#1F2737;enable-background:new    ;}
	.st16{opacity:3.000000e-02;fill:#232C3F;enable-background:new    ;}
	.st17{opacity:3.300000e-02;fill:#273246;enable-background:new    ;}
	.st18{opacity:3.700000e-02;fill:#2B374D;enable-background:new    ;}
	.st19{opacity:4.000000e-02;fill:#2F3C54;enable-background:new    ;}
	.st20{opacity:4.300000e-02;fill:#34415C;enable-background:new    ;}
	.st21{opacity:4.700000e-02;fill:#384763;enable-background:new    ;}
</style>
<g>
	<g id="Group_2400" transform="translate(937.063 483.387)">
		<g id="Group_2399" transform="translate(5.848 4.613)">
			<path id="Path_4537" class="st0" d="M-901.8-473.4l-3.4-2l-0.4-0.2l-0.4-0.1l-0.4-0.1l-0.4-0.1h-0.5h-0.6l-0.5,0.1l-0.5,0.1
				l-0.5,0.1l-0.5,0.2l-0.5,0.2l-0.1,0.2l-0.5,0.3l-0.4,0.2l-0.4,0.2l-0.5,0.4l-0.5,0.4l-0.5,0.4l-0.4,0.4l-0.5,0.4l-0.2,0.3
				l-0.5,0.5l-0.5,0.4l-0.4,0.5l-0.4,0.5l-0.2,0.4l-0.4,0.4l-0.3,0.5l-0.3,0.6l-0.3,0.5l-0.4,0.5l-0.3,0.5l-0.3,0.6l-0.3,0.5
				l-0.2,0.6l-0.2,0.6l-0.1,0.5l-0.2,0.6l-0.2,0.5l-0.2,0.5l-0.2,0.5l-0.1,0.5v0.8v0.6v0.6v1.1l0.1,0.5l0.1,0.5l0.1,0.5l0.1,0.5
				l0.2,0.5l0.2,0.5l0.2,0.4v0.3l0.2,0.4l0.3,0.4l0.3,0.3l0.2,0.2l0.3,0.3l0.3,0.3l1.3,0.7l2.2,1.3L-901.8-473.4z M-902.1-473.5
				L-902.1-473.5L-902.1-473.5C-902-473.5-902-473.5-902.1-473.5L-902.1-473.5z"/>
			<path id="Path_4538" class="st1" d="M-907.8-451.6c5-2.9,9.1-10,9.1-15.7c0-5.7-4.1-8.1-9.1-5.2s-9.1,10-9.1,15.7
				C-916.9-451.1-912.9-448.6-907.8-451.6z"/>
			<path id="Path_4539" class="st2" d="M-902.5-469.6l-1.3-0.7l-0.3-0.1l-0.3-0.1l-0.2-0.1h-0.3l-0.3-0.1h-0.5h-0.4l-0.3,0.1
				l-0.4,0.1l-0.3,0.1l-0.4,0.2l-0.1,0.2l-0.4,0.2l-0.4,0.2l-0.4,0.2l-0.4,0.3l-0.2,0.1l-0.2,0.1l-0.4,0.3l-0.4,0.3l-0.2,0.3
				l-0.3,0.4l-0.3,0.4l-0.2,0.1l-0.3,0.4l-0.3,0.4l-0.2,0.3l-0.3,0.4l-0.3,0.4l-0.3,0.4l-0.3,0.4l-0.2,0.4l-0.2,0.5l-0.2,0.5
				l-0.2,0.5v0.4l0.1,0.1l-0.2,0.5l-0.1,0.4l-0.1,0.5l-0.1,0.5l-0.1,0.4l-0.1,0.5l-0.1,0.5l0.2,0.1v0.6l0.1,0.4l0.1,0.4l0.1,0.4
				l0.1,0.4l0.1,0.4l0.1,0.3l0.2,0.3l-0.1,0.2l0.2,0.3l0.2,0.3l0.2,0.2l0.2,0.2l0.2,0.2l0.1,0.1l0.9,0.5l0.4,0.2
				c1.2,0.8,2.1,1.3,4.9-0.4c2.8-1.6,6.5-8.1,6.5-11.3C-900.4-468.5-901.2-469-902.5-469.6L-902.5-469.6z"/>
			<path id="Path_4540" class="st3" d="M-906.9-453.9c3.9-2.5,6.2-6.8,6.5-11.3c0-4.2-2.9-5.9-6.5-3.8c-3.9,2.5-6.3,6.8-6.5,11.3
				C-913.5-453.5-910.6-451.9-906.9-453.9z"/>
			<path id="Path_4541" class="st4" d="M-898.1-435.8l-5.6-4.4l-7.2-13.7l-0.2-0.2l-0.3-0.2l-0.2-0.2l-0.2-0.2l-0.2-0.3l-0.2-0.3
				l-0.2-0.3l-0.1-0.3v-0.1l0.2-0.1l-0.1-0.4l-0.1-0.4l-0.1-0.4l-0.1-0.4v-0.7l0.1-0.4l0.1-0.4l0.1-0.4l0.1-0.4l0.1-0.4l0.1-0.4
				l0.1-0.4l0.2-0.4l0.1-0.4l0.2-0.4l0.2-0.4l0.2-0.4l0.2-0.4l0.2-0.4l0.2-0.4l0.3-0.4l0.3-0.4l0.3-0.4l0.3-0.4l0.3-0.4l0.3-0.4
				c4.4-5.2,14.4-3.4,20.1-1.6c0.9,0.3,1.7,1,2.1,1.8l1.4,2.9c0.4,0.6,0.5,1.4,0.3,2.2l-1.1,5l6.2,13.6l-6.3,3.5
				c0.2,0.5-1.4,2.3-3.1,1.7c-0.3,0.4-0.1,1.2-2,1.1c0.1,0.4-0.4,0.7-1.3,0.7l-4.1-0.5C-897.5-435.6-897.8-435.6-898.1-435.8z"/>
			<path id="Path_4542" class="st5" d="M-881.6-441.5l-3.6-2.8l-2.7-4.3l-2.5-2.4c-1.2-1.1-1.8-2.6-1.8-4.3l-0.1-3l-5.1-0.5
				l-2.1,2.4c-0.5,0.6-1.4,1-2.3,0.8l-2-0.6c-0.2,0-0.4-0.2-0.4-0.4c-0.1-0.2,0-0.4,0.1-0.5l4.1-6.4c0.3-0.5,0.7-0.8,1.3-0.9
				l8.7-1.4c0.2,0,0.4,0,0.5,0.2l5.2,4.6c4.5,4,2.4,4,6.9,5c1.4,0.4,2.8,0.9,4.2,1.4c3.2,6.3-1.5,10.9-6.2,12.3
				C-879.5-442.1-881.2-441.4-881.6-441.5z"/>
			<path id="Path_4543" class="st5" d="M-890-436.7c-1.8,0-3.5-0.6-4.9-1.7c-1.4-1.2-4.4-4.3-4.2-4.5c0.2-0.2,3.1,3,4.4,4.2
				C-893.3-437.8-891.7-437.1-890-436.7z"/>
			<path id="Path_4544" class="st5" d="M-886.9-438.5c-1.6,0-3.3,0-4.7-1.3c-1.4-1.3-5.7-5-5.5-5.2c0.3-0.3,4.6,3.7,5.9,4.9
				C-890-438.9-888.2-438.8-886.9-438.5z"/>
			<path id="Path_4545" class="st5" d="M-883-440.4c-2.1-0.3-4.4-0.5-6.2-2c-1.6-1.4-5.2-4.5-5-4.8c0.2-0.3,4.1,3.2,5.5,4.5
				C-887.2-441.4-884.8-441-883-440.4z"/>
			<path id="Path_4546" class="st5" d="M-892-435.6c-1.6-0.2-3.7-0.5-5.1-1.6c-1.4-1.1-3.8-3.3-3.6-3.5c0.3-0.3,2.8,2.5,4,3.3
				C-895.3-436.6-893.6-436-892-435.6z"/>
			<path id="Path_4547" class="st0" d="M-868.5-455.6l-3.4-2l-0.4-0.2l-0.4-0.1l-0.4-0.1h-0.3h-0.4h-0.8h-0.4l-0.5,0.1l-0.5,0.1
				l-0.5,0.2l-0.5,0.2l-0.5,0.2l-0.2,0.2l-0.5,0.3l-0.5,0.3l-0.5,0.4l-0.5,0.4l-0.5,0.4l-0.2,0.2l-0.5,0.4l-0.5,0.5l-0.5,0.5
				l-0.4,0.4l-0.4,0.5l-0.4,0.5l-0.4,0.5l-0.4,0.5l-0.4,0.5l-0.4,0.5l-0.4,0.5l-0.4,0.5l-0.3,0.5l-0.3,0.5l-0.3,0.5l-0.1,0.5
				l-0.3,0.5l0.4,0.7l-0.2,0.5l-0.2,0.5l-0.1,0.5l-0.2,0.5l-0.1,0.5l-0.1,0.5l-0.1,0.5v0.9v1.1l0.1,0.5l0.1,0.5l0.1,0.5l0.1,0.5
				l0.2,0.5l0.2,0.5l0.2,0.4l0.2,0.4l0.2,0.4l0.3,0.4l0.3,0.3l0.3,0.3l0.3,0.3l0.3,0.3l1.3,0.7l2.2,1.3L-868.5-455.6L-868.5-455.6z
				 M-868.9-455.7L-868.9-455.7L-868.9-455.7L-868.9-455.7z"/>
			<path id="Path_4548" class="st1" d="M-874.6-433.7c5-2.9,9.1-10,9.1-15.7c0-5.7-4.1-8.1-9.1-5.2s-9.1,10-9.1,15.7
				C-883.8-433.2-879.7-430.9-874.6-433.7z"/>
			<path id="Path_4549" class="st5" d="M-901.4-438.5l-2.6-0.1c-0.4,0-0.8-0.2-1.1-0.5l-0.5-0.4c-0.4-0.3-0.5-0.7-0.5-1.2v-1.1h-0.3
				c-0.4-0.1-0.6-0.3-0.8-0.5l-0.7-0.9c-0.3-0.3-0.4-0.6-0.4-1l-0.1-0.8l-0.3-0.1c-0.4-0.2-0.7-0.4-0.9-0.7l-0.5-0.8
				c-0.3-0.5-0.5-1.1-0.5-1.6v-0.4c-1.1-0.5-1.7-1.5-1.7-2.7v-0.8l0.1-1.7c0.1-0.9,0.5-1.2,1.2-1.2c0.4-0.1,0.7,0,1.1,0.2l0.5,0.2
				c0.4,0.2,0.6,0.4,0.8,0.7c0.3,0.3,0.4,0.6,0.4,1v1.1l0.5,0.3l0.5,0.5c0.5,0.4,0.7,0.9,0.6,1.5l-0.1,1.5c0.3,0.2,0.5,0.3,0.7,0.5
				l0.5,0.5c0.5,0.5,0.7,1,0.7,1.6l-0.1,1.9c0.5,0,1.2,0.3,1.5,0.7c0.4,0.3,0.6,0.7,0.7,1.2l0.3,1.5L-901.4-438.5z"/>
			<path id="Path_4550" class="st6" d="M-911.6-453.9l1.2,0.9l-0.2,2c0,0.1-0.1,0.1-0.1,0.1s-0.2-0.1-0.2-0.2l-0.5-0.6
				c-0.2-0.2-0.4-0.4-0.3-0.5L-911.6-453.9L-911.6-453.9z"/>
			<path id="Path_4551" class="st6" d="M-910-450.9l1.4,0.9v1.7c0,0.1,0,0.1-0.1,0.1c-0.1,0.1-0.1,0.1-0.1,0.1h-0.2
				c-0.3,0-0.5-0.1-0.6-0.4l-0.2-0.2c-0.2-0.2-0.2-0.4-0.3-0.6L-910-450.9z"/>
			<path id="Path_4552" class="st6" d="M-907.7-447.1l1.4,1v1.5c0,0.1,0,0.1-0.1,0.1c-0.1,0.1-0.1,0.1-0.1,0.1h-0.2
				c-0.3,0-0.5-0.1-0.6-0.4l-0.3-0.2c-0.1-0.1-0.2-0.3-0.2-0.5L-907.7-447.1L-907.7-447.1z"/>
			<path id="Path_4553" class="st6" d="M-905.6-442.8l1.4,1l-0.1,1.4c0,0.1-0.1,0.1-0.2,0.2h-0.2c-0.3,0-0.5-0.1-0.6-0.4l0,0
				c-0.1-0.3-0.2-0.5-0.2-0.9L-905.6-442.8z"/>
			<path id="Path_4554" class="st7" d="M-908-451.9c-0.3,0.1-0.5,0.1-0.6,0.1c-0.5,0.1-1,0.3-1.3,0.6c-0.3,0.8-0.4,1.7-0.4,2.5
				C-910.4-450.8-910.8-451.9-908-451.9z"/>
			<path id="Path_4555" class="st6" d="M-902.5-459.7l1.1,0.2c0.1,0,0.2,0.1,0.3,0.2c0.4,0.5-1.6,2.4-2,2.9l-1.3-0.3
				c0.4-1,1-1.9,1.7-2.7C-902.8-459.6-902.7-459.7-902.5-459.7z"/>
			<path id="Path_4556" class="st7" d="M-906.3-448.1c-0.6,0-1.3,0.3-1.6,0.8c-0.2,0.7-0.3,1.5-0.3,2.4
				C-908.3-446.5-908.7-448.2-906.3-448.1z"/>
			<path id="Path_4557" class="st7" d="M-904.5-443.6c-1.4,0.1-1.4,0.7-1.5,2C-906.1-443.2-906.2-443.7-904.5-443.6z"/>
			<path id="Path_4558" class="st7" d="M-898-460.1c0.4,0.6,0.4,1.4-0.1,1.9c0.4-0.4,0.9-0.6,1.4-0.5
				C-897.3-458.9-897.6-459.6-898-460.1z"/>
			<path id="Path_4559" class="st7" d="M-891-459c-0.6,0.4-1.4,0.5-2.1,0.5c1.1,0.1,0.7,0.5,0.9,1.2
				C-892.3-458.3-891.5-458.5-891-459z"/>
		</g>
	</g>
	<g id="Group_2436" transform="translate(947 541.447)">
		<path id="Path_4484_1_" class="st8" d="M-880.6-476.8c9.2,5.3,9.2,13.9,0,19.2c-9.2,5.3-24.1,5.3-33.3,0c-9.2-5.3-9.2-13.9,0-19.2
			C-904.7-482.1-889.8-482.2-880.6-476.8z"/>
		<path id="Path_4485_1_" class="st9" d="M-881.7-476.2c8.6,5,8.6,13,0,17.9c-8.6,4.9-22.4,5-31,0c-8.6-5-8.6-13,0-17.9
			C-904.1-481.1-890.3-481.2-881.7-476.2z"/>
		<path id="Path_4486_1_" class="st10" d="M-882.9-475.6c8,4.6,8,12,0,16.7c-8,4.7-20.9,4.6-28.8,0c-7.9-4.6-8-12,0-16.7
			S-890.8-480.2-882.9-475.6z"/>
		<path id="Path_4487_1_" class="st11" d="M-884-474.9c7.3,4.3,7.3,11.1,0,15.4c-7.3,4.3-19.3,4.3-26.6,0c-7.3-4.3-7.3-11.1,0-15.4
			C-903.3-479.2-891.3-479.2-884-474.9z"/>
		<path id="Path_4488_1_" class="st12" d="M-885.1-474.3c6.7,3.9,6.7,10.2,0,14.1s-17.6,3.9-24.3,0c-6.7-3.9-6.7-10.2,0-14.1
			C-902.7-478.2-891.8-478.2-885.1-474.3z"/>
		<path id="Path_4489_1_" class="st13" d="M-886.2-473.7c6.1,3.5,6.1,9.2,0,12.8c-6.1,3.6-16,3.5-22.2,0c-6.2-3.5-6.1-9.2,0-12.8
			C-902.3-477.2-892.3-477.2-886.2-473.7z"/>
		<path id="Path_4490_1_" class="st14" d="M-887.3-473c5.5,3.2,5.5,8.3,0,11.5c-5.5,3.2-14.4,3.2-19.9,0c-5.5-3.2-5.5-8.3,0-11.5
			C-901.7-476.2-892.8-476.2-887.3-473z"/>
		<path id="Path_4491_1_" class="st15" d="M-888.4-472.4c4.9,2.8,4.9,7.4,0,10.2c-4.9,2.8-12.8,2.8-17.6,0s-4.9-7.4,0-10.2
			C-901.1-475.2-893.3-475.2-888.4-472.4z"/>
		<path id="Path_4492_1_" class="st16" d="M-889.5-471.7c4.3,2.4,4.3,6.4,0,9s-11.1,2.4-15.5,0c-4.4-2.4-4.3-6.4,0-9
			S-893.8-474.2-889.5-471.7z"/>
		<path id="Path_4493_1_" class="st17" d="M-890.7-471c3.6,2.1,3.6,5.5,0,7.6c-4.2,2.1-9.1,2.1-13.2,0c-3.6-2.1-3.6-5.5,0-7.6
			C-899.7-473.2-894.8-473.2-890.7-471z"/>
		<path id="Path_4494_1_" class="st18" d="M-891.8-470.4c3.1,1.7,3.1,4.6,0,6.3c-3.4,1.7-7.5,1.7-11,0c-3.1-1.7-3.1-4.6,0-6.3
			C-899.3-472.2-895.2-472.2-891.8-470.4z"/>
		<path id="Path_4495_1_" class="st19" d="M-892.9-469.8c2.4,1.4,2.4,3.6,0,5.1c-2.7,1.4-6,1.4-8.8,0c-2.4-1.4-2.4-3.6,0-5.1
			C-898.9-471.2-895.6-471.2-892.9-469.8z"/>
		<path id="Path_4496_1_" class="st20" d="M-894-469.1c1.8,1,1.8,2.7,0,3.8c-2.1,1-4.4,1-6.5,0c-1.8-1-1.8-2.7,0-3.8
			C-898.5-470.2-896.1-470.2-894-469.1z"/>
		<path id="Path_4497_1_" class="st21" d="M-895.1-468.5c0.7,0.3,1.1,1,0.8,1.6c-0.1,0.4-0.5,0.7-0.8,0.8c-1.4,0.6-3,0.6-4.3,0
			c-0.7-0.3-1.1-1-0.8-1.6c0.1-0.4,0.5-0.7,0.8-0.8C-898.1-469.1-896.5-469.1-895.1-468.5z"/>
	</g>
</g>
</svg>
