<?xml version="1.0" encoding="utf-8"?>
<!-- Generator: Adobe Illustrator 22.1.0, SVG Export Plug-In . SVG Version: 6.00 Build 0)  -->
<svg version="1.1" id="Layer_1" xmlns="http://www.w3.org/2000/svg" xmlns:xlink="http://www.w3.org/1999/xlink" x="0px" y="0px"
	 viewBox="0 0 100 100" style="enable-background:new 0 0 100 100;" xml:space="preserve">
<style type="text/css">
	.st0{fill:#EBEBEB;}
	.st1{fill:#F5F9FA;}
	.st2{fill:#BDBDBD;}
	.st3{fill:#2192FC;}
	.st4{fill:#3D566E;}
	.st5{fill:#9C9C9C;}
	.st6{opacity:3.000000e-03;fill:#040507;enable-background:new    ;}
	.st7{opacity:7.000000e-03;fill:#080A0D;enable-background:new    ;}
	.st8{opacity:1.000000e-02;fill:#0B0E14;enable-background:new    ;}
	.st9{opacity:1.300000e-02;fill:#0F131B;enable-background:new    ;}
	.st10{opacity:1.700000e-02;fill:#131822;enable-background:new    ;}
	.st11{opacity:2.000000e-02;fill:#171D29;enable-background:new    ;}
	.st12{opacity:2.300000e-02;fill:#1B2230;enable-background:new    ;}
	.st13{opacity:2.700000e-02;fill:#1F2737;enable-background:new    ;}
	.st14{opacity:3.000000e-02;fill:#232C3F;enable-background:new    ;}
	.st15{opacity:3.300000e-02;fill:#273246;enable-background:new    ;}
	.st16{opacity:3.700000e-02;fill:#2B374D;enable-background:new    ;}
	.st17{opacity:4.000000e-02;fill:#2F3C54;enable-background:new    ;}
	.st18{opacity:4.300000e-02;fill:#34415C;enable-background:new    ;}
	.st19{opacity:4.700000e-02;fill:#384763;enable-background:new    ;}
</style>
<g>
	<g id="Group_2397" transform="translate(705.345 475.972)">
		<path id="Path_4517" class="st0" d="M-671.2-409.1c0.6,0.7,1.2,1.3,1.9,1.8l27.9-16.1c1.2-0.8,2-2.1,2.1-3.6v-30.3l-7.7-5.9
			l-0.7-0.1l-8.2-0.2l-14.1,8.1c-0.4,0.2-0.7,0.6-1.2,0.9V-409.1L-671.2-409.1z"/>
		<path id="Path_4518" class="st1" d="M-644.2-451.8l3.9-2.2c1.9-1.1,3-2,1.1-3.5l-8.1-6.3l3.3,5L-644.2-451.8L-644.2-451.8z"/>
		<path id="Path_4519" class="st2" d="M-669.3-407.3l-2.5-1.4l-0.2-0.2l-0.2-0.4l-0.2-0.4v-0.5v-41.9l0.1-0.2l0.1-0.2l0.1-0.2
			l0.1-0.2l0.2-0.2l0.2-0.2l0.2-0.2l0.2-0.2l0.2-0.2l0.2-0.2l0.2-0.2l0.2-0.2l0.2-0.2l0.2-0.2l15.3-8.8c2.2-1.2,3.5-1.9,6.2-0.7
			c2.4,1.2,4.1,3.3,4.6,5.8v7.2l-2.9-1.8v-5.3c0.1-2.5-2.7-5.5-6.4-3.5l-14.5,8.2l-0.2,0.2l-0.3,0.1l-0.2,0.2l-0.2,0.1l-0.2,0.2
			l-0.2,0.2l-0.2,0.2v0.4l-0.2,0.2l-0.2,0.2v0.2l-0.1,0.2l-0.1,0.2l-0.1,0.2v41.9l0.1,0.5l0.2,0.4l0.2,0.3L-669.3-407.3
			L-669.3-407.3z"/>
		<path id="Path_4520" class="st3" d="M-646.7-437.2l0.8,0.5l1-1l0.4,1l1.2-0.6l-0.2,1.2h1l-0.5,1.4l0.7,0.6l-0.9,1.2l0.3,1.1
			l-1.1,1.1l-0.2,1.3l-1.2,0.5l-0.7,1.4l-1-0.2l-1,1.2l-0.5-0.7l-0.9,1v-1.2l-1.2,0.2l0.3-1.4l-0.8-0.3l0.7-1.4l-0.5-0.9l1-1.2
			l-0.1-1.2l1.2-0.7l0.4-1.4l1.1-0.2L-646.7-437.2L-646.7-437.2z M-646.7-435.7c-1.9,1.2-3,3.3-3.2,5.6c0,2.1,1.4,2.9,3.2,1.8
			c1.9-1.2,3-3.3,3.2-5.6C-643.6-436-645-436.7-646.7-435.7z M-646.7-435.2c-1.6,1.1-2.6,2.8-2.7,4.7c0,1.7,1.2,2.5,2.7,1.6
			c1.6-1.1,2.6-2.8,2.7-4.7C-644.1-435.3-645.2-436-646.7-435.2z"/>
		<path id="Path_4521" class="st4" d="M-665-439.3l17.6-10.3v0.8l-17.6,10.4V-439.3z"/>
		<path id="Path_4522" class="st4" d="M-665-434.9l19-11v0.8l-19,11V-434.9z"/>
		<path id="Path_4523" class="st4" d="M-665-430.3l15-8.6v0.8l-15,8.7V-430.3z"/>
		<path id="Path_4524" class="st5" d="M-649.2-462.4v-2.6c0.2,0.1,0.2,0.2,0.3,0.2c2.4,1.2,4.1,3.3,4.6,5.8v7.2l-2.5-1.5v-5.3
			C-646.9-460.2-647.8-461.6-649.2-462.4z"/>
		<path id="Path_4525" class="st5" d="M-669.3-407.3l-2.5-1.4l-0.2-0.2l-0.2-0.4l-0.1-0.4v-0.5v-41.6l0.1-0.3l0.1-0.2v-0.2l2.5,1.4
			l-0.1,0.2l-0.1,0.2v0.3l-0.1,0.2v41.4l0.1,0.5l0.1,0.4l0.2,0.3L-669.3-407.3z"/>
	</g>
	<g id="Group_2435" transform="translate(718 541.447)">
		<path id="Path_4484_1_" class="st6" d="M-652.9-473.4c8.4,4.8,8.4,12.7,0,17.4c-8.4,4.7-21.9,4.8-30.2,0c-8.3-4.8-8.4-12.7,0-17.4
			C-674.7-478.1-661.2-478.3-652.9-473.4z"/>
		<path id="Path_4485_1_" class="st7" d="M-653.9-472.9c7.8,4.5,7.8,11.8,0,16.3c-7.8,4.5-20.4,4.5-28.2,0s-7.8-11.8,0-16.3
			S-661.7-477.4-653.9-472.9z"/>
		<path id="Path_4486_1_" class="st8" d="M-654.9-472.3c7.2,4.2,7.2,10.9,0,15.1c-7.2,4.2-19,4.2-26.1,0c-7.1-4.2-7.2-10.9,0-15.1
			S-662.1-476.5-654.9-472.3z"/>
		<path id="Path_4487_1_" class="st9" d="M-655.9-471.7c6.7,3.9,6.7,10.1,0,14c-6.7,3.9-17.5,3.9-24.2,0s-6.7-10.1,0-14
			S-662.6-475.6-655.9-471.7z"/>
		<path id="Path_4488_1_" class="st10" d="M-656.9-471.1c6.1,3.5,6.1,9.3,0,12.8c-6.1,3.5-16,3.5-22.1,0c-6.1-3.5-6.1-9.3,0-12.8
			C-672.9-474.6-663.1-474.7-656.9-471.1z"/>
		<path id="Path_4489_1_" class="st11" d="M-658-470.6c5.5,3.2,5.5,8.4,0,11.6c-5.5,3.2-14.5,3.2-20.1,0c-5.6-3.2-5.5-8.4,0.1-11.6
			C-672.5-473.8-663.5-473.8-658-470.6z"/>
		<path id="Path_4490_1_" class="st12" d="M-659-470c5,2.9,5,7.6,0,10.4c-5,2.8-13.1,2.9-18.1,0c-5-2.9-5-7.6,0-10.4
			C-672.1-472.8-664-472.9-659-470z"/>
		<path id="Path_4491_1_" class="st13" d="M-659.9-469.4c4.4,2.5,4.4,6.7,0,9.3c-4.4,2.6-11.6,2.5-16,0c-4.4-2.5-4.4-6.7,0-9.3
			C-671.5-472-664.4-472-659.9-469.4z"/>
		<path id="Path_4492_1_" class="st14" d="M-660.9-468.8c3.9,2.2,3.9,5.8,0,8.1c-3.9,2.3-10.1,2.2-14.1,0c-4-2.2-3.9-5.8,0-8.1
			C-671.1-471.1-664.9-471.1-660.9-468.8z"/>
		<path id="Path_4493_1_" class="st15" d="M-662-468.2c3.3,1.9,3.3,5,0,6.9c-3.8,1.9-8.2,1.9-12,0c-3.3-1.9-3.3-5,0-6.9
			C-670.2-470.2-665.8-470.2-662-468.2z"/>
		<path id="Path_4494_1_" class="st16" d="M-663-467.6c2.8,1.6,2.8,4.2,0,5.8c-3.1,1.6-6.8,1.6-9.9,0c-2.8-1.6-2.8-4.2,0-5.8
			C-669.8-469.3-666.1-469.3-663-467.6z"/>
		<path id="Path_4495_1_" class="st17" d="M-664.1-467c2.2,1.2,2.2,3.3,0,4.6c-2.5,1.2-5.4,1.2-8,0c-2.2-1.2-2.2-3.3,0-4.6
			C-669.5-468.3-666.5-468.3-664.1-467z"/>
		<path id="Path_4496_1_" class="st18" d="M-665-466.5c1.6,0.9,1.6,2.5,0,3.5c-1.9,0.9-4,0.9-5.9,0c-1.6-0.9-1.6-2.5,0-3.5
			C-669.1-467.4-666.9-467.4-665-466.5z"/>
		<path id="Path_4497_1_" class="st19" d="M-666-465.9c0.7,0.2,1,0.9,0.7,1.5c-0.1,0.3-0.4,0.7-0.7,0.7c-1.2,0.6-2.7,0.6-3.9,0
			c-0.7-0.2-1-0.9-0.7-1.5c0.1-0.3,0.4-0.7,0.7-0.7C-668.7-466.5-667.3-466.5-666-465.9z"/>
	</g>
</g>
</svg>
