<?xml version="1.0" encoding="utf-8"?>
<!-- Generator: Adobe Illustrator 22.1.0, SVG Export Plug-In . SVG Version: 6.00 Build 0)  -->
<svg version="1.1" id="Layer_1" xmlns="http://www.w3.org/2000/svg" xmlns:xlink="http://www.w3.org/1999/xlink" x="0px" y="0px"
	 viewBox="0 0 100 100" style="enable-background:new 0 0 100 100;" xml:space="preserve">
<style type="text/css">
	.st0{fill:#EBEBEB;}
	.st1{fill:#F5F9FA;}
	.st2{fill:#BDBDBD;}
	.st3{fill:#3D566E;}
	.st4{fill:#9C9C9C;}
	.st5{fill:#E6EAEB;}
	.st6{fill:#ABB3B5;}
	.st7{fill:#BFC7C9;}
	.st8{fill:#C9D2D4;}
	.st9{fill:#FAC13C;}
	.st10{fill:#F5BE3D;}
	.st11{fill:#FFDC6A;}
	.st12{fill:#E6B543;}
	.st13{fill:#D19917;}
	.st14{opacity:3.000000e-03;fill:#040507;enable-background:new    ;}
	.st15{opacity:7.000000e-03;fill:#080A0D;enable-background:new    ;}
	.st16{opacity:1.000000e-02;fill:#0B0E14;enable-background:new    ;}
	.st17{opacity:1.300000e-02;fill:#0F131B;enable-background:new    ;}
	.st18{opacity:1.700000e-02;fill:#131822;enable-background:new    ;}
	.st19{opacity:2.000000e-02;fill:#171D29;enable-background:new    ;}
	.st20{opacity:2.300000e-02;fill:#1B2230;enable-background:new    ;}
	.st21{opacity:2.700000e-02;fill:#1F2737;enable-background:new    ;}
	.st22{opacity:3.000000e-02;fill:#232C3F;enable-background:new    ;}
	.st23{opacity:3.300000e-02;fill:#273246;enable-background:new    ;}
	.st24{opacity:3.700000e-02;fill:#2B374D;enable-background:new    ;}
	.st25{opacity:4.000000e-02;fill:#2F3C54;enable-background:new    ;}
	.st26{opacity:4.300000e-02;fill:#34415C;enable-background:new    ;}
	.st27{opacity:4.700000e-02;fill:#384763;enable-background:new    ;}
</style>
<g>
	<g id="Group_2420" transform="translate(-406.907 -350.305)">
		<g id="Group_2419" transform="translate(928.907 826.305)">
			<g id="Group_2413" transform="translate(0 0)">
				<path id="Path_4517_1_" class="st0" d="M-489-407c0.6,0.8,1.3,1.3,2,1.9l28.9-16.8c1.3-0.8,2.1-2.3,2.2-3.8v-31.4l-8-6.2
					l-0.7-0.1l-8.6-0.2l-14.7,8.4c-0.4,0.3-0.8,0.6-1.2,0.9L-489-407L-489-407z"/>
				<path id="Path_4518_1_" class="st1" d="M-461-451.4l4-2.3c2-1.1,3.1-2.1,1.1-3.7l-8.5-6.5l3.4,5.2V-451.4z"/>
				<path id="Path_4519_1_" class="st2" d="M-487-405.1l-2.6-1.5l-0.3-0.3l-0.3-0.3l-0.1-0.4l-0.1-0.5v-43.5l0.1-0.3l0.1-0.3
					l0.1-0.3l0.1-0.3l0.2-0.3l0.2-0.3l0.2-0.3l0.2-0.3l0.2-0.3l0.2-0.3l0.2-0.3l0.3-0.2l0.3-0.2l0.3-0.2l16-9.3
					c2.3-1.3,3.6-2,6.4-0.7c2.5,1.2,4.3,3.4,4.8,6.1v7.4l-2.8-1.5v-5.6c0.1-2.6-2.8-5.7-6.7-3.7l-15.1,8.6l-0.3,0.2l-0.3,0.2
					l-0.3,0.2l-0.2,0.2l-0.2,0.3l-0.2,0.3l-0.2,0.3l-0.2,0.3l-0.2,0.3l-0.2,0.3l-0.1,0.3l-0.1,0.3l-0.1,0.3l-0.1,0.3v43.5l0.1,0.5
					l0.2,0.4l0.3,0.3L-487-405.1z"/>
				<path id="Path_4521_1_" class="st3" d="M-482.6-438.3l18.3-10.7v0.8l-18.3,10.7V-438.3z"/>
				<path id="Path_4757" class="st3" d="M-482.6-429.5l18.3-10.7v0.8l-18.3,10.7V-429.5z"/>
				<path id="Path_4522_1_" class="st3" d="M-482.6-433.8l19.8-11.4v0.8l-19.8,11.4V-433.8z"/>
				<path id="Path_4756" class="st3" d="M-482.6-425l19.8-11.4v0.8l-19.8,11.4V-425z"/>
				<path id="Path_4758" class="st3" d="M-482.6-421.5l19.8-11.4v0.8l-19.8,11.4V-421.5z"/>
				<path id="Path_4523_1_" class="st3" d="M-482.6-417.5l15.6-9v0.8l-15.6,9.1V-417.5z"/>
				<path id="Path_4524_1_" class="st4" d="M-466.1-462.3v-2.8c0.2,0.1,0.3,0.2,0.4,0.2c2.5,1.2,4.3,3.4,4.8,6.1v7.4l-2.8-1.6v-5.5
					C-463.6-460.1-464.6-461.6-466.1-462.3z"/>
				<path id="Path_4525_1_" class="st4" d="M-487-405.1l-2.6-1.5l-0.3-0.3l-0.3-0.3l-0.1-0.4v-0.5v-43.3l0.1-0.3l0.1-0.3v-0.3
					l2.7,1.5l-0.1,0.3l-0.1,0.3v0.3l-0.1,0.3v43l0.1,0.5l0.1,0.4l0.3,0.3L-487-405.1z"/>
			</g>
			<g id="Group_2418" transform="translate(30.449 17.295)">
				<path id="Path_4738" class="st5" d="M-490.5-433.2l-0.5-0.3h0.1h0.1h0.1h0.3h0.1h0.1l0.5,0.3h-0.1h-0.1h-0.3h-0.1H-490.5
					L-490.5-433.2z"/>
				<path id="Path_4739" class="st6" d="M-489.8-424.9l-0.5-0.3l-4.2-4.9l0.5,0.3L-489.8-424.9z"/>
				<path id="Path_4740" class="st6" d="M-494-429.8l-0.5-0.3l1.2-9l0.5,0.3L-494-429.8z"/>
				<path id="Path_4741" class="st7" d="M-492.8-438.8l-0.5-0.3l6.8-3.9l0.5,0.3L-492.8-438.8z"/>
				<path id="Path_4742" class="st6" d="M-489-425.2l-0.5-0.3v-8.3l0.5,0.3V-425.2z"/>
				<path id="Path_4743" class="st5" d="M-489-433.6l-0.5-0.3l0.1-0.1l0.1-0.1l0.1-0.1l0.1-0.1l0.2-0.2l0.1-0.1l0.1-0.1l0.1-0.2
					l0.5,0.3l-0.1,0.1l-0.1,0.1l-0.1,0.1l-0.1,0.2l-0.1,0.1l-0.1,0.1l-0.1,0.1L-489-433.6z"/>
				<path id="Path_4744" class="st6" d="M-488.2-434.6l-0.5-0.3l0.1-0.2l0.2-0.3l0.1-0.2v-0.1l0.1-0.2v-0.2v-0.2v-0.3l0.5,0.3v0.2
					v0.4v0.2v0.2l-0.1,0.3l-0.1,0.2l-0.1,0.2H-488.2z"/>
				<path id="Path_4745" class="st6" d="M-487.8-436.2l-0.5-0.3v-0.2v-0.2v-0.2l-0.1-0.2v-0.1l-0.1-0.1l-0.1-0.1l-0.1-0.1l0.5,0.3
					l0.1,0.1l0.1,0.1v0.2l0.1,0.2v0.1v0.2v0.2L-487.8-436.2z"/>
				<path id="Path_4746" class="st8" d="M-489.4-437.1c-0.5,0.3-0.8,0.7-1.2,1.2c-0.3,0.5-0.4,1-0.5,1.6c0,0.4,0.2,0.8,0.5,1
					c0.3,0.2,0.6,0.2,0.8,0v8.3l-4.2-4.9l1.2-9l6.8-3.8l1.2,7.7l-4.3,9.8v-8.3c0.3-0.3,0.6-0.6,0.8-0.9c0.3-0.5,0.4-1,0.5-1.6
					c0-0.4-0.2-0.8-0.5-1C-488.6-437.3-489-437.3-489.4-437.1z"/>
				<path id="Path_4747" class="st7" d="M-490-447.3c1.3,0,2.6-0.3,3.8-0.9c0.9-0.4,1.5-1.3,1.6-2.2c-0.1-0.9-0.7-1.8-1.6-2.2
					c-1.2-0.7-2.4-0.9-3.8-0.9c-1.4,0-2.6,0.3-3.8,0.9c-0.8,0.4-1.5,1.3-1.6,2.2c0.1,0.9,0.7,1.8,1.6,2.2
					C-492.6-447.7-491.4-447.3-490-447.3z"/>
				<path id="Path_4748" class="st7" d="M-484.8-441.2v-8.8v0.1v0.1l0,0v0.1l0,0v0.1v0.1v0.1v0.1v0.1v0.1v0.1v0.1l-0.1,0.1l-0.5,0.1
					h-0.1l-0.1,0.1l-0.1-0.1l-0.1,0.1h-0.1l-0.1,0.1l-0.1,0.1h-0.1l-0.1,0.1l-0.1,0.1h0.1h-0.1h-0.1l-0.1,0.1h-0.1h-0.1h-0.1h-0.1
					h-0.1h-0.1h-0.1h-0.1l-0.4,0.4h-0.1h-0.1h-0.2h-0.1h-0.1h-0.1h0.2h-0.1h-0.1h-2.8l0,0h-0.1h-0.1h-0.1h-0.1h-0.1h-0.1h-0.1h-0.7
					h-0.1h-0.1h-0.1h-0.1h-0.1h-0.1l-0.1-0.1h-0.1h0.2h-0.1h-0.1h-0.1h-0.1l-0.1-0.1l-0.1-0.1l-0.1-0.1l-0.3-0.5l-0.1-0.1h-0.1
					l-0.1-0.1l-0.1-0.1l0,0l-0.1-0.1l-0.1-0.1v-0.1v-0.1v-0.1v-0.1v-0.1v-0.1v-0.1v0.1h-0.3v-0.1v-0.1v-0.1v-0.1v8.8
					C-495-437.2-485.1-437.2-484.8-441.2z"/>
				<path id="Path_4749" class="st9" d="M-486.2-448.3L-486.2-448.3l0.2-0.1h0.1l0.1-0.1h0.1l0.1-0.1l0.1-0.1h0.1l0.1-0.1v-0.1h0.1
					l0.1-0.1v-0.1l0.1-0.1l0,0v-0.1l0.1-0.1v-0.1v-0.1l0,0v-0.1v-0.1v0.1v-0.1v-0.1v-0.1v-0.1v-0.2v-0.1v-14.7v0.1v0.2v0.1l0,0v0.1
					v0.1v0.1v0.1v0.1v0.1l0,0v0.1h-0.3v0.1v0.1h-0.1v0.1h-0.1l-0.1,0.1l0,0l-0.1,0.1l-0.1,0.1h-0.1l-0.1,0.1h-0.1l-0.1,0.1l-0.1,0.1
					h-0.1h0.1h-0.1h-0.1l-0.1,0.1h-0.1h-0.1l-0.1,0.1h-0.1h-0.1h-0.1h-0.1h-0.1h0.1h-0.1l-0.5,0.6h-0.1h-0.1h-0.1h-0.1h-0.3h-0.1
					h-0.2h-0.1h-0.2h-0.1h-0.4l-0.1,0.3h-1.1h-0.1h-0.4l-0.1-0.1h-0.2h-0.1h-0.2h-0.1h-0.1h-0.2h-0.1h-0.1h0.3h-0.1l-0.2-0.3h-0.1
					h-0.1l-0.2-0.2h-0.1h-0.1h-0.1v-0.2h-0.2h-0.1l-0.1-0.2h-0.1h-0.1l-0.2-0.2h-0.1l-0.1-0.1l-0.1-0.1h0.1l-0.1-0.1h-0.1v-0.1
					l-0.1-0.2h-0.1v0.1v-0.1l-0.2-0.1h-0.1l0,0v-0.1v-0.1l-0.2-0.1l0,0v-0.1v-0.1l0,0v-0.1v-0.1v-0.1v-0.1v-0.1l0,0v14.7v0.1v0.1
					v0.1v0.1v0.1v0.1v-0.1v0.1l0,0v0.1l0.1,0.1v0.1v0.1l0,0l0.1,0.1l0.1,0.1v0.1h0.1l0.3,0.2l0.1,0.1l0,0v-0.1l0.1,0.1h0.1l0.1,0.1
					h0.1l0.1,0.1h0.1l0.2,0.2h0.1l0.1,0.1h0.1h0.1h-0.1l0.1,0.1h0.1h0.1h0.1h0.1h0.1h0.1h0.1h0.1h0.1h0.1h0.2h0.1h0.1h0.1h0.1h0.3
					h0.1h-0.1h0.1h1.7h0.1h0.3h0.1h0.3h0.1h0.1h0.1h0.2h0.1h-0.2h0.1l0.3,0.3h0.1h0.1h0.1h0.1h0.1h0.1l0,0l0.1-0.1h0.1h0.1h0.1
					l0.1-0.1h0.1L-486.2-448.3z"/>
				<path id="Path_4750" class="st10" d="M-490-462.1c1.3,0,2.6-0.3,3.8-0.9c0.9-0.4,1.5-1.3,1.6-2.2c-0.2-0.9-0.8-1.8-1.6-2.2
					c-1.2-0.6-2.5-0.9-3.8-0.9c-1.3,0-2.6,0.3-3.8,0.9c-0.8,0.4-1.4,1.2-1.5,2.2c0.1,0.9,0.7,1.8,1.6,2.2
					C-492.6-462.4-491.4-462.1-490-462.1z"/>
				<path id="Path_4751" class="st5" d="M-486-448.5L-486-448.5L-486-448.5l-0.2,0.2l-0.1,0.1l0,0h-0.1h-0.1l-0.1,0.1h-0.1h-0.1
					h-0.1h-0.1h-0.1h-0.1h-0.1h-0.1l-0.4,0.4h-0.1h-0.1h-0.2h-0.1h-0.1h-0.1l0,0v9.2c0.9-0.2,1.8-0.5,2.4-0.9L-486-448.5L-486-448.5
					z"/>
				<path id="Path_4752" class="st11" d="M-486.2-448.3L-486.2-448.3l0.2-0.1h0.1l0.1-0.1l0,0v-14.8l0,0l-0.1,0.1l-0.1,0.1h-0.1
					l-0.1,0.1h-0.1h-0.1l-0.1,0.1h-0.1h-0.1l-0.1,0.1h-0.1h-0.1h-0.1h-0.1h-0.1h0.1h-0.1l-0.5,0.5h-0.1h-0.1h-0.1h-0.1h-0.2v14.6
					h0.2h0.1h0.1h0.1l0.2-0.1h0.1h0.1h0.1h0.1h0.1h0.1h-0.1l0.1-0.1h0.1h0.1h0.1l0.1-0.1h0.1L-486.2-448.3z"/>
				<path id="Path_4753" class="st6" d="M-491.6-447.5L-491.6-447.5h-0.2h-0.1h-0.1h-0.1h-0.1h-0.1h-0.2h-0.1h-0.1h-0.1h-0.1h-0.1
					h-0.1l-0.1-0.1h-0.1h-0.1h-0.1h0.3h-0.1h-0.1l-0.1-0.1l-0.1-0.1l-0.1-0.1l0,0v9.2c0.8,0.5,1.7,0.8,2.6,0.9L-491.6-447.5
					L-491.6-447.5z"/>
				<path id="Path_4754" class="st12" d="M-491.6-462.2L-491.6-462.2h-0.2h-0.2h-0.1h-0.1l0,0h-0.1h-0.1h-0.1h-0.1l-0.3-0.4h-0.1
					h-0.1h-0.1v-0.2h-0.2l-0.1-0.1l-0.1-0.1h-0.1h-0.1l-0.2-0.2h-0.1l-0.1-0.1l-0.1-0.1l0,0v14.7l0,0l0.1,0.1h0.1l0.1,0.1h0.1
					l0.2,0.2h0.1l0.1,0.1h0.1h0.1h0.1l0.1,0.1h0.1h0.1h0.1h0.1h0.1h0.1h0.1h0.1h0.1h0.1h0.2h0.1h0.1L-491.6-462.2z"/>
				<path id="Path_4755" class="st13" d="M-490-462.9c1.2,0,2.3-0.3,3.3-0.8c0.8-0.4,1.4-1.2,1.5-2c-0.1-0.8-0.6-1.6-1.4-1.9
					c-1-0.6-2.2-0.8-3.3-0.8c-1.1,0-2.3,0.3-3.3,0.8c-0.9,0.3-1.4,1.1-1.5,1.9c0.1,0.8,0.6,1.6,1.4,1.9
					C-492.4-463.2-491.1-462.9-490-462.9z"/>
			</g>
		</g>
	</g>
	<g id="Group_2434" transform="translate(518 541.447)">
		<path id="Path_4484" class="st14" d="M-452.6-472.7c8.5,4.9,8.5,12.8,0,17.7s-22.2,4.9-30.7,0s-8.5-12.8,0-17.7
			C-474.9-477.6-461-477.6-452.6-472.7z"/>
		<path id="Path_4485" class="st15" d="M-453.6-472.1c7.9,4.6,7.9,12,0,16.5s-20.6,4.6-28.6,0s-7.9-12,0-16.5
			S-461.5-476.7-453.6-472.1z"/>
		<path id="Path_4486" class="st16" d="M-454.6-471.5c7.3,4.3,7.3,11.1,0,15.3c-7.3,4.2-19.3,4.3-26.5,0c-7.2-4.3-7.4-11.1-0.1-15.3
			S-462-475.8-454.6-471.5z"/>
		<path id="Path_4487" class="st17" d="M-455.6-470.9c6.8,3.9,6.8,10.3,0,14.2c-6.8,3.9-17.8,3.9-24.6,0c-6.8-3.9-6.7-10.3,0-14.2
			S-462.5-474.8-455.6-470.9z"/>
		<path id="Path_4488" class="st18" d="M-456.6-470.3c6.2,3.6,6.2,9.4,0,13c-6.2,3.6-16.3,3.6-22.4,0c-6.1-3.6-6.2-9.4,0-13
			C-472.9-473.9-463-473.9-456.6-470.3z"/>
		<path id="Path_4489" class="st19" d="M-457.8-469.8c5.6,3.3,5.6,8.5,0,11.8s-14.8,3.3-20.5,0s-5.6-8.5,0.1-11.8
			C-472.5-473-463.4-473-457.8-469.8z"/>
		<path id="Path_4490" class="st20" d="M-458.8-469.2c5.1,2.9,5.1,7.7,0,10.6s-13.3,2.9-18.3,0s-5.1-7.7,0-10.6
			C-471.9-472.1-463.9-472.1-458.8-469.2z"/>
		<path id="Path_4491" class="st21" d="M-459.8-468.6c4.5,2.6,4.5,6.8,0,9.4c-4.5,2.6-11.8,2.6-16.3,0c-4.5-2.6-4.5-6.8,0-9.4
			S-464.2-471.2-459.8-468.6z"/>
		<path id="Path_4492" class="st22" d="M-460.8-467.9c3.9,2.3,3.9,5.9,0,8.3s-10.3,2.3-14.3,0c-4-2.3-3.9-5.9,0-8.3
			C-471.1-470.3-464.8-470.3-460.8-467.9z"/>
		<path id="Path_4493" class="st23" d="M-461.9-467.3c3.3,1.9,3.3,5.1,0,7c-3.8,1.9-8.3,1.9-12.2,0c-3.3-1.9-3.3-5.1,0-7
			C-470.2-469.3-465.8-469.3-461.9-467.3z"/>
		<path id="Path_4494" class="st24" d="M-462.9-466.8c2.8,1.6,2.8,4.3,0,5.8c-3.2,1.6-6.9,1.6-10.1,0c-2.8-1.6-2.8-4.3,0-5.8
			C-469.8-468.4-466-468.4-462.9-466.8z"/>
		<path id="Path_4495" class="st25" d="M-464-466.2c2.3,1.3,2.3,3.3,0,4.7c-2.5,1.3-5.5,1.3-8.1,0c-2.3-1.3-2.3-3.3,0-4.7
			C-469.5-467.5-466.5-467.5-464-466.2z"/>
		<path id="Path_4496" class="st26" d="M-465-465.6c1.7,0.9,1.7,2.5,0,3.5c-1.9,0.9-4.1,0.9-6,0c-1.7-0.9-1.7-2.5,0-3.5
			C-469-466.5-466.9-466.5-465-465.6z"/>
		<path id="Path_4497" class="st27" d="M-466-465c0.7,0.3,1,0.9,0.8,1.5c-0.1,0.3-0.4,0.7-0.8,0.8c-1.3,0.6-2.8,0.6-4,0
			c-0.7-0.3-1-0.9-0.8-1.5c0.1-0.3,0.4-0.7,0.8-0.8C-468.8-465.6-467.2-465.6-466-465z"/>
	</g>
</g>
</svg>
