<?xml version="1.0" encoding="utf-8"?>
<!-- Generator: Adobe Illustrator 22.1.0, SVG Export Plug-In . SVG Version: 6.00 Build 0)  -->
<svg version="1.1" id="Layer_1" xmlns="http://www.w3.org/2000/svg" xmlns:xlink="http://www.w3.org/1999/xlink" x="0px" y="0px"
	 viewBox="0 0 120 138.6" style="enable-background:new 0 0 120 138.6;" xml:space="preserve">
<style type="text/css">
	.st0{fill:#BDBDBD;}
	.st1{fill:#E6EAEB;}
	.st2{fill:#676775;}
	.st3{fill:#9C9C9C;}
	.st4{enable-background:new    ;}
	.st5{fill:#1F1E1E;}
</style>
<g id="Group_2390" transform="translate(107.503 473)">
	<path id="Path_4456" class="st0" d="M-61.4-392.8l-4.7-2.7v-57.4l1,0.6l1.9-1.1l1.9-3.2l1.9,1.1l2.1-1.2l1.9-3.2l1.9,1.1l2.1-1.2
		l1.9-3.2l1.9,1.1l2.1-1.2l1.9-3.2l1.9,1.1l2.1-1.2l1.9-3.2l4.7,2.8l-1.9,3.2l-2,0.8l-1.9-1l-1.9,3.2l-2.1,1.2l-1.9-1.1l-1.9,3.2
		l-2.1,1.2l-1.9-1.1l-2,3.2l-2.1,1.2l-1.9-1l-1.9,3.2l-1.9,1.1l-1-0.6L-61.4-392.8L-61.4-392.8z M-34.1-470.3l-1.9,1.1l4.7,2.7
		l1.8-1.1l0.5-0.7l-4.6-2.7L-34.1-470.3z"/>
	<path id="Path_4457" class="st1" d="M-28.9-454.6v42.4l-0.5-0.3l-1.8,1.1l-1.9,3.2l-1.9-1l-2.1,1.3l-1.9,3.2l-1.9-1.1l-2.1,1.3
		l-1.9,3.2l-1.8-1.1l-2.1,1.2l-1.9,3.2l-1.9-1l-2.1,1.2l-1.8,3.2l-1.9-1.1l-1.9,1.1l-1,1.7v-57.3l1,0.6l1.9-1.1l1.9-3.2l1.8,1.1
		l2.1-1.2l1.9-3.2l1.9,1.1l2.1-1.2l1.8-3.2l1.9,1.1l2.1-1.3l1.9-3.4l1.9,1.1l2.1-1.3l1.8-3.2l1.9,1.1l1.8-1.1l0.5-0.7L-28.9-454.6
		L-28.9-454.6z"/>
	<path id="Path_4458" class="st2" d="M-57.4-429l22.7-13.1v1l-22.7,13.2V-429z"/>
	<path id="Path_4459" class="st2" d="M-57.4-423.3l24.6-14.2v1.1l-24.6,14.1V-423.3z"/>
	<path id="Path_4460" class="st2" d="M-57.4-417.4l19.4-11.2v1.1l-19.4,11.2V-417.4z"/>
	<path id="Path_4461" class="st2" d="M-57.4-404l9.6-5.6v1.1l-9.6,5.6V-404z"/>
	<path id="Path_4462" class="st2" d="M-37.8-415.2l4.7-2.7v1l-4.7,2.8V-415.2z"/>
	<path id="Path_4463" class="st2" d="M-57.4-445.9l7.4-4.3v1.1l-7.4,4.3V-445.9z"/>
	<path id="Path_4464" class="st2" d="M-41.2-455.2l8.2-4.7v1.1l-8.2,4.7V-455.2z"/>
	<path id="Path_4465" class="st2" d="M-57.4-440.7l13.8-8v1.1l-13.8,8V-440.7z"/>
	<path id="Path_4466" class="st2" d="M-35.5-453.5l2.4-1.3v1.1l-2.4,1.3V-453.5z"/>
	<path id="Path_4467" class="st3" d="M-66.1-452.9v57.4l4.7,2.7v-57.4L-66.1-452.9z"/>
</g>
<g id="Group_2428" transform="translate(-51 -110)">
	<g class="st4">
		<path class="st5" d="M97,201.2h3.9l3.7,10.1h0.1l3.6-10.1h4v14.2h-2.5v-11.4h0l-4.3,11.4h-1.8l-4.2-11.4h0v11.4H97V201.2z"/>
		<path class="st5" d="M118.8,209.2l-5.3-8h3.1l3.6,6l3.6-6h2.9l-5.3,8v6.1h-2.5V209.2z"/>
	</g>
	<g class="st4">
		<path class="st5" d="M54,226.7h11.7v2.8h-8.6v4.5h8.1v2.7h-8.1v5h9v2.8H54V226.7z"/>
		<path class="st5" d="M74.3,239.5h-6v-2.5h6V239.5z"/>
		<path class="st5" d="M77.2,226.7h11.4v2.8h-8.3v4.9h7.8v2.6h-7.8v7.5h-3.2V226.7z"/>
		<path class="st5" d="M95.7,226.7h2.7l7.6,17.7h-3.6l-1.7-4h-7.7l-1.6,4H88L95.7,226.7z M99.7,237.6l-2.7-7.2l-2.8,7.2H99.7z"/>
		<path class="st5" d="M109.9,229.4h-5.4v-2.8h14v2.8h-5.4v15h-3.1V229.4z"/>
		<path class="st5" d="M134.6,237.9c0,1.1-0.2,2-0.5,2.9c-0.4,0.9-0.9,1.6-1.5,2.2c-0.6,0.6-1.4,1.1-2.2,1.4
			c-0.9,0.3-1.8,0.5-2.8,0.5s-2-0.2-2.8-0.5c-0.9-0.3-1.6-0.8-2.3-1.4c-0.6-0.6-1.1-1.3-1.5-2.2c-0.4-0.9-0.5-1.8-0.5-2.9v-11.2h3.2
			v11.1c0,0.5,0.1,1,0.2,1.5c0.1,0.5,0.4,1,0.7,1.4c0.3,0.4,0.7,0.7,1.2,1c0.5,0.2,1.1,0.4,1.9,0.4s1.4-0.1,1.9-0.4
			c0.5-0.2,0.9-0.6,1.2-1c0.3-0.4,0.5-0.9,0.7-1.4c0.1-0.5,0.2-1,0.2-1.5v-11.1h3.1V237.9z"/>
		<path class="st5" d="M138.4,226.7h6.1c0.8,0,1.6,0.1,2.4,0.3c0.8,0.2,1.5,0.5,2.1,0.9c0.6,0.4,1.1,0.9,1.5,1.6
			c0.4,0.7,0.5,1.4,0.5,2.4c0,1.3-0.4,2.3-1.1,3.1c-0.7,0.8-1.7,1.4-3,1.6l4.7,7.8h-3.8l-4.1-7.5h-2.3v7.5h-3.1V226.7z M144.1,234.3
			c0.5,0,0.9,0,1.4-0.1c0.4-0.1,0.9-0.2,1.2-0.4s0.7-0.4,0.9-0.8c0.2-0.3,0.3-0.8,0.3-1.3c0-0.5-0.1-0.9-0.3-1.2
			c-0.2-0.3-0.5-0.6-0.8-0.7c-0.3-0.2-0.7-0.3-1.1-0.4c-0.4-0.1-0.8-0.1-1.2-0.1h-2.9v5H144.1z"/>
		<path class="st5" d="M159.7,226.7h2.7l7.6,17.7h-3.6l-1.7-4h-7.7l-1.6,4H152L159.7,226.7z M163.7,237.6l-2.7-7.2l-2.8,7.2H163.7z"
			/>
	</g>
</g>
</svg>
