<?xml version="1.0" encoding="utf-8"?>
<!-- Generator: Adobe Illustrator 22.1.0, SVG Export Plug-In . SVG Version: 6.00 Build 0)  -->
<svg version="1.1" id="Layer_1" xmlns="http://www.w3.org/2000/svg" xmlns:xlink="http://www.w3.org/1999/xlink" x="0px" y="0px"
	 viewBox="0 0 185 98.5" style="enable-background:new 0 0 185 98.5;" xml:space="preserve">
<style type="text/css">
	.st0{fill:#BDBDBD;}
	.st1{fill:#E6EAEB;}
	.st2{fill:#676775;}
	.st3{fill:#9C9C9C;}
	.st4{enable-background:new    ;}
	.st5{fill:#1F1E1E;}
	.st6{opacity:3.000000e-03;fill:#040507;enable-background:new    ;}
	.st7{opacity:7.000000e-03;fill:#080A0D;enable-background:new    ;}
	.st8{opacity:1.000000e-02;fill:#0B0E14;enable-background:new    ;}
	.st9{opacity:1.300000e-02;fill:#0F131B;enable-background:new    ;}
	.st10{opacity:1.700000e-02;fill:#131822;enable-background:new    ;}
	.st11{opacity:2.000000e-02;fill:#171D29;enable-background:new    ;}
	.st12{opacity:2.300000e-02;fill:#1B2230;enable-background:new    ;}
	.st13{opacity:2.700000e-02;fill:#1F2737;enable-background:new    ;}
	.st14{opacity:3.000000e-02;fill:#232C3F;enable-background:new    ;}
	.st15{opacity:3.300000e-02;fill:#273246;enable-background:new    ;}
	.st16{opacity:3.700000e-02;fill:#2B374D;enable-background:new    ;}
	.st17{opacity:4.000000e-02;fill:#2F3C54;enable-background:new    ;}
	.st18{opacity:4.300000e-02;fill:#34415C;enable-background:new    ;}
	.st19{opacity:4.700000e-02;fill:#384763;enable-background:new    ;}
</style>
<g id="Group_2688" transform="translate(-122.88 -473)">
	<g id="Group_2390" transform="translate(107.503 473)">
		<path id="Path_4456" class="st0" d="M41.4,73l-3.9-2.2V23.6l0.8,0.5l1.6-0.9l1.6-2.6l1.6,0.9l1.7-1l1.6-2.6l1.6,0.9l1.7-1l1.6-2.6
			l1.6,0.9l1.7-1l1.6-2.6l1.6,0.9l1.7-1l1.6-2.6l3.9,2.3l-1.6,2.6l-1.6,0.7L60,14.5l-1.6,2.6l-1.7,1l-1.6-0.9l-1.6,2.6l-1.7,1
			l-1.6-0.9l-1.6,2.6l-1.7,1l-1.6-0.8l-1.6,2.6l-1.6,0.9l-0.8-0.5L41.4,73L41.4,73z M63.9,9.3l-1.6,0.9l3.9,2.2l1.5-0.9l0.4-0.6
			l-3.8-2.2L63.9,9.3z"/>
		<path id="Path_4457" class="st1" d="M68.2,22.2v34.9l-0.4-0.2l-1.5,0.9l-1.6,2.6l-1.6-0.8l-1.7,1.1l-1.6,2.6l-1.6-0.9l-1.7,1.1
			L55,66.1l-1.5-0.9l-1.7,1l-1.6,2.6L48.6,68l-1.7,1l-1.5,2.6l-1.6-0.9l-1.6,0.9L41.5,73V25.9l0.8,0.5l1.6-0.9l1.6-2.6l1.5,0.9
			l1.7-1l1.6-2.6l1.6,0.9l1.7-1l1.5-2.6l1.6,0.9l1.7-1.1l1.6-2.8l1.6,0.9l1.7-1.1l1.5-2.6l1.6,0.9l1.5-0.9l0.4-0.6L68.2,22.2
			L68.2,22.2z"/>
		<path id="Path_4458" class="st2" d="M44.7,43.3l18.7-10.8v0.8L44.7,44.2V43.3z"/>
		<path id="Path_4459" class="st2" d="M44.7,48L65,36.3v0.9L44.7,48.8V48z"/>
		<path id="Path_4460" class="st2" d="M44.7,52.8l15.9-9.2v0.9l-15.9,9.2C44.7,53.7,44.7,52.8,44.7,52.8z"/>
		<path id="Path_4461" class="st2" d="M44.7,63.8l7.9-4.6v0.9l-7.9,4.6V63.8z"/>
		<path id="Path_4462" class="st2" d="M60.8,54.6l3.9-2.2v0.8l-3.9,2.3C60.8,55.5,60.8,54.6,60.8,54.6z"/>
		<path id="Path_4463" class="st2" d="M44.7,29.4l6.1-3.5v0.9l-6.1,3.5V29.4z"/>
		<path id="Path_4464" class="st2" d="M58.1,21.7l6.7-3.9v0.9l-6.7,3.9C58.1,22.6,58.1,21.7,58.1,21.7z"/>
		<path id="Path_4465" class="st2" d="M44.7,33.7L56,27.1V28l-11.3,6.6V33.7z"/>
		<path id="Path_4466" class="st2" d="M62.7,23.1l2-1.1v1l-2,1.1C62.7,24.1,62.7,23.1,62.7,23.1z"/>
		<path id="Path_4467" class="st3" d="M37.6,23.6v47.2l3.9,2.2V25.9L37.6,23.6z"/>
	</g>
	<g id="Group_2428" transform="translate(-51 -110)">
		<g class="st4">
			<path class="st5" d="M242.2,605.4h3.2l3,8.3h0l3-8.3h3.3v11.6h-2.1v-9.4h0l-3.5,9.4h-1.4l-3.5-9.4h0v9.4h-2V605.4z"/>
			<path class="st5" d="M260.2,612l-4.4-6.6h2.5l2.9,4.9l3-4.9h2.4l-4.4,6.6v5h-2.1V612z"/>
		</g>
		<g class="st4">
			<path class="st5" d="M242.6,626.4h9.6v2.3h-7v3.7h6.7v2.2h-6.7v4.1h7.4v2.3h-10V626.4z"/>
			<path class="st5" d="M259.3,636.9h-4.9v-2.1h4.9V636.9z"/>
			<path class="st5" d="M261.7,626.4h9.4v2.3h-6.8v4h6.4v2.2h-6.4v6.1h-2.6V626.4z"/>
			<path class="st5" d="M276.9,626.4h2.2l6.3,14.5h-3l-1.4-3.3h-6.3l-1.3,3.3h-2.9L276.9,626.4z M280.2,635.4l-2.2-5.9l-2.3,5.9
				H280.2z"/>
			<path class="st5" d="M288.6,628.7h-4.5v-2.3h11.5v2.3h-4.5V641h-2.6V628.7z"/>
			<path class="st5" d="M308.9,635.6c0,0.9-0.2,1.7-0.5,2.4c-0.3,0.7-0.7,1.3-1.2,1.8c-0.5,0.5-1.1,0.9-1.8,1.1
				c-0.7,0.3-1.5,0.4-2.3,0.4c-0.8,0-1.6-0.1-2.3-0.4c-0.7-0.3-1.3-0.6-1.9-1.1c-0.5-0.5-0.9-1.1-1.2-1.8c-0.3-0.7-0.4-1.5-0.4-2.4
				v-9.2h2.6v9.1c0,0.4,0.1,0.8,0.2,1.3s0.3,0.8,0.5,1.1c0.3,0.3,0.6,0.6,1,0.8c0.4,0.2,0.9,0.3,1.6,0.3c0.6,0,1.1-0.1,1.6-0.3
				c0.4-0.2,0.8-0.5,1-0.8c0.3-0.3,0.4-0.7,0.5-1.1c0.1-0.4,0.2-0.8,0.2-1.3v-9.1h2.6V635.6z"/>
			<path class="st5" d="M312,626.4h5.1c0.7,0,1.3,0.1,2,0.2c0.6,0.1,1.2,0.4,1.7,0.7c0.5,0.3,0.9,0.8,1.2,1.3c0.3,0.5,0.5,1.2,0.5,2
				c0,1.1-0.3,1.9-0.9,2.6c-0.6,0.7-1.4,1.1-2.4,1.3l3.9,6.5h-3.1l-3.4-6.2h-1.9v6.2H312V626.4z M316.7,632.7c0.4,0,0.7,0,1.1-0.1
				s0.7-0.2,1-0.3c0.3-0.2,0.5-0.4,0.7-0.6c0.2-0.3,0.3-0.6,0.3-1.1c0-0.4-0.1-0.7-0.3-1c-0.2-0.3-0.4-0.5-0.7-0.6
				c-0.3-0.2-0.6-0.3-0.9-0.3s-0.7-0.1-1-0.1h-2.3v4.1H316.7z"/>
			<path class="st5" d="M329.5,626.4h2.2L338,641h-3l-1.4-3.3h-6.3L326,641h-2.9L329.5,626.4z M332.7,635.4l-2.2-5.9l-2.3,5.9H332.7
				z"/>
		</g>
	</g>
	<g id="Group_2432" transform="translate(122.88 541.447)">
		<path id="Path_4484" class="st6" d="M52.5,0.2c8.4,4.9,8.4,12.7,0,17.4s-21.9,4.9-30.3,0S13.9,5,22.3,0.2S44.2-4.7,52.5,0.2z"/>
		<path id="Path_4485" class="st7" d="M51.5,0.8c7.8,4.5,7.8,11.8,0,16.3s-20.4,4.5-28.2,0s-7.8-11.8,0-16.3S43.7-3.8,51.5,0.8z"/>
		<path id="Path_4486" class="st8" d="M50.5,1.3c7.2,4.2,7.2,10.9,0,15.1s-19,4.2-26.1,0s-7.2-10.9,0-15.1S43.3-2.8,50.5,1.3z"/>
		<path id="Path_4487" class="st9" d="M49.5,1.9c6.7,3.9,6.7,10.1,0,14s-17.5,3.9-24.2,0s-6.7-10.1,0-14S42.8-1.9,49.5,1.9z"/>
		<path id="Path_4488" class="st10" d="M48.5,2.5c6.1,3.5,6.1,9.3,0,12.8s-16,3.5-22.1,0s-6.1-9.3,0-12.8S42.3-1,48.5,2.5z"/>
		<path id="Path_4489" class="st11" d="M47.4,3.1c5.5,3.2,5.5,8.4,0,11.6s-14.6,3.2-20.1,0s-5.5-8.3,0.1-11.6
			C32.9-0.1,41.9-0.1,47.4,3.1z"/>
		<path id="Path_4490" class="st12" d="M46.4,3.7c5,2.9,5,7.6,0,10.4s-13.1,2.9-18.1,0s-5-7.6,0-10.4S41.4,0.8,46.4,3.7z"/>
		<path id="Path_4491" class="st13" d="M45.5,4.3c4.4,2.5,4.4,6.7,0,9.3s-11.6,2.5-16,0s-4.4-6.7,0-9.3S41,1.8,45.5,4.3z"/>
		<path id="Path_4492" class="st14" d="M44.5,4.9c3.9,2.2,3.9,5.8,0,8.1s-10.1,2.2-14.1,0s-3.9-5.8,0-8.1
			C34.3,2.7,40.5,2.7,44.5,4.9z"/>
		<path id="Path_4493" class="st15" d="M43.4,5.5c3.3,1.9,3.3,5,0,6.9c-3.8,1.9-8.2,1.9-12,0c-3.3-1.9-3.3-5,0-6.9
			C35.2,3.6,39.6,3.6,43.4,5.5z"/>
		<path id="Path_4494" class="st16" d="M42.4,6c2.8,1.6,2.8,4.2,0,5.8c-3.1,1.6-6.8,1.6-9.9,0c-2.8-1.6-2.8-4.2,0-5.8
			C35.6,4.5,39.3,4.5,42.4,6z"/>
		<path id="Path_4495" class="st17" d="M41.3,6.6c2.2,1.2,2.2,3.3,0,4.6c-2.5,1.2-5.4,1.2-8,0c-2.2-1.2-2.2-3.3,0-4.6
			C35.9,5.4,38.9,5.4,41.3,6.6z"/>
		<path id="Path_4496" class="st18" d="M40.4,7.2c1.6,0.9,1.6,2.5,0,3.5c-1.9,0.9-4,0.9-5.9,0c-1.6-0.9-1.6-2.5,0-3.5
			C36.3,6.3,38.5,6.3,40.4,7.2z"/>
		<path id="Path_4497" class="st19" d="M39.4,7.8c0.7,0.2,1,0.9,0.7,1.5C40,9.6,39.7,9.9,39.4,10c-1.2,0.6-2.7,0.6-3.9,0
			c-0.7-0.2-1-0.9-0.7-1.5c0.1-0.3,0.4-0.7,0.7-0.7C36.7,7.2,38.1,7.2,39.4,7.8z"/>
	</g>
</g>
</svg>
