<?xml version="1.0" encoding="utf-8"?>
<!-- Generator: Adobe Illustrator 22.1.0, SVG Export Plug-In . SVG Version: 6.00 Build 0)  -->
<svg version="1.1" id="Layer_1" xmlns="http://www.w3.org/2000/svg" xmlns:xlink="http://www.w3.org/1999/xlink" x="0px" y="0px"
	 viewBox="0 0 120 137.2" style="enable-background:new 0 0 120 137.2;" xml:space="preserve">
<style type="text/css">
	.st0{fill:#9C9C9C;}
	.st1{fill:#E6EAEB;}
	.st2{fill:#30383B;}
	.st3{fill:#D44F3E;}
	.st4{fill:#F25E4B;}
	.st5{fill:#F0B11D;}
	.st6{fill:#FAC13C;}
	.st7{enable-background:new    ;}
	.st8{fill:#1F1E1E;}
</style>
<g id="Group_2404" transform="translate(216.15 581)">
	<g id="Group_2403" transform="translate(8.258)">
		<path id="Path_4573" class="st0" d="M-191.1-510.2v0.3l0.1,0.2l0.1,0.2l0.1,0.2l0.1,0.2l0.1,0.2l0.2,0.1l0.2,0.1l2,1.1l-0.2-0.1
			h-0.3l-0.1-0.2l-0.1-0.2l-0.1-0.2l-0.1-0.2v-0.3v-36.6l0.1-0.3l0.1-0.3l0.1-0.3l0.1-0.3l0.1-0.3l0.2-0.3c0.1-0.2,0.2-0.4,0.3-0.6
			l0.2-0.3l0.2-0.3l0.2-0.2l0.2-0.2l0.2-0.4l0.2-0.2l0.3-0.2l46.4-26.6l0.3-0.1l0.2-0.1l0.2-0.1l0.2-0.1h0.5l0.2,0.1l0.2,0.1l-2-1.1
			l-0.2-0.1l-0.2-0.1h-0.5l-0.2,0.1l-0.2,0.1l-0.2,0.1l-0.3,0.1l-46.4,26.7l-0.3,0.2l-0.2,0.1l-0.2,0.2l-0.2,0.2l-0.2,0.3l-0.2,0.3
			l-0.2,0.3c-0.1,0.2-0.2,0.4-0.3,0.6l-0.2,0.3l-0.2,0.4l-0.1,0.3l-0.1,0.3l-0.1,0.3v0.3L-191.1-510.2L-191.1-510.2z"/>
		<path id="Path_4574" class="st1" d="M-140.1-534.4c0.7-0.5,1.3-1.1,1.7-1.8l0,0c0.4-0.8,0.7-1.6,0.7-2.5v-36
			c0.1-0.6-0.2-1.3-0.7-1.6c-0.6-0.3-1.2-0.2-1.7,0.2l-46.6,26.7c-0.7,0.5-1.3,1.1-1.7,1.9l0,0c-0.4,0.7-0.7,1.5-0.7,2.4v36.1
			c-0.1,0.6,0.2,1.3,0.7,1.6c0.6,0.3,1.2,0.2,1.7-0.2L-140.1-534.4z"/>
		<path id="Path_4575" class="st2" d="M-180.1-522.3c-0.3,0.2-0.6,0.1-0.6-0.3c0-0.4,0.3-0.8,0.6-1.1l16.6-9.6
			c0.3-0.2,0.6-0.1,0.6,0.3s-0.3,0.8-0.6,1.1L-180.1-522.3z M-163.4-539.1l-16.7,9.6c-0.4,0.2-0.6,0.6-0.6,1.1
			c0,0.4,0.3,0.6,0.6,0.4l16.7-9.7c0.4-0.2,0.6-0.6,0.6-1.1C-162.8-539.2-163.1-539.3-163.4-539.1z M-180.1-542.6
			c-0.3,0.2-0.6,0.1-0.6-0.3c0-0.4,0.3-0.8,0.6-1.1l33.2-19.2c0.3-0.2,0.6-0.1,0.6,0.3c0,0.4-0.3,0.8-0.6,1.1L-180.1-542.6z"/>
		<g id="Group_2402" transform="translate(31.43 39.09)">
			<path id="Path_4576" class="st3" d="M-189.7-563.2l-0.4-0.2l0,0v0.1l0,0v0.1l0.3,0.2L-189.7-563.2L-189.7-563.2L-189.7-563.2z"/>
			<path id="Path_4577" class="st3" d="M-189.7-563.1l-0.4-0.2l-1,2.5l0.4,0.2L-189.7-563.1z"/>
			<path id="Path_4578" class="st3" d="M-187.4-563l-0.4-0.2l0.1,0.1v0.1l0.4,0.2L-187.4-563L-187.4-563z"/>
			<path id="Path_4579" class="st3" d="M-187.3-562.8l-0.4-0.2l0.9,2.6l0.4,0.2L-187.3-562.8z"/>
			<path id="Path_4580" class="st3" d="M-182.4-570.4l-0.4-0.3l0,0L-182.4-570.4z"/>
			<path id="Path_4581" class="st3" d="M-182.4-570.4l-0.4-0.3h-0.1L-182.4-570.4L-182.4-570.4z"/>
			<path id="Path_4582" class="st3" d="M-182.5-570.4l-0.4-0.3v0.1L-182.5-570.4L-182.5-570.4z"/>
			<path id="Path_4583" class="st3" d="M-182.5-570.4l-0.4-0.2l0,0L-182.5-570.4z"/>
			<path id="Path_4584" class="st3" d="M-182.5-570.4l-0.4-0.2l0,0L-182.5-570.4L-182.5-570.4z"/>
			<path id="Path_4585" class="st3" d="M-182.6-570.4l-0.3-0.2h-0.1L-182.6-570.4z"/>
			<path id="Path_4586" class="st3" d="M-182.6-570.4l-0.4-0.2l0,0L-182.6-570.4L-182.6-570.4z"/>
			<path id="Path_4587" class="st3" d="M-182.7-570.4l-0.3-0.2l0,0L-182.7-570.4z"/>
			<path id="Path_4588" class="st3" d="M-182.7-570.4l-0.3-0.2l-0.1,0.1L-182.7-570.4L-182.7-570.4z"/>
			<path id="Path_4589" class="st3" d="M-182.7-570.3l-0.4-0.2l0,0L-182.7-570.3z"/>
			<path id="Path_4590" class="st3" d="M-182.7-570.3l-0.4-0.2h-0.1L-182.7-570.3L-182.7-570.3z"/>
			<path id="Path_4591" class="st3" d="M-182.8-570.3l-0.4-0.2l0,0L-182.8-570.3z"/>
			<path id="Path_4592" class="st3" d="M-182.8-570.3l-0.4-0.2l0,0L-182.8-570.3L-182.8-570.3z"/>
			<path id="Path_4593" class="st3" d="M-182.8-570.3l-0.4-0.2l0,0L-182.8-570.3z"/>
			<path id="Path_4594" class="st3" d="M-182.8-570.3l-0.4-0.2h-0.1L-182.8-570.3L-182.8-570.3z"/>
			<path id="Path_4595" class="st3" d="M-182.9-570.3l-0.4-0.2v0.1L-182.9-570.3L-182.9-570.3z"/>
			<path id="Path_4596" class="st3" d="M-182.9-570.3l-0.4-0.2h-0.1l0.4,0.2H-182.9z"/>
			<path id="Path_4597" class="st3" d="M-183-570.3l-0.4-0.2l0,0L-183-570.3L-183-570.3z"/>
			<path id="Path_4598" class="st3" d="M-183-570.3l-0.4-0.2l0,0L-183-570.3z"/>
			<path id="Path_4599" class="st3" d="M-183-570.3l-0.4-0.2h-0.1L-183-570.3L-183-570.3z"/>
			<path id="Path_4600" class="st3" d="M-183.1-570.3l-0.4-0.2l0,0L-183.1-570.3z"/>
			<path id="Path_4601" class="st3" d="M-183.1-570.3l-0.4-0.2v0.1L-183.1-570.3L-183.1-570.3z"/>
			<path id="Path_4602" class="st3" d="M-183.2-570.3l-0.3-0.1h-0.1L-183.2-570.3L-183.2-570.3z"/>
			<path id="Path_4603" class="st3" d="M-183.2-570.2l-0.4-0.2l0,0L-183.2-570.2L-183.2-570.2z"/>
			<path id="Path_4604" class="st3" d="M-183.2-570.2l-0.4-0.2l0,0L-183.2-570.2z"/>
			<path id="Path_4605" class="st3" d="M-183.2-570.2l-0.4-0.2h-0.1L-183.2-570.2L-183.2-570.2z"/>
			<path id="Path_4606" class="st3" d="M-183.3-570.2l-0.4-0.2l0,0L-183.3-570.2L-183.3-570.2z"/>
			<path id="Path_4607" class="st3" d="M-183.3-570.2l-0.4-0.2l0,0L-183.3-570.2z"/>
			<path id="Path_4608" class="st3" d="M-183.3-570.2l-0.4-0.2l0,0L-183.3-570.2L-183.3-570.2z"/>
			<path id="Path_4609" class="st3" d="M-183.4-570.2l-0.3-0.2h-0.1L-183.4-570.2z"/>
			<path id="Path_4610" class="st3" d="M-183.4-570.2l-0.4-0.2l0,0L-183.4-570.2L-183.4-570.2z"/>
			<path id="Path_4611" class="st3" d="M-183.4-570.2l-0.4-0.2h-0.1L-183.4-570.2L-183.4-570.2z"/>
			<path id="Path_4612" class="st3" d="M-183.5-570.2l-0.4-0.2l0,0L-183.5-570.2z"/>
			<path id="Path_4613" class="st3" d="M-183.5-570.2l-0.4-0.2l0,0L-183.5-570.2L-183.5-570.2z"/>
			<path id="Path_4614" class="st3" d="M-183.6-570.2l-0.3-0.2l0,0L-183.6-570.2z"/>
			<path id="Path_4615" class="st3" d="M-183.6-570.2l-0.3-0.2h-0.1L-183.6-570.2L-183.6-570.2z"/>
			<path id="Path_4616" class="st3" d="M-183.6-570.2l-0.4-0.2v0.1L-183.6-570.2z"/>
			<path id="Path_4617" class="st3" d="M-183.6-570.2l-0.4-0.2h-0.1L-183.6-570.2L-183.6-570.2z"/>
			<path id="Path_4618" class="st3" d="M-183.7-570.2l-0.4-0.2l0,0L-183.7-570.2L-183.7-570.2z"/>
			<path id="Path_4619" class="st3" d="M-183.7-570.2l-0.4-0.2l0,0L-183.7-570.2z"/>
			<path id="Path_4620" class="st3" d="M-183.7-570.2l-0.4-0.2h-0.1L-183.7-570.2L-183.7-570.2z"/>
			<path id="Path_4621" class="st3" d="M-183.8-570.2l-0.4-0.2l0,0L-183.8-570.2z"/>
			<path id="Path_4622" class="st3" d="M-183.8-570.2l-0.4-0.2l0,0L-183.8-570.2L-183.8-570.2z"/>
			<path id="Path_4623" class="st3" d="M-183.8-570.2l-0.4-0.2l0,0L-183.8-570.2z"/>
			<path id="Path_4624" class="st3" d="M-183.8-570.2l-0.4-0.2l0,0L-183.8-570.2z"/>
			<path id="Path_4625" class="st3" d="M-183.8-570.2l-0.4-0.2h-0.1L-183.8-570.2L-183.8-570.2z"/>
			<path id="Path_4626" class="st3" d="M-183.9-570.2l-0.4-0.2l0,0L-183.9-570.2z"/>
			<path id="Path_4627" class="st3" d="M-183.9-570.2l-0.4-0.2l0,0L-183.9-570.2L-183.9-570.2z"/>
			<path id="Path_4628" class="st3" d="M-183.9-570.2l-0.4-0.2l0,0L-183.9-570.2z"/>
			<path id="Path_4629" class="st3" d="M-183.9-570.2l-0.4-0.2l0,0L-183.9-570.2L-183.9-570.2z"/>
			<path id="Path_4630" class="st3" d="M-184-570.2l-0.3-0.2h-0.1L-184-570.2z"/>
			<path id="Path_4631" class="st3" d="M-184-570.2l-0.4-0.2l0,0L-184-570.2L-184-570.2z"/>
			<path id="Path_4632" class="st3" d="M-184.1-570.2l-0.3-0.2h-0.1L-184.1-570.2z"/>
			<path id="Path_4633" class="st3" d="M-184.1-570.2l-0.4-0.2l0,0L-184.1-570.2L-184.1-570.2z"/>
			<path id="Path_4634" class="st3" d="M-184.1-570.2l-0.4-0.2l0,0L-184.1-570.2z"/>
			<path id="Path_4635" class="st3" d="M-184.1-570.2l-0.4-0.2l0,0L-184.1-570.2z"/>
			<path id="Path_4636" class="st3" d="M-184.1-570.2l-0.4-0.2h-0.1L-184.1-570.2L-184.1-570.2z"/>
			<path id="Path_4637" class="st3" d="M-184.2-570.2l-0.4-0.2l0,0L-184.2-570.2z"/>
			<path id="Path_4638" class="st3" d="M-184.2-570.2l-0.4-0.2l0,0L-184.2-570.2L-184.2-570.2z"/>
			<path id="Path_4639" class="st3" d="M-184.2-570.2l-0.4-0.2l0,0L-184.2-570.2z"/>
			<path id="Path_4640" class="st3" d="M-184.2-570.2l-0.4-0.2l0,0L-184.2-570.2z"/>
			<path id="Path_4641" class="st3" d="M-184.2-570.2l-0.4-0.2h-0.1L-184.2-570.2L-184.2-570.2z"/>
			<path id="Path_4642" class="st3" d="M-184.3-570.2l-0.4-0.2l0,0L-184.3-570.2L-184.3-570.2z"/>
			<path id="Path_4643" class="st3" d="M-184.3-570.2l-0.4-0.2l0,0L-184.3-570.2z"/>
			<path id="Path_4644" class="st3" d="M-184.3-570.2l-0.4-0.2l-0.1-0.1L-184.3-570.2L-184.3-570.2z"/>
			<path id="Path_4645" class="st3" d="M-184.4-570.3l-0.4-0.2l0,0L-184.4-570.3z"/>
			<path id="Path_4646" class="st3" d="M-184.4-570.3l-0.4-0.2l0,0L-184.4-570.3L-184.4-570.3z"/>
			<path id="Path_4647" class="st3" d="M-184.5-570.3l-0.3-0.2l0,0L-184.5-570.3z"/>
			<path id="Path_4648" class="st3" d="M-184.5-570.3l-0.3-0.2l0,0L-184.5-570.3z"/>
			<path id="Path_4649" class="st3" d="M-184.5-570.3l-0.3-0.2h-0.1L-184.5-570.3L-184.5-570.3z"/>
			<path id="Path_4650" class="st3" d="M-184.5-570.3l-0.4-0.2l0,0L-184.5-570.3z"/>
			<path id="Path_4651" class="st3" d="M-184.5-570.3l-0.4-0.2h-0.1L-184.5-570.3L-184.5-570.3z"/>
			<path id="Path_4652" class="st3" d="M-184.6-570.3l-0.4-0.2l0,0L-184.6-570.3z"/>
			<path id="Path_4653" class="st3" d="M-184.6-570.3l-0.4-0.2l0,0L-184.6-570.3L-184.6-570.3z"/>
			<path id="Path_4654" class="st3" d="M-184.6-570.3l-0.4-0.2l0,0L-184.6-570.3z"/>
			<path id="Path_4655" class="st3" d="M-184.6-570.3l-0.4-0.2l0,0L-184.6-570.3z"/>
			<path id="Path_4656" class="st3" d="M-184.6-570.3l-0.4-0.2h-0.1L-184.6-570.3L-184.6-570.3z"/>
			<path id="Path_4657" class="st3" d="M-184.7-570.3l-0.4-0.2l0,0L-184.7-570.3z"/>
			<path id="Path_4658" class="st3" d="M-184.7-570.3l-0.4-0.2l0,0L-184.7-570.3z"/>
			<path id="Path_4659" class="st3" d="M-184.7-570.3l-0.4-0.2l0,0L-184.7-570.3L-184.7-570.3z"/>
			<path id="Path_4660" class="st3" d="M-184.7-570.3"/>
			<path id="Path_4661" class="st3" d="M-184.7-570.3l-0.4-0.2l-0.1-0.1L-184.7-570.3L-184.7-570.3z"/>
			<path id="Path_4662" class="st3" d="M-184.8-570.4l-0.4-0.2l0,0L-184.8-570.4L-184.8-570.4z"/>
			<path id="Path_4663" class="st3" d="M-184.8-570.4l-0.4-0.2l0,0L-184.8-570.4z"/>
			<path id="Path_4664" class="st3" d="M-184.8-570.4l-0.4-0.2l0,0L-184.8-570.4z"/>
			<path id="Path_4665" class="st3" d="M-184.8-570.4l-0.4-0.2h-0.1L-184.8-570.4L-184.8-570.4z"/>
			<path id="Path_4666" class="st3" d="M-184.9-570.4l-0.4-0.2v-0.1L-184.9-570.4L-184.9-570.4z"/>
			<path id="Path_4667" class="st3" d="M-184.9-570.4l-0.4-0.3l0,0L-184.9-570.4L-184.9-570.4z"/>
			<path id="Path_4668" class="st3" d="M-185-570.4l-0.3-0.3h-0.1L-185-570.4z"/>
			<path id="Path_4669" class="st3" d="M-185-570.4l-0.4-0.3l0,0L-185-570.4L-185-570.4z"/>
			<path id="Path_4670" class="st3" d="M-185-570.5l-0.4-0.2h-0.1L-185-570.5L-185-570.5z"/>
			<path id="Path_4671" class="st3" d="M-185.1-570.5l-0.4-0.2l0,0L-185.1-570.5L-185.1-570.5z"/>
			<path id="Path_4672" class="st3" d="M-185.1-570.5l-0.4-0.2v-0.1L-185.1-570.5z"/>
			<path id="Path_4673" class="st3" d="M-185.1-570.5l-0.4-0.3l0,0L-185.1-570.5L-185.1-570.5z"/>
			<path id="Path_4674" class="st3" d="M-185.2-570.5l-0.3-0.3l0,0L-185.2-570.5z"/>
			<path id="Path_4675" class="st3" d="M-186.3-572l-0.4-0.2l-3.4,8.8l0.4,0.2L-186.3-572z"/>
			<path id="Path_4676" class="st3" d="M-180.5-571.6l-0.4-0.2l3.9,5.6l0.4,0.2L-180.5-571.6z"/>
			<path id="Path_4677" class="st3" d="M-176.7-577.5l-0.3-0.2l-0.1,0.3l-0.1,0.3l-0.2,0.4l-0.1,0.3l-0.2,0.3l-0.2,0.3l-0.2,0.3
				l-0.2,0.3l0.5,0.5l0.2-0.3l0.2-0.3l0.1-0.4l0.2-0.4l0.1-0.4l0.1-0.3l0.2-0.3V-577.5z"/>
			<path id="Path_4678" class="st3" d="M-177.8-574.7l-0.4-0.2l0,0L-177.8-574.7L-177.8-574.7z"/>
			<path id="Path_4679" class="st3" d="M-177.9-574.7l-0.3-0.2l-0.3,0.5l-0.3,0.5l-0.3,0.3l-0.3,0.4l-0.3,0.4l-0.4,0.3l-0.4,0.4
				l-0.4,0.3l0.4,0.2l0.4-0.2l0.3-0.4l0.4-0.3l0.3-0.4l0.3-0.4l0.3-0.5l0.4-0.5L-177.9-574.7z"/>
		</g>
		<path id="Path_4680" class="st4" d="M-149.1-532.5l3.9,5.6l0.9-3.7c0.1-0.3,0.3-0.6,0.6-0.7l2.8-1l-1-1.4c0,0,0-0.1-0.1-0.1l0,0
			l-3.4-4.8c-0.3,1-0.7,1.9-1.2,2.8l0,0C-147.1-534.4-148-533.3-149.1-532.5z M-158.3-524.1C-158.3-524-158.4-524-158.3-524.1
			l-1.1,2.6l2.8-2.3c0.2-0.2,0.5-0.2,0.6,0.1l0.9,2.6l4-10.2h-2.5l-0.1-0.1h-0.2c-0.4-0.2-0.7-0.6-0.9-1l0,0
			c-0.1-0.1-0.1-0.1-0.1-0.2l0,0v-0.1l0,0v-0.1l0,0v0.1l0,0L-158.3-524.1z"/>
		<path id="Path_4681" class="st5" d="M-146-542.9l-0.6-0.3l-0.3-0.2l-0.4-0.1l-0.5-0.1h-0.4l-0.5,0.1l-0.5,0.1l-0.5,0.2l-0.5,0.3
			l-0.5,0.3l-0.5,0.4l-0.5,0.5l-0.5,0.5l-0.5,0.5l-0.4,0.5l-0.3,0.5l-0.3,0.6l-0.1,0.1l-0.2,0.3l-0.1,0.1l-0.2,0.4l-0.2,0.3
			l-0.1,0.3l-0.1,0.3l-0.2,0.2l-0.1,0.3l-0.1,0.3v0.6l-0.1,0.3l-0.1,0.3l-0.1,0.3l-0.1,0.3v1.7l0,0v0.1l0,0v0.1l0,0v0.1l0,0v0.1l0,0
			v0.1l0,0v0.1l0,0v0.1l0,0v0.1l0,0v0.1l0,0v0.1l0,0v0.1l0,0v0.1l0,0v0.1l0,0v0.1l0,0v0.1l0,0v0.1l0,0v0.1l0,0l0.1,0.2l0.1,0.2
			l0.1,0.1l0.1,0.1l0.1,0.1l0.1,0.1l0.1,0.1l0.1,0.1h0.1l0.6,0.3h-0.1l-0.1-0.1l0.2-0.6l-0.1-0.1l-0.1-0.1l-0.1-0.1l-0.1-0.1
			l-0.1-0.2l-0.1-0.2l0,0v-0.1l0,0v-0.1l0,0l0,0l0,0l0,0l0,0v-0.1l0,0v-0.1l0,0v-0.1l0,0v-0.1l0,0v-0.1l0,0v-0.1l0,0v-0.1l0,0v-0.1
			l0,0v-0.1l0,0v-0.1l0,0v-0.1l0,0v-0.1l0,0v-0.1l0,0v-0.1l0,0v-1.7l0.1-0.3l0.1-0.3l0.1-0.3l0.1-0.3l0.1-0.3l0.1-0.3l0.1-0.3
			l0.1-0.3l0.1-0.3l0.1-0.3l0.2-0.3l0.2-0.3l0.2-0.3l0.2-0.3l0.1-0.1l0.3-0.6l0.4-0.6l0.4-0.5l0.5-0.5l0.5-0.5l0.5-0.5l0.5-0.4
			l0.5-0.3l0.5-0.3l0.5-0.2l0.5-0.1l0.5-0.1h0.5l0.5,0.1l0.4,0.1L-146-542.9L-146-542.9z M-146-534.6L-146-534.6l-0.6-0.3l0,0
			L-146-534.6z M-152.5-530l-0.6-0.3l0,0L-152.5-530z M-153-530.2l-0.6-0.3l0,0L-153-530.2z M-155.2-532.8l0.6,0.3l0,0L-155.2-532.8
			z"/>
		<path id="Path_4682" class="st6" d="M-146-542.9c-1-0.6-2.2-0.5-3.7,0.3c-1.5,0.9-2.8,2.2-3.6,3.8l-0.1,0.1
			c-0.9,1.5-1.5,3.3-1.5,5.1c0,0.3,0,0.6,0.1,0.8v0.1l0,0v0.1l0,0v0.1l0,0v0.1l0,0v0.1l0,0v0.1l0,0v0.1l0,0v0.1l0,0v0.1l0,0v0.1l0,0
			v0.1l0,0v0.1l0,0v0.1l0,0v0.1l0,0v0.1l0,0v0.1l0,0v-0.5l0,0v0.1l0,0v0.1c0.1,0.1,0.1,0.1,0.1,0.2l0,0c0.2,0.4,0.5,0.7,0.9,1h0.1
			l0.1,0.1h3.3l0.1-0.1l0,0l0.1-0.1l0.1-0.1l0,0l0.1-0.1h0.3l0.1-0.1l0,0l0.1-0.1l0.1-0.1l0,0l0.1-0.1l0,0l0.1-0.1l0,0l0.1-0.1l0,0
			l0.1-0.1l0,0c1.1-0.9,2.1-2,2.8-3.3l0,0c0.6-1,1-2.1,1.3-3.2v0.1l0,0v-0.1l0,0v-0.1l0,0v-0.1l0,0c0-0.1,0.1-0.2,0.1-0.3l0,0v-0.3
			c0-0.3,0.1-0.6,0.1-0.9C-144.5-541.3-145.1-542.4-146-542.9z"/>
	</g>
</g>
<g id="Group_2424" transform="translate(-30 -973.512)">
	<g class="st7">
		<path class="st8" d="M76,1060.9h3.9l3.7,10.1h0.1l3.6-10.1h4v14.2h-2.5v-11.4h0l-4.3,11.4h-1.8l-4.2-11.4h0v11.4H76V1060.9z"/>
		<path class="st8" d="M97.8,1068.9l-5.3-8h3.1l3.6,6l3.6-6h2.9l-5.3,8v6.1h-2.5V1068.9z"/>
	</g>
	<g class="st7">
		<path class="st8" d="M38.9,1083c0-0.5,0.2-0.9,0.5-1.3c0.4-0.4,0.8-0.5,1.4-0.5c0.5,0,1,0.2,1.4,0.5s0.6,0.8,0.6,1.3
			s-0.2,0.9-0.6,1.3s-0.8,0.5-1.4,0.5c-0.6,0-1-0.2-1.4-0.5S38.9,1083.5,38.9,1083z M39.3,1086.4h3.1v17.7h-3.1V1086.4z"/>
		<path class="st8" d="M46.3,1086.4h6.1c0.8,0,1.6,0.1,2.4,0.3c0.8,0.2,1.5,0.5,2.1,0.9c0.6,0.4,1.1,0.9,1.5,1.6
			c0.4,0.7,0.5,1.4,0.5,2.4c0,1.3-0.4,2.3-1.1,3.1s-1.7,1.4-3,1.6l4.7,7.8h-3.8l-4.1-7.5h-2.3v7.5h-3.1V1086.4z M52,1094
			c0.5,0,0.9,0,1.4-0.1c0.5-0.1,0.9-0.2,1.2-0.4s0.7-0.4,0.9-0.8c0.2-0.3,0.4-0.8,0.4-1.3c0-0.5-0.1-0.9-0.3-1.2
			c-0.2-0.3-0.5-0.6-0.8-0.7c-0.3-0.2-0.7-0.3-1.1-0.4c-0.4-0.1-0.8-0.1-1.2-0.1h-2.9v5H52z"/>
		<path class="st8" d="M71.1,1090.1c-0.3-0.4-0.8-0.8-1.4-1.1c-0.6-0.3-1.2-0.4-1.8-0.4c-0.4,0-0.7,0-1.1,0.1
			c-0.4,0.1-0.7,0.2-1,0.4c-0.3,0.2-0.5,0.4-0.7,0.8c-0.2,0.3-0.3,0.7-0.3,1.1c0,0.4,0.1,0.7,0.2,1c0.2,0.3,0.4,0.5,0.7,0.7
			c0.3,0.2,0.6,0.4,1.1,0.5c0.4,0.2,0.9,0.3,1.4,0.5c0.6,0.2,1.2,0.4,1.8,0.6c0.6,0.2,1.2,0.5,1.7,0.9c0.5,0.4,0.9,0.9,1.2,1.5
			c0.3,0.6,0.5,1.3,0.5,2.2c0,1-0.2,1.8-0.5,2.5c-0.3,0.7-0.8,1.3-1.4,1.8c-0.6,0.5-1.3,0.8-2.1,1c-0.8,0.2-1.6,0.4-2.5,0.4
			c-1.2,0-2.3-0.2-3.4-0.6s-2-1.1-2.7-1.9l2.3-2.1c0.4,0.6,1,1.1,1.7,1.4c0.7,0.3,1.4,0.5,2.1,0.5c0.4,0,0.7,0,1.1-0.1
			c0.4-0.1,0.7-0.2,1-0.5c0.3-0.2,0.6-0.5,0.8-0.8s0.3-0.7,0.3-1.2c0-0.5-0.1-0.9-0.3-1.2c-0.2-0.3-0.5-0.6-0.9-0.8
			c-0.4-0.2-0.8-0.4-1.3-0.6c-0.5-0.2-1-0.3-1.6-0.5c-0.5-0.2-1.1-0.4-1.6-0.6c-0.5-0.2-1-0.5-1.4-0.9c-0.4-0.4-0.8-0.9-1-1.4
			s-0.4-1.3-0.4-2.1c0-0.9,0.2-1.7,0.6-2.3c0.4-0.6,0.9-1.2,1.5-1.6c0.6-0.4,1.3-0.7,2.1-1c0.8-0.2,1.6-0.3,2.4-0.3
			c0.9,0,1.8,0.2,2.7,0.5c0.9,0.3,1.7,0.8,2.4,1.4L71.1,1090.1z"/>
		<path class="st8" d="M81.9,1086.4h2.7l7.6,17.7h-3.6l-1.7-4h-7.7l-1.6,4h-3.5L81.9,1086.4z M85.9,1097.3l-2.7-7.2l-2.8,7.2H85.9z"
			/>
		<path class="st8" d="M94,1086.4h3.1v14.9h7.5v2.8H94V1086.4z"/>
		<path class="st8" d="M106.4,1083c0-0.5,0.2-0.9,0.5-1.3c0.4-0.4,0.8-0.5,1.4-0.5c0.6,0,1,0.2,1.4,0.5s0.6,0.8,0.6,1.3
			s-0.2,0.9-0.6,1.3s-0.8,0.5-1.4,0.5c-0.5,0-1-0.2-1.4-0.5S106.4,1083.5,106.4,1083z M106.8,1086.4h3.1v17.7h-3.1V1086.4z"/>
		<path class="st8" d="M118.1,1096.4l-6.6-10h3.8l4.5,7.5l4.5-7.5h3.7l-6.7,10v7.7h-3.2V1096.4z"/>
		<path class="st8" d="M129.4,1086.4h11.7v2.8h-8.6v4.5h8.1v2.7h-8.1v5h9v2.8h-12.2V1086.4z"/>
	</g>
</g>
</svg>
