<?xml version="1.0" encoding="utf-8"?>
<!-- Generator: Adobe Illustrator 22.1.0, SVG Export Plug-In . SVG Version: 6.00 Build 0)  -->
<svg version="1.1" id="Layer_1" xmlns="http://www.w3.org/2000/svg" xmlns:xlink="http://www.w3.org/1999/xlink" x="0px" y="0px"
	 viewBox="0 0 100 100" style="enable-background:new 0 0 100 100;" xml:space="preserve">
<style type="text/css">
	.st0{opacity:3.000000e-03;fill:#040507;enable-background:new    ;}
	.st1{opacity:7.000000e-03;fill:#080A0D;enable-background:new    ;}
	.st2{opacity:1.000000e-02;fill:#0B0E14;enable-background:new    ;}
	.st3{opacity:1.300000e-02;fill:#0F131B;enable-background:new    ;}
	.st4{opacity:1.700000e-02;fill:#131822;enable-background:new    ;}
	.st5{opacity:2.000000e-02;fill:#171D29;enable-background:new    ;}
	.st6{opacity:2.300000e-02;fill:#1B2230;enable-background:new    ;}
	.st7{opacity:2.700000e-02;fill:#1F2737;enable-background:new    ;}
	.st8{opacity:3.000000e-02;fill:#232C3F;enable-background:new    ;}
	.st9{opacity:3.300000e-02;fill:#273246;enable-background:new    ;}
	.st10{opacity:3.700000e-02;fill:#2B374D;enable-background:new    ;}
	.st11{opacity:4.000000e-02;fill:#2F3C54;enable-background:new    ;}
	.st12{opacity:4.300000e-02;fill:#34415C;enable-background:new    ;}
	.st13{opacity:4.700000e-02;fill:#384763;enable-background:new    ;}
	.st14{fill:#34485C;}
	.st15{fill:#3D566E;}
	.st16{fill:#9DD6F5;}
	.st17{fill:#E6EAEB;}
	.st18{fill:#415A73;}
	.st19{fill:#2C3E50;}
	.st20{fill:#BDBDBD;}
	.st21{fill:#676775;}
	.st22{fill:#9C9C9C;}
</style>
<g id="Group_2427" transform="translate(41.412 -837.574)">
	<g id="Group_2416" transform="translate(902 1340)">
		<g id="Group_2414" transform="translate(0 69.73)">
			<path id="Path_4759" class="st0" d="M-870-510.3c12.9,7.4,12.9,19.5,0,27c-12.9,7.5-33.8,7.4-46.7,0c-12.9-7.4-12.9-19.5,0-27
				C-903.9-517.6-882.9-517.6-870-510.3z"/>
			<path id="Path_4760" class="st1" d="M-871.7-509.2c12,6.9,12,18.2,0,25.2c-12,7-31.6,6.9-43.6,0s-12-18.2,0-25.2
				C-903.3-516.2-883.7-516.2-871.7-509.2z"/>
			<path id="Path_4761" class="st2" d="M-873.2-508.4c11.2,6.4,11.2,16.9,0,23.4c-11.2,6.4-29.3,6.4-40.5,0
				c-11.2-6.4-11.2-16.9,0-23.4C-902.5-514.9-884.3-514.8-873.2-508.4z"/>
			<path id="Path_4762" class="st3" d="M-874.7-507.4c10.3,5.9,10.3,15.6,0,21.5c-10.3,5.9-27.1,5.9-37.3,0s-10.3-15.6,0-21.5
				C-901.7-513.4-885.1-513.4-874.7-507.4z"/>
			<ellipse id="Ellipse_60" class="st4" cx="-893.5" cy="-496.7" rx="24.2" ry="13.9"/>
			<path id="Path_4763" class="st5" d="M-877.8-505.7c8.6,5,8.6,13,0,17.9c-8.6,5-22.6,5-31.1,0c-8.6-5-8.6-13,0-17.9
				C-900.4-510.6-886.5-510.6-877.8-505.7z"/>
			<path id="Path_4764" class="st6" d="M-879.4-504.7c7.8,4.4,7.8,11.7,0,16.1c-7.8,4.4-20.2,4.4-27.9,0s-7.8-11.7,0-16.1
				C-899.6-509.1-887.1-509.2-879.4-504.7z"/>
			<path id="Path_4765" class="st7" d="M-881-503.8c6.8,3.9,6.8,10.4,0,14.4s-17.9,3.9-24.9,0c-6.9-3.9-6.8-10.4,0-14.4
				C-899-507.8-887.9-507.8-881-503.8z"/>
			<path id="Path_4766" class="st8" d="M-882.6-503c6,3.4,6,9.1,0,12.5s-15.7,3.4-21.6,0s-6-9.1,0-12.5S-888.6-506.4-882.6-503z"/>
			<path id="Path_4767" class="st9" d="M-884.1-502.1c5.1,3,5.1,7.8,0,10.8s-13.4,3-18.5,0s-5.1-7.8,0-10.8S-889.3-505-884.1-502.1z
				"/>
			<path id="Path_4768" class="st10" d="M-885.7-501.1c4.3,2.4,4.3,6.4,0,8.9c-4.3,2.4-11.2,2.4-15.5,0s-4.3-6.4,0-8.9
				S-890-503.6-885.7-501.1z"/>
			<path id="Path_4769" class="st11" d="M-887.3-500.3c3.3,2,3.3,5.1,0,7.1c-3.3,2-8.9,2-12.3,0s-3.3-5.1,0-7.1
				C-896.2-502.1-890.6-502.1-887.3-500.3z"/>
			<path id="Path_4770" class="st12" d="M-888.8-499.3c2.6,1.5,2.6,3.8,0,5.3c-2.8,1.5-6.3,1.5-9.1,0c-2.6-1.5-2.6-3.8,0-5.3
				C-895.1-500.8-891.7-500.8-888.8-499.3z"/>
			<path id="Path_4771" class="st13" d="M-890.5-498.4c1.7,0.9,1.7,2.5,0,3.5c-1.9,0.9-4.2,0.9-6,0c-1.7-0.9-1.7-2.5,0-3.5
				C-894.5-499.4-892.3-499.4-890.5-498.4z"/>
		</g>
		<path id="Path_4772" class="st14" d="M-922.3-449.5l-0.8-0.8h-0.1v-0.1l-0.1-0.1v-0.2v-0.1v-0.2v-0.2v-0.2v-23.2v-0.2v-0.2v-0.2
			v-0.2v-0.2l0.1-0.2l0,0l0.1-0.2l0.1-0.2l0.1-0.2l0.1-0.2l0.1-0.2l0.1-0.2l0.1-0.2l0.1-0.2l0.1-0.2l0.1-0.2l0.1-0.2l0.1-0.1
			l0.1-0.2l0.1-0.2l0.1-0.2l0.1-0.1l0.2-0.1l0.1-0.2l0.2-0.1l0.3-0.1l0.1-0.1l0.2-0.1l0.2-0.1l31.7-18l0.2-0.1h0.1l0.2-0.1h0.1h0.2
			h0.1h0.1h0.1h0.3h0.1h0.1h0.1l0.1,0.1h0.1l0.8,0.8l-0.1-0.1h-0.1h-0.1h-0.1h-0.5h-0.1h-0.2h-0.1h-0.2l-0.1,0.1h-0.2v0.1l-32,18.5
			l-0.1,0.1l-0.2,0.1l-0.1,0.1l-0.1,0.1l-0.2,0.1l-0.2,0.1l-0.1,0.2l-0.1,0.1l-0.2,0.3l-0.1,0.1h0.1l-0.1,0.2l-0.1,0.2l-0.1,0.2
			l-0.2,0.1l-0.1,0.2v0.1l-0.1,0.2l-0.1,0.2l-0.2,0.2h-0.1v0.2v0.2l-0.1,0.2v0.2v0.2v0.2v0.2l0,0v0.4v22.7v0.2v0.2v0.1v0.2v0.2l0,0
			v0.1L-922.3-449.5L-922.3-449.5L-922.3-449.5z"/>
		<path id="Path_4773" class="st15" d="M-920.3-477.5l32-18.5c1.3-0.8,2.4-0.2,2.4,1.4v22.7c-0.1,1.7-0.9,3.2-2.4,4.1l-32,18.5
			c-1.3,0.8-2.4,0.2-2.4-1.4v-22.8C-922.5-475-921.6-476.5-920.3-477.5z"/>
		<path id="Path_4774" class="st16" d="M-920-475.7l8.4-4.9l23.3-13.4c0.6-0.3,1.1-0.1,1.1,0.7v22.1c0,0.8-0.4,1.5-1.1,1.9
			l-26.3,15.2l-5.4,3.2c-0.6,0.3-1.1,0.1-1.1-0.6v-22.3C-921.1-474.5-920.7-475.3-920-475.7z"/>
		<path id="Path_4775" class="st17" d="M-877.1-448.2l-9.5,5.4v-0.5l9.5-5.4V-448.2z"/>
		<path id="Path_4776" class="st18" d="M-863.9-454.1v1.8v0.1v0.1v0.1l-0.1,0.1l-0.1,0.1l-0.1,0.1l-0.1,0.3v-0.1l-0.1,0.1l-0.1,0.1
			l-0.1,0.1l-0.2,0.1l-0.2,0.1l-32.1,18.5l-0.2,0.1l-0.2,0.1l-0.2,0.1h-0.1l-0.2,0.1h-0.2l-0.2,0.1h-0.2h-0.2l0,0h-0.2h-0.2h-0.2
			h-0.9h-0.2h-0.2h-0.2h-0.2h-0.2h-0.2h-0.3h-0.2l-0.2-0.1l-0.2-0.1h-0.2l-0.2-0.2l-0.1-0.1l-19.3-11.4l-0.1-0.1l-0.2-0.1l-0.1-0.1
			l-0.2-0.1l-0.1-0.1l-0.1-0.1l-0.1-0.1l-0.1-0.1l0,0l-0.1-0.1v-0.1v-0.1v-0.1v-1.8v0.1v0.1v0.1l0,0v0.1l0.1,0.1l0.1,0.1l0.1,0.1
			l0.1,0.1l0.1,0.1l0.1,0.1l0.2,0.1l0.3,0.2l19.7,11.3l0.2,0.1l0.2,0.1l0.2,0.1h0.2l0.2,0.1h0.2l0.2,0.1h0.2h0.2h0.2h-0.2h0.2h0.2
			h0.9h0.2h0.2h0.2h0.2h0.2h0.2l0.2-0.1h0.2l0.2-0.1h0.2l0.2-0.1l0.2-0.1l0.2-0.1l32.1-18.5l0.2-0.1l0.2-0.1l0.1-0.1l0.1-0.1
			l0.1-0.1l0.1-0.1l0.1-0.1l0.1-0.1l0.1-0.1l0.1-0.1v-0.1v-0.1L-863.9-454.1z"/>
		<path id="Path_4777" class="st14" d="M-921.4-448.6l32.2-18.5c1.5-0.8,3.3-0.8,4.8,0l19.7,11.4c1.3,0.8,1.3,2,0,2.8l-32.3,18.5
			c-1.5,0.8-3.3,0.8-4.8,0l-19.6-11.4C-922.8-446.6-922.8-447.8-921.4-448.6z"/>
		<path id="Path_4778" class="st18" d="M-886.9-442.1l8.8-5.1l-6.7-3.8l-8.8,5L-886.9-442.1z"/>
		<path id="Path_4779" class="st15" d="M-917.4-448l2.6-1.5l3.8-2.2l4-2.3l2-1.2c0,0,0.1,0,0.1-0.1l2.6-1.5l3.8-2.2l4-2.3l5.2-3
			l1.2-0.7c0.8-0.4,1.8-0.4,2.6,0l9.9,5.8c0.8,0.4,0.8,1.1,0,1.5l-12.4,7.2v0.1l-16.7,9.7c-0.8,0.4-1.8,0.4-2.6,0l-9.9-5.8
			C-918.1-446.9-918.1-447.6-917.4-448z"/>
		<g id="Group_2415" transform="translate(15.111 46.226)">
			<path id="Path_4780" class="st19" d="M-919.7-495.6l1.5-0.8c0.3-0.2,0.8-0.2,1.1,0l1.5,0.8c0.2,0.1,0.3,0.3,0.3,0.4
				c0,0.1-0.1,0.2-0.3,0.3l-1.5,0.8c-0.3,0.2-0.8,0.2-1.1,0l-1.5-0.8c-0.2-0.1-0.3-0.3-0.3-0.4
				C-919.8-495.4-919.7-495.5-919.7-495.6z"/>
			<path id="Path_4781" class="st19" d="M-925.3-492.3l-1.5,0.8c-0.2,0.1-0.3,0.3-0.3,0.4c0,0.1,0.1,0.2,0.3,0.3l1.5,0.8
				c0.3,0.2,0.8,0.2,1.1,0l1.5-0.8c0.2-0.1,0.3-0.3,0.3-0.4c0-0.1-0.1-0.2-0.3-0.3l-1.5-0.8C-924.6-492.4-925-492.4-925.3-492.3z"/>
			<path id="Path_4782" class="st19" d="M-921.7-490.3l-1.5,0.8c-0.2,0.1-0.3,0.3-0.3,0.4c0,0.1,0.1,0.2,0.3,0.3l1.5,0.8
				c0.3,0.2,0.8,0.2,1.1,0l1.5-0.8c0.2-0.1,0.3-0.3,0.3-0.4c0-0.1-0.1-0.2-0.3-0.3l-1.5-0.8C-921-490.4-921.5-490.4-921.7-490.3z"/>
			<path id="Path_4783" class="st19" d="M-924.3-494.1l1.5-0.8c0.2-0.1,0.3-0.3,0.3-0.4c0-0.1-0.1-0.2-0.3-0.3l-1.5-0.8
				c-0.3-0.2-0.8-0.2-1.1,0l-1.5,0.8c-0.2,0.1-0.3,0.3-0.3,0.4c0,0.1,0.1,0.2,0.3,0.3l1.5,0.8C-925-493.9-924.6-493.9-924.3-494.1z"
				/>
			<path id="Path_4784" class="st19" d="M-920.8-496.1l1.5-0.8c0.2-0.1,0.3-0.3,0.3-0.4c0-0.1-0.1-0.2-0.3-0.3l-1.5-0.8
				c-0.3-0.2-0.8-0.2-1.1,0l-1.4,0.8c-0.2,0.1-0.3,0.3-0.3,0.4c0,0.1,0.1,0.2,0.3,0.3l1.5,0.8C-921.5-496-921-496-920.8-496.1z"/>
			<path id="Path_4785" class="st19" d="M-926.3-492.9l-1.5,0.8c-0.3,0.2-0.8,0.2-1.1,0l-1.5-0.8c-0.2-0.1-0.3-0.3-0.3-0.4
				c0-0.1,0.1-0.2,0.3-0.3l1.5-0.8c0.3-0.2,0.8-0.2,1.1,0l1.5,0.8C-926.1-493.3-926.1-493.1-926.3-492.9z"/>
			<path id="Path_4786" class="st19" d="M-923.2-493.5l1.5-0.8c0.3-0.2,0.8-0.2,1.1,0l1.5,0.8c0.2,0.1,0.3,0.3,0.3,0.4
				c0,0.1-0.1,0.2-0.3,0.3l-1.5,0.8c-0.3,0.2-0.8,0.2-1.1,0l-1.5-0.8C-923.5-493.1-923.5-493.3-923.2-493.5z"/>
			<path id="Path_4787" class="st19" d="M-912.7-499.7l1.5-0.8c0.3-0.2,0.8-0.2,1.1,0l1.5,0.8c0.2,0.1,0.3,0.3,0.3,0.4
				c0,0.1-0.1,0.2-0.3,0.3l-1.5,0.8c-0.3,0.2-0.8,0.2-1.1,0l-1.5-0.8c-0.2-0.1-0.3-0.3-0.3-0.4
				C-912.7-499.5-912.7-499.6-912.7-499.7z"/>
			<path id="Path_4788" class="st19" d="M-909.1-497.6l1.5-0.8c0.3-0.2,0.8-0.2,1.1,0l1.5,0.8c0.2,0.1,0.3,0.3,0.3,0.4
				c0,0.1-0.1,0.2-0.3,0.3l-1.5,0.8c-0.3,0.2-0.8,0.2-1.1,0l-1.5-0.8C-909.3-497.2-909.3-497.4-909.1-497.6z"/>
			<path id="Path_4789" class="st19" d="M-917.2-498.2l1.5-0.8c0.2-0.1,0.3-0.3,0.3-0.4c0-0.1-0.1-0.2-0.3-0.3l-1.5-0.8
				c-0.3-0.2-0.8-0.2-1.1,0l-1.5,0.8c-0.2,0.1-0.3,0.3-0.3,0.4c0,0.1,0.1,0.2,0.3,0.3l1.5,0.8C-917.9-498-917.5-498-917.2-498.2z"/>
			<path id="Path_4790" class="st19" d="M-913.7-500.2l1.5-0.8c0.2-0.1,0.3-0.3,0.3-0.4c0-0.1-0.1-0.2-0.3-0.3l-1.5-0.8
				c-0.3-0.2-0.8-0.2-1.1,0l-1.5,0.8c-0.2,0.1-0.3,0.3-0.3,0.4c0,0.1,0.1,0.2,0.3,0.3l1.5,0.8C-914.4-500-914-500-913.7-500.2z"/>
			<path id="Path_4791" class="st19" d="M-916.2-497.6l1.5-0.8c0.3-0.2,0.8-0.2,1.1,0l1.5,0.8c0.2,0.1,0.3,0.3,0.3,0.4
				c0,0.1-0.1,0.2-0.3,0.3l-1.5,0.8c-0.3,0.2-0.8,0.2-1.1,0l-1.5-0.8C-916.4-497.2-916.4-497.4-916.2-497.6z"/>
			<path id="Path_4792" class="st19" d="M-919.7-491.5l8.5-4.9c0.3-0.2,0.8-0.2,1.1,0l1.5,0.8c0.2,0.1,0.3,0.3,0.3,0.4
				c0,0.1-0.1,0.2-0.3,0.3l-8.5,4.9c-0.3,0.2-0.8,0.2-1.1,0l-1.5-0.8c-0.2-0.1-0.3-0.3-0.3-0.4
				C-919.8-491.3-919.7-491.4-919.7-491.5z"/>
			<path id="Path_4793" class="st19" d="M-900.9-506.5l1.5-0.8c0.3-0.2,0.8-0.2,1.1,0l1.5,0.8c0.2,0.1,0.3,0.3,0.3,0.4
				c0,0.1-0.1,0.2-0.3,0.3l-1.5,0.8c-0.3,0.2-0.8,0.2-1.1,0l-1.5-0.8c-0.2-0.1-0.3-0.3-0.2-0.4C-901-506.3-901-506.4-900.9-506.5z"
				/>
			<path id="Path_4794" class="st19" d="M-897.3-504.3l1.5-0.8c0.3-0.2,0.8-0.2,1.1,0l1.5,0.8c0.2,0.1,0.3,0.3,0.3,0.4
				c0,0.1-0.1,0.2-0.3,0.3l-1.5,0.8c-0.3,0.2-0.8,0.2-1.1,0l-1.5-0.8C-897.5-504-897.5-504.2-897.3-504.3z"/>
			<path id="Path_4795" class="st19" d="M-901.9-507l1.5-0.9c0.2-0.1,0.3-0.3,0.3-0.4c0-0.1-0.1-0.2-0.3-0.3l-1.5-0.8
				c-0.3-0.2-0.8-0.2-1.1,0l-1.5,0.8c-0.2,0.1-0.3,0.3-0.3,0.4c0,0.1,0.1,0.2,0.3,0.3l1.5,0.9C-902.7-506.8-902.2-506.8-901.9-507z"
				/>
			<path id="Path_4796" class="st19" d="M-904.4-504.3l1.5-0.8c0.3-0.2,0.8-0.2,1.1,0l1.5,0.8c0.2,0.1,0.3,0.3,0.3,0.4
				c0,0.1-0.1,0.2-0.3,0.3l-1.5,0.8c-0.3,0.2-0.8,0.2-1.1,0l-1.5-0.8C-904.6-504-904.6-504.2-904.4-504.3z"/>
			<path id="Path_4797" class="st19" d="M-900.9-502.4l1.5-0.8c0.3-0.2,0.8-0.2,1.1,0l1.5,0.8c0.2,0.1,0.3,0.3,0.3,0.4
				c0,0.1-0.1,0.2-0.3,0.3l-1.5,0.8c-0.3,0.2-0.8,0.2-1.1,0l-1.5-0.8c-0.2,0-0.3-0.2-0.3-0.3C-901.1-502.2-901-502.4-900.9-502.4z"
				/>
			<path id="Path_4798" class="st19" d="M-909-503l1.5-0.8c0.2-0.1,0.3-0.3,0.3-0.4c0-0.1-0.1-0.2-0.3-0.3l-1.5-0.8
				c-0.3-0.2-0.8-0.2-1.1,0l-1.5,0.8c-0.2,0.1-0.3,0.3-0.3,0.4c0,0.1,0.1,0.2,0.3,0.3l1.5,0.8C-909.7-502.8-909.3-502.8-909-503z"/>
			<path id="Path_4799" class="st19" d="M-905.4-504.9l1.5-0.8c0.2-0.1,0.3-0.3,0.3-0.4c0-0.1-0.1-0.2-0.3-0.3l-1.5-0.8
				c-0.3-0.2-0.8-0.2-1.1,0l-1.5,0.8c-0.2,0.1-0.3,0.3-0.3,0.4c0,0.1,0.1,0.2,0.3,0.3l1.5,0.8C-906.1-504.9-905.7-504.9-905.4-504.9
				z"/>
			<path id="Path_4800" class="st19" d="M-908-502.4l1.5-0.8c0.3-0.2,0.8-0.2,1.1,0l1.5,0.8c0.2,0.1,0.3,0.3,0.3,0.4
				c0,0.1-0.1,0.2-0.3,0.3l-1.5,0.8c-0.3,0.2-0.8,0.2-1.1,0l-1.5-0.8c-0.2-0.1-0.3-0.3-0.3-0.4C-908-502.2-908-502.3-908-502.4z"/>
			<path id="Path_4801" class="st19" d="M-904.4-500.3l1.5-0.8c0.3-0.2,0.8-0.2,1.1,0l1.5,0.8c0.2,0.1,0.3,0.3,0.3,0.4
				c0,0.1-0.1,0.2-0.3,0.3l-1.5,0.8c-0.3,0.2-0.8,0.2-1.1,0l-1.5-0.8C-904.6-499.9-904.6-500.1-904.4-500.3z"/>
		</g>
		<path id="Path_4802" class="st17" d="M-904.6-449.6l1.5-0.8c0.3-0.2,0.8-0.2,1.1,0l1.5,0.8c0.2,0.1,0.3,0.3,0.3,0.4
			c0,0.1-0.1,0.2-0.3,0.3l-1.5,0.8c-0.3,0.2-0.8,0.2-1.1,0l-1.5-0.8C-904.9-449.2-904.9-449.3-904.6-449.6z"/>
		<path id="Path_4803" class="st17" d="M-910.2-446.3l-1.4,0.8c-0.2,0.1-0.3,0.3-0.3,0.4c0,0.1,0.1,0.2,0.3,0.3l1.5,0.8
			c0.3,0.2,0.8,0.2,1.1,0l1.5-0.8c0.2-0.1,0.3-0.3,0.3-0.4c0-0.1-0.1-0.2-0.3-0.3l-1.5-0.8C-909.5-446.5-909.9-446.5-910.2-446.3z"
			/>
		<path id="Path_4804" class="st17" d="M-906.7-444.2l-1.5,0.8c-0.2,0.1-0.3,0.3-0.3,0.4c0,0.1,0.1,0.2,0.3,0.3l1.5,0.8
			c0.3,0.2,0.8,0.2,1.1,0l1.5-0.8c0.2-0.1,0.3-0.3,0.3-0.4c0-0.1-0.1-0.2-0.3-0.3l-1.5-0.8C-906-444.5-906.4-444.5-906.7-444.2z"/>
		<path id="Path_4805" class="st17" d="M-909.2-448.2l1.5-0.8c0.2-0.1,0.3-0.3,0.3-0.4c0-0.1-0.1-0.2-0.3-0.3l-1.5-0.8
			c-0.3-0.2-0.8-0.2-1.1,0l-1.5,0.8c-0.2,0.1-0.3,0.3-0.3,0.4c0,0.1,0.1,0.2,0.3,0.3l1.5,0.8C-909.9-448-909.5-448-909.2-448.2z"/>
		<path id="Path_4806" class="st17" d="M-905.6-450.1l1.5-0.8c0.2-0.1,0.3-0.3,0.3-0.4c0-0.1-0.1-0.2-0.3-0.3l-1.5-0.9
			c-0.3-0.2-0.8-0.2-1.1,0l-1.4,0.8c-0.2,0.1-0.3,0.3-0.3,0.4c0,0.1,0.1,0.2,0.3,0.3l1.5,0.8C-906.4-450-905.9-450-905.6-450.1z"/>
		<path id="Path_4807" class="st17" d="M-911.2-446.9l-1.5,0.8c-0.3,0.2-0.8,0.2-1.1,0l-1.5-0.8c-0.2-0.1-0.3-0.3-0.3-0.4
			c0-0.1,0.1-0.2,0.3-0.3l1.5-0.8c0.3-0.2,0.8-0.2,1.1,0l1.5,0.8c0.2,0.1,0.3,0.3,0.3,0.4C-911.1-447-911.2-447-911.2-446.9z"/>
		<path id="Path_4808" class="st17" d="M-908.1-447.6l1.5-0.8c0.3-0.2,0.8-0.2,1.1,0l1.5,0.8c0.2,0.1,0.3,0.3,0.3,0.4
			c0,0.1-0.1,0.2-0.3,0.3l-1.5,0.8c-0.3,0.2-0.8,0.2-1.1,0l-1.5-0.8c-0.2-0.1-0.3-0.3-0.3-0.4C-908.3-447.4-908.2-447.5-908.1-447.6
			z"/>
		<path id="Path_4809" class="st17" d="M-897.6-453.7l1.5-0.8c0.3-0.2,0.8-0.2,1.1,0l1.5,0.8c0.2,0.1,0.3,0.3,0.3,0.4
			c0,0.1-0.1,0.2-0.3,0.3l-1.5,0.9c-0.3,0.2-0.8,0.2-1.1,0l-1.5-0.9C-897.8-453.2-897.8-453.4-897.6-453.7z"/>
		<path id="Path_4810" class="st17" d="M-894-451.7l1.5-0.8c0.3-0.2,0.8-0.2,1.1,0l1.5,0.8c0.2,0.1,0.3,0.3,0.3,0.4
			c0,0.1-0.1,0.2-0.3,0.3l-1.5,0.8c-0.3,0.2-0.8,0.2-1.1,0l-1.5-0.8c-0.2-0.1-0.3-0.3-0.3-0.4C-894.1-451.5-894.1-451.6-894-451.7z"
			/>
		<path id="Path_4811" class="st17" d="M-902.1-452.2l1.5-0.8c0.2-0.1,0.3-0.3,0.3-0.4c0-0.1-0.1-0.2-0.3-0.3l-1.5-0.8
			c-0.3-0.2-0.8-0.2-1.1,0l-1.5,0.8c-0.2,0.1-0.3,0.3-0.3,0.4c0,0.1,0.1,0.2,0.3,0.3l1.5,0.8C-902.9-452.1-902.4-452.1-902.1-452.2z
			"/>
		<path id="Path_4812" class="st17" d="M-898.6-454.2l1.5-0.8c0.2-0.1,0.3-0.3,0.3-0.4c0-0.1-0.1-0.2-0.3-0.3l-1.5-0.8
			c-0.3-0.2-0.8-0.2-1.1,0l-1.5,0.8c-0.2,0.1-0.3,0.3-0.3,0.4c0,0.1,0.1,0.2,0.3,0.3l1.5,0.8C-899.3-454.1-898.9-454.1-898.6-454.2z
			"/>
		<path id="Path_4813" class="st17" d="M-901.1-451.7l1.5-0.8c0.3-0.2,0.8-0.2,1.1,0l1.5,0.8c0.2,0.1,0.3,0.3,0.3,0.4
			c0,0.1-0.1,0.2-0.3,0.3l-1.5,0.8c-0.3,0.2-0.8,0.2-1.1,0l-1.5-0.8c-0.2-0.1-0.3-0.3-0.3-0.4C-901.2-451.5-901.1-451.6-901.1-451.7
			z"/>
		<path id="Path_4814" class="st17" d="M-904.6-445.5l8.5-4.9c0.3-0.2,0.8-0.2,1.1,0l1.5,0.8c0.2,0.1,0.3,0.3,0.3,0.4
			c0,0.1-0.1,0.2-0.3,0.3l-8.5,4.9c-0.3,0.2-0.8,0.2-1.1,0l-1.5-0.8C-904.9-445.1-904.9-445.2-904.6-445.5z"/>
		<path id="Path_4815" class="st17" d="M-885.8-460.5l1.5-0.8c0.3-0.2,0.8-0.2,1.1,0l1.5,0.8c0.2,0.1,0.3,0.3,0.3,0.4
			c0,0.1-0.1,0.2-0.3,0.3l-1.5,0.8c-0.3,0.2-0.8,0.2-1.1,0l-1.5-0.8C-886-460-886-460.3-885.8-460.5z"/>
		<path id="Path_4816" class="st17" d="M-882.3-458.4l1.5-0.8c0.3-0.2,0.8-0.2,1.1,0l1.5,0.8c0.2,0.1,0.3,0.3,0.3,0.4
			c0,0.1-0.1,0.2-0.3,0.3l-1.5,0.8c-0.3,0.2-0.8,0.2-1.1,0l-1.5-0.8c-0.2-0.1-0.3-0.3-0.3-0.4C-882.4-458.2-882.4-458.3-882.3-458.4
			z"/>
		<path id="Path_4817" class="st17" d="M-886.9-461.1l1.5-0.8c0.2-0.1,0.3-0.3,0.3-0.4c0-0.1-0.1-0.2-0.3-0.3l-1.5-0.8
			c-0.3-0.2-0.8-0.2-1.1,0l-1.5,0.8c-0.2,0.1-0.3,0.3-0.3,0.4c0,0.1,0.1,0.2,0.3,0.3l1.5,0.8C-887.6-460.9-887.1-460.9-886.9-461.1z
			"/>
		<path id="Path_4818" class="st17" d="M-889.4-458.4l1.5-0.8c0.3-0.2,0.8-0.2,1.1,0l1.5,0.8c0.2,0.1,0.3,0.3,0.3,0.4
			c0,0.1-0.1,0.2-0.3,0.3l-1.5,0.8c-0.3,0.2-0.8,0.2-1.1,0l-1.5-0.8c-0.2-0.1-0.3-0.3-0.3-0.4C-889.4-458.2-889.4-458.3-889.4-458.4
			z"/>
		<path id="Path_4819" class="st17" d="M-885.8-456.4l1.5-0.8c0.3-0.2,0.8-0.2,1.1,0l1.5,0.8c0.2,0.1,0.3,0.3,0.3,0.4
			c0,0.1-0.1,0.2-0.3,0.3l-1.5,0.8c-0.3,0.2-0.8,0.2-1.1,0l-1.5-0.8C-886-455.9-886-456.2-885.8-456.4z"/>
		<path id="Path_4820" class="st17" d="M-893.9-457l1.5-0.8c0.2-0.1,0.3-0.3,0.3-0.4c0-0.1-0.1-0.2-0.3-0.3l-1.5-0.9
			c-0.3-0.2-0.8-0.2-1.1,0l-1.5,0.9c-0.2,0.1-0.3,0.3-0.3,0.4c0,0.1,0.1,0.2,0.3,0.3l1.5,0.8C-894.6-456.8-894.2-456.8-893.9-457z"
			/>
		<path id="Path_4821" class="st17" d="M-890.4-459l1.5-0.8c0.2-0.1,0.3-0.3,0.3-0.4c0-0.1-0.1-0.2-0.3-0.3l-1.5-0.8
			c-0.3-0.2-0.8-0.2-1.1,0l-1.4,0.8c-0.2,0.1-0.3,0.3-0.3,0.4c0,0.1,0.1,0.2,0.3,0.3l1.5,0.8C-891.1-458.8-890.6-458.8-890.4-459z"
			/>
		<path id="Path_4822" class="st17" d="M-892.9-456.4l1.5-0.8c0.3-0.2,0.8-0.2,1.1,0l1.5,0.8c0.2,0.1,0.3,0.3,0.3,0.4
			c0,0.1-0.1,0.2-0.3,0.3l-1.5,0.8c-0.3,0.2-0.8,0.2-1.1,0l-1.5-0.8C-893.1-455.9-893.1-456.2-892.9-456.4z"/>
		<path id="Path_4823" class="st17" d="M-889.4-454.3l1.5-0.8c0.3-0.2,0.8-0.2,1.1,0l1.5,0.8c0.2,0.1,0.3,0.3,0.3,0.4
			c0,0.1-0.1,0.2-0.3,0.3l-1.5,0.8c-0.3,0.2-0.8,0.2-1.1,0l-1.5-0.8c-0.2-0.1-0.3-0.3-0.3-0.4C-889.4-454.2-889.4-454.2-889.4-454.3
			z"/>
		<path id="Path_4824" class="st19" d="M-922.3-449.5l-0.8-0.8h-0.1v-0.1l-0.1-0.1v-0.2v-0.1v-0.2v-0.2v-0.2v-23.2v-0.2v-0.2v-0.2
			v-0.2v-0.2l0.1-0.2l0,0l0.1-0.2l0.1-0.2l0.1-0.2l0.1-0.2l0.1-0.2v-0.1l0.9,0.5v0.1l-0.1,0.3l-0.1,0.2l-0.1,0.2l-0.2,0.2h-0.1v0.2
			v0.2l-0.1,0.2v0.2v0.2v0.2v0.2l0,0v0.4v22.7v0.2v0.2v0.1v0.2v0.2l0,0v0.1L-922.3-449.5L-922.3-449.5L-922.3-449.5z"/>
		<path id="Path_4825" class="st19" d="M-899.1-432.1v-1.8h-0.7h-0.2h-0.2h-0.2h-0.2h-0.2h-0.2l-0.3-0.3h-0.2l-0.2-0.1h-0.2
			l-0.2-0.1l-0.2-0.2h0.2l-19.6-11.4l-0.1-0.1l-0.2-0.1l-0.1-0.1l-0.1-0.1l-0.1-0.1l-0.1-0.1l-0.1-0.1l0,0v-0.1l-0.1-0.1v-0.1v-0.1
			v-0.1v1.8v0.1v0.1v0.1l0.1,0.1v0.1l0.1,0.1l0.1,0.1l0.1,0.1v0.1l0.1,0.1l0.1,0.1l0.2,0.1l0.1,0.1l19.7,11.4l0.2,0.1l0.2,0.1h0.2
			l0.2,0.1l0.2,0.1h0.2l0.2,0.1h0.2h0.2h0.2h-0.2h0.2h0.2L-899.1-432.1L-899.1-432.1z"/>
	</g>
	<g id="Group_2417" transform="translate(924.653 1353.983)">
		<path id="Path_4456" class="st20" d="M-930.8-472.7l-1.7-0.9v-20.6l0.3,0.3l0.7-0.3l0.7-1.2l0.7,0.3l0.8-0.4l0.7-1.2l0.7,0.3
			l0.8-0.4l0.7-1.2l0.7,0.3l0.8-0.4l0.7-1.2l0.7,0.5l0.7-0.4l0.8-1.2l1.7,0.9l-0.7,1.2l-0.8,0.4l-0.7-0.3l-0.8,1.2l-0.8,0.4
			l-0.5-0.4l-0.8,1.2l-0.7,0.4l-0.8-0.4l-0.8,1.2l-0.8,0.4l-0.7-0.3l-0.7,1.2l-0.7,0.3l-0.3-0.3L-930.8-472.7L-930.8-472.7z
			 M-921.1-500.6l-0.7,0.3l1.7,1l0.7-0.3l0.2-0.2l-1.6-1L-921.1-500.6z"/>
		<path id="Path_4457" class="st17" d="M-919.1-494.9v15.3l-0.3-0.2l-0.7,0.4l-0.7,1.2l-0.6-0.3l-0.8,0.4l-0.7,1.2l-0.7-0.3
			l-0.8,0.4l-0.5,1.1l-0.7-0.3l-0.8,0.4l-0.7,1.2l-0.7-0.3l-0.8,0.4l-0.7,1.2l-0.7-0.3l-0.7,0.4l-0.3,0.6v-20.9l0.3,0.3l0.3-0.3
			l0.7-1.2l0.7,0.3l0.8-0.4l0.7-1.2l0.7,0.3l0.8-0.4l0.7-1.2l0.7,0.3l0.8-0.4l0.6-1.1l0.7,0.3l0.8-0.4l0.7-1.2l0.7,0.3l0.9-0.3
			l0.1-0.2L-919.1-494.9L-919.1-494.9z"/>
		<path id="Path_4458" class="st21" d="M-929.4-485.6l8.1-4.7v0.3l-8.1,4.7C-929.4-485.3-929.4-485.6-929.4-485.6z"/>
		<path id="Path_4459" class="st21" d="M-929.4-483.7l8.9-5.1v0.4l-8.9,5.1V-483.7z"/>
		<path id="Path_4460" class="st21" d="M-929.4-481.5l6.9-4v0.3l-6.9,4V-481.5z"/>
		<path id="Path_4461" class="st21" d="M-929.4-476.8l3.4-2v0.3l-3.4,2V-476.8z"/>
		<path id="Path_4462" class="st21" d="M-922.4-480.8l1.7-0.9v0.3l-1.7,1V-480.8z"/>
		<path id="Path_4463" class="st21" d="M-929.4-491.7l2.6-1.5v0.3l-2.6,1.5V-491.7z"/>
		<path id="Path_4464" class="st21" d="M-923.7-495l2.9-1.7v0.3l-2.9,1.7C-923.7-494.7-923.7-495-923.7-495z"/>
		<path id="Path_4465" class="st21" d="M-929.4-489.9l4.9-2.8v0.3l-5,2.9L-929.4-489.9L-929.4-489.9z"/>
		<path id="Path_4466" class="st21" d="M-921.5-494.5l0.8-0.4v0.3l-0.9,0.5L-921.5-494.5L-921.5-494.5z"/>
		<path id="Path_4467" class="st22" d="M-932.5-494.3v20.6l1.7,0.9v-20.6L-932.5-494.3z"/>
	</g>
</g>
</svg>
