<svg xmlns="http://www.w3.org/2000/svg" viewBox="0 0 84 33.5">
  <defs>
    <style>
      .cls-1, .cls-2 {
        fill: #fff;
      }

      .cls-2 {
        font-size: 12px;
        font-family: Roboto-Regular, Roboto;
      }
    </style>
  </defs>
  <g id="Haberi_Gör" data-name="Haberi Gör" transform="translate(-833 -496.5)">
    <path id="Path_1101" data-name="Path 1101" class="cls-1" d="M26,0A14.45,14.45,0,0,1,14,7,14.45,14.45,0,0,1,2,0,15.773,15.773,0,0,1,7.953-5.516,6.945,6.945,0,0,0,7-2a7.008,7.008,0,0,0,7,7,7.008,7.008,0,0,0,7-7,6.945,6.945,0,0,0-.953-3.516A15.773,15.773,0,0,1,26,0ZM14.75-6a.76.76,0,0,1-.75.75A3.268,3.268,0,0,0,10.75-2a.76.76,0,0,1-.75.75A.76.76,0,0,1,9.25-2,4.768,4.768,0,0,1,14-6.75.76.76,0,0,1,14.75-6ZM28,0a2.164,2.164,0,0,0-.313-1.078A16.391,16.391,0,0,0,14-9,16.391,16.391,0,0,0,.313-1.078,2.164,2.164,0,0,0,0,0,2.164,2.164,0,0,0,.313,1.078,16.391,16.391,0,0,0,14,9,16.356,16.356,0,0,0,27.688,1.078,2.164,2.164,0,0,0,28,0Z" transform="translate(861 505.5)"/>
    <text id="Uygulamayı_Gör" data-name="Uygulamayı Gör" class="cls-2" transform="translate(833 527)"><tspan x="0" y="0">Uygulamayı Gör</tspan></text>
  </g>
</svg>
