<svg id="Group_460" data-name="Group 460" xmlns="http://www.w3.org/2000/svg" viewBox="0 0 283.315 277.3">
  <defs>
    <style>
      .cls-1 {
        fill: #d4f4ec;
      }

      .cls-2 {
        fill: #fff;
      }

      .cls-3 {
        fill: #0e5b68;
      }
    </style>
  </defs>
  <g id="Group_407" data-name="Group 407">
    <g id="Group_406" data-name="Group 406">
      <path id="Path_1507" data-name="Path 1507" class="cls-1" d="M256.2,186.1a12.035,12.035,0,0,1-12,12H18.2a12.035,12.035,0,0,1-12-12V17.8a12.035,12.035,0,0,1,12-12h226a12.035,12.035,0,0,1,12,12Z"/>
    </g>
  </g>
  <g id="Group_409" data-name="Group 409">
    <g id="Group_408" data-name="Group 408">
      <path id="Path_1508" data-name="Path 1508" class="cls-2" d="M248.2,179.1A11.865,11.865,0,0,1,236.3,191H11.9A11.865,11.865,0,0,1,0,179.1V11.9A11.865,11.865,0,0,1,11.9,0H236.3a11.865,11.865,0,0,1,11.9,11.9V179.1Z"/>
    </g>
  </g>
  <g id="Group_413" data-name="Group 413">
    <g id="Group_410" data-name="Group 410">
      <path id="Path_1509" data-name="Path 1509" class="cls-3" d="M60.6,139.1V120.9H23.7V107.1L60.3,62.4H79.8v43.2H90.4v15.3H79.8v18.2ZM44.5,105.5H60.6V86.3Z"/>
    </g>
    <g id="Group_411" data-name="Group 411">
      <path id="Path_1510" data-name="Path 1510" class="cls-3" d="M131.3,140.6a30.64,30.64,0,0,1-18.5-5.8,34.061,34.061,0,0,1-11.6-14.7,50.022,50.022,0,0,1-3.7-19.4c0-13.9,4.8-26.3,15.3-34.1a32.4,32.4,0,0,1,37,0,33.768,33.768,0,0,1,11.6,14.8,49.172,49.172,0,0,1,3.7,19.3c0,13.9-4.8,26.3-15.3,34.1A30.854,30.854,0,0,1,131.3,140.6Zm10.4-24.5a29.9,29.9,0,0,0,3.7-15.3c0-5.9-1.2-11.1-3.7-15.3-2.4-4.3-5.9-6.5-10.4-6.5s-7.9,2.2-10.4,6.5a29.9,29.9,0,0,0-3.7,15.3c0,5.9,1.2,11.1,3.7,15.3,2.5,4.3,5.9,6.5,10.4,6.5C135.8,122.5,139.3,120.3,141.7,116.1Z"/>
    </g>
    <g id="Group_412" data-name="Group 412">
      <path id="Path_1511" data-name="Path 1511" class="cls-3" d="M208.9,139.1V120.9H172V107.1l36.6-44.7h19.5v43.2h10.6v15.3H228.1v18.2Zm-16.1-33.6h16.1V86.3Z"/>
    </g>
  </g>
  <g id="Group_415" data-name="Group 415">
    <g id="Group_414" data-name="Group 414">
      <path id="Path_1512" data-name="Path 1512" class="cls-3" d="M256.2,30.1V17.8a12.035,12.035,0,0,0-12-12H18.2a12.035,12.035,0,0,0-12,12V30.1h250Z"/>
    </g>
  </g>
  <g id="Group_417" data-name="Group 417">
    <g id="Group_416" data-name="Group 416">
      <path id="Path_1513" data-name="Path 1513" class="cls-3" d="M241.2,196.6H15.2A13.572,13.572,0,0,1,1.7,183.1V14.8A13.572,13.572,0,0,1,15.2,1.3h226a13.572,13.572,0,0,1,13.5,13.5V183.2A13.487,13.487,0,0,1,241.2,196.6ZM15.2,4.3A10.5,10.5,0,0,0,4.7,14.8V183.2a10.5,10.5,0,0,0,10.5,10.5h226a10.5,10.5,0,0,0,10.5-10.5V14.8A10.5,10.5,0,0,0,241.2,4.3Z"/>
    </g>
  </g>
  <g id="Group_419" data-name="Group 419">
    <g id="Group_418" data-name="Group 418">
      <path id="Path_1514" data-name="Path 1514" class="cls-2" d="M227.8,17.4a5.7,5.7,0,1,0,11.4,0,5.635,5.635,0,0,0-5.7-5.7A5.83,5.83,0,0,0,227.8,17.4Z"/>
    </g>
  </g>
  <g id="Group_421" data-name="Group 421">
    <g id="Group_420" data-name="Group 420">
      <path id="Path_1515" data-name="Path 1515" class="cls-2" d="M188.2,17.4a5.7,5.7,0,1,0,11.4,0,5.635,5.635,0,0,0-5.7-5.7A5.762,5.762,0,0,0,188.2,17.4Z"/>
    </g>
  </g>
  <g id="Group_423" data-name="Group 423">
    <g id="Group_422" data-name="Group 422">
      <path id="Path_1516" data-name="Path 1516" class="cls-2" d="M208.2,17.4a5.7,5.7,0,1,0,11.4,0,5.635,5.635,0,0,0-5.7-5.7A5.762,5.762,0,0,0,208.2,17.4Z"/>
    </g>
  </g>
  <g id="Group_458" data-name="Group 458">
    <g id="Group_425" data-name="Group 425">
      <g id="Group_424" data-name="Group 424">
        <path id="Path_1517" data-name="Path 1517" class="cls-3" d="M212.8,240.4h0a8.388,8.388,0,0,1-4.1-1.1l-20.5-11.9.5-1.2c.1-.2.2-.5.3-.7l.1-.3.2-.2a7.551,7.551,0,0,0,1.1-1.4,21.4,21.4,0,0,0,1-2.2l.1-.4.3-.3a7.887,7.887,0,0,0,1.2-1.5l.2-.4.7-1.3.6-.9a6.667,6.667,0,0,0,.9-2.1l.6-1.8,21.1,12.2a8.316,8.316,0,0,1,3,11.3A8.69,8.69,0,0,1,212.8,240.4Zm-20.7-14.2,18.1,10.5a4.845,4.845,0,0,0,2.6.7h0a5.414,5.414,0,0,0,4.6-2.6,5.256,5.256,0,0,0-1.9-7.2l-18-10.4c-.2.3-.3.7-.5,1a6.726,6.726,0,0,1-.7,1.1l-.8,1.5a10.991,10.991,0,0,1-1.4,1.8,18.887,18.887,0,0,1-1.1,2.5A10.621,10.621,0,0,0,192.1,226.2Z"/>
      </g>
    </g>
    <g id="Group_427" data-name="Group 427">
      <g id="Group_426" data-name="Group 426">
        <path id="Path_1518" data-name="Path 1518" class="cls-2" d="M93.6,249.5a71.935,71.935,0,1,0-26.2-98.3A71.919,71.919,0,0,0,93.6,249.5Z"/>
      </g>
    </g>
    <g id="Group_429" data-name="Group 429">
      <g id="Group_428" data-name="Group 428">
        <path id="Path_1519" data-name="Path 1519" class="cls-1" d="M102.7,239.3a61.4,61.4,0,1,0-22.4-83.9A61.342,61.342,0,0,0,102.7,239.3Z"/>
      </g>
    </g>
    <g id="Group_431" data-name="Group 431">
      <g id="Group_430" data-name="Group 430">
        <path id="Path_1520" data-name="Path 1520" class="cls-2" d="M153.2,179.4c-2.2-8.6-12.9-12.9-14.9-11.7-3.6,2.1-.3,9.7-4.4,8.3-1.1-.4-17.8-.9-17.8-.9-1.1,2.8,3.3,3,3.3,6.9,0,2-4,11.4-4,11.7,0,.1,6.7,5.8,6.7,5.8-.2.6-6.2,8.3-1.4,7.7,7.1-.8,9.1-.8,12.5-9.8.7-1.9,12.4,8.1,14.2,2.3,1.3-4-.7-7-.9-9.7C146,183.9,158.3,182.6,153.2,179.4Z"/>
      </g>
    </g>
    <g id="Group_433" data-name="Group 433">
      <g id="Group_432" data-name="Group 432">
        <path id="Path_1521" data-name="Path 1521" class="cls-3" d="M129.6,260.7h0a72.676,72.676,0,0,1-36.7-9.9,73.4,73.4,0,0,1,36.9-136.9,73.417,73.417,0,0,1,63.4,110.2A73.943,73.943,0,0,1,129.6,260.7Zm.1-143.9a70.4,70.4,0,1,0,60.8,105.7,70.474,70.474,0,0,0-60.8-105.7Z"/>
      </g>
    </g>
    <g id="Group_435" data-name="Group 435">
      <g id="Group_434" data-name="Group 434">
        <path id="Path_1522" data-name="Path 1522" class="cls-3" d="M129.6,250.1h0A62.931,62.931,0,1,1,190.5,171a61.72,61.72,0,0,1-6.4,47.7A63.07,63.07,0,0,1,129.6,250.1Zm.1-122.8a59.9,59.9,0,1,0,57.9,44.5,59.128,59.128,0,0,0-27.9-36.4A60.02,60.02,0,0,0,129.7,127.3Z"/>
      </g>
    </g>
    <g id="Group_437" data-name="Group 437">
      <g id="Group_436" data-name="Group 436">
        <path id="Path_1523" data-name="Path 1523" class="cls-3" d="M118.3,209.1a1.425,1.425,0,0,1-1.2-.6,1.357,1.357,0,0,1-.1-1.5l3.4-7.1-7-5.2a1.436,1.436,0,0,1-.5-1.8l4.9-10.6-5-6.2a1.566,1.566,0,0,1-.2-1.6,1.6,1.6,0,0,1,1.4-.8l14.2.1h.3l5.1,1.2.6-8.3a1.23,1.23,0,0,1,.7-1.1,1.531,1.531,0,0,1,1.3-.2l13.5,4.8a1.419,1.419,0,0,1,.9.8l4.4,10.3a1.605,1.605,0,0,1-.3,1.6l-6.7,7.6,1,10.4a1.536,1.536,0,0,1-.5,1.3,1.592,1.592,0,0,1-1.3.3L134,199.1l-4.3,8.1a1.742,1.742,0,0,1-1.2.8l-10.1,1.2A.1.1,0,0,0,118.3,209.1ZM116,193l7,5.2a1.436,1.436,0,0,1,.5,1.8l-2.7,5.8,6.7-.8,4.4-8.4a1.614,1.614,0,0,1,1.7-.8l12.3,3.1-.9-9a1.5,1.5,0,0,1,.4-1.1l6.5-7.3-3.8-8.8L137,168.8l-.6,8.1a1.738,1.738,0,0,1-.6,1.1,1.383,1.383,0,0,1-1.2.3l-6.7-1.6-10.9-.1,3.6,4.5a1.51,1.51,0,0,1,.2,1.6Z"/>
      </g>
    </g>
    <g id="Group_439" data-name="Group 439">
      <g id="Group_438" data-name="Group 438">
        <path id="Path_1524" data-name="Path 1524" class="cls-3" d="M135.2,175.3a2.354,2.354,0,0,1-.8-.2L129,172a1.445,1.445,0,0,1-.7-1l-2.2-11.5-7.3-.9a1.609,1.609,0,0,1-1.3-1.2l-1.8-8.8a1.53,1.53,0,0,1,3-.6l1.6,7.7,7.4.9a1.609,1.609,0,0,1,1.3,1.2l2.2,11.9,2.7,1.6.3-4.6a1.777,1.777,0,0,1,.4-1l7.2-7.1-4.8-6.4a1.5,1.5,0,1,1,2.4-1.8l5.5,7.4a1.539,1.539,0,0,1-.2,2l-7.8,7.6-.5,6.4a1.3,1.3,0,0,1-.8,1.2C135.7,175.2,135.4,175.3,135.2,175.3Z"/>
      </g>
    </g>
    <g id="Group_441" data-name="Group 441">
      <g id="Group_440" data-name="Group 440">
        <path id="Path_1525" data-name="Path 1525" class="cls-3" d="M149.3,173.1a1.5,1.5,0,0,1-1.4-1l-2.4-6a1.5,1.5,0,0,1,.1-1.3l2-3.5-6.3-3.6a1.458,1.458,0,0,1,1.5-2.5l7.6,4.4a1.377,1.377,0,0,1,.5,2l-2.4,4.2,2.1,5.4a1.478,1.478,0,0,1-.8,1.9C149.6,173,149.4,173.1,149.3,173.1Z"/>
      </g>
    </g>
    <g id="Group_443" data-name="Group 443">
      <g id="Group_442" data-name="Group 442">
        <path id="Path_1526" data-name="Path 1526" class="cls-3" d="M118.2,186.1a1.136,1.136,0,0,1-.8-.3l-10.1-6.9-9.4,5.3a1.5,1.5,0,0,1-1.8-.3L84.9,171.6a1.487,1.487,0,1,1,2.2-2l10.4,11.5,9.2-5.2a1.357,1.357,0,0,1,1.6.1l10.8,7.5a1.48,1.48,0,0,1,.4,2.1A1.9,1.9,0,0,1,118.2,186.1Z"/>
      </g>
    </g>
    <g id="Group_445" data-name="Group 445">
      <g id="Group_444" data-name="Group 444">
        <path id="Path_1527" data-name="Path 1527" class="cls-3" d="M95.8,182.7a1.433,1.433,0,0,1-1-.4,1.45,1.45,0,0,1-.1-2.1l7.2-8.3,1.6-6a1.526,1.526,0,0,1,1.1-1.1,1.419,1.419,0,0,1,1.4.4l8.9,8.7a1.485,1.485,0,1,1-2.1,2.1l-7.1-7-1,3.8-.3.6L96.9,182A1.167,1.167,0,0,1,95.8,182.7Z"/>
      </g>
    </g>
    <g id="Group_447" data-name="Group 447">
      <g id="Group_446" data-name="Group 446">
        <path id="Path_1528" data-name="Path 1528" class="cls-3" d="M105.2,208.7h-.4a1.573,1.573,0,0,1-1.1-1l-2.4-7.9-12.1-2.1a1.471,1.471,0,1,1,.5-2.9l13,2.3a1.549,1.549,0,0,1,1.2,1l1.9,6.3,9.8-10.1a1.485,1.485,0,0,1,2.1,2.1l-11.6,11.9A.975.975,0,0,1,105.2,208.7Z"/>
      </g>
    </g>
    <g id="Group_449" data-name="Group 449">
      <g id="Group_448" data-name="Group 448">
        <path id="Path_1529" data-name="Path 1529" class="cls-3" d="M142.7,223.3a1.268,1.268,0,0,1-.6-.1,1.507,1.507,0,0,1-.8-2,86.112,86.112,0,0,0,3.6-9.6,37.274,37.274,0,0,0-7.5-1.9h0a1.8,1.8,0,0,1-.9.4c-.5.1-2,.3-7.4-4.2a1.492,1.492,0,1,1,1.9-2.3,29.576,29.576,0,0,0,4.9,3.5c2.1-1,7,.5,11.1,2.1a1.962,1.962,0,0,1,.9.9c.2.6.7,1.7-3.8,12.3A1.693,1.693,0,0,1,142.7,223.3Z"/>
      </g>
    </g>
    <g id="Group_451" data-name="Group 451">
      <g id="Group_450" data-name="Group 450">
        <path id="Path_1530" data-name="Path 1530" class="cls-3" d="M167.1,203.8a1.483,1.483,0,0,1-.7-.1,2.433,2.433,0,0,1-1.5-1.3,102.265,102.265,0,0,1-2.7-10.1l-6,3.1a1.489,1.489,0,0,1-2-.6l-4.9-8.8a1.476,1.476,0,0,1,2.6-1.4l4.2,7.5,6.4-3.3a1.483,1.483,0,0,1,1.3,0,1.589,1.589,0,0,1,.8,1c.5,2.4,1.9,8.7,2.7,11.1,1.5-.2,5.7-2.6,9.6-5.4a1.5,1.5,0,1,1,1.8,2.4C175.7,200.2,170.1,203.8,167.1,203.8Z"/>
      </g>
    </g>
    <g id="Group_453" data-name="Group 453">
      <g id="Group_452" data-name="Group 452">
        <path id="Path_1531" data-name="Path 1531" class="cls-3" d="M165.3,200.3h-.2a1.553,1.553,0,0,1-1.3-1.7l3-20.5L158,174l-7,2a1.518,1.518,0,1,1-.9-2.9l7.6-2.1a1.183,1.183,0,0,1,1,.1l10.4,4.8a1.544,1.544,0,0,1,.9,1.6l-3.2,21.6A1.433,1.433,0,0,1,165.3,200.3Z"/>
      </g>
    </g>
    <g id="Group_455" data-name="Group 455">
      <g id="Group_454" data-name="Group 454">
        <path id="Path_1532" data-name="Path 1532" class="cls-3" d="M278.1,255.6a10.46,10.46,0,0,1,3.8,14.3h0c-2.9,5-9.715,7.579-14.715,4.679l-55.279-32.048c-5-2.9-8.307-8.631-5.407-13.631l.807-.511c2.9-5,10.7-7.59,15.7-4.69Z"/>
      </g>
    </g>
    <g id="Group_457" data-name="Group 457">
      <g id="Group_456" data-name="Group 456">
        <path id="Path_1533" data-name="Path 1533" class="cls-3" d="M270.1,277.3a12.513,12.513,0,0,1-6-1.6L209,243.8a12,12,0,0,1,6-22.4,12.513,12.513,0,0,1,6,1.6l55.1,31.9a12.006,12.006,0,0,1,4.4,16.4A11.971,11.971,0,0,1,270.1,277.3ZM215,224.4a9,9,0,0,0-4.5,16.8l55.1,31.9a9,9,0,0,0,9-15.6l-55.1-31.9A10.068,10.068,0,0,0,215,224.4Z"/>
      </g>
    </g>
  </g>
</svg>
