<svg xmlns="http://www.w3.org/2000/svg" viewBox="0 0 122.262 154.42">
  <defs>
    <style>
      .cls-1 {
        fill: #040507;
        opacity: 0.003;
      }

      .cls-1, .cls-10, .cls-11, .cls-12, .cls-13, .cls-14, .cls-15, .cls-16, .cls-17, .cls-18, .cls-19, .cls-2, .cls-20, .cls-21, .cls-22, .cls-3, .cls-4, .cls-5, .cls-6, .cls-8, .cls-9 {
        fill-rule: evenodd;
      }

      .cls-2 {
        fill: #080a0d;
        opacity: 0.007;
      }

      .cls-3 {
        fill: #0b0e14;
        opacity: 0.01;
      }

      .cls-4 {
        fill: #0f131b;
        opacity: 0.013;
      }

      .cls-5 {
        fill: #131822;
        opacity: 0.017;
      }

      .cls-6 {
        fill: #171d29;
        opacity: 0.02;
      }

      .cls-7 {
        fill: #1b2230;
        opacity: 0.023;
      }

      .cls-8 {
        fill: #1f2737;
        opacity: 0.027;
      }

      .cls-9 {
        fill: #232c3f;
        opacity: 0.03;
      }

      .cls-10 {
        fill: #273246;
        opacity: 0.033;
      }

      .cls-11 {
        fill: #2b374d;
        opacity: 0.037;
      }

      .cls-12 {
        fill: #2f3c54;
        opacity: 0.04;
      }

      .cls-13 {
        fill: #34415c;
        opacity: 0.043;
      }

      .cls-14 {
        fill: #384763;
        opacity: 0.047;
      }

      .cls-15 {
        fill: #73bce3;
      }

      .cls-16 {
        fill: #9dd6f5;
      }

      .cls-17 {
        fill: #2c3e50;
      }

      .cls-18 {
        fill: #8cb0d4;
      }

      .cls-19 {
        fill: #44abc7;
      }

      .cls-20 {
        fill: #3d566e;
      }

      .cls-21 {
        fill: #354c61;
      }

      .cls-22 {
        fill: #243340;
      }
    </style>
  </defs>
  <g id="Group_2702" data-name="Group 2702" transform="translate(-248 -1148.345)">
    <g id="Group_354" data-name="Group 354" transform="translate(248 1148.345)">
      <g id="Group_352" data-name="Group 352" transform="translate(0 83.834)">
        <path id="Path_1496" data-name="Path 1496" class="cls-1" d="M104.362,93.215c23.866,13.753,23.866,36.1,0,49.956-23.866,13.753-62.6,13.753-86.463,0s-23.866-36.1,0-49.956C41.765,79.462,80.5,79.462,104.362,93.215Z" transform="translate(0 -82.9)"/>
        <path id="Path_1497" data-name="Path 1497" class="cls-2" d="M101.385,94.907c22.248,12.843,22.248,33.675,0,46.619-22.248,12.843-58.35,12.843-80.7,0-22.248-12.843-22.248-33.675,0-46.619C43.035,82.064,79.137,82.064,101.385,94.907Z" transform="translate(0.045 -82.873)"/>
        <path id="Path_1498" data-name="Path 1498" class="cls-3" d="M98.506,96.6c20.63,11.933,20.63,31.349,0,43.282s-54.2,11.933-74.833,0-20.63-31.349,0-43.282C44.3,84.566,77.775,84.566,98.506,96.6Z" transform="translate(0.092 -82.847)"/>
        <path id="Path_1499" data-name="Path 1499" class="cls-4" d="M95.529,98.192c19.113,11.023,19.113,28.922,0,39.945s-49.956,11.023-69.069,0-19.113-28.922,0-39.945S76.416,87.169,95.529,98.192Z" transform="translate(0.137 -82.821)"/>
        <path id="Path_1500" data-name="Path 1500" class="cls-5" d="M92.551,99.884c17.495,10.113,17.495,26.5,0,36.507-17.495,10.113-45.81,10.113-63.305,0s-17.495-26.5,0-36.507C46.741,89.772,75.157,89.772,92.551,99.884Z" transform="translate(0.182 -82.794)"/>
        <path id="Path_1501" data-name="Path 1501" class="cls-6" d="M89.673,101.477c15.877,9.2,15.877,24.068,0,33.169-15.877,9.2-41.664,9.2-57.541,0s-15.877-24.068,0-33.169C48.009,92.274,73.8,92.274,89.673,101.477Z" transform="translate(0.228 -82.769)"/>
        <ellipse id="Ellipse_32" data-name="Ellipse 32" class="cls-7" cx="36.507" cy="21.135" rx="36.507" ry="21.135" transform="translate(24.675 14.158)"/>
        <path id="Path_1502" data-name="Path 1502" class="cls-8" d="M83.817,104.761c12.641,7.281,12.641,19.214,0,26.5s-33.271,7.281-45.911,0-12.641-19.214,0-26.5S71.075,97.48,83.817,104.761Z" transform="translate(0.32 -82.715)"/>
        <path id="Path_1503" data-name="Path 1503" class="cls-9" d="M80.84,106.453c11.124,6.371,11.124,16.787,0,23.158s-29.023,6.371-40.147,0-11.124-16.787,0-23.158S69.716,100.082,80.84,106.453Z" transform="translate(0.364 -82.689)"/>
        <path id="Path_1504" data-name="Path 1504" class="cls-10" d="M77.861,108.046c9.506,5.461,9.506,14.36,0,19.821s-24.877,5.461-34.282,0c-9.506-5.461-9.506-14.36,0-19.821S68.456,102.585,77.861,108.046Z" transform="translate(0.411 -82.663)"/>
        <path id="Path_1505" data-name="Path 1505" class="cls-11" d="M74.983,109.738c7.888,4.551,7.888,11.933,0,16.484s-20.63,4.551-28.518,0-7.888-11.933,0-16.484C54.253,105.187,67.1,105.187,74.983,109.738Z" transform="translate(0.457 -82.636)"/>
        <path id="Path_1506" data-name="Path 1506" class="cls-12" d="M72.006,111.33c6.27,3.641,6.27,9.506,0,13.146s-16.484,3.641-22.753,0-6.27-9.506,0-13.146C55.522,107.79,65.736,107.79,72.006,111.33Z" transform="translate(0.502 -82.61)"/>
        <path id="Path_1507" data-name="Path 1507" class="cls-13" d="M69.028,113.023c4.652,2.73,4.652,7.079,0,9.809s-12.236,2.73-16.989,0c-4.652-2.73-4.652-7.079,0-9.809C56.792,110.292,64.376,110.292,69.028,113.023Z" transform="translate(0.547 -82.584)"/>
        <path id="Path_1508" data-name="Path 1508" class="cls-14" d="M66.149,114.614c3.034,1.82,3.034,4.652,0,6.472a12.013,12.013,0,0,1-11.124,0c-3.034-1.82-3.034-4.652,0-6.472A12.641,12.641,0,0,1,66.149,114.614Z" transform="translate(0.594 -82.557)"/>
      </g>
      <g id="Group_353" data-name="Group 353" transform="translate(6.068)">
        <path id="Path_1509" data-name="Path 1509" class="cls-15" d="M52.77,23.837c-13.45,7.787-24.27,26.6-24.27,42.069S39.422,87.647,52.77,79.962c13.45-7.787,24.27-26.6,24.27-42.068S66.22,16.151,52.77,23.837Z" transform="translate(-5.747 0.231)"/>
        <path id="Path_1510" data-name="Path 1510" class="cls-16" d="M52.725,46.1a53.71,53.71,0,0,0-18.1,23.36,8.086,8.086,0,0,1-1.618-3.236C30.275,55.2,39.174,38.11,52.725,28.2Z" transform="translate(-5.701 0.318)"/>
        <path id="Path_1511" data-name="Path 1511" class="cls-17" d="M41.192,4.753,42,4.247l.91-.4.91-.506.91-.4.91-.4.809-.4.91-.3.809-.3.91-.3.809-.2.91-.2.809-.2.809-.2.809-.1.809-.1.809-.1.708-.1h2.326l.708.1.809.1L60.1.3l.708.1.607.1.708.2.708.2.607.2L75.373,7.989l-.708-.2-.607-.2-.708-.2-.708-.2-.708-.1-.708-.1-.708-.1H67.485l-.809.1h-.809l-.809.2-.809.1-.809.2-.809.1-.809.3-.91.2-.809.3-.91.3-.809.3-.91.4-.91.4-.809.4-.91.4-.91.506-.91.506-.91.506-.91.607-.91.607-.91.607-.809.607-.91.607-.91.708-.809.708-.91.708L44.226,18l-.809.708-.809.809-.91.708-.809.809-.708.809-.809.91-.809.809-.809.809-.708.91-.809.91-.708.91-.708.91-.708.91-.708,1.011-.708.91-.708,1.011-.708.91-.607,1.011-.607,1.011L29.36,35.8l-.607,1.011-.607,1.011-.506,1.011-.607,1.112-.607,1.011-.506,1.112-.506,1.011-.506,1.112L24.4,45.2,23.9,46.316l-.506,1.112-.4,1.011-.4,1.112-.4,1.112-.4,1.112-.4,1.112L20.967,54l-.3,1.112-.3,1.011-.3,1.112-.3,1.112-.3,1.112-.2,1.112-.2,1.112-.2,1.112-.2,1.112-.2,1.011-.1,1.112-.2,1.112-.1,1.011v1.112l-.1,1.011V74.53l.1,1.011v.91l.1,1.011.2.91.1.91.2.91.2.91.2.809.2.809.2.91.3.708.3.809.3.708.3.809.3.708.4.607.4.708.4.607.4.607.4.607.4.607.506.506.506.506.506.506.506.506L13.483,86.261l-.506-.4-.506-.506-.4-.506-.506-.607-.4-.607-.506-.506-.4-.607-.4-.708-.3-.607-.4-.708-.3-.708-.4-.708-.3-.809-.2-.708-.3-.809-.2-.809-.3-.809-.2-.91-.2-.91-.1-.91-.2-.91-.1-.91-.1-.91-.1-1.011V66.642L6,65.631l.1-1.112V62.395l.1-1.011.1-1.112.1-1.112.2-1.011.1-1.112.2-1.112.2-1.112.3-1.112.2-1.112.3-1.011.2-1.112.3-1.112.4-1.112.3-1.112.4-1.112.3-1.112.4-1.112.4-1.011.506-1.112.4-1.112.506-1.112.4-1.011.506-1.112.506-1.112.607-1.011L14.6,34.08l.607-1.011.506-1.011.607-1.112.607-1.011.607-1.011.607-1.011.708-1.011.607-.91.708-1.011.708-1.011.607-.91.708-.91.809-1.011.708-.91.708-.91.809-.91.708-.809.809-.91.708-.809.809-.809.809-.809.809-.809.809-.809.91-.809.809-.708.809-.708.91-.708L34.922,9l.91-.607.809-.708.91-.607.91-.607.91-.607.91-.506Z" transform="translate(-6)"/>
        <path id="Path_1512" data-name="Path 1512" class="cls-18" d="M83.732,51.475,71.9,44.7h.4v.1h.3l.1.1h.3V45h.2l.1.1h.1l.1.1h.1l.1.1,11.832,6.775h-.1l-.1-.1h-.2v-.1h-.2l-.1-.1h-.2l-.1-.1h-.2l-.1-.1h-.4Z" transform="translate(-5.258 0.503)"/>
        <path id="Path_1513" data-name="Path 1513" class="cls-18" d="M69.346,79.789,57.515,73.014l-.2-.1-.1-.1-.1-.1-.1-.1h-.1l-.1-.1-.1-.1-.1-.1v-.1l-.1-.1-.1-.1-.1-.1-.1-.1,11.832,6.877.1.1.1.1.1.1.1.1.1.1.1.1h.1l.1.1.1.1.1.1.1.1.1.1Z" transform="translate(-5.435 0.809)"/>
        <path id="Path_1514" data-name="Path 1514" class="cls-19" d="M76.711,37.951,64.879,31.075V29.659l-.1-.708v-.607l-.1-.708-.1-.607-.1-.708-.1-.607-.1-.607-.2-.607-.1-.506-.2-.607-.2-.506-.2-.607-.2-.506-.2-.506-.2-.506-.3-.4-.2-.506-.3-.4-.3-.4-.3-.506-.3-.3-.3-.4-.3-.4-.4-.3-.3-.3-.4-.4-.4-.3-.3-.2-.4-.3-.4-.2,11.832,6.775.4.3.4.2.4.3.3.3.4.3.4.4.3.3.3.4.3.3.3.4.3.4.3.4.3.506.3.4.2.506.2.506.3.506.2.506.2.506.1.607.2.506.2.607.1.607.1.607.2.607.1.607v.708l.1.607.1.708v2.124Z" transform="translate(-5.417 0.173)"/>
        <path id="Path_1515" data-name="Path 1515" class="cls-19" d="M35.633,81.095,23.7,74.319l.506.2.4.2.4.2.506.2.4.1.506.2.4.1.506.1.506.1.506.1h.506l.506.1h1.011l.607-.1h1.011l.607-.1.506-.1.607-.1.607-.2.506-.1.607-.2.607-.2.607-.2.607-.2.607-.3.607-.2.607-.3.607-.3.607-.4.708-.3,11.832,6.877-.607.3-.708.3-.607.3-.607.3-.607.3-.607.3-.607.2-.607.2-.607.2-.506.2-.607.1-.607.1-.506.2h-.607l-.506.1-.607.1H40.689l-.506-.1h-.506l-.506-.1-.4-.1-.506-.1-.506-.2-.4-.1-.506-.2-.4-.2-.4-.2Z" transform="translate(-5.801 0.818)"/>
        <path id="Path_1516" data-name="Path 1516" class="cls-19" d="M52.632,79.679,40.8,72.8l.607-.4.607-.4.607-.4.607-.4.607-.4.607-.4.607-.506.607-.506.607-.506.607-.506.506-.506.607-.506.607-.506.506-.607.607-.506.506-.607.607-.607.506-.607.506-.607.506-.607.506-.607.506-.607.506-.708.506-.607.506-.708.4-.607.506-.708.506-.708.4-.708.4-.708.4-.708.506-.708,11.832,6.877-.4.708-.4.708-.506.708-.4.708-.506.708-.4.607-.506.708-.506.708-.506.607-.4.607-.506.708-.607.607-.506.607-.506.607-.506.607-.607.607-.506.506-.506.607-.607.506-.607.607-.506.506-.607.506-.607.506-.607.506-.607.506-.607.4-.607.506-.607.4-.607.4-.607.4-.607.4Z" transform="translate(-5.608 0.615)"/>
        <path id="Path_1517" data-name="Path 1517" class="cls-19" d="M69.632,61.743,57.8,54.867l.4-.708.4-.708.3-.708.4-.708.4-.809.3-.708.4-.708.3-.809.3-.708.3-.809.3-.708.3-.708.3-.809.2-.809.3-.708.2-.809.2-.708.2-.809.2-.708.2-.809.2-.708.1-.809.2-.708.1-.809.1-.708.1-.809.1-.708.1-.809v-.708l.1-.708V30.9l11.832,6.877V40l-.1.708-.1.809v.708l-.1.708-.2.809-.1.708-.1.809-.2.708-.2.809-.1.708-.2.809-.2.809-.3.708-.2.809-.2.708-.3.809-.3.708-.3.809-.3.708-.3.809-.3.708-.3.708-.3.809-.4.708-.4.708-.3.809-.4.708-.4.708Z" transform="translate(-5.417 0.348)"/>
        <path id="Path_1518" data-name="Path 1518" class="cls-18" d="M69.646,22.183,57.815,15.408l-.506-.3-.4-.2-.4-.2,11.832,6.877.506.2.4.2Z" transform="translate(-5.431 0.166)"/>
        <path id="Path_1519" data-name="Path 1519" class="cls-20" d="M52.892,11.553C62.6,5.991,71.3,5.485,77.668,9.126S87.983,20.654,87.983,31.879A62.761,62.761,0,0,1,84.342,52a4.847,4.847,0,0,1,2.023.708l25.787,14.967c4.45,2.528,4.45,11.023,0,18.708h0c-4.45,7.686-11.731,11.933-16.281,9.4L70.083,80.723a7.08,7.08,0,0,1-1.618-1.416A61.781,61.781,0,0,1,52.791,92.555c-9.708,5.562-18.506,6.169-24.776,2.427C21.644,91.342,17.7,83.454,17.7,72.229s3.944-23.562,10.315-34.585c6.371-10.922,15.169-20.529,24.877-26.091ZM70.083,22.272c-4.348-2.528-10.517-2.124-17.191,1.719S40.049,34.509,35.7,42.093s-7.079,16.18-7.079,23.967,2.73,13.248,7.079,15.776c4.45,2.528,10.517,2.124,17.191-1.719S65.735,69.6,70.083,62.015s7.079-16.18,7.079-23.967S74.432,24.9,70.083,22.272Z" transform="translate(-5.868 0.077)"/>
      </g>
      <path id="Path_1520" data-name="Path 1520" class="cls-21" d="M40.873,4.752l.809-.506.91-.4.91-.506.91-.4.91-.4.809-.4.91-.3.809-.3.91-.3.809-.2.91-.2.809-.2L52.1.4l.809-.1.809-.1.607-.1L66.155,6.977h-.607l-.809.2-.809.1-.809.2-.809.1-.809.3-.91.2-.809.3-.91.3-.809.3-.91.4-.91.4-.809.4-.91.4-.91.506-.91.506-.91.506-.91.607-.91.607-.91.607-.809.607-.91.607-.91.708-.2.2L34.3,9.2l.3-.2.91-.607.809-.708.91-.607.91-.607.91-.607.91-.506Z" transform="translate(0.386 0.001)"/>
      <path id="Path_1521" data-name="Path 1521" class="cls-22" d="M25.821,41.875l-.4.809L24.911,43.8,24.4,44.808,23.9,45.921l-.506,1.112-.4,1.011-.4,1.112-.4,1.112-.4,1.112-.4,1.112-.4,1.112-.3,1.112-.3,1.011-.3,1.112-.3,1.112-.3,1.112-.2,1.112-.2,1.112-.2,1.112-.2,1.112-.2,1.011-.1,1.112-.2,1.112-.1,1.011v1.112l-.1,1.011v4.247l.1,1.011v.91l.1,1.011.2.91.1.91v.1L6.607,72.112v-.1l-.2-.91-.1-.91-.1-.91-.1-1.011V67.258L6,66.247V64.123l.1-1.011V62l.1-1.011.1-1.112.1-1.112.2-1.011.1-1.112.2-1.112.2-1.112.3-1.112.2-1.112.3-1.011.2-1.112.3-1.112.4-1.112.3-1.112.4-1.112.3-1.112.4-1.112.4-1.011.506-1.112.4-1.112.506-1.112.4-1.011.506-1.112.506-1.112.4-.708Z" transform="translate(0.068 0.395)"/>
    </g>
  </g>
</svg>
