<svg xmlns="http://www.w3.org/2000/svg" viewBox="0 0 12 9.429">
  <defs>
    <style>
      .cls-1 {
        fill: #fff;
      }
    </style>
  </defs>
  <path id="Path_586" data-name="Path 586" class="cls-1" d="M12-5.531a3.944,3.944,0,0,1-.67.583C10.212-4.192,9.087-3.429,8-2.638a3.67,3.67,0,0,1-1.989.924H5.993A3.67,3.67,0,0,1,4-2.638c-1.092-.8-2.217-1.554-3.328-2.31A3.745,3.745,0,0,1,0-5.531V-.214A1.075,1.075,0,0,0,1.071.857h9.857A1.075,1.075,0,0,0,12-.214ZM12-7.5a1.079,1.079,0,0,0-1.071-1.071H1.071A1.086,1.086,0,0,0,0-7.353,2.611,2.611,0,0,0,1.152-5.665c1.038.723,2.089,1.446,3.127,2.176.435.3,1.172.917,1.714.917h.013c.542,0,1.279-.616,1.714-.917,1.038-.73,2.089-1.453,3.134-2.176A2.418,2.418,0,0,0,12-7.5Z" transform="translate(0 8.572)"/>
</svg>
