<?xml version="1.0" encoding="utf-8"?>
<!-- Generator: Adobe Illustrator 22.1.0, SVG Export Plug-In . SVG Version: 6.00 Build 0)  -->
<svg version="1.1" id="Layer_1" xmlns="http://www.w3.org/2000/svg" xmlns:xlink="http://www.w3.org/1999/xlink" x="0px" y="0px"
	 viewBox="0 0 153.5 96" style="enable-background:new 0 0 153.5 96;" xml:space="preserve">
<style type="text/css">
	.st0{opacity:3.000000e-03;fill:#040507;enable-background:new    ;}
	.st1{opacity:7.000000e-03;fill:#080A0D;enable-background:new    ;}
	.st2{opacity:1.000000e-02;fill:#0B0E14;enable-background:new    ;}
	.st3{opacity:1.300000e-02;fill:#0F131B;enable-background:new    ;}
	.st4{opacity:1.700000e-02;fill:#131822;enable-background:new    ;}
	.st5{opacity:2.000000e-02;fill:#171D29;enable-background:new    ;}
	.st6{opacity:2.300000e-02;fill:#1B2230;enable-background:new    ;}
	.st7{opacity:2.700000e-02;fill:#1F2737;enable-background:new    ;}
	.st8{opacity:3.000000e-02;fill:#232C3F;enable-background:new    ;}
	.st9{opacity:3.300000e-02;fill:#273246;enable-background:new    ;}
	.st10{opacity:3.700000e-02;fill:#2B374D;enable-background:new    ;}
	.st11{opacity:4.000000e-02;fill:#2F3C54;enable-background:new    ;}
	.st12{opacity:4.300000e-02;fill:#34415C;enable-background:new    ;}
	.st13{opacity:4.700000e-02;fill:#384763;enable-background:new    ;}
	.st14{fill:#E6EAEB;}
	.st15{fill:#C0392B;}
	.st16{fill:#BDBDBD;}
	.st17{fill:#9C9C9C;}
	.st18{fill:#E74C3C;}
	.st19{enable-background:new    ;}
	.st20{fill:#1F1E1E;}
</style>
<g id="Group_2696" transform="translate(-953 -425)">
	<g id="Group_2468" transform="translate(759.921 -90)">
		<g id="Group_2395" transform="translate(193.078 515.6)">
			<g id="Group_2393" transform="translate(0 52.038)">
				<path id="Path_4484" class="st0" d="M67.3,3.6c11.3,6.5,11.3,17,0,23.6s-29.5,6.5-40.8,0s-11.3-17,0-23.6S56-2.8,67.3,3.6z"/>
				<path id="Path_4485" class="st1" d="M66,4.5c10.5,6.1,10.5,15.9,0,22s-27.5,6.1-38.1,0s-10.5-15.9,0-22S55.4-1.6,66,4.5z"/>
				<path id="Path_4486" class="st2" d="M64.6,5.2c9.8,5.6,9.8,14.8,0,20.4s-25.6,5.6-35.3,0s-9.8-14.8,0-20.4S54.8-0.4,64.6,5.2z"
					/>
				<path id="Path_4487" class="st3" d="M63.2,6c9,5.2,9,13.7,0,18.8s-23.6,5.2-32.6,0s-9-13.6,0-18.8S54.2,0.8,63.2,6z"/>
				<path id="Path_4488" class="st4" d="M61.8,6.9c8.2,4.7,8.2,12.5,0,17.2s-21.7,4.7-29.9,0s-8.2-12.5,0-17.2
					C40.3,2,53.6,2,61.8,6.9z"/>
				<path id="Path_4489" class="st5" d="M60.5,7.6c7.5,4.3,7.5,11.4,0,15.6s-19.7,4.3-27.2,0.1s-7.5-11.4,0-15.6
					C40.9,3.3,53,3.3,60.5,7.6z"/>
				<path id="Path_4490" class="st6" d="M59.1,8.5c6.8,3.9,6.8,10.1,0,14.1s-17.6,3.9-24.4,0s-6.8-10.1,0-14.1S52.4,4.5,59.1,8.5z"
					/>
				<path id="Path_4491" class="st7" d="M57.7,9.2c6,3.4,6,9.1,0,12.5s-15.6,3.4-21.7,0s-6-9.1,0-12.5C42.1,5.7,51.8,5.7,57.7,9.2z"
					/>
				<path id="Path_4492" class="st8" d="M56.4,10c5.3,3.1,5.3,7.9,0,10.9s-13.7,3.1-18.9,0s-5.3-7.9,0-10.9C42.6,7,51.2,7,56.4,10z"
					/>
				<path id="Path_4493" class="st9" d="M55,10.8c4.5,2.6,4.5,6.8,0,9.4s-11.7,2.6-16.2,0s-4.5-6.8,0-9.4C43.2,8.2,50.6,8.2,55,10.8
					z"/>
				<path id="Path_4494" class="st10" d="M53.6,11.6c3.7,2.1,3.7,5.6,0,7.8c-3.7,2.1-9.8,2.1-13.5,0s-3.7-5.6,0-7.8
					S49.9,9.4,53.6,11.6z"/>
				<path id="Path_4495" class="st11" d="M52.2,12.3c3,1.7,3,4.5,0,6.2c-3.4,1.7-7.3,1.7-10.8,0c-3-1.7-3-4.5,0-6.2
					C44.9,10.7,48.9,10.7,52.2,12.3z"/>
				<path id="Path_4496" class="st12" d="M50.9,13.2c2.2,1.3,2.2,3.4,0,4.7c-2.5,1.3-5.5,1.3-8,0c-2.2-1.3-2.2-3.4,0-4.7
					C45.4,11.9,48.3,11.9,50.9,13.2z"/>
				<path id="Path_4497" class="st13" d="M49.6,13.9c1.4,0.8,1.4,2.2,0,3.1c-1.7,0.8-3.6,0.8-5.3,0c-1.4-0.8-1.4-2.2,0-3.1
					C45.9,13.1,47.9,13.1,49.6,13.9z"/>
			</g>
			<g id="Group_2394" transform="translate(7.337 -0.6)">
				<path id="Path_4498" class="st14" d="M54.8,11.6l7.3,4.2l0,0c0,0,0,0,0.1,0c0.5,0.4,0.7,0.8,0.7,1.4v2.9l0,0v18.2l0,0v2.9
					c-0.1,0.8-0.3,1.4-0.7,2.1c-0.4,0.7-1,1.3-1.6,1.8L26,65.1c-0.5,0.4-1.1,0.4-1.6,0.2c0,0,0,0-0.1,0l0,0L16.9,61h-0.1l-0.1-0.1
					l-0.1-0.1l-0.1-0.1v-0.1v-0.1v-0.1v-0.1v-0.1v-0.1V60v-0.1v-0.1v-3.1l0,0V35.4v-0.2V35v-0.2v-0.2v-0.2v-0.2V34v-0.2V34l0.1-0.2
					l0.1-0.2l0.1-0.2l0.1-0.2L17,33h0.1l0.1-0.2l0.1-0.2l0.1-0.2l0.1-0.1l0.1-0.1l0.1-0.1l0.1-0.1l0.2-0.2l0.1-0.1l0.2-0.2l0.1-0.1
					l0.1-0.1l0.1-0.1l0.1-0.1l0.2-0.1l34.6-20l0.1-0.1l0.1-0.1h0.1h0.1l0.2-0.1h0.1h0.1h0.6H55h0.1L54.8,11.6z"/>
				<path id="Path_4499" class="st15" d="M23.6,39.9l-7.3-4.2v2.9l7.3,4.2C23.6,42.8,23.6,39.9,23.6,39.9z"/>
				<path id="Path_4500" class="st16" d="M62.1,15.8l-7.3-4.2h-0.1h-0.1h-0.1h-0.1h-0.3H54h0h-0.1h-0.1h-0.1h-0.2l-0.1,0.1l-0.1,0.1
					l-34.9,20l-0.1,0.1L18.2,32h0.1l-0.1,0.1l-0.1,0.1l-0.1,0l-0.2,0.2l-0.1,0.1l-0.1,0.1l-0.2,0.2l-0.1,0.1l0.1,0.1l-0.1,0.1
					l-0.1,0.2L17,33.5h0l-0.1,0.2l-0.1,0.1V34l-0.1,0.2l-0.1,0.1v0.2v0.2l-0.1,0.1V35v0.2V35l0,0v0.2v0.2v0.2l7.3,4.2v-0.2v-0.2
					v-0.2V39v-0.1v-0.2v-0.2l0.1-0.2v-0.1L24,38v-0.2l0.1-0.1l0.1-0.2l0.1-0.2l0.1-0.1l0.1-0.2l0.1-0.2l0.1-0.1l0.1-0.2l0.1-0.1
					l0.1-0.1l0.1-0.2l0.1-0.1l0.1-0.1l0.1-0.1l0.1-0.1l0.1-0.1l0.1-0.1l0.1-0.1l0.1-0.1l0.2-0.1L60.9,15H61l0.2-0.1h0.1l0.1-0.1h0.1
					H61h0.1h0.5h0.1L62.1,15.8L62.1,15.8z"/>
				<path id="Path_4501" class="st17" d="M23.6,42.8l-7.3-4.2v18.3l0,0V60v0.1v0.2v0.1v0.1v0.1v0.1l0.1,0.1v0.1V61l0.1,0.1l0.1,0.1
					l0,0l0.1,0.1l7.3,4.2h-0.1h-0.1l-0.1-0.1V65l0.2-0.1v-0.1l-0.2-0.1v-0.1v-0.1v-0.1v-0.1v-0.1v-0.1V61l0,0L23.6,42.8z"/>
				<path id="Path_4502" class="st14" d="M62.2,43.4c0.4-0.6,0.6-1.4,0.7-2.1l-12.1-3.6L45,46c-0.5,0.7-1.1,1.3-1.8,1.8
					c-0.5,0.3-1.1,0.5-1.8,0.3l-5.7-1.7L23.6,64c0,0.5,0.2,1.1,0.7,1.4c0.5,0.2,1.1,0.2,1.6-0.2l34.6-20
					C61.2,44.7,61.8,44.2,62.2,43.4z"/>
				<path id="Path_4503" class="st14" d="M23.6,42.8V61l0,0v2.9l12.1-17.5L34,45.9L23.6,42.8z"/>
				<path id="Path_4504" class="st14" d="M62.9,41.3v-2.9l0,0V20.1L52.3,35.3l-1.7,2.4L62.9,41.3z"/>
				<path id="Path_4505" class="st14" d="M60.5,16.1L25.9,36c-0.7,0.4-1.2,1-1.6,1.8c-0.4,0.6-0.6,1.4-0.7,2.1v2.9
					c17.7,5.3,0.5,0.2,17.8,5.3c0.6,0.2,1.2,0,1.8-0.3c0.7-0.5,1.3-1.1,1.8-1.8c18.2-26.5,0.4-0.5,17.8-25.9v-2.9
					c0.1-0.8-0.5-1.4-1.2-1.5C61.2,15.7,60.8,15.7,60.5,16.1z"/>
				<path id="Path_4506" class="st18" d="M62.9,20.2v-3L44.5,43.9c-0.3,0.5-0.7,0.8-1.1,1.1c-0.3,0.2-0.8,0.3-1.1,0.2l-18.5-5.4v2.9
					c15.9,4.7,3.8,1.1,17.8,5.3c0.6,0.2,1.2,0,1.8-0.3c0.7-0.5,1.3-1.1,1.8-1.8C63.2,19.6,45.4,45.5,62.9,20.2z"/>
				<path id="Path_4507" class="st17" d="M24.2,38l-7.3-4.2v0.1l-0.1,0.2l-0.1,0.1v0.2v0.2l-0.1,0.1v0.2v0.2V35l0,0v0.2v0.2v0.2
					l7.3,4.2v-0.2v-0.2v-0.2V39v-0.1v-0.2v-0.2l0.1-0.2v-0.1L24.2,38l-0.1-0.2l0.1-0.1L24.2,38z"/>
			</g>
		</g>
		<g id="Group_2421" transform="translate(-762 -704.814)">
			<g class="st19">
				<path class="st20" d="M1039.1,1244.7h3l2.8,7.7h0l2.8-7.7h3v10.8h-1.9v-8.7h0l-3.3,8.7h-1.3l-3.2-8.7h0v8.7h-1.8V1244.7z"/>
				<path class="st20" d="M1052.9,1242.7c0-0.3,0.1-0.6,0.3-0.8s0.5-0.3,0.8-0.3s0.6,0.1,0.8,0.3c0.2,0.2,0.3,0.5,0.3,0.8
					c0,0.3-0.1,0.6-0.3,0.8c-0.2,0.2-0.5,0.3-0.8,0.3s-0.6-0.1-0.8-0.3S1052.9,1243,1052.9,1242.7z M1053.1,1244.7h1.9v10.8h-1.9
					V1244.7z"/>
				<path class="st20" d="M1057.4,1244.7h1.9v4.7h0l4.5-4.7h2.6l-5,5l5.4,5.8h-2.7l-4.7-5.4h0v5.4h-1.9V1244.7z"/>
				<path class="st20" d="M1068,1244.7h3.8c0.5,0,1,0.1,1.5,0.2c0.5,0.1,0.9,0.3,1.3,0.5s0.7,0.6,0.9,1s0.3,0.9,0.3,1.4
					c0,0.8-0.2,1.4-0.7,1.9s-1,0.8-1.8,1l2.9,4.8h-2.3l-2.5-4.6h-1.4v4.6h-1.9V1244.7z M1071.5,1249.4c0.3,0,0.5,0,0.8-0.1
					c0.3,0,0.5-0.1,0.7-0.2s0.4-0.3,0.5-0.5c0.1-0.2,0.2-0.5,0.2-0.8c0-0.3-0.1-0.5-0.2-0.7c-0.1-0.2-0.3-0.3-0.5-0.5
					c-0.2-0.1-0.4-0.2-0.7-0.2c-0.3,0-0.5-0.1-0.8-0.1h-1.7v3H1071.5z"/>
				<path class="st20" d="M1077,1250.1c0-0.9,0.1-1.6,0.4-2.3c0.3-0.7,0.7-1.3,1.2-1.8s1.1-0.9,1.8-1.1c0.7-0.3,1.5-0.4,2.3-0.4
					c0.8,0,1.6,0.1,2.3,0.4c0.7,0.3,1.3,0.6,1.8,1.1c0.5,0.5,0.9,1.1,1.2,1.8c0.3,0.7,0.4,1.5,0.4,2.3c0,0.8-0.1,1.6-0.4,2.3
					c-0.3,0.7-0.7,1.3-1.2,1.8c-0.5,0.5-1.1,0.9-1.8,1.2c-0.7,0.3-1.5,0.4-2.3,0.4c-0.8,0-1.6-0.1-2.3-0.4c-0.7-0.3-1.3-0.7-1.8-1.2
					c-0.5-0.5-0.9-1.1-1.2-1.8C1077.2,1251.7,1077,1250.9,1077,1250.1z M1079.1,1250.1c0,0.6,0.1,1.1,0.3,1.6
					c0.2,0.5,0.4,0.9,0.8,1.3c0.3,0.4,0.7,0.6,1.2,0.8c0.5,0.2,1,0.3,1.5,0.3c0.5,0,1.1-0.1,1.5-0.3s0.9-0.5,1.2-0.8
					c0.3-0.4,0.6-0.8,0.8-1.3c0.2-0.5,0.3-1,0.3-1.6c0-0.6-0.1-1.1-0.3-1.6c-0.2-0.5-0.4-0.9-0.8-1.3c-0.3-0.4-0.7-0.6-1.2-0.8
					c-0.5-0.2-1-0.3-1.5-0.3s-1.1,0.1-1.5,0.3c-0.5,0.2-0.8,0.5-1.2,0.8c-0.3,0.4-0.6,0.8-0.8,1.3
					C1079.2,1249,1079.1,1249.5,1079.1,1250.1z"/>
			</g>
			<g class="st19">
				<path class="st20" d="M1039.4,1264.2h2.4v5.8h0.1l5.6-5.8h3.2l-6.3,6.2l6.7,7.3h-3.4l-5.9-6.8h-0.1v6.8h-2.4V1264.2z"/>
				<path class="st20" d="M1052.5,1264.2h8.9v2.1h-6.5v3.4h6.2v2h-6.2v3.8h6.9v2.1h-9.3V1264.2z"/>
				<path class="st20" d="M1064.2,1264.2h4.4c0.8,0,1.5,0.1,2.1,0.2s1.2,0.4,1.6,0.7c0.4,0.3,0.8,0.7,1,1.2s0.4,1.1,0.4,1.8
					c0,0.8-0.1,1.4-0.4,1.9s-0.7,0.9-1.1,1.2s-1,0.5-1.7,0.7c-0.6,0.1-1.3,0.2-2,0.2h-1.8v5.6h-2.4V1264.2z M1068.3,1270.1
					c0.4,0,0.8,0,1.1-0.1c0.4-0.1,0.7-0.2,1-0.3c0.3-0.1,0.5-0.3,0.7-0.6c0.2-0.3,0.2-0.6,0.2-1c0-0.4-0.1-0.7-0.2-1
					c-0.2-0.2-0.4-0.4-0.7-0.6s-0.6-0.2-0.9-0.3c-0.3,0-0.7-0.1-1.1-0.1h-1.8v3.9H1068.3z"/>
			</g>
		</g>
	</g>
</g>
</svg>
