<?xml version="1.0" encoding="utf-8"?>
<!-- Generator: Adobe Illustrator 22.1.0, SVG Export Plug-In . SVG Version: 6.00 Build 0)  -->
<svg version="1.1" id="Layer_1" xmlns="http://www.w3.org/2000/svg" xmlns:xlink="http://www.w3.org/1999/xlink" x="0px" y="0px"
	 viewBox="0 0 120 120.9" style="enable-background:new 0 0 120 120.9;" xml:space="preserve">
<style type="text/css">
	.st0{enable-background:new    ;}
	.st1{fill:#1F1E1E;}
	.st2{fill:#EBEBEB;}
	.st3{fill:#F5F9FA;}
	.st4{fill:#BDBDBD;}
	.st5{fill:#3D566E;}
	.st6{fill:#9C9C9C;}
	.st7{fill:#E6EAEB;}
	.st8{fill:#ABB3B5;}
	.st9{fill:#BFC7C9;}
	.st10{fill:#C9D2D4;}
	.st11{fill:#FAC13C;}
	.st12{fill:#F5BE3D;}
	.st13{fill:#FFDC6A;}
	.st14{fill:#E6B543;}
	.st15{fill:#D19917;}
</style>
<g id="Group_2430" transform="translate(-36 -107)">
	<g class="st0">
		<path class="st1" d="M83.3,183.7h3.6l3.3,9.1h0.1l3.3-9.1h3.6v12.8h-2.3v-10.3h0l-3.9,10.3h-1.6l-3.8-10.3h0v10.3h-2.2V183.7z"/>
		<path class="st1" d="M103,190.9l-4.8-7.3h2.8l3.2,5.4l3.3-5.4h2.6l-4.8,7.3v5.6H103V190.9z"/>
	</g>
	<g class="st0">
		<path class="st1" d="M44.7,206.8h10.6v2.5h-7.8v4.1h7.4v2.4h-7.4v4.5h8.2v2.5h-11V206.8z"/>
		<path class="st1" d="M63.1,218.4h-5.4v-2.3h5.4V218.4z"/>
		<path class="st1" d="M65.8,206.8h5.7c1,0,2.1,0.1,3.2,0.4c1.1,0.3,2,0.7,2.9,1.3c0.8,0.6,1.5,1.5,2.1,2.5c0.5,1,0.8,2.3,0.8,3.8
			c0,1.4-0.3,2.6-0.8,3.6c-0.5,1-1.2,1.8-2.1,2.5c-0.8,0.7-1.8,1.1-2.9,1.4c-1.1,0.3-2.1,0.5-3.2,0.5h-5.7V206.8z M71,220.3
			c0.7,0,1.5-0.1,2.2-0.3s1.4-0.5,2-0.9c0.6-0.4,1.1-1,1.5-1.7c0.4-0.7,0.6-1.6,0.6-2.7c0-1.1-0.2-2.1-0.6-2.8
			c-0.4-0.7-0.9-1.3-1.5-1.7c-0.6-0.4-1.3-0.7-2-0.8s-1.5-0.2-2.2-0.2h-2.4v11.1H71z"/>
		<path class="st1" d="M83.1,206.8h10.6v2.5h-7.8v4.1h7.4v2.4h-7.4v4.5h8.2v2.5h-11V206.8z"/>
		<path class="st1" d="M96.9,206.8h10.4v2.5h-7.5v4.4h7.1v2.4h-7.1v6.8h-2.9V206.8z"/>
		<path class="st1" d="M113.1,209.3h-4.9v-2.5h12.7v2.5H116v13.6h-2.9V209.3z"/>
		<path class="st1" d="M122.8,206.8h10.6v2.5h-7.8v4.1h7.4v2.4h-7.4v4.5h8.2v2.5h-11V206.8z"/>
		<path class="st1" d="M136.6,206.8h5.6c0.8,0,1.5,0.1,2.2,0.2c0.7,0.2,1.3,0.4,1.9,0.8c0.6,0.4,1,0.8,1.3,1.4
			c0.3,0.6,0.5,1.3,0.5,2.2c0,1.2-0.3,2.1-1,2.8c-0.7,0.7-1.6,1.2-2.7,1.5l4.3,7.1h-3.4l-3.7-6.8h-2.1v6.8h-2.9V206.8z M141.8,213.7
			c0.4,0,0.8,0,1.2-0.1c0.4-0.1,0.8-0.2,1.1-0.3s0.6-0.4,0.8-0.7c0.2-0.3,0.3-0.7,0.3-1.2c0-0.4-0.1-0.8-0.3-1.1s-0.4-0.5-0.7-0.7
			c-0.3-0.2-0.6-0.3-1-0.3c-0.4-0.1-0.8-0.1-1.1-0.1h-2.6v4.5H141.8z"/>
	</g>
</g>
<g id="Group_2420" transform="translate(-406.907 -350.305)">
	<g id="Group_2419" transform="translate(928.907 826.305)">
		<g id="Group_2413" transform="translate(0 0)">
			<path id="Path_4517" class="st2" d="M-486.1-402.9c0.7,0.9,1.5,1.6,2.4,2.3l34.7-20.1c1.5-1,2.5-2.7,2.6-4.5V-463l-9.6-7.4
				l-0.8-0.1l-10.3-0.2l-17.6,10.1c-0.5,0.3-1,0.7-1.4,1.1L-486.1-402.9L-486.1-402.9z"/>
			<path id="Path_4518" class="st3" d="M-452.5-456.1l4.8-2.8c2.4-1.3,3.7-2.5,1.3-4.4l-10.2-7.8l4.1,6.2L-452.5-456.1L-452.5-456.1
				z"/>
			<path id="Path_4519" class="st4" d="M-483.7-400.6l-3.1-1.8l-0.3-0.3l-0.3-0.4l-0.2-0.5l-0.1-0.6v-52.2l0.1-0.3l0.1-0.3l0.1-0.3
				l0.1-0.3l0.2-0.3l0.2-0.3l0.2-0.3l0.2-0.3l0.2-0.3l0.2-0.3l0.2-0.3l0.3-0.2l0.3-0.2l0.3-0.2l19.2-11.1c2.8-1.6,4.3-2.4,7.7-0.8
				c3,1.4,5.1,4.1,5.7,7.3v8.9l-3.3-1.8v-6.7c0.1-3.1-3.4-6.8-8-4.4l-18.1,10.3l-0.3,0.2l-0.3,0.2l-0.3,0.2l-0.2,0.2l-0.2,0.3
				l-0.2,0.3l-0.2,0.3l-0.2,0.3l-0.2,0.3l-0.2,0.3l-0.1,0.3l-0.1,0.3l-0.1,0.3l-0.1,0.3v52.2l0.1,0.6l0.2,0.5l0.3,0.4L-483.7-400.6z
				"/>
			<path id="Path_4521" class="st5" d="M-478.5-440.4l21.9-12.8v1l-21.9,12.8V-440.4z"/>
			<path id="Path_4757" class="st5" d="M-478.5-429.9l21.9-12.8v1l-21.9,12.8V-429.9z"/>
			<path id="Path_4522" class="st5" d="M-478.5-435l23.7-13.7v1l-23.7,13.7V-435z"/>
			<path id="Path_4756" class="st5" d="M-478.5-424.4l23.7-13.7v1l-23.7,13.6V-424.4z"/>
			<path id="Path_4758" class="st5" d="M-478.5-420.3l23.7-13.7v1l-23.7,13.7V-420.3z"/>
			<path id="Path_4523" class="st5" d="M-478.5-415.5l18.7-10.8v1l-18.7,10.9V-415.5z"/>
			<path id="Path_4524" class="st6" d="M-458.7-469.2v-3.3c0.2,0.1,0.3,0.2,0.5,0.2c3,1.4,5.1,4.1,5.7,7.3v8.9l-3.3-1.9v-6.6
				C-455.8-466.5-456.9-468.3-458.7-469.2z"/>
			<path id="Path_4525" class="st6" d="M-483.7-400.6l-3.1-1.8l-0.3-0.3l-0.3-0.4l-0.1-0.5l-0.1-0.6v-51.9l0.1-0.4l0.1-0.3v-0.3
				l3.2,1.8l-0.1,0.3l-0.1,0.3v0.4l-0.1,0.3v51.6l0.1,0.6l0.1,0.5l0.3,0.4L-483.7-400.6z"/>
		</g>
		<g id="Group_2418" transform="translate(30.449 17.295)">
			<path id="Path_4738" class="st7" d="M-481.9-430.9l-0.6-0.3h0.1h0.1h0.1h0.4h0.1h0.1l0.6,0.4h-0.1h-0.1h-0.4h-0.1L-481.9-430.9
				L-481.9-430.9z"/>
			<path id="Path_4739" class="st8" d="M-481-420.9l-0.6-0.3l-5-5.9l0.6,0.3L-481-420.9z"/>
			<path id="Path_4740" class="st8" d="M-486-426.8l-0.6-0.3l1.4-10.8l0.6,0.3L-486-426.8z"/>
			<path id="Path_4741" class="st9" d="M-484.6-437.6l-0.6-0.3l8.1-4.7l0.6,0.3L-484.6-437.6z"/>
			<path id="Path_4742" class="st8" d="M-480.1-421.3l-0.6-0.4v-10l0.6,0.4V-421.3z"/>
			<path id="Path_4743" class="st7" d="M-480.1-431.3l-0.6-0.4l0.1-0.1l0.1-0.1l0.1-0.1l0.1-0.1l0.2-0.2l0.1-0.1l0.1-0.1l0.1-0.2
				l0.6,0.3l-0.1,0.1l-0.1,0.1l-0.1,0.1l-0.1,0.2l-0.1,0.1l-0.1,0.1l-0.1,0.1L-480.1-431.3z"/>
			<path id="Path_4744" class="st8" d="M-479.2-432.5l-0.6-0.3l0.1-0.2l0.2-0.3l0.1-0.2v-0.3l0.1-0.2v-0.2v-0.2v-0.3l0.6,0.4v0.2
				v0.2v0.2v0.2l-0.1,0.3l-0.1,0.2l-0.1,0.2L-479.2-432.5z"/>
			<path id="Path_4745" class="st8" d="M-478.6-434.4l-0.6-0.4v-0.2v-0.2v-0.2l-0.1-0.2v-0.1l-0.1-0.1l-0.1-0.1l-0.1-0.1l0.6,0.3
				l0.1,0.1l0.1,0.1v0.2l0.1,0.2v0.1v0.2v0.2L-478.6-434.4z"/>
			<path id="Path_4746" class="st10" d="M-480.5-435.5c-0.6,0.4-1,0.8-1.4,1.4c-0.3,0.6-0.5,1.2-0.6,1.9c0,0.5,0.2,0.9,0.6,1.2
				c0.3,0.2,0.7,0.2,1,0v10l-5-5.9l1.4-10.8l8.1-4.6l1.4,9.2l-5.1,11.8v-10c0.4-0.3,0.7-0.7,1-1.1c0.3-0.6,0.5-1.2,0.6-1.9
				c0-0.5-0.2-0.9-0.6-1.2C-479.6-435.8-480.1-435.8-480.5-435.5z"/>
			<path id="Path_4747" class="st9" d="M-481.3-447.8c1.6,0,3.1-0.3,4.5-1.1c1.1-0.5,1.8-1.5,1.9-2.6c-0.1-1.1-0.8-2.1-1.9-2.6
				c-1.4-0.8-2.9-1.1-4.5-1.1s-3.1,0.3-4.5,1.1c-1,0.5-1.8,1.5-1.9,2.6c0.1,1.1,0.8,2.1,1.9,2.6
				C-484.4-448.2-482.9-447.8-481.3-447.8z"/>
			<path id="Path_4748" class="st9" d="M-475-440.4V-451v0.1v0.1l0,0v0.1v0.1v0.1v0.1v0.1v0.1v0.1v0.1v0.1v0.1l-0.1,0.1l-0.6,0.1
				h-0.1l-0.1,0.1l-0.1,0.1l-0.1,0.1h-0.1l-0.1,0.1l-0.1,0.1h-0.1l-0.1,0.1l-0.1,0.1h-0.1h-0.1h-0.1l-0.1,0.1h-0.1h-0.1h-0.1h-0.1
				h-0.1h-0.1h-0.1h-0.1l-0.5,0.5h-0.1h-0.1h-0.2h-0.1h-0.1h-0.1h-0.1h-0.1h-0.1h-3.3h-0.1h-0.1h-0.1h-0.1h-0.1h-0.1h-0.1h-0.1h-0.8
				h-0.1h-0.1h-0.1h-0.1h-0.1h-0.1l-0.1-0.1h-0.1h-0.1h-0.1h-0.1h-0.1h-0.1l-0.1-0.1l-0.1-0.1l-0.1-0.1l-0.5-0.6l-0.1-0.1h-0.1
				l-0.1-0.1l-0.1-0.1l0,0l-0.1-0.1l-0.1-0.1v-0.1v-0.1v-0.1v-0.1v-0.1v-0.1v-0.1v-0.1h-0.5v-0.1v-0.1v-0.1v-0.1v10.5
				C-487.2-435.7-475.5-435.7-475-440.4z"/>
			<path id="Path_4749" class="st11" d="M-476.8-449L-476.8-449l0.2-0.1h0.1l0.1-0.1h0.1l0.1-0.1l0.1-0.1h0.1l0.1-0.1v-0.1h0.1
				l0.1-0.1v-0.1l0.1-0.1l0,0v-0.1l0.1-0.1v-0.1v-0.1l0,0v-0.1v-0.1v-0.1v-0.1v-0.1v-0.1v-0.1v-0.2v-0.1v-17.8v0.1v0.2v0.1v0.1v0.1
				v0.1v0.1v0.1v0.1v0.1l0,0v0.1l-0.1,0.1v0.1v0.1h-0.1v0.1l-0.1,0.1l-0.1,0.1l0,0l-0.1,0.1l-0.1,0.1h-0.1l-0.1,0.1h-0.1l-0.1,0.1
				l-0.1,0.1h-0.1l-0.1,0.1h-0.1h-0.1l-0.1,0.1h-0.1h-0.1l-0.1,0.1h-0.1h-0.1h-0.1h-0.1h-0.1h-0.1h-0.1l-0.6,0.7h-0.1h-0.1h-0.1
				h-0.1h-0.3h-0.1h-0.2h-0.1h-0.2h-0.1h-0.5l-0.1,0.3h-1.3h-0.1h-0.5l-0.1-0.1h-0.2h-0.1h-0.2h-0.1h-0.1h-0.2h-0.1h-0.1h-0.2h-0.1
				l-0.2-0.3h-0.1h-0.1l-0.2-0.2h-0.1h-0.1h-0.1l-0.2-0.2h-0.2h-0.1l-0.1-0.2h-0.1h-0.1l-0.2-0.2h-0.1l-0.1-0.1l-0.1-0.1h-0.1
				l-0.1-0.1h-0.1v-0.1l-0.1-0.2h-0.1l-0.1-0.1v-0.1l-0.2-0.1h-0.1v-0.1v-0.1v-0.1l-0.2-0.1l0,0v-0.1v-0.1v-0.1v-0.1v-0.1v-0.1v-0.1
				v-0.1v-0.1v17.6v0.1v0.1v0.1v0.1v0.1v0.1v0.1v0.1l0,0v0.1l0.1,0.1v0.1v0.1l0,0l0.1,0.1l0.1,0.1v0.1h0.1l0.3,0.2l0.1,0.1l0,0
				l0.1,0.1l0.1,0.1h0.1l0.1,0.1h0.1l0.1,0.1h0.1l0.2,0.2h0.1l0.1,0.1h0.1h0.1h0.1l0.1,0.1h0.1h0.1h0.1h0.1h0.1h0.1h0.1h0.1h0.1h0.1
				h0.2h0.1h0.1h0.1h0.1h0.3h0.1h0.3h0.1h2h0.1h0.3h0.1h0.3h0.1h0.1h0.1h0.2h0.1h0.1h0.1l0.4,0.4h0.1h0.1h0.1h0.1h0.1h0.1h0.1
				l0.1-0.1h0.1h0.1h0.1l0.1-0.1h0.1L-476.8-449z"/>
			<path id="Path_4750" class="st12" d="M-481.3-465.5c1.6,0,3.1-0.3,4.5-1.1c1.1-0.5,1.8-1.5,1.9-2.6c-0.2-1.1-0.9-2.1-1.9-2.6
				c-1.4-0.7-3-1.1-4.5-1.1c-1.6,0-3.1,0.3-4.5,1.1c-1.1,0.4-1.8,1.4-1.9,2.6c0.1,1.1,0.8,2.1,1.9,2.6
				C-484.4-465.9-482.9-465.5-481.3-465.5z"/>
			<path id="Path_4751" class="st7" d="M-476.4-449.2L-476.4-449.2l-0.1,0.1l-0.1,0.1l-0.1,0.1h-0.1h-0.1h-0.1l-0.1,0.1h-0.1h-0.1
				h-0.1h-0.1h-0.1h-0.1h-0.1h-0.1l-0.5,0.5h-0.1h-0.1h-0.2h-0.1h-0.1h-0.1l0,0v11c1.1-0.2,2.1-0.6,2.9-1.1L-476.4-449.2
				L-476.4-449.2z"/>
			<path id="Path_4752" class="st13" d="M-476.8-449L-476.8-449l0.2-0.1h0.1l0.1-0.1l0,0v-17.7l0,0l-0.1,0.1l-0.1,0.1h-0.1l-0.1,0.1
				h-0.1h-0.1l-0.1,0.1h-0.1h-0.1l-0.1,0.1h-0.1h-0.1h-0.1h-0.1h-0.1h-0.1h-0.1l-0.6,0.6h-0.1h-0.1h-0.1h-0.1h-0.2v17.6h0.1h0.1h0.1
				h0.1l0.2-0.1h0.1h0.1h0.1h0.1h0.1h0.1h0.1l0.1-0.1h0.1h0.1h0.1l0.1-0.1h0.1L-476.8-449z"/>
			<path id="Path_4753" class="st8" d="M-483.2-448L-483.2-448h-0.2h-0.1h-0.1h-0.1h-0.1h-0.1h-0.2h-0.1h-0.1h-0.1h-0.1h-0.1h-0.1
				l-0.1-0.1h-0.1h-0.1h-0.1h-0.1h-0.1h-0.1l-0.1-0.1l-0.1-0.1l-0.1-0.1l0,0v11c0.9,0.6,2,1,3.1,1.1L-483.2-448L-483.2-448z"/>
			<path id="Path_4754" class="st14" d="M-483.2-465.6L-483.2-465.6h-0.2h-0.2h-0.1h-0.1h-0.2h-0.1h-0.1h-0.1h-0.1l-0.3-0.5h-0.1
				h-0.1h-0.1l-0.2-0.2h-0.2l-0.1-0.1l-0.1-0.1h-0.1h-0.1l-0.2-0.2h-0.1l-0.1-0.1l-0.1-0.1l0,0v17.6l0,0l0.1,0.1h0.1l0.1,0.1h0.1
				l0.2,0.2h0.1l0.1,0.1h0.1h0.1h0.1l0.1,0.1h0.1h0.1h0.1h0.1h0.1h0.1h0.1h0.1h0.1h0.1h0.2h0.1h0.1L-483.2-465.6z"/>
			<path id="Path_4755" class="st15" d="M-481.3-466.5c1.4,0,2.8-0.3,4-1c0.9-0.4,1.6-1.3,1.7-2.3c-0.1-1-0.7-1.9-1.7-2.3
				c-1.2-0.7-2.6-1-4-1s-2.8,0.3-4,1c-0.9,0.4-1.6,1.3-1.7,2.3c0.1,1,0.7,1.9,1.7,2.3C-484.1-466.8-482.7-466.5-481.3-466.5z"/>
		</g>
	</g>
</g>
</svg>
