<?xml version="1.0" encoding="utf-8"?>
<!-- Generator: Adobe Illustrator 22.1.0, SVG Export Plug-In . SVG Version: 6.00 Build 0)  -->
<svg version="1.1" id="Layer_1" xmlns="http://www.w3.org/2000/svg" xmlns:xlink="http://www.w3.org/1999/xlink" x="0px" y="0px"
	 viewBox="0 0 100 100" style="enable-background:new 0 0 100 100;" xml:space="preserve">
<style type="text/css">
	.st0{fill:#BDBDBD;}
	.st1{fill:#E6EAEB;}
	.st2{fill:#676775;}
	.st3{fill:#9C9C9C;}
	.st4{opacity:3.000000e-03;fill:#040507;enable-background:new    ;}
	.st5{opacity:7.000000e-03;fill:#080A0D;enable-background:new    ;}
	.st6{opacity:1.000000e-02;fill:#0B0E14;enable-background:new    ;}
	.st7{opacity:1.300000e-02;fill:#0F131B;enable-background:new    ;}
	.st8{opacity:1.700000e-02;fill:#131822;enable-background:new    ;}
	.st9{opacity:2.000000e-02;fill:#171D29;enable-background:new    ;}
	.st10{opacity:2.300000e-02;fill:#1B2230;enable-background:new    ;}
	.st11{opacity:2.700000e-02;fill:#1F2737;enable-background:new    ;}
	.st12{opacity:3.000000e-02;fill:#232C3F;enable-background:new    ;}
	.st13{opacity:3.300000e-02;fill:#273246;enable-background:new    ;}
	.st14{opacity:3.700000e-02;fill:#2B374D;enable-background:new    ;}
	.st15{opacity:4.000000e-02;fill:#2F3C54;enable-background:new    ;}
	.st16{opacity:4.300000e-02;fill:#34415C;enable-background:new    ;}
	.st17{opacity:4.700000e-02;fill:#384763;enable-background:new    ;}
</style>
<g>
	<g id="Group_2390" transform="translate(107.503 473)">
		<path id="Path_4456" class="st0" d="M-68.9-399.2l-3.9-2.2v-47.2l0.8,0.5l1.6-0.9l1.6-2.6l1.6,0.9l1.7-1l1.6-2.6l1.6,0.9l1.7-1
			l1.6-2.6l1.6,0.9l1.7-1l1.6-2.6l1.6,0.9l1.7-1l1.6-2.6l3.9,2.3l-1.6,2.6l-1.6,0.7l-1.8-0.9l-1.6,2.6l-1.7,1l-1.6-0.9l-1.6,2.6
			l-1.7,1l-1.6-0.9l-1.6,2.6l-1.7,1l-1.6-0.8l-1.6,2.6l-1.6,0.9l-0.8-0.5L-68.9-399.2L-68.9-399.2z M-46.4-462.9L-48-462l3.9,2.2
			l1.5-0.9l0.4-0.6l-3.8-2.2L-46.4-462.9z"/>
		<path id="Path_4457" class="st1" d="M-42.1-450v34.9l-0.4-0.2l-1.5,0.9l-1.6,2.6l-1.6-0.8l-1.7,1.1l-1.6,2.6l-1.6-0.9l-1.7,1.1
			l-1.5,2.6l-1.5-0.9l-1.7,1l-1.6,2.6l-1.6-0.8l-1.7,1l-1.5,2.6l-1.6-0.9l-1.6,0.9l-0.7,1.4v-47.1l0.8,0.5l1.6-0.9l1.6-2.6l1.5,0.9
			l1.7-1l1.6-2.6l1.6,0.9l1.7-1l1.5-2.6l1.6,0.9l1.7-1.1l1.6-2.8l1.6,0.9l1.7-1.1l1.5-2.6l1.6,0.9l1.5-0.9l0.4-0.6L-42.1-450
			L-42.1-450z"/>
		<path id="Path_4458" class="st2" d="M-65.6-428.9l18.7-10.8v0.8L-65.6-428V-428.9z"/>
		<path id="Path_4459" class="st2" d="M-65.6-424.2l20.3-11.7v0.9l-20.3,11.6V-424.2z"/>
		<path id="Path_4460" class="st2" d="M-65.6-419.4l15.9-9.2v0.9l-15.9,9.2C-65.6-418.5-65.6-419.4-65.6-419.4z"/>
		<path id="Path_4461" class="st2" d="M-65.6-408.4l7.9-4.6v0.9l-7.9,4.6V-408.4z"/>
		<path id="Path_4462" class="st2" d="M-49.5-417.6l3.9-2.2v0.8l-3.9,2.3C-49.5-416.7-49.5-417.6-49.5-417.6z"/>
		<path id="Path_4463" class="st2" d="M-65.6-442.8l6.1-3.5v0.9l-6.1,3.5V-442.8z"/>
		<path id="Path_4464" class="st2" d="M-52.2-450.5l6.7-3.9v0.9l-6.7,3.9C-52.2-449.6-52.2-450.5-52.2-450.5z"/>
		<path id="Path_4465" class="st2" d="M-65.6-438.5l11.3-6.6v0.9l-11.3,6.6V-438.5z"/>
		<path id="Path_4466" class="st2" d="M-47.6-449.1l2-1.1v1l-2,1.1C-47.6-448.1-47.6-449.1-47.6-449.1z"/>
		<path id="Path_4467" class="st3" d="M-72.7-448.6v47.2l3.9,2.2v-47.1L-72.7-448.6z"/>
	</g>
	<g id="Group_2432" transform="translate(122.88 541.447)">
		<path id="Path_4484" class="st4" d="M-57.8-472c8.4,4.9,8.4,12.7,0,17.4c-8.4,4.7-21.9,4.9-30.3,0s-8.3-12.6,0.1-17.4
			C-79.6-476.8-66.1-476.9-57.8-472z"/>
		<path id="Path_4485" class="st5" d="M-58.8-471.4c7.8,4.5,7.8,11.8,0,16.3s-20.4,4.5-28.2,0s-7.8-11.8,0-16.3
			S-66.6-476-58.8-471.4z"/>
		<path id="Path_4486" class="st6" d="M-59.8-470.9c7.2,4.2,7.2,10.9,0,15.1c-7.2,4.2-19,4.2-26.1,0c-7.1-4.2-7.2-10.9,0-15.1
			C-78.7-475.1-67-475-59.8-470.9z"/>
		<path id="Path_4487" class="st7" d="M-60.8-470.3c6.7,3.9,6.7,10.1,0,14s-17.5,3.9-24.2,0c-6.7-3.9-6.7-10.1,0-14
			C-78.3-474.2-67.5-474.1-60.8-470.3z"/>
		<path id="Path_4488" class="st8" d="M-61.8-469.7c6.1,3.5,6.1,9.3,0,12.8s-16,3.5-22.1,0c-6.1-3.5-6.1-9.3,0-12.8
			C-77.8-473.2-68-473.2-61.8-469.7z"/>
		<path id="Path_4489" class="st9" d="M-62.9-469.1c5.5,3.2,5.5,8.4,0,11.6c-5.5,3.2-14.6,3.2-20.1,0c-5.5-3.2-5.5-8.3,0.1-11.6
			C-77.4-472.3-68.4-472.3-62.9-469.1z"/>
		<path id="Path_4490" class="st10" d="M-63.9-468.5c5,2.9,5,7.6,0,10.4c-5,2.8-13.1,2.9-18.1,0c-5-2.9-5-7.6,0-10.4
			C-77-471.3-68.9-471.4-63.9-468.5z"/>
		<path id="Path_4491" class="st11" d="M-64.8-467.9c4.4,2.5,4.4,6.7,0,9.3s-11.6,2.5-16,0s-4.4-6.7,0-9.3
			C-76.4-470.5-69.3-470.4-64.8-467.9z"/>
		<path id="Path_4492" class="st12" d="M-65.8-467.3c3.9,2.2,3.9,5.8,0,8.1s-10.1,2.2-14.1,0c-4-2.2-3.9-5.8,0-8.1
			C-76-469.5-69.8-469.5-65.8-467.3z"/>
		<path id="Path_4493" class="st13" d="M-66.9-466.7c3.3,1.9,3.3,5,0,6.9c-3.8,1.9-8.2,1.9-12,0c-3.3-1.9-3.3-5,0-6.9
			C-75.1-468.6-70.7-468.6-66.9-466.7z"/>
		<path id="Path_4494" class="st14" d="M-67.9-466.2c2.8,1.6,2.8,4.2,0,5.8c-3.1,1.6-6.8,1.6-9.9,0c-2.8-1.6-2.8-4.2,0-5.8
			C-74.7-467.7-71-467.7-67.9-466.2z"/>
		<path id="Path_4495" class="st15" d="M-69-465.6c2.2,1.2,2.2,3.3,0,4.6c-2.5,1.2-5.4,1.2-8,0c-2.2-1.2-2.2-3.3,0-4.6
			C-74.4-466.8-71.4-466.8-69-465.6z"/>
		<path id="Path_4496" class="st16" d="M-69.9-465c1.6,0.9,1.6,2.5,0,3.5c-1.9,0.9-4,0.9-5.9,0c-1.6-0.9-1.6-2.5,0-3.5
			C-74-465.9-71.8-465.9-69.9-465z"/>
		<path id="Path_4497" class="st17" d="M-70.9-464.4c0.7,0.2,1,0.9,0.7,1.5c-0.1,0.3-0.4,0.6-0.7,0.7c-1.2,0.6-2.7,0.6-3.9,0
			c-0.7-0.2-1-0.9-0.7-1.5c0.1-0.3,0.4-0.7,0.7-0.7C-73.6-465-72.2-465-70.9-464.4z"/>
	</g>
</g>
</svg>
