<?xml version="1.0" encoding="utf-8"?>
<!-- Generator: Adobe Illustrator 22.1.0, SVG Export Plug-In . SVG Version: 6.00 Build 0)  -->
<svg version="1.1" id="Layer_1" xmlns="http://www.w3.org/2000/svg" xmlns:xlink="http://www.w3.org/1999/xlink" x="0px" y="0px"
	 viewBox="0 0 240.3 96" style="enable-background:new 0 0 240.3 96;" xml:space="preserve">
<style type="text/css">
	.st0{enable-background:new    ;}
	.st1{fill:#1F1E1E;}
	.st2{opacity:3.000000e-03;fill:#040507;enable-background:new    ;}
	.st3{opacity:7.000000e-03;fill:#080A0D;enable-background:new    ;}
	.st4{opacity:1.000000e-02;fill:#0B0E14;enable-background:new    ;}
	.st5{opacity:1.300000e-02;fill:#0F131B;enable-background:new    ;}
	.st6{opacity:1.700000e-02;fill:#131822;enable-background:new    ;}
	.st7{opacity:2.000000e-02;fill:#171D29;enable-background:new    ;}
	.st8{opacity:2.300000e-02;fill:#1B2230;enable-background:new    ;}
	.st9{opacity:2.700000e-02;fill:#1F2737;enable-background:new    ;}
	.st10{opacity:3.000000e-02;fill:#232C3F;enable-background:new    ;}
	.st11{opacity:3.300000e-02;fill:#273246;enable-background:new    ;}
	.st12{opacity:3.700000e-02;fill:#2B374D;enable-background:new    ;}
	.st13{opacity:4.000000e-02;fill:#2F3C54;enable-background:new    ;}
	.st14{opacity:4.300000e-02;fill:#34415C;enable-background:new    ;}
	.st15{opacity:4.700000e-02;fill:#384763;enable-background:new    ;}
	.st16{fill:#2C3E50;}
	.st17{fill:#415A73;}
	.st18{fill:#CCCCCC;}
	.st19{fill:#E6EAEB;}
	.st20{fill:#C43E3F;}
	.st21{fill:#E74C3C;}
</style>
<g id="Group_2694" transform="translate(-589 -710.477)">
	<g id="Group_2508" transform="translate(-19 208.013)">
		<g id="Group_2425" transform="translate(105 -1056.828)">
			<g class="st0">
				<path class="st1" d="M589,1576.2h3.1l2.9,7.8h0l2.8-7.8h3.1v11h-1.9v-8.8h0l-3.3,8.8h-1.4l-3.3-8.8h0v8.8H589V1576.2z"/>
				<path class="st1" d="M605.9,1582.4l-4.1-6.2h2.4l2.8,4.6l2.8-4.6h2.3l-4.1,6.2v4.8h-2V1582.4z"/>
			</g>
			<g class="st0">
				<path class="st1" d="M589.3,1596h2.4v11.6h5.8v2.2h-8.3V1596z"/>
				<path class="st1" d="M597.9,1602.8c0-1.1,0.2-2.1,0.6-3c0.4-0.9,0.9-1.6,1.5-2.3c0.7-0.6,1.4-1.1,2.3-1.4s1.9-0.5,2.9-0.5
					c1.1,0,2.1,0.2,3,0.5s1.7,0.8,2.3,1.4c0.7,0.6,1.2,1.4,1.5,2.3c0.4,0.9,0.6,1.9,0.6,3c0,1.1-0.2,2.1-0.6,2.9
					c-0.4,0.9-0.9,1.6-1.5,2.3c-0.7,0.6-1.4,1.1-2.3,1.5s-1.9,0.5-3,0.5c-1.1,0-2-0.2-2.9-0.5s-1.7-0.9-2.3-1.5
					c-0.7-0.6-1.2-1.4-1.5-2.3C598.1,1604.8,597.9,1603.9,597.9,1602.8z M600.6,1602.8c0,0.7,0.1,1.4,0.3,2c0.2,0.6,0.5,1.1,1,1.6
					c0.4,0.5,0.9,0.8,1.5,1.1c0.6,0.3,1.2,0.4,1.9,0.4s1.3-0.1,1.9-0.4c0.6-0.3,1.1-0.6,1.5-1.1s0.7-1,1-1.6c0.2-0.6,0.3-1.3,0.3-2
					c0-0.7-0.1-1.4-0.3-2s-0.5-1.1-1-1.6c-0.4-0.5-0.9-0.8-1.5-1.1c-0.6-0.3-1.2-0.4-1.9-0.4s-1.4,0.1-1.9,0.4s-1.1,0.6-1.5,1.1
					c-0.4,0.5-0.7,1-1,1.6C600.7,1601.4,600.6,1602.1,600.6,1602.8z"/>
				<path class="st1" d="M615.1,1596h4.8c0.6,0,1.3,0.1,1.9,0.2c0.6,0.1,1.1,0.4,1.6,0.7c0.5,0.3,0.8,0.7,1.1,1.2
					c0.3,0.5,0.4,1.1,0.4,1.8c0,1-0.3,1.8-0.8,2.4c-0.6,0.6-1.3,1-2.3,1.3l3.7,6.1h-2.9l-3.2-5.8h-1.8v5.8h-2.4V1596z M619.5,1601.9
					c0.3,0,0.7,0,1-0.1c0.3-0.1,0.7-0.1,0.9-0.3c0.3-0.1,0.5-0.3,0.7-0.6c0.2-0.3,0.3-0.6,0.3-1c0-0.4-0.1-0.7-0.3-0.9
					s-0.4-0.4-0.6-0.6c-0.3-0.1-0.6-0.2-0.9-0.3c-0.3-0.1-0.6-0.1-1-0.1h-2.2v3.9H619.5z"/>
				<path class="st1" d="M627.3,1596h9.1v2.1h-6.7v3.5h6.3v2.1h-6.3v3.9h7v2.2h-9.4V1596z"/>
				<path class="st1" d="M639.1,1596h3.8l3.6,9.8h0.1l3.5-9.8h3.8v13.7h-2.4v-11h0l-4.2,11h-1.7l-4.1-11h0v11h-2.3V1596z"/>
			</g>
			<g class="st0">
				<path class="st1" d="M589.3,1614.6h2.4v13.7h-2.4V1614.6z"/>
				<path class="st1" d="M594.7,1614.6h4.5c0.8,0,1.5,0.1,2.1,0.2c0.6,0.1,1.2,0.4,1.6,0.7c0.5,0.3,0.8,0.7,1,1.2
					c0.2,0.5,0.4,1.1,0.4,1.8c0,0.8-0.1,1.4-0.4,1.9c-0.3,0.5-0.7,0.9-1.2,1.3c-0.5,0.3-1.1,0.5-1.7,0.7s-1.3,0.2-2.1,0.2h-1.9v5.7
					h-2.4V1614.6z M598.9,1620.6c0.4,0,0.8,0,1.1-0.1c0.4-0.1,0.7-0.2,1-0.3c0.3-0.1,0.5-0.4,0.7-0.6c0.2-0.3,0.3-0.6,0.3-1
					c0-0.4-0.1-0.7-0.3-1c-0.2-0.3-0.4-0.4-0.7-0.6c-0.3-0.1-0.6-0.2-1-0.3c-0.4,0-0.7-0.1-1.1-0.1h-1.8v3.9H598.9z"/>
				<path class="st1" d="M613.6,1617.5c-0.3-0.3-0.6-0.6-1.1-0.8c-0.5-0.2-0.9-0.3-1.4-0.3c-0.3,0-0.6,0-0.9,0.1
					c-0.3,0.1-0.5,0.2-0.8,0.3c-0.2,0.1-0.4,0.3-0.6,0.6c-0.1,0.2-0.2,0.5-0.2,0.9c0,0.3,0.1,0.6,0.2,0.8c0.1,0.2,0.3,0.4,0.5,0.6
					s0.5,0.3,0.8,0.4s0.7,0.2,1.1,0.3c0.4,0.1,0.9,0.3,1.4,0.5c0.5,0.2,0.9,0.4,1.3,0.7c0.4,0.3,0.7,0.7,1,1.1
					c0.3,0.5,0.4,1,0.4,1.7c0,0.7-0.1,1.4-0.4,1.9c-0.3,0.5-0.6,1-1.1,1.4c-0.5,0.4-1,0.6-1.6,0.8c-0.6,0.2-1.2,0.3-1.9,0.3
					c-0.9,0-1.8-0.2-2.6-0.5c-0.9-0.3-1.6-0.8-2.1-1.5l1.7-1.6c0.3,0.5,0.8,0.8,1.3,1.1s1.1,0.4,1.7,0.4c0.3,0,0.6,0,0.9-0.1
					c0.3-0.1,0.6-0.2,0.8-0.4s0.4-0.4,0.6-0.6c0.1-0.3,0.2-0.6,0.2-0.9c0-0.4-0.1-0.7-0.3-0.9s-0.4-0.4-0.7-0.6
					c-0.3-0.2-0.6-0.3-1-0.5c-0.4-0.1-0.8-0.3-1.2-0.4c-0.4-0.1-0.8-0.3-1.2-0.5c-0.4-0.2-0.8-0.4-1.1-0.7c-0.3-0.3-0.6-0.7-0.8-1.1
					c-0.2-0.4-0.3-1-0.3-1.6c0-0.7,0.1-1.3,0.4-1.8c0.3-0.5,0.7-0.9,1.1-1.3c0.5-0.3,1-0.6,1.6-0.7c0.6-0.2,1.2-0.2,1.8-0.2
					c0.7,0,1.4,0.1,2.1,0.4c0.7,0.2,1.3,0.6,1.9,1.1L613.6,1617.5z"/>
				<path class="st1" d="M628.6,1623.3c0,0.8-0.1,1.6-0.4,2.2c-0.3,0.7-0.7,1.2-1.2,1.7s-1.1,0.8-1.7,1.1c-0.7,0.3-1.4,0.4-2.2,0.4
					c-0.8,0-1.5-0.1-2.2-0.4c-0.7-0.3-1.3-0.6-1.8-1.1c-0.5-0.5-0.9-1-1.2-1.7c-0.3-0.7-0.4-1.4-0.4-2.2v-8.7h2.4v8.6
					c0,0.4,0.1,0.8,0.2,1.2s0.3,0.7,0.5,1.1s0.6,0.6,1,0.8c0.4,0.2,0.9,0.3,1.5,0.3c0.6,0,1.1-0.1,1.5-0.3c0.4-0.2,0.7-0.4,1-0.8
					s0.4-0.7,0.5-1.1s0.2-0.8,0.2-1.2v-8.6h2.4V1623.3z"/>
				<path class="st1" d="M631.5,1614.6h3.8l3.6,9.8h0.1l3.5-9.8h3.8v13.7h-2.4v-11h0l-4.2,11H638l-4.1-11h0v11h-2.3V1614.6z"/>
				<path class="st1" d="M654.2,1614.6h4.9c0.9,0,1.8,0.1,2.7,0.3c0.9,0.2,1.7,0.6,2.4,1.2c0.7,0.5,1.3,1.2,1.8,2.1
					c0.5,0.9,0.7,2,0.7,3.2c0,1.2-0.2,2.2-0.7,3.1c-0.5,0.9-1,1.6-1.8,2.1c-0.7,0.6-1.5,1-2.4,1.2c-0.9,0.3-1.8,0.4-2.7,0.4h-4.9
					V1614.6z M658.7,1626.2c0.6,0,1.3-0.1,1.9-0.2c0.6-0.1,1.2-0.4,1.7-0.8s0.9-0.8,1.3-1.4c0.3-0.6,0.5-1.4,0.5-2.3
					c0-1-0.2-1.8-0.5-2.4c-0.3-0.6-0.7-1.1-1.3-1.5c-0.5-0.3-1.1-0.6-1.7-0.7c-0.6-0.1-1.3-0.2-1.9-0.2h-2v9.5H658.7z"/>
				<path class="st1" d="M668.4,1621.4c0-1.1,0.2-2.1,0.6-3c0.4-0.9,0.9-1.6,1.5-2.3c0.7-0.6,1.4-1.1,2.3-1.4
					c0.9-0.3,1.9-0.5,2.9-0.5c1.1,0,2.1,0.2,3,0.5c0.9,0.3,1.7,0.8,2.3,1.4c0.7,0.6,1.2,1.4,1.5,2.3c0.4,0.9,0.6,1.9,0.6,3
					c0,1.1-0.2,2.1-0.6,2.9c-0.4,0.9-0.9,1.6-1.5,2.3c-0.7,0.6-1.4,1.1-2.3,1.5c-0.9,0.4-1.9,0.5-3,0.5c-1.1,0-2-0.2-2.9-0.5
					c-0.9-0.4-1.7-0.9-2.3-1.5c-0.7-0.6-1.2-1.4-1.5-2.3C668.6,1623.5,668.4,1622.5,668.4,1621.4z M671.1,1621.4
					c0,0.7,0.1,1.4,0.3,2c0.2,0.6,0.5,1.1,1,1.6s0.9,0.8,1.5,1.1s1.2,0.4,1.9,0.4s1.3-0.1,1.9-0.4s1.1-0.6,1.5-1.1s0.7-1,1-1.6
					c0.2-0.6,0.3-1.3,0.3-2c0-0.7-0.1-1.4-0.3-2s-0.5-1.1-1-1.6c-0.4-0.5-0.9-0.8-1.5-1.1s-1.2-0.4-1.9-0.4s-1.4,0.1-1.9,0.4
					s-1.1,0.6-1.5,1.1c-0.4,0.5-0.7,1-1,1.6C671.2,1620,671.1,1620.7,671.1,1621.4z"/>
				<path class="st1" d="M685.5,1614.6h2.4v11.6h5.8v2.2h-8.3V1614.6z"/>
				<path class="st1" d="M694.2,1621.4c0-1.1,0.2-2.1,0.6-3c0.4-0.9,0.9-1.6,1.5-2.3c0.7-0.6,1.4-1.1,2.3-1.4
					c0.9-0.3,1.9-0.5,2.9-0.5c1.1,0,2.1,0.2,3,0.5c0.9,0.3,1.7,0.8,2.3,1.4c0.7,0.6,1.2,1.4,1.5,2.3c0.4,0.9,0.6,1.9,0.6,3
					c0,1.1-0.2,2.1-0.6,2.9c-0.4,0.9-0.9,1.6-1.5,2.3c-0.7,0.6-1.4,1.1-2.3,1.5c-0.9,0.4-1.9,0.5-3,0.5c-1.1,0-2-0.2-2.9-0.5
					c-0.9-0.4-1.7-0.9-2.3-1.5c-0.7-0.6-1.2-1.4-1.5-2.3C694.4,1623.5,694.2,1622.5,694.2,1621.4z M696.8,1621.4
					c0,0.7,0.1,1.4,0.3,2c0.2,0.6,0.5,1.1,1,1.6s0.9,0.8,1.5,1.1s1.2,0.4,1.9,0.4s1.3-0.1,1.9-0.4s1.1-0.6,1.5-1.1s0.7-1,1-1.6
					c0.2-0.6,0.3-1.3,0.3-2c0-0.7-0.1-1.4-0.3-2s-0.5-1.1-1-1.6c-0.4-0.5-0.9-0.8-1.5-1.1s-1.2-0.4-1.9-0.4s-1.4,0.1-1.9,0.4
					s-1.1,0.6-1.5,1.1c-0.4,0.5-0.7,1-1,1.6C697,1620,696.8,1620.7,696.8,1621.4z"/>
				<path class="st1" d="M711.3,1614.6h4.8c0.6,0,1.3,0.1,1.9,0.2c0.6,0.1,1.1,0.4,1.6,0.7c0.5,0.3,0.8,0.7,1.1,1.2
					c0.3,0.5,0.4,1.1,0.4,1.8c0,1-0.3,1.8-0.8,2.4c-0.6,0.6-1.3,1-2.3,1.3l3.7,6.1h-2.9l-3.2-5.8h-1.8v5.8h-2.4V1614.6z
					 M715.8,1620.5c0.3,0,0.7,0,1-0.1c0.3-0.1,0.7-0.1,0.9-0.3c0.3-0.1,0.5-0.3,0.7-0.6c0.2-0.3,0.3-0.6,0.3-1
					c0-0.4-0.1-0.7-0.3-0.9s-0.4-0.4-0.6-0.6c-0.3-0.1-0.6-0.2-0.9-0.3c-0.3-0.1-0.6-0.1-1-0.1h-2.2v3.9H715.8z"/>
			</g>
		</g>
		<g id="Group_2511" transform="translate(608.002 502.384)">
			<g id="Group_2509" transform="translate(-0.002 58.388)">
				<path id="Path_5091" class="st2" d="M71.5-0.5c12.2,7,12.2,18.5,0,25.6s-32,7-44.3,0S15,6.7,27.2-0.5S59.2-7.5,71.5-0.5z"/>
				<path id="Path_5092" class="st3" d="M70,0.4C81.5,7,81.5,17.7,70,24.2s-29.9,6.6-41.3,0s-11.4-17.3,0-23.8S58.6-6.2,70,0.4z"/>
				<ellipse id="Ellipse_80" class="st4" cx="49.3" cy="12.3" rx="27.1" ry="15.7"/>
				<ellipse id="Ellipse_81" class="st5" cx="49.3" cy="12.3" rx="25" ry="14.4"/>
				<path id="Path_5093" class="st6" d="M65.5,2.9c9,5.2,9,13.6,0,18.7s-23.5,5.2-32.4,0s-9-13.6,0-18.7S56.6-2.2,65.5,2.9z"/>
				<path id="Path_5094" class="st7" d="M64.1,3.8c8.1,4.7,8.1,12.3,0,17s-21.3,4.7-29.4,0s-8.1-12.3,0-17S55.9-0.9,64.1,3.8z"/>
				<path id="Path_5095" class="st8" d="M62.6,4.7c7.3,4.2,7.3,11.1,0,15.3s-19.2,4.2-26.4,0s-7.3-11,0-15.3S55.3,0.5,62.6,4.7z"/>
				<path id="Path_5096" class="st9" d="M61.1,5.6c6.5,3.7,6.5,9.8,0,13.6s-17,3.7-23.5,0s-6.5-9.8,0-13.6S54.6,1.7,61.1,5.6z"/>
				<path id="Path_5097" class="st10" d="M59.6,6.4c5.7,3.3,5.7,8.6,0,11.9s-14.8,3.3-20.5,0s-5.7-8.6,0-11.9S53.9,3.1,59.6,6.4z"/>
				<path id="Path_5098" class="st11" d="M58.1,7.3c4.8,2.8,4.8,7.4,0,10.2s-12.7,2.8-17.5,0s-4.8-7.4,0-10.2S53.3,4.5,58.1,7.3z"/>
				<path id="Path_5099" class="st12" d="M56.6,8.1c4.1,2.3,4.1,6.1,0,8.4S46,18.8,42,16.5s-4.1-6.1,0-8.4S52.6,5.7,56.6,8.1z"/>
				<path id="Path_5100" class="st13" d="M55.2,8.9c3.2,1.9,3.2,4.8,0,6.7c-3.6,1.9-8,1.9-11.6,0c-3.2-1.9-3.2-4.8,0-6.7
					C47.2,7.1,51.5,7.1,55.2,8.9z"/>
				<path id="Path_5101" class="st14" d="M53.7,9.8c2.4,1.4,2.4,3.6,0,5c-2.7,1.4-5.9,1.4-8.6,0c-2.4-1.4-2.4-3.6,0-5
					C47.7,8.4,50.9,8.4,53.7,9.8z"/>
				<path id="Path_5102" class="st15" d="M52.2,10.6c1.6,0.9,1.6,2.4,0,3.3c-1.8,0.9-3.9,0.9-5.7,0c-1.6-0.9-1.6-2.4,0-3.3
					C48.3,9.7,50.4,9.7,52.2,10.6z"/>
			</g>
			<g id="Group_2510" transform="translate(12.184 0.08)">
				<path id="Path_5103" class="st16" d="M20.8,63.9L15.7,61h-0.1l-0.1-0.1l-0.1-0.1v-0.1l-0.1-0.2v-0.2v-0.2V60V19v-0.1v-0.1
					l0.1-0.1l0.1-0.1l0.1-0.1l0.1-0.1l0.1-0.1l0.1-0.1l0.1-0.1l0.1-0.1l0.1-0.1l0.1-0.1l0.1-0.1l0.1-0.1l0.1-0.1l0.1-0.1l0.1-0.1
					l0.1-0.1h0.3l0.1-0.1l0.1-0.1l0.1-0.1l0.1-0.1l0.1-0.1l0.1-0.1h0.1H18h0.1L23,20l0,0h-0.1h-0.1l-0.1,0.1l-0.1,0.1l-0.1,0.1
					l-0.1,0.1l-0.1,0.1L22,20.4l0,0.1l0,0l-0.1,0.1l-0.1,0.1l-0.1,0.1l-0.1,0.1h-0.3L21.2,21h-0.1L21,21.1l-0.1,0.1l-0.1,0.1
					l-0.1,0.1l-0.1,0.1l-0.1,0.1l-0.2,0.1v0.1v0.1V22v33.7l32-18.4l0.1-0.1h0.1h0.1h0.1l5.1,2.9h-0.1h-0.1h-0.1l-0.1,0.1L23.1,59.8
					l-2.8-1.6V63v0.2v0.2v0.2l0.1,0.1l0.1,0.1l0.1,0.1L20.8,63.9L20.8,63.9z"/>
				<path id="Path_5104" class="st17" d="M21.8,63.9c-0.4,0.3-0.9,0.3-1.3-0.1c-0.2-0.2-0.3-0.4-0.2-0.7V22c0-0.3,0.2-0.6,0.5-0.8
					c0.6-0.3,1.3-0.7,1.9-1.1c0.3-0.2,0.5,0,0.5,0.3v39.5L57.4,40c0.3-0.2,0.5,0,0.5,0.3v2.1c0,0.3-0.2,0.6-0.5,0.8L21.8,63.9z"/>
				<path id="Path_5105" class="st18" d="M23.1,27.2v-0.9l22.7-13.1l0.6,0.6L23.1,27.2z"/>
				<path id="Path_5106" class="st19" d="M46.5,43.8L23.1,57.2v-30l23.3-13.4L46.5,43.8L46.5,43.8z"/>
				<path id="Path_5107" class="st20" d="M26.1,51.7l-1.9-1.1l-0.1-0.1H24v0l-0.1-0.1l-0.1-0.1v-0.1V50v-0.2v-0.2v-0.2v-0.2V49
					l0.1-0.2l0.1-0.2l0.1-0.2l7-14.4l0.1-0.2l0.1-0.2l0.1-0.2l0.1-0.2l0.1-0.1l0.1-0.1l0.1-0.1l0.1-0.1l0.1-0.1l0.1-0.1L32,33
					l0.1-0.1l0.1-0.1l0.1-0.1l0.1-0.1l0.1-0.1l7.4-4.2l3.2-8.6l1.9,1.1l-3.3,8.6l-7.4,4.2l-0.1,0.1L34,33.8l-0.1,0.1L34,34l-0.1,0.1
					l-0.1,0.1l-0.1,0.1l-0.2,0.2l-0.1,0.1l-0.1,0.1l-0.1,0.1l-0.1,0.1l0,0.1L33,35.2v0.1l-0.1,0.2l-7,14.3l0,0.2l-0.1,0.2l-0.1,0.2
					v0.2v0.2V51v0v0.2v0.2v0.1l0.1,0.1l0.1,0.1l0.1,0.1L26.1,51.7L26.1,51.7L26.1,51.7z M48.7,24.7l-1.9-1.1l-0.2-0.1l-0.2-0.2
					L46.3,23v-0.3l-0.1-2.5l1.9,1.1l0.1,2.5v0.3l0.1,0.3l0.1,0.2L48.7,24.7L48.7,24.7z M41.5,23.8L41.5,23.8l-0.2-0.2l-0.1-0.1
					l-0.5-0.9v-0.1v-0.1v-0.2V22v0v-0.2v-0.2v-0.2l0.1-0.2l0.1-0.2l0.1-0.2l0.1-0.2l0.1-0.2l0.1-0.2l0.1-0.2l0.1-0.2l0.3-0.3
					l0.3-0.3l0.3-0.3l0.3-0.3l0.3-0.3l0.3-0.3l0.3-0.3l0.3-0.3l0.3-0.3l0.3-0.3l0.3-0.3l0.3-0.3l0.3-0.3l0.1-0.6l0.3-0.3l0.3-0.3
					l0.3-0.3l0.3-0.3l0.3-0.5l0.3-0.3l0.3-0.3l0.3-0.3l0.3-0.3l0.3-0.3l0.3-0.3l0.3-0.3l0.2-0.6l0.3-0.4l0.3-0.3l0.3-0.3l0.3-0.3
					l0.3-0.4l-1.9-1.1l-0.3,0.3l-0.3,0.4L48,9.1l-0.3,0.3l-0.3,0.3L47.1,10l-0.3,0.3l-0.3,0.3l0.5,0.1L46.6,11l-0.3,0.3L46,11.6
					l-0.3,0.3l-0.3,0.3L45,12.9l-0.3,0.3l-0.3,0.3L44,13.9l-0.3,0.3l-0.3,0.3L43,14.9l-0.3,0.3l-0.3,0.3L42,16l-0.3,0.7L41.4,17
					L41,17.3l-0.3,0.4L40.4,18l-0.3,0.3l-0.3,0.3l-0.3,0.3l-0.1,0.2l-0.1,0.2l-0.1,0.2l-0.1,0.2L39,20l-0.1,0.2l-0.1,0.2l-0.1,0.2
					v0.2V21v0v0.2v0.2v0.2v0.1l0.1,0.1l0.5,0.9l0.1,0.1l0.1,0.1l0.1,0.1L41.5,23.8z"/>
				<path id="Path_5108" class="st21" d="M26,49.9l7-14.4c0.2-0.3,0.4-0.7,0.7-1s0.5-0.5,0.8-0.7l7.4-4.2l3.2-8.6L43,23.3
					c-0.7,0.8-1.4,0.8-1.7,0.3l-0.5-0.9c-0.3-0.8,0-1.7,0.6-2.4l10.4-12c0.2,4.4,0.3,8.8,0.4,13.2c0,0.9-0.5,1.8-1.3,2.3l-1.2,0.8
					c-0.7,0.4-1.4,0.2-1.4-0.7l-0.1-2.5l-3.8,9.9c-0.2,0.4-0.4,0.8-0.7,1.1s-0.6,0.6-0.9,0.8l-7.5,4.3L29,50.8
					c-0.4,0.9-1.3,1.5-1.8,1.4l-0.9-0.3C25.7,51.7,25.5,50.7,26,49.9z"/>
			</g>
		</g>
	</g>
</g>
</svg>
