<?xml version="1.0" encoding="utf-8"?>
<!-- Generator: Adobe Illustrator 22.1.0, SVG Export Plug-In . SVG Version: 6.00 Build 0)  -->
<svg version="1.1" id="Layer_1" xmlns="http://www.w3.org/2000/svg" xmlns:xlink="http://www.w3.org/1999/xlink" x="0px" y="0px"
	 viewBox="0 0 100 100" style="enable-background:new 0 0 100 100;" xml:space="preserve">
<style type="text/css">
	.st0{opacity:3.000000e-03;fill:#040507;enable-background:new    ;}
	.st1{opacity:7.000000e-03;fill:#080A0D;enable-background:new    ;}
	.st2{opacity:1.000000e-02;fill:#0B0E14;enable-background:new    ;}
	.st3{opacity:1.300000e-02;fill:#0F131B;enable-background:new    ;}
	.st4{opacity:1.700000e-02;fill:#131822;enable-background:new    ;}
	.st5{opacity:2.000000e-02;fill:#171D29;enable-background:new    ;}
	.st6{opacity:2.300000e-02;fill:#1B2230;enable-background:new    ;}
	.st7{opacity:2.700000e-02;fill:#1F2737;enable-background:new    ;}
	.st8{opacity:3.000000e-02;fill:#232C3F;enable-background:new    ;}
	.st9{opacity:3.300000e-02;fill:#273246;enable-background:new    ;}
	.st10{opacity:3.700000e-02;fill:#2B374D;enable-background:new    ;}
	.st11{opacity:4.000000e-02;fill:#2F3C54;enable-background:new    ;}
	.st12{opacity:4.300000e-02;fill:#34415C;enable-background:new    ;}
	.st13{opacity:4.700000e-02;fill:#384763;enable-background:new    ;}
	.st14{fill:#2C3E50;}
	.st15{fill:#34485C;}
	.st16{fill:#849CC9;}
	.st17{fill:#3D566E;}
	.st18{fill:#5E5E69;}
	.st19{fill:#737380;}
	.st20{fill:#80808F;}
	.st21{fill:#A6AEB3;}
	.st22{fill:#E6EAEB;}
	.st23{fill:#676775;}
	.st24{fill:#B4CCFA;}
	.st25{fill:#CCCCCC;}
	.st26{fill:#E6E6E6;}
</style>
<g id="Group_2410" transform="translate(606.283 509.198)">
	<g id="Group_2405" transform="translate(-0.038 51.525)">
		<path id="Path_4683" class="st0" d="M-531.5-502.4c13.7,7.9,13.7,20.7,0,28.6c-13.7,7.9-35.9,7.9-49.6,0s-13.6-20.7,0.2-28.6
			C-567.3-510.3-545.2-510.3-531.5-502.4z"/>
		<path id="Path_4684" class="st1" d="M-533.1-501.3c12.7,7.4,12.7,19.4,0,26.7c-12.7,7.4-33.5,7.4-46.2,0
			c-12.7-7.4-12.8-19.4,0-26.7C-566.6-508.8-545.9-508.8-533.1-501.3z"/>
		<path id="Path_4685" class="st2" d="M-534.8-500.4c11.8,6.8,11.8,17.9,0,24.8c-11.8,6.8-31.1,6.8-42.9,0
			c-11.8-6.8-11.8-17.9,0-24.8C-565.9-507.3-546.6-507.3-534.8-500.4z"/>
		<ellipse id="Ellipse_53" class="st3" cx="-556.2" cy="-488" rx="28" ry="16.2"/>
		<path id="Path_4686" class="st4" d="M-538.1-498.5c10,5.8,10,15.2,0,21c-10,5.8-26.2,5.8-36.3,0c-10-5.8-10-15.2,0-21
			C-564.4-504.3-548.1-504.3-538.1-498.5z"/>
		<path id="Path_4687" class="st5" d="M-539.7-497.5c9.1,5.3,9.1,13.8,0,19c-9.1,5.2-23.9,5.3-32.9,0c-9.1-5.3-9.1-13.8,0-19
			C-563.6-502.8-548.8-502.8-539.7-497.5z"/>
		<path id="Path_4688" class="st6" d="M-541.4-496.6c8.2,4.7,8.2,12.4,0,17.1c-8.2,4.7-21.5,4.7-29.6,0c-8.1-4.7-8.2-12.4,0-17.1
			C-562.8-501.3-549.6-501.3-541.4-496.6z"/>
		<path id="Path_4689" class="st7" d="M-543.1-495.6c7.3,4.2,7.3,11,0,15.2c-7.3,4.2-19,4.2-26.3,0s-7.3-11,0-15.2
			C-562.2-499.8-550.3-499.8-543.1-495.6z"/>
		<path id="Path_4690" class="st8" d="M-544.8-494.6c6.3,3.7,6.3,9.6,0,13.3s-16.7,3.7-23,0s-6.3-9.6,0-13.3
			C-561.5-498.3-551.1-498.3-544.8-494.6z"/>
		<path id="Path_4691" class="st9" d="M-546.4-493.8c5.4,3.2,5.4,8.2,0,11.4c-5.4,3.2-14.2,3.2-19.6,0c-5.4-3.2-5.4-8.2,0-11.4
			C-560.7-496.8-551.8-496.8-546.4-493.8z"/>
		<path id="Path_4692" class="st10" d="M-548.1-492.7c4.6,2.6,4.6,6.8,0,9.5c-4.6,2.7-11.8,2.6-16.3,0s-4.6-6.8,0-9.5
			C-559.8-495.4-552.6-495.3-548.1-492.7z"/>
		<path id="Path_4693" class="st11" d="M-549.7-491.8c3.6,2.1,3.6,5.4,0,7.5c-4.1,2.1-8.9,2.1-13.1,0c-3.6-2.1-3.6-5.4,0-7.5
			C-558.7-493.9-553.8-493.9-549.7-491.8z"/>
		<path id="Path_4694" class="st12" d="M-551.4-490.8c2.6,1.5,2.6,4,0,5.6c-3.1,1.5-6.7,1.5-9.7,0c-2.6-1.5-2.6-4,0-5.6
			C-558.1-492.4-554.4-492.4-551.4-490.8z"/>
		<path id="Path_4695" class="st13" d="M-553.1-489.9c1.8,1.1,1.8,2.6,0,3.7c-2,1.1-4.4,1.1-6.4,0c-1.8-1.1-1.8-2.6,0-3.7
			C-557.4-490.9-555.1-490.9-553.1-489.9z"/>
	</g>
	<g id="Group_2409" transform="translate(2.495)">
		<g id="Group_2406" transform="translate(0.014 23.511)">
			<path id="Path_4696" class="st14" d="M-526.3-504.8v12.3l-0.1,0.4l-0.2,0.4l-0.4,0.4l-0.5,0.3v-12.3l0.5-0.4l0.4-0.3l0.2-0.4
				L-526.3-504.8z"/>
			<path id="Path_4697" class="st14" d="M-527.5-503.2v12.3l-1.1,0.6l-1.1,0.6l-1.1,0.6l-1.1,0.6l-1.1,0.6l-1.1,0.6l-1,0.6l-0.8,0.7
				l-1.1,0.6l-1,0.5l-1.1,0.5l-1,0.6l-1,0.5l-1,0.6l-1,0.5l-1,0.6l-1,0.5l-1,0.6l-1,0.5l-1,0.6l-1,0.5l-1,0.6l-1,0.6l-1.1,0.6
				l-1,0.5l-1.1,0.6l-1.1,0.6l-1.1,0.6l-1.1,0.6l-1.2,0.5l-1.1,0.6l-1.1,0.6l0.5,0.6l-0.4,0.2l-0.4,0.1h-0.2h-0.4l-0.4,0.1l-0.4,0.1
				h-0.7l-0.4-0.1l-0.4-0.1h-0.3l-0.4-0.1l-0.3-0.1l-0.3-0.1l-0.3-0.2l-0.9-0.5l-0.8-0.5l-0.9-0.5l-0.9-0.5l-0.8-0.5l-0.8-0.4
				l-0.8-0.4l-0.7-0.6l-0.8-0.4l-0.7-0.4l-0.7-0.4l-0.7-0.4l-0.7-0.4l-0.7-0.4l-0.7-0.4l-0.7-0.4l-0.7-0.4l-0.7-0.2l-0.7-0.6
				l-0.7-0.4l-0.7-0.4l-0.7-0.4l-0.8-0.4l-0.7-0.4l-0.8-0.6l-0.8-0.4l-0.8-0.4l-0.8-0.4l-0.9-0.5l-0.9-0.5l-0.9-0.5l-1-0.5l-0.5-0.4
				l-0.4-0.4l-0.2-0.4v-0.4v-12.4l0.3,0.5l0.2,0.4l0.3,0.3l0.5,0.3l1,0.5l0.9,0.5l0.9,0.5l0.9,0.5l0.9,0.4l0.8,0.4l0.6,0.4l0.7,0.4
				l0.8,0.4l0.7,0.4l0.7,0.4l0.7,0.4l0.7,0.4l0.7,0.4l0.7,0.4l0.7,0.4l0.7,0.4l0.7,0.4l0.7,0.4l0.7,0.4l0.7,0.4l0.7,0.4l0.7,0.4
				l0.7,0.4l0.8,0.4l0.8,0.4l0.8,0.5l0.8,0.4l0.9,0.5l0.9,0.5l0.9,0.5l0.9,0.5l0.3,0.2l0.4,0.2l0.3,0.1l0.4,0.1l0.4,0.1l0.4,0.1h0.4
				l0.4,0.1l0.4-0.1h0.4l0.4-0.1l0.4-0.1l0.4-0.1l0.4-0.1l0.4-0.2l0.3-0.2l1.1-0.6l1.1-0.6l1.1-0.6l1.1-0.6l1.1-0.6l1.1-0.6l1.1-0.6
				l1-0.6l1.1-0.6l1-0.5l1-0.6l1-0.6l1-0.5l1-0.6l1-0.5l1-0.6l1-0.5l1-0.6l1-0.5l1.6-0.2l1-0.5l1-0.6l1-0.6l1.1-0.6l-0.8-0.6l1-0.6
				l1.1-0.6l1.1-0.6l1.1-0.5l0.9-0.7l1.1-0.6L-527.5-503.2z"/>
		</g>
		<path id="Path_4698" class="st15" d="M-557.7-497.2c1.8-0.9,3.8-0.9,5.5,0c10,5.8,14.7,8.5,24.7,14.3c1.5,0.9,1.5,2.3,0,3.2
			c-11.9,6.8-20.9,12.1-32.7,18.9c-1.8,0.9-3.8,0.9-5.5,0c-9.9-5.7-14.8-8.6-24.7-14.3c-1.5-0.9-1.5-2.3,0-3.2
			C-584.9-481.5-570-490.1-557.7-497.2z"/>
		<path id="Path_4699" class="st16" d="M-554.4-493.4c1.8,1,1.4,0.9,3.2,1.8c0.3,0.2,0.3,0.4,0,0.5l-14.8,8.5
			c-0.3,0.2-0.6,0.2-0.9,0l-3.2-1.8c-0.3-0.2-0.3-0.4,0-0.5l14.8-8.6C-554.9-493.6-554.7-493.5-554.4-493.4z"/>
		<path id="Path_4700" class="st17" d="M-527.5-467.4l-1.1,0.6l-1.1,0.6l-1.1,0.6l-1,0.6l-1.1,0.6l-1.1,0.6l-1,0.6l-1.1,0.6
			l-1.1,0.6l-1,0.5l-1,0.6l-1,0.6l-1,0.5l-1,0.6l-1,0.5l-1,0.6l-1,0.5l-1,0.6l-1,0.5l-1.1,0.4l-1,0.5l-1.1,0.6l-1,0.6l-1.1,0.6
			l-1,0.5l-1.1,0.6l-1.1,0.6l-0.2,1.1l-1.1,0.6l-1.1,0.6l-1.1,0.6l-1.1,0.6l-0.3,0.2l-0.4,0.2l-0.4,0.1l-0.4,0.1l0,0l-0.4,0.1
			l-0.4,0.1h-0.4v-12.3l0.4-0.1h0.4l0.4-0.1l0.4-0.1l0.4-0.1l0.4-0.1l0.4-0.2l0.3-0.2l1.1-0.6l1.1-0.6l1.1-0.6l1.1-0.6l1.1-0.6
			l1.1-0.6l1.1-0.6l1-0.6l1.1-0.6l1-0.5l1-0.6l1-0.6l1-0.5l1-0.6l1-0.5l1-0.6l1-0.5l1-0.6l1-0.5l1-0.6l1-0.5l1-0.6l1-0.6l1.1-0.6
			l1.1-0.5l1-0.6l1.1-0.6l1.1-0.6l1.1-0.6l1.1-0.6l1.1-0.6l1.1-0.6l0.5-0.4l0.4-0.4l0.2-0.4l0.1-0.4v12.3l0.2,0.4l-0.2,0.4l-0.4,0.4
			L-527.5-467.4z"/>
		<path id="Path_4701" class="st18" d="M-588-476.9v1.7l1.8,1v-1.7L-588-476.9z"/>
		<path id="Path_4702" class="st19" d="M-586.3-475.9v1.7l12.9-7.5v-1.7L-586.3-475.9z"/>
		<path id="Path_4703" class="st20" d="M-575-484.5l-13,7.5l1.8,1l13-7.5L-575-484.5z"/>
		<g id="Group_2407" transform="translate(7.084)">
			<path id="Path_4704" class="st21" d="M-591.5-473.8l-1-0.6v-21l0.4,0.2l0.7-0.4l0.7-1.2l0.7,0.4l0.8-0.4l0.7-1.2l0.6,0.4l0.8-0.4
				l0.6-1.2l0.7,0.4l0.8-0.4l0.7-1.1l0.7,0.4l0.8-0.4l0.7-1.1l0.6,0.1l0.7-0.4l0.2-0.3l1,0.6l-0.2,0.3l-0.7,0.3l-0.7-0.4l-0.7,1.2
				l-0.8,0.4l-0.7-0.4l-0.6,1.2l-0.8,0.4l-0.7-0.2l-0.7,1.1l-0.8,0.5l-0.6-0.4l-0.7,1.1l-0.8,0.4l-0.7-0.4l-0.7,1.3l-0.7,0.4
				l-0.3-0.2V-473.8L-591.5-473.8z"/>
			<path id="Path_4705" class="st22" d="M-579.7-496.4v15.5l-0.2-0.1l-0.6,0.4l-0.7,1.1l-0.7-0.4l-0.8,0.4l-0.7,1.1l-0.7-0.4
				l-0.8,0.4l-0.6,1.5l-0.7-0.4l-0.7,0.4l-0.8,1.1l-0.7-0.2l-0.8,0.4l-0.7,1.1l-0.6-0.3l-0.7,0.4l-0.3,0.6v-21l0.4,0.2l0.6-0.4
				l0.7-1.1l0.7,0.4l0.8-0.4l0.7-1.1l0.7,0.4l0.7-0.4l0.7-1.4l0.7,0.4l0.8-0.4l0.7-1.1l0.7,0.4l0.8-0.4l0.6-1.2l0.7,0.1l0.6-0.4
				l0.2-0.3C-579.7-501.4-579.7-496.4-579.7-496.4z"/>
			<path id="Path_4706" class="st23" d="M-590-487l8.3-4.7v0.4l-8.3,4.7C-590-486.6-590-487-590-487z"/>
			<path id="Path_4707" class="st23" d="M-590-485l8.9-5.2v0.4l-8.9,5.2V-485z"/>
			<path id="Path_4708" class="st23" d="M-590-482.8l7.1-4v0.4l-7.1,4.1C-590-482.4-590-482.8-590-482.8z"/>
			<path id="Path_4709" class="st23" d="M-590-477.9l3.5-2v0.4l-3.5,2.1V-477.9z"/>
			<path id="Path_4710" class="st23" d="M-582.9-482l1.8-1v0.4l-1.8,1.1V-482z"/>
			<path id="Path_4711" class="st23" d="M-590-493.2l2.7-1.6v0.4l-2.7,1.7C-590-492.7-590-493.2-590-493.2z"/>
			<path id="Path_4712" class="st23" d="M-584.1-496.6l3-1.8v0.4l-3,1.8V-496.6z"/>
			<path id="Path_4713" class="st23" d="M-590-491.3l5-2.9v0.4l-5,2.9C-590-490.9-590-491.3-590-491.3z"/>
			<path id="Path_4714" class="st23" d="M-582-495.9l0.9-0.5v0.4l-0.9,0.5V-495.9z"/>
		</g>
		<path id="Path_4715" class="st18" d="M-584.8-475.1v1.7l1.8,1v-1.7L-584.8-475.1z"/>
		<path id="Path_4716" class="st19" d="M-583.1-474.1v1.7l13-7.5v-1.7L-583.1-474.1z"/>
		<path id="Path_4717" class="st20" d="M-571.9-482.5l-12.9,7.5l1.8,1l13-7.5L-571.9-482.5z"/>
		<path id="Path_4718" class="st24" d="M-551.2-491.1L-551.2-491.1l-14.8,8.6c-0.3,0.2-0.6,0.2-0.9,0l-3.2-1.8l0,0l14.9-8.7
			c0.3-0.2,0.6-0.2,0.9,0C-552.6-492-552.9-492.1-551.2-491.1L-551.2-491.1z"/>
		<path id="Path_4719" class="st17" d="M-553.6-490l1.5-0.9l0,0c0.2-0.1,0.2-0.3,0-0.3l-2.4-1.3l0,0c-0.2-0.1-0.4-0.1-0.5,0
			l-1.5,0.9l0,0c-0.2,0.1-0.2,0.3,0,0.3l2.4,1.4l0,0C-554-489.9-553.8-489.9-553.6-490z M-553-490.9l-1,0.5l-1.8-1.1l1-0.5
			L-553-490.9z"/>
		<g id="Group_2408" transform="translate(33.008 16.329)">
			<path id="Path_4720" class="st25" d="M-587.7-497.9v0.7v0.1l-0.1,0.1l-0.1,0.1l-3.5,2h-0.1l0,0l-0.2,0.1h-0.2l-0.1-0.1h-0.2h-0.1
				l-3.2-1.9l-0.1-0.1l0,0l-0.1-0.1v-0.7l0.1,0.1l0.1,0.1l0.1,0.1l3.2,1.9v-0.1h0.2l0.1,0.1h0.2l0.2-0.1l0,0l0.1-0.1l3.5-2h0.1
				L-587.7-497.9L-587.7-497.9L-587.7-497.9z"/>
			<path id="Path_4721" class="st25" d="M-567-498v0.9l-0.1,0.1h-0.1l-3.5,2l-0.1,0.1l-0.2,0.1h-0.4l-0.1-0.1v-0.1l-3.3-2l-0.1-0.1
				l-0.1-0.1l-0.1-0.1v-0.6l0.1,0.1l0.1,0.1l0.1,0.1l3.3,1.9l0.1,0.1h0.1l0.1,0.1h0.3l0.1-0.1h0.2l0.1-0.1l3.5-2v-0.2V-498L-567-498
				L-567-498z"/>
			<path id="Path_4722" class="st25" d="M-572.2-495.1v0.8l-0.1,0.1l-0.1,0.1l-0.1,0.1l-3.5,2.1l-0.1,0.1h-0.1l-0.1,0.1h-0.2
				l-0.1-0.1h-0.2l-0.1-0.1l-3.3-1.9l-0.1-0.1l-0.1-0.1l-0.1-0.1v-0.8l0.1,0.1l0.1,0.1l0.1,0.1l3.3,1.8l0.1,0.1l0.2,0.1h0.1h0.2
				l0.2-0.1h0.1l0.1-0.1l0.1-0.1l3.5-2L-572.2-495.1L-572.2-495.1L-572.2-495.1L-572.2-495.1z"/>
			<path id="Path_4723" class="st25" d="M-577.5-492v0.7l-0.1,0.1l-0.1,0.1l-0.1,0.1l-3.5,2l-0.1,0.1l-0.1,0.1h-0.4l-0.1-0.1
				l-0.1-0.1l-3.3-1.8l-0.1-0.1l-0.1-0.1v-0.7l0.1,0.1l0.1,0.1l3.3,1.9l0.1,0.1l0.1,0.1h0.4l0.1-0.1l0.1-0.1l3.5-2l0.1-0.1l0.1-0.1
				L-577.5-492L-577.5-492z"/>
			<path id="Path_4724" class="st25" d="M-572.1-501v0.8l-0.1,0.1l-0.1,0.1l0,0l-3.5,2l-0.1,0.1l-0.1,0.1h-0.1l-0.1-0.1l-0.2-0.1
				h-0.1l0,0l-0.1-0.1l-3.2-1.8l-0.2-0.1l-0.1-0.1v-0.7l0.1,0.1l0.1,0.1l3.2,1.8l0.2,0.1v0.1h0.4l0.1-0.1l0.2-0.1l3.5-2l0.1-0.1
				L-572.1-501L-572.1-501L-572.1-501z"/>
			<path id="Path_4725" class="st25" d="M-577.3-498v0.7l-0.1,0.1v0.1l-0.1,0.1l0,0l-3.5,2l-0.1,0.1l-0.1,0.1h-0.5l-0.1-0.1
				l-0.1-0.1l-3.2-1.9l-0.1-0.1h-0.1l-0.1-0.1v-0.7l0.1,0.1l0.1,0.1h0.1l3.2,1.9l0.1,0.1h0.1l0.2,0.1h0.2l0.2-0.1h0.1l0.1-0.1l3.5-2
				l0.1-0.1V-498L-577.3-498L-577.3-498z"/>
			<path id="Path_4726" class="st25" d="M-582.6-495v0.8l-0.1,0.1l-0.1,0.1l-0.1,0.1l-3.5,2.1h-0.1v0.1h-0.1l-0.2,0.1l-0.1-0.1l0,0
				l-0.1-0.1h-0.1l-3.3-2l-0.1-0.1l-0.1-0.1v-0.1l-0.1-0.1v-0.6l0.1,0.1v0.1l0.1,0.1h0.1l3.3,1.8l0.1,0.1h0.1h0.4l0.1-0.1l0.1-0.1
				l3.5-2L-582.6-495L-582.6-495L-582.6-495L-582.6-495z"/>
			<path id="Path_4727" class="st25" d="M-577.2-503.9v0.8h-0.1v0.1l0,0l-3.5,2l-0.1,0.1h-0.1l-0.1,0.1h-0.3h-0.1l0,0l-0.1-0.1
				l-3.3-1.9l-0.1-0.2h-0.1l0,0v-0.1v-0.7v0.1v0.1l0.1,0.1l0.1,0.1l3.3,1.9h0.1l0,0l0.1,0.1h0.3l0.1-0.1h0.1l0.1-0.1l3.5-2.1
				l0.1-0.1V-503.9L-577.2-503.9L-577.2-503.9z"/>
			<path id="Path_4728" class="st25" d="M-582.4-500.9v0.8h-0.1l0,0l-0.1,0.1l-3.5,2l-0.1,0.1h-0.1h-0.4h-0.2l-0.1-0.1l-3.2-1.8
				l-0.1-0.1v-0.1l-0.1-0.1v-0.6l0.1,0.1l0.1,0.1l0,0l3.3,1.8v0.1l0.1,0.1h0.4l0.1-0.1l0.1-0.1l3.5-2h0.2v-0.1L-582.4-500.9
				L-582.4-500.9z"/>
		</g>
		<path id="Path_4729" class="st26" d="M-562.5-481.6l3.5-2c0.3-0.2,0.6-0.2,0.9,0l3.3,1.9c0.3,0.2,0.3,0.4,0,0.5l-3.5,2
			c-0.3,0.2-0.6,0.2-0.9,0l-3.3-1.9C-562.7-481.3-562.7-481.6-562.5-481.6z M-541.9-481.9l3.5-2c0.3-0.2,0.6-0.2,0.9,0l3.3,1.9
			c0.3,0.2,0.3,0.4,0,0.5l-3.5,2c-0.3,0.2-0.6,0.2-0.9,0l-3.3-1.9c-0.2-0.1-0.2-0.3-0.1-0.4C-542-481.8-541.9-481.8-541.9-481.9z
			 M-547-478.8c-0.3,0.2-0.3,0.4,0,0.5l3.3,1.9c0.3,0.2,0.6,0.2,0.9,0l3.5-2c0.3-0.2,0.3-0.4,0-0.5l-3.3-1.9c-0.3-0.2-0.6-0.2-0.9,0
			L-547-478.8z M-552.3-475.8l3.5-2c0.3-0.2,0.6-0.2,0.9,0l3.3,1.9c0.3,0.2,0.3,0.4,0,0.5l-3.5,2c-0.3,0.2-0.6,0.2-0.9,0l-3.3-1.9
			C-552.6-475.4-552.6-475.7-552.3-475.8z M-546.9-484.8c-0.3,0.2-0.3,0.4,0,0.5l3.3,1.9c0.3,0.2,0.6,0.2,0.9,0l3.5-2
			c0.3-0.2,0.3-0.4,0-0.5l-3.3-1.9c-0.3-0.2-0.6-0.2-0.9,0L-546.9-484.8L-546.9-484.8z M-552.1-481.7l3.5-2c0.3-0.2,0.6-0.2,0.9,0
			l3.3,1.9c0.3,0.2,0.3,0.4,0,0.5l-3.5,2c-0.3,0.2-0.6,0.2-0.9,0l-3.3-2C-552.4-481.4-552.4-481.6-552.1-481.7z M-557.4-478.8
			c-0.3,0.2-0.3,0.4,0,0.5l3.3,1.9c0.3,0.2,0.6,0.2,0.9,0l3.5-2c0.3-0.2,0.3-0.4,0-0.5l-3.3-1.9c-0.3-0.2-0.6-0.2-0.9,0
			L-557.4-478.8z M-552-487.7l3.5-2c0.3-0.2,0.6-0.2,0.9,0l3.3,1.9c0.3,0.2,0.3,0.4,0,0.5l-3.5,2c-0.3,0.2-0.6,0.2-0.9,0l-3.3-1.9
			C-552.2-487.4-552.2-487.6-552-487.7z M-557.2-484.7c-0.3,0.2-0.3,0.4,0,0.5l3.3,1.9c0.3,0.2,0.6,0.2,0.9,0l3.5-2
			c0.3-0.2,0.3-0.4,0-0.5l-3.3-1.9c-0.3-0.2-0.6-0.2-0.9,0L-557.2-484.7z"/>
	</g>
</g>
</svg>
