<svg xmlns="http://www.w3.org/2000/svg" width="146" height="100" viewBox="0 0 146 100">
  <g id="e-arşiv" transform="translate(-601 -54)">
    <rect id="Rectangle_210" data-name="Rectangle 210" width="70" height="100" transform="translate(601 54)" fill="#fff"/>
    <g id="Group_2429" data-name="Group 2429" transform="translate(248 -531)">
      <text id="MY" transform="translate(426 609.814)" font-size="20" font-family="AvenirNextCondensed-DemiBold, Avenir Next Condensed" font-weight="300"><tspan x="0" y="0">MY</tspan></text>
      <text id="E-ARŞİV" transform="translate(426 638.841)" font-size="25" font-family="AvenirNextCondensed-DemiBold, Avenir Next Condensed" font-weight="300"><tspan x="0" y="0">E-ARŞİV</tspan></text>
    </g>
    <g id="Group_2498" data-name="Group 2498" transform="translate(600.99 57.955)">
      <g id="Group_2493" data-name="Group 2493" transform="translate(0.01 51.613)">
        <path id="Path_4996" data-name="Path 4996" d="M59.323,146.62c13.569,7.837,13.569,20.544,0,28.381s-35.568,7.837-49.137,0-13.569-20.544,0-28.381S45.755,138.783,59.323,146.62Z" transform="translate(-0.01 -140.742)" fill="#040507" fill-rule="evenodd" opacity="0.003"/>
        <path id="Path_4997" data-name="Path 4997" d="M61.692,149.9c12.659,7.312,12.659,19.165,0,26.481s-33.185,7.312-45.847,0-12.659-19.169,0-26.481S49.033,142.587,61.692,149.9Z" transform="translate(-4.025 -143.068)" fill="#080a0d" fill-rule="evenodd" opacity="0.007"/>
        <path id="Path_4998" data-name="Path 4998" d="M64.067,153.169c11.75,6.788,11.75,17.79,0,24.578s-30.8,6.788-42.554,0-11.75-17.79,0-24.578S52.313,146.38,64.067,153.169Z" transform="translate(-8.046 -145.388)" fill="#0b0e14" fill-rule="evenodd" opacity="0.01"/>
        <path id="Path_4999" data-name="Path 4999" d="M66.448,156.442c10.84,6.26,10.84,16.414,0,22.674s-28.417,6.26-39.258,0-10.84-16.414,0-22.674S55.607,150.183,66.448,156.442Z" transform="translate(-12.074 -147.712)" fill="#0f131b" fill-rule="evenodd" opacity="0.013"/>
        <path id="Path_5000" data-name="Path 5000" d="M68.811,159.712c9.934,5.736,9.934,15.036,0,20.775s-26.037,5.736-35.968,0-9.934-15.036,0-20.775S58.881,153.976,68.811,159.712Z" transform="translate(-16.084 -150.031)" fill="#131822" fill-rule="evenodd" opacity="0.017"/>
        <path id="Path_5001" data-name="Path 5001" d="M71.191,162.991c9.025,5.211,9.025,13.66,0,18.871s-23.654,5.211-32.675,0-9.021-13.66,0-18.871S62.166,157.78,71.191,162.991Z" transform="translate(-20.11 -152.357)" fill="#171d29" fill-rule="evenodd" opacity="0.02"/>
        <path id="Path_5002" data-name="Path 5002" d="M73.566,166.26c8.112,4.687,8.112,12.285,0,16.968s-21.27,4.687-29.382,0-8.112-12.281,0-16.968S65.454,161.573,73.566,166.26Z" transform="translate(-24.132 -154.676)" fill="#1b2230" fill-rule="evenodd" opacity="0.023"/>
        <path id="Path_5003" data-name="Path 5003" d="M75.934,169.534c7.206,4.162,7.206,10.906,0,15.069s-18.886,4.162-26.092,0-7.2-10.906,0-15.069S68.732,165.375,75.934,169.534Z" transform="translate(-28.147 -157)" fill="#1f2737" fill-rule="evenodd" opacity="0.027"/>
        <path id="Path_5004" data-name="Path 5004" d="M78.3,172.8c6.3,3.638,6.3,9.531,0,13.169s-16.5,3.634-22.8,0-6.3-9.531,0-13.169S72.011,169.169,78.3,172.8Z" transform="translate(-32.163 -159.32)" fill="#232c3f" fill-rule="evenodd" opacity="0.03"/>
        <path id="Path_5005" data-name="Path 5005" d="M80.679,176.078c5.387,3.11,5.387,8.156,0,11.266s-14.119,3.11-19.506,0-5.387-8.156,0-11.266S75.3,172.964,80.679,176.078Z" transform="translate(-36.184 -161.641)" fill="#273246" fill-rule="evenodd" opacity="0.033"/>
        <path id="Path_5006" data-name="Path 5006" d="M83.053,179.352c4.478,2.585,4.478,6.777,0,9.362s-11.735,2.585-16.213,0-4.478-6.777,0-9.362S78.579,176.766,83.053,179.352Z" transform="translate(-40.206 -163.965)" fill="#2b374d" fill-rule="evenodd" opacity="0.037"/>
        <path id="Path_5007" data-name="Path 5007" d="M85.428,182.621c3.568,2.061,3.568,5.4,0,7.459a14.271,14.271,0,0,1-12.92,0c-3.568-2.061-3.568-5.4,0-7.459A14.271,14.271,0,0,1,85.428,182.621Z" transform="translate(-44.227 -166.284)" fill="#2f3c54" fill-rule="evenodd" opacity="0.04"/>
        <path id="Path_5008" data-name="Path 5008" d="M87.813,185.895c2.659,1.537,2.659,4.027,0,5.559a10.628,10.628,0,0,1-9.626,0c-2.659-1.533-2.659-4.023,0-5.559A10.65,10.65,0,0,1,87.813,185.895Z" transform="translate(-48.255 -168.608)" fill="#34415c" fill-rule="evenodd" opacity="0.043"/>
        <path id="Path_5009" data-name="Path 5009" d="M90.181,189.169c1.749,1.008,1.749,2.648,0,3.66a7.015,7.015,0,0,1-6.337,0c-1.749-1.012-1.749-2.648,0-3.66A6.992,6.992,0,0,1,90.181,189.169Z" transform="translate(-52.27 -170.929)" fill="#384763" fill-rule="evenodd" opacity="0.047"/>
      </g>
      <g id="Group_2497" data-name="Group 2497" transform="translate(8.199)">
        <path id="Path_5010" data-name="Path 5010" d="M75.474,84.082,48.945,68.764l-.088-.044-.1-.026-.11-.015-.11,0-.117.015-.125.037-.128.051-.128.066L24.276,82.571l-.132.084-.125.1-.125.11-.117.117-.11.125-.106.136-.1.143-.092.15L49.895,98.846l.092-.147.1-.143.106-.136.114-.128.117-.117.121-.106.128-.1.132-.081L74.564,84.17l.132-.07.128-.051.121-.033L75.063,84h.114l.106.011.1.029Z" transform="translate(-22.992 -43.494)" fill="#7b8c91" fill-rule="evenodd"/>
        <path id="Path_5011" data-name="Path 5011" d="M121.017,111.359a.783.783,0,0,0-1.284-.741L95.97,124.337a2.622,2.622,0,0,0-.906.957v0a2.634,2.634,0,0,0-.374,1.265v8.119a.783.783,0,0,0,1.284.741L119.737,121.7a2.652,2.652,0,0,0,.906-.957h0a2.634,2.634,0,0,0,.374-1.265Z" transform="translate(-68.158 -69.941)" fill="#e6eaeb" fill-rule="evenodd"/>
        <g id="Group_2494" data-name="Group 2494" transform="translate(49.13 45.015)">
          <path id="Path_5012" data-name="Path 5012" d="M158.969,122.963l-.367-.213-2.292,1.324.367.213Z" transform="translate(-156.31 -122.75)" fill="#e8b02c" fill-rule="evenodd"/>
          <path id="Path_5013" data-name="Path 5013" d="M156.677,126.573l-.367-.213v2.648l.367.213Z" transform="translate(-156.31 -125.036)" fill="#d49d1e" fill-rule="evenodd"/>
          <path id="Path_5014" data-name="Path 5014" d="M157.31,127.3l2.292-1.324V123.33l-2.292,1.324Z" transform="translate(-156.943 -123.117)" fill="#fac13c" fill-rule="evenodd"/>
        </g>
        <path id="Path_5015" data-name="Path 5015" d="M101.339,147.333c-.176.1-.319.018-.319-.183a.713.713,0,0,1,.319-.557L115,138.7c.18-.1.323-.018.323.187a.707.707,0,0,1-.323.557Z" transform="translate(-72.166 -87.811)" fill="#475357" fill-rule="evenodd"/>
        <path id="Path_5016" data-name="Path 5016" d="M49.243,124.494,22.718,109.18h0l-.081.154-.073.158-.066.158-.051.161-.044.158-.033.161-.018.161-.007.154v8.119l.007.147.018.136.033.125.044.11.055.1.062.084.073.07.084.059,26.525,15.314-.081-.055-.073-.073-.066-.084-.055-.1-.04-.114-.033-.125-.022-.136,0-.147v-8.119l0-.154.022-.158.033-.161.04-.161.055-.161.062-.158.073-.158Z" transform="translate(-22.34 -69.141)" fill="#a0adb0" fill-rule="evenodd"/>
        <path id="Path_5017" data-name="Path 5017" d="M137.39,139.075l.642-.37c.176-.1.323-.018.323.187a.707.707,0,0,1-.323.557h0Z" transform="translate(-95.199 -87.811)" fill="#30383b" fill-rule="evenodd"/>
        <path id="Path_5018" data-name="Path 5018" d="M149.959,128.169l-.367-.209-2.292,1.324.367.209Z" transform="translate(-101.474 -81.034)" fill="#0d8fb3" fill-rule="evenodd"/>
        <path id="Path_5019" data-name="Path 5019" d="M147.667,131.779l-.367-.209v2.648l.367.209Z" transform="translate(-101.474 -83.32)" fill="#067796" fill-rule="evenodd"/>
        <path id="Path_5020" data-name="Path 5020" d="M148.3,132.5l2.292-1.324V128.53l-2.292,1.324Z" transform="translate(-102.108 -81.395)" fill="#0d99bf" fill-rule="evenodd"/>
        <path id="Path_5021" data-name="Path 5021" d="M75.474,50.082,48.945,34.764l-.088-.044-.1-.026-.11-.015h-.11l-.117.022-.125.033-.128.051-.128.066L24.276,48.571l-.132.084-.125.1-.125.106-.117.121-.11.128-.106.132-.1.143-.092.147L49.895,64.846l.092-.15.1-.139.106-.136.114-.128.117-.117.121-.11.128-.1.132-.081L74.564,50.17l.132-.07.128-.051.121-.033L75.063,50l.114,0,.106.015.1.029Z" transform="translate(-22.992 -21.962)" fill="#7b8c91" fill-rule="evenodd"/>
        <path id="Path_5022" data-name="Path 5022" d="M121.017,77.359a.783.783,0,0,0-1.284-.741L95.97,90.337a2.622,2.622,0,0,0-.906.957h0a2.634,2.634,0,0,0-.374,1.265v8.119a.784.784,0,0,0,1.284.744L119.737,87.7a2.623,2.623,0,0,0,.906-.957v0a2.634,2.634,0,0,0,.374-1.265Z" transform="translate(-68.158 -48.41)" fill="#e6eaeb" fill-rule="evenodd"/>
        <g id="Group_2495" data-name="Group 2495" transform="translate(49.13 32.547)">
          <path id="Path_5023" data-name="Path 5023" d="M158.969,88.963l-.367-.213-2.292,1.324.367.209Z" transform="translate(-156.31 -88.75)" fill="#e8b02c" fill-rule="evenodd"/>
          <path id="Path_5024" data-name="Path 5024" d="M156.677,92.569l-.367-.209v2.648l.367.209Z" transform="translate(-156.31 -91.036)" fill="#d49d1e" fill-rule="evenodd"/>
          <path id="Path_5025" data-name="Path 5025" d="M157.31,93.3l2.292-1.32V89.33l-2.292,1.32Z" transform="translate(-156.943 -89.117)" fill="#fac13c" fill-rule="evenodd"/>
        </g>
        <path id="Path_5026" data-name="Path 5026" d="M101.339,113.327c-.176.1-.319.018-.319-.187a.713.713,0,0,1,.319-.557L115,104.694c.18-.1.323-.018.323.187a.707.707,0,0,1-.323.557Z" transform="translate(-72.166 -66.273)" fill="#475357" fill-rule="evenodd"/>
        <path id="Path_5027" data-name="Path 5027" d="M49.243,90.488,22.718,75.17l0,0-.081.154-.073.154-.066.161-.051.161-.044.161-.033.158-.018.158-.007.158v8.119l.007.147.018.136.033.121.044.114.055.1.062.084.073.07.084.059L49.243,100.7l-.081-.062-.073-.07-.066-.084-.055-.1-.04-.11-.033-.125-.022-.136,0-.147V91.753l0-.154.022-.158.033-.161.04-.161.055-.161.062-.158.073-.158Z" transform="translate(-22.34 -47.604)" fill="#a0adb0" fill-rule="evenodd"/>
        <path id="Path_5028" data-name="Path 5028" d="M137.39,105.075l.642-.37c.176-.1.323-.018.323.187a.707.707,0,0,1-.323.557h0Z" transform="translate(-95.199 -66.279)" fill="#30383b" fill-rule="evenodd"/>
        <path id="Path_5029" data-name="Path 5029" d="M149.959,94.169l-.367-.209L147.3,95.28l.367.213Z" transform="translate(-101.474 -59.503)" fill="#0d8fb3" fill-rule="evenodd"/>
        <path id="Path_5030" data-name="Path 5030" d="M147.667,97.773l-.367-.213v2.651l.367.209Z" transform="translate(-101.474 -61.783)" fill="#067796" fill-rule="evenodd"/>
        <path id="Path_5031" data-name="Path 5031" d="M148.3,98.5l2.292-1.324V94.53L148.3,95.854Z" transform="translate(-102.108 -59.864)" fill="#0d99bf" fill-rule="evenodd"/>
        <path id="Path_5032" data-name="Path 5032" d="M75.474,15.4,48.945.084l-.088-.04-.1-.029L48.648,0l-.11,0-.117.018L48.3.055l-.128.051-.128.066L24.276,13.891l-.132.084-.125.1-.125.11-.117.117-.11.125-.106.136-.1.143-.092.15L49.895,30.166l.092-.147.1-.143.106-.136.114-.128.117-.117.121-.106.128-.1.132-.081L74.564,15.49l.132-.07.128-.051.121-.033.117-.018.114,0,.106.015.1.029Z" transform="translate(-22.992)" fill="#bfc7c9" fill-rule="evenodd"/>
        <path id="Path_5033" data-name="Path 5033" d="M121.017,42.679a.783.783,0,0,0-1.284-.741L95.97,55.657a2.622,2.622,0,0,0-.906.957v0a2.634,2.634,0,0,0-.374,1.265V66a.783.783,0,0,0,1.284.741l23.764-13.719a2.652,2.652,0,0,0,.906-.957v0a2.634,2.634,0,0,0,.374-1.265Z" transform="translate(-68.158 -26.447)" fill="#e6eaeb" fill-rule="evenodd"/>
        <g id="Group_2496" data-name="Group 2496" transform="translate(49.13 19.829)">
          <path id="Path_5034" data-name="Path 5034" d="M158.969,54.283l-.367-.213-2.292,1.324.367.213Z" transform="translate(-156.31 -54.07)" fill="#e8b02c" fill-rule="evenodd"/>
          <path id="Path_5035" data-name="Path 5035" d="M156.677,57.893l-.367-.213v2.648l.367.213Z" transform="translate(-156.31 -56.356)" fill="#d49d1e" fill-rule="evenodd"/>
          <path id="Path_5036" data-name="Path 5036" d="M157.31,58.622,159.6,57.3V54.65l-2.292,1.324Z" transform="translate(-156.943 -54.437)" fill="#fac13c" fill-rule="evenodd"/>
        </g>
        <path id="Path_5037" data-name="Path 5037" d="M101.339,78.647c-.176.1-.319.018-.319-.187a.713.713,0,0,1,.319-.557L115,70.014c.18-.1.323-.018.323.187a.707.707,0,0,1-.323.557Z" transform="translate(-72.166 -44.311)" fill="#475357" fill-rule="evenodd"/>
        <path id="Path_5038" data-name="Path 5038" d="M49.243,55.814,22.718,40.5h0l-.081.154-.073.154-.066.161-.051.161-.044.158-.033.161-.018.161-.007.154v8.119l.007.147.018.136.033.125.044.11.055.1.062.084.073.07.084.059L49.243,66.027l-.081-.055-.073-.073-.066-.084-.055-.1-.04-.11-.033-.125-.022-.136,0-.147V57.079l0-.154.022-.158.033-.161.04-.161.055-.161.062-.158.073-.158Z" transform="translate(-22.34 -25.648)" fill="#a0adb0" fill-rule="evenodd"/>
        <path id="Path_5039" data-name="Path 5039" d="M137.39,70.395l.642-.37c.176-.1.323-.018.323.187a.713.713,0,0,1-.323.557h0Z" transform="translate(-95.199 -44.317)" fill="#30383b" fill-rule="evenodd"/>
        <path id="Path_5040" data-name="Path 5040" d="M149.959,59.489l-.367-.209L147.3,60.6l.367.209Z" transform="translate(-101.474 -37.541)" fill="#0d8fb3" fill-rule="evenodd"/>
        <path id="Path_5041" data-name="Path 5041" d="M147.667,63.1l-.367-.209v2.648l.367.209Z" transform="translate(-101.474 -39.827)" fill="#067796" fill-rule="evenodd"/>
        <path id="Path_5042" data-name="Path 5042" d="M148.3,63.822l2.292-1.324V59.85L148.3,61.174Z" transform="translate(-102.108 -37.902)" fill="#0d99bf" fill-rule="evenodd"/>
      </g>
    </g>
  </g>
</svg>
