<svg xmlns="http://www.w3.org/2000/svg" width="126.921" height="100" viewBox="0 0 126.921 100">
  <g id="Kep" transform="translate(-964 -202)">
    <rect id="Rectangle_214" data-name="Rectangle 214" width="70" height="100" transform="translate(965 202)" fill="#fff"/>
    <g id="Group_2395" data-name="Group 2395" transform="translate(964 206.6)">
      <g id="Group_2393" data-name="Group 2393" transform="translate(0 49.851)">
        <path id="Path_4484" data-name="Path 4484" d="M61.884,116.725c14.155,8.167,14.155,21.414,0,29.581s-37.112,8.166-51.267,0-14.155-21.414,0-29.581S47.729,108.558,61.884,116.725Z" transform="translate(0 -110.6)" fill="#040507" fill-rule="evenodd" opacity="0.003"/>
        <path id="Path_4485" data-name="Path 4485" d="M63.1,119.417c13.2,7.622,13.2,20.008,0,27.63s-34.617,7.622-47.819,0-13.2-20.008,0-27.63S49.894,111.794,63.1,119.417Z" transform="translate(-2.936 -112.294)" fill="#080a0d" fill-rule="evenodd" opacity="0.007"/>
        <path id="Path_4486" data-name="Path 4486" d="M64.309,122.108c12.25,7.078,12.25,18.556,0,25.634s-32.122,7.078-44.371,0-12.25-18.556,0-25.634S52.059,115.031,64.309,122.108Z" transform="translate(-5.873 -113.987)" fill="#0b0e14" fill-rule="evenodd" opacity="0.01"/>
        <path id="Path_4487" data-name="Path 4487" d="M65.466,124.7c11.3,6.533,11.3,17.1,0,23.637s-29.626,6.533-40.969,0c-11.3-6.533-11.3-17.1,0-23.637C35.84,118.167,54.169,118.167,65.466,124.7Z" transform="translate(-8.755 -115.626)" fill="#0f131b" fill-rule="evenodd" opacity="0.013"/>
        <path id="Path_4488" data-name="Path 4488" d="M66.679,127.392c10.344,5.989,10.344,15.7,0,21.687s-27.176,5.989-37.521,0-10.344-15.7,0-21.687C39.548,121.4,56.334,121.4,66.679,127.392Z" transform="translate(-11.691 -117.32)" fill="#131822" fill-rule="evenodd" opacity="0.017"/>
        <path id="Path_4489" data-name="Path 4489" d="M67.891,130.083c9.391,5.444,9.391,14.246,0,19.69s-24.681,5.444-34.072,0-9.391-14.246,0-19.69C43.255,124.639,58.5,124.639,67.891,130.083Z" transform="translate(-14.627 -119.013)" fill="#171d29" fill-rule="evenodd" opacity="0.02"/>
        <path id="Path_4490" data-name="Path 4490" d="M69.108,132.775c8.484,4.9,8.484,12.794,0,17.694s-22.186,4.9-30.67,0-8.484-12.794,0-17.694S60.624,127.875,69.108,132.775Z" transform="translate(-17.523 -120.707)" fill="#1b2230" fill-rule="evenodd" opacity="0.023"/>
        <path id="Path_4491" data-name="Path 4491" d="M70.32,135.467c7.531,4.355,7.531,11.388,0,15.7-7.531,4.355-19.69,4.355-27.222,0s-7.531-11.388,0-15.7C50.63,131.111,62.789,131.111,70.32,135.467Z" transform="translate(-20.459 -122.4)" fill="#1f2737" fill-rule="evenodd" opacity="0.027"/>
        <path id="Path_4492" data-name="Path 4492" d="M71.533,138.158c6.579,3.811,6.579,9.936,0,13.747s-17.2,3.811-23.774,0-6.579-9.936,0-13.747C54.292,134.347,64.954,134.347,71.533,138.158Z" transform="translate(-23.396 -124.094)" fill="#232c3f" fill-rule="evenodd" opacity="0.03"/>
        <path id="Path_4493" data-name="Path 4493" d="M72.745,140.85c5.626,3.267,5.626,8.484,0,11.751s-14.745,3.267-20.326,0c-5.626-3.267-5.626-8.484,0-11.751C58,137.583,67.119,137.583,72.745,140.85Z" transform="translate(-26.332 -125.787)" fill="#273246" fill-rule="evenodd" opacity="0.033"/>
        <path id="Path_4494" data-name="Path 4494" d="M73.9,143.483c4.673,2.677,4.673,7.078,0,9.754s-12.25,2.677-16.923,0-4.673-7.078,0-9.754S69.23,140.806,73.9,143.483Z" transform="translate(-29.214 -127.467)" fill="#2b374d" fill-rule="evenodd" opacity="0.037"/>
        <path id="Path_4495" data-name="Path 4495" d="M75.115,146.174c3.72,2.132,3.72,5.626,0,7.8a14.991,14.991,0,0,1-13.475,0c-3.72-2.132-3.72-5.626,0-7.8A14.991,14.991,0,0,1,75.115,146.174Z" transform="translate(-32.15 -129.161)" fill="#2f3c54" fill-rule="evenodd" opacity="0.04"/>
        <path id="Path_4496" data-name="Path 4496" d="M76.327,148.866c2.768,1.588,2.768,4.219,0,5.807a11.147,11.147,0,0,1-10.027,0c-2.768-1.588-2.768-4.219,0-5.807A11.147,11.147,0,0,1,76.327,148.866Z" transform="translate(-35.086 -130.854)" fill="#34415c" fill-rule="evenodd" opacity="0.043"/>
        <path id="Path_4497" data-name="Path 4497" d="M77.585,151.558c1.815,1.044,1.815,2.768,0,3.811a7.4,7.4,0,0,1-6.624,0c-1.815-1.043-1.815-2.768,0-3.811A7.4,7.4,0,0,1,77.585,151.558Z" transform="translate(-38.023 -132.548)" fill="#384763" fill-rule="evenodd" opacity="0.047"/>
      </g>
      <g id="Group_2394" data-name="Group 2394" transform="translate(7.032 -0.6)">
        <path id="Path_4498" data-name="Path 4498" d="M63.818-.192l9.165,5.308h0c.045,0,.045.045.091.045a1.923,1.923,0,0,1,.862,1.679v3.675h0V33.427h0V37.1a6.177,6.177,0,0,1-.862,2.677,6.753,6.753,0,0,1-2.042,2.178L27.568,67.046a2,2,0,0,1-2.042.181c-.045,0-.045-.045-.091-.045h0l-9.165-5.308-.091-.045-.091-.091L16,61.647l-.091-.091-.045-.091-.045-.091-.045-.091-.045-.091-.045-.136-.045-.136-.045-.136-.045-.136-.045-.136V56.565h0V29.616l.045-.181.045-.181.045-.181.045-.181.045-.181.045-.181.045-.181.045-.181.045-.181L16,27.8l.091-.181.091-.181.091-.181.091-.181.091-.181.091-.181.091-.181.091-.181.136-.136L17,26.077l.136-.136.136-.136.136-.136.136-.136.136-.136.136-.136.136-.091.136-.091.136-.091.136-.091L61.822-.192l.136-.091.136-.091.136-.045.136-.045L62.5-.509l.136-.045L62.775-.6h.681l.136.045.091.045Z" transform="translate(-15.5 0.6)" fill="#e6eaeb" fill-rule="evenodd"/>
        <path id="Path_4499" data-name="Path 4499" d="M24.765,72.108,15.6,66.8v3.675l9.165,5.308Z" transform="translate(-15.555 -36.221)" fill="#c0392b" fill-rule="evenodd"/>
        <path id="Path_4500" data-name="Path 4500" d="M73.038,5.444,63.873.136,63.737.091,63.646.045h-.091L63.419,0h-.363L62.92.045h-.136l-.136.045-.136.045-.136.045-.181.045-.136.091-.136.091L18.458,25.452l-.136.091-.136.136-.136.091-.136.091L17.778,26l-.181.136-.091.136-.136.136-.136.136-.136.136-.136.136-.091.181-.136.136-.091.181-.091.136-.136.181-.091.181-.091.136-.045.181-.091.181-.091.136-.045.181-.045.181-.091.136-.045.181-.045.181-.045.181-.045.136v.181l-.045.181v.318l9.165,5.308V35.3l.045-.181.045-.181v-.181l.045-.136.045-.181.045-.181.091-.181.045-.136.091-.181.045-.181.091-.136.091-.181.091-.181.091-.136.091-.181.091-.181.091-.136.136-.181.136-.136.091-.136L26.4,31.8l.136-.136.136-.136.136-.136.136-.091.136-.136.136-.091.136-.136.136-.091.181-.091L71.087,5.671l.136-.045.181-.091.136-.045.136-.091.136-.045h.136l.136-.045h.635l.091.045.136.045Z" transform="translate(-15.555 0.272)" fill="#bdbdbd" fill-rule="evenodd"/>
        <path id="Path_4501" data-name="Path 4501" d="M24.765,80.208,15.6,74.9V97.857h0V101.8l.045.136v.136l.045.136.045.136.045.091.045.136.091.091.045.091.045.091.091.091.091.091.045.045.091.091,9.21,5.263-.091-.045-.091-.045-.091-.091-.045-.091-.091-.091-.045-.091-.091-.136-.045-.091-.045-.136-.045-.091v-.136l-.045-.136-.045-.136V103.12h0Z" transform="translate(-15.555 -40.646)" fill="#9c9c9c" fill-rule="evenodd"/>
        <path id="Path_4502" data-name="Path 4502" d="M84.109,79.868a6.177,6.177,0,0,0,.862-2.677L69.727,72.7,62.559,83.044a7.729,7.729,0,0,1-2.223,2.178,2.9,2.9,0,0,1-2.223.408L50.944,83.5,35.7,105.593a2.071,2.071,0,0,0,.862,1.724,2,2,0,0,0,2.042-.181L82.068,82.046A5.907,5.907,0,0,0,84.109,79.868Z" transform="translate(-26.535 -39.444)" fill="#e6eaeb" fill-rule="evenodd"/>
        <path id="Path_4503" data-name="Path 4503" d="M35.8,86.6v22.912h0v3.675L51.044,91.092l-2.132-.635Z" transform="translate(-26.59 -47.038)" fill="#e6eaeb" fill-rule="evenodd"/>
        <path id="Path_4504" data-name="Path 4504" d="M125.944,50.532V46.857h0V23.9L112.787,42.955,110.7,46.04Z" transform="translate(-67.508 -12.784)" fill="#e6eaeb" fill-rule="evenodd"/>
        <path id="Path_4505" data-name="Path 4505" d="M82.122,12.035,38.7,37.124A5.578,5.578,0,0,0,36.662,39.3a6.177,6.177,0,0,0-.862,2.677v3.675c22.231,6.579.635.181,22.367,6.624a2.9,2.9,0,0,0,2.223-.408,7.18,7.18,0,0,0,2.223-2.178c22.912-33.21.454-.635,22.367-32.485V13.532a1.74,1.74,0,0,0-2.858-1.5Z" transform="translate(-26.59 -6.092)" fill="#e6eaeb" fill-rule="evenodd"/>
        <path id="Path_4506" data-name="Path 4506" d="M85.08,19.475V15.8L61.942,49.373A4.685,4.685,0,0,1,60.49,50.78a1.763,1.763,0,0,1-1.452.272L35.9,44.2v3.675c20.053,5.943,4.809,1.406,22.367,6.624a2.9,2.9,0,0,0,2.223-.408,7.18,7.18,0,0,0,2.223-2.178C85.58,18.749,63.122,51.324,85.08,19.475Z" transform="translate(-26.645 -8.359)" fill="#e74c3c" fill-rule="evenodd"/>
        <path id="Path_4507" data-name="Path 4507" d="M25.4,67.063,16.235,61.8l-.045.091-.091.181-.091.136-.045.181-.045.181-.091.136-.045.181-.045.181-.045.181-.045.136v.181l-.045.181v.318l9.165,5.308v-.318l.045-.181.045-.181v-.181l.045-.136.045-.181.045-.181.091-.181.045-.136.091-.181.045-.181.091-.136Z" transform="translate(-15.555 -33.489)" fill="#9c9c9c" fill-rule="evenodd"/>
      </g>
    </g>
    <g id="Group_2421" data-name="Group 2421" transform="translate(-2.079 -1021.814)">
      <text id="MİKRO" transform="translate(1040 1251.814)" fill="#1f1e1e" font-size="20" font-family="AvenirNextCondensed-DemiBold, Avenir Next Condensed" font-weight="300"><tspan x="0" y="0">MİKRO</tspan></text>
      <text id="KEP-2" data-name="KEP" transform="translate(1040 1280.841)" fill="#1f1e1e" font-size="25" font-family="AvenirNextCondensed-DemiBold, Avenir Next Condensed" font-weight="300"><tspan x="0" y="0">KEP</tspan></text>
    </g>
  </g>
</svg>
