<svg xmlns="http://www.w3.org/2000/svg" width="233" height="100" viewBox="0 0 233 100">
  <g id="Serbest_Meslek_Makbuzu" data-name="Serbest Meslek Makbuzu" transform="translate(-964 -348)">
    <rect id="Rectangle_213" data-name="Rectangle 213" width="70" height="100" transform="translate(965 348)" fill="#fff"/>
    <g id="Group_2427" data-name="Group 2427" transform="translate(62 -982)">
      <g id="Group_2416" data-name="Group 2416" transform="translate(902 1340)">
        <g id="Group_2414" data-name="Group 2414" transform="translate(0 47.262)">
          <path id="Path_4759" data-name="Path 4759" d="M61.188,164.324c14,8.065,14,21.194,0,29.259-14,8.1-36.7,8.1-50.662,0-14-8.065-14-21.194,0-29.259C24.492,156.259,47.187,156.259,61.188,164.324Z" transform="translate(-0.025 -158.275)" fill="#040507" fill-rule="evenodd" opacity="0.003"/>
          <path id="Path_4760" data-name="Path 4760" d="M63.919,167.956c13.058,7.542,13.058,19.762,0,27.3s-34.217,7.542-47.275,0-13.058-19.762,0-27.3S50.861,160.415,63.919,167.956Z" transform="translate(-4.467 -160.895)" fill="#080a0d" fill-rule="evenodd" opacity="0.007"/>
          <path id="Path_4761" data-name="Path 4761" d="M66.75,171.488c12.116,6.983,12.116,18.331,0,25.348-12.116,6.983-31.773,6.983-43.888,0s-12.116-18.331,0-25.348S54.635,164.471,66.75,171.488Z" transform="translate(-8.974 -163.449)" fill="#0b0e14" fill-rule="evenodd" opacity="0.01"/>
          <path id="Path_4762" data-name="Path 4762" d="M69.481,175.07c11.173,6.459,11.173,16.934,0,23.393s-29.294,6.459-40.5,0c-11.173-6.459-11.173-16.934,0-23.393C40.187,168.61,58.308,168.61,69.481,175.07Z" transform="translate(-13.416 -166.053)" fill="#0f131b" fill-rule="evenodd" opacity="0.013"/>
          <ellipse id="Ellipse_60" data-name="Ellipse 60" cx="26.221" cy="15.153" rx="26.221" ry="15.153" transform="translate(9.593 5.56)" fill="#131822" opacity="0.017"/>
          <path id="Path_4763" data-name="Path 4763" d="M75.06,182.183c9.322,5.377,9.322,14.071,0,19.448s-24.406,5.377-33.693,0c-9.322-5.377-9.322-14.106,0-19.448C50.654,176.806,65.738,176.806,75.06,182.183Z" transform="translate(-22.382 -171.211)" fill="#171d29" fill-rule="evenodd" opacity="0.02"/>
          <path id="Path_4764" data-name="Path 4764" d="M77.791,185.764c8.38,4.818,8.38,12.674,0,17.493s-21.927,4.818-30.306,0-8.38-12.674,0-17.493S69.446,180.945,77.791,185.764Z" transform="translate(-26.824 -173.814)" fill="#1b2230" fill-rule="evenodd" opacity="0.023"/>
          <path id="Path_4765" data-name="Path 4765" d="M80.622,189.3c7.437,4.295,7.437,11.243,0,15.537s-19.483,4.295-26.92,0-7.437-11.243,0-15.537S73.185,185,80.622,189.3Z" transform="translate(-31.331 -176.369)" fill="#1f2737" fill-rule="evenodd" opacity="0.027"/>
          <path id="Path_4766" data-name="Path 4766" d="M83.419,192.877c6.494,3.736,6.494,9.846,0,13.582s-17,3.736-23.5,0-6.494-9.846,0-13.582S76.924,189.141,83.419,192.877Z" transform="translate(-35.838 -178.972)" fill="#232c3f" fill-rule="evenodd" opacity="0.03"/>
          <path id="Path_4767" data-name="Path 4767" d="M86.15,196.409c5.552,3.212,5.552,8.415,0,11.627s-14.56,3.212-20.111,0-5.552-8.415,0-11.627S80.6,193.2,86.15,196.409Z" transform="translate(-40.28 -181.527)" fill="#273246" fill-rule="evenodd" opacity="0.033"/>
          <path id="Path_4768" data-name="Path 4768" d="M88.981,199.99c4.609,2.654,4.609,6.983,0,9.672-4.609,2.654-12.116,2.654-16.724,0s-4.609-6.983,0-9.672C76.865,197.337,84.372,197.337,88.981,199.99Z" transform="translate(-44.787 -184.13)" fill="#2b374d" fill-rule="evenodd" opacity="0.037"/>
          <path id="Path_4769" data-name="Path 4769" d="M91.712,203.522c3.666,2.13,3.666,5.586,0,7.681a14.719,14.719,0,0,1-13.338,0c-3.666-2.13-3.666-5.586,0-7.681A14.719,14.719,0,0,1,91.712,203.522Z" transform="translate(-49.229 -186.684)" fill="#2f3c54" fill-rule="evenodd" opacity="0.04"/>
          <path id="Path_4770" data-name="Path 4770" d="M94.56,207.1c2.758,1.571,2.758,4.155,0,5.726a11.019,11.019,0,0,1-9.916,0c-2.758-1.571-2.758-4.155,0-5.726A11.019,11.019,0,0,1,94.56,207.1Z" transform="translate(-53.752 -189.288)" fill="#34415c" fill-rule="evenodd" opacity="0.043"/>
          <path id="Path_4771" data-name="Path 4771" d="M97.291,210.736c1.816,1.047,1.816,2.723,0,3.771a7.176,7.176,0,0,1-6.529,0c-1.816-1.047-1.816-2.723,0-3.771A7.176,7.176,0,0,1,97.291,210.736Z" transform="translate(-58.194 -191.908)" fill="#384763" fill-rule="evenodd" opacity="0.047"/>
        </g>
        <path id="Path_4772" data-name="Path 4772" d="M10.752,51.535,9.914,50.7l-.07-.1-.035-.1-.07-.1-.035-.14-.035-.1L9.635,50v-.1l-.035-.14V24.511l.035-.175.035-.14v-.175l.035-.14.035-.175.07-.175.035-.14.07-.175.07-.14.07-.175.07-.14.07-.175.07-.14.1-.175.07-.14.1-.14.1-.14.1-.175.1-.1.1-.14.1-.14.1-.14.1-.1.14-.1.1-.14.14-.1.14-.07.1-.1.14-.1.14-.07L46.855.349l.14-.07.14-.07.14-.07.1-.035.14-.035.1-.035h.14l.1-.035h.349l.1.035.07.035h.1l.1.07.1.035.838.873-.07-.07-.1-.035-.1-.035-.1-.035H48.6l-.1.035-.14.035-.1.035-.14.035-.1.07-.14.035-.14.1L13.022,21.228l-.1.07-.14.1-.14.07-.1.1-.14.1-.14.1-.1.14-.1.1-.14.14-.1.1-.1.14-.1.14-.1.14-.07.14-.1.175-.1.14-.07.14-.07.175-.1.14-.07.175-.07.14-.035.175-.07.14-.07.175-.035.175-.035.14-.035.175-.035.14-.035.175v.454l-.035,24.65v.14l.035.14v.14l.035.14.035.14.035.1.035.1.035.14.07.07Z" transform="translate(-6.257)" fill="#34485c" fill-rule="evenodd"/>
        <path id="Path_4773" data-name="Path 4773" d="M14.584,22.872,49.289,2.865c1.432-.8,2.584-.14,2.584,1.5V28.982a5.72,5.72,0,0,1-2.584,4.469L14.584,53.457c-1.432.8-2.584.14-2.584-1.5V27.341A5.857,5.857,0,0,1,14.584,22.872Z" transform="translate(-7.819 -1.643)" fill="#3d566e" fill-rule="evenodd"/>
        <path id="Path_4774" data-name="Path 4774" d="M17.687,28.826l9.148-5.272L52.079,8.994c.663-.384,1.187-.07,1.187.7V33.68A2.489,2.489,0,0,1,52.079,35.7L23.588,52.15l-5.9,3.387c-.663.384-1.187.07-1.187-.663V30.886A2.55,2.55,0,0,1,17.687,28.826Z" transform="translate(-10.748 -5.747)" fill="#9dd6f5" fill-rule="evenodd"/>
        <path id="Path_4775" data-name="Path 4775" d="M134.265,150.659,124,156.559V156l10.265-5.9Z" transform="translate(-80.714 -97.692)" fill="#e6eaeb" fill-rule="evenodd"/>
        <path id="Path_4776" data-name="Path 4776" d="M76.141,133.3v1.885l-.035.1-.035.1-.035.1-.07.1-.07.1-.07.07-.07.1-.07.07-.1.1-.1.07-.1.1-.14.07-.14.07L40.283,156.519l-.14.07-.14.07-.14.07-.175.035-.14.07-.14.035-.175.07-.175.035-.175.035-.14.035h-.175l-.175.035-.175.035H37.176L37,157.077l-.175-.035h-.175l-.175-.035-.175-.035-.14-.035-.175-.07-.14-.035-.175-.07-.14-.07-.14-.035-.14-.07-.14-.1-21.4-12.36-.1-.07-.14-.07-.1-.1-.1-.07-.1-.1-.07-.07-.1-.1-.07-.1-.035-.1-.07-.07-.035-.1-.035-.1-.035-.1v-1.885l.035.1.035.1.035.1.07.07.035.1.07.1.1.1.07.07.1.1.1.07.1.1.14.07.1.07,21.4,12.395.14.07.14.07.14.07.14.035.175.07.14.035.175.07.14.035.175.035.175.035h.175l.175.035.175.035h1.047l.175-.035.175-.035h.175l.14-.035.175-.035.175-.035.175-.07.14-.035.14-.07.175-.035.14-.07.14-.07.14-.07,34.811-20.111.14-.1.14-.07.1-.07.1-.1.1-.07.07-.1.07-.1.07-.07.07-.1.07-.1.035-.1.035-.1Z" transform="translate(-8.274 -86.758)" fill="#415a73" fill-rule="evenodd"/>
        <path id="Path_4777" data-name="Path 4777" d="M13.647,111.764,48.493,91.653a5.732,5.732,0,0,1,5.167,0l21.4,12.36c1.432.838,1.432,2.165,0,3L40.218,127.127a5.843,5.843,0,0,1-5.167,0l-21.4-12.36C12.251,113.929,12.251,112.567,13.647,111.764Z" transform="translate(-8.209 -59.251)" fill="#34485c" fill-rule="evenodd"/>
        <path id="Path_4778" data-name="Path 4778" d="M109.3,152.406l9.532-5.517-7.3-4.19L102,148.182Z" transform="translate(-66.395 -92.876)" fill="#415a73" fill-rule="evenodd"/>
        <path id="Path_4779" data-name="Path 4779" d="M27.026,117.661l2.758-1.571,4.155-2.409,4.329-2.514,2.165-1.257c.035-.035.07-.035.1-.07l2.758-1.571,4.155-2.409,4.329-2.514,5.656-3.247,1.257-.733a2.964,2.964,0,0,1,2.758,0l10.789,6.25c.768.454.768,1.152,0,1.606l-13.407,7.751c-.035.035-.07.07-.1.07L40.573,125.517a2.964,2.964,0,0,1-2.758,0l-10.789-6.25C26.258,118.813,26.258,118.08,27.026,117.661Z" transform="translate(-17.224 -64.45)" fill="#3d566e" fill-rule="evenodd"/>
        <g id="Group_2415" data-name="Group 2415" transform="translate(11.976 36.635)">
          <path id="Path_4780" data-name="Path 4780" d="M67.561,146.164l1.571-.908a1.333,1.333,0,0,1,1.152,0l1.571.908a.351.351,0,0,1,0,.663l-1.571.908a1.333,1.333,0,0,1-1.152,0l-1.571-.908A.351.351,0,0,1,67.561,146.164Z" transform="translate(-55.803 -131.089)" fill="#2c3e50" fill-rule="evenodd"/>
          <path id="Path_4781" data-name="Path 4781" d="M47.132,157.956l-1.571.908a.351.351,0,0,0,0,.663l1.571.908a1.333,1.333,0,0,0,1.152,0l1.571-.908a.351.351,0,0,0,0-.663l-1.571-.908A1.333,1.333,0,0,0,47.132,157.956Z" transform="translate(-41.484 -139.355)" fill="#2c3e50" fill-rule="evenodd"/>
          <path id="Path_4782" data-name="Path 4782" d="M58.132,164.307l-1.571.908a.351.351,0,0,0,0,.663l1.571.908a1.333,1.333,0,0,0,1.152,0l1.571-.908a.351.351,0,0,0,0-.663l-1.571-.908A1.135,1.135,0,0,0,58.132,164.307Z" transform="translate(-48.644 -143.471)" fill="#2c3e50" fill-rule="evenodd"/>
          <path id="Path_4783" data-name="Path 4783" d="M48.284,147.735l1.571-.908a.351.351,0,0,0,0-.663l-1.571-.908a1.333,1.333,0,0,0-1.152,0l-1.571.908a.351.351,0,0,0,0,.663l1.571.908A1.333,1.333,0,0,0,48.284,147.735Z" transform="translate(-41.484 -131.089)" fill="#2c3e50" fill-rule="evenodd"/>
          <path id="Path_4784" data-name="Path 4784" d="M59.284,141.335l1.571-.908a.351.351,0,0,0,0-.663l-1.571-.908a1.333,1.333,0,0,0-1.152,0l-1.571.908a.351.351,0,0,0,0,.663l1.571.908A1.333,1.333,0,0,0,59.284,141.335Z" transform="translate(-48.644 -126.924)" fill="#2c3e50" fill-rule="evenodd"/>
          <path id="Path_4785" data-name="Path 4785" d="M38.855,153.127l-1.571.908a1.333,1.333,0,0,1-1.152,0l-1.571-.908a.351.351,0,0,1,0-.663l1.571-.908a1.333,1.333,0,0,1,1.152,0l1.571.908C39.169,152.673,39.169,152.953,38.855,153.127Z" transform="translate(-34.325 -135.189)" fill="#2c3e50" fill-rule="evenodd"/>
          <path id="Path_4786" data-name="Path 4786" d="M56.609,152.464l1.571-.908a1.333,1.333,0,0,1,1.152,0l1.571.908a.351.351,0,0,1,0,.663l-1.571.908a1.333,1.333,0,0,1-1.152,0l-1.571-.908C56.33,152.953,56.33,152.673,56.609,152.464Z" transform="translate(-48.692 -135.189)" fill="#2c3e50" fill-rule="evenodd"/>
          <path id="Path_4787" data-name="Path 4787" d="M89.561,133.464l1.571-.908a1.333,1.333,0,0,1,1.152,0l1.571.908a.351.351,0,0,1,0,.663l-1.571.908a1.333,1.333,0,0,1-1.152,0l-1.571-.908A.351.351,0,0,1,89.561,133.464Z" transform="translate(-70.122 -122.823)" fill="#2c3e50" fill-rule="evenodd"/>
          <path id="Path_4788" data-name="Path 4788" d="M100.561,139.864l1.571-.908a1.333,1.333,0,0,1,1.152,0l1.571.908a.351.351,0,0,1,0,.663l-1.571.908a1.333,1.333,0,0,1-1.152,0l-1.571-.908C100.246,140.318,100.246,140.038,100.561,139.864Z" transform="translate(-77.281 -126.989)" fill="#2c3e50" fill-rule="evenodd"/>
          <path id="Path_4789" data-name="Path 4789" d="M70.284,135.035l1.571-.908a.351.351,0,0,0,0-.663l-1.571-.908a1.333,1.333,0,0,0-1.152,0l-1.571.908a.351.351,0,0,0,0,.663l1.571.908A1.333,1.333,0,0,0,70.284,135.035Z" transform="translate(-55.803 -122.823)" fill="#2c3e50" fill-rule="evenodd"/>
          <path id="Path_4790" data-name="Path 4790" d="M81.184,128.635l1.571-.908a.351.351,0,0,0,0-.663l-1.571-.908a1.333,1.333,0,0,0-1.152,0l-1.571.908a.351.351,0,0,0,0,.663l1.571.908A1.134,1.134,0,0,0,81.184,128.635Z" transform="translate(-62.897 -118.658)" fill="#2c3e50" fill-rule="evenodd"/>
          <path id="Path_4791" data-name="Path 4791" d="M78.561,139.864l1.571-.908a1.333,1.333,0,0,1,1.152,0l1.571.908a.351.351,0,0,1,0,.663l-1.571.908a1.333,1.333,0,0,1-1.152,0l-1.571-.908C78.246,140.318,78.246,140.038,78.561,139.864Z" transform="translate(-62.962 -126.989)" fill="#2c3e50" fill-rule="evenodd"/>
          <path id="Path_4792" data-name="Path 4792" d="M67.561,150.6l9.218-5.342a1.333,1.333,0,0,1,1.152,0l1.571.908a.351.351,0,0,1,0,.663l-9.218,5.342a1.333,1.333,0,0,1-1.152,0l-1.571-.908A.351.351,0,0,1,67.561,150.6Z" transform="translate(-55.803 -131.089)" fill="#2c3e50" fill-rule="evenodd"/>
          <path id="Path_4793" data-name="Path 4793" d="M126.061,112.364l1.571-.908a1.333,1.333,0,0,1,1.152,0l1.571.908a.351.351,0,0,1,0,.663l-1.571.908a1.333,1.333,0,0,1-1.152,0l-1.571-.908A.351.351,0,0,1,126.061,112.364Z" transform="translate(-93.878 -109.09)" fill="#2c3e50" fill-rule="evenodd"/>
          <path id="Path_4794" data-name="Path 4794" d="M137.061,118.764l1.571-.908a1.333,1.333,0,0,1,1.152,0l1.571.908a.351.351,0,0,1,0,.663l-1.571.908a1.333,1.333,0,0,1-1.152,0l-1.571-.908C136.746,119.218,136.746,118.938,137.061,118.764Z" transform="translate(-101.037 -113.256)" fill="#2c3e50" fill-rule="evenodd"/>
          <path id="Path_4795" data-name="Path 4795" d="M117.684,107.535l1.571-.908a.351.351,0,0,0,0-.663l-1.571-.908a1.333,1.333,0,0,0-1.152,0l-1.571.908a.351.351,0,0,0,0,.663l1.571.908A1.134,1.134,0,0,0,117.684,107.535Z" transform="translate(-86.653 -104.925)" fill="#2c3e50" fill-rule="evenodd"/>
          <path id="Path_4796" data-name="Path 4796" d="M115.061,118.764l1.571-.908a1.333,1.333,0,0,1,1.152,0l1.571.908a.351.351,0,0,1,0,.663l-1.571.908a1.333,1.333,0,0,1-1.152,0l-1.571-.908C114.746,119.218,114.746,118.938,115.061,118.764Z" transform="translate(-86.718 -113.256)" fill="#2c3e50" fill-rule="evenodd"/>
          <path id="Path_4797" data-name="Path 4797" d="M126.061,125.064l1.571-.908a1.333,1.333,0,0,1,1.152,0l1.571.908a.351.351,0,0,1,0,.663l-1.571.908a1.333,1.333,0,0,1-1.152,0l-1.571-.908A.351.351,0,0,1,126.061,125.064Z" transform="translate(-93.878 -117.356)" fill="#2c3e50" fill-rule="evenodd"/>
          <path id="Path_4798" data-name="Path 4798" d="M95.784,120.235l1.571-.908a.351.351,0,0,0,0-.663l-1.571-.908a1.333,1.333,0,0,0-1.152,0l-1.571.908a.351.351,0,0,0,0,.663l1.571.908A1.333,1.333,0,0,0,95.784,120.235Z" transform="translate(-72.4 -113.191)" fill="#2c3e50" fill-rule="evenodd"/>
          <path id="Path_4799" data-name="Path 4799" d="M106.784,113.935l1.571-.908a.351.351,0,0,0,0-.663l-1.571-.908a1.333,1.333,0,0,0-1.152,0l-1.571.908a.351.351,0,0,0,0,.663l1.571.908A1.333,1.333,0,0,0,106.784,113.935Z" transform="translate(-79.559 -109.09)" fill="#2c3e50" fill-rule="evenodd"/>
          <path id="Path_4800" data-name="Path 4800" d="M104.061,125.064l1.571-.908a1.333,1.333,0,0,1,1.152,0l1.571.908a.351.351,0,0,1,0,.663l-1.571.908a1.333,1.333,0,0,1-1.152,0l-1.571-.908A.351.351,0,0,1,104.061,125.064Z" transform="translate(-79.559 -117.356)" fill="#2c3e50" fill-rule="evenodd"/>
          <path id="Path_4801" data-name="Path 4801" d="M115.061,131.464l1.571-.908a1.333,1.333,0,0,1,1.152,0l1.571.908a.351.351,0,0,1,0,.663l-1.571.908a1.333,1.333,0,0,1-1.152,0l-1.571-.908C114.746,131.918,114.746,131.638,115.061,131.464Z" transform="translate(-86.718 -121.522)" fill="#2c3e50" fill-rule="evenodd"/>
        </g>
        <path id="Path_4802" data-name="Path 4802" d="M67.461,145.364l1.571-.908a1.333,1.333,0,0,1,1.152,0l1.571.908a.351.351,0,0,1,0,.663l-1.571.908a1.333,1.333,0,0,1-1.152,0l-1.571-.908C67.146,145.853,67.146,145.573,67.461,145.364Z" transform="translate(-43.762 -93.934)" fill="#e6eaeb" fill-rule="evenodd"/>
        <path id="Path_4803" data-name="Path 4803" d="M47.1,157.2l-1.536.873a.351.351,0,0,0,0,.663l1.571.908a1.333,1.333,0,0,0,1.152,0l1.571-.908a.351.351,0,0,0,0-.663l-1.571-.908A1.293,1.293,0,0,0,47.1,157.2Z" transform="translate(-29.508 -102.207)" fill="#e6eaeb" fill-rule="evenodd"/>
        <path id="Path_4804" data-name="Path 4804" d="M58.032,163.556l-1.571.908a.351.351,0,0,0,0,.663l1.571.908a1.333,1.333,0,0,0,1.152,0l1.571-.908a.351.351,0,0,0,0-.663l-1.571-.908A1.333,1.333,0,0,0,58.032,163.556Z" transform="translate(-36.603 -106.365)" fill="#e6eaeb" fill-rule="evenodd"/>
        <path id="Path_4805" data-name="Path 4805" d="M48.184,146.935l1.571-.908a.351.351,0,0,0,0-.663l-1.571-.908a1.333,1.333,0,0,0-1.152,0l-1.571.908a.351.351,0,0,0,0,.663l1.571.908A1.333,1.333,0,0,0,48.184,146.935Z" transform="translate(-29.443 -93.934)" fill="#e6eaeb" fill-rule="evenodd"/>
        <path id="Path_4806" data-name="Path 4806" d="M59.249,140.635l1.571-.908a.351.351,0,0,0,0-.663l-1.571-.908a1.333,1.333,0,0,0-1.152,0l-1.536.908a.351.351,0,0,0,0,.663l1.571.908A1.257,1.257,0,0,0,59.249,140.635Z" transform="translate(-36.668 -89.833)" fill="#e6eaeb" fill-rule="evenodd"/>
        <path id="Path_4807" data-name="Path 4807" d="M38.755,152.427l-1.571.908a1.333,1.333,0,0,1-1.152,0l-1.571-.908a.351.351,0,0,1,0-.663l1.571-.908a1.333,1.333,0,0,1,1.152,0l1.571.908A.351.351,0,0,1,38.755,152.427Z" transform="translate(-22.284 -98.099)" fill="#e6eaeb" fill-rule="evenodd"/>
        <path id="Path_4808" data-name="Path 4808" d="M56.461,151.764l1.571-.908a1.333,1.333,0,0,1,1.152,0l1.571.908a.351.351,0,0,1,0,.663l-1.571.908a1.333,1.333,0,0,1-1.152,0l-1.571-.908A.351.351,0,0,1,56.461,151.764Z" transform="translate(-36.603 -98.099)" fill="#e6eaeb" fill-rule="evenodd"/>
        <path id="Path_4809" data-name="Path 4809" d="M89.461,132.764l1.571-.908a1.333,1.333,0,0,1,1.152,0l1.571.908a.351.351,0,0,1,0,.663l-1.571.908a1.333,1.333,0,0,1-1.152,0l-1.571-.908C89.146,133.218,89.146,132.938,89.461,132.764Z" transform="translate(-58.081 -85.733)" fill="#e6eaeb" fill-rule="evenodd"/>
        <path id="Path_4810" data-name="Path 4810" d="M100.461,139.064l1.571-.908a1.333,1.333,0,0,1,1.152,0l1.571.908a.351.351,0,0,1,0,.663l-1.571.908a1.333,1.333,0,0,1-1.152,0l-1.571-.908A.351.351,0,0,1,100.461,139.064Z" transform="translate(-65.24 -89.833)" fill="#e6eaeb" fill-rule="evenodd"/>
        <path id="Path_4811" data-name="Path 4811" d="M70.184,134.235l1.571-.908a.351.351,0,0,0,0-.663l-1.571-.908a1.333,1.333,0,0,0-1.152,0l-1.571.908a.351.351,0,0,0,0,.663l1.571.908A1.333,1.333,0,0,0,70.184,134.235Z" transform="translate(-43.762 -85.668)" fill="#e6eaeb" fill-rule="evenodd"/>
        <path id="Path_4812" data-name="Path 4812" d="M81.084,127.935l1.571-.908a.351.351,0,0,0,0-.663l-1.571-.908a1.333,1.333,0,0,0-1.152,0l-1.571.908a.351.351,0,0,0,0,.663l1.571.908A1.332,1.332,0,0,0,81.084,127.935Z" transform="translate(-50.856 -81.567)" fill="#e6eaeb" fill-rule="evenodd"/>
        <path id="Path_4813" data-name="Path 4813" d="M78.461,139.064l1.571-.908a1.333,1.333,0,0,1,1.152,0l1.571.908a.351.351,0,0,1,0,.663l-1.571.908a1.333,1.333,0,0,1-1.152,0l-1.571-.908A.351.351,0,0,1,78.461,139.064Z" transform="translate(-50.921 -89.833)" fill="#e6eaeb" fill-rule="evenodd"/>
        <path id="Path_4814" data-name="Path 4814" d="M67.461,149.8l9.218-5.342a1.333,1.333,0,0,1,1.152,0l1.571.908a.351.351,0,0,1,0,.663l-9.218,5.342a1.333,1.333,0,0,1-1.152,0l-1.571-.908C67.146,150.287,67.146,150.007,67.461,149.8Z" transform="translate(-43.762 -93.934)" fill="#e6eaeb" fill-rule="evenodd"/>
        <path id="Path_4815" data-name="Path 4815" d="M125.961,111.664l1.571-.908a1.333,1.333,0,0,1,1.152,0l1.571.908a.351.351,0,0,1,0,.663l-1.571.908a1.333,1.333,0,0,1-1.152,0l-1.571-.908C125.646,112.118,125.646,111.838,125.961,111.664Z" transform="translate(-81.837 -72)" fill="#e6eaeb" fill-rule="evenodd"/>
        <path id="Path_4816" data-name="Path 4816" d="M136.961,117.964l1.571-.908a1.333,1.333,0,0,1,1.152,0l1.571.908a.351.351,0,0,1,0,.663l-1.571.908a1.333,1.333,0,0,1-1.152,0l-1.571-.908A.351.351,0,0,1,136.961,117.964Z" transform="translate(-88.996 -76.1)" fill="#e6eaeb" fill-rule="evenodd"/>
        <path id="Path_4817" data-name="Path 4817" d="M117.584,106.835l1.571-.908a.351.351,0,0,0,0-.663l-1.571-.908a1.333,1.333,0,0,0-1.152,0l-1.571.908a.351.351,0,0,0,0,.663l1.571.908A1.332,1.332,0,0,0,117.584,106.835Z" transform="translate(-74.612 -67.835)" fill="#e6eaeb" fill-rule="evenodd"/>
        <path id="Path_4818" data-name="Path 4818" d="M114.961,117.964l1.571-.908a1.333,1.333,0,0,1,1.152,0l1.571.908a.351.351,0,0,1,0,.663l-1.571.908a1.333,1.333,0,0,1-1.152,0l-1.571-.908A.351.351,0,0,1,114.961,117.964Z" transform="translate(-74.677 -76.1)" fill="#e6eaeb" fill-rule="evenodd"/>
        <path id="Path_4819" data-name="Path 4819" d="M125.961,124.364l1.571-.908a1.333,1.333,0,0,1,1.152,0l1.571.908a.351.351,0,0,1,0,.663l-1.571.908a1.333,1.333,0,0,1-1.152,0l-1.571-.908C125.646,124.818,125.646,124.538,125.961,124.364Z" transform="translate(-81.837 -80.266)" fill="#e6eaeb" fill-rule="evenodd"/>
        <path id="Path_4820" data-name="Path 4820" d="M95.684,119.535l1.571-.908a.351.351,0,0,0,0-.663l-1.571-.908a1.333,1.333,0,0,0-1.152,0l-1.571.908a.351.351,0,0,0,0,.663l1.571.908A1.333,1.333,0,0,0,95.684,119.535Z" transform="translate(-60.359 -76.1)" fill="#e6eaeb" fill-rule="evenodd"/>
        <path id="Path_4821" data-name="Path 4821" d="M106.684,113.135l1.571-.908a.351.351,0,0,0,0-.663l-1.571-.908a1.333,1.333,0,0,0-1.152,0l-1.571.908a.351.351,0,0,0,0,.663l1.571.908A1.333,1.333,0,0,0,106.684,113.135Z" transform="translate(-67.518 -71.935)" fill="#e6eaeb" fill-rule="evenodd"/>
        <path id="Path_4822" data-name="Path 4822" d="M103.961,124.364l1.571-.908a1.333,1.333,0,0,1,1.152,0l1.571.908a.351.351,0,0,1,0,.663l-1.571.908a1.333,1.333,0,0,1-1.152,0l-1.571-.908C103.646,124.818,103.646,124.538,103.961,124.364Z" transform="translate(-67.518 -80.266)" fill="#e6eaeb" fill-rule="evenodd"/>
        <path id="Path_4823" data-name="Path 4823" d="M114.961,130.664l1.571-.908a1.333,1.333,0,0,1,1.152,0l1.571.908a.351.351,0,0,1,0,.663l-1.571.908a1.333,1.333,0,0,1-1.152,0l-1.571-.908A.351.351,0,0,1,114.961,130.664Z" transform="translate(-74.677 -84.366)" fill="#e6eaeb" fill-rule="evenodd"/>
        <path id="Path_4824" data-name="Path 4824" d="M10.752,93.515l-.838-.838-.07-.1-.035-.1-.07-.1-.035-.14-.035-.1-.035-.14v-.1l-.035-.14V66.49l.035-.175.035-.14V66l.035-.14.035-.175.07-.175.035-.14.07-.175.07-.14.07-.175.07-.14.07-.175.035-.07,1.013.559-.035.07-.07.14-.07.175-.1.14-.07.175-.07.14-.035.175-.07.14-.07.175-.035.175-.035.14-.035.175-.035.14-.035.175v.454l-.035,24.65v.14l.035.14v.14l.035.14.035.14.035.1.035.1.035.14.07.07Z" transform="translate(-6.257 -41.98)" fill="#2c3e50" fill-rule="evenodd"/>
        <path id="Path_4825" data-name="Path 4825" d="M37.909,171.561v-1.885h-.733L37,169.641l-.175-.035h-.175l-.175-.035-.175-.035-.14-.035-.175-.07-.14-.035-.175-.07-.14-.035-.14-.07-.14-.07-.14-.07-21.4-12.395-.1-.07-.14-.07-.1-.1-.1-.07-.1-.1-.07-.07-.1-.1-.07-.1-.035-.1-.07-.07-.035-.1-.035-.1-.035-.1v1.885l.035.1.035.1.035.1.07.07.035.1.07.1.1.1.07.07.1.1.1.07.1.1.14.07.1.07,21.4,12.36.14.1.14.07.14.035.14.07.175.07.14.035.175.07.14.035.175.035.175.035h.175l.175.035.175.035h.7Z" transform="translate(-8.274 -101.207)" fill="#2c3e50" fill-rule="evenodd"/>
      </g>
      <g id="Group_2417" data-name="Group 2417" transform="translate(919.953 1351.082)">
        <path id="Path_4456" data-name="Path 4456" d="M34.437,30.469,32.6,29.4V7.048l.384.219.74-.411.74-1.262.74.411.823-.466.74-1.262.74.411.823-.466.74-1.262.74.411.823-.466.74-1.262.74.411.823-.466L43.68.329,45.517,1.4l-.74,1.262-.823.466-.74-.411-.74,1.262-.823.466-.74-.411-.74,1.262-.823.466-.74-.411-.768,1.234-.823.466-.74-.411L35.534,7.9l-.74.411L34.41,8.09V30.469ZM45.051.274l-.713.411,1.837,1.07.713-.411.165-.274L45.243,0Z" transform="translate(-32.6)" fill="#bdbdbd" fill-rule="evenodd"/>
        <path id="Path_4457" data-name="Path 4457" d="M51.943,9.22V25.758l-.192-.11-.713.439-.74,1.234-.713-.411-.823.494-.74,1.262-.74-.411-.823.466-.74,1.262L45,29.57l-.823.466-.74,1.262-.74-.411-.823.466-.713,1.262-.74-.411-.74.439L39.3,33.3V10.921l.384.219.74-.411.74-1.262.713.411.823-.466.74-1.262.74.411L45,8.1l.713-1.262.74.411.823-.494.74-1.234.74.411.823-.494L50.3,4.174l.74.411.713-.411.192-.274V9.22Z" transform="translate(-37.463 -2.83)" fill="#e6eaeb" fill-rule="evenodd"/>
        <path id="Path_4458" data-name="Path 4458" d="M44.9,46.2l8.831-5.1v.384L44.9,46.612Z" transform="translate(-41.527 -29.828)" fill="#676775" fill-rule="evenodd"/>
        <path id="Path_4459" data-name="Path 4459" d="M44.9,53.04l9.571-5.54v.411L44.9,53.451Z" transform="translate(-41.527 -34.473)" fill="#676775" fill-rule="evenodd"/>
        <path id="Path_4460" data-name="Path 4460" d="M44.9,64.661,52.442,60.3v.411L44.9,65.072Z" transform="translate(-41.527 -43.763)" fill="#676775" fill-rule="evenodd"/>
        <path id="Path_4461" data-name="Path 4461" d="M44.9,89.467,48.657,87.3v.411L44.9,89.878Z" transform="translate(-41.527 -63.358)" fill="#676775" fill-rule="evenodd"/>
        <path id="Path_4462" data-name="Path 4462" d="M72.8,76.37l1.837-1.07v.384l-1.837,1.1Z" transform="translate(-61.775 -54.649)" fill="#676775" fill-rule="evenodd"/>
        <path id="Path_4463" data-name="Path 4463" d="M44.9,31.273,47.78,29.6v.411L44.9,31.684Z" transform="translate(-41.527 -21.482)" fill="#676775" fill-rule="evenodd"/>
        <path id="Path_4464" data-name="Path 4464" d="M67.9,17.537,71.081,15.7v.411L67.9,17.949Z" transform="translate(-58.219 -11.394)" fill="#676775" fill-rule="evenodd"/>
        <path id="Path_4465" data-name="Path 4465" d="M44.9,34.8l5.375-3.1v.411L44.9,35.21Z" transform="translate(-41.527 -23.006)" fill="#676775" fill-rule="evenodd"/>
        <path id="Path_4466" data-name="Path 4466" d="M76.1,23.521,77.032,23v.411l-.932.521Z" transform="translate(-64.17 -16.692)" fill="#676775" fill-rule="evenodd"/>
        <path id="Path_4467" data-name="Path 4467" d="M32.6,25.7V48.051l1.837,1.07V26.77Z" transform="translate(-32.6 -18.652)" fill="#9c9c9c" fill-rule="evenodd"/>
      </g>
    </g>
    <g id="Group_2426" data-name="Group 2426" transform="translate(-61 -1091.426)">
      <text id="MY" transform="translate(1099 1464.814)" fill="#1f1e1e" font-size="20" font-family="AvenirNextCondensed-DemiBold, Avenir Next Condensed" font-weight="300"><tspan x="0" y="0">MY</tspan></text>
      <text id="SERBEST_MESLEK_MAKBUZU-2" data-name="SERBEST MESLEK
MAKBUZU" transform="translate(1099 1493.841)" fill="#1f1e1e" font-size="25" font-family="AvenirNextCondensed-DemiBold, Avenir Next Condensed" font-weight="300"><tspan x="0" y="0">SERBEST MESLEK</tspan><tspan x="0" y="24">MAKBUZU</tspan></text>
    </g>
  </g>
</svg>
