<svg xmlns="http://www.w3.org/2000/svg" width="156" height="100" viewBox="0 0 156 100">
  <g id="irsaliye" transform="translate(-221 -346)">
    <rect id="Rectangle_207" data-name="Rectangle 207" width="70" height="100" transform="translate(221 346)" fill="#fff"/>
    <g id="Group_2404" data-name="Group 2404" transform="translate(227.05 357)">
      <g id="Group_2401" data-name="Group 2401" transform="translate(-0.05 44.497)">
        <path id="Path_4560" data-name="Path 4560" d="M49.316,100.392c11.276,6.523,11.276,17.1,0,23.623s-29.587,6.523-40.91,0c-11.276-6.523-11.276-17.1,0-23.623C19.729,93.869,38.041,93.869,49.316,100.392Z" transform="translate(0.05 -95.5)" fill="#040507" fill-rule="evenodd" opacity="0.003"/>
        <path id="Path_4561" data-name="Path 4561" d="M50.208,102.453c10.53,6.1,10.53,15.935,0,22.039-10.53,6.057-27.63,6.057-38.161,0-10.53-6.1-10.53-15.935,0-22.039S39.678,96.349,50.208,102.453Z" transform="translate(-2.193 -96.768)" fill="#080a0d" fill-rule="evenodd" opacity="0.007"/>
        <ellipse id="Ellipse_52" data-name="Ellipse 52" cx="25.021" cy="14.444" rx="25.021" ry="14.444" transform="translate(3.937 2.237)" fill="#0b0e14" opacity="0.01"/>
        <path id="Path_4562" data-name="Path 4562" d="M51.892,106.614c9.039,5.219,9.039,13.652,0,18.871s-23.67,5.219-32.662,0c-9.039-5.219-9.039-13.652,0-18.871S42.9,101.4,51.892,106.614Z" transform="translate(-6.626 -99.345)" fill="#0f131b" fill-rule="evenodd" opacity="0.013"/>
        <path id="Path_4563" data-name="Path 4563" d="M52.824,108.674c8.247,4.753,8.247,12.534,0,17.286s-21.666,4.753-29.913,0-8.247-12.534,0-17.286C31.158,103.875,44.53,103.875,52.824,108.674Z" transform="translate(-8.909 -100.614)" fill="#131822" fill-rule="evenodd" opacity="0.017"/>
        <path id="Path_4564" data-name="Path 4564" d="M53.562,110.775c7.5,4.333,7.5,11.369,0,15.7s-19.663,4.333-27.211,0c-7.5-4.333-7.5-11.369,0-15.7C33.9,106.442,46.061,106.442,53.562,110.775Z" transform="translate(-11.045 -101.922)" fill="#171d29" fill-rule="evenodd" opacity="0.02"/>
        <path id="Path_4565" data-name="Path 4565" d="M54.454,112.835c6.756,3.914,6.756,10.2,0,14.118s-17.706,3.914-24.462,0-6.756-10.2,0-14.118S47.7,108.922,54.454,112.835Z" transform="translate(-13.288 -103.19)" fill="#1b2230" fill-rule="evenodd" opacity="0.023"/>
        <path id="Path_4566" data-name="Path 4566" d="M55.346,114.9c6.011,3.448,6.011,9.086,0,12.534s-15.7,3.448-21.713,0-6.011-9.086,0-12.534C39.6,111.4,49.335,111.4,55.346,114.9Z" transform="translate(-15.531 -104.459)" fill="#1f2737" fill-rule="evenodd" opacity="0.027"/>
        <path id="Path_4567" data-name="Path 4567" d="M56.178,117c5.219,3.029,5.219,7.921,0,10.95s-13.745,3.029-18.964,0-5.219-7.921,0-10.95S50.959,113.968,56.178,117Z" transform="translate(-17.761 -105.767)" fill="#232c3f" fill-rule="evenodd" opacity="0.03"/>
        <path id="Path_4568" data-name="Path 4568" d="M57.07,119.057c4.473,2.609,4.473,6.8,0,9.365-4.473,2.609-11.742,2.609-16.215,0s-4.473-6.8,0-9.365C45.328,116.448,52.6,116.448,57.07,119.057Z" transform="translate(-20.004 -107.036)" fill="#273246" fill-rule="evenodd" opacity="0.033"/>
        <path id="Path_4569" data-name="Path 4569" d="M57.808,121.157c3.728,2.143,3.728,5.638,0,7.781a15,15,0,0,1-13.512,0c-3.728-2.143-3.728-5.638,0-7.781A15,15,0,0,1,57.808,121.157Z" transform="translate(-22.14 -108.344)" fill="#2b374d" fill-rule="evenodd" opacity="0.037"/>
        <path id="Path_4570" data-name="Path 4570" d="M58.7,123.218c2.982,1.724,2.982,4.473,0,6.2a11.846,11.846,0,0,1-10.763,0c-2.982-1.724-2.982-4.473,0-6.2A11.846,11.846,0,0,1,58.7,123.218Z" transform="translate(-24.383 -109.613)" fill="#2f3c54" fill-rule="evenodd" opacity="0.04"/>
        <path id="Path_4571" data-name="Path 4571" d="M59.632,125.278c2.19,1.258,2.19,3.355,0,4.613a8.981,8.981,0,0,1-8.014,0c-2.19-1.258-2.19-3.355,0-4.613A8.694,8.694,0,0,1,59.632,125.278Z" transform="translate(-26.666 -110.881)" fill="#34415c" fill-rule="evenodd" opacity="0.043"/>
        <path id="Path_4572" data-name="Path 4572" d="M60.423,127.379c1.444.839,1.444,2.19,0,3.029a5.823,5.823,0,0,1-5.265,0c-1.444-.839-1.444-2.19,0-3.029A5.823,5.823,0,0,1,60.423,127.379Z" transform="translate(-28.856 -112.189)" fill="#384763" fill-rule="evenodd" opacity="0.047"/>
      </g>
      <g id="Group_2403" data-name="Group 2403" transform="translate(6.823)">
        <path id="Path_4573" data-name="Path 4573" d="M14.7,55.82v.233l.047.233.047.186.093.186.093.14.093.14.14.093.14.093,1.631.932-.14-.093-.14-.093-.093-.14-.093-.14-.047-.186-.047-.186-.047-.233V26.7l.047-.28.047-.28.047-.28.093-.28.093-.233.14-.233c.093-.186.186-.326.28-.513l.14-.233.186-.233.186-.186.186-.186.186-.186.186-.14.233-.14L56.774,1.211l.233-.093.186-.093L57.38.978l.186-.047h.373l.14.047.14.047L56.588.093l-.14-.047L56.309,0h-.373l-.186.047-.186.047-.186.093L55.144.28,16.75,22.412l-.233.14-.186.14-.186.186-.186.186-.186.233-.186.233-.14.233c-.093.186-.186.326-.28.513l-.14.233-.093.28-.093.233-.047.28-.047.28-.047.233V55.82Z" transform="translate(-14.7)" fill="#9c9c9c" fill-rule="evenodd"/>
        <path id="Path_4574" data-name="Path 4574" d="M58.737,36.846a4.314,4.314,0,0,0,1.4-1.491h0a4.323,4.323,0,0,0,.606-2.05V3.484a1.507,1.507,0,0,0-.606-1.351,1.387,1.387,0,0,0-1.444.14L20.25,24.452a4.192,4.192,0,0,0-1.444,1.538h0a4.323,4.323,0,0,0-.606,2.05V57.86a1.507,1.507,0,0,0,.606,1.351,1.387,1.387,0,0,0,1.444-.14Z" transform="translate(-16.569 -1.061)" fill="#e6eaeb" fill-rule="evenodd"/>
        <path id="Path_4575" data-name="Path 4575" d="M33.713,59.532c-.28.186-.513.047-.513-.28a1.1,1.1,0,0,1,.513-.885l13.745-7.921c.28-.186.513-.047.513.28a1.1,1.1,0,0,1-.513.885L33.713,59.532ZM47.458,45.6,33.713,53.521a1.176,1.176,0,0,0-.513.885c0,.326.233.466.513.326l13.745-7.921a1.176,1.176,0,0,0,.513-.885c0-.373-.233-.513-.513-.326ZM33.713,42.758c-.28.186-.513.047-.513-.28a1.1,1.1,0,0,1,.513-.885L61.2,25.7c.28-.186.513-.047.513.28a1.1,1.1,0,0,1-.513.885Z" transform="translate(-24.58 -13.683)" fill="#30383b" fill-rule="evenodd"/>
        <g id="Group_2402" data-name="Group 2402" transform="translate(25.999 32.336)">
          <path id="Path_4576" data-name="Path 4576" d="M72.626,94.986,72.3,94.8h0v.047h0v.047l.28.186v-.047h.047v-.047Z" transform="translate(-71.461 -82.965)" fill="#d44f3e" fill-rule="evenodd"/>
          <path id="Path_4577" data-name="Path 4577" d="M71.618,95.186,71.339,95,70.5,97.05l.326.186Z" transform="translate(-70.5 -83.072)" fill="#d44f3e" fill-rule="evenodd"/>
          <path id="Path_4578" data-name="Path 4578" d="M76.726,95.286,76.4,95.1l.047.047v.093l.326.186v-.093Z" transform="translate(-73.651 -83.125)" fill="#d44f3e" fill-rule="evenodd"/>
          <path id="Path_4579" data-name="Path 4579" d="M76.826,95.586,76.5,95.4l.745,2.19.326.186Z" transform="translate(-73.704 -83.286)" fill="#d44f3e" fill-rule="evenodd"/>
          <path id="Path_4580" data-name="Path 4580" d="M85.526,82.086,85.2,81.9h0Z" transform="translate(-78.351 -76.076)" fill="#d44f3e" fill-rule="evenodd"/>
          <path id="Path_4581" data-name="Path 4581" d="M85.473,82.086l-.326-.186H85.1l.326.186Z" transform="translate(-78.297 -76.076)" fill="#d44f3e" fill-rule="evenodd"/>
          <path id="Path_4582" data-name="Path 4582" d="M85.426,82.086,85.1,81.9v.047l.28.186Z" transform="translate(-78.297 -76.076)" fill="#d44f3e" fill-rule="evenodd"/>
          <path id="Path_4583" data-name="Path 4583" d="M85.326,82.186,85.047,82H85Z" transform="translate(-78.244 -76.129)" fill="#d44f3e" fill-rule="evenodd"/>
          <path id="Path_4584" data-name="Path 4584" d="M85.326,82.186,85,82h0l.28.186Z" transform="translate(-78.244 -76.129)" fill="#d44f3e" fill-rule="evenodd"/>
          <path id="Path_4585" data-name="Path 4585" d="M85.226,82.186,84.947,82H84.9Z" transform="translate(-78.19 -76.129)" fill="#d44f3e" fill-rule="evenodd"/>
          <path id="Path_4586" data-name="Path 4586" d="M85.173,82.186,84.847,82H84.8l.326.186Z" transform="translate(-78.137 -76.129)" fill="#d44f3e" fill-rule="evenodd"/>
          <path id="Path_4587" data-name="Path 4587" d="M85.126,82.186,84.8,82h0Z" transform="translate(-78.137 -76.129)" fill="#d44f3e" fill-rule="evenodd"/>
          <path id="Path_4588" data-name="Path 4588" d="M85.073,82.186,84.747,82l-.047.047.326.186Z" transform="translate(-78.084 -76.129)" fill="#d44f3e" fill-rule="evenodd"/>
          <path id="Path_4589" data-name="Path 4589" d="M85.026,82.286,84.7,82.1h0Z" transform="translate(-78.084 -76.183)" fill="#d44f3e" fill-rule="evenodd"/>
          <path id="Path_4590" data-name="Path 4590" d="M84.973,82.286l-.326-.186H84.6l.326.186Z" transform="translate(-78.03 -76.183)" fill="#d44f3e" fill-rule="evenodd"/>
          <path id="Path_4591" data-name="Path 4591" d="M84.926,82.286,84.6,82.1h0Z" transform="translate(-78.03 -76.183)" fill="#d44f3e" fill-rule="evenodd"/>
          <path id="Path_4592" data-name="Path 4592" d="M84.873,82.286l-.326-.186H84.5l.326.186Z" transform="translate(-77.977 -76.183)" fill="#d44f3e" fill-rule="evenodd"/>
          <path id="Path_4593" data-name="Path 4593" d="M84.826,82.286,84.5,82.1h0Z" transform="translate(-77.977 -76.183)" fill="#d44f3e" fill-rule="evenodd"/>
          <path id="Path_4594" data-name="Path 4594" d="M84.773,82.286l-.326-.186H84.4l.326.186Z" transform="translate(-77.923 -76.183)" fill="#d44f3e" fill-rule="evenodd"/>
          <path id="Path_4595" data-name="Path 4595" d="M84.726,82.286,84.4,82.1v.047l.326.186Z" transform="translate(-77.923 -76.183)" fill="#d44f3e" fill-rule="evenodd"/>
          <path id="Path_4596" data-name="Path 4596" d="M84.619,82.386l-.326-.186H84.2l.326.186Z" transform="translate(-77.817 -76.236)" fill="#d44f3e" fill-rule="evenodd"/>
          <path id="Path_4597" data-name="Path 4597" d="M84.473,82.386l-.326-.186H84.1l.326.186Z" transform="translate(-77.763 -76.236)" fill="#d44f3e" fill-rule="evenodd"/>
          <path id="Path_4598" data-name="Path 4598" d="M84.426,82.386,84.1,82.2h0Z" transform="translate(-77.763 -76.236)" fill="#d44f3e" fill-rule="evenodd"/>
          <path id="Path_4599" data-name="Path 4599" d="M84.373,82.386l-.326-.186H84l.326.186Z" transform="translate(-77.71 -76.236)" fill="#d44f3e" fill-rule="evenodd"/>
          <path id="Path_4600" data-name="Path 4600" d="M84.326,82.386,84,82.2h0Z" transform="translate(-77.71 -76.236)" fill="#d44f3e" fill-rule="evenodd"/>
          <path id="Path_4601" data-name="Path 4601" d="M84.326,82.386,84,82.2v.047l.28.14Z" transform="translate(-77.71 -76.236)" fill="#d44f3e" fill-rule="evenodd"/>
          <path id="Path_4602" data-name="Path 4602" d="M84.226,82.44l-.28-.14H83.9l.326.186Z" transform="translate(-77.656 -76.289)" fill="#d44f3e" fill-rule="evenodd"/>
          <path id="Path_4603" data-name="Path 4603" d="M84.226,82.486,83.9,82.3h0l.28.186Z" transform="translate(-77.656 -76.289)" fill="#d44f3e" fill-rule="evenodd"/>
          <path id="Path_4604" data-name="Path 4604" d="M84.126,82.486l-.28-.186H83.8Z" transform="translate(-77.603 -76.289)" fill="#d44f3e" fill-rule="evenodd"/>
          <path id="Path_4605" data-name="Path 4605" d="M84.073,82.486l-.326-.186H83.7l.326.186Z" transform="translate(-77.55 -76.289)" fill="#d44f3e" fill-rule="evenodd"/>
          <path id="Path_4606" data-name="Path 4606" d="M84.026,82.486,83.7,82.3h0l.28.186Z" transform="translate(-77.55 -76.289)" fill="#d44f3e" fill-rule="evenodd"/>
          <path id="Path_4607" data-name="Path 4607" d="M83.926,82.486l-.28-.186H83.6Z" transform="translate(-77.496 -76.289)" fill="#d44f3e" fill-rule="evenodd"/>
          <path id="Path_4608" data-name="Path 4608" d="M83.926,82.486,83.6,82.3h0l.28.186Z" transform="translate(-77.496 -76.289)" fill="#d44f3e" fill-rule="evenodd"/>
          <path id="Path_4609" data-name="Path 4609" d="M83.826,82.486l-.28-.186H83.5Z" transform="translate(-77.443 -76.289)" fill="#d44f3e" fill-rule="evenodd"/>
          <path id="Path_4610" data-name="Path 4610" d="M83.826,82.486,83.5,82.3h0l.28.186Z" transform="translate(-77.443 -76.289)" fill="#d44f3e" fill-rule="evenodd"/>
          <path id="Path_4611" data-name="Path 4611" d="M83.673,82.486l-.28-.186H83.3l.326.186Z" transform="translate(-77.336 -76.289)" fill="#d44f3e" fill-rule="evenodd"/>
          <path id="Path_4612" data-name="Path 4612" d="M83.626,82.486,83.3,82.3h0Z" transform="translate(-77.336 -76.289)" fill="#d44f3e" fill-rule="evenodd"/>
          <path id="Path_4613" data-name="Path 4613" d="M83.573,82.486l-.326-.186H83.2l.326.186Z" transform="translate(-77.283 -76.289)" fill="#d44f3e" fill-rule="evenodd"/>
          <path id="Path_4614" data-name="Path 4614" d="M83.526,82.486,83.2,82.3h0Z" transform="translate(-77.283 -76.289)" fill="#d44f3e" fill-rule="evenodd"/>
          <path id="Path_4615" data-name="Path 4615" d="M83.473,82.486l-.326-.186H83.1l.326.186Z" transform="translate(-77.229 -76.289)" fill="#d44f3e" fill-rule="evenodd"/>
          <path id="Path_4616" data-name="Path 4616" d="M83.426,82.486,83.1,82.3v.047Z" transform="translate(-77.229 -76.289)" fill="#d44f3e" fill-rule="evenodd"/>
          <path id="Path_4617" data-name="Path 4617" d="M83.373,82.54l-.326-.14H83l.326.14Z" transform="translate(-77.176 -76.343)" fill="#d44f3e" fill-rule="evenodd"/>
          <path id="Path_4618" data-name="Path 4618" d="M83.273,82.54l-.326-.14H82.9l.326.186Z" transform="translate(-77.122 -76.343)" fill="#d44f3e" fill-rule="evenodd"/>
          <path id="Path_4619" data-name="Path 4619" d="M83.226,82.586,82.9,82.4h0Z" transform="translate(-77.122 -76.343)" fill="#d44f3e" fill-rule="evenodd"/>
          <path id="Path_4620" data-name="Path 4620" d="M83.173,82.586l-.326-.186H82.8l.326.186Z" transform="translate(-77.069 -76.343)" fill="#d44f3e" fill-rule="evenodd"/>
          <path id="Path_4621" data-name="Path 4621" d="M83.126,82.586,82.8,82.4h0Z" transform="translate(-77.069 -76.343)" fill="#d44f3e" fill-rule="evenodd"/>
          <path id="Path_4622" data-name="Path 4622" d="M83.126,82.586,82.8,82.4h0l.28.186Z" transform="translate(-77.069 -76.343)" fill="#d44f3e" fill-rule="evenodd"/>
          <path id="Path_4623" data-name="Path 4623" d="M83.026,82.586l-.28-.186H82.7Z" transform="translate(-77.016 -76.343)" fill="#d44f3e" fill-rule="evenodd"/>
          <path id="Path_4624" data-name="Path 4624" d="M83.026,82.586,82.7,82.4h0Z" transform="translate(-77.016 -76.343)" fill="#d44f3e" fill-rule="evenodd"/>
          <path id="Path_4625" data-name="Path 4625" d="M82.973,82.586l-.326-.186H82.6l.326.186Z" transform="translate(-76.962 -76.343)" fill="#d44f3e" fill-rule="evenodd"/>
          <path id="Path_4626" data-name="Path 4626" d="M82.926,82.586,82.6,82.4h0Z" transform="translate(-76.962 -76.343)" fill="#d44f3e" fill-rule="evenodd"/>
          <path id="Path_4627" data-name="Path 4627" d="M82.926,82.586,82.6,82.4h0l.28.14Z" transform="translate(-76.962 -76.343)" fill="#d44f3e" fill-rule="evenodd"/>
          <path id="Path_4628" data-name="Path 4628" d="M82.826,82.486l-.28-.14L82.5,82.3Z" transform="translate(-76.909 -76.289)" fill="#d44f3e" fill-rule="evenodd"/>
          <path id="Path_4629" data-name="Path 4629" d="M82.826,82.486,82.5,82.3h0l.28.186Z" transform="translate(-76.909 -76.289)" fill="#d44f3e" fill-rule="evenodd"/>
          <path id="Path_4630" data-name="Path 4630" d="M82.726,82.486l-.28-.186H82.4Z" transform="translate(-76.855 -76.289)" fill="#d44f3e" fill-rule="evenodd"/>
          <path id="Path_4631" data-name="Path 4631" d="M82.726,82.486,82.4,82.3h0l.28.186Z" transform="translate(-76.855 -76.289)" fill="#d44f3e" fill-rule="evenodd"/>
          <path id="Path_4632" data-name="Path 4632" d="M82.626,82.486l-.28-.186H82.3Z" transform="translate(-76.802 -76.289)" fill="#d44f3e" fill-rule="evenodd"/>
          <path id="Path_4633" data-name="Path 4633" d="M82.626,82.486,82.3,82.3h0l.28.186Z" transform="translate(-76.802 -76.289)" fill="#d44f3e" fill-rule="evenodd"/>
          <path id="Path_4634" data-name="Path 4634" d="M82.526,82.486l-.28-.186H82.2Z" transform="translate(-76.748 -76.289)" fill="#d44f3e" fill-rule="evenodd"/>
          <path id="Path_4635" data-name="Path 4635" d="M82.526,82.486,82.2,82.3h0Z" transform="translate(-76.748 -76.289)" fill="#d44f3e" fill-rule="evenodd"/>
          <path id="Path_4636" data-name="Path 4636" d="M82.473,82.486l-.326-.186H82.1l.326.186Z" transform="translate(-76.695 -76.289)" fill="#d44f3e" fill-rule="evenodd"/>
          <path id="Path_4637" data-name="Path 4637" d="M82.426,82.486,82.1,82.3h0Z" transform="translate(-76.695 -76.289)" fill="#d44f3e" fill-rule="evenodd"/>
          <path id="Path_4638" data-name="Path 4638" d="M82.426,82.486,82.1,82.3h0l.28.186Z" transform="translate(-76.695 -76.289)" fill="#d44f3e" fill-rule="evenodd"/>
          <path id="Path_4639" data-name="Path 4639" d="M82.326,82.486l-.28-.186H82Z" transform="translate(-76.642 -76.289)" fill="#d44f3e" fill-rule="evenodd"/>
          <path id="Path_4640" data-name="Path 4640" d="M82.326,82.486,82,82.3h0Z" transform="translate(-76.642 -76.289)" fill="#d44f3e" fill-rule="evenodd"/>
          <path id="Path_4641" data-name="Path 4641" d="M82.273,82.486l-.326-.186H81.9l.326.186Z" transform="translate(-76.588 -76.289)" fill="#d44f3e" fill-rule="evenodd"/>
          <path id="Path_4642" data-name="Path 4642" d="M82.173,82.486l-.326-.186H81.8l.326.186Z" transform="translate(-76.535 -76.289)" fill="#d44f3e" fill-rule="evenodd"/>
          <path id="Path_4643" data-name="Path 4643" d="M82.126,82.486,81.8,82.3h0Z" transform="translate(-76.535 -76.289)" fill="#d44f3e" fill-rule="evenodd"/>
          <path id="Path_4644" data-name="Path 4644" d="M82.073,82.433l-.326-.186L81.7,82.2l.326.186Z" transform="translate(-76.481 -76.236)" fill="#d44f3e" fill-rule="evenodd"/>
          <path id="Path_4645" data-name="Path 4645" d="M82.026,82.386,81.7,82.2h0Z" transform="translate(-76.481 -76.236)" fill="#d44f3e" fill-rule="evenodd"/>
          <path id="Path_4646" data-name="Path 4646" d="M81.973,82.386l-.326-.186H81.6l.326.186Z" transform="translate(-76.428 -76.236)" fill="#d44f3e" fill-rule="evenodd"/>
          <path id="Path_4647" data-name="Path 4647" d="M81.926,82.386,81.6,82.2h0Z" transform="translate(-76.428 -76.236)" fill="#d44f3e" fill-rule="evenodd"/>
          <path id="Path_4648" data-name="Path 4648" d="M81.926,82.386,81.6,82.2h0Z" transform="translate(-76.428 -76.236)" fill="#d44f3e" fill-rule="evenodd"/>
          <path id="Path_4649" data-name="Path 4649" d="M81.873,82.386l-.326-.186H81.5l.326.186Z" transform="translate(-76.375 -76.236)" fill="#d44f3e" fill-rule="evenodd"/>
          <path id="Path_4650" data-name="Path 4650" d="M81.826,82.386,81.5,82.2h0Z" transform="translate(-76.375 -76.236)" fill="#d44f3e" fill-rule="evenodd"/>
          <path id="Path_4651" data-name="Path 4651" d="M81.773,82.386l-.326-.186H81.4l.326.186Z" transform="translate(-76.321 -76.236)" fill="#d44f3e" fill-rule="evenodd"/>
          <path id="Path_4652" data-name="Path 4652" d="M81.726,82.386,81.4,82.2h0Z" transform="translate(-76.321 -76.236)" fill="#d44f3e" fill-rule="evenodd"/>
          <path id="Path_4653" data-name="Path 4653" d="M81.726,82.386,81.4,82.2h0l.28.14Z" transform="translate(-76.321 -76.236)" fill="#d44f3e" fill-rule="evenodd"/>
          <path id="Path_4654" data-name="Path 4654" d="M81.626,82.286l-.28-.14L81.3,82.1Z" transform="translate(-76.268 -76.183)" fill="#d44f3e" fill-rule="evenodd"/>
          <path id="Path_4655" data-name="Path 4655" d="M81.626,82.286,81.3,82.1h0Z" transform="translate(-76.268 -76.183)" fill="#d44f3e" fill-rule="evenodd"/>
          <path id="Path_4656" data-name="Path 4656" d="M81.573,82.286l-.326-.186H81.2l.326.186Z" transform="translate(-76.214 -76.183)" fill="#d44f3e" fill-rule="evenodd"/>
          <path id="Path_4657" data-name="Path 4657" d="M81.526,82.286,81.2,82.1h0Z" transform="translate(-76.214 -76.183)" fill="#d44f3e" fill-rule="evenodd"/>
          <path id="Path_4658" data-name="Path 4658" d="M81.526,82.286,81.2,82.1h0Z" transform="translate(-76.214 -76.183)" fill="#d44f3e" fill-rule="evenodd"/>
          <path id="Path_4659" data-name="Path 4659" d="M81.473,82.286l-.326-.186H81.1l.326.186Z" transform="translate(-76.161 -76.183)" fill="#d44f3e" fill-rule="evenodd"/>
          <path id="Path_4660" data-name="Path 4660" d="M81.1,82.1Zm.326.186" transform="translate(-76.161 -76.183)" fill="#d44f3e" fill-rule="evenodd"/>
          <path id="Path_4661" data-name="Path 4661" d="M81.373,82.233l-.326-.186L81,82l.326.186Z" transform="translate(-76.108 -76.129)" fill="#d44f3e" fill-rule="evenodd"/>
          <path id="Path_4662" data-name="Path 4662" d="M81.273,82.186,80.947,82H80.9l.326.186Z" transform="translate(-76.054 -76.129)" fill="#d44f3e" fill-rule="evenodd"/>
          <path id="Path_4663" data-name="Path 4663" d="M81.226,82.186,80.9,82h0Z" transform="translate(-76.054 -76.129)" fill="#d44f3e" fill-rule="evenodd"/>
          <path id="Path_4664" data-name="Path 4664" d="M81.226,82.186,80.9,82h0Z" transform="translate(-76.054 -76.129)" fill="#d44f3e" fill-rule="evenodd"/>
          <path id="Path_4665" data-name="Path 4665" d="M81.173,82.186,80.847,82H80.8l.326.186Z" transform="translate(-76.001 -76.129)" fill="#d44f3e" fill-rule="evenodd"/>
          <path id="Path_4666" data-name="Path 4666" d="M81.126,82.133l-.326-.186V81.9l.326.186Z" transform="translate(-76.001 -76.076)" fill="#d44f3e" fill-rule="evenodd"/>
          <path id="Path_4667" data-name="Path 4667" d="M81.126,82.086,80.8,81.9h0l.28.186Z" transform="translate(-76.001 -76.076)" fill="#d44f3e" fill-rule="evenodd"/>
          <path id="Path_4668" data-name="Path 4668" d="M81.026,82.086l-.28-.186H80.7Z" transform="translate(-75.947 -76.076)" fill="#d44f3e" fill-rule="evenodd"/>
          <path id="Path_4669" data-name="Path 4669" d="M80.973,82.033l-.326-.186L80.6,81.8l.326.186Z" transform="translate(-75.894 -76.022)" fill="#d44f3e" fill-rule="evenodd"/>
          <path id="Path_4670" data-name="Path 4670" d="M80.873,81.986l-.326-.186H80.5l.326.186Z" transform="translate(-75.841 -76.022)" fill="#d44f3e" fill-rule="evenodd"/>
          <path id="Path_4671" data-name="Path 4671" d="M80.773,81.986l-.326-.186H80.4l.326.186Z" transform="translate(-75.787 -76.022)" fill="#d44f3e" fill-rule="evenodd"/>
          <path id="Path_4672" data-name="Path 4672" d="M80.726,81.886l-.326-.14V81.7Z" transform="translate(-75.787 -75.969)" fill="#d44f3e" fill-rule="evenodd"/>
          <path id="Path_4673" data-name="Path 4673" d="M80.726,81.886,80.4,81.7h0l.28.186Z" transform="translate(-75.787 -75.969)" fill="#d44f3e" fill-rule="evenodd"/>
          <path id="Path_4674" data-name="Path 4674" d="M80.68,81.886,80.4,81.7h0Z" transform="translate(-75.787 -75.969)" fill="#d44f3e" fill-rule="evenodd"/>
          <path id="Path_4675" data-name="Path 4675" d="M75.422,79.386l-.28-.186L72.3,86.469l.326.186Z" transform="translate(-71.461 -74.634)" fill="#d44f3e" fill-rule="evenodd"/>
          <path id="Path_4676" data-name="Path 4676" d="M88.926,80.086,88.6,79.9l3.262,4.613.326.186Z" transform="translate(-80.166 -75.008)" fill="#d44f3e" fill-rule="evenodd"/>
          <path id="Path_4677" data-name="Path 4677" d="M94.658,69.586l-.28-.186-.093.28-.093.28-.14.326-.093.28-.14.28-.14.28-.14.28-.14.28.326.186.14-.28.14-.28.14-.28.14-.28.093-.326.093-.28.14-.28Z" transform="translate(-82.73 -69.4)" fill="#d44f3e" fill-rule="evenodd"/>
          <path id="Path_4678" data-name="Path 4678" d="M93.726,74.486,93.4,74.3h0l.28.186Z" transform="translate(-82.73 -72.017)" fill="#d44f3e" fill-rule="evenodd"/>
          <path id="Path_4679" data-name="Path 4679" d="M91.116,74.486l-.28-.186-.233.373-.28.373-.233.373-.28.326-.28.326-.28.28-.326.326-.326.233.326.186.326-.233.28-.326.326-.28.28-.326.28-.326.233-.373.28-.373Z" transform="translate(-80.166 -72.017)" fill="#d44f3e" fill-rule="evenodd"/>
        </g>
        <path id="Path_4680" data-name="Path 4680" d="M79.634,74.639,82.9,79.252l.746-3.029a.906.906,0,0,1,.466-.606l2.33-.792-.792-1.118a.046.046,0,0,0-.047-.047L82.8,69.7a9.926,9.926,0,0,1-.978,2.283h0a8.269,8.269,0,0,1-2.19,2.656Zm-7.595,6.942c0,.047-.047.047-.047.093l-.792,2.05,2.33-1.91c.186-.186.419-.186.466.047l.745,2.19L78,75.617h-2.05l-.047-.047h-.14a2.439,2.439,0,0,1-.745-.792h0c-.047-.047-.047-.093-.093-.14h0v-.093h0V74.5h0v-.047h0Z" transform="translate(-44.874 -37.224)" fill="#f25e4b" fill-rule="evenodd"/>
        <path id="Path_4681" data-name="Path 4681" d="M85.935,61.059l-.513-.28-.28-.14-.326-.093-.373-.047h-.373l-.373.047-.419.093-.419.186-.419.233-.419.28-.419.326-.419.373-.373.373-.373.419-.326.419-.326.466-.28.466-.047.047-.14.233-.14.233-.14.326-.14.28-.093.28-.093.28-.14.186-.047.28-.093.28-.047.28-.047.28-.047.28-.047.28L78.2,68v1.4h0v.047h0v.047h0v.047h0v.047h0v.093h0v.047h0v.047h0v.047h0v.047h0v.047h0v.047h0v.047h0v.047h0V70.1h0v.047h0v.047h0v.093h0l.093.14.093.14.093.093.093.093.093.093.093.093.093.093.093.093h.047l.513.28h-.047l-.093-.093-.093-.093-.093-.093-.093-.093-.093-.093-.093-.093-.093-.14-.093-.14h0v-.047h0v-.093h0v-.047h0v-.047h0v-.047h0v-.047h0v-.047h0v-.047h0V70.1h0v-.047h0v-.047h0v-.047h0v-.047h0v-.093h0v-.047h0v-.047h0v-.047h0v-.047h0v-1.4l.047-.28.047-.28.047-.28.047-.28.047-.28.093-.28.093-.28.093-.28.093-.28.093-.28.14-.28.14-.28.14-.233.14-.233.047-.047.28-.466.326-.466.326-.419.373-.419.373-.373.419-.373.419-.326.419-.28.419-.233.419-.186.419-.093.373-.047h.373l.373.047.326.093.28.233Zm0,6.943h0l-.513-.28h0l.513.28Zm-5.358,3.728-.466-.28h0l.466.28Zm-.839-.373Zm.466.28Zm-.047-.047-.513-.28h0l.513.28Zm-1.864-2.1.513.28h0Z" transform="translate(-48.613 -32.311)" fill="#f0b11d" fill-rule="evenodd"/>
        <path id="Path_4682" data-name="Path 4682" d="M86.415,61.366a3.029,3.029,0,0,0-3.029.28A8.375,8.375,0,0,0,80.4,64.768l-.047.047A8.551,8.551,0,0,0,79.1,69.008a3.3,3.3,0,0,0,.047.7v.14h0v.047h0v.047h0v.047h0v.047h0v.093h0v.047h0v.047h0v.047h0v.047h0v.047h0v.047h0v.047h0V70.5h0v.047h0v.047h0v.047h0v.093h0v.047c.047.047.047.093.093.14h0a2.439,2.439,0,0,0,.745.792h.093l.047.047h2.7l.047-.047h0l.047-.047.047-.047h0l.047-.047h.233l.047-.047h0l.047-.047.047-.047h0l.047-.047h0l.047-.047h0l.047-.047h0l.047-.047h0a10.179,10.179,0,0,0,2.33-2.7h0a11.753,11.753,0,0,0,1.072-2.656V65.7h0v-.047h0v-.047h0V65.56h0c0-.093.047-.14.047-.233h0v-.233a4.008,4.008,0,0,0,.047-.745C87.673,62.764,87.161,61.786,86.415,61.366Z" transform="translate(-49.093 -32.618)" fill="#fac13c" fill-rule="evenodd"/>
      </g>
    </g>
    <g id="Group_2424" data-name="Group 2424" transform="translate(-30 -1200.512)">
      <text id="MY" transform="translate(324 1585.814)" fill="#1f1e1e" font-size="20" font-family="AvenirNextCondensed-DemiBold, Avenir Next Condensed" font-weight="300"><tspan x="0" y="0">MY</tspan></text>
      <text id="İRSALİYE" transform="translate(324 1614.841)" fill="#1f1e1e" font-size="25" font-family="AvenirNextCondensed-DemiBold, Avenir Next Condensed" font-weight="300"><tspan x="0" y="0">İRSALİYE</tspan></text>
    </g>
  </g>
</svg>
