<svg id="Group_359" data-name="Group 359" xmlns="http://www.w3.org/2000/svg" viewBox="0 0 118.421 154.765">
  <defs>
    <style>
      .cls-1 {
        fill: #040507;
        opacity: 0.003;
      }

      .cls-1, .cls-10, .cls-11, .cls-12, .cls-13, .cls-14, .cls-15, .cls-16, .cls-17, .cls-18, .cls-19, .cls-2, .cls-20, .cls-21, .cls-3, .cls-5, .cls-6, .cls-7, .cls-8, .cls-9 {
        fill-rule: evenodd;
      }

      .cls-2 {
        fill: #080a0d;
        opacity: 0.007;
      }

      .cls-3 {
        fill: #0b0e14;
        opacity: 0.01;
      }

      .cls-4 {
        fill: #0f131b;
        opacity: 0.013;
      }

      .cls-5 {
        fill: #131822;
        opacity: 0.017;
      }

      .cls-6 {
        fill: #171d29;
        opacity: 0.02;
      }

      .cls-7 {
        fill: #1b2230;
        opacity: 0.023;
      }

      .cls-8 {
        fill: #1f2737;
        opacity: 0.027;
      }

      .cls-9 {
        fill: #232c3f;
        opacity: 0.03;
      }

      .cls-10 {
        fill: #273246;
        opacity: 0.033;
      }

      .cls-11 {
        fill: #2b374d;
        opacity: 0.037;
      }

      .cls-12 {
        fill: #2f3c54;
        opacity: 0.04;
      }

      .cls-13 {
        fill: #34415c;
        opacity: 0.043;
      }

      .cls-14 {
        fill: #384763;
        opacity: 0.047;
      }

      .cls-15 {
        fill: #bfc7c9;
      }

      .cls-16 {
        fill: #2c3e50;
      }

      .cls-17 {
        fill: #d5dcde;
      }

      .cls-18 {
        fill: #3d566e;
      }

      .cls-19 {
        fill: #d0d9db;
      }

      .cls-20 {
        fill: #afb6b8;
      }

      .cls-21 {
        fill: #33475c;
      }
    </style>
  </defs>
  <g id="Group_357" data-name="Group 357" transform="translate(0 86.37)">
    <path id="Path_1545" data-name="Path 1545" class="cls-1" d="M101,295.673c23.131,13.364,23.131,35.014,0,48.348-23.131,13.364-60.594,13.364-83.724,0s-23.131-35.014,0-48.348C40.4,282.309,77.9,282.309,101,295.673Z" transform="translate(0.075 -285.65)"/>
    <path id="Path_1546" data-name="Path 1546" class="cls-2" d="M107.494,302.543c21.558,12.457,21.558,32.655,0,45.113s-56.542,12.457-78.1,0-21.558-32.655,0-45.113S85.906,290.086,107.494,302.543Z" transform="translate(-9.204 -290.917)"/>
    <path id="Path_1547" data-name="Path 1547" class="cls-3" d="M113.769,309.513c20.016,11.55,20.016,30.3,0,41.877-20.016,11.55-52.49,11.55-72.507,0s-20.016-30.3,0-41.877C61.279,297.962,93.753,297.962,113.769,309.513Z" transform="translate(-18.29 -296.254)"/>
    <ellipse id="Ellipse_33" data-name="Ellipse 33" class="cls-4" cx="47.29" cy="27.303" rx="47.29" ry="27.303" transform="translate(11.936 6.879)"/>
    <path id="Path_1548" data-name="Path 1548" class="cls-5" d="M126.388,323.3c16.932,9.766,16.932,25.61,0,35.407-16.932,9.766-44.357,9.766-61.289,0s-16.932-25.61,0-35.407C82.032,313.533,109.486,313.533,126.388,323.3Z" transform="translate(-36.534 -306.806)"/>
    <path id="Path_1549" data-name="Path 1549" class="cls-6" d="M132.885,330.217c15.36,8.889,15.36,23.282,0,32.141-15.36,8.889-40.305,8.889-55.665,0s-15.36-23.282,0-32.141C92.58,321.328,117.495,321.328,132.885,330.217Z" transform="translate(-45.812 -312.09)"/>
    <path id="Path_1550" data-name="Path 1550" class="cls-7" d="M139.16,337.087c13.818,7.982,13.818,20.924,0,28.906s-36.223,7.982-50.071,0c-13.818-7.982-13.818-20.924,0-28.906S125.342,329.1,139.16,337.087Z" transform="translate(-54.899 -317.358)"/>
    <path id="Path_1551" data-name="Path 1551" class="cls-8" d="M145.5,344c12.276,7.075,12.276,18.6,0,25.671s-32.171,7.075-44.447,0-12.276-18.6,0-25.671C113.333,336.9,133.228,336.9,145.5,344Z" transform="translate(-64.055 -322.642)"/>
    <path id="Path_1552" data-name="Path 1552" class="cls-9" d="M151.779,350.926c10.734,6.2,10.734,16.237,0,22.435s-28.12,6.2-38.854,0-10.734-16.237,0-22.435C123.659,344.758,141.045,344.758,151.779,350.926Z" transform="translate(-73.142 -327.962)"/>
    <path id="Path_1553" data-name="Path 1553" class="cls-10" d="M158.176,357.844c9.162,5.291,9.162,13.878,0,19.2-9.192,5.291-24.068,5.291-33.23,0s-9.162-13.909,0-19.2C134.138,352.552,149.014,352.552,158.176,357.844Z" transform="translate(-82.351 -333.246)"/>
    <path id="Path_1554" data-name="Path 1554" class="cls-11" d="M164.551,364.761c7.62,4.414,7.62,11.55,0,15.965s-19.986,4.414-27.636,0c-7.62-4.414-7.62-11.55,0-15.965S156.9,360.346,164.551,364.761Z" transform="translate(-91.507 -338.531)"/>
    <path id="Path_1555" data-name="Path 1555" class="cls-12" d="M170.9,371.631c6.077,3.507,6.077,9.192,0,12.7s-15.935,3.507-22.012,0-6.077-9.192,0-12.7S164.818,368.123,170.9,371.631Z" transform="translate(-100.664 -343.798)"/>
    <path id="Path_1556" data-name="Path 1556" class="cls-13" d="M177.24,378.548c4.535,2.631,4.535,6.864,0,9.464-4.535,2.63-11.883,2.63-16.388,0-4.535-2.631-4.535-6.864,0-9.464C165.357,375.917,172.7,375.917,177.24,378.548Z" transform="translate(-109.82 -349.083)"/>
    <path id="Path_1557" data-name="Path 1557" class="cls-14" d="M183.514,385.418c2.993,1.723,2.993,4.505,0,6.229a11.914,11.914,0,0,1-10.794,0c-2.993-1.724-2.993-4.505,0-6.229A11.914,11.914,0,0,1,183.514,385.418Z" transform="translate(-118.907 -354.35)"/>
  </g>
  <path id="Path_1558" data-name="Path 1558" class="cls-15" d="M236.191,296.154,230.9,293.1h0l5.261,3.054Z" transform="translate(-161.062 -204.477)"/>
  <path id="Path_1559" data-name="Path 1559" class="cls-16" d="M162.4,206.208h0l5.291,3.054h0l.363.212.363.151.393.121.423.121.423.06.454.03h.454l.454-.03.453-.06.484-.091.484-.121.484-.151.484-.181.514-.212.514-.242.514-.3.061-.03.514-.333.484-.333.514-.333.484-.393.454-.393.484-.423.454-.454.454-.454.454-.514.454-.544.454-.544.423-.544.393-.574.423-.6.363-.574.363-.635.363-.6.333-.635.3-.635.3-.635.272-.665.242-.665.242-.635.212-.665h0l.181-.635.151-.635.121-.635.121-.6.091-.635.06-.6.03-.6.03-.6V190.7h0v-.06l-.03-.03h0V169.834l8.769-5.08-5.261-3.054-8.769,5.08v20.863h0v.7l-.06.6-.061.6-.091.635-.091.6-.151.635-.151.635-.181.635h0l-.212.665-.242.635-.242.665-.272.635-.3.665-.3.635-.333.635-.363.6-.363.635-.363.6-.393.574-.423.574-.423.544-.454.544-.454.544-.454.514-.454.454-.454.454-.454.423-.484.393-.484.393-.484.333-.514.333-.514.333-.06.03-.514.3-.514.242-.514.212-.484.181-.484.151-.484.121-.484.091-.454.06-.454.03h-.454l-.454-.03-.423-.06-.393-.121-.423-.121-.363-.151Z" transform="translate(-113.274 -112.808)"/>
  <path id="Path_1560" data-name="Path 1560" class="cls-15" d="M213.324,46.533V67.306l5.291,3.054V49.406h0v-.665l-.03-.544-.091-.544-.06-.514-.121-.484-.151-.484-.151-.423-.181-.423-.03-.091-.212-.393-.242-.363-.242-.363-.272-.333-.272-.3-.3-.272-.333-.242-.333-.212L210.3,39.7l.333.212.333.242.3.272.3.3.242.333.272.363.212.363.212.393.03.091.181.423.151.423.151.484.121.484.091.514.061.544.03.544.03.6v.06h-.03V46.5Z" transform="translate(-146.69 -27.696)"/>
  <path id="Path_1561" data-name="Path 1561" class="cls-15" d="M161.1,4.324,155.8,1.27l-.665-.363-.7-.3-.756-.242-.756-.181L152.145.06,151.329,0h-.847l-.877.06-.847.091-.847.181-.907.242L146.1.847l-.907.333-.937.423-.937.454-.968.514-1.935,1.24-1.875,1.421-1.844,1.6-1.754,1.754-1.663,1.9-1.572,2L130.254,14.6l-1.361,2.207-.635,1.149-.6,1.179-.574,1.149-.544,1.209-.514,1.209-.454,1.179-.423,1.24-.393,1.209-.3,1.149-.3,1.149-.242,1.149-.212,1.179-.151,1.119-.121,1.149-.06,1.119-.03,1.119v.212l-.03.03V56.542l5.291,3.054V38.7l.03-.03V37.4l.091-1.119.121-1.149.151-1.119.212-1.179.242-1.149.272-1.149.333-1.149.393-1.209.423-1.209.454-1.209.514-1.209.544-1.209.574-1.149.6-1.179.635-1.149,1.361-2.207L137,15.541l1.572-2,1.663-1.9,1.754-1.754,1.814-1.6,1.9-1.421,1.935-1.24.968-.514.937-.454.937-.423.907-.333.907-.3.907-.212.847-.181.847-.091.877-.06h.847l.816.06.786.121.756.181.726.242.726.3Z" transform="translate(-85.996)"/>
  <path id="Path_1562" data-name="Path 1562" class="cls-16" d="M137.46,220.754l-5.291-3.054-8.769,5.08v20.954l.03,1.089.06,1.058.121,1,.151.967.212.937.242.877.3.816.333.816.363.756.423.726.484.7.484.6.544.575.574.514.6.454.665.423,5.261,3.054-.635-.423-.6-.454-.574-.514-.544-.574-.484-.635-.484-.665-.423-.726-.393-.756-.333-.816-.272-.816-.242-.877-.212-.937-.151-.968-.121-1-.091-1.058V225.834Z" transform="translate(-86.066 -151.876)"/>
  <g id="Group_358" data-name="Group 358" transform="translate(42.595 3.048)">
    <path id="Path_1563" data-name="Path 1563" class="cls-17" d="M167.106,10.147a18.211,18.211,0,0,0-7.257,2.54c-5.231,3.024-10.008,8.255-13.455,14.241a45.472,45.472,0,0,0-4.142,9.524,33.974,33.974,0,0,0-1.451,9.131V66.659l8.769-5.049V40.655a18.409,18.409,0,0,1,.786-4.989,24.085,24.085,0,0,1,2.237-5.14,24.8,24.8,0,0,1,3.326-4.505,18.925,18.925,0,0,1,3.9-3.175h0a10.066,10.066,0,0,1,3.9-1.361,5.47,5.47,0,0,1,3.326.665,5.387,5.387,0,0,1,2.207,2.479l.03.06a9.439,9.439,0,0,1,.786,4.021v.03a.514.514,0,0,1-.03.212V49.726l8.769-5.049V23.663a18.112,18.112,0,0,0-1.451-7.559,10.2,10.2,0,0,0-4.142-4.747h0A9.635,9.635,0,0,0,167.106,10.147Z" transform="translate(-140.8 -10.081)"/>
    <path id="Path_1564" data-name="Path 1564" class="cls-18" d="M149.669,209.547V188.593l-8.769,5.049V214.6a18.211,18.211,0,0,0,1.451,7.559,10.054,10.054,0,0,0,4.142,4.747h0a10.042,10.042,0,0,0,6.2,1.209,17.754,17.754,0,0,0,7.257-2.54,32.721,32.721,0,0,0,7.257-5.866,45.185,45.185,0,0,0,6.2-8.375h0a45.471,45.471,0,0,0,4.142-9.524A34,34,0,0,0,179,192.644v-.091a.514.514,0,0,1,.03-.212V171.6l-8.769,5.049v20.772c0,.06.03.121.03.212a17.269,17.269,0,0,1-.786,4.959h0a24.083,24.083,0,0,1-2.237,5.14,24.8,24.8,0,0,1-3.326,4.505,17.546,17.546,0,0,1-3.84,3.114l-.091.06a10.026,10.026,0,0,1-3.931,1.361,5.516,5.516,0,0,1-3.326-.665h0a5.53,5.53,0,0,1-2.237-2.57A8.221,8.221,0,0,1,149.669,209.547Z" transform="translate(-140.87 -122.762)"/>
  </g>
  <path id="Path_1565" data-name="Path 1565" class="cls-19" d="M185.076,0h-.06l-.877.06-.847.121-.847.151-.907.242-.907.272-.907.333-.937.423-.937.454-.968.544L174.947,3.81l-1.875,1.421-.272.242,5.291,3.054.242-.242,1.9-1.421,1.935-1.24.968-.514.937-.454.937-.423.907-.333.907-.3.907-.212.847-.181.847-.091.877-.06h.06Z" transform="translate(-120.529)"/>
  <path id="Path_1566" data-name="Path 1566" class="cls-20" d="M126.414,72.1l-.393.907-.454,1.179-.423,1.24-.393,1.209-.3,1.149-.3,1.149-.242,1.149-.212,1.179-.151,1.119-.121,1.149-.06,1.119-.03,1.119v.212l-.03.03v9.373l5.291,3.054V89l.03-.03V87.7l.091-1.119.121-1.149.151-1.119.212-1.179.242-1.149.272-1.149.333-1.149.393-1.209.423-1.209.454-1.209.393-.907Z" transform="translate(-85.996 -50.3)"/>
  <path id="Path_1567" data-name="Path 1567" class="cls-21" d="M207.591,258.6v-.03l.454-.544.423-.544.393-.575.423-.6.363-.574.363-.635.363-.6.333-.635.3-.635.3-.635.272-.665.242-.665.242-.635.212-.665h0l.181-.635.151-.635.121-.635.121-.6.091-.635.06-.6.03-.6.03-.6V244.9h0v-.06l-.03-.03h0v-2.358l-5.261-3.054v2.449h0v.7l-.06.6-.06.6-.091.635-.091.6-.151.635-.151.635-.181.635h0l-.212.665-.242.635-.242.665-.272.635-.3.665-.3.635-.333.635-.363.6-.363.635-.363.6-.393.574-.423.574-.423.544-.454.544v.03Z" transform="translate(-141.109 -167.014)"/>
</svg>
