<svg id="Group_356" data-name="Group 356" xmlns="http://www.w3.org/2000/svg" viewBox="0 0 118.421 154.099">
  <defs>
    <style>
      .cls-1 {
        fill: #040507;
        opacity: 0.003;
      }

      .cls-1, .cls-10, .cls-11, .cls-12, .cls-13, .cls-14, .cls-15, .cls-16, .cls-17, .cls-18, .cls-19, .cls-2, .cls-20, .cls-21, .cls-22, .cls-3, .cls-4, .cls-5, .cls-6, .cls-7, .cls-8, .cls-9 {
        fill-rule: evenodd;
      }

      .cls-2 {
        fill: #080a0d;
        opacity: 0.007;
      }

      .cls-3 {
        fill: #0b0e14;
        opacity: 0.01;
      }

      .cls-4 {
        fill: #0f131b;
        opacity: 0.013;
      }

      .cls-5 {
        fill: #131822;
        opacity: 0.017;
      }

      .cls-6 {
        fill: #171d29;
        opacity: 0.02;
      }

      .cls-7 {
        fill: #1b2230;
        opacity: 0.023;
      }

      .cls-8 {
        fill: #1f2737;
        opacity: 0.027;
      }

      .cls-9 {
        fill: #232c3f;
        opacity: 0.03;
      }

      .cls-10 {
        fill: #273246;
        opacity: 0.033;
      }

      .cls-11 {
        fill: #2b374d;
        opacity: 0.037;
      }

      .cls-12 {
        fill: #2f3c54;
        opacity: 0.04;
      }

      .cls-13 {
        fill: #34415c;
        opacity: 0.043;
      }

      .cls-14 {
        fill: #384763;
        opacity: 0.047;
      }

      .cls-15 {
        fill: #bfc7c9;
      }

      .cls-16 {
        fill: #c8d2d4;
      }

      .cls-17 {
        fill: #d5dcde;
      }

      .cls-18 {
        fill: #3d566e;
      }

      .cls-19 {
        fill: #2c3e50;
      }

      .cls-20 {
        fill: #517291;
      }

      .cls-21 {
        fill: #364c61;
      }

      .cls-22 {
        fill: #afb6b8;
      }
    </style>
  </defs>
  <g id="Group_355" data-name="Group 355" transform="translate(0 85.705)">
    <path id="Path_1522" data-name="Path 1522" class="cls-1" d="M101,293.373c23.131,13.365,23.131,35.014,0,48.348-23.131,13.365-60.594,13.365-83.724,0s-23.131-35.014,0-48.348C40.4,280.009,77.9,280.009,101,293.373Z" transform="translate(0.075 -283.35)"/>
    <path id="Path_1523" data-name="Path 1523" class="cls-2" d="M107.494,300.291c21.558,12.457,21.558,32.655,0,45.113s-56.542,12.457-78.1,0-21.558-32.655,0-45.113C50.952,287.8,85.906,287.8,107.494,300.291Z" transform="translate(-9.204 -288.635)"/>
    <path id="Path_1524" data-name="Path 1524" class="cls-3" d="M113.769,307.213c20.016,11.55,20.016,30.3,0,41.877-20.016,11.55-52.49,11.55-72.507,0s-20.016-30.3,0-41.877C61.279,295.662,93.753,295.662,113.769,307.213Z" transform="translate(-18.29 -293.954)"/>
    <path id="Path_1525" data-name="Path 1525" class="cls-4" d="M120.113,314.13c18.474,10.673,18.474,27.969,0,38.642s-48.408,10.673-66.883,0-18.474-27.969,0-38.642S101.639,303.457,120.113,314.13Z" transform="translate(-27.447 -299.239)"/>
    <path id="Path_1526" data-name="Path 1526" class="cls-5" d="M126.388,321c16.932,9.766,16.932,25.61,0,35.407-16.932,9.766-44.357,9.766-61.289,0S48.167,330.8,65.1,321C82.032,311.233,109.486,311.233,126.388,321Z" transform="translate(-36.534 -304.506)"/>
    <path id="Path_1527" data-name="Path 1527" class="cls-6" d="M132.785,327.917c15.36,8.889,15.36,23.282,0,32.141-15.36,8.889-40.305,8.889-55.665,0s-15.36-23.282,0-32.141C92.51,319.028,117.425,319.028,132.785,327.917Z" transform="translate(-45.742 -309.79)"/>
    <path id="Path_1528" data-name="Path 1528" class="cls-7" d="M139.16,334.787c13.818,7.982,13.818,20.924,0,28.906s-36.223,7.982-50.071,0c-13.818-7.982-13.818-20.924,0-28.906S125.342,326.8,139.16,334.787Z" transform="translate(-54.899 -315.058)"/>
    <path id="Path_1529" data-name="Path 1529" class="cls-8" d="M145.5,341.7c12.276,7.075,12.276,18.6,0,25.671s-32.171,7.075-44.447,0-12.276-18.6,0-25.671C113.333,334.6,133.228,334.6,145.5,341.7Z" transform="translate(-64.055 -320.342)"/>
    <path id="Path_1530" data-name="Path 1530" class="cls-9" d="M151.779,348.674c10.734,6.2,10.734,16.237,0,22.435s-28.12,6.2-38.854,0-10.734-16.237,0-22.435S141.045,342.475,151.779,348.674Z" transform="translate(-73.142 -325.679)"/>
    <path id="Path_1531" data-name="Path 1531" class="cls-10" d="M158.124,355.544c9.192,5.291,9.192,13.878,0,19.2-9.162,5.291-24.068,5.291-33.23,0-9.192-5.291-9.192-13.909,0-19.2S148.962,350.252,158.124,355.544Z" transform="translate(-82.298 -330.946)"/>
    <path id="Path_1532" data-name="Path 1532" class="cls-11" d="M164.62,362.461c7.62,4.414,7.62,11.55,0,15.965s-19.986,4.414-27.606,0-7.62-11.55,0-15.965C144.6,358.046,156.971,358.046,164.62,362.461Z" transform="translate(-91.577 -336.231)"/>
    <path id="Path_1533" data-name="Path 1533" class="cls-12" d="M170.9,369.331c6.077,3.507,6.077,9.192,0,12.7s-15.935,3.507-22.012,0-6.077-9.192,0-12.7S164.818,365.823,170.9,369.331Z" transform="translate(-100.664 -341.498)"/>
    <path id="Path_1534" data-name="Path 1534" class="cls-13" d="M177.24,376.248c4.535,2.631,4.535,6.864,0,9.464-4.535,2.631-11.883,2.631-16.388,0-4.535-2.631-4.535-6.864,0-9.464A18,18,0,0,1,177.24,376.248Z" transform="translate(-109.82 -346.783)"/>
    <path id="Path_1535" data-name="Path 1535" class="cls-14" d="M183.514,383.118c2.993,1.724,2.993,4.505,0,6.229a11.915,11.915,0,0,1-10.794,0c-2.993-1.724-2.993-4.505,0-6.229A11.914,11.914,0,0,1,183.514,383.118Z" transform="translate(-118.907 -352.05)"/>
  </g>
  <path id="Path_1536" data-name="Path 1536" class="cls-15" d="M151.721,114.53l-.756.091-.756.151-.786.212-.786.242-.816.3-.816.363-.847.423-.847.454-1.723,1.089-1.663,1.27-1.6,1.421-1.542,1.542-1.482,1.663-1.391,1.784-1.3,1.875-1.179,1.935-.575,1.028-.544,1.028-.514,1.028-.484,1.058-.454,1.058-.393,1.058-.363,1.058-.333,1.058-.3,1.028-.242,1.028-.212,1.028-.181,1.028-.151,1-.091,1-.06,1-.03.968v6.229h0V170.5l.03.968.06.937.091.907.151.847.181.816.212.786.242.726.3.7.333.7.363.635.423.6.454.544.484.514.514.454.544.423.574.363,6.682,3.84-.574-.363-.544-.423-.514-.454-.484-.514-.454-.544-.423-.6-.363-.635-.333-.7-.3-.7-.242-.726-.212-.786-.181-.816-.151-.847-.091-.877-.06-.937-.03-.968V155.894h0v-6.229l.03-.968.06-1,.091-1,.151-1,.181-1.028.212-1.028.242-1.028.3-1.028.333-1.058.363-1.058.423-1.058.454-1.058.484-1.058.514-1.028.544-1.028.574-1.028,1.179-1.935,1.3-1.875,1.391-1.784,1.482-1.663,1.542-1.542,1.6-1.421,1.663-1.27,1.723-1.089.847-.454.847-.423.816-.363.816-.3.786-.242.786-.212.756-.151.756-.091.756-.06h.756l.726.06.7.121.665.151.635.212.635.272.6.3-6.682-3.84-.6-.3-.635-.272-.635-.212-.665-.151-.7-.121-.726-.06h-.756l-.786.03ZM138.9,171.858l.333.181.333.151.363.121.363.091.363.06.393.03h.393l.423-.03.393-.06.423-.091.423-.091.423-.121.423-.151.454-.181.454-.212.454-.242.06-.03.454-.272.423-.3.423-.3.423-.333.423-.363.423-.363.393-.393.393-.393.423-.454.393-.454.393-.484.363-.484.363-.514.363-.514.333-.544.333-.544.3-.544.3-.544.272-.574.272-.574.242-.575.212-.574.212-.574.181-.574h0l.151-.544.151-.544.121-.544.091-.544.091-.544.06-.544.03-.544V130.374l-.03-.484-.06-.484-.091-.454-.091-.423-.121-.423-.151-.393-.151-.363-.03-.06-.181-.363-.212-.333-.212-.3-.242-.3-.242-.272-.272-.242-.272-.212-.3-.181,6.682,3.84.3.181.272.212.272.242.242.272.242.272.212.3.212.333.181.363.03.06.151.363.151.393.121.423.091.423.091.454.06.484.03.484v25.852l-.03.544-.06.544-.091.544-.091.544-.121.544-.151.544-.151.544h0l-.181.575-.212.574-.212.574-.242.574-.272.574-.272.574-.3.544-.3.544-.333.544-.333.544-.363.514-.363.514-.363.484-.393.484-.393.454-.423.454-.393.393-.393.393-.423.363-.423.363-.423.333-.423.3-.454.3-.454.272-.06.06-.454.242-.454.212-.454.181-.423.151-.423.121-.423.121-.423.091-.393.06-.423.03H147.7l-.393-.03-.363-.06-.363-.091-.363-.121-.333-.151-.3-.181h0l-6.682-3.87Zm19.472-3.507-1.209-.7-5.473-3.175,6.682,3.87Zm5.473,3.145-5.473-3.175,5.473,3.175Z" transform="translate(-89.624 -79.849)"/>
  <path id="Path_1537" data-name="Path 1537" class="cls-16" d="M183.185,114.46l-.756.091-.786.151-.756.212-.816.242-.816.3-.816.363-.816.393-.847.484-1.723,1.089-1.451,1.089,6.682,3.84,1.451-1.089,1.693-1.089.847-.454.847-.423.816-.363.816-.3.786-.242.786-.212.756-.121.756-.121.756-.03h.756l.726.06.7.091.665.181.665.212.6.242.6.333-6.682-3.87-.6-.3-.6-.272-.665-.212-.665-.151-.7-.121-.726-.06h-.726Z" transform="translate(-121.087 -79.779)"/>
  <path id="Path_1538" data-name="Path 1538" class="cls-17" d="M173.721,127.2a15.7,15.7,0,0,0-6.41,2.237c-4.626,2.661-8.829,7.287-11.883,12.548a39.582,39.582,0,0,0-3.659,8.406,28.36,28.36,0,0,0-1.27,8.043v6.259h0v18.474a16.256,16.256,0,0,0,1.27,6.682,9.129,9.129,0,0,0,3.659,4.2h0a8.871,8.871,0,0,0,5.473,1.058,15.7,15.7,0,0,0,6.41-2.237,28.333,28.333,0,0,0,6.41-5.17,40.608,40.608,0,0,0,5.473-7.378h0a39.581,39.581,0,0,0,3.659-8.406,28.4,28.4,0,0,0,1.27-8.073V139.169a16.255,16.255,0,0,0-1.27-6.682,8.963,8.963,0,0,0-3.659-4.2h0a9.093,9.093,0,0,0-5.473-1.089ZM158.241,172.55V154.075a15.214,15.214,0,0,1,.7-4.384,22.138,22.138,0,0,1,1.965-4.535,23.028,23.028,0,0,1,2.933-3.991,15.481,15.481,0,0,1,3.447-2.782h0a9.09,9.09,0,0,1,3.447-1.209,4.616,4.616,0,0,1,4.868,2.751l.03.06a8.289,8.289,0,0,1,.7,3.538v24.7a15.215,15.215,0,0,1-.7,4.384h0a20.722,20.722,0,0,1-2,4.535,23.031,23.031,0,0,1-2.933,3.991,15.043,15.043,0,0,1-3.386,2.751l-.06.03A8.512,8.512,0,0,1,163.8,185.1a4.894,4.894,0,0,1-2.933-.574h0a4.709,4.709,0,0,1-1.965-2.268,8.479,8.479,0,0,1-.7-3.6V172.55Z" transform="translate(-104.972 -88.674)"/>
  <path id="Path_1539" data-name="Path 1539" class="cls-18" d="M156.785-.009l.756.091.756.151.786.212.786.242.816.3.816.363.847.423.847.454,1.723,1.089,1.663,1.27,1.6,1.421,1.542,1.542,1.482,1.663L172.6,11l1.3,1.875,1.209,1.935.574,1.028.544,1.028.514,1.028.484,1.058.454,1.058.423,1.058.363,1.058.333,1.058.272,1.028.242,1.028.212,1.028.181,1.028.151,1,.091,1,.06,1,.03.968v6.229h0V55.958l-.03.968-.06.937-.091.877-.151.847-.212.816-.212.786-.242.726-.3.7-.333.7-.363.635-.423.6-.454.544-.484.514-.514.454-.544.423-.575.363-6.682,3.84.574-.363.544-.423.514-.454.484-.514.454-.544.423-.6.363-.635.333-.7.3-.7.242-.726.212-.786.181-.816.151-.847.091-.907.06-.937.03-.968V41.293h0V35.065l-.03-.968-.06-1-.091-1-.151-1-.181-1.028-.212-1.028-.242-1.028-.272-1.028-.333-1.058-.363-1.058-.423-1.058-.454-1.058-.484-1.058-.514-1.028-.544-1.028-.574-1.028-1.209-1.935-1.3-1.875L164.5,13.023l-1.482-1.663-1.542-1.542-1.6-1.421-1.663-1.27-1.723-1.089-.847-.454-.847-.423-.816-.363-.816-.3-.786-.242-.786-.212-.756-.151-.756-.091-.756-.06h-.756l-.726.06-.7.121-.665.151-.635.212-.635.272-.6.3,6.682-3.84.6-.3.635-.272.665-.212.665-.151.7-.121.726-.06H156l.786.091Zm12.82,57.328-.333.181-.333.151-.363.121-.363.091-.363.06-.393.03h-.393l-.423-.03-.393-.06-.423-.091-.423-.121-.423-.121-.423-.151L164.1,57.2l-.454-.212-.454-.242-.06-.03-.454-.272-.454-.3-.423-.3-.423-.333-.423-.363-.423-.363-.393-.393-.393-.393-.423-.454-.272-.3a21.859,21.859,0,0,0-3.84,6.531l.333.242.454.3.454.272.06.03.454.242.454.212.454.181.423.151.423.121.423.121.423.091.393.06.423.03h.393l.393-.03.363-.06.363-.091.363-.121.333-.151.333-.181h0l6.682-3.87ZM147.442,45.164l1.089-1.391,1.482-1.663,1.542-1.542,1.6-1.421,1-.756V15.744l.03-.484.06-.484.091-.454.091-.423.121-.423.151-.393.151-.363.03-.06.181-.363.212-.333.212-.3.242-.272.242-.272.272-.242.272-.212.3-.181-6.682,3.84-.3.181-.272.212-.272.242-.242.272-.242.272-.212.3-.212.333-.181.363-.03.06-.151.363-.151.393-.121.423-.091.423-.091.454-.06.484-.03.484V44.922Z" transform="translate(-100.856 0.1)"/>
  <path id="Path_1540" data-name="Path 1540" class="cls-19" d="M138.871,12.77a15.7,15.7,0,0,1,6.41,2.237c4.626,2.661,8.829,7.287,11.883,12.548a39.583,39.583,0,0,1,3.659,8.406A28.361,28.361,0,0,1,162.093,44v6.259h0V68.738a16.006,16.006,0,0,1-1.27,6.652,9.13,9.13,0,0,1-3.659,4.2h0a8.871,8.871,0,0,1-5.473,1.058,15.7,15.7,0,0,1-6.41-2.237c-.816-.484-1.6-1-2.389-1.572v-2.6a15.215,15.215,0,0,1,.7-4.384c.121-.393.242-.816.393-1.209a10.955,10.955,0,0,0,1.24.816l.061.03a8.513,8.513,0,0,0,3.447,1.179,4.683,4.683,0,0,0,2.933-.574h0a4.709,4.709,0,0,0,1.965-2.268,8.48,8.48,0,0,0,.7-3.6V39.62a15.214,15.214,0,0,0-.7-4.384,22.138,22.138,0,0,0-1.965-4.535,23.027,23.027,0,0,0-2.933-3.991,15.481,15.481,0,0,0-3.447-2.782h0a9.091,9.091,0,0,0-3.447-1.209,4.616,4.616,0,0,0-4.868,2.752l-.03.06a8.288,8.288,0,0,0-.7,3.538v.03a.383.383,0,0,0,.03.181v24.31c0,.06-.03.121-.03.181v.3l-.3.393-1.3,1.875-1.179,1.935-.574,1.028-.544,1.028-.514,1.028-.333.726a44.526,44.526,0,0,1-1.723-4.6,28.4,28.4,0,0,1-1.27-8.073v-24.7a16.255,16.255,0,0,1,1.27-6.682,8.964,8.964,0,0,1,3.659-4.2h0A8.989,8.989,0,0,1,138.871,12.77Z" transform="translate(-89.624 -8.84)"/>
  <path id="Path_1541" data-name="Path 1541" class="cls-20" d="M168.785.13l.756.091.756.151.786.181.786.272.816.3.847.333.816.423.847.454,1.723,1.089,1.663,1.27,1.451,1.27-6.652,3.87-1.482-1.3L170.236,7.3l-1.693-1.089-.847-.484-.847-.393-.816-.363-.816-.3-.816-.242-.756-.212-.786-.151L162.1,3.97l-.3-.03L168.482.1Z" transform="translate(-112.855 -0.04)"/>
  <path id="Path_1542" data-name="Path 1542" class="cls-21" d="M243.143,100.18l-6.682,3.87V94.314h0V88.085l-.03-.968-.06-1-.121-1-.121-1.028-.181-1-.212-1.028-.272-1.028-.272-1-.091-.272,6.682-3.87.06.272.3,1.028.242,1.028.212,1,.181,1.028.151,1,.121,1,.06,1v1.119l.03.03v6.078h0Z" transform="translate(-163.992 -52.92)"/>
  <path id="Path_1543" data-name="Path 1543" class="cls-22" d="M130.556,183.7l-.06.151-.393,1.058-.333,1.058L129.5,187l-.272,1.028-.212,1.028-.181,1-.121,1.028-.121,1-.06,1-.03.968v6.229h0v7.317l6.652,3.84V204.14h0v-5.987l.03-.03v-.242l.03-.968.06-1,.091-1,.151-1,.181-1.028.212-1.028.242-1,.3-1.028.333-1.089.363-1.058.06-.151Z" transform="translate(-89.624 -128.126)"/>
  <path id="Path_1544" data-name="Path 1544" class="cls-16" d="M193,259.432l6.682,3.84.363-.333.393-.393.423-.454.393-.453.393-.484.363-.484.363-.514.363-.514.333-.514.333-.544.3-.544.3-.544.272-.575.272-.574.242-.575L205,255.2l.212-.574.181-.574h0l.151-.544.151-.544.121-.544.091-.544.091-.544.06-.544.03-.544V247.61l-6.743-3.81v2.54l-.03.544-.06.544-.091.544-.091.544-.121.544-.151.544-.151.544h0l-.181.574-.212.574-.212.574-.242.574-.272.574-.272.574-.3.544-.3.544-.333.544-.333.544-.363.514-.363.514-.363.484-.393.484-.393.454-.423.453-.393.393-.3.363Zm10.371-.877-6.682-3.84,5.473,3.145,1.209.7Zm5.473,3.145-5.473-3.175,5.473,3.175Z" transform="translate(-134.621 -170.054)"/>
</svg>
