<svg xmlns="http://www.w3.org/2000/svg" viewBox="0 0 30.628 30.627">
  <defs>
    <style>
      .cls-1 {
        fill: #fff;
      }
    </style>
  </defs>
  <path id="Union_2" data-name="Union 2" class="cls-1" d="M934.142,55.112,932,52.97h-3.029a4,4,0,0,1-4-4v-3.03L922.829,43.8a4,4,0,0,1,0-5.656L924.971,36V32.971a4,4,0,0,1,4-4H932l2.142-2.142a4,4,0,0,1,5.657,0l2.142,2.142h3.029a4,4,0,0,1,4,4V36l2.142,2.142a4,4,0,0,1,0,5.656l-2.142,2.142v3.03a4,4,0,0,1-4,4h-3.029L939.8,55.112a4,4,0,0,1-5.657,0Z" transform="translate(-921.657 -25.656)"/>
</svg>
