<?xml version="1.0" encoding="utf-8"?>
<!-- Generator: Adobe Illustrator 22.1.0, SVG Export Plug-In . SVG Version: 6.00 Build 0)  -->
<svg version="1.1" id="Layer_1" xmlns="http://www.w3.org/2000/svg" xmlns:xlink="http://www.w3.org/1999/xlink" x="0px" y="0px"
	 viewBox="0 0 24 24" style="enable-background:new 0 0 24 24;" xml:space="preserve">
<style type="text/css">
	.st0{fill:#FFFFFF;}
</style>
<g>
	<path class="st0" d="M8,19H5V9h3V19z M19,19h-3v-5.3c0-1.4-0.5-2.1-1.5-2.1c-0.8,0-1.3,0.4-1.5,1.2c0,1.3,0,6.3,0,6.3h-3
		c0,0,0-9,0-10h2.4l0.2,2h0.1c0.6-1,1.6-1.7,2.9-1.7c1,0,1.9,0.3,2.5,1c0.6,0.7,1,1.7,1,3V19z"/>
</g>
<g>
	<ellipse class="st0" cx="6.5" cy="6.5" rx="1.6" ry="1.5"/>
</g>
</svg>
