<?xml version="1.0" encoding="utf-8"?>
<!-- Generator: Adobe Illustrator 22.1.0, SVG Export Plug-In . SVG Version: 6.00 Build 0)  -->
<svg version="1.1" id="Layer_1" xmlns="http://www.w3.org/2000/svg" xmlns:xlink="http://www.w3.org/1999/xlink" x="0px" y="0px"
	 viewBox="0 0 255 96" style="enable-background:new 0 0 255 96;" xml:space="preserve">
<style type="text/css">
	.st0{fill:#415A73;}
	.st1{fill:#2C3E50;}
	.st2{fill:#E6EAEB;}
	.st3{fill:#BDBDBD;}
	.st4{fill:#E8D5A7;}
	.st5{fill:#C2AC78;}
	.st6{fill:#D4BE8C;}
	.st7{fill:#AB9667;}
	.st8{enable-background:new    ;}
	.st9{fill:#1F1E1E;}
	.st10{opacity:3.000000e-03;fill:#040507;enable-background:new    ;}
	.st11{opacity:7.000000e-03;fill:#080A0D;enable-background:new    ;}
	.st12{opacity:1.000000e-02;fill:#0B0E14;enable-background:new    ;}
	.st13{opacity:1.300000e-02;fill:#0F131B;enable-background:new    ;}
	.st14{opacity:1.700000e-02;fill:#131822;enable-background:new    ;}
	.st15{opacity:2.000000e-02;fill:#171D29;enable-background:new    ;}
	.st16{opacity:2.300000e-02;fill:#1B2230;enable-background:new    ;}
	.st17{opacity:2.700000e-02;fill:#1F2737;enable-background:new    ;}
	.st18{opacity:3.000000e-02;fill:#232C3F;enable-background:new    ;}
	.st19{opacity:3.300000e-02;fill:#273246;enable-background:new    ;}
	.st20{opacity:3.700000e-02;fill:#2B374D;enable-background:new    ;}
	.st21{opacity:4.000000e-02;fill:#2F3C54;enable-background:new    ;}
	.st22{opacity:4.300000e-02;fill:#34415C;enable-background:new    ;}
	.st23{opacity:4.700000e-02;fill:#384763;enable-background:new    ;}
</style>
<g id="Group_2692" transform="translate(-942.911 -488)">
	<g id="Group_2400" transform="translate(937.063 483.387)">
		<g id="Group_2399" transform="translate(5.848 4.613)">
			<path id="Path_4537" class="st0" d="M30.6,12.6l-3.4-2l-0.4-0.2l-0.4-0.1L26,10.2l-0.4-0.1h-0.5h-0.6L24,10.2l-0.5,0.1L23,10.4
				l-0.5,0.2L22,10.8L21.9,11l-0.5,0.3L21,11.5l-0.4,0.2l-0.5,0.4l-0.5,0.4l-0.5,0.4l-0.4,0.4l-0.5,0.4L18,14l-0.5,0.5L17,14.9
				l-0.4,0.5l-0.4,0.5L16,16.3l-0.4,0.4l-0.3,0.5L15,17.8l-0.3,0.5l-0.4,0.5L14,19.3l-0.3,0.6l-0.3,0.5L13.2,21L13,21.6l-0.1,0.5
				l-0.2,0.6l-0.2,0.5l-0.2,0.5l-0.2,0.5L12,24.7v0.8v0.6v0.6v1.1l0.1,0.5l0.1,0.5l0.1,0.5l0.1,0.5l0.2,0.5l0.2,0.5l0.2,0.4v0.3
				l0.2,0.4l0.3,0.4l0.3,0.3l0.2,0.2l0.3,0.3l0.3,0.3l1.3,0.7l2.2,1.3L30.6,12.6z M30.3,12.5L30.3,12.5L30.3,12.5
				C30.4,12.5,30.4,12.5,30.3,12.5L30.3,12.5z"/>
			<path id="Path_4538" class="st1" d="M24.6,34.4c5-2.9,9.1-10,9.1-15.7s-4.1-8.1-9.1-5.2s-9.1,10-9.1,15.7S19.5,37.4,24.6,34.4z"
				/>
			<path id="Path_4539" class="st2" d="M29.9,16.4l-1.3-0.7l-0.3-0.1L28,15.5l-0.2-0.1h-0.3l-0.3-0.1h-0.5h-0.4L26,15.4l-0.4,0.1
				l-0.3,0.1l-0.4,0.2L24.8,16l-0.4,0.2L24,16.4l-0.4,0.2l-0.4,0.3L23,17l-0.2,0.1l-0.4,0.3L22,17.7L21.8,18l-0.3,0.4l-0.3,0.4
				L21,18.9l-0.3,0.4l-0.3,0.4L20.2,20l-0.3,0.4l-0.3,0.4l-0.3,0.4L19,21.6L18.8,22l-0.2,0.5L18.4,23l-0.2,0.5v0.4l0.1,0.1l-0.2,0.5
				L18,24.9l-0.1,0.5l-0.1,0.5l-0.1,0.4l-0.1,0.5l-0.1,0.5l0.2,0.1V28l0.1,0.4l0.1,0.4l0.1,0.4l0.1,0.4l0.1,0.4l0.1,0.3l0.2,0.3
				l-0.1,0.2l0.2,0.3l0.2,0.3l0.2,0.2l0.2,0.2l0.2,0.2l0.1,0.1l0.9,0.5l0.4,0.2c1.2,0.8,2.1,1.3,4.9-0.4c2.8-1.6,6.5-8.1,6.5-11.3
				C32,17.5,31.2,17,29.9,16.4L29.9,16.4z"/>
			<path id="Path_4540" class="st3" d="M25.5,32.1c3.9-2.5,6.2-6.8,6.5-11.3c0-4.2-2.9-5.9-6.5-3.8c-3.9,2.5-6.3,6.8-6.5,11.3
				C18.9,32.5,21.8,34.1,25.5,32.1z"/>
			<path id="Path_4541" class="st4" d="M34.3,50.2l-5.6-4.4l-7.2-13.7l-0.2-0.2L21,31.7l-0.2-0.2l-0.2-0.2L20.4,31l-0.2-0.3L20,30.4
				l-0.1-0.3l0-0.1l0.2-0.1L20,29.5l-0.1-0.4l-0.1-0.4l-0.1-0.4v-0.7l0.1-0.4l0.1-0.4l0.1-0.4l0.1-0.4l0.1-0.4l0.1-0.4l0.1-0.4
				l0.2-0.4l0.1-0.4l0.2-0.4l0.2-0.4l0.2-0.4l0.2-0.4l0.2-0.4l0.2-0.4l0.3-0.4l0.3-0.4l0.3-0.4l0.3-0.4l0.3-0.4l0.3-0.4
				c4.4-5.2,14.4-3.4,20.1-1.6c0.9,0.3,1.7,1,2.1,1.8l1.4,2.9c0.4,0.6,0.5,1.4,0.3,2.2l-1.1,5l6.2,13.6l-6.3,3.5
				c0.2,0.5-1.4,2.3-3.1,1.7c-0.3,0.4-0.1,1.2-2,1.1c0.1,0.4-0.4,0.7-1.3,0.7l-4.1-0.5C34.9,50.4,34.6,50.4,34.3,50.2z"/>
			<path id="Path_4542" class="st5" d="M50.8,44.5l-3.6-2.8l-2.7-4.3L42,35c-1.2-1.1-1.8-2.6-1.8-4.3l-0.1-3L35,27.2l-2.1,2.4
				c-0.5,0.6-1.4,1-2.3,0.8l-2-0.6c-0.2,0-0.4-0.2-0.4-0.4c-0.1-0.2,0-0.4,0.1-0.5l4.1-6.4c0.3-0.5,0.7-0.8,1.3-0.9l8.7-1.4
				c0.2,0,0.4,0,0.5,0.2l5.2,4.6c4.5,4,2.4,4,6.9,5c1.4,0.4,2.8,0.9,4.2,1.4c3.2,6.3-1.5,10.9-6.2,12.3
				C52.9,43.9,51.2,44.6,50.8,44.5z"/>
			<path id="Path_4543" class="st5" d="M42.4,49.3c-1.8,0-3.5-0.6-4.9-1.7c-1.4-1.2-4.4-4.3-4.2-4.5s3.1,3,4.4,4.2
				C39.1,48.2,40.7,48.9,42.4,49.3z"/>
			<path id="Path_4544" class="st5" d="M45.5,47.5c-1.6,0-3.3,0-4.7-1.3s-5.7-5-5.5-5.2c0.3-0.3,4.6,3.7,5.9,4.9
				C42.4,47.1,44.2,47.2,45.5,47.5z"/>
			<path id="Path_4545" class="st5" d="M49.4,45.6c-2.1-0.3-4.4-0.5-6.2-2c-1.6-1.4-5.2-4.5-5-4.8s4.1,3.2,5.5,4.5
				C45.2,44.6,47.6,45,49.4,45.6z"/>
			<path id="Path_4546" class="st5" d="M40.4,50.4c-1.6-0.2-3.7-0.5-5.1-1.6c-1.4-1.1-3.8-3.3-3.6-3.5c0.3-0.3,2.8,2.5,4,3.3
				C37.1,49.4,38.8,50,40.4,50.4z"/>
			<path id="Path_4547" class="st0" d="M63.9,30.4l-3.4-2l-0.4-0.2l-0.4-0.1L59.3,28H59h-0.4h-0.8h-0.4l-0.5,0.1l-0.5,0.1l-0.5,0.2
				l-0.5,0.2l-0.5,0.2L54.7,29l-0.5,0.3l-0.5,0.3L53.2,30l-0.5,0.4l-0.5,0.4L52,31l-0.5,0.4L51,31.9l-0.5,0.5l-0.4,0.4l-0.4,0.5
				l-0.4,0.5l-0.4,0.5l-0.4,0.5l-0.4,0.5l-0.4,0.5l-0.4,0.5l-0.4,0.5l-0.3,0.5l-0.3,0.5L46,38.3l-0.1,0.5l-0.3,0.5L46,40l-0.2,0.5
				L45.6,41l-0.1,0.5L45.3,42l-0.1,0.5L45.1,43L45,43.5l0,0.9v1.1l0.1,0.5l0.1,0.5l0.1,0.5l0.1,0.5l0.2,0.5l0.2,0.5l0.2,0.4l0.2,0.4
				l0.2,0.4l0.3,0.4l0.3,0.3l0.3,0.3l0.3,0.3l0.3,0.3l1.3,0.7l2.2,1.3L63.9,30.4L63.9,30.4z M63.5,30.3L63.5,30.3L63.5,30.3
				L63.5,30.3z"/>
			<path id="Path_4548" class="st1" d="M57.8,52.3c5-2.9,9.1-10,9.1-15.7s-4.1-8.1-9.1-5.2s-9.1,10-9.1,15.7
				C48.6,52.8,52.7,55.1,57.8,52.3z"/>
			<path id="Path_4549" class="st5" d="M31,47.5l-2.6-0.1c-0.4,0-0.8-0.2-1.1-0.5l-0.5-0.4c-0.4-0.3-0.5-0.7-0.5-1.2v-1.1H26
				c-0.4-0.1-0.6-0.3-0.8-0.5l-0.7-0.9c-0.3-0.3-0.4-0.6-0.4-1L24,41l-0.3-0.1c-0.4-0.2-0.7-0.4-0.9-0.7l-0.5-0.8
				c-0.3-0.5-0.5-1.1-0.5-1.6v-0.4c-1.1-0.5-1.7-1.5-1.7-2.7v-0.8l0.1-1.7c0.1-0.9,0.5-1.2,1.2-1.2c0.4-0.1,0.7,0,1.1,0.2l0.5,0.2
				c0.4,0.2,0.6,0.4,0.8,0.7c0.3,0.3,0.4,0.6,0.4,1v1.1l0.5,0.3l0.5,0.5c0.5,0.4,0.7,0.9,0.6,1.5L25.7,38c0.3,0.2,0.5,0.3,0.7,0.5
				l0.5,0.5c0.5,0.5,0.7,1,0.7,1.6l-0.1,1.9c0.5,0,1.2,0.3,1.5,0.7c0.4,0.3,0.6,0.7,0.7,1.2l0.3,1.5L31,47.5z"/>
			<path id="Path_4550" class="st6" d="M20.8,32.1L22,33l-0.2,2c0,0.1-0.1,0.1-0.1,0.1s-0.2-0.1-0.2-0.2L21,34.3
				c-0.2-0.2-0.4-0.4-0.3-0.5L20.8,32.1L20.8,32.1z"/>
			<path id="Path_4551" class="st6" d="M22.4,35.1l1.4,0.9v1.7c0,0.1,0,0.1-0.1,0.1c-0.1,0.1-0.1,0.1-0.1,0.1h-0.2
				c-0.3,0-0.5-0.1-0.6-0.4l-0.2-0.2c-0.2-0.2-0.2-0.4-0.3-0.6L22.4,35.1z"/>
			<path id="Path_4552" class="st6" d="M24.7,38.9l1.4,1v1.5c0,0.1,0,0.1-0.1,0.1c-0.1,0.1-0.1,0.1-0.1,0.1h-0.2
				c-0.3,0-0.5-0.1-0.6-0.4L24.8,41c-0.1-0.1-0.2-0.3-0.2-0.5v-1.6H24.7z"/>
			<path id="Path_4553" class="st6" d="M26.8,43.2l1.4,1l-0.1,1.4c0,0.1-0.1,0.1-0.2,0.2h-0.2c-0.3,0-0.5-0.1-0.6-0.4l0,0
				c-0.1-0.3-0.2-0.5-0.2-0.9L26.8,43.2z"/>
			<path id="Path_4554" class="st7" d="M24.4,34.1c-0.3,0.1-0.5,0.1-0.6,0.1c-0.5,0.1-1,0.3-1.3,0.6c-0.3,0.8-0.4,1.7-0.4,2.5
				C22,35.2,21.6,34.1,24.4,34.1z"/>
			<path id="Path_4555" class="st6" d="M29.9,26.3l1.1,0.2c0.1,0,0.2,0.1,0.3,0.2c0.4,0.5-1.6,2.4-2,2.9L28,29.3
				c0.4-1,1-1.9,1.7-2.7C29.6,26.4,29.7,26.3,29.9,26.3z"/>
			<path id="Path_4556" class="st7" d="M26.1,37.9c-0.6,0-1.3,0.3-1.6,0.8c-0.2,0.7-0.3,1.5-0.3,2.4C24.1,39.5,23.7,37.8,26.1,37.9z
				"/>
			<path id="Path_4557" class="st7" d="M27.9,42.4c-1.4,0.1-1.4,0.7-1.5,2C26.3,42.8,26.2,42.3,27.9,42.4z"/>
			<path id="Path_4558" class="st7" d="M34.4,25.9c0.4,0.6,0.4,1.4-0.1,1.9c0.4-0.4,0.9-0.6,1.4-0.5C35.1,27.1,34.8,26.4,34.4,25.9z
				"/>
			<path id="Path_4559" class="st7" d="M41.4,27c-0.6,0.4-1.4,0.5-2.1,0.5c1.1,0.1,0.7,0.5,0.9,1.2C40.1,27.7,40.9,27.5,41.4,27z"/>
		</g>
	</g>
	<g id="Group_2422" transform="translate(403 -743.814)">
		<g class="st8">
			<path class="st9" d="M623.1,1250h3.6l3.3,9.1h0.1l3.3-9.1h3.6v12.8h-2.3v-10.3h0l-3.9,10.3h-1.6l-3.8-10.3h0v10.3h-2.2V1250z"/>
			<path class="st9" d="M642.8,1257.3l-4.8-7.3h2.8l3.2,5.4l3.3-5.4h2.6l-4.8,7.3v5.6h-2.3V1257.3z"/>
		</g>
		<g class="st8">
			<path class="st9" d="M623.4,1273.1H634v2.5h-7.8v4.1h7.4v2.4h-7.4v4.5h8.2v2.5h-11V1273.1z"/>
			<path class="st9" d="M641.8,1284.7h-5.4v-2.3h5.4V1284.7z"/>
			<path class="st9" d="M644.5,1273.1h4.5l4.2,11.4h0.1l4.1-11.4h4.5v16h-2.8v-12.9h0l-4.9,12.9h-2l-4.8-12.9h0v12.9h-2.7V1273.1z"
				/>
			<path class="st9" d="M678.1,1283.2c0,1-0.2,1.8-0.5,2.6s-0.8,1.4-1.4,2c-0.6,0.5-1.3,1-2,1.3c-0.8,0.3-1.6,0.4-2.6,0.4
				s-1.8-0.1-2.6-0.4s-1.5-0.7-2-1.3c-0.6-0.5-1-1.2-1.4-2c-0.3-0.8-0.5-1.6-0.5-2.6v-10.1h2.9v10c0,0.5,0.1,0.9,0.2,1.4
				s0.3,0.9,0.6,1.2c0.3,0.4,0.6,0.7,1.1,0.9c0.5,0.2,1,0.3,1.7,0.3c0.7,0,1.2-0.1,1.7-0.3s0.8-0.5,1.1-0.9c0.3-0.4,0.5-0.8,0.6-1.2
				c0.1-0.5,0.2-0.9,0.2-1.4v-10h2.9V1283.2z M667.8,1270c0-0.4,0.2-0.8,0.5-1.1c0.3-0.3,0.7-0.5,1.2-0.5c0.5,0,0.9,0.2,1.2,0.5
				s0.5,0.7,0.5,1.1c0,0.5-0.2,0.8-0.5,1.1s-0.7,0.5-1.2,0.5c-0.5,0-0.9-0.2-1.2-0.5C668,1270.8,667.8,1270.4,667.8,1270z
				 M672.2,1270c0-0.4,0.2-0.8,0.5-1.1c0.3-0.3,0.7-0.5,1.2-0.5c0.5,0,0.9,0.2,1.2,0.5s0.5,0.7,0.5,1.1c0,0.5-0.2,0.8-0.5,1.1
				s-0.7,0.5-1.2,0.5c-0.5,0-0.9-0.2-1.2-0.5C672.4,1270.8,672.2,1270.4,672.2,1270z"/>
			<path class="st9" d="M684.7,1275.6h-4.9v-2.5h12.7v2.5h-4.9v13.5h-2.8V1275.6z"/>
			<path class="st9" d="M698,1273.1h2.5l6.9,16h-3.3l-1.5-3.7h-6.9l-1.4,3.7H691L698,1273.1z M701.6,1283l-2.5-6.5l-2.5,6.5H701.6z"
				/>
			<path class="st9" d="M708.9,1273.1h6.2c0.6,0,1.2,0.1,1.8,0.2s1.1,0.4,1.6,0.7c0.5,0.3,0.8,0.7,1.1,1.3c0.3,0.5,0.4,1.1,0.4,1.9
				c0,0.9-0.3,1.7-0.8,2.2c-0.5,0.6-1.2,1-2,1.3v0c1,0.1,1.8,0.5,2.5,1.2s1,1.5,1,2.6c0,0.9-0.2,1.6-0.5,2.2
				c-0.3,0.6-0.8,1.1-1.4,1.4c-0.6,0.4-1.2,0.6-1.9,0.8c-0.7,0.2-1.5,0.2-2.2,0.2h-5.8V1273.1z M711.8,1279.6h2.5
				c1,0,1.7-0.2,2.2-0.6c0.5-0.4,0.7-0.9,0.7-1.6c0-0.7-0.3-1.2-0.8-1.5c-0.5-0.3-1.3-0.5-2.4-0.5h-2.3V1279.6z M711.8,1286.7h2.6
				c0.4,0,0.8,0,1.2-0.1s0.8-0.2,1.2-0.3c0.4-0.2,0.6-0.4,0.9-0.7c0.2-0.3,0.3-0.7,0.3-1.3c0-0.8-0.3-1.4-0.9-1.8
				c-0.6-0.3-1.4-0.5-2.6-0.5h-2.7V1286.7z"/>
			<path class="st9" d="M728.6,1273.1h2.5l6.9,16h-3.3l-1.5-3.7h-6.9l-1.4,3.7h-3.2L728.6,1273.1z M732.2,1283l-2.5-6.5l-2.5,6.5
				H732.2z"/>
			<path class="st9" d="M739.5,1273.1h2.9v6.9h0.1l6.7-6.9h3.8l-7.5,7.4l8,8.6h-4l-7-8h-0.1v8h-2.9V1273.1z"/>
			<path class="st9" d="M759.9,1273.1h2.5l6.9,16H766l-1.5-3.7h-6.9l-1.4,3.7h-3.2L759.9,1273.1z M763.5,1283l-2.5-6.5l-2.5,6.5
				H763.5z"/>
			<path class="st9" d="M772.7,1275.6h-4.9v-2.5h12.7v2.5h-4.9v13.5h-2.8V1275.6z"/>
		</g>
	</g>
	<g id="Group_2436" transform="translate(947 541.447)">
		<path id="Path_4484" class="st10" d="M51.8,9.2c9.2,5.3,9.2,13.9,0,19.2s-24.1,5.3-33.3,0s-9.2-13.9,0-19.2S42.6,3.8,51.8,9.2z"/>
		<path id="Path_4485" class="st11" d="M50.7,9.8c8.6,5,8.6,13,0,17.9s-22.4,5-31,0s-8.6-13,0-17.9S42.1,4.8,50.7,9.8z"/>
		<path id="Path_4486" class="st12" d="M49.5,10.4c8,4.6,8,12,0,16.7s-20.9,4.6-28.8,0s-8-12,0-16.7S41.6,5.8,49.5,10.4z"/>
		<path id="Path_4487" class="st13" d="M48.4,11.1c7.3,4.3,7.3,11.1,0,15.4s-19.3,4.3-26.6,0s-7.3-11.1,0-15.4S41.1,6.8,48.4,11.1z"
			/>
		<path id="Path_4488" class="st14" d="M47.3,11.7c6.7,3.9,6.7,10.2,0,14.1s-17.6,3.9-24.3,0s-6.7-10.2,0-14.1S40.6,7.8,47.3,11.7z"
			/>
		<path id="Path_4489" class="st15" d="M46.2,12.3c6.1,3.5,6.1,9.2,0,12.8s-16,3.5-22.2,0s-6.1-9.2,0-12.8
			C30.1,8.8,40.1,8.8,46.2,12.3z"/>
		<path id="Path_4490" class="st16" d="M45.1,13c5.5,3.2,5.5,8.3,0,11.5s-14.4,3.2-19.9,0s-5.5-8.3,0-11.5S39.6,9.8,45.1,13z"/>
		<path id="Path_4491" class="st17" d="M44,13.6c4.9,2.8,4.9,7.4,0,10.2s-12.8,2.8-17.6,0s-4.9-7.4,0-10.2S39.1,10.8,44,13.6z"/>
		<path id="Path_4492" class="st18" d="M42.9,14.3c4.3,2.4,4.3,6.4,0,9s-11.1,2.4-15.5,0s-4.3-6.4,0-9S38.6,11.8,42.9,14.3z"/>
		<path id="Path_4493" class="st19" d="M41.7,15c3.6,2.1,3.6,5.5,0,7.6c-4.2,2.1-9.1,2.1-13.2,0c-3.6-2.1-3.6-5.5,0-7.6
			C32.7,12.8,37.6,12.8,41.7,15z"/>
		<path id="Path_4494" class="st20" d="M40.6,15.6c3.1,1.7,3.1,4.6,0,6.3c-3.4,1.7-7.5,1.7-11,0c-3.1-1.7-3.1-4.6,0-6.3
			C33.1,13.8,37.2,13.8,40.6,15.6z"/>
		<path id="Path_4495" class="st21" d="M39.5,16.2c2.4,1.4,2.4,3.6,0,5.1c-2.7,1.4-6,1.4-8.8,0c-2.4-1.4-2.4-3.6,0-5.1
			C33.5,14.8,36.8,14.8,39.5,16.2z"/>
		<path id="Path_4496" class="st22" d="M38.4,16.9c1.8,1,1.8,2.7,0,3.8c-2.1,1-4.4,1-6.5,0c-1.8-1-1.8-2.7,0-3.8
			C33.9,15.8,36.3,15.8,38.4,16.9z"/>
		<path id="Path_4497" class="st23" d="M37.3,17.5c0.7,0.3,1.1,1,0.8,1.6c-0.1,0.4-0.5,0.7-0.8,0.8c-1.4,0.6-3,0.6-4.3,0
			c-0.7-0.3-1.1-1-0.8-1.6c0.1-0.4,0.5-0.7,0.8-0.8C34.3,16.9,35.9,16.9,37.3,17.5z"/>
	</g>
</g>
</svg>
