<?xml version="1.0" encoding="utf-8"?>
<!-- Generator: Adobe Illustrator 22.1.0, SVG Export Plug-In . SVG Version: 6.00 Build 0)  -->
<svg version="1.1" id="Layer_1" xmlns="http://www.w3.org/2000/svg" xmlns:xlink="http://www.w3.org/1999/xlink" x="0px" y="0px"
	 viewBox="0 0 120 138.9" style="enable-background:new 0 0 120 138.9;" xml:space="preserve">
<style type="text/css">
	.st0{fill:#EBEBEB;}
	.st1{fill:#F5F9FA;}
	.st2{fill:#BDBDBD;}
	.st3{fill:#2192FC;}
	.st4{fill:#3D566E;}
	.st5{fill:#9C9C9C;}
	.st6{enable-background:new    ;}
	.st7{fill:#1F1E1E;}
</style>
<g id="Group_2397" transform="translate(705.345 475.972)">
	<path id="Path_4517" class="st0" d="M-664.6-403.8c0.7,0.8,1.5,1.6,2.3,2.2l33.9-19.6c1.5-1,2.4-2.6,2.5-4.4v-36.9l-9.4-7.2
		l-0.8-0.1l-10-0.2l-17.2,9.8c-0.5,0.3-0.9,0.7-1.4,1.1L-664.6-403.8L-664.6-403.8z"/>
	<path id="Path_4518" class="st1" d="M-631.8-455.7l4.7-2.7c2.3-1.3,3.6-2.4,1.3-4.2l-9.9-7.7l4,6.1L-631.8-455.7L-631.8-455.7
		L-631.8-455.7z"/>
	<path id="Path_4519" class="st2" d="M-662.3-401.6l-3-1.7l-0.2-0.3l-0.3-0.4l-0.2-0.5l-0.1-0.6v-51l0.1-0.3l0.1-0.3l0.1-0.3
		l0.1-0.3l0.2-0.3l0.2-0.3l0.2-0.3l0.2-0.3l0.2-0.3l0.2-0.3l0.2-0.3l0.3-0.2l0.3-0.2l0.3-0.2l18.6-10.7c2.7-1.5,4.2-2.3,7.5-0.8
		c2.9,1.4,5,4,5.6,7.1v8.8l-3.2-1.8v-6.5c0.1-3-3.3-6.7-7.8-4.3l-17.7,10l-0.2,0.2l-0.3,0.2l-0.3,0.2l-0.2,0.2l-0.2,0.2l-0.2,0.3
		l-0.2,0.3l-0.2,0.3l-0.2,0.3l-0.2,0.3v0.3l-0.1,0.3l-0.1,0.3l-0.1,0.2v51l0.1,0.6l0.2,0.5l0.3,0.4L-662.3-401.6L-662.3-401.6z"/>
	<path id="Path_4520" class="st3" d="M-634.8-438l1,0.6l1.2-1.2l0.5,1.2l1.4-0.7l-0.3,1.5h1.2l-0.6,1.7l0.9,0.7l-1.1,1.5l0.4,1.3
		l-1.3,1.3l-0.2,1.6l-1.4,0.6l-0.8,1.7l-1.2-0.2l-1.2,1.5l-0.8-0.9l-1.1,1.2v-1.5l-1.4,0.3l0.4-1.7l-1.1-0.4l0.9-1.7l-0.6-1.1
		l1.2-1.4l-0.1-1.5l1.4-0.9l0.5-1.7l1.3-0.2L-634.8-438L-634.8-438z M-634.8-436.2c-2.3,1.5-3.7,4-3.9,6.8c0,2.5,1.7,3.5,3.9,2.2
		c2.3-1.5,3.7-4,3.9-6.8C-631-436.5-632.7-437.4-634.8-436.2z M-634.8-435.6c-1.9,1.3-3.2,3.4-3.3,5.7c0,2.1,1.4,3,3.3,1.9
		c1.9-1.3,3.2-3.4,3.3-5.7C-631.6-435.7-633-436.5-634.8-435.6z"/>
	<path id="Path_4521" class="st4" d="M-657.1-440.5l21.4-12.5v1l-21.4,12.5V-440.5z"/>
	<path id="Path_4522" class="st4" d="M-657.1-435.2l23.1-13.4v1l-23.1,13.4V-435.2z"/>
	<path id="Path_4523" class="st4" d="M-657.1-429.6l18.2-10.5v1l-18.2,10.6V-429.6z"/>
	<path id="Path_4524" class="st5" d="M-637.8-468.6v-3.2c0.2,0.1,0.3,0.2,0.4,0.2c2.9,1.4,5,4,5.6,7.1v8.7l-3.1-1.8v-6.4
		C-635-466-636.1-467.7-637.8-468.6z"/>
	<path id="Path_4525" class="st5" d="M-662.3-401.6l-3-1.7l-0.2-0.3l-0.3-0.4l-0.1-0.5l-0.1-0.6v-50.6l0.1-0.4l0.1-0.3v-0.3l3.1,1.7
		l-0.1,0.3l-0.1,0.3v0.4l-0.1,0.3v50.4l0.1,0.6l0.1,0.5l0.3,0.4L-662.3-401.6z"/>
</g>
<g id="Group_2423" transform="translate(454 -709)">
	<g class="st6">
		<path class="st7" d="M-405.9,802.5h3.3l3.1,8.5h0.1l3.1-8.5h3.4v12h-2.1v-9.7h0l-3.6,9.7h-1.5l-3.6-9.7h0v9.7h-2V802.5z"/>
		<path class="st7" d="M-387.4,809.3l-4.5-6.8h2.6l3,5.1l3.1-5.1h2.5l-4.5,6.8v5.2h-2.1V809.3z"/>
	</g>
	<g class="st6">
		<path class="st7" d="M-448.5,824.1h10v2.3h-7.3v3.8h6.9v2.2h-6.9v4.2h7.7v2.4h-10.3V824.1z"/>
		<path class="st7" d="M-431.3,835h-5.1v-2.2h5.1V835z"/>
		<path class="st7" d="M-428.8,824.1h5.9c0.6,0,1.1,0.1,1.7,0.2c0.6,0.1,1,0.4,1.5,0.7c0.4,0.3,0.8,0.7,1.1,1.2
			c0.3,0.5,0.4,1.1,0.4,1.7c0,0.8-0.2,1.5-0.7,2.1s-1.1,0.9-1.9,1.2v0c0.9,0.1,1.7,0.5,2.3,1.1c0.6,0.6,0.9,1.4,0.9,2.4
			c0,0.8-0.2,1.5-0.5,2.1c-0.3,0.6-0.8,1-1.3,1.3c-0.5,0.3-1.1,0.6-1.8,0.7s-1.4,0.2-2.1,0.2h-5.4V824.1z M-426.1,830.2h2.4
			c0.9,0,1.6-0.2,2-0.5s0.7-0.9,0.7-1.5c0-0.7-0.2-1.2-0.7-1.4c-0.5-0.3-1.2-0.4-2.2-0.4h-2.1V830.2z M-426.1,836.9h2.4
			c0.3,0,0.7,0,1.1-0.1s0.8-0.2,1.1-0.3c0.3-0.2,0.6-0.4,0.8-0.7c0.2-0.3,0.3-0.7,0.3-1.2c0-0.8-0.3-1.3-0.8-1.7s-1.4-0.5-2.4-0.5
			h-2.5V836.9z"/>
		<path class="st7" d="M-415.8,831.6c0-1.2,0.2-2.3,0.6-3.3c0.4-1,1-1.8,1.7-2.5c0.7-0.7,1.6-1.2,2.5-1.6c1-0.4,2.1-0.6,3.2-0.6
			c1.2,0,2.3,0.2,3.2,0.6c1,0.4,1.8,0.9,2.6,1.6c0.7,0.7,1.3,1.5,1.7,2.5c0.4,1,0.6,2.1,0.6,3.3c0,1.2-0.2,2.2-0.6,3.2
			s-1,1.8-1.7,2.5c-0.7,0.7-1.6,1.2-2.6,1.6c-1,0.4-2.1,0.6-3.2,0.6c-1.2,0-2.2-0.2-3.2-0.6c-1-0.4-1.8-0.9-2.5-1.6
			c-0.7-0.7-1.3-1.5-1.7-2.5S-415.8,832.8-415.8,831.6z M-412.9,831.6c0,0.8,0.1,1.5,0.4,2.2c0.2,0.7,0.6,1.3,1.1,1.8
			c0.5,0.5,1,0.9,1.6,1.2c0.6,0.3,1.3,0.4,2.1,0.4s1.5-0.1,2.1-0.4c0.6-0.3,1.2-0.7,1.6-1.2c0.5-0.5,0.8-1.1,1.1-1.8
			c0.2-0.7,0.4-1.4,0.4-2.2c0-0.8-0.1-1.5-0.4-2.2s-0.6-1.2-1-1.7c-0.5-0.5-1-0.9-1.6-1.2c-0.6-0.3-1.3-0.4-2.1-0.4
			c-0.8,0-1.5,0.1-2.1,0.4c-0.6,0.3-1.2,0.7-1.6,1.2c-0.5,0.5-0.8,1.1-1.1,1.7C-412.8,830.1-412.9,830.8-412.9,831.6z"/>
		<path class="st7" d="M-397.1,824.1h5.2c0.7,0,1.4,0.1,2.1,0.2c0.7,0.1,1.3,0.4,1.8,0.7c0.5,0.3,0.9,0.8,1.2,1.3
			c0.3,0.6,0.5,1.2,0.5,2c0,1.1-0.3,2-0.9,2.7c-0.6,0.7-1.5,1.1-2.5,1.4l4,6.7h-3.2l-3.5-6.4h-2v6.4h-2.7V824.1z M-392.2,830.6
			c0.4,0,0.8,0,1.1-0.1s0.7-0.2,1-0.3c0.3-0.2,0.6-0.4,0.8-0.7c0.2-0.3,0.3-0.7,0.3-1.1c0-0.4-0.1-0.7-0.3-1
			c-0.2-0.3-0.4-0.5-0.7-0.6c-0.3-0.2-0.6-0.3-1-0.3s-0.7-0.1-1-0.1h-2.4v4.2H-392.2z"/>
		<path class="st7" d="M-383.7,824.1h5.3c1,0,2,0.1,2.9,0.4c1,0.3,1.9,0.7,2.7,1.3c0.8,0.6,1.4,1.4,1.9,2.3s0.7,2.1,0.7,3.6
			c0,1.3-0.2,2.4-0.7,3.4c-0.5,0.9-1.1,1.7-1.9,2.3c-0.8,0.6-1.7,1.1-2.7,1.3s-2,0.4-2.9,0.4h-5.3V824.1z M-378.8,836.8
			c0.7,0,1.4-0.1,2.1-0.2c0.7-0.2,1.3-0.4,1.9-0.8c0.6-0.4,1-0.9,1.4-1.6s0.5-1.5,0.5-2.5c0-1.1-0.2-2-0.5-2.6s-0.8-1.2-1.4-1.6
			s-1.2-0.6-1.9-0.8c-0.7-0.1-1.4-0.2-2.1-0.2h-2.2v10.4H-378.8z"/>
		<path class="st7" d="M-367.5,824.1h5.2c0.7,0,1.4,0.1,2.1,0.2c0.7,0.1,1.3,0.4,1.8,0.7c0.5,0.3,0.9,0.8,1.2,1.3
			c0.3,0.6,0.5,1.2,0.5,2c0,1.1-0.3,2-0.9,2.7c-0.6,0.7-1.5,1.1-2.5,1.4l4,6.7h-3.2l-3.5-6.4h-2v6.4h-2.7V824.1z M-362.6,830.6
			c0.4,0,0.8,0,1.1-0.1s0.7-0.2,1-0.3c0.3-0.2,0.6-0.4,0.8-0.7c0.2-0.3,0.3-0.7,0.3-1.1c0-0.4-0.1-0.7-0.3-1
			c-0.2-0.3-0.4-0.5-0.7-0.6c-0.3-0.2-0.6-0.3-1-0.3s-0.7-0.1-1-0.1h-2.4v4.2H-362.6z"/>
		<path class="st7" d="M-354.9,831.6c0-1.2,0.2-2.3,0.6-3.3c0.4-1,1-1.8,1.7-2.5c0.7-0.7,1.6-1.2,2.5-1.6c1-0.4,2.1-0.6,3.2-0.6
			c1.2,0,2.3,0.2,3.2,0.6c1,0.4,1.8,0.9,2.6,1.6c0.7,0.7,1.3,1.5,1.7,2.5c0.4,1,0.6,2.1,0.6,3.3c0,1.2-0.2,2.2-0.6,3.2
			s-1,1.8-1.7,2.5c-0.7,0.7-1.6,1.2-2.6,1.6c-1,0.4-2.1,0.6-3.2,0.6c-1.2,0-2.2-0.2-3.2-0.6c-1-0.4-1.8-0.9-2.5-1.6
			c-0.7-0.7-1.3-1.5-1.7-2.5S-354.9,832.8-354.9,831.6z M-352,831.6c0,0.8,0.1,1.5,0.4,2.2c0.2,0.7,0.6,1.3,1.1,1.8
			c0.5,0.5,1,0.9,1.6,1.2c0.6,0.3,1.3,0.4,2.1,0.4s1.5-0.1,2.1-0.4c0.6-0.3,1.2-0.7,1.6-1.2c0.5-0.5,0.8-1.1,1.1-1.8
			c0.2-0.7,0.4-1.4,0.4-2.2c0-0.8-0.1-1.5-0.4-2.2s-0.6-1.2-1-1.7c-0.5-0.5-1-0.9-1.6-1.2c-0.6-0.3-1.3-0.4-2.1-0.4
			c-0.8,0-1.5,0.1-2.1,0.4c-0.6,0.3-1.2,0.7-1.6,1.2c-0.5,0.5-0.8,1.1-1.1,1.7C-351.9,830.1-352,830.8-352,831.6z"/>
	</g>
</g>
</svg>
