<?xml version="1.0" encoding="utf-8"?>
<!-- Generator: Adobe Illustrator 22.1.0, SVG Export Plug-In . SVG Version: 6.00 Build 0)  -->
<svg version="1.1" id="Layer_1" xmlns="http://www.w3.org/2000/svg" xmlns:xlink="http://www.w3.org/1999/xlink" x="0px" y="0px"
	 viewBox="0 0 131.2 105.6" style="enable-background:new 0 0 131.2 105.6;" xml:space="preserve">
<style type="text/css">
	.st0{fill:#415A73;}
	.st1{fill:#2C3E50;}
	.st2{fill:#E6EAEB;}
	.st3{fill:#BDBDBD;}
	.st4{fill:#E8D5A7;}
	.st5{fill:#C2AC78;}
	.st6{fill:#D4BE8C;}
	.st7{fill:#AB9667;}
	.st8{enable-background:new    ;}
	.st9{fill:#1F1E1E;}
</style>
<g id="Group_2400" transform="translate(937.063 483.387)">
	<g id="Group_2399" transform="translate(5.848 4.613)">
		<path id="Path_4537" class="st0" d="M-887-481.1l-3.8-2.2l-0.4-0.2l-0.4-0.1l-0.4-0.1l-0.4-0.1h-0.5h-0.7l-0.5,0.1l-0.5,0.1
			l-0.5,0.1l-0.5,0.2l-0.5,0.2l-0.5,0.2l-0.5,0.3l-0.5,0.3l-0.4,0.2l-0.5,0.4l-0.5,0.4l-0.6,0.4l-0.4,0.4l-0.5,0.4l-0.5,0.5
			l-0.5,0.5l-0.5,0.5l-0.4,0.5l-0.4,0.5l-0.4,0.6l-0.4,0.4l-0.3,0.6l-0.4,0.6l-0.3,0.5l-0.4,0.6l-0.3,0.6l-0.3,0.7l-0.3,0.6
			l-0.3,0.6l-0.3,0.6l-0.1,0.6l-0.2,0.7l-0.2,0.6l-0.2,0.6l-0.2,0.6l-0.1,0.6l-0.1,0.6v0.7v0.7v1.2l0.1,0.6l0.1,0.5l0.1,0.5l0.1,0.5
			l0.2,0.5l0.2,0.5l0.2,0.4v0.3l0.2,0.4l0.3,0.4l0.3,0.3l0.2,0.2l0.3,0.3l0.3,0.3l1.4,0.8l2.4,1.4L-887-481.1z M-887.4-481.2
			L-887.4-481.2l0.1,0.1C-887.3-481.2-887.3-481.2-887.4-481.2L-887.4-481.2z"/>
		<path id="Path_4538" class="st1" d="M-893.7-457c5.5-3.2,10-11,10-17.4s-4.5-9-10-5.8s-10,11-10,17.4S-899.3-453.7-893.7-457z"/>
		<path id="Path_4539" class="st2" d="M-887.8-476.9l-1.4-0.8l-0.3-0.1l-0.3-0.1l-0.2-0.1h-0.3l-0.3-0.1h-0.6h-0.4l-0.3,0.1
			l-0.4,0.1l-0.3,0.1l-0.4,0.2l-0.4,0.2l-0.4,0.2l-0.4,0.2l-0.4,0.2l-0.4,0.3l-0.4,0.3l-0.2,0.1l-0.4,0.3l-0.4,0.3l-0.2,0.3
			l-0.3,0.4l-0.3,0.4l-0.4,0.3l-0.3,0.4l-0.3,0.4l-0.3,0.4l-0.3,0.4l-0.3,0.4l-0.3,0.4l-0.3,0.4l-0.2,0.4l-0.2,0.5l-0.2,0.5
			l-0.2,0.5v0.4l-0.1,0.5l-0.2,0.5l-0.2,0.5l-0.1,0.5l-0.1,0.5l-0.1,0.4l-0.1,0.5l-0.1,0.5l0.2,0.1v0.9l0.1,0.4l0.1,0.4l0.1,0.4
			l0.1,0.4l0.1,0.4l0.1,0.3l0.2,0.3l-0.1,0.2l0.2,0.3l0.2,0.3l0.2,0.2l0.2,0.2l0.2,0.2l0.1,0.1l1,0.6l0.4,0.2
			c1.3,0.9,2.3,1.4,5.4-0.4c3.1-1.8,7.2-9,7.2-12.5C-885.5-475.7-886.4-476.3-887.8-476.9L-887.8-476.9z"/>
		<path id="Path_4540" class="st3" d="M-892.7-459.6c4.3-2.8,6.9-7.5,7.2-12.5c0-4.6-3.2-6.5-7.2-4.2c-4.3,2.8-7,7.5-7.2,12.5
			C-900-459.1-896.7-457.3-892.7-459.6z"/>
		<path id="Path_4541" class="st4" d="M-882.9-439.6l-6.2-4.9l-7.9-15.1l-0.2-0.2l-0.3-0.2l-0.2-0.2l-0.2-0.2l-0.2-0.3l-0.2-0.3
			l-0.2-0.3l-0.1-0.3l-0.2-0.3l0.2-0.1l-0.1-0.4l-0.1-0.4l-0.1-0.4l-0.1-0.4v-0.8l0.1-0.4l0.1-0.4l0.1-0.4l0.1-0.4l0.1-0.4l0.1-0.4
			l0.1-0.4l0.2-0.4l0.1-0.4l0.2-0.4l0.2-0.4l0.2-0.4l0.2-0.4l0.2-0.4l0.2-0.4l0.3-0.4l0.3-0.4l0.3-0.4l0.3-0.4l0.3-0.4l0.3-0.4
			c4.9-5.8,15.9-3.8,22.2-1.8c1,0.3,1.9,1.1,2.3,2l1.5,3.2c0.4,0.7,0.5,1.6,0.3,2.4l-1.2,5.5l6.8,15l-7,3.9c0.2,0.5-1.5,2.5-3.4,1.9
			c-0.3,0.4-0.1,1.3-2.2,1.2c0.1,0.4-0.4,0.8-1.4,0.8l-4.5-0.6C-882.3-439.3-882.6-439.4-882.9-439.6z"/>
		<path id="Path_4542" class="st5" d="M-864.7-445.9l-4-3.1l-3-4.7l-2.7-2.7c-1.3-1.2-2-2.9-2-4.7l-0.1-3.3l-5.7-0.6l-2.3,2.7
			c-0.6,0.7-1.5,1.1-2.5,0.9l-2.2-0.7c-0.2,0-0.4-0.2-0.4-0.4c-0.1-0.2,0-0.4,0.1-0.6l4.5-7.1c0.3-0.5,0.8-0.9,1.4-1l9.6-1.5
			c0.2,0,0.4,0,0.6,0.2l5.8,5.1c5,4.4,2.6,4.4,7.6,5.5c1.6,0.4,3.1,1,4.6,1.6c3.5,7-1.7,12-6.9,13.6
			C-862.4-446.5-864.3-445.7-864.7-445.9z"/>
		<path id="Path_4543" class="st5" d="M-874-440.6c-2,0-3.9-0.7-5.4-1.9c-1.6-1.3-4.9-4.7-4.6-5c0.2-0.2,3.4,3.3,4.9,4.6
			C-877.6-441.8-875.9-441-874-440.6z"/>
		<path id="Path_4544" class="st5" d="M-870.6-442.5c-1.8,0-3.6,0-5.2-1.4c-1.6-1.4-6.3-5.5-6.1-5.8c0.3-0.3,5.1,4.1,6.5,5.4
			C-874-443-872-442.9-870.6-442.5z"/>
		<path id="Path_4545" class="st5" d="M-866.3-444.7c-2.3-0.3-4.9-0.6-6.8-2.2c-1.8-1.6-5.8-5-5.5-5.3c0.2-0.3,4.5,3.5,6.1,5
			S-868.2-445.3-866.3-444.7z"/>
		<path id="Path_4546" class="st5" d="M-876.2-439.4c-1.8-0.2-4.1-0.6-5.6-1.8c-1.5-1.2-4.2-3.7-4-3.9c0.3-0.3,3.1,2.8,4.4,3.7
			C-879.8-440.5-878-439.8-876.2-439.4z"/>
		<path id="Path_4547" class="st0" d="M-850.2-461.4l-3.8-2.2l-0.4-0.2l-0.4-0.1l-0.4-0.1h-0.4h-0.4h-0.9h-0.4l-0.5,0.1l-0.6,0.1
			l-0.5,0.2l-0.5,0.2l-0.5,0.2l-0.5,0.2l-0.5,0.3l-0.5,0.3l-0.5,0.4l-0.5,0.4l-0.5,0.4l-0.5,0.4l-0.5,0.4l-0.5,0.5l-0.5,0.5
			l-0.4,0.4l-0.4,0.5l-0.4,0.5l-0.4,0.6l-0.4,0.6l-0.4,0.6l-0.4,0.6l-0.4,0.6l-0.4,0.6l-0.3,0.6l-0.3,0.6l-0.3,0.6l-0.1,0.6
			l-0.3,0.6l-0.2,0.6l-0.2,0.6l-0.2,0.6l-0.1,0.6l-0.2,0.6l-0.1,0.6l-0.1,0.6l-0.1,0.6l-0.1,0.6v1.2l0.1,0.6l0.1,0.6l0.1,0.5
			l0.1,0.5l0.2,0.5l0.2,0.5l0.2,0.4l0.2,0.4l0.2,0.4l0.3,0.4l0.3,0.3l0.3,0.3l0.3,0.3l0.3,0.3l1.4,0.8l2.4,1.4L-850.2-461.4
			L-850.2-461.4z M-850.7-461.6L-850.7-461.6L-850.7-461.6L-850.7-461.6z"/>
		<path id="Path_4548" class="st1" d="M-857-437.3c5.5-3.2,10-11,10-17.4s-4.5-9-10-5.8s-10,11-10,17.4
			C-867.1-436.7-862.6-434.1-857-437.3z"/>
		<path id="Path_4549" class="st5" d="M-886.6-442.6l-2.9-0.1c-0.4,0-0.9-0.2-1.2-0.5l-0.5-0.4c-0.4-0.3-0.6-0.8-0.6-1.3v-1.2
			l-0.3-0.1c-0.4-0.1-0.7-0.3-0.9-0.6l-0.8-1c-0.3-0.3-0.4-0.7-0.4-1.1l-0.1-0.8l-0.3-0.1c-0.4-0.2-0.8-0.4-1-0.8l-0.5-0.9
			c-0.3-0.5-0.5-1.2-0.5-1.8v-0.4c-1.2-0.5-1.9-1.7-1.9-3v-0.9l0.1-1.9c0.1-1,0.5-1.3,1.3-1.3c0.4-0.1,0.8,0,1.2,0.2l0.5,0.2
			c0.4,0.2,0.7,0.4,0.9,0.8c0.3,0.3,0.4,0.7,0.4,1.1v1.2l0.6,0.3l0.6,0.5c0.5,0.4,0.8,1,0.7,1.7l-0.1,1.7c0.3,0.2,0.5,0.3,0.8,0.5
			l0.6,0.5c0.5,0.5,0.8,1.1,0.8,1.8l-0.1,2.1c0.6,0,1.3,0.3,1.7,0.8c0.4,0.3,0.7,0.8,0.8,1.3l0.3,1.7L-886.6-442.6z"/>
		<path id="Path_4550" class="st6" d="M-897.9-459.6l1.3,1l-0.2,2.2c0,0.1-0.1,0.1-0.1,0.1s-0.2-0.1-0.2-0.2l-0.5-0.6
			c-0.2-0.2-0.4-0.4-0.3-0.6V-459.6z"/>
		<path id="Path_4551" class="st6" d="M-896.1-456.2l1.5,1v1.9c0,0.1,0,0.1-0.1,0.1c-0.1,0.1-0.1,0.1-0.1,0.1h-0.2
			c-0.3,0-0.6-0.1-0.7-0.4l-0.2-0.2c-0.2-0.2-0.2-0.4-0.3-0.7L-896.1-456.2z"/>
		<path id="Path_4552" class="st6" d="M-893.6-452.1l1.5,1.1v1.7c0,0.1,0,0.1-0.1,0.1c-0.1,0.1-0.1,0.1-0.1,0.1h-0.2
			c-0.3,0-0.6-0.1-0.7-0.4l-0.2-0.2c-0.1-0.1-0.2-0.3-0.2-0.5V-452.1z"/>
		<path id="Path_4553" class="st6" d="M-891.2-447.3l1.5,1.1l-0.1,1.5c0,0.1-0.1,0.1-0.2,0.2h-0.2c-0.3,0-0.6-0.1-0.7-0.4l0,0
			c-0.1-0.3-0.2-0.6-0.2-1L-891.2-447.3z"/>
		<path id="Path_4554" class="st7" d="M-893.9-457.3c-0.3,0.1-0.6,0.1-0.7,0.1c-0.5,0.1-1.1,0.3-1.4,0.7c-0.3,0.9-0.4,1.9-0.4,2.8
			C-896.5-456.1-897-457.4-893.9-457.3z"/>
		<path id="Path_4555" class="st6" d="M-887.8-466l1.2,0.2c0.1,0,0.2,0.1,0.3,0.2c0.4,0.6-1.8,2.7-2.2,3.2l-1.4-0.3
			c0.4-1.1,1.1-2.1,1.9-3C-888.1-465.9-888-466-887.8-466z"/>
		<path id="Path_4556" class="st7" d="M-892-453.1c-0.7,0-1.4,0.3-1.8,0.9c-0.2,0.8-0.3,1.7-0.3,2.6
			C-894.2-451.4-894.7-453.3-892-453.1z"/>
		<path id="Path_4557" class="st7" d="M-890-448.2c-1.6,0.1-1.6,0.8-1.7,2.2C-891.8-447.7-891.9-448.3-890-448.2z"/>
		<path id="Path_4558" class="st7" d="M-882.8-466.4c0.4,0.7,0.4,1.5-0.1,2.1c0.4-0.4,1-0.7,1.5-0.6
			C-882.1-465.1-882.4-465.9-882.8-466.4z"/>
		<path id="Path_4559" class="st7" d="M-875.1-465.2c-0.7,0.4-1.5,0.6-2.3,0.6c1.2,0.1,0.8,0.5,1,1.3
			C-876.5-464.4-875.7-464.6-875.1-465.2z"/>
	</g>
</g>
<g id="Group_2422" transform="translate(403 -743.814)">
	<g class="st8">
		<path class="st9" d="M-347.6,812.1h2.9l2.7,7.3h0l2.7-7.3h2.9v10.3h-1.8v-8.3h0l-3.1,8.3h-1.3l-3.1-8.3h0v8.3h-1.8V812.1z"/>
		<path class="st9" d="M-331.7,818l-3.9-5.9h2.2l2.6,4.4l2.6-4.4h2.1l-3.9,5.9v4.5h-1.8V818z"/>
	</g>
	<g class="st8">
		<path class="st9" d="M-400,830.7h8.6v2h-6.3v3.3h5.9v1.9h-5.9v3.7h6.6v2h-8.9V830.7z"/>
		<path class="st9" d="M-385.2,840.1h-4.4v-1.9h4.4V840.1z"/>
		<path class="st9" d="M-383,830.7h3.6l3.4,9.2h0.1l3.3-9.2h3.6v12.9h-2.3v-10.4h0l-3.9,10.4h-1.6l-3.9-10.4h0v10.4h-2.2V830.7z"/>
		<path class="st9" d="M-356,838.9c0,0.8-0.1,1.5-0.4,2.1c-0.3,0.6-0.6,1.2-1.1,1.6c-0.5,0.4-1,0.8-1.6,1c-0.6,0.2-1.3,0.4-2.1,0.4
			c-0.7,0-1.4-0.1-2.1-0.4c-0.6-0.2-1.2-0.6-1.7-1c-0.5-0.4-0.8-1-1.1-1.6c-0.3-0.6-0.4-1.3-0.4-2.1v-8.2h2.3v8.1
			c0,0.4,0,0.8,0.1,1.1c0.1,0.4,0.3,0.7,0.5,1c0.2,0.3,0.5,0.5,0.9,0.7s0.8,0.3,1.4,0.3c0.5,0,1-0.1,1.4-0.3s0.7-0.4,0.9-0.7
			c0.2-0.3,0.4-0.6,0.5-1c0.1-0.4,0.1-0.7,0.1-1.1v-8.1h2.3V838.9z M-364.2,828.3c0-0.3,0.1-0.6,0.4-0.9s0.6-0.4,0.9-0.4
			c0.4,0,0.7,0.1,0.9,0.4c0.3,0.2,0.4,0.5,0.4,0.9s-0.1,0.7-0.4,0.9c-0.3,0.2-0.6,0.4-0.9,0.4c-0.4,0-0.7-0.1-0.9-0.4
			S-364.2,828.6-364.2,828.3z M-360.6,828.3c0-0.3,0.1-0.6,0.4-0.9c0.2-0.3,0.6-0.4,0.9-0.4s0.7,0.1,0.9,0.4
			c0.3,0.2,0.4,0.5,0.4,0.9s-0.1,0.7-0.4,0.9c-0.3,0.2-0.6,0.4-0.9,0.4s-0.7-0.1-0.9-0.4C-360.5,828.9-360.6,828.6-360.6,828.3z"/>
		<path class="st9" d="M-350.6,832.7h-4v-2h10.2v2h-4v10.9h-2.3V832.7z"/>
		<path class="st9" d="M-339.9,830.7h2l5.6,12.9h-2.6l-1.2-3h-5.6l-1.2,3h-2.6L-339.9,830.7z M-337,838.7l-2-5.3l-2,5.3H-337z"/>
		<path class="st9" d="M-331.1,830.7h5c0.5,0,1,0.1,1.4,0.2c0.5,0.1,0.9,0.3,1.3,0.6s0.7,0.6,0.9,1c0.2,0.4,0.3,0.9,0.3,1.5
			c0,0.7-0.2,1.3-0.6,1.8c-0.4,0.5-1,0.8-1.6,1v0c0.8,0.1,1.5,0.4,2,0.9c0.5,0.5,0.8,1.2,0.8,2.1c0,0.7-0.1,1.3-0.4,1.8
			s-0.6,0.9-1.1,1.2c-0.5,0.3-1,0.5-1.6,0.6s-1.2,0.2-1.8,0.2h-4.7V830.7z M-328.8,836h2c0.8,0,1.4-0.2,1.8-0.5
			c0.4-0.3,0.6-0.7,0.6-1.3c0-0.6-0.2-1-0.6-1.2c-0.4-0.2-1.1-0.4-1.9-0.4h-1.8V836z M-328.8,841.7h2.1c0.3,0,0.6,0,0.9-0.1
			c0.3,0,0.7-0.1,0.9-0.3c0.3-0.1,0.5-0.3,0.7-0.6c0.2-0.3,0.3-0.6,0.3-1c0-0.7-0.2-1.2-0.7-1.4c-0.5-0.3-1.2-0.4-2.1-0.4h-2.2
			V841.7z"/>
		<path class="st9" d="M-315.2,830.7h2l5.6,12.9h-2.6l-1.2-3h-5.6l-1.2,3h-2.6L-315.2,830.7z M-312.3,838.7l-2-5.3l-2,5.3H-312.3z"
			/>
		<path class="st9" d="M-306.4,830.7h2.3v5.6h0.1l5.4-5.6h3.1l-6,6l6.4,7h-3.2l-5.7-6.5h-0.1v6.5h-2.3V830.7z"/>
		<path class="st9" d="M-290,830.7h2l5.6,12.9h-2.6l-1.2-3h-5.6l-1.2,3h-2.6L-290,830.7z M-287,838.7l-2-5.3l-2,5.3H-287z"/>
		<path class="st9" d="M-279.6,832.7h-4v-2h10.2v2h-4v10.9h-2.3V832.7z"/>
	</g>
</g>
</svg>
