<?xml version="1.0" encoding="utf-8"?>
<!-- Generator: Adobe Illustrator 22.1.0, SVG Export Plug-In . SVG Version: 6.00 Build 0)  -->
<svg version="1.1" id="Layer_1" xmlns="http://www.w3.org/2000/svg" xmlns:xlink="http://www.w3.org/1999/xlink" x="0px" y="0px"
	 viewBox="0 0 100 100" style="enable-background:new 0 0 100 100;" xml:space="preserve">
<style type="text/css">
	.st0{opacity:3.000000e-03;fill:#040507;enable-background:new    ;}
	.st1{opacity:7.000000e-03;fill:#080A0D;enable-background:new    ;}
	.st2{opacity:1.000000e-02;fill:#0B0E14;enable-background:new    ;}
	.st3{opacity:1.300000e-02;fill:#0F131B;enable-background:new    ;}
	.st4{opacity:1.700000e-02;fill:#131822;enable-background:new    ;}
	.st5{opacity:2.000000e-02;fill:#171D29;enable-background:new    ;}
	.st6{opacity:2.300000e-02;fill:#1B2230;enable-background:new    ;}
	.st7{opacity:2.700000e-02;fill:#1F2737;enable-background:new    ;}
	.st8{opacity:3.000000e-02;fill:#232C3F;enable-background:new    ;}
	.st9{opacity:3.300000e-02;fill:#273246;enable-background:new    ;}
	.st10{opacity:3.700000e-02;fill:#2B374D;enable-background:new    ;}
	.st11{opacity:4.000000e-02;fill:#2F3C54;enable-background:new    ;}
	.st12{opacity:4.300000e-02;fill:#34415C;enable-background:new    ;}
	.st13{opacity:4.700000e-02;fill:#384763;enable-background:new    ;}
	.st14{fill:#7B8C91;}
	.st15{fill:#E6EAEB;}
	.st16{fill:#E8B02C;}
	.st17{fill:#D49D1E;}
	.st18{fill:#FAC13C;}
	.st19{fill:#475357;}
	.st20{fill:#A0ADB0;}
	.st21{fill:#30383B;}
	.st22{fill:#0D8FB3;}
	.st23{fill:#067796;}
	.st24{fill:#0D99BF;}
	.st25{fill:#BFC7C9;}
</style>
<g id="Group_2691" transform="translate(-597.49 -275.265)">
	<g id="Group_2499">
		<g id="Group_2498" transform="translate(597.48 275.265)">
			<g id="Group_2493" transform="translate(0.01 58.313)">
				<path id="Path_4996" class="st0" d="M74.1,3.1c13.3,7.7,13.3,20.1,0,27.8s-34.8,7.7-48.1,0S12.7,10.7,26,3.1S60.8-4.6,74.1,3.1z
					"/>
				<path id="Path_4997" class="st1" d="M72.5,4c12.4,7.2,12.4,18.8,0,25.9s-32.5,7.2-44.9,0S15.2,11.2,27.6,4S60.1-3.2,72.5,4z"/>
				<path id="Path_4998" class="st2" d="M70.9,4.9c11.5,6.6,11.5,17.4,0,24.1s-30.2,6.6-41.7,0s-11.5-17.4,0-24.1S59.4-1.7,70.9,4.9
					z"/>
				<path id="Path_4999" class="st3" d="M69.3,5.9c10.6,6.1,10.6,16.1,0,22.2s-27.8,6.1-38.5,0S20.2,12,30.8,5.9S58.6-0.3,69.3,5.9z
					"/>
				<path id="Path_5000" class="st4" d="M67.7,6.8c9.7,5.6,9.7,14.7,0,20.4s-25.5,5.6-35.2,0s-9.7-14.7,0-20.4S57.9,1.2,67.7,6.8z"
					/>
				<path id="Path_5001" class="st5" d="M66,7.7c8.8,5.1,8.8,13.4,0,18.5s-23.2,5.1-32,0s-8.8-13.4,0-18.5S57.2,2.6,66,7.7z"/>
				<path id="Path_5002" class="st6" d="M64.4,8.7c7.9,4.6,7.9,12,0,16.6s-20.8,4.6-28.8,0s-7.9-12,0-16.6S56.5,4.1,64.4,8.7z"/>
				<path id="Path_5003" class="st7" d="M62.8,9.6c7.1,4.1,7.1,10.7,0,14.8s-18.5,4.1-25.6,0s-7.1-10.7,0-14.8S55.8,5.5,62.8,9.6z"
					/>
				<path id="Path_5004" class="st8" d="M61.2,10.5c6.2,3.6,6.2,9.3,0,12.9S45,27,38.9,23.4s-6.2-9.3,0-12.9S55,7,61.2,10.5z"/>
				<path id="Path_5005" class="st9" d="M59.6,11.5c5.3,3,5.3,8,0,11s-13.8,3-19.1,0s-5.3-8,0-11S54.3,8.4,59.6,11.5z"/>
				<path id="Path_5006" class="st10" d="M58,12.4c4.4,2.5,4.4,6.6,0,9.2s-11.5,2.5-15.9,0s-4.4-6.6,0-9.2S53.6,9.8,58,12.4z"/>
				<path id="Path_5007" class="st11" d="M56.4,13.3c3.5,2,3.5,5.3,0,7.3c-4,2-8.7,2-12.7,0c-3.5-2-3.5-5.3,0-7.3
					C47.7,11.3,52.4,11.3,56.4,13.3z"/>
				<path id="Path_5008" class="st12" d="M54.8,14.2c2.6,1.5,2.6,3.9,0,5.4c-3,1.5-6.5,1.5-9.4,0c-2.6-1.5-2.6-3.9,0-5.4
					C48.3,12.7,51.8,12.7,54.8,14.2z"/>
				<path id="Path_5009" class="st13" d="M53.1,15.2c1.7,1,1.7,2.6,0,3.6c-2,1-4.3,1-6.2,0c-1.7-1-1.7-2.6,0-3.6
					C48.9,14.2,51.2,14.2,53.1,15.2z"/>
			</g>
			<g id="Group_2497" transform="translate(9.262)">
				<path id="Path_5010" class="st14" d="M66.2,44.8l-26-15h-0.1H40h-0.1h-0.1h-0.1h-0.1l-0.1,0.1L39.4,30L16,43.3l-0.1,0.1
					l-0.1,0.1l-0.1,0.1l-0.1,0.1l-0.1,0.1L15.3,44l-0.1,0.1l-0.1,0.1l26,15l0.1-0.1l0.1-0.1l0.1-0.1l0.1-0.1l0.1-0.1l0.1-0.1
					l0.1-0.1l0.1-0.1L65.2,45l0.1-0.1l0.1-0.1h0.1h0.1h0.1h0.1L66.2,44.8L66.2,44.8z"/>
				<path id="Path_5011" class="st15" d="M66.6,45.6c0.1-0.4-0.2-0.8-0.6-0.9c-0.2,0-0.5,0-0.7,0.2L42,58.3
					c-0.4,0.2-0.7,0.6-0.9,0.9l0,0c-0.2,0.4-0.4,0.8-0.4,1.2v8c-0.1,0.4,0.2,0.8,0.6,0.9c0.2,0,0.5,0,0.7-0.2l23.3-13.4
					c0.4-0.2,0.7-0.6,0.9-0.9l0,0c0.2-0.4,0.4-0.8,0.4-1.2C66.6,53.6,66.6,45.6,66.6,45.6z"/>
				<g id="Group_2494" transform="translate(55.507 50.858)">
					<path id="Path_5012" class="st16" d="M10-1.5L9.6-1.7L7.4-0.4l0.4,0.2L10-1.5z"/>
					<path id="Path_5013" class="st17" d="M7.7-0.2L7.3-0.4v2.6l0.4,0.2V-0.2z"/>
					<path id="Path_5014" class="st18" d="M7.7,2.4L10,1.1v-2.6L7.8-0.2v2.6C7.8,2.4,7.7,2.4,7.7,2.4z"/>
				</g>
				<path id="Path_5015" class="st19" d="M43.3,63.4c-0.2,0.1-0.3,0-0.3-0.2s0.1-0.4,0.3-0.5L56.7,55c0.2-0.1,0.3,0,0.3,0.2
					s-0.1,0.4-0.3,0.5L43.3,63.4z"/>
				<path id="Path_5016" class="st20" d="M41.1,59.3l-26-15l0,0L15,44.5v0.1l-0.1,0.2L14.8,45v0.2v0.2v0.2v0.2v8v0.1V54v0.1v0.1
					l0.1,0.1l0.1,0.1l0.1,0.1l0.1,0.1l26,15l-0.1-0.1L41,69.2l-0.1-0.1V69v-0.1v-0.1v-0.1v-0.1v-8v-0.2v-0.2V60v-0.2l0.1-0.2
					L41.1,59.3l0.1-0.1L41.1,59.3z"/>
				<path id="Path_5017" class="st21" d="M56.1,55.3l0.6-0.4c0.2-0.1,0.3,0,0.3,0.2s-0.1,0.4-0.3,0.5l0,0L56.1,55.3z"/>
				<path id="Path_5018" class="st22" d="M62.3,51.2L61.9,51l-2.2,1.3l0.4,0.2L62.3,51.2z"/>
				<path id="Path_5019" class="st23" d="M60,52.5l-0.4-0.2v2.6l0.4,0.2V52.5z"/>
				<path id="Path_5020" class="st24" d="M60,55.1l2.2-1.3v-2.6L60,52.5V55.1z"/>
				<path id="Path_5021" class="st14" d="M66.2,32.6l-26-15h-0.1H40h-0.1h-0.1h-0.1h-0.1l-0.1,0.1l-0.1,0.1L16,31.1l-0.1,0.1
					l-0.1,0.1l-0.1,0.1l-0.1,0.1l-0.1,0.1l-0.1,0.1l-0.1,0.1l-0.1,0.1l26,15l0.1-0.1l0.1-0.1l0.1-0.1l0.1-0.1l0.1-0.1l0.1-0.1
					l0.1-0.1l0.1-0.1l23.3-13.4l0.1-0.1l0.1-0.1h0.1h0.1h0.1h0.1L66.2,32.6L66.2,32.6z"/>
				<path id="Path_5022" class="st15" d="M66.6,33.4c0.1-0.4-0.2-0.8-0.6-0.9c-0.2,0-0.5,0-0.7,0.2L42,46.1
					c-0.4,0.2-0.7,0.6-0.9,0.9l0,0c-0.2,0.4-0.4,0.8-0.4,1.2v8c-0.1,0.4,0.2,0.8,0.6,0.9c0.2,0,0.5,0,0.7-0.2l23.3-13.4
					c0.4-0.2,0.7-0.6,0.9-0.9l0,0c0.2-0.4,0.4-0.8,0.4-1.2C66.6,41.4,66.6,33.4,66.6,33.4z"/>
				<g id="Group_2495" transform="translate(55.507 36.771)">
					<path id="Path_5023" class="st16" d="M10,0.4L9.6,0.2L7.4,1.5l0.4,0.2L10,0.4z"/>
					<path id="Path_5024" class="st17" d="M7.7,1.7L7.3,1.5v2.6l0.4,0.2V1.7z"/>
					<path id="Path_5025" class="st18" d="M7.7,4.3L10,3V0.4L7.8,1.7v2.6H7.7z"/>
				</g>
				<path id="Path_5026" class="st19" d="M43.3,51.2c-0.2,0.1-0.3,0-0.3-0.2s0.1-0.4,0.3-0.5l13.4-7.7c0.2-0.1,0.3,0,0.3,0.2
					s-0.1,0.4-0.3,0.5L43.3,51.2z"/>
				<path id="Path_5027" class="st20" d="M41.1,47.1l-26-15l0,0L15,32.3v0.1l-0.1,0.2l-0.1,0.2V33v0.2v0.2v0.2v8v0.1v0.1v0.1V42
					l0.1,0.1l0.1,0.1l0.1,0.1l0.1,0.1l26,15L41.1,57L41,56.9l-0.1-0.1l-0.1-0.1v-0.1v-0.1v-0.1v-0.1v-7.9v-0.2V48v-0.2v-0.2l0.1-0.2
					l0.1-0.2L41.1,47.1L41.1,47.1z"/>
				<path id="Path_5028" class="st21" d="M56.1,43.1l0.6-0.4c0.2-0.1,0.3,0,0.3,0.2s-0.1,0.4-0.3,0.5l0,0L56.1,43.1z"/>
				<path id="Path_5029" class="st22" d="M62.3,39l-0.4-0.2l-2.2,1.3l0.4,0.2L62.3,39z"/>
				<path id="Path_5030" class="st23" d="M60,40.3l-0.4-0.2v2.6l0.4,0.2V40.3z"/>
				<path id="Path_5031" class="st24" d="M60,42.9l2.2-1.3V39L60,40.3V42.9z"/>
				<path id="Path_5032" class="st25" d="M66.2,20.1l-26-15h-0.1H40h-0.1h-0.1h-0.1h-0.1l-0.1,0.1l-0.1,0.1L16,18.7l-0.1,0.1
					l-0.1,0.1L15.7,19l-0.1,0.1l-0.1,0.1l-0.1,0.1l-0.1,0.1l-0.1,0.1l26,15l0.1-0.1l0.1-0.1l0.1-0.1l0.1-0.1l0.1-0.1l0.1-0.1
					l0.1-0.1l0.1-0.1l23.3-13.4l0.1-0.1l0.1-0.1h0.1h0.1h0.1h0.1L66.2,20.1L66.2,20.1z"/>
				<path id="Path_5033" class="st15" d="M66.6,21c0.1-0.4-0.2-0.8-0.6-0.9c-0.2,0-0.5,0-0.7,0.2L42,33.7c-0.4,0.2-0.7,0.6-0.9,0.9
					l0,0c-0.2,0.4-0.4,0.8-0.4,1.2v8c-0.1,0.4,0.2,0.8,0.6,0.9c0.2,0,0.5,0,0.7-0.2l23.3-13.4c0.4-0.2,0.7-0.6,0.9-0.9l0,0
					c0.2-0.4,0.4-0.8,0.4-1.2C66.6,29,66.6,21,66.6,21z"/>
				<g id="Group_2496" transform="translate(55.507 22.402)">
					<path id="Path_5034" class="st16" d="M10,2.3L9.6,2.1L7.4,3.4l0.4,0.2L10,2.3z"/>
					<path id="Path_5035" class="st17" d="M7.7,3.6L7.3,3.4V6l0.4,0.2V3.6z"/>
					<path id="Path_5036" class="st18" d="M7.7,6.2L10,4.9V2.3L7.8,3.6v2.6H7.7z"/>
				</g>
				<path id="Path_5037" class="st19" d="M43.3,38.7c-0.2,0.1-0.3,0-0.3-0.2s0.1-0.4,0.3-0.5l13.4-7.7c0.2-0.1,0.3,0,0.3,0.2
					s-0.1,0.4-0.3,0.5L43.3,38.7z"/>
				<path id="Path_5038" class="st20" d="M41.1,34.6l-26-15l0,0L15,19.8v0.1l-0.1,0.2l-0.1,0.2v0.2v0.2v0.2v0.2v8v0.1v0.1v0.1v0.1
					l0.1,0.1l0.1,0.1l0.1,0.1l0.1,0.1l26,15l-0.1-0.1L41,44.5l-0.1-0.1l-0.1-0.1v-0.1v-0.1V44v-0.1V36v-0.2v-0.2v-0.2v-0.2l0.1-0.2
					l0.1-0.2L41.1,34.6L41.1,34.6z"/>
				<path id="Path_5039" class="st21" d="M56.1,30.6l0.6-0.4c0.2-0.1,0.3,0,0.3,0.2s-0.1,0.4-0.3,0.5l0,0L56.1,30.6z"/>
				<path id="Path_5040" class="st22" d="M62.3,26.6l-0.4-0.2l-2.2,1.3l0.4,0.2L62.3,26.6z"/>
				<path id="Path_5041" class="st23" d="M60,27.9l-0.4-0.2v2.6l0.4,0.2V27.9z"/>
				<path id="Path_5042" class="st24" d="M60,30.5l2.2-1.3v-2.6L60,27.9V30.5z"/>
			</g>
		</g>
	</g>
</g>
</svg>
