<?xml version="1.0" encoding="utf-8"?>
<!-- Generator: Adobe Illustrator 22.1.0, SVG Export Plug-In . SVG Version: 6.00 Build 0)  -->
<svg version="1.1" id="Layer_1" xmlns="http://www.w3.org/2000/svg" xmlns:xlink="http://www.w3.org/1999/xlink" x="0px" y="0px"
	 viewBox="0 0 188.9 94.2" style="enable-background:new 0 0 188.9 94.2;" xml:space="preserve">
<style type="text/css">
	.st0{opacity:3.000000e-03;fill:#040507;enable-background:new    ;}
	.st1{opacity:7.000000e-03;fill:#080A0D;enable-background:new    ;}
	.st2{opacity:1.000000e-02;fill:#0B0E14;enable-background:new    ;}
	.st3{opacity:1.300000e-02;fill:#0F131B;enable-background:new    ;}
	.st4{opacity:1.700000e-02;fill:#131822;enable-background:new    ;}
	.st5{opacity:2.000000e-02;fill:#171D29;enable-background:new    ;}
	.st6{opacity:2.300000e-02;fill:#1B2230;enable-background:new    ;}
	.st7{opacity:2.700000e-02;fill:#1F2737;enable-background:new    ;}
	.st8{opacity:3.000000e-02;fill:#232C3F;enable-background:new    ;}
	.st9{opacity:3.300000e-02;fill:#273246;enable-background:new    ;}
	.st10{opacity:3.700000e-02;fill:#2B374D;enable-background:new    ;}
	.st11{opacity:4.000000e-02;fill:#2F3C54;enable-background:new    ;}
	.st12{opacity:4.300000e-02;fill:#34415C;enable-background:new    ;}
	.st13{opacity:4.700000e-02;fill:#384763;enable-background:new    ;}
	.st14{fill:#9C9C9C;}
	.st15{fill:#E6EAEB;}
	.st16{fill:#30383B;}
	.st17{fill:#D44F3E;}
	.st18{fill:#F25E4B;}
	.st19{fill:#F0B11D;}
	.st20{fill:#FAC13C;}
	.st21{enable-background:new    ;}
	.st22{fill:#1F1E1E;}
</style>
<g id="Group_2690" transform="translate(-216.1 -581)">
	<g id="Group_2404" transform="translate(216.15 581)">
		<g id="Group_2401" transform="translate(-0.05 53.791)">
			<path id="Path_4560" class="st0" d="M64.4,4.1c11.6,6.7,11.6,17.7,0,24.4s-30.6,6.7-42.3,0c-11.6-6.7-11.6-17.7,0-24.4
				C33.8-2.7,52.7-2.7,64.4,4.1z"/>
			<path id="Path_4561" class="st1" d="M62.9,4.9c10.8,6.3,10.8,16.5,0,22.7s-28.5,6.2-39.4,0c-10.8-6.3-10.8-16.5,0-22.7
				S52.1-1.4,62.9,4.9z"/>
			<ellipse id="Ellipse_52" class="st2" cx="43.3" cy="16.3" rx="25.8" ry="14.9"/>
			<path id="Path_4562" class="st3" d="M60.1,6.5c9.3,5.4,9.3,14.1,0,19.5s-24.4,5.4-33.7,0s-9.3-14.1,0-19.5S50.8,1.2,60.1,6.5z"/>
			<path id="Path_4563" class="st4" d="M58.7,7.3c8.5,4.9,8.5,13,0,17.8s-22.4,4.9-30.9,0s-8.5-13,0-17.8
				C36.4,2.4,50.2,2.4,58.7,7.3z"/>
			<path id="Path_4564" class="st5" d="M57.3,8.2c7.8,4.4,7.8,11.7,0,16.2s-20.3,4.4-28.1,0s-7.8-11.7,0-16.2S49.5,3.7,57.3,8.2z"/>
			<path id="Path_4565" class="st6" d="M55.9,9c7,4,7,10.5,0,14.6s-18.3,4-25.3,0s-7-10.5,0-14.6S48.9,4.9,55.9,9z"/>
			<path id="Path_4566" class="st7" d="M54.5,9.8c6.2,3.6,6.2,9.4,0,13s-16.2,3.6-22.4,0s-6.2-9.4,0-13C38.2,6.2,48.3,6.2,54.5,9.8z
				"/>
			<path id="Path_4567" class="st8" d="M53,10.6c5.4,3.2,5.4,8.2,0,11.3c-5.4,3.2-14.2,3.2-19.6,0s-5.4-8.2,0-11.3S47.6,7.5,53,10.6
				z"/>
			<path id="Path_4568" class="st9" d="M51.7,11.4c4.6,2.7,4.6,7,0,9.6c-4.6,2.7-12.1,2.7-16.7,0s-4.6-7,0-9.6S47,8.8,51.7,11.4z"/>
			<path id="Path_4569" class="st10" d="M50.2,12.3c3.8,2.2,3.8,5.8,0,8s-10.1,2.2-13.9,0s-3.8-5.8,0-8S46.4,10,50.2,12.3z"/>
			<path id="Path_4570" class="st11" d="M48.8,13c3.1,1.8,3.1,4.6,0,6.4c-3.5,1.8-7.6,1.8-11.1,0c-3.1-1.8-3.1-4.6,0-6.4
				C41.2,11.3,45.3,11.3,48.8,13z"/>
			<path id="Path_4571" class="st12" d="M47.4,13.9c2.2,1.3,2.2,3.5,0,4.8c-2.6,1.3-5.6,1.3-8.3,0c-2.2-1.3-2.2-3.5,0-4.8
				C41.7,12.5,44.8,12.5,47.4,13.9z"/>
			<path id="Path_4572" class="st13" d="M46,14.7c1.5,0.9,1.5,2.2,0,3.2c-1.7,0.9-3.8,0.9-5.5,0c-1.5-0.9-1.5-2.2,0-3.2
				C42.3,13.8,44.3,13.8,46,14.7z"/>
		</g>
		<g id="Group_2403" transform="translate(8.258)">
			<path id="Path_4573" class="st14" d="M12.2,64.5v0.3l0.1,0.2l0.1,0.2l0.1,0.2l0.1,0.2l0.1,0.2l0.2,0.1l0.2,0.1l1.7,0.9l-0.2-0.1
				h-0.3l-0.1-0.2l-0.1-0.2L14,66.1L13.9,66v-0.3V34.5l0.1-0.3l0.1-0.3l0.1-0.3l0.1-0.3l0.1-0.3l0.2-0.3c0.1-0.2,0.2-0.3,0.3-0.5
				l0.2-0.3l0.2-0.3l0.2-0.2l0.2-0.2l0.2-0.3l0.2-0.2l0.3-0.2L55.6,8.2l0.3-0.1L56.1,8l0.2-0.1l0.2-0.1h0.4L57,7.9L57.2,8l-1.7-0.9
				L55.3,7l-0.2-0.1h-0.4L54.5,7l-0.2,0.1l-0.2,0.1l-0.3,0.1L14.3,30L14,30.2l-0.2,0.1l-0.2,0.2l-0.2,0.2L13.2,31L13,31.3l0,0.1
				c-0.1,0.2-0.2,0.3-0.3,0.5l-0.2,0.3l-0.2,0.3l-0.1,0.3l0.1,0.2l-0.1,0.3v0.3V64.5z"/>
			<path id="Path_4574" class="st15" d="M55.7,43.9c0.6-0.4,1.1-0.9,1.5-1.5l0,0c0.3-0.7,0.6-1.4,0.6-2.1V9.5
				c0.1-0.5-0.2-1.1-0.6-1.4c-0.5-0.3-1-0.2-1.5,0.2L15.9,31.1c-0.6,0.4-1.1,0.9-1.5,1.6l0,0c-0.3,0.6-0.6,1.3-0.6,2v30.8
				c-0.1,0.5,0.2,1.1,0.6,1.4c0.5,0.3,1,0.2,1.5-0.2L55.7,43.9z"/>
			<path id="Path_4575" class="st16" d="M21.6,54.2c-0.3,0.2-0.5,0.1-0.5-0.3s0.3-0.7,0.5-0.9l14.2-8.2c0.3-0.2,0.5-0.1,0.5,0.3
				S36,45.7,35.8,46L21.6,54.2z M35.8,39.8L21.6,48c-0.3,0.2-0.5,0.5-0.5,0.9c0,0.3,0.3,0.5,0.5,0.3L35.8,41
				c0.3-0.2,0.5-0.5,0.5-0.9C36.4,39.8,36.1,39.7,35.8,39.8z M21.6,36.9c-0.3,0.2-0.5,0.1-0.5-0.3s0.3-0.7,0.5-0.9l28.3-16.4
				c0.3-0.2,0.5-0.1,0.5,0.3s-0.3,0.7-0.5,0.9L21.6,36.9z"/>
			<g id="Group_2402" transform="translate(31.43 39.09)">
				<path id="Path_4576" class="st17" d="M8.8,13.6l-0.3-0.2l0,0v0.1l0,0v0.1l0.3,0.2V13.6L8.8,13.6L8.8,13.6z"/>
				<path id="Path_4577" class="st17" d="M8.8,13.6l-0.3-0.2l-0.9,2.1l0.3,0.2L8.8,13.6z"/>
				<path id="Path_4578" class="st17" d="M10.8,13.7l-0.3-0.2l0.1,0.1v0.1l0.3,0.2L10.8,13.7L10.8,13.7z"/>
				<path id="Path_4579" class="st17" d="M10.8,13.9l-0.3-0.2l0.8,2.2l0.3,0.2L10.8,13.9z"/>
				<path id="Path_4580" class="st17" d="M15,7.4l-0.3-0.3l0,0L15,7.4z"/>
				<path id="Path_4581" class="st17" d="M15,7.4l-0.3-0.3h-0.1L15,7.4L15,7.4z"/>
				<path id="Path_4582" class="st17" d="M14.9,7.4l-0.3-0.3v0.1L14.9,7.4L14.9,7.4z"/>
				<path id="Path_4583" class="st17" d="M14.9,7.4l-0.3-0.2l0,0L14.9,7.4z"/>
				<path id="Path_4584" class="st17" d="M14.9,7.4l-0.3-0.2l0,0L14.9,7.4L14.9,7.4z"/>
				<path id="Path_4585" class="st17" d="M14.8,7.4l-0.3-0.2h-0.1L14.8,7.4z"/>
				<path id="Path_4586" class="st17" d="M14.8,7.4l-0.3-0.2l0,0L14.8,7.4L14.8,7.4z"/>
				<path id="Path_4587" class="st17" d="M14.8,7.4l-0.3-0.2l0,0L14.8,7.4z"/>
				<path id="Path_4588" class="st17" d="M14.8,7.4l-0.3-0.2l-0.1,0.1L14.8,7.4L14.8,7.4z"/>
				<path id="Path_4589" class="st17" d="M14.8,7.5l-0.3-0.2l0,0L14.8,7.5z"/>
				<path id="Path_4590" class="st17" d="M14.8,7.5l-0.3-0.2h-0.1L14.8,7.5L14.8,7.5z"/>
				<path id="Path_4591" class="st17" d="M14.7,7.5l-0.3-0.2l0,0L14.7,7.5z"/>
				<path id="Path_4592" class="st17" d="M14.7,7.5l-0.3-0.2l0,0L14.7,7.5L14.7,7.5z"/>
				<path id="Path_4593" class="st17" d="M14.7,7.5l-0.3-0.2l0,0L14.7,7.5z"/>
				<path id="Path_4594" class="st17" d="M14.7,7.5l-0.3-0.2h-0.1L14.7,7.5L14.7,7.5z"/>
				<path id="Path_4595" class="st17" d="M14.6,7.5l-0.3-0.2v0.1L14.6,7.5L14.6,7.5z"/>
				<path id="Path_4596" class="st17" d="M14.6,7.5l-0.3-0.2h-0.1L14.6,7.5C14.5,7.5,14.6,7.5,14.6,7.5z"/>
				<path id="Path_4597" class="st17" d="M14.5,7.5l-0.3-0.2l0,0L14.5,7.5L14.5,7.5z"/>
				<path id="Path_4598" class="st17" d="M14.5,7.5l-0.3-0.2l0,0L14.5,7.5z"/>
				<path id="Path_4599" class="st17" d="M14.5,7.5l-0.3-0.2h-0.1L14.5,7.5L14.5,7.5z"/>
				<path id="Path_4600" class="st17" d="M14.4,7.5l-0.3-0.2l0,0L14.4,7.5z"/>
				<path id="Path_4601" class="st17" d="M14.4,7.5l-0.3-0.2v0.1L14.4,7.5L14.4,7.5z"/>
				<path id="Path_4602" class="st17" d="M14.3,7.5L14,7.4l0,0L14.3,7.5L14.3,7.5z"/>
				<path id="Path_4603" class="st17" d="M14.3,7.6L14,7.4l0,0L14.3,7.6L14.3,7.6z"/>
				<path id="Path_4604" class="st17" d="M14.3,7.6L14,7.4l0,0L14.3,7.6z"/>
				<path id="Path_4605" class="st17" d="M14.3,7.6L14,7.4h-0.1L14.3,7.6L14.3,7.6z"/>
				<path id="Path_4606" class="st17" d="M14.3,7.6L14,7.4l0,0L14.3,7.6L14.3,7.6z"/>
				<path id="Path_4607" class="st17" d="M14.3,7.6L14,7.4l0,0L14.3,7.6z"/>
				<path id="Path_4608" class="st17" d="M14.3,7.6L14,7.4l0,0L14.3,7.6L14.3,7.6z"/>
				<path id="Path_4609" class="st17" d="M14.2,7.6l-0.3-0.2h-0.1L14.2,7.6z"/>
				<path id="Path_4610" class="st17" d="M14.2,7.6l-0.3-0.2l0,0L14.2,7.6L14.2,7.6z"/>
				<path id="Path_4611" class="st17" d="M14.2,7.6l-0.3-0.2h-0.1L14.2,7.6L14.2,7.6z"/>
				<path id="Path_4612" class="st17" d="M14.1,7.6l-0.3-0.2l0,0L14.1,7.6z"/>
				<path id="Path_4613" class="st17" d="M14.1,7.6l-0.3-0.2l0,0L14.1,7.6L14.1,7.6z"/>
				<path id="Path_4614" class="st17" d="M14,7.6l-0.3-0.2l0,0L14,7.6z"/>
				<path id="Path_4615" class="st17" d="M14,7.6l-0.3-0.2h-0.1L14,7.6L14,7.6z"/>
				<path id="Path_4616" class="st17" d="M14,7.6l-0.3-0.2v0.1L14,7.6z"/>
				<path id="Path_4617" class="st17" d="M14,7.6l-0.3-0.2h-0.1L14,7.6L14,7.6z"/>
				<path id="Path_4618" class="st17" d="M13.9,7.6l-0.3-0.2l0,0L13.9,7.6L13.9,7.6z"/>
				<path id="Path_4619" class="st17" d="M13.9,7.6l-0.3-0.2l0,0L13.9,7.6z"/>
				<path id="Path_4620" class="st17" d="M13.9,7.6l-0.3-0.2h-0.1L13.9,7.6L13.9,7.6z"/>
				<path id="Path_4621" class="st17" d="M13.8,7.6l-0.3-0.2l0,0L13.8,7.6z"/>
				<path id="Path_4622" class="st17" d="M13.8,7.6l-0.3-0.2l0,0L13.8,7.6L13.8,7.6z"/>
				<path id="Path_4623" class="st17" d="M13.8,7.6l-0.3-0.2l0,0L13.8,7.6z"/>
				<path id="Path_4624" class="st17" d="M13.8,7.6l-0.3-0.2l0,0L13.8,7.6z"/>
				<path id="Path_4625" class="st17" d="M13.8,7.6l-0.3-0.2h-0.1L13.8,7.6L13.8,7.6z"/>
				<path id="Path_4626" class="st17" d="M13.7,7.6l-0.3-0.2l0,0L13.7,7.6z"/>
				<path id="Path_4627" class="st17" d="M13.7,7.6l-0.3-0.2l0,0L13.7,7.6L13.7,7.6z"/>
				<path id="Path_4628" class="st17" d="M13.7,7.6l-0.3-0.2l0,0L13.7,7.6z"/>
				<path id="Path_4629" class="st17" d="M13.7,7.6l-0.3-0.2l0,0L13.7,7.6L13.7,7.6z"/>
				<path id="Path_4630" class="st17" d="M13.7,7.6l-0.3-0.2h-0.1L13.7,7.6z"/>
				<path id="Path_4631" class="st17" d="M13.7,7.6l-0.3-0.2l0,0L13.7,7.6L13.7,7.6z"/>
				<path id="Path_4632" class="st17" d="M13.6,7.6l-0.3-0.2h-0.1L13.6,7.6z"/>
				<path id="Path_4633" class="st17" d="M13.6,7.6l-0.3-0.2l0,0L13.6,7.6L13.6,7.6z"/>
				<path id="Path_4634" class="st17" d="M13.6,7.6l-0.3-0.2l0,0L13.6,7.6z"/>
				<path id="Path_4635" class="st17" d="M13.6,7.6l-0.3-0.2l0,0L13.6,7.6z"/>
				<path id="Path_4636" class="st17" d="M13.6,7.6l-0.3-0.2h-0.1L13.6,7.6L13.6,7.6z"/>
				<path id="Path_4637" class="st17" d="M13.5,7.6l-0.3-0.2l0,0L13.5,7.6z"/>
				<path id="Path_4638" class="st17" d="M13.5,7.6l-0.3-0.2l0,0L13.5,7.6L13.5,7.6z"/>
				<path id="Path_4639" class="st17" d="M13.5,7.6l-0.3-0.2l0,0L13.5,7.6z"/>
				<path id="Path_4640" class="st17" d="M13.5,7.6l-0.3-0.2l0,0L13.5,7.6z"/>
				<path id="Path_4641" class="st17" d="M13.5,7.6l-0.3-0.2h-0.1L13.5,7.6L13.5,7.6z"/>
				<path id="Path_4642" class="st17" d="M13.4,7.6l-0.3-0.2l0,0L13.4,7.6L13.4,7.6z"/>
				<path id="Path_4643" class="st17" d="M13.4,7.6l-0.3-0.2l0,0L13.4,7.6z"/>
				<path id="Path_4644" class="st17" d="M13.4,7.6l-0.3-0.2L13,7.3L13.4,7.6L13.4,7.6z"/>
				<path id="Path_4645" class="st17" d="M13.3,7.5L13,7.3l0,0L13.3,7.5z"/>
				<path id="Path_4646" class="st17" d="M13.3,7.5L13,7.3l0,0L13.3,7.5L13.3,7.5z"/>
				<path id="Path_4647" class="st17" d="M13.2,7.5L13,7.3l0,0L13.2,7.5z"/>
				<path id="Path_4648" class="st17" d="M13.2,7.5L13,7.3l0,0L13.2,7.5z"/>
				<path id="Path_4649" class="st17" d="M13.2,7.5L13,7.3h-0.1L13.2,7.5L13.2,7.5z"/>
				<path id="Path_4650" class="st17" d="M13.2,7.5l-0.3-0.2l0,0L13.2,7.5z"/>
				<path id="Path_4651" class="st17" d="M13.2,7.5l-0.3-0.2h-0.1L13.2,7.5L13.2,7.5z"/>
				<path id="Path_4652" class="st17" d="M13.1,7.5l-0.3-0.2l0,0L13.1,7.5z"/>
				<path id="Path_4653" class="st17" d="M13.1,7.5l-0.3-0.2l0,0L13.1,7.5L13.1,7.5z"/>
				<path id="Path_4654" class="st17" d="M13.1,7.5l-0.3-0.2l0,0L13.1,7.5z"/>
				<path id="Path_4655" class="st17" d="M13.1,7.5l-0.3-0.2l0,0L13.1,7.5z"/>
				<path id="Path_4656" class="st17" d="M13.1,7.5l-0.3-0.2h-0.1L13.1,7.5L13.1,7.5z"/>
				<path id="Path_4657" class="st17" d="M13.1,7.5l-0.3-0.2l0,0L13.1,7.5z"/>
				<path id="Path_4658" class="st17" d="M13.1,7.5l-0.3-0.2l0,0L13.1,7.5z"/>
				<path id="Path_4659" class="st17" d="M13.1,7.5l-0.3-0.2l0,0L13.1,7.5L13.1,7.5z"/>
				<path id="Path_4660" class="st17" d="M13.1,7.5"/>
				<path id="Path_4661" class="st17" d="M13.1,7.5l-0.3-0.2l-0.1-0.1L13.1,7.5L13.1,7.5z"/>
				<path id="Path_4662" class="st17" d="M13,7.4l-0.3-0.2l0,0L13,7.4L13,7.4z"/>
				<path id="Path_4663" class="st17" d="M13,7.4l-0.3-0.2l0,0L13,7.4z"/>
				<path id="Path_4664" class="st17" d="M13,7.4l-0.3-0.2l0,0L13,7.4z"/>
				<path id="Path_4665" class="st17" d="M13,7.4l-0.3-0.2h-0.1L13,7.4L13,7.4z"/>
				<path id="Path_4666" class="st17" d="M12.9,7.4l-0.3-0.2V7.1L12.9,7.4L12.9,7.4z"/>
				<path id="Path_4667" class="st17" d="M12.9,7.4l-0.3-0.3l0,0L12.9,7.4L12.9,7.4z"/>
				<path id="Path_4668" class="st17" d="M12.8,7.4l-0.3-0.3h-0.1L12.8,7.4z"/>
				<path id="Path_4669" class="st17" d="M12.8,7.4l-0.3-0.3l0,0L12.8,7.4L12.8,7.4z"/>
				<path id="Path_4670" class="st17" d="M12.8,7.3l-0.3-0.2h-0.1L12.8,7.3L12.8,7.3z"/>
				<path id="Path_4671" class="st17" d="M12.7,7.3l-0.3-0.2l0,0L12.7,7.3L12.7,7.3z"/>
				<path id="Path_4672" class="st17" d="M12.7,7.3l-0.3-0.2v0L12.7,7.3z"/>
				<path id="Path_4673" class="st17" d="M12.7,7.3L12.4,7l0,0L12.7,7.3L12.7,7.3z"/>
				<path id="Path_4674" class="st17" d="M12.6,7.3L12.3,7l0,0L12.6,7.3z"/>
				<path id="Path_4675" class="st17" d="M11.7,6l-0.3-0.2l-2.9,7.5l0.3,0.2L11.7,6z"/>
				<path id="Path_4676" class="st17" d="M16.6,6.4l-0.3-0.2l3.3,4.8l0.3,0.2L16.6,6.4z"/>
				<path id="Path_4677" class="st17" d="M19.9,1.3l-0.3-0.2l-0.1,0.3l-0.1,0.3L19.3,2l-0.1,0.3L19,2.5l-0.2,0.3l-0.2,0.3l-0.2,0.3
					l0.4,0.4L19,3.5l0.2-0.3l0.1-0.3l0.2-0.3l0.1-0.3L19.7,2l0.2-0.3C19.9,1.7,19.9,1.3,19.9,1.3z"/>
				<path id="Path_4678" class="st17" d="M18.9,3.7l-0.3-0.2l0,0L18.9,3.7L18.9,3.7z"/>
				<path id="Path_4679" class="st17" d="M18.9,3.7l-0.3-0.2L18.3,4L18,4.4l-0.3,0.3L17.6,5l-0.3,0.3L17,5.6L16.6,6l-0.3,0.3
					l0.3,0.2L17,6.2l0.3-0.3l0.3-0.3l0.3-0.3L18.2,5l0.3-0.4l0.3-0.4L18.9,3.7z"/>
			</g>
			<path id="Path_4680" class="st18" d="M48,45.5l3.3,4.8l0.8-3.2c0.1-0.3,0.3-0.5,0.5-0.6l2.4-0.9l-0.9-1.2c0,0,0-0.1-0.1-0.1l0,0
				l-2.9-4.1c-0.3,0.9-0.6,1.6-1,2.4l0,0C49.8,43.9,49,44.8,48,45.5z M40.2,52.7C40.2,52.7,40.1,52.7,40.2,52.7l-0.9,2.2l2.4-2
				c0.2-0.2,0.4-0.2,0.5,0.1l0.8,2.2l3.4-8.7h-2.1l-0.1-0.1H44c-0.3-0.2-0.6-0.5-0.8-0.9l0,0c-0.1-0.1-0.1-0.1-0.1-0.2l0,0v-0.1l0,0
				v-0.1l0,0v0.1l0,0L40.2,52.7z"/>
			<path id="Path_4681" class="st19" d="M50.7,36.6l-0.5-0.3l-0.3-0.2L49.6,36h-0.4h-0.3l-0.4,0.1L48,36.2l-0.4,0.2l-0.4,0.3
				L46.8,37l-0.4,0.3L46,37.7l-0.4,0.4L45,38.5l-0.3,0.4l-0.3,0.4l-0.3,0.5L44,39.9l-0.2,0.3l-0.1,0.1l-0.2,0.3l-0.2,0.3l-0.1,0.3
				l-0.1,0.3l-0.2,0.2l0.1,0.1l-0.1,0.3v0.5l-0.1,0.3l-0.1,0.3l-0.1,0.3l-0.1,0.3v1.5l0,0v0.1l0,0v0.1l0,0v0.1l0,0v0.1l0,0v0.1l0,0
				v0.1l0,0V46l0,0v0.1l0,0v0.1l0,0v0.1l0,0V46l0,0v0.1l0,0v0.1l0,0v0.1l0,0v0.1l0,0v0.1l0,0v0.1l0,0l0.1,0.2l0.1,0.2l0.1,0.1
				l0.1,0.1l0.1,0.1l0.1,0.1l0.1,0.1l0.1,0.1h0.1l0.5,0.3h-0.1l-0.1-0.1l0.2-0.5l-0.1-0.1l-0.1-0.1L43.6,47l-0.1-0.1l-0.1-0.2
				l-0.1-0.2l0,0v-0.1l0,0v-0.1l0,0l0,0l0,0l0,0l0,0v-0.1l0,0V46l0,0v-0.1l0,0v-0.1l0,0v-0.1l0,0v-0.1l0,0v-0.1l0,0v-0.1l0,0v-0.1
				l0,0v-0.1l0,0v-0.1l0,0V45l0,0v-0.1l0,0V45l0,0v-1.5l0.1-0.3l0.1-0.3l0.1-0.3l0.1-0.3l0.1-0.3l0.1-0.3l0.1-0.3l0.1-0.3l0.1-0.3
				l0.1-0.3l0.2-0.3l0.2-0.3l0.2-0.3l0.2-0.3l0.1-0.1l0.3-0.5l0.3-0.5l0.3-0.4l0.4-0.4l0.4-0.4l0.4-0.4l0.4-0.3l0.4-0.3l0.4-0.3
				l0.4-0.2l0.4-0.1l0.4-0.1h0.4l0.4,0.1l0.3,0.1L50.7,36.6L50.7,36.6z M50.7,43.7L50.7,43.7l-0.5-0.3l0,0L50.7,43.7z M45.1,47.6
				l-0.5-0.3l0,0L45.1,47.6z M44.7,47.4l-0.5-0.3l0,0L44.7,47.4z M42.8,45.2l0.5,0.3l0,0L42.8,45.2z"/>
			<path id="Path_4682" class="st20" d="M50.7,36.6c-0.9-0.5-1.9-0.4-3.2,0.3c-1.3,0.8-2.4,1.9-3.1,3.2l-0.1,0.1
				C43.5,41.5,43,43,43,44.6c0,0.3,0,0.5,0.1,0.7v0.1l0,0v0.1l0,0v0.1l0,0v0.1l0,0v0.1l0,0v0.1l0,0V46l0,0v0.1l0,0V46l0,0v0.1l0,0
				v0.1l0,0v0.1l0,0v0.1l0,0v0.1l0,0v0.1l0,0v0.1l0,0v-0.4l0,0v0.1l0,0v0.1c0.1,0.1,0.1,0.1,0.1,0.2l0,0c0.2,0.3,0.4,0.6,0.8,0.9
				h0.1l0.1,0.1H47l0.1-0.1l0,0l0.1-0.1l0.1-0.1l0,0l0.1-0.1h0.3l0.1-0.1l0,0l0.1-0.1L48,47l0,0l0.1-0.1l0,0l0.1-0.1l0,0l0.1-0.1
				l0,0l0.1-0.1l0,0c0.9-0.8,1.8-1.7,2.4-2.8l0,0c0.5-0.9,0.9-1.8,1.1-2.7V41l0,0l0,0l0,0v-0.1l0,0v-0.1l0,0c0-0.1,0.1-0.2,0.1-0.3
				l0,0v-0.3c0-0.3,0.1-0.5,0.1-0.8C52,38,51.5,37,50.7,36.6z"/>
		</g>
	</g>
	<g id="Group_2424" transform="translate(-30 -973.512)">
		<g class="st21">
			<path class="st22" d="M327.3,1576h3.4l3.1,8.6h0.1l3.1-8.6h3.4v12.1h-2.1v-9.7h0l-3.7,9.7H333l-3.6-9.7h0v9.7h-2V1576z"/>
			<path class="st22" d="M346,1582.9l-4.5-6.8h2.6l3,5.1l3.1-5.1h2.5l-4.5,6.8v5.2H346V1582.9z"/>
		</g>
		<g class="st21">
			<path class="st22" d="M327.4,1594.9c0-0.4,0.2-0.8,0.5-1.1c0.3-0.3,0.7-0.5,1.2-0.5s0.9,0.1,1.2,0.4c0.3,0.3,0.5,0.7,0.5,1.1
				c0,0.4-0.2,0.8-0.5,1.1c-0.3,0.3-0.7,0.4-1.2,0.4s-0.9-0.2-1.2-0.5C327.5,1595.7,327.4,1595.3,327.4,1594.9z M327.7,1597.8h2.7
				v15.1h-2.7V1597.8z"/>
			<path class="st22" d="M333.7,1597.8h5.3c0.7,0,1.4,0.1,2.1,0.2c0.7,0.1,1.3,0.4,1.8,0.7c0.5,0.3,0.9,0.8,1.2,1.3
				c0.3,0.6,0.5,1.2,0.5,2c0,1.1-0.3,2-0.9,2.7s-1.5,1.2-2.5,1.4l4,6.7h-3.2l-3.5-6.4h-2v6.4h-2.7V1597.8z M338.6,1604.3
				c0.4,0,0.8,0,1.2-0.1s0.7-0.2,1-0.3s0.6-0.4,0.8-0.7c0.2-0.3,0.3-0.7,0.3-1.1c0-0.4-0.1-0.7-0.3-1c-0.2-0.3-0.4-0.5-0.7-0.6
				c-0.3-0.2-0.6-0.3-1-0.3c-0.4-0.1-0.7-0.1-1.1-0.1h-2.4v4.2H338.6z"/>
			<path class="st22" d="M354.8,1601c-0.3-0.4-0.7-0.7-1.2-0.9s-1-0.4-1.6-0.4c-0.3,0-0.6,0-0.9,0.1c-0.3,0.1-0.6,0.2-0.9,0.4
				c-0.3,0.2-0.5,0.4-0.6,0.6c-0.2,0.3-0.2,0.6-0.2,0.9c0,0.3,0.1,0.6,0.2,0.9s0.3,0.4,0.6,0.6c0.2,0.2,0.6,0.3,0.9,0.4
				c0.4,0.1,0.7,0.3,1.2,0.4c0.5,0.2,1,0.3,1.5,0.5s1,0.5,1.4,0.8s0.8,0.7,1.1,1.2s0.4,1.1,0.4,1.9c0,0.8-0.1,1.5-0.4,2.1
				s-0.7,1.1-1.2,1.5c-0.5,0.4-1.1,0.7-1.8,0.9c-0.7,0.2-1.4,0.3-2.1,0.3c-1,0-1.9-0.2-2.9-0.5c-0.9-0.4-1.7-0.9-2.3-1.6l1.9-1.8
				c0.4,0.5,0.9,0.9,1.5,1.2c0.6,0.3,1.2,0.4,1.8,0.4c0.3,0,0.6,0,1-0.1c0.3-0.1,0.6-0.2,0.9-0.4c0.3-0.2,0.5-0.4,0.6-0.7
				s0.2-0.6,0.2-1c0-0.4-0.1-0.7-0.3-1c-0.2-0.3-0.4-0.5-0.7-0.7c-0.3-0.2-0.7-0.4-1.1-0.5c-0.4-0.1-0.9-0.3-1.3-0.4
				c-0.5-0.1-0.9-0.3-1.4-0.5c-0.5-0.2-0.9-0.5-1.2-0.8c-0.4-0.3-0.7-0.7-0.9-1.2s-0.3-1.1-0.3-1.8c0-0.8,0.2-1.4,0.5-2
				s0.7-1,1.3-1.4c0.5-0.4,1.1-0.6,1.8-0.8c0.7-0.2,1.3-0.3,2-0.3c0.8,0,1.5,0.1,2.3,0.4s1.5,0.7,2.1,1.2L354.8,1601z"/>
			<path class="st22" d="M364.1,1597.8h2.3l6.5,15.1h-3.1l-1.4-3.5h-6.6l-1.4,3.5h-3L364.1,1597.8z M367.5,1607.1l-2.3-6.1l-2.4,6.1
				H367.5z"/>
			<path class="st22" d="M374.4,1597.8h2.7v12.7h6.4v2.4h-9.1V1597.8z"/>
			<path class="st22" d="M385,1594.9c0-0.4,0.2-0.8,0.5-1.1c0.3-0.3,0.7-0.5,1.2-0.5s0.9,0.1,1.2,0.4c0.3,0.3,0.5,0.7,0.5,1.1
				c0,0.4-0.2,0.8-0.5,1.1c-0.3,0.3-0.7,0.4-1.2,0.4s-0.9-0.2-1.2-0.5C385.2,1595.7,385,1595.3,385,1594.9z M385.3,1597.8h2.7v15.1
				h-2.7V1597.8z"/>
			<path class="st22" d="M395,1606.4l-5.7-8.6h3.3l3.8,6.4l3.8-6.4h3.1l-5.7,8.6v6.6H395V1606.4z"/>
			<path class="st22" d="M404.6,1597.8h10v2.3h-7.3v3.8h6.9v2.3h-6.9v4.3h7.7v2.4h-10.4V1597.8z"/>
		</g>
	</g>
</g>
</svg>
