<?xml version="1.0" encoding="utf-8"?>
<!-- Generator: Adobe Illustrator 22.1.0, SVG Export Plug-In . SVG Version: 6.00 Build 0)  -->
<svg version="1.1" id="Layer_1" xmlns="http://www.w3.org/2000/svg" xmlns:xlink="http://www.w3.org/1999/xlink" x="0px" y="0px"
	 viewBox="0 0 166.7 169.8" style="enable-background:new 0 0 166.7 169.8;" xml:space="preserve">
<style type="text/css">
	.st0{enable-background:new    ;}
	.st1{fill:#1F1E1E;}
	.st2{fill:#2C3E50;}
	.st3{fill:#415A73;}
	.st4{fill:#CCCCCC;}
	.st5{fill:#E6EAEB;}
	.st6{fill:#C43E3F;}
	.st7{fill:#E74C3C;}
</style>
<g id="Group_2694" transform="translate(-589 -710.477)">
	<g id="Group_2508" transform="translate(-19 208.013)">
		<g id="Group_2425" transform="translate(105 -1056.828)">
			<g class="st0">
				<path class="st1" d="M573.3,1656h3.6l3.4,9.2h0.1l3.3-9.2h3.6v13H585v-10.4h0l-3.9,10.4h-1.6l-3.9-10.4h0v10.4h-2.2V1656z"/>
				<path class="st1" d="M593.3,1663.3l-4.9-7.3h2.8l3.3,5.5l3.3-5.5h2.7l-4.9,7.3v5.6h-2.3V1663.3z"/>
			</g>
			<g class="st0">
				<path class="st1" d="M548,1679.3h2.9v13.6h6.9v2.6H548V1679.3z"/>
				<path class="st1" d="M558.3,1687.4c0-1.3,0.2-2.5,0.7-3.5s1-1.9,1.8-2.7c0.8-0.7,1.7-1.3,2.7-1.7s2.2-0.6,3.5-0.6
					c1.3,0,2.4,0.2,3.5,0.6c1.1,0.4,2,1,2.8,1.7c0.8,0.7,1.4,1.6,1.8,2.7c0.4,1,0.7,2.2,0.7,3.5c0,1.3-0.2,2.4-0.7,3.5
					c-0.4,1-1,1.9-1.8,2.7c-0.8,0.8-1.7,1.3-2.8,1.8c-1.1,0.4-2.2,0.6-3.5,0.6c-1.3,0-2.4-0.2-3.5-0.6c-1.1-0.4-2-1-2.7-1.8
					c-0.8-0.8-1.4-1.7-1.8-2.7C558.5,1689.8,558.3,1688.6,558.3,1687.4z M561.4,1687.4c0,0.9,0.1,1.7,0.4,2.4
					c0.3,0.7,0.6,1.4,1.1,1.9c0.5,0.5,1.1,0.9,1.8,1.2c0.7,0.3,1.4,0.4,2.3,0.4s1.6-0.1,2.3-0.4c0.7-0.3,1.3-0.7,1.8-1.2
					c0.5-0.5,0.9-1.2,1.1-1.9c0.3-0.7,0.4-1.5,0.4-2.4c0-0.8-0.1-1.6-0.4-2.3c-0.3-0.7-0.6-1.3-1.1-1.9c-0.5-0.5-1.1-1-1.8-1.3
					c-0.7-0.3-1.4-0.5-2.3-0.5c-0.8,0-1.6,0.2-2.3,0.5s-1.3,0.7-1.8,1.3c-0.5,0.5-0.9,1.2-1.1,1.9
					C561.5,1685.7,561.4,1686.5,561.4,1687.4z"/>
				<path class="st1" d="M578.5,1679.3h5.6c0.8,0,1.5,0.1,2.2,0.2s1.4,0.4,1.9,0.8s1,0.8,1.3,1.4c0.3,0.6,0.5,1.3,0.5,2.2
					c0,1.2-0.3,2.1-1,2.9c-0.7,0.7-1.6,1.2-2.7,1.5l4.3,7.2h-3.5l-3.8-6.9h-2.1v6.9h-2.9V1679.3z M583.7,1686.3c0.4,0,0.8,0,1.2-0.1
					c0.4-0.1,0.8-0.2,1.1-0.3c0.3-0.2,0.6-0.4,0.8-0.7c0.2-0.3,0.3-0.7,0.3-1.2c0-0.4-0.1-0.8-0.3-1.1s-0.5-0.5-0.8-0.7
					c-0.3-0.2-0.7-0.3-1-0.3c-0.4-0.1-0.8-0.1-1.1-0.1h-2.6v4.6H583.7z"/>
				<path class="st1" d="M592.8,1679.3h10.7v2.5h-7.8v4.1h7.4v2.4h-7.4v4.6h8.3v2.6h-11.1V1679.3z"/>
				<path class="st1" d="M606.8,1679.3h4.5l4.2,11.5h0.1l4.2-11.5h4.5v16.2h-2.9v-13h0l-4.9,13h-2l-4.8-13h0v13h-2.7V1679.3z"/>
			</g>
			<g class="st0">
				<path class="st1" d="M508.8,1701.3h2.9v16.2h-2.9V1701.3z"/>
				<path class="st1" d="M515.2,1701.3h5.3c0.9,0,1.8,0.1,2.5,0.3c0.7,0.2,1.4,0.4,1.9,0.8c0.5,0.4,0.9,0.9,1.2,1.5
					c0.3,0.6,0.4,1.3,0.4,2.2c0,0.9-0.2,1.7-0.5,2.3c-0.3,0.6-0.8,1.1-1.4,1.5s-1.2,0.6-2,0.8s-1.6,0.3-2.4,0.3h-2.2v6.7h-2.9
					V1701.3z M520.1,1708.3c0.5,0,0.9,0,1.3-0.1c0.4-0.1,0.8-0.2,1.1-0.4c0.3-0.2,0.6-0.4,0.8-0.7c0.2-0.3,0.3-0.7,0.3-1.2
					c0-0.5-0.1-0.9-0.3-1.2c-0.2-0.3-0.5-0.5-0.8-0.7c-0.3-0.2-0.7-0.3-1.1-0.3s-0.9-0.1-1.3-0.1h-2.1v4.6H520.1z"/>
				<path class="st1" d="M537.4,1704.7c-0.3-0.4-0.7-0.7-1.3-1s-1.1-0.4-1.7-0.4c-0.3,0-0.7,0-1,0.1c-0.3,0.1-0.6,0.2-0.9,0.4
					c-0.3,0.2-0.5,0.4-0.7,0.7c-0.2,0.3-0.3,0.6-0.3,1c0,0.4,0.1,0.7,0.2,0.9c0.2,0.3,0.4,0.5,0.6,0.7c0.3,0.2,0.6,0.3,1,0.5
					c0.4,0.1,0.8,0.3,1.3,0.4c0.5,0.2,1.1,0.4,1.6,0.6s1.1,0.5,1.5,0.8c0.5,0.4,0.8,0.8,1.1,1.3c0.3,0.5,0.4,1.2,0.4,2
					c0,0.9-0.2,1.6-0.5,2.3c-0.3,0.6-0.7,1.2-1.3,1.6c-0.5,0.4-1.2,0.7-1.9,1c-0.7,0.2-1.5,0.3-2.3,0.3c-1.1,0-2.1-0.2-3.1-0.6
					c-1-0.4-1.8-1-2.5-1.7l2.1-1.9c0.4,0.5,0.9,1,1.6,1.3s1.3,0.5,2,0.5c0.3,0,0.7,0,1-0.1c0.4-0.1,0.7-0.2,0.9-0.4
					c0.3-0.2,0.5-0.4,0.7-0.7c0.2-0.3,0.3-0.7,0.3-1.1c0-0.4-0.1-0.8-0.3-1.1c-0.2-0.3-0.5-0.5-0.8-0.7c-0.3-0.2-0.7-0.4-1.2-0.5
					s-0.9-0.3-1.4-0.5c-0.5-0.2-1-0.3-1.5-0.5c-0.5-0.2-0.9-0.5-1.3-0.8c-0.4-0.4-0.7-0.8-0.9-1.3s-0.4-1.1-0.4-1.9
					c0-0.8,0.2-1.5,0.5-2.1s0.8-1.1,1.3-1.5s1.2-0.7,1.9-0.9c0.7-0.2,1.4-0.3,2.2-0.3c0.8,0,1.7,0.1,2.5,0.4
					c0.8,0.3,1.6,0.7,2.2,1.3L537.4,1704.7z"/>
				<path class="st1" d="M555.2,1711.5c0,1-0.2,1.9-0.5,2.6c-0.3,0.8-0.8,1.5-1.4,2c-0.6,0.5-1.3,1-2.1,1.3
					c-0.8,0.3-1.7,0.4-2.6,0.4c-0.9,0-1.8-0.1-2.6-0.4c-0.8-0.3-1.5-0.7-2.1-1.3c-0.6-0.5-1-1.2-1.4-2c-0.3-0.8-0.5-1.7-0.5-2.6
					v-10.2h2.9v10.1c0,0.5,0.1,0.9,0.2,1.4c0.1,0.5,0.3,0.9,0.6,1.2c0.3,0.4,0.7,0.7,1.1,0.9c0.5,0.2,1,0.3,1.7,0.3s1.3-0.1,1.7-0.3
					c0.5-0.2,0.8-0.5,1.1-0.9c0.3-0.4,0.5-0.8,0.6-1.2s0.2-0.9,0.2-1.4v-10.1h2.9V1711.5z"/>
				<path class="st1" d="M558.6,1701.3h4.5l4.2,11.5h0.1l4.2-11.5h4.5v16.2h-2.9v-13h0l-4.9,13h-2l-4.8-13h0v13h-2.7V1701.3z"/>
				<path class="st1" d="M585.4,1701.3h5.7c1.1,0,2.1,0.1,3.2,0.4s2,0.7,2.9,1.4c0.9,0.6,1.5,1.5,2.1,2.5c0.5,1,0.8,2.3,0.8,3.8
					c0,1.4-0.3,2.6-0.8,3.7c-0.5,1-1.2,1.9-2.1,2.5c-0.9,0.7-1.8,1.1-2.9,1.5s-2.1,0.5-3.2,0.5h-5.7V1701.3z M590.7,1714.9
					c0.7,0,1.5-0.1,2.2-0.3s1.4-0.5,2-0.9c0.6-0.4,1.1-1,1.5-1.7c0.4-0.7,0.6-1.6,0.6-2.7c0-1.2-0.2-2.1-0.6-2.8
					c-0.4-0.7-0.9-1.3-1.5-1.7c-0.6-0.4-1.3-0.7-2-0.8s-1.5-0.2-2.2-0.2h-2.4v11.2H590.7z"/>
				<path class="st1" d="M602.1,1709.3c0-1.3,0.2-2.5,0.7-3.5s1-1.9,1.8-2.7c0.8-0.7,1.7-1.3,2.7-1.7c1.1-0.4,2.2-0.6,3.5-0.6
					c1.3,0,2.4,0.2,3.5,0.6s2,1,2.8,1.7c0.8,0.7,1.4,1.6,1.8,2.7s0.7,2.2,0.7,3.5c0,1.3-0.2,2.4-0.7,3.5c-0.4,1-1,1.9-1.8,2.7
					c-0.8,0.8-1.7,1.3-2.8,1.8c-1.1,0.4-2.2,0.6-3.5,0.6c-1.3,0-2.4-0.2-3.5-0.6c-1.1-0.4-2-1-2.7-1.8c-0.8-0.8-1.4-1.7-1.8-2.7
					C602.3,1711.7,602.1,1710.6,602.1,1709.3z M605.2,1709.3c0,0.9,0.1,1.7,0.4,2.4c0.3,0.7,0.6,1.4,1.1,1.9
					c0.5,0.5,1.1,0.9,1.8,1.2c0.7,0.3,1.4,0.4,2.3,0.4c0.8,0,1.6-0.1,2.3-0.4c0.7-0.3,1.3-0.7,1.8-1.2c0.5-0.5,0.9-1.2,1.1-1.9
					c0.3-0.7,0.4-1.5,0.4-2.4c0-0.8-0.1-1.6-0.4-2.3s-0.6-1.3-1.1-1.9c-0.5-0.5-1.1-1-1.8-1.3s-1.4-0.5-2.3-0.5s-1.6,0.2-2.3,0.5
					c-0.7,0.3-1.3,0.7-1.8,1.3c-0.5,0.5-0.9,1.2-1.1,1.9S605.2,1708.5,605.2,1709.3z"/>
				<path class="st1" d="M622.3,1701.3h2.9v13.6h6.9v2.6h-9.8V1701.3z"/>
				<path class="st1" d="M632.5,1709.3c0-1.3,0.2-2.5,0.7-3.5s1-1.9,1.8-2.7c0.8-0.7,1.7-1.3,2.7-1.7c1.1-0.4,2.2-0.6,3.5-0.6
					c1.3,0,2.4,0.2,3.5,0.6s2,1,2.8,1.7c0.8,0.7,1.4,1.6,1.8,2.7s0.7,2.2,0.7,3.5c0,1.3-0.2,2.4-0.7,3.5c-0.4,1-1,1.9-1.8,2.7
					c-0.8,0.8-1.7,1.3-2.8,1.8c-1.1,0.4-2.2,0.6-3.5,0.6c-1.3,0-2.4-0.2-3.5-0.6c-1.1-0.4-2-1-2.7-1.8c-0.8-0.8-1.4-1.7-1.8-2.7
					C632.7,1711.7,632.5,1710.6,632.5,1709.3z M635.7,1709.3c0,0.9,0.1,1.7,0.4,2.4c0.3,0.7,0.6,1.4,1.1,1.9
					c0.5,0.5,1.1,0.9,1.8,1.2c0.7,0.3,1.4,0.4,2.3,0.4c0.8,0,1.6-0.1,2.3-0.4c0.7-0.3,1.3-0.7,1.8-1.2c0.5-0.5,0.9-1.2,1.1-1.9
					c0.3-0.7,0.4-1.5,0.4-2.4c0-0.8-0.1-1.6-0.4-2.3s-0.6-1.3-1.1-1.9c-0.5-0.5-1.1-1-1.8-1.3s-1.4-0.5-2.3-0.5s-1.6,0.2-2.3,0.5
					c-0.7,0.3-1.3,0.7-1.8,1.3c-0.5,0.5-0.9,1.2-1.1,1.9S635.7,1708.5,635.7,1709.3z"/>
				<path class="st1" d="M652.7,1701.3h5.6c0.8,0,1.5,0.1,2.2,0.2s1.4,0.4,1.9,0.8s1,0.8,1.3,1.4c0.3,0.6,0.5,1.3,0.5,2.2
					c0,1.2-0.3,2.1-1,2.9c-0.7,0.7-1.6,1.2-2.7,1.5l4.3,7.2h-3.5l-3.8-6.9h-2.1v6.9h-2.9V1701.3z M658,1708.2c0.4,0,0.8,0,1.2-0.1
					c0.4-0.1,0.8-0.2,1.1-0.3c0.3-0.2,0.6-0.4,0.8-0.7c0.2-0.3,0.3-0.7,0.3-1.2c0-0.4-0.1-0.8-0.3-1.1s-0.5-0.5-0.8-0.7
					c-0.3-0.2-0.7-0.3-1-0.3c-0.4-0.1-0.8-0.1-1.1-0.1h-2.6v4.6H658z"/>
			</g>
		</g>
		<g id="Group_2511" transform="translate(608.002 502.384)">
			<g id="Group_2510" transform="translate(12.184 0.08)">
				<path id="Path_5103" class="st2" d="M52.3,73.7l-6-3.4l-0.1-0.1l-0.1-0.1L46,70v-0.1l-0.1-0.2v-0.2v-0.2v-0.2V20.7v-0.1v-0.1
					l0.1-0.1l0.1-0.1l0.1-0.1l0.1-0.1l0.1-0.1l0.1-0.1l0.1-0.1l0.1-0.1l0.1-0.1l0.1-0.1l0.1-0.1l0.1-0.1l0.1-0.1l0.1-0.1l0.1-0.1
					l0.1-0.1h0.4l0.1-0.1l0.1-0.1l0.1-0.1l0.1-0.1l0.1-0.1l0.1-0.1h0.1h0.1h0.1l6.1,3.6l0,0h-0.1h-0.1L54.6,22l-0.1,0.1l-0.1,0.1
					l-0.1,0.1l-0.1,0.1l-0.3-0.1l-0.1,0.1l-0.1,0.1l-0.1,0.1l-0.1,0.1l-0.1,0.1l-0.1,0.1h-0.4L52.8,23l-0.1,0.1l-0.1,0.1l-0.1,0.1
					l-0.1,0.1l-0.1,0.1l-0.1,0.1l-0.1,0.1l-0.2,0.1v0.1V24v0.1v39.8l37.7-21.7l0.1-0.1h0.1h0.1H90l6,3.4h-0.1h-0.1h-0.1l-0.1,0.1
					L55.1,68.8l-3.3-1.9v5.7v0.2V73v0.2l0.1,0.1l0.1,0.1l0.1,0.1l0.1,0.1L52.3,73.7z"/>
				<path id="Path_5104" class="st3" d="M53.5,73.6c-0.5,0.3-1.1,0.3-1.5-0.1c-0.2-0.2-0.3-0.5-0.2-0.8V24.2c0-0.4,0.2-0.7,0.6-1
					c0.7-0.4,1.5-0.8,2.2-1.3c0.3-0.2,0.6,0,0.6,0.3v46.6l40.3-23.3c0.3-0.2,0.6,0,0.6,0.3v2.5c0,0.4-0.2,0.7-0.6,1L53.5,73.6z"/>
				<path id="Path_5105" class="st4" d="M55.1,30.4v-1.1l26.8-15.4l0.7,0.7L55.1,30.4z"/>
				<path id="Path_5106" class="st5" d="M82.6,49.9L55.1,65.8V30.4l27.5-15.8V49.9z"/>
				<path id="Path_5107" class="st6" d="M58.6,59.3L56.4,58l-0.1-0.1h-0.1l-0.1-0.1L56,57.7l-0.1-0.1v-0.1v-0.2v-0.2v-0.2v-0.2v-0.2
					v-0.2l0.1-0.2l0.1-0.2l0.1-0.2l8.2-17l0.1-0.2l0.1-0.2l0.1-0.2l0.1-0.2l0.1-0.1l0.1-0.1l0.1-0.1l0.1-0.1l0.1-0.1l0.1-0.1
					l0.1-0.1l0.1-0.1l0.1-0.1l0.1-0.1l0.1-0.1l0.1-0.1l8.7-5l3.8-10.1l2.2,1.3L76.8,33l-8.7,5L68,38.1l-0.1,0.1l-0.1,0.1l0.1,0.1
					l-0.1,0.1l-0.1,0.1l-0.1,0.1l-0.2,0.2L67.3,39l-0.1,0.1l-0.1,0.1L67,39.3l-0.1,0.3l-0.1,0.2l-0.1,0.1l-0.1,0.2L58.4,57l-0.1,0.2
					l-0.1,0.2l-0.1,0.2v0.2V58v0.2v0.2v0.2v0.2v0.1l0.1,0.1l0.1,0.1l0.1,0.1L58.6,59.3L58.6,59.3L58.6,59.3z M85.3,27.4l-2.2-1.3
					L82.9,26l-0.2-0.2l-0.1-0.3v-0.3l-0.1-3l2.2,1.3l0.1,3v0.3l0.1,0.3l0.1,0.2L85.3,27.4L85.3,27.4z M76.7,26.4L76.7,26.4l-0.2-0.2
					l-0.1-0.1L75.8,25v-0.1v-0.1v-0.2v-0.2v-0.2V24v-0.2v-0.2l0.1-0.2l0.1-0.2l0.1-0.2l0.1-0.2l0.1-0.2l0.1-0.2l0.1-0.2l0.1-0.2
					l0.4-0.4l0.4-0.4l0.4-0.4l0.4-0.4l0.4-0.4l0.4-0.4l0.4-0.4l0.4-0.4l0.4-0.4l0.4-0.4l0.4-0.4l0.4-0.4l0.4-0.4l0.1-0.7l0.4-0.4
					l0.4-0.4l0.4-0.4l0.4-0.4l0.4-0.6l0.4-0.4l0.4-0.4l0.4-0.4l0.4-0.4l0.4-0.4l0.4-0.4l0.4-0.4l0.2-0.7l0.4-0.5l0.4-0.4l0.4-0.4
					l0.4-0.4l0.4-0.5l-2.2-1.3l-0.4,0.4l-0.4,0.5l-0.4,0.4l-0.4,0.4L84.7,9l-0.4,0.4l-0.4,0.4l-0.4,0.4l-0.3,0.7l-0.4,0.4l-0.4,0.4
					L82,12.1l-0.4,0.4l-0.4,0.4l-0.3,0.6l-0.4,0.4l-0.4,0.4l-0.4,0.4l-0.4,0.4l-0.4,0.4l-0.4,0.4l-0.4,0.4l-0.4,0.4l-0.4,0.4
					L77,17.9l-0.4,0.4l-0.4,0.4l-0.3,0.5l-0.4,0.4L75.1,20l-0.4,0.4l-0.4,0.4L74.2,21l-0.1,0.2L74,21.4l-0.1,0.2l-0.1,0.3l-0.1,0.2
					l-0.1,0.2l-0.1,0.2v0.2v0.2v0.2v0.2v0.2v0.2v0.1l0.1,0.1l0.6,1.1l0.1,0.1l0.1,0.1l0.1,0.1L76.7,26.4z"/>
				<path id="Path_5108" class="st7" d="M58.5,57.1l8.2-17c0.2-0.4,0.5-0.8,0.8-1.2c0.3-0.3,0.6-0.6,1-0.8l8.7-5L81,22.9l-2.5,2.8
					c-0.8,0.9-1.7,1-2,0.4L75.9,25c-0.3-1,0-2,0.7-2.8L88.9,8.1c0.2,5.2,0.3,10.4,0.5,15.6c0,1.1-0.6,2.1-1.5,2.7l-1.4,0.9
					c-0.8,0.5-1.6,0.2-1.6-0.8l-0.1-3l-4.5,11.7c-0.2,0.5-0.5,0.9-0.8,1.3c-0.3,0.4-0.7,0.7-1.1,1l-8.9,5.1L62,58.2
					c-0.5,1.1-1.5,1.8-2.1,1.6l-1.1-0.4C58.1,59.2,57.9,58.1,58.5,57.1z"/>
			</g>
		</g>
	</g>
</g>
</svg>
