<?xml version="1.0" encoding="utf-8"?>
<!-- Generator: Adobe Illustrator 22.1.0, SVG Export Plug-In . SVG Version: 6.00 Build 0)  -->
<svg version="1.1" id="Layer_1" xmlns="http://www.w3.org/2000/svg" xmlns:xlink="http://www.w3.org/1999/xlink" x="0px" y="0px"
	 viewBox="0 0 232.1 96" style="enable-background:new 0 0 232.1 96;" xml:space="preserve">
<style type="text/css">
	.st0{opacity:3.000000e-03;fill:#040507;enable-background:new    ;}
	.st1{opacity:7.000000e-03;fill:#080A0D;enable-background:new    ;}
	.st2{opacity:1.000000e-02;fill:#0B0E14;enable-background:new    ;}
	.st3{opacity:1.300000e-02;fill:#0F131B;enable-background:new    ;}
	.st4{opacity:1.700000e-02;fill:#131822;enable-background:new    ;}
	.st5{opacity:2.000000e-02;fill:#171D29;enable-background:new    ;}
	.st6{opacity:2.300000e-02;fill:#1B2230;enable-background:new    ;}
	.st7{opacity:2.700000e-02;fill:#1F2737;enable-background:new    ;}
	.st8{opacity:3.000000e-02;fill:#232C3F;enable-background:new    ;}
	.st9{opacity:3.300000e-02;fill:#273246;enable-background:new    ;}
	.st10{opacity:3.700000e-02;fill:#2B374D;enable-background:new    ;}
	.st11{opacity:4.000000e-02;fill:#2F3C54;enable-background:new    ;}
	.st12{opacity:4.300000e-02;fill:#34415C;enable-background:new    ;}
	.st13{opacity:4.700000e-02;fill:#384763;enable-background:new    ;}
	.st14{fill:#2C3E50;}
	.st15{fill:#34485C;}
	.st16{fill:#849CC9;}
	.st17{fill:#3D566E;}
	.st18{fill:#5E5E69;}
	.st19{fill:#737380;}
	.st20{fill:#80808F;}
	.st21{fill:#A6AEB3;}
	.st22{fill:#E6EAEB;}
	.st23{fill:#676775;}
	.st24{fill:#B4CCFA;}
	.st25{fill:#CCCCCC;}
	.st26{fill:#E6E6E6;}
	.st27{enable-background:new    ;}
	.st28{fill:#1F1E1E;}
</style>
<g id="Group_2693" transform="translate(-587.245 -580)">
	<g id="Group_2466" transform="translate(-19 71.013)">
		<g id="Group_2410" transform="translate(606.283 509.198)">
			<g id="Group_2405" transform="translate(-0.038 51.525)">
				<path id="Path_4683" class="st0" d="M74,4.6c13.7,7.9,13.7,20.7,0,28.6s-35.9,7.9-49.6,0S10.8,12.5,24.6,4.6
					C38.2-3.3,60.3-3.3,74,4.6z"/>
				<path id="Path_4684" class="st1" d="M72.4,5.7c12.7,7.4,12.7,19.4,0,26.7c-12.7,7.4-33.5,7.4-46.2,0S13.4,13,26.2,5.7
					C38.9-1.8,59.6-1.8,72.4,5.7z"/>
				<path id="Path_4685" class="st2" d="M70.7,6.6c11.8,6.8,11.8,17.9,0,24.8c-11.8,6.8-31.1,6.8-42.9,0S16,13.5,27.8,6.6
					S58.9-0.3,70.7,6.6z"/>
				<ellipse id="Ellipse_53" class="st3" cx="49.3" cy="19" rx="28" ry="16.2"/>
				<path id="Path_4686" class="st4" d="M67.4,8.5c10,5.8,10,15.2,0,21s-26.2,5.8-36.3,0c-10-5.8-10-15.2,0-21S57.4,2.7,67.4,8.5z"
					/>
				<path id="Path_4687" class="st5" d="M65.8,9.5c9.1,5.3,9.1,13.8,0,19s-23.9,5.3-32.9,0c-9.1-5.3-9.1-13.8,0-19
					C41.9,4.2,56.7,4.2,65.8,9.5z"/>
				<path id="Path_4688" class="st6" d="M64.1,10.4c8.2,4.7,8.2,12.4,0,17.1s-21.5,4.7-29.6,0s-8.2-12.4,0-17.1S55.9,5.7,64.1,10.4z
					"/>
				<path id="Path_4689" class="st7" d="M62.4,11.4c7.3,4.2,7.3,11,0,15.2s-19,4.2-26.3,0s-7.3-11,0-15.2
					C43.3,7.2,55.2,7.2,62.4,11.4z"/>
				<path id="Path_4690" class="st8" d="M60.7,12.4c6.3,3.7,6.3,9.6,0,13.3s-16.7,3.7-23,0s-6.3-9.6,0-13.3S54.4,8.7,60.7,12.4z"/>
				<path id="Path_4691" class="st9" d="M59.1,13.2c5.4,3.2,5.4,8.2,0,11.4s-14.2,3.2-19.6,0s-5.4-8.2,0-11.4
					C44.8,10.2,53.7,10.2,59.1,13.2z"/>
				<path id="Path_4692" class="st10" d="M57.4,14.3c4.6,2.6,4.6,6.8,0,9.5s-11.8,2.6-16.3,0s-4.6-6.8,0-9.5S52.9,11.7,57.4,14.3z"
					/>
				<path id="Path_4693" class="st11" d="M55.8,15.2c3.6,2.1,3.6,5.4,0,7.5c-4.1,2.1-8.9,2.1-13.1,0c-3.6-2.1-3.6-5.4,0-7.5
					C46.8,13.1,51.7,13.1,55.8,15.2z"/>
				<path id="Path_4694" class="st12" d="M54.1,16.2c2.6,1.5,2.6,4,0,5.6c-3.1,1.5-6.7,1.5-9.7,0c-2.6-1.5-2.6-4,0-5.6
					C47.4,14.6,51.1,14.6,54.1,16.2z"/>
				<path id="Path_4695" class="st13" d="M52.4,17.1c1.8,1.1,1.8,2.6,0,3.7c-2,1.1-4.4,1.1-6.4,0c-1.8-1.1-1.8-2.6,0-3.7
					C48.1,16.1,50.4,16.1,52.4,17.1z"/>
			</g>
			<g id="Group_2409" transform="translate(2.495)">
				<g id="Group_2406" transform="translate(0.014 23.511)">
					<path id="Path_4696" class="st14" d="M79.2,2.2v12.3l-0.1,0.4l-0.2,0.4l-0.4,0.4L78,16V3.7l0.5-0.4L78.9,3l0.2-0.4L79.2,2.2z"
						/>
					<path id="Path_4697" class="st14" d="M78,3.8v12.3l-1.1,0.6l-1.1,0.6l-1.1,0.6l-1.1,0.6l-1.1,0.6l-1.1,0.6l-1,0.6L69.6,21
						l-1.1,0.6l-1,0.5l-1.1,0.5l-1,0.6l-1,0.5l-1,0.6l-1,0.5l-1,0.6l-1,0.5l-1,0.6l-1,0.5l-1,0.6l-1,0.5l-1,0.6l-1,0.6l-1.1,0.6
						l-1,0.5L51.2,31l-1.1,0.6L49,32.2l-1.1,0.6l-1.2,0.5l-1.1,0.6l-1.1,0.6l0.5,0.6l-0.4,0.2l-0.4,0.1l-0.2,0h-0.4l-0.4,0.1
						l-0.4,0.1h-0.7l-0.4-0.1l-0.4-0.1H41l-0.4-0.1l-0.3-0.1L40,35.1l-0.3-0.2l-0.9-0.5L38,33.9l-0.9-0.5l-0.9-0.5l-0.8-0.5L34.6,32
						l-0.8-0.4L33.1,31l-0.8-0.4l-0.7-0.4l-0.7-0.4l-0.7-0.4L29.5,29l-0.7-0.4l-0.7-0.4l-0.7-0.4l-0.7-0.4L26,27.2l-0.7-0.6
						l-0.7-0.4l-0.7-0.4l-0.7-0.4L22.4,25l-0.7-0.4L20.9,24l-0.8-0.4l-0.8-0.4l-0.8-0.4l-0.9-0.5l-0.9-0.5l-0.9-0.5l-1-0.5l-0.5-0.4
						L13.9,20l-0.2-0.4v-0.4V6.8L14,7.3l0.2,0.4L14.5,8L15,8.3l1,0.5l0.9,0.5l0.9,0.5l0.9,0.5l0.9,0.4l0.8,0.4l0.6,0.4l0.7,0.4
						l0.8,0.4l0.7,0.4l0.7,0.4l0.7,0.4l0.7,0.4l0.7,0.4l0.7,0.4l0.7,0.4l0.7,0.4l0.7,0.4l0.7,0.4l0.7,0.4l0.7,0.4l0.7,0.4l0.7,0.4
						l0.7,0.4l0.8,0.4l0.8,0.4l0.8,0.5l0.8,0.4l0.9,0.5L38,21l0.9,0.5l0.9,0.5l0.3,0.2l0.4,0.2l0.3,0.1l0.4,0.1l0.4,0.1l0.4,0.1h0.4
						l0.4,0.1l0.4-0.1h0.4l0.4-0.1l0.4-0.1l0.4-0.1l0.4-0.1l0.4-0.2l0.3-0.2l1.1-0.6l1.1-0.6l1.1-0.6l1.1-0.6l1.1-0.6l1.1-0.6
						l1.1-0.6l1-0.6l1.1-0.6l1-0.5l1-0.6l1-0.6l1-0.5l1-0.6l1-0.5l1-0.6l1-0.5l1-0.6l1-0.5l1.6-0.2l1-0.5l1-0.6l1-0.6l1.1-0.6
						L70.6,8l1-0.6l1.1-0.6l1.1-0.6l1.1-0.5L75.8,5l1.1-0.6L78,3.8z"/>
				</g>
				<path id="Path_4698" class="st15" d="M47.8,9.8c1.8-0.9,3.8-0.9,5.5,0c10,5.8,14.7,8.5,24.7,14.3c1.5,0.9,1.5,2.3,0,3.2
					c-11.9,6.8-20.9,12.1-32.7,18.9c-1.8,0.9-3.8,0.9-5.5,0c-9.9-5.7-14.8-8.6-24.7-14.3c-1.5-0.9-1.5-2.3,0-3.2
					C20.6,25.5,35.5,16.9,47.8,9.8z"/>
				<path id="Path_4699" class="st16" d="M51.1,13.6c1.8,1,1.4,0.9,3.2,1.8c0.3,0.2,0.3,0.4,0,0.5l-14.8,8.5c-0.3,0.2-0.6,0.2-0.9,0
					l-3.2-1.8c-0.3-0.2-0.3-0.4,0-0.5l14.8-8.6C50.6,13.4,50.8,13.5,51.1,13.6z"/>
				<path id="Path_4700" class="st17" d="M78,39.6l-1.1,0.6l-1.1,0.6l-1.1,0.6l-1,0.6l-1.1,0.6l-1.1,0.6l-1,0.6l-1.1,0.6L68.3,45
					l-1,0.5l-1,0.6l-1,0.6l-1,0.5l-1,0.6l-1,0.5l-1,0.6l-1,0.5l-1,0.6l-1,0.5l-1.1,0.4l-1,0.5L55.1,52l-1,0.6L53,53.2l-1,0.5
					l-1.1,0.6l-1.1,0.6L49.6,56l-1.1,0.6l-1.1,0.6l-1.1,0.6l-1.1,0.6l-0.3,0.2l-0.4,0.2l-0.4,0.1L43.7,59v0l-0.4,0.1l-0.4,0.1h-0.4
					V46.9l0.4-0.1h0.4l0.4-0.1l0.4-0.1l0.4-0.1l0.4-0.1l0.4-0.2l0.3-0.2l1.1-0.6l1.1-0.6l1.1-0.6l1.1-0.6l1.1-0.6l1.1-0.6l1.1-0.6
					l1-0.6l1.1-0.6l1-0.5l1-0.6l1-0.6l1-0.5l1-0.6l1-0.5l1-0.6l1-0.5l1-0.6l1-0.5l1-0.6l1-0.5l1-0.6l1-0.6l1.1-0.6l1.1-0.5l1-0.6
					l1.1-0.6l1.1-0.6l1.1-0.6l1.1-0.6l1.1-0.6l1.1-0.6l0.5-0.4l0.4-0.4l0.2-0.4l0.1-0.4v12.3l0.2,0.4L80.4,39L80,39.4L78,39.6z"/>
				<path id="Path_4701" class="st18" d="M17.5,30.1v1.7l1.8,1v-1.7L17.5,30.1z"/>
				<path id="Path_4702" class="st19" d="M19.2,31.1v1.7l12.9-7.5v-1.7L19.2,31.1z"/>
				<path id="Path_4703" class="st20" d="M30.5,22.5l-13,7.5l1.8,1l13-7.5L30.5,22.5z"/>
				<g id="Group_2407" transform="translate(7.084)">
					<path id="Path_4704" class="st21" d="M14,33.2l-1-0.6v-21l0.4,0.2l0.7-0.4l0.7-1.2l0.7,0.4l0.8-0.4L17,9l0.6,0.4L18.4,9L19,7.8
						l0.7,0.4l0.8-0.4l0.7-1.1l0.7,0.4l0.8-0.4l0.7-1.1L24,5.7l0.7-0.4L24.9,5l1,0.6l-0.2,0.3L25,6.2l-0.7-0.4L23.6,7l-0.8,0.4
						L22.1,7l-0.6,1.2l-0.8,0.4L20,8.4l-0.7,1.1L18.5,10l-0.6-0.4l-0.7,1.1l-0.8,0.4l-0.7-0.4L15,12l-0.7,0.4L14,12.2V33.2L14,33.2z
						"/>
					<path id="Path_4705" class="st22" d="M25.8,10.6v15.5L25.6,26L25,26.4l-0.7,1.1l-0.7-0.4l-0.8,0.4l-0.7,1.1l-0.7-0.4l-0.8,0.4
						L20,30.1l-0.7-0.4l-0.7,0.4l-0.8,1.1L17.1,31l-0.8,0.4l-0.7,1.1L15,32.2l-0.7,0.4L14,33.2v-21l0.4,0.2L15,12l0.7-1.1l0.7,0.4
						l0.8-0.4l0.7-1.1l0.7,0.4l0.7-0.4L20,8.4l0.7,0.4l0.8-0.4l0.7-1.1l0.7,0.4l0.8-0.4l0.6-1.2L25,6.2l0.6-0.4l0.2-0.3
						C25.8,5.6,25.8,10.6,25.8,10.6z"/>
					<path id="Path_4706" class="st23" d="M15.5,20l8.3-4.7v0.4l-8.3,4.7C15.5,20.4,15.5,20,15.5,20z"/>
					<path id="Path_4707" class="st23" d="M15.5,22l8.9-5.2v0.4l-8.9,5.2V22z"/>
					<path id="Path_4708" class="st23" d="M15.5,24.2l7.1-4v0.4l-7.1,4.1C15.5,24.6,15.5,24.2,15.5,24.2z"/>
					<path id="Path_4709" class="st23" d="M15.5,29.1l3.5-2v0.4l-3.5,2.1V29.1z"/>
					<path id="Path_4710" class="st23" d="M22.6,25l1.8-1v0.4l-1.8,1.1V25z"/>
					<path id="Path_4711" class="st23" d="M15.5,13.8l2.7-1.6v0.4l-2.7,1.7C15.5,14.3,15.5,13.8,15.5,13.8z"/>
					<path id="Path_4712" class="st23" d="M21.4,10.4l3-1.8V9l-3,1.8V10.4z"/>
					<path id="Path_4713" class="st23" d="M15.5,15.7l5-2.9v0.4l-5,2.9C15.5,16.1,15.5,15.7,15.5,15.7z"/>
					<path id="Path_4714" class="st23" d="M23.5,11.1l0.9-0.5V11l-0.9,0.5V11.1z"/>
				</g>
				<path id="Path_4715" class="st18" d="M20.7,31.9v1.7l1.8,1v-1.7L20.7,31.9z"/>
				<path id="Path_4716" class="st19" d="M22.4,32.9v1.7l13-7.5v-1.7L22.4,32.9z"/>
				<path id="Path_4717" class="st20" d="M33.6,24.5L20.7,32l1.8,1l13-7.5L33.6,24.5z"/>
				<path id="Path_4718" class="st24" d="M54.3,15.9L54.3,15.9l-14.8,8.6c-0.3,0.2-0.6,0.2-0.9,0l-3.2-1.8l0,0L50.3,14
					c0.3-0.2,0.6-0.2,0.9,0C52.9,15,52.6,14.9,54.3,15.9L54.3,15.9z"/>
				<path id="Path_4719" class="st17" d="M51.9,17l1.5-0.9l0,0c0.2-0.1,0.2-0.3,0-0.3L51,14.5l0,0c-0.2-0.1-0.4-0.1-0.5,0L49,15.4
					l0,0c-0.2,0.1-0.2,0.3,0,0.3l2.4,1.4l0,0C51.5,17.1,51.7,17.1,51.9,17z M52.5,16.1l-1,0.5l-1.8-1.1l1-0.5L52.5,16.1z"/>
				<g id="Group_2408" transform="translate(33.008 16.329)">
					<path id="Path_4720" class="st25" d="M17.8,9.1v0.7v0.1L17.7,10l-0.1,0.1l-3.5,2H14l0,0l-0.2,0.1h-0.2l-0.1-0.1h-0.2h-0.1
						L10,10.2l-0.1-0.1l0,0L9.8,10V9.3l0.1,0.1L10,9.5l0.1,0.1l3.2,1.9v-0.1h0.2l0.1,0.1h0.2l0.2-0.1l0,0l0.1-0.1l3.5-2h0.1
						L17.8,9.1L17.8,9.1L17.8,9.1z"/>
					<path id="Path_4721" class="st25" d="M38.5,9v0.9L38.4,10h-0.1l-3.5,2l-0.1,0.1l-0.2,0.1h-0.4L34,12.1V12l-3.3-2l-0.1-0.1
						l-0.1-0.1l-0.1-0.1V9.1l0.1,0.1l0.1,0.1l0.1,0.1l3.3,1.9l0.1,0.1h0.1l0.1,0.1h0.3l0.1-0.1h0.2l0.1-0.1l3.5-2V9.1L38.5,9L38.5,9
						L38.5,9z"/>
					<path id="Path_4722" class="st25" d="M33.3,11.9v0.8l-0.1,0.1l-0.1,0.1L33,13l-3.5,2.1l-0.1,0.1h-0.1l-0.1,0.1H29l-0.1-0.1
						h-0.2l-0.1-0.1l-3.3-1.9l-0.1-0.1L25.1,13L25,12.9v-0.8l0.1,0.1l0.1,0.1l0.1,0.1l3.3,1.8l0.1,0.1l0.2,0.1H29h0.2l0.2-0.1h0.1
						l0.1-0.1l0.1-0.1l3.5-2L33.3,11.9L33.3,11.9L33.3,11.9L33.3,11.9z"/>
					<path id="Path_4723" class="st25" d="M28,15v0.7l-0.1,0.1l-0.1,0.1L27.7,16l-3.5,2l-0.1,0.1L24,18.2h-0.4l-0.1-0.1L23.4,18
						l-3.3-1.8L20,16.1L19.9,16v-0.7l0.1,0.1l0.1,0.1l3.3,1.9l0.1,0.1l0.1,0.1H24l0.1-0.1l0.1-0.1l3.5-2l0.1-0.1l0.1-0.1L28,15
						L28,15z"/>
					<path id="Path_4724" class="st25" d="M33.4,6v0.8l-0.1,0.1L33.2,7h0l-3.5,2l-0.1,0.1l-0.1,0.1h-0.1l-0.1-0.1L29.1,9H29l0,0
						l-0.1-0.1l-3.2-1.8L25.5,7l-0.1-0.1V6.2l0.1,0.1l0.1,0.1l3.2,1.8L29,8.3v0.1h0.4l0.1-0.1l0.2-0.1l3.5-2l0.1-0.1L33.4,6L33.4,6
						L33.4,6z"/>
					<path id="Path_4725" class="st25" d="M28.2,9v0.7l-0.1,0.1v0.1L28,10l0,0l-3.5,2l-0.1,0.1l-0.1,0.1h-0.5l-0.1-0.1L23.6,12
						l-3.2-1.9L20.3,10h-0.1l-0.1-0.1V9.2l0.1,0.1l0.1,0.1h0.1l3.2,1.9l0.1,0.1h0.1l0.2,0.1h0.2l0.2-0.1h0.1l0.1-0.1l3.5-2l0.1-0.1
						L28.2,9L28.2,9L28.2,9z"/>
					<path id="Path_4726" class="st25" d="M22.9,12v0.8l-0.1,0.1L22.7,13l-0.1,0.1l-3.5,2.1H19v0.1h-0.1l-0.2,0.1l-0.1-0.1l0,0
						l-0.1-0.1h-0.1l-3.3-2L15,13.1L14.9,13v-0.1l-0.1-0.1v-0.6l0.1,0.1v0.1l0.1,0.1h0.1l3.3,1.8l0.1,0.1h0.1H19l0.1-0.1l0.1-0.1
						l3.5-2L22.9,12L22.9,12L22.9,12L22.9,12z"/>
					<path id="Path_4727" class="st25" d="M28.3,3.1v0.8h-0.1V4h0l-3.5,2l-0.1,0.1h-0.1l-0.1,0.1h-0.3H24l0,0l-0.1-0.1l-3.3-1.9
						L20.5,4h-0.1l0,0V3.9V3.2v0.1v0.1l0.1,0.1l0.1,0.1l3.3,1.9l0.1,0l0,0l0.1,0.1h0.3l0.1-0.1h0.1l0.1-0.1l3.5-2.1l0.1-0.1
						L28.3,3.1L28.3,3.1L28.3,3.1z"/>
					<path id="Path_4728" class="st25" d="M23.1,6.1v0.8H23l0,0L22.9,7l-3.5,2l-0.1,0.1h-0.1h-0.4h-0.2L18.5,9l-3.2-1.8l-0.1-0.1V7
						l-0.1-0.1V6.3l0.1,0.1l0.1,0.1l0,0l3.3,1.8v0.1l0.1,0.1h0.4l0.1-0.1l0.1-0.1l3.5-2H23V6.2L23.1,6.1L23.1,6.1z"/>
				</g>
				<path id="Path_4729" class="st26" d="M43,25.4l3.5-2c0.3-0.2,0.6-0.2,0.9,0l3.3,1.9c0.3,0.2,0.3,0.4,0,0.5l-3.5,2
					c-0.3,0.2-0.6,0.2-0.9,0L43,25.9C42.8,25.7,42.8,25.4,43,25.4z M63.6,25.1l3.5-2c0.3-0.2,0.6-0.2,0.9,0l3.3,1.9
					c0.3,0.2,0.3,0.4,0,0.5l-3.5,2c-0.3,0.2-0.6,0.2-0.9,0l-3.3-1.9c-0.2-0.1-0.2-0.3-0.1-0.4C63.5,25.2,63.6,25.2,63.6,25.1z
					 M58.5,28.2c-0.3,0.2-0.3,0.4,0,0.5l3.3,1.9c0.3,0.2,0.6,0.2,0.9,0l3.5-2c0.3-0.2,0.3-0.4,0-0.5l-3.3-1.9
					c-0.3-0.2-0.6-0.2-0.9,0L58.5,28.2z M53.2,31.2l3.5-2c0.3-0.2,0.6-0.2,0.9,0l3.3,1.9c0.3,0.2,0.3,0.4,0,0.5l-3.5,2
					c-0.3,0.2-0.6,0.2-0.9,0l-3.3-1.9C52.9,31.6,52.9,31.3,53.2,31.2z M58.6,22.2c-0.3,0.2-0.3,0.4,0,0.5l3.3,1.9
					c0.3,0.2,0.6,0.2,0.9,0l3.5-2c0.3-0.2,0.3-0.4,0-0.5L63,20.2c-0.3-0.2-0.6-0.2-0.9,0L58.6,22.2L58.6,22.2z M53.4,25.3l3.5-2
					c0.3-0.2,0.6-0.2,0.9,0l3.3,1.9c0.3,0.2,0.3,0.4,0,0.5l-3.5,2c-0.3,0.2-0.6,0.2-0.9,0l-3.3-2C53.1,25.6,53.1,25.4,53.4,25.3z
					 M48.1,28.2c-0.3,0.2-0.3,0.4,0,0.5l3.3,1.9c0.3,0.2,0.6,0.2,0.9,0l3.5-2c0.3-0.2,0.3-0.4,0-0.5l-3.3-1.9
					c-0.3-0.2-0.6-0.2-0.9,0L48.1,28.2z M53.5,19.3l3.5-2c0.3-0.2,0.6-0.2,0.9,0l3.3,1.9c0.3,0.2,0.3,0.4,0,0.5l-3.5,2
					c-0.3,0.2-0.6,0.2-0.9,0l-3.3-1.9C53.3,19.6,53.3,19.4,53.5,19.3z M48.3,22.3c-0.3,0.2-0.3,0.4,0,0.5l3.3,1.9
					c0.3,0.2,0.6,0.2,0.9,0l3.5-2c0.3-0.2,0.3-0.4,0-0.5l-3.3-1.9c-0.3-0.2-0.6-0.2-0.9,0L48.3,22.3z"/>
			</g>
		</g>
		<g id="Group_2425" transform="translate(105 -1056.828)">
			<g class="st27">
				<path class="st28" d="M593.8,1576h3.5l3.2,8.8h0.1l3.2-8.8h3.5v12.4H605v-10h0l-3.8,10h-1.5l-3.7-10h0v10h-2.1V1576z"/>
				<path class="st28" d="M612.9,1583l-4.7-7h2.7l3.1,5.2l3.2-5.2h2.6l-4.7,7v5.4h-2.2V1583z"/>
			</g>
			<g class="st27">
				<path class="st28" d="M594.1,1598.4h4.3l4,11h0.1l4-11h4.3v15.5h-2.7v-12.5h0l-4.7,12.5h-1.9l-4.6-12.5h0v12.5h-2.6V1598.4z"/>
				<path class="st28" d="M626.7,1608.2c0,0.9-0.2,1.8-0.5,2.5c-0.3,0.8-0.8,1.4-1.3,1.9s-1.2,0.9-2,1.2c-0.8,0.3-1.6,0.4-2.5,0.4
					s-1.7-0.1-2.5-0.4c-0.8-0.3-1.4-0.7-2-1.2c-0.6-0.5-1-1.2-1.3-1.9c-0.3-0.8-0.5-1.6-0.5-2.5v-9.8h2.8v9.7c0,0.5,0.1,0.9,0.2,1.3
					c0.1,0.4,0.3,0.8,0.6,1.2c0.3,0.4,0.6,0.6,1.1,0.9c0.4,0.2,1,0.3,1.7,0.3c0.7,0,1.2-0.1,1.7-0.3c0.4-0.2,0.8-0.5,1.1-0.9
					c0.3-0.4,0.5-0.7,0.6-1.2c0.1-0.4,0.2-0.9,0.2-1.3v-9.7h2.8V1608.2z M616.7,1595.4c0-0.4,0.1-0.8,0.4-1.1
					c0.3-0.3,0.7-0.5,1.1-0.5s0.8,0.1,1.1,0.4c0.3,0.3,0.5,0.7,0.5,1.1c0,0.4-0.2,0.8-0.5,1.1c-0.3,0.3-0.7,0.4-1.1,0.4
					s-0.8-0.2-1.1-0.5C616.9,1596.2,616.7,1595.8,616.7,1595.4z M621,1595.4c0-0.4,0.1-0.8,0.4-1.1c0.3-0.3,0.7-0.5,1.1-0.5
					s0.8,0.1,1.1,0.4c0.3,0.3,0.5,0.7,0.5,1.1c0,0.4-0.2,0.8-0.5,1.1c-0.3,0.3-0.7,0.4-1.1,0.4s-0.8-0.2-1.1-0.5
					C621.2,1596.2,621,1595.8,621,1595.4z"/>
				<path class="st28" d="M637.9,1601.6c-0.3-0.4-0.7-0.7-1.2-1c-0.5-0.3-1.1-0.4-1.6-0.4c-0.3,0-0.6,0-1,0.1
					c-0.3,0.1-0.6,0.2-0.9,0.4c-0.3,0.2-0.5,0.4-0.6,0.7s-0.3,0.6-0.3,1c0,0.4,0.1,0.7,0.2,0.9c0.1,0.2,0.3,0.5,0.6,0.6
					c0.3,0.2,0.6,0.3,0.9,0.5c0.4,0.1,0.8,0.3,1.2,0.4c0.5,0.2,1,0.3,1.5,0.5c0.5,0.2,1,0.5,1.5,0.8c0.4,0.3,0.8,0.8,1.1,1.3
					s0.4,1.1,0.4,1.9c0,0.8-0.2,1.6-0.5,2.2c-0.3,0.6-0.7,1.1-1.2,1.5s-1.1,0.7-1.8,0.9c-0.7,0.2-1.4,0.3-2.2,0.3c-1,0-2-0.2-3-0.6
					c-1-0.4-1.8-0.9-2.4-1.7l2-1.8c0.4,0.5,0.9,0.9,1.5,1.2s1.3,0.5,1.9,0.5c0.3,0,0.7,0,1-0.1c0.3-0.1,0.6-0.2,0.9-0.4
					c0.3-0.2,0.5-0.4,0.7-0.7c0.2-0.3,0.3-0.6,0.3-1.1c0-0.4-0.1-0.7-0.3-1c-0.2-0.3-0.4-0.5-0.8-0.7s-0.7-0.4-1.1-0.5
					c-0.4-0.1-0.9-0.3-1.4-0.5c-0.5-0.1-0.9-0.3-1.4-0.5c-0.5-0.2-0.9-0.5-1.3-0.8c-0.4-0.3-0.7-0.7-0.9-1.2
					c-0.2-0.5-0.4-1.1-0.4-1.8c0-0.8,0.2-1.5,0.5-2c0.3-0.6,0.8-1,1.3-1.4c0.5-0.4,1.1-0.7,1.8-0.8s1.4-0.3,2.1-0.3
					c0.8,0,1.6,0.1,2.4,0.4s1.5,0.7,2.1,1.2L637.9,1601.6z"/>
				<path class="st28" d="M645.3,1600.8h-4.8v-2.4h12.3v2.4h-4.8v13.1h-2.8V1600.8z"/>
				<path class="st28" d="M658.2,1598.4h2.4l6.7,15.5h-3.2l-1.4-3.6h-6.7l-1.4,3.6h-3.1L658.2,1598.4z M661.7,1608l-2.4-6.3
					l-2.4,6.3H661.7z"/>
				<path class="st28" d="M668.8,1598.4h2.8v6.3h7.3v-6.3h2.8v15.5h-2.8v-6.9h-7.3v6.9h-2.8V1598.4z"/>
				<path class="st28" d="M692.9,1601.6c-0.3-0.4-0.7-0.7-1.2-1c-0.5-0.3-1.1-0.4-1.6-0.4c-0.3,0-0.6,0-1,0.1
					c-0.3,0.1-0.6,0.2-0.9,0.4c-0.3,0.2-0.5,0.4-0.6,0.7s-0.3,0.6-0.3,1c0,0.4,0.1,0.7,0.2,0.9c0.1,0.2,0.3,0.5,0.6,0.6
					c0.3,0.2,0.6,0.3,0.9,0.5c0.4,0.1,0.8,0.3,1.2,0.4c0.5,0.2,1,0.3,1.5,0.5c0.5,0.2,1,0.5,1.5,0.8c0.4,0.3,0.8,0.8,1.1,1.3
					s0.4,1.1,0.4,1.9c0,0.8-0.2,1.6-0.5,2.2c-0.3,0.6-0.7,1.1-1.2,1.5s-1.1,0.7-1.8,0.9c-0.7,0.2-1.4,0.3-2.2,0.3c-1,0-2-0.2-3-0.6
					c-1-0.4-1.8-0.9-2.4-1.7l2-1.8c0.4,0.5,0.9,0.9,1.5,1.2s1.3,0.5,1.9,0.5c0.3,0,0.7,0,1-0.1c0.3-0.1,0.6-0.2,0.9-0.4
					c0.3-0.2,0.5-0.4,0.7-0.7c0.2-0.3,0.3-0.6,0.3-1.1c0-0.4-0.1-0.7-0.3-1c-0.2-0.3-0.4-0.5-0.8-0.7s-0.7-0.4-1.1-0.5
					c-0.4-0.1-0.9-0.3-1.4-0.5c-0.5-0.1-0.9-0.3-1.4-0.5c-0.5-0.2-0.9-0.5-1.3-0.8c-0.4-0.3-0.7-0.7-0.9-1.2
					c-0.2-0.5-0.4-1.1-0.4-1.8c0-0.8,0.2-1.5,0.5-2c0.3-0.6,0.8-1,1.3-1.4c0.5-0.4,1.1-0.7,1.8-0.8s1.4-0.3,2.1-0.3
					c0.8,0,1.6,0.1,2.4,0.4s1.5,0.7,2.1,1.2L692.9,1601.6z"/>
				<path class="st28" d="M697.3,1595.4c0-0.4,0.2-0.8,0.5-1.1s0.7-0.5,1.2-0.5s0.9,0.2,1.2,0.5c0.3,0.3,0.5,0.7,0.5,1.1
					s-0.2,0.8-0.5,1.1c-0.3,0.3-0.7,0.5-1.2,0.5s-0.9-0.2-1.2-0.5S697.3,1595.8,697.3,1595.4z M697.6,1598.4h2.8v15.5h-2.8V1598.4z"
					/>
				<path class="st28" d="M703.8,1598.4h2.8v13.1h6.6v2.5h-9.4V1598.4z"/>
			</g>
			<g class="st27">
				<path class="st28" d="M594.1,1619.4h4.3l4,11h0.1l4-11h4.3v15.5h-2.7v-12.5h0l-4.7,12.5h-1.9l-4.6-12.5h0v12.5h-2.6V1619.4z"/>
				<path class="st28" d="M619.2,1619.4h2.4l6.7,15.5h-3.2l-1.4-3.6h-6.7l-1.4,3.6h-3.1L619.2,1619.4z M622.7,1629l-2.4-6.3
					l-2.4,6.3H622.7z"/>
				<path class="st28" d="M629.8,1619.4h2.8v6.7h0.1l6.5-6.7h3.7l-7.3,7.2l7.7,8.4h-3.9l-6.8-7.8h-0.1v7.8h-2.8V1619.4z"/>
				<path class="st28" d="M644.9,1619.4h6.1c0.6,0,1.2,0.1,1.7,0.2s1.1,0.4,1.5,0.7c0.4,0.3,0.8,0.7,1.1,1.2
					c0.3,0.5,0.4,1.1,0.4,1.8c0,0.9-0.2,1.6-0.7,2.2s-1.1,1-2,1.2v0c1,0.1,1.8,0.5,2.4,1.1c0.6,0.6,0.9,1.5,0.9,2.5
					c0,0.8-0.2,1.6-0.5,2.1c-0.3,0.6-0.8,1-1.3,1.4c-0.5,0.4-1.2,0.6-1.9,0.8s-1.4,0.2-2.2,0.2h-5.6V1619.4z M647.7,1625.7h2.5
					c0.9,0,1.6-0.2,2.1-0.5s0.7-0.9,0.7-1.6c0-0.7-0.2-1.2-0.7-1.5c-0.5-0.3-1.3-0.4-2.3-0.4h-2.2V1625.7z M647.7,1632.6h2.5
					c0.4,0,0.7,0,1.1-0.1c0.4-0.1,0.8-0.2,1.1-0.3s0.6-0.4,0.9-0.7s0.3-0.7,0.3-1.2c0-0.8-0.3-1.4-0.8-1.7c-0.6-0.3-1.4-0.5-2.5-0.5
					h-2.6V1632.6z"/>
				<path class="st28" d="M671.5,1629.2c0,0.9-0.2,1.8-0.5,2.5c-0.3,0.8-0.8,1.4-1.3,1.9s-1.2,0.9-2,1.2c-0.8,0.3-1.6,0.4-2.5,0.4
					s-1.7-0.1-2.5-0.4c-0.8-0.3-1.4-0.7-2-1.2c-0.6-0.5-1-1.2-1.3-1.9c-0.3-0.8-0.5-1.6-0.5-2.5v-9.8h2.8v9.7c0,0.5,0.1,0.9,0.2,1.3
					c0.1,0.4,0.3,0.8,0.6,1.2c0.3,0.4,0.6,0.6,1.1,0.9c0.4,0.2,1,0.3,1.7,0.3c0.7,0,1.2-0.1,1.7-0.3c0.4-0.2,0.8-0.5,1.1-0.9
					c0.3-0.4,0.5-0.7,0.6-1.2c0.1-0.4,0.2-0.9,0.2-1.3v-9.7h2.8V1629.2z"/>
				<path class="st28" d="M673.8,1632.4l8.4-10.6h-8.3v-2.4h11.6v2.5l-8.5,10.6h8.6v2.5h-11.9V1632.4z"/>
				<path class="st28" d="M700.5,1629.2c0,0.9-0.2,1.8-0.5,2.5c-0.3,0.8-0.8,1.4-1.3,1.9s-1.2,0.9-2,1.2c-0.8,0.3-1.6,0.4-2.5,0.4
					s-1.7-0.1-2.5-0.4c-0.8-0.3-1.4-0.7-2-1.2c-0.6-0.5-1-1.2-1.3-1.9c-0.3-0.8-0.5-1.6-0.5-2.5v-9.8h2.8v9.7c0,0.5,0.1,0.9,0.2,1.3
					c0.1,0.4,0.3,0.8,0.6,1.2c0.3,0.4,0.6,0.6,1.1,0.9c0.4,0.2,1,0.3,1.7,0.3c0.7,0,1.2-0.1,1.7-0.3c0.4-0.2,0.8-0.5,1.1-0.9
					c0.3-0.4,0.5-0.7,0.6-1.2c0.1-0.4,0.2-0.9,0.2-1.3v-9.7h2.8V1629.2z"/>
			</g>
		</g>
	</g>
</g>
</svg>
