<?xml version="1.0" encoding="utf-8"?>
<!-- Generator: Adobe Illustrator 22.1.0, SVG Export Plug-In . SVG Version: 6.00 Build 0)  -->
<svg version="1.1" id="Layer_1" xmlns="http://www.w3.org/2000/svg" xmlns:xlink="http://www.w3.org/1999/xlink" x="0px" y="0px"
	 viewBox="0 0 144.7 166.2" style="enable-background:new 0 0 144.7 166.2;" xml:space="preserve">
<style type="text/css">
	.st0{fill:#2C3E50;}
	.st1{fill:#34485C;}
	.st2{fill:#849CC9;}
	.st3{fill:#3D566E;}
	.st4{fill:#5E5E69;}
	.st5{fill:#737380;}
	.st6{fill:#80808F;}
	.st7{fill:#A6AEB3;}
	.st8{fill:#E6EAEB;}
	.st9{fill:#676775;}
	.st10{fill:#B4CCFA;}
	.st11{fill:#CCCCCC;}
	.st12{fill:#E6E6E6;}
	.st13{enable-background:new    ;}
	.st14{fill:#1F1E1E;}
</style>
<g id="Group_2693" transform="translate(-587.245 -580)">
	<g id="Group_2466" transform="translate(-19 71.013)">
		<g id="Group_2410" transform="translate(606.283 509.198)">
			<g id="Group_2409" transform="translate(2.495)">
				<g id="Group_2406" transform="translate(0.014 23.511)">
					<path id="Path_4696" class="st0" d="M106.4,3.6v14l-0.1,0.5l-0.2,0.4l-0.4,0.4l-0.6,0.4v-14l0.6-0.4l0.4-0.4l0.2-0.4L106.4,3.6
						z"/>
					<path id="Path_4697" class="st0" d="M105.1,5.4v14l-1.3,0.7l-1.2,0.7l-1.2,0.7l-1.2,0.7L99,22.9l-1.2,0.7l-1.1,0.7L95.5,25
						l-1.2,0.7l-1.1,0.6L92,26.9l-1.1,0.7l-1.1,0.6l-1.1,0.7l-1.1,0.6l-1.1,0.7l-1.1,0.6l-1.1,0.7l-1.1,0.6l-1.1,0.7L81,33.4
						l-1.1,0.7l-1.1,0.7l-1.2,0.7l-1.1,0.6l-1.2,0.7l-1.2,0.7l-1.2,0.7l-1.2,0.7l-1.4,0.6L69,40.2l-1.2,0.7l-0.3,0.2l-0.4,0.2
						l-0.4,0.1l-0.4,0.1h-0.4l-0.4,0.1l-0.4,0.1h-0.8l-0.4-0.1l-0.5-0.1h-0.5l-0.4-0.1l-0.3-0.1l-0.4-0.2l-0.3-0.2l-1-0.6l-1-0.6
						l-1-0.6l-1-0.6l-0.9-0.6l-0.9-0.5l-0.9-0.5l-0.9-0.5L53,36l-0.8-0.4l-0.8-0.5l-0.8-0.4l-0.8-0.5L49,33.7l-0.8-0.4l-0.8-0.4
						l-0.8-0.4l-0.8-0.4L45,31.4L44.2,31l-0.8-0.5L42.6,30l-0.9-0.5L40.9,29L40,28.5L39.1,28l-0.9-0.5L37.3,27l-1-0.6l-1-0.6l-1-0.6
						l-1.1-0.6l-0.6-0.4l-0.4-0.4L32,23.3v-0.4v-14l0.1,0.5l0.2,0.4l0.4,0.4l0.6,0.4l1.1,0.6l1,0.6l1,0.6l1,0.6l1,0.5l0.9,0.5
						l0.7,0.5l0.8,0.5l0.9,0.5l0.8,0.5l0.8,0.4l0.8,0.5l0.8,0.4l0.8,0.4l0.8,0.4l0.8,0.4l0.8,0.5l0.8,0.4l0.8,0.4l0.8,0.4l0.8,0.5
						l0.8,0.4l0.8,0.5l0.8,0.4l0.9,0.5l0.9,0.5l0.9,0.6l0.9,0.5l1,0.6l1,0.6l1,0.6l1,0.6l0.3,0.2l0.4,0.2l0.3,0.1l0.4,0.1l0.4,0.1
						l0.4,0.1h0.4l0.4,0.1l0.4-0.1h0.4l0.4-0.1l0.4-0.1l0.4-0.1l0.4-0.1l0.4-0.2l0.3-0.2l1.2-0.7l1.2-0.7l1.2-0.7l1.2-0.7l1.2-0.7
						l1.2-0.7l1.2-0.7l1.1-0.7l1.2-0.7l1.1-0.6l1.1-0.7l1.1-0.7l1.1-0.6l1.1-0.7l1.1-0.6l1.1-0.7l1.1-0.6l1.1-0.7l1.1-0.6l1.8-0.2
						l1.1-0.6l1.1-0.7l1.1-0.7l1.2-0.7l1.2-0.6l1.1-0.7l1.2-0.7l1.2-0.7l1.3-0.6l1.2-0.7l1.2-0.7L105.1,5.4z"/>
				</g>
				<path id="Path_4698" class="st1" d="M70.6,9c2-1,4.3-1,6.3,0c11.4,6.6,16.8,9.7,28.2,16.3c1.7,1,1.7,2.6,0,3.6
					c-13.6,7.8-23.8,13.8-37.3,21.6c-2,1-4.3,1-6.3,0C50.2,44,44.6,40.7,33.3,34.2c-1.7-1-1.7-2.6,0-3.6C39.6,26.9,56.6,17.1,70.6,9
					z"/>
				<path id="Path_4699" class="st2" d="M74.4,13.3c2,1.1,1.6,1,3.6,2.1c0.3,0.2,0.3,0.4,0,0.6l-16.9,9.7c-0.3,0.2-0.7,0.2-1,0
					l-3.6-2.1c-0.3-0.2-0.3-0.4,0-0.6l16.9-9.8C73.8,13.1,74.1,13.2,74.4,13.3z"/>
				<path id="Path_4700" class="st3" d="M105.1,42.9l-1.3,0.7l-1.2,0.7l-1.2,0.7l-1.2,0.7L99,46.4l-1.2,0.7l-1.1,0.7l-1.2,0.7
					l-1.2,0.7l-1.1,0.6l-1.1,0.7L91,51.2l-1.1,0.6l-1.1,0.7l-1.1,0.6l-1.1,0.7l-1.1,0.6l-1.1,0.7l-1.1,0.6L82,56.2l-1.1,0.6
					l-1.2,0.7l-1.1,0.7l-1.2,0.7l-1.1,0.6l-1.2,0.7l-1.2,0.7l-1.2,0.7l-1.2,0.7L70.3,63l-1.2,0.7l-1.2,0.7l-0.3,0.2l-0.4,0.2
					l-0.4,0.1L66.4,65L66,65.1l-0.4,0.1l-0.5,0.1h-0.4v-14l0.4-0.1h0.5l0.4-0.1l0.4-0.1l0.4-0.1l0.4-0.1l0.4-0.2l0.3-0.2l1.2-0.7
					l1.2-0.7l1.2-0.7l1.2-0.7l1.2-0.7l1.2-0.7l1.2-0.7l1.1-0.7l1.2-0.7l1.1-0.6l1.1-0.7l1.1-0.7l1.1-0.6l1.1-0.7l1.1-0.6l1.1-0.7
					l1.1-0.6l1.1-0.7l1.1-0.6l1.1-0.7l1.1-0.6l1.1-0.7l1.1-0.7l1.2-0.7l1.2-0.6l1.1-0.7l1.2-0.7l1.2-0.7l1.2-0.7l1.2-0.7l1.2-0.7
					l1.3-0.7l0.6-0.4l0.4-0.4l0.2-0.4l0.1-0.5v14l0.2,0.5l-0.2,0.5l-0.4,0.5L105.1,42.9z"/>
				<path id="Path_4701" class="st4" d="M36.1,32.1V34l2,1.1v-1.9L36.1,32.1z"/>
				<path id="Path_4702" class="st5" d="M38.1,33.2v1.9l14.7-8.6v-1.9L38.1,33.2z"/>
				<path id="Path_4703" class="st6" d="M50.9,23.5l-14.8,8.6l2,1.1l14.8-8.5L50.9,23.5z"/>
				<g id="Group_2407" transform="translate(7.084)">
					<path id="Path_4704" class="st7" d="M33.1,35.7L32,35V11.1l0.4,0.2l0.8-0.4L34,9.5l0.8,0.4l0.9-0.5l0.8-1.3l0.7,0.4L38.1,8
						l0.7-1.3l0.8,0.4l0.9-0.5l0.8-1.3l0.8,0.4L43,5.2l0.8-1.3l0.7,0.4l0.8-0.5l0.2-0.3l1.1,0.7l-0.2,0.3l-0.7,0.4l-0.8-0.4
						l-0.8,1.3l-0.9,0.5l-0.8-0.4l-0.7,1.4l-0.9,0.5L40,7.4l-0.8,1.3l-0.9,0.5l-0.7-0.4l-0.8,1.3l-0.9,0.5l-0.8-0.4l-0.8,1.3
						L33.5,12l-0.4-0.3V35.7L33.1,35.7z"/>
					<path id="Path_4705" class="st8" d="M46.6,9.9v17.7l-0.2-0.1l-0.7,0.4l-0.8,1.3l-0.8-0.4l-0.9,0.5l-0.8,1.3l-0.8-0.4l-0.9,0.5
						L40,32.1l-0.8-0.4l-0.8,0.5l-0.9,1.3l-0.8-0.4l-0.9,0.5L35,34.9l-0.7-0.4l-0.8,0.4l-0.4,0.7V11.7l0.4,0.2l0.8-0.4l0.8-1.3
						l0.8,0.4l0.9-0.5l0.8-1.3l0.8,0.4l0.8-0.5L40,7.4l0.8,0.4l0.9-0.5L42.5,6l0.8,0.4l0.9-0.5l0.7-1.4l0.8,0.4l0.7-0.4l0.2-0.3
						C46.6,4.2,46.6,9.9,46.6,9.9z"/>
					<path id="Path_4706" class="st9" d="M34.8,20.6l9.5-5.4v0.4L34.8,21V20.6z"/>
					<path id="Path_4707" class="st9" d="M34.8,22.9L45,17v0.5l-10.2,5.9V22.9z"/>
					<path id="Path_4708" class="st9" d="M34.8,25.4l8.1-4.6v0.4l-8.1,4.7C34.8,25.9,34.8,25.4,34.8,25.4z"/>
					<path id="Path_4709" class="st9" d="M34.8,31l4-2.3v0.4l-4,2.4V31z"/>
					<path id="Path_4710" class="st9" d="M42.9,26.3l2-1.1v0.4l-2,1.2V26.3z"/>
					<path id="Path_4711" class="st9" d="M34.8,13.5l3.1-1.8v0.4L34.8,14V13.5z"/>
					<path id="Path_4712" class="st9" d="M41.5,9.6l3.4-2V8l-3.4,2V9.6z"/>
					<path id="Path_4713" class="st9" d="M34.8,15.7l5.7-3.3v0.4l-5.7,3.3C34.8,16.1,34.8,15.7,34.8,15.7z"/>
					<path id="Path_4714" class="st9" d="M43.9,10.4l1-0.6v0.4l-1,0.6V10.4z"/>
				</g>
				<path id="Path_4715" class="st4" d="M39.8,34.2v1.9l2,1.1v-1.9L39.8,34.2z"/>
				<path id="Path_4716" class="st5" d="M41.7,35.3v1.9l14.8-8.5v-1.9L41.7,35.3z"/>
				<path id="Path_4717" class="st6" d="M54.5,25.7l-14.7,8.5l2,1.1l14.8-8.5L54.5,25.7z"/>
				<path id="Path_4718" class="st10" d="M78.1,15.9L78.1,15.9l-16.9,9.8c-0.3,0.2-0.7,0.2-1,0l-3.6-2.1l0,0l16.9-9.8
					c0.3-0.2,0.7-0.2,1,0C76.5,14.9,76.1,14.8,78.1,15.9L78.1,15.9z"/>
				<path id="Path_4719" class="st3" d="M75.3,17.2l1.7-1l0,0c0.2-0.1,0.2-0.3,0-0.3l-2.7-1.6l0,0c-0.2-0.1-0.4-0.1-0.6,0l-1.7,1
					l0,0c-0.2,0.1-0.2,0.3,0,0.3l2.7,1.6l0,0C74.9,17.3,75.1,17.3,75.3,17.2z M76,16.1l-1.1,0.6l-2.1-1.2l1.1-0.6L76,16.1z"/>
				<g id="Group_2408" transform="translate(33.008 16.329)">
					<path id="Path_4720" class="st11" d="M41.1,10.5v0.8v0.1L41,11.5l-0.1,0.1l-4,2.3h-0.1h-0.1L36.5,14h-0.2l-0.1-0.1H36h-0.1
						l-3.7-2.2l-0.1-0.1l0,0L32,11.5v-0.8l0.1,0.1l0.1,0.1l0.1,0.1l3.7,2.2v-0.1h0.2l0.1,0.1h0.2l0.2-0.1h0.1l0.1-0.1l4-2.3H41
						L41.1,10.5L41.1,10.5L41.1,10.5z"/>
					<path id="Path_4721" class="st11" d="M64.7,10.3v1l-0.1,0.1l-0.1,0.1l-4,2.3l-0.1,0.1L60.2,14h-0.5l-0.1-0.1l-0.1-0.1l-3.8-2.3
						l-0.1-0.1l-0.1-0.1l-0.1-0.1v-0.7l0.1,0.1l0.1,0.1l0.1,0.1l3.8,2.2l0.1,0.1h0.1l0.1,0.1h0.3l0.1-0.1h0.2l0.1-0.1l4-2.3v-0.2
						L64.7,10.3L64.7,10.3L64.7,10.3z"/>
					<path id="Path_4722" class="st11" d="M58.7,13.7v0.9l-0.1,0.1l-0.1,0.1l-0.1,0.1l-4,2.4l-0.1,0.1h-0.1l-0.1,0.1h-0.3l-0.1-0.1
						h-0.2l-0.1-0.1l-3.8-2.2L49.5,15l-0.1-0.1l-0.1-0.1v-0.9l0.1,0.1l0.1,0.1l0.1,0.1l3.8,2.1l0.1,0.1l0.2,0.1h0.1H54l0.2-0.1h0.1
						l0.1-0.1l0.1-0.1l4-2.3L58.7,13.7L58.7,13.7l0.1-0.1L58.7,13.7z"/>
					<path id="Path_4723" class="st11" d="M52.7,17.2V18l-0.1,0.1l-0.1,0.1l-0.1,0.1l-4,2.3l-0.1,0.1l-0.1,0.1h-0.5l-0.1-0.1
						l-0.1-0.1l-3.8-2.1l-0.1-0.1l-0.1-0.1v-0.8l0.1,0.1l0.1,0.1l3.8,2.2l0.1,0.1l0.1,0.1h0.5l0.1-0.1l0.1-0.1l4-2.3l0.1-0.1
						l0.1-0.1L52.7,17.2L52.7,17.2z"/>
					<path id="Path_4724" class="st11" d="M58.9,6.9v0.9l-0.1,0.1L58.7,8l-0.1,0.1l-4,2.3l-0.1,0.1l-0.1,0.1h-0.1l-0.1-0.1L54,10.4
						h-0.1l-0.1-0.1l-0.1-0.1l-3.7-2l-0.1-0.1L49.8,8V7.2l0.1,0.1L50,7.4l3.7,2.1l0.1,0.1l0.1,0.1h0.5l0.1-0.1l0.2-0.1l4-2.3
						l0.1-0.1L58.9,6.9L58.9,6.9L58.9,6.9z"/>
					<path id="Path_4725" class="st11" d="M52.9,10.4v0.8l-0.1,0.1v0.1l-0.1,0.1l0,0l-4,2.3l-0.1,0.1L48.5,14h-0.6l-0.1-0.1
						l-0.1-0.1L44,11.6l-0.1-0.1h-0.1l-0.1-0.1v-0.8l0.1,0.1l0.1,0.1H44l3.7,2.2l0.1,0.1h0.1l0.2,0.1h0.2l0.2-0.1h0.1l0.1-0.1l4-2.3
						l0.1-0.1L52.9,10.4L52.9,10.4L52.9,10.4z"/>
					<path id="Path_4726" class="st11" d="M46.9,13.8v0.9l-0.1,0.1l-0.1,0.1L46.6,15l-4,2.4h-0.1l-0.1,0.1h-0.1l-0.2,0.1L42,17.5
						l0,0l-0.1-0.1h-0.1L38,15.1L37.9,15l-0.1-0.1v-0.1l-0.1-0.1V14l0.1,0.1v0.1l0.1,0.1H38l3.8,2.1l0.1,0.1H42h0.5l0.1-0.1l0.1-0.1
						l4-2.3L46.9,13.8L46.9,13.8l0.1-0.1L46.9,13.8z"/>
					<path id="Path_4727" class="st11" d="M53.1,3.6v0.9H53v0.1l-0.1,0.1l-4,2.3l-0.1,0.1h-0.1l-0.1,0.1h-0.3l-0.1-0.1h-0.1L48,7
						l-3.8-2.2l-0.1-0.1H44V4.6V4.5V3.7v0.1v0.1L44.1,4l0.1,0.1L48,6.3l0.1,0.1h0.1l0.1,0.1h0.3l0.1-0.1h0.1l0.1-0.1l4-2.4L53,3.8
						L53.1,3.6L53.1,3.6L53.1,3.6z"/>
					<path id="Path_4728" class="st11" d="M47.1,7v0.9L47,8l0,0l-0.1,0.1l-4,2.3l-0.1,0.1h-0.1h-0.5H42l-0.1-0.1l-3.7-2.1l-0.1-0.1
						V8.1L38,8V7.3l0.1,0.1l0.1,0.1l0,0L42,9.6v0.1l0.1,0.1h0.5l0.1-0.1l0.1-0.1l4-2.3H47V7.2L47.1,7L47.1,7z"/>
				</g>
				<path id="Path_4729" class="st12" d="M65.2,26.7l4-2.3c0.3-0.2,0.7-0.2,1,0l3.8,2.2c0.3,0.2,0.3,0.4,0,0.6l-4,2.3
					c-0.3,0.2-0.7,0.2-1,0l-3.8-2.2C65,27.1,65,26.8,65.2,26.7z M88.7,26.4l4-2.3c0.3-0.2,0.7-0.2,1,0l3.8,2.2
					c0.3,0.2,0.3,0.4,0,0.6l-4,2.3c-0.3,0.2-0.7,0.2-1,0L88.7,27c-0.2-0.1-0.2-0.3-0.1-0.4C88.6,26.5,88.7,26.5,88.7,26.4z
					 M82.8,29.9c-0.3,0.2-0.3,0.4,0,0.6l3.8,2.2c0.3,0.2,0.7,0.2,1,0l4-2.3c0.3-0.2,0.3-0.4,0-0.6l-3.8-2.2c-0.3-0.2-0.7-0.2-1,0
					L82.8,29.9z M76.8,33.4l4-2.3c0.3-0.2,0.7-0.2,1,0l3.8,2.2c0.3,0.2,0.3,0.4,0,0.6l-4,2.3c-0.3,0.2-0.7,0.2-1,0L76.8,34
					C76.5,33.8,76.5,33.5,76.8,33.4z M83,23.1c-0.3,0.2-0.3,0.4,0,0.6l3.8,2.2c0.3,0.2,0.7,0.2,1,0l4-2.3c0.3-0.2,0.3-0.4,0-0.6
					L88,20.8c-0.3-0.2-0.7-0.2-1,0L83,23.1L83,23.1z M77,26.6l4-2.3c0.3-0.2,0.7-0.2,1,0l3.8,2.2c0.3,0.2,0.3,0.4,0,0.6l-4,2.3
					c-0.3,0.2-0.7,0.2-1,0L77,27.1C76.7,27,76.7,26.7,77,26.6z M71,30c-0.3,0.2-0.3,0.4,0,0.6l3.8,2.2c0.3,0.2,0.7,0.2,1,0l4-2.3
					c0.3-0.2,0.3-0.4,0-0.6L76,27.7c-0.3-0.2-0.7-0.2-1,0L71,30z M77.2,19.8l4-2.3c0.3-0.2,0.7-0.2,1,0l3.8,2.2
					c0.3,0.2,0.3,0.4,0,0.6l-4,2.3c-0.3,0.2-0.7,0.2-1,0l-3.8-2.2C76.9,20.2,76.9,19.9,77.2,19.8z M71.2,23.2
					c-0.3,0.2-0.3,0.4,0,0.6L75,26c0.3,0.2,0.7,0.2,1,0l4-2.3c0.3-0.2,0.3-0.4,0-0.6l-3.8-2.2c-0.3-0.2-0.7-0.2-1,0L71.2,23.2z"/>
			</g>
		</g>
		<g id="Group_2425" transform="translate(105 -1056.828)">
			<g class="st13">
				<path class="st14" d="M558.9,1654h3.9l3.7,10.1h0.1l3.6-10.1h4v14.2h-2.5v-11.4h0l-4.3,11.4h-1.8l-4.2-11.4h0v11.4h-2.4V1654z"
					/>
				<path class="st14" d="M580.7,1662.1l-5.3-8h3.1l3.6,6l3.6-6h2.9l-5.3,8v6.1h-2.5V1662.1z"/>
			</g>
			<g class="st13">
				<path class="st14" d="M503.2,1679.5h4.9l4.6,12.6h0.1l4.6-12.6h4.9v17.7h-3.1V1683h0l-5.4,14.2h-2.2l-5.3-14.2h0v14.2h-3V1679.5
					z"/>
				<path class="st14" d="M540.3,1690.7c0,1.1-0.2,2-0.5,2.9c-0.4,0.9-0.9,1.6-1.5,2.2c-0.6,0.6-1.4,1.1-2.2,1.4
					c-0.9,0.3-1.8,0.5-2.8,0.5s-2-0.2-2.8-0.5c-0.9-0.3-1.6-0.8-2.3-1.4c-0.6-0.6-1.1-1.3-1.5-2.2c-0.4-0.9-0.5-1.8-0.5-2.9v-11.2
					h3.2v11.1c0,0.5,0.1,1,0.2,1.5c0.1,0.5,0.4,1,0.7,1.4c0.3,0.4,0.7,0.7,1.2,1c0.5,0.2,1.1,0.4,1.9,0.4s1.4-0.1,1.9-0.4
					c0.5-0.2,0.9-0.6,1.2-1c0.3-0.4,0.5-0.9,0.7-1.4c0.1-0.5,0.2-1,0.2-1.5v-11.1h3.1V1690.7z M529,1676.1c0-0.5,0.2-0.9,0.5-1.2
					c0.3-0.3,0.8-0.5,1.3-0.5s1,0.2,1.3,0.5c0.4,0.3,0.5,0.8,0.5,1.2s-0.2,0.9-0.5,1.2c-0.3,0.3-0.8,0.5-1.3,0.5s-0.9-0.2-1.3-0.5
					C529.1,1677,529,1676.6,529,1676.1z M533.9,1676.1c0-0.5,0.2-0.9,0.5-1.2c0.3-0.3,0.8-0.5,1.3-0.5c0.5,0,0.9,0.2,1.3,0.5
					c0.3,0.3,0.5,0.8,0.5,1.2s-0.2,0.9-0.5,1.2c-0.4,0.3-0.8,0.5-1.3,0.5c-0.5,0-0.9-0.2-1.3-0.5
					C534,1677,533.9,1676.6,533.9,1676.1z"/>
				<path class="st14" d="M553.1,1683.2c-0.3-0.4-0.8-0.8-1.4-1.1c-0.6-0.3-1.2-0.4-1.8-0.4c-0.4,0-0.7,0-1.1,0.1
					c-0.4,0.1-0.7,0.2-1,0.4c-0.3,0.2-0.5,0.4-0.7,0.8c-0.2,0.3-0.3,0.7-0.3,1.1c0,0.4,0.1,0.7,0.2,1c0.2,0.3,0.4,0.5,0.7,0.7
					c0.3,0.2,0.6,0.4,1.1,0.5c0.4,0.2,0.9,0.3,1.4,0.5c0.6,0.2,1.2,0.4,1.8,0.6s1.2,0.5,1.7,0.9c0.5,0.4,0.9,0.9,1.2,1.5
					c0.3,0.6,0.5,1.3,0.5,2.2c0,1-0.2,1.8-0.5,2.5c-0.3,0.7-0.8,1.3-1.4,1.8c-0.6,0.5-1.3,0.8-2,1c-0.8,0.2-1.6,0.4-2.5,0.4
					c-1.2,0-2.3-0.2-3.4-0.6c-1.1-0.4-2-1.1-2.7-1.9l2.2-2.1c0.4,0.6,1,1.1,1.7,1.4c0.7,0.3,1.4,0.5,2.1,0.5c0.4,0,0.7,0,1.1-0.1
					c0.4-0.1,0.7-0.2,1-0.5c0.3-0.2,0.6-0.5,0.8-0.8s0.3-0.7,0.3-1.2c0-0.5-0.1-0.9-0.3-1.2c-0.2-0.3-0.5-0.6-0.9-0.8
					c-0.4-0.2-0.8-0.4-1.3-0.6c-0.5-0.2-1-0.3-1.6-0.5c-0.5-0.2-1.1-0.4-1.6-0.6c-0.5-0.2-1-0.5-1.4-0.9c-0.4-0.4-0.8-0.9-1-1.4
					s-0.4-1.3-0.4-2.1c0-0.9,0.2-1.7,0.6-2.3c0.4-0.6,0.9-1.2,1.5-1.6s1.3-0.7,2.1-1c0.8-0.2,1.6-0.3,2.4-0.3c0.9,0,1.8,0.2,2.7,0.5
					s1.7,0.8,2.4,1.4L553.1,1683.2z"/>
				<path class="st14" d="M561.6,1682.3h-5.4v-2.8h14v2.8h-5.4v15h-3.1V1682.3z"/>
				<path class="st14" d="M576.2,1679.5h2.7l7.6,17.7H583l-1.7-4h-7.7l-1.6,4h-3.5L576.2,1679.5z M580.2,1690.5l-2.7-7.2l-2.8,7.2
					H580.2z"/>
				<path class="st14" d="M588.3,1679.5h3.1v7.2h8.3v-7.2h3.2v17.7h-3.2v-7.8h-8.3v7.8h-3.1V1679.5z"/>
				<path class="st14" d="M615.8,1683.2c-0.3-0.4-0.8-0.8-1.4-1.1c-0.6-0.3-1.2-0.4-1.8-0.4c-0.4,0-0.7,0-1.1,0.1
					c-0.4,0.1-0.7,0.2-1,0.4c-0.3,0.2-0.5,0.4-0.7,0.8c-0.2,0.3-0.3,0.7-0.3,1.1c0,0.4,0.1,0.7,0.2,1c0.2,0.3,0.4,0.5,0.7,0.7
					c0.3,0.2,0.6,0.4,1.1,0.5c0.4,0.2,0.9,0.3,1.4,0.5c0.6,0.2,1.2,0.4,1.8,0.6s1.2,0.5,1.7,0.9c0.5,0.4,0.9,0.9,1.2,1.5
					c0.3,0.6,0.5,1.3,0.5,2.2c0,1-0.2,1.8-0.5,2.5c-0.3,0.7-0.8,1.3-1.4,1.8c-0.6,0.5-1.3,0.8-2,1c-0.8,0.2-1.6,0.4-2.5,0.4
					c-1.2,0-2.3-0.2-3.4-0.6c-1.1-0.4-2-1.1-2.7-1.9l2.2-2.1c0.4,0.6,1,1.1,1.7,1.4c0.7,0.3,1.4,0.5,2.1,0.5c0.4,0,0.7,0,1.1-0.1
					c0.4-0.1,0.7-0.2,1-0.5c0.3-0.2,0.6-0.5,0.8-0.8s0.3-0.7,0.3-1.2c0-0.5-0.1-0.9-0.3-1.2c-0.2-0.3-0.5-0.6-0.9-0.8
					c-0.4-0.2-0.8-0.4-1.3-0.6c-0.5-0.2-1-0.3-1.6-0.5c-0.5-0.2-1.1-0.4-1.6-0.6c-0.5-0.2-1-0.5-1.4-0.9c-0.4-0.4-0.8-0.9-1-1.4
					s-0.4-1.3-0.4-2.1c0-0.9,0.2-1.7,0.6-2.3c0.4-0.6,0.9-1.2,1.5-1.6s1.3-0.7,2.1-1c0.8-0.2,1.6-0.3,2.4-0.3c0.9,0,1.8,0.2,2.7,0.5
					s1.7,0.8,2.4,1.4L615.8,1683.2z"/>
				<path class="st14" d="M620.8,1676.2c0-0.5,0.2-0.9,0.5-1.3c0.4-0.4,0.8-0.5,1.4-0.5c0.6,0,1,0.2,1.4,0.5s0.6,0.8,0.6,1.3
					s-0.2,0.9-0.6,1.3s-0.8,0.5-1.4,0.5c-0.5,0-1-0.2-1.4-0.5S620.8,1676.6,620.8,1676.2z M621.2,1679.5h3.1v17.7h-3.1V1679.5z"/>
				<path class="st14" d="M628.2,1679.5h3.1v14.9h7.5v2.8h-10.7V1679.5z"/>
			</g>
			<g class="st13">
				<path class="st14" d="M512.4,1703.5h4.9l4.6,12.6h0.1l4.6-12.6h4.9v17.7h-3.1V1707h0l-5.4,14.2h-2.2l-5.3-14.2h0v14.2h-3V1703.5
					z"/>
				<path class="st14" d="M541,1703.5h2.7l7.6,17.7h-3.6l-1.7-4h-7.7l-1.6,4h-3.5L541,1703.5z M545,1714.5l-2.7-7.2l-2.8,7.2H545z"
					/>
				<path class="st14" d="M553.1,1703.5h3.1v7.7h0.1l7.4-7.7h4.2l-8.3,8.2l8.8,9.5h-4.4l-7.8-8.9h-0.1v8.9h-3.1V1703.5z"/>
				<path class="st14" d="M570.3,1703.5h6.9c0.7,0,1.3,0.1,2,0.2c0.6,0.2,1.2,0.4,1.7,0.8c0.5,0.4,0.9,0.8,1.2,1.4s0.5,1.2,0.5,2
					c0,1-0.3,1.8-0.9,2.5c-0.6,0.7-1.3,1.1-2.2,1.4v0c1.1,0.2,2,0.6,2.8,1.3c0.7,0.7,1.1,1.7,1.1,2.9c0,1-0.2,1.8-0.6,2.4
					c-0.4,0.7-0.9,1.2-1.5,1.6s-1.3,0.7-2.2,0.9s-1.6,0.3-2.5,0.3h-6.4V1703.5z M573.4,1710.7h2.8c1,0,1.8-0.2,2.4-0.6
					c0.5-0.4,0.8-1,0.8-1.8c0-0.8-0.3-1.4-0.8-1.7c-0.6-0.3-1.5-0.5-2.7-0.5h-2.5V1710.7z M573.4,1718.6h2.8c0.4,0,0.8,0,1.3-0.1
					s0.9-0.2,1.3-0.4s0.7-0.5,1-0.8c0.3-0.3,0.4-0.8,0.4-1.4c0-0.9-0.3-1.6-1-2c-0.6-0.4-1.6-0.5-2.9-0.5h-3V1718.6z"/>
				<path class="st14" d="M600.6,1714.7c0,1.1-0.2,2-0.5,2.9c-0.4,0.9-0.9,1.6-1.5,2.2c-0.6,0.6-1.4,1.1-2.2,1.4
					c-0.9,0.3-1.8,0.5-2.8,0.5s-2-0.2-2.8-0.5c-0.9-0.3-1.6-0.8-2.3-1.4c-0.6-0.6-1.1-1.3-1.5-2.2c-0.4-0.9-0.5-1.8-0.5-2.9v-11.2
					h3.2v11.1c0,0.5,0.1,1,0.2,1.5c0.1,0.5,0.4,1,0.7,1.4c0.3,0.4,0.7,0.7,1.2,1c0.5,0.2,1.1,0.4,1.9,0.4s1.4-0.1,1.9-0.4
					c0.5-0.2,0.9-0.6,1.2-1c0.3-0.4,0.5-0.9,0.7-1.4c0.1-0.5,0.2-1,0.2-1.5v-11.1h3.1V1714.7z"/>
				<path class="st14" d="M603.2,1718.4l9.6-12.1h-9.5v-2.8h13.2v2.9l-9.7,12h9.8v2.8h-13.5V1718.4z"/>
				<path class="st14" d="M633.7,1714.7c0,1.1-0.2,2-0.5,2.9c-0.4,0.9-0.9,1.6-1.5,2.2c-0.6,0.6-1.4,1.1-2.2,1.4
					c-0.9,0.3-1.8,0.5-2.8,0.5s-2-0.2-2.8-0.5c-0.9-0.3-1.6-0.8-2.3-1.4c-0.6-0.6-1.1-1.3-1.5-2.2c-0.4-0.9-0.5-1.8-0.5-2.9v-11.2
					h3.2v11.1c0,0.5,0.1,1,0.2,1.5c0.1,0.5,0.4,1,0.7,1.4c0.3,0.4,0.7,0.7,1.2,1c0.5,0.2,1.1,0.4,1.9,0.4s1.4-0.1,1.9-0.4
					c0.5-0.2,0.9-0.6,1.2-1c0.3-0.4,0.5-0.9,0.7-1.4c0.1-0.5,0.2-1,0.2-1.5v-11.1h3.1V1714.7z"/>
			</g>
		</g>
	</g>
</g>
</svg>
