<?xml version="1.0" encoding="utf-8"?>
<!-- Generator: Adobe Illustrator 22.1.0, SVG Export Plug-In . SVG Version: 6.00 Build 0)  -->
<svg version="1.1" id="Layer_1" xmlns="http://www.w3.org/2000/svg" xmlns:xlink="http://www.w3.org/1999/xlink" x="0px" y="0px"
	 viewBox="0 0 188 179.6" style="enable-background:new 0 0 188 179.6;" xml:space="preserve">
<style type="text/css">
	.st0{fill:#34485C;}
	.st1{fill:#3D566E;}
	.st2{fill:#9DD6F5;}
	.st3{fill:#E6EAEB;}
	.st4{fill:#415A73;}
	.st5{fill:#2C3E50;}
	.st6{fill:#BDBDBD;}
	.st7{fill:#676775;}
	.st8{fill:#9C9C9C;}
	.st9{enable-background:new    ;}
	.st10{fill:#1F1E1E;}
</style>
<g id="Group_2697" transform="translate(-939.412 -567)">
	<g id="Group_2465" transform="translate(-4 64.574)">
		<g id="Group_2427" transform="translate(41.412 -837.574)">
			<g id="Group_2416" transform="translate(902 1340)">
				<path id="Path_4772" class="st0" d="M54.6,68.6l-1.1-1l-0.1-0.1v-0.1l-0.1-0.1v-0.2V67v-0.2v-0.2v-0.2V34.5v-0.2v-0.2v-0.2v-0.2
					v-0.2l0.1-0.2v-0.2l0.1-0.2l0.1-0.2l0.1-0.2l0.1-0.2l0.1-0.2l0.1-0.2l0.1-0.2l0.1-0.2l0.1-0.2l0.1-0.2l0.1-0.2l0.1-0.1l0.1-0.2
					l0.1-0.2l0.1-0.2l0.1-0.1l0.2-0.1l0.1-0.2l0.2-0.1l0.4-0.1l0.1-0.1l0.2-0.1l0.2-0.1L100.1,4l0.2-0.1l0.2-0.1l0.2-0.1h0.1h0.2
					h0.1h0.2h0.1h0.4h0.1h0.1h0.1l0.1,0.1h0.1l1.1,1.1l-0.1-0.1h-0.1h-0.1H103h-0.7h-0.1H102h-0.1h-0.2l-0.1,0.1h-0.2L101.2,5
					L57.4,30.4l-0.1,0.1l-0.2,0.1l-0.2,0.1l-0.1,0.1l-0.2,0.1L56.4,31l-0.1,0.2l-0.1,0.1L56,31.6l-0.1,0.1l-0.1,0.2l-0.1,0.2
					l-0.1,0.2l-0.1,0.2l-0.2,0.1l-0.1,0.2L55.1,33L55,33.2l-0.1,0.2l-0.2,0.2l-0.1,0.2V34l-0.1,0.2l-0.1,0.2v0.2v0.2V35v0.2v0.2V36
					v31.1v0.2v0.2v0.1v0.2V68v0.1v0.1v0.2l0.1,0.1L54.6,68.6z"/>
				<path id="Path_4773" class="st1" d="M57.4,30.4l43.8-25.3c1.8-1,3.3-0.2,3.3,1.9v31.1c-0.1,2.3-1.3,4.4-3.3,5.6L57.4,69
					c-1.8,1-3.3,0.2-3.3-1.9V36C54.3,33.7,55.5,31.7,57.4,30.4z"/>
				<path id="Path_4774" class="st2" d="M57.7,32.7L69.2,26l31.9-18.3c0.8-0.5,1.5-0.1,1.5,0.9v30.3c0,1-0.6,2-1.5,2.6l-36,20.8
					l-7.4,4.3c-0.8,0.5-1.5,0.1-1.5-0.8V35.3C56.2,34.3,56.8,33.3,57.7,32.7z"/>
				<path id="Path_4775" class="st3" d="M116.5,70.4l-13,7.4v-0.7l13-7.4V70.4z"/>
				<path id="Path_4776" class="st4" d="M134.5,62.3v2.4v0.1v0.1V65l-0.1,0.1l-0.1,0.1l-0.1,0.1l-0.1,0.3l-0.1,0.1l-0.1,0.1
					l-0.1,0.1l-0.1,0.1l-0.2,0.1l-0.2,0.1l-44,25.4l-0.2,0.1l-0.2,0.1l-0.2,0.1h-0.2L88.3,92h-0.2l-0.2,0.1h-0.2h-0.2h-0.2h-0.2
					h-0.2h-0.2h-1.3h-0.2H85h-0.2h-0.2h-0.2h-0.2h-0.3h-0.2L83.5,92l-0.2-0.1h-0.2l-0.2-0.2l-0.1-0.1L55.8,76l-0.1-0.1l-0.2-0.1
					l-0.1-0.1l-0.2-0.1l-0.1-0.1L55,75.4l-0.1-0.1l-0.1-0.1v-0.1L54.7,75v-0.1v-0.1v-0.1v-2.4v0.1v0.1v0.1l0,0v0.1l0.1,0.1l0.1,0.1
					L55,73l0.1,0.1l0.1,0.1l0.1,0.1l0.2,0.1l0.3,0.2l27,15.6l0.2,0.1l0.2,0.1l0.2,0.1h0.2l0.2,0.1H84l0.2,0.1h0.2h0.2h0.2h0.1h0.2
					h0.2h1.3h0.2H87h0.2h0.2h0.2h0.2l0.2-0.1h0.2l0.2-0.1h0.2l0.2-0.1l0.2-0.1l0.2-0.1l43.9-25.4l0.2-0.1l0.2-0.1l0.1-0.1l0.1-0.1
					l0.1-0.1l0.1-0.1l0.1-0.1l0.1-0.1l0.1-0.1l0.1-0.1v-0.1v-0.1L134.5,62.3z"/>
				<path id="Path_4777" class="st0" d="M55.8,69.9l44-25.4c2.1-1,4.5-1,6.5,0l27,15.6c1.8,1.1,1.8,2.7,0,3.8l-44,25.4
					c-2.1,1-4.5,1-6.5,0l-27-15.7C54,72.6,54,70.9,55.8,69.9z"/>
				<path id="Path_4778" class="st4" d="M103,78.7l12-7l-9.1-5.2l-12,6.9L103,78.7z"/>
				<path id="Path_4779" class="st1" d="M61.3,70.7l3.5-2l5.2-3l5.5-3.2l2.7-1.6c0,0,0.1,0,0.1-0.1l3.5-2l5.2-3l5.5-3.2l7.1-4.1
					l1.6-0.9c1.1-0.6,2.4-0.6,3.5,0l13.6,7.9c1,0.6,1,1.5,0,2l-16.9,9.8l-0.1,0.1L78.4,80.7c-1.1,0.6-2.4,0.6-3.5,0l-13.6-7.9
					C60.3,72.2,60.3,71.3,61.3,70.7z"/>
				<g id="Group_2415" transform="translate(15.111 46.226)">
					<path id="Path_4780" class="st5" d="M63.7,22.6l2-1.1c0.5-0.2,1-0.2,1.5,0l2,1.1c0.2,0.1,0.4,0.3,0.3,0.6
						c0,0.1-0.1,0.2-0.3,0.3l-2,1.1c-0.5,0.2-1,0.2-1.5,0l-2-1.1c-0.2-0.1-0.4-0.3-0.3-0.6C63.5,22.8,63.6,22.7,63.7,22.6z"/>
					<path id="Path_4781" class="st5" d="M56,27.1l-2,1.1c-0.2,0.1-0.4,0.3-0.3,0.6c0,0.1,0.1,0.2,0.3,0.3l2,1.1
						c0.5,0.2,1,0.2,1.5,0l2-1.1c0.2-0.1,0.4-0.3,0.3-0.6c0-0.1-0.1-0.2-0.3-0.3l-2-1.1C57,26.9,56.5,26.9,56,27.1z"/>
					<path id="Path_4782" class="st5" d="M60.9,29.9l-2,1.1c-0.2,0.1-0.4,0.3-0.3,0.6c0,0.1,0.1,0.2,0.3,0.3l2,1.1
						c0.5,0.2,1,0.2,1.5,0l2-1.1c0.2-0.1,0.4-0.3,0.3-0.6c0-0.1-0.1-0.2-0.3-0.3l-2-1.1C61.9,29.6,61.3,29.6,60.9,29.9z"/>
					<path id="Path_4783" class="st5" d="M57.5,24.6l2-1.1c0.2-0.1,0.4-0.3,0.3-0.6c0-0.1-0.1-0.2-0.3-0.3l-2-1.1
						c-0.5-0.2-1-0.2-1.5,0l-2,1.1c-0.2,0.1-0.4,0.3-0.3,0.6c0,0.1,0.1,0.2,0.3,0.3l2,1.1C56.5,24.8,57,24.8,57.5,24.6z"/>
					<path id="Path_4784" class="st5" d="M62.3,21.8l2-1.1c0.2-0.1,0.4-0.3,0.3-0.6c0-0.1-0.1-0.2-0.3-0.3l-2-1.1
						c-0.5-0.2-1-0.2-1.5,0l-2,1.1c-0.2,0.1-0.4,0.3-0.3,0.6c0,0.1,0.1,0.2,0.3,0.3l2,1.1C61.3,22,61.9,22,62.3,21.8z"/>
					<path id="Path_4785" class="st5" d="M54.6,26.2l-2,1.1c-0.5,0.2-1,0.2-1.5,0l-2-1.1c-0.2-0.1-0.4-0.3-0.3-0.6
						c0-0.1,0.1-0.2,0.3-0.3l2-1.1c0.5-0.2,1-0.2,1.5,0l2,1.1C55,25.7,55,26,54.6,26.2z"/>
					<path id="Path_4786" class="st5" d="M58.9,25.4l2-1.1c0.5-0.2,1-0.2,1.5,0l2,1.1c0.2,0.1,0.4,0.3,0.3,0.6
						c0,0.1-0.1,0.2-0.3,0.3l-2,1.1c-0.5,0.2-1,0.2-1.5,0l-2-1.1C58.5,26,58.5,25.7,58.9,25.4z"/>
					<path id="Path_4787" class="st5" d="M73.4,17l2-1.1c0.5-0.2,1-0.2,1.5,0l2,1.1c0.2,0.1,0.4,0.3,0.3,0.6c0,0.1-0.1,0.2-0.3,0.3
						l-2,1.1c-0.5,0.2-1,0.2-1.5,0l-2-1.1c-0.2-0.1-0.4-0.3-0.3-0.6C73.2,17.2,73.3,17.1,73.4,17z"/>
					<path id="Path_4788" class="st5" d="M78.3,19.8l2-1.1c0.5-0.2,1-0.2,1.5,0l2,1.1c0.2,0.1,0.4,0.3,0.3,0.6
						c0,0.1-0.1,0.2-0.3,0.3l-2,1.1c-0.5,0.2-1,0.2-1.5,0l-2-1.1C77.9,20.4,77.9,20.1,78.3,19.8z"/>
					<path id="Path_4789" class="st5" d="M67.2,19l2-1.1c0.2-0.1,0.4-0.3,0.3-0.6c0-0.1-0.1-0.2-0.3-0.3l-2-1.1
						c-0.5-0.2-1-0.2-1.5,0l-2,1.1c-0.2,0.1-0.4,0.3-0.3,0.6c0,0.1,0.1,0.2,0.3,0.3l2,1.1C66.2,19.2,66.7,19.2,67.2,19z"/>
					<path id="Path_4790" class="st5" d="M72,16.2l2-1.1c0.2-0.1,0.4-0.3,0.3-0.6c0-0.1-0.1-0.2-0.3-0.3l-2-1.1
						c-0.5-0.2-1-0.2-1.5,0l-2,1.1c-0.2,0.1-0.4,0.3-0.3,0.6c0,0.1,0.1,0.2,0.3,0.3l2,1.1C71,16.5,71.5,16.5,72,16.2z"/>
					<path id="Path_4791" class="st5" d="M68.6,19.8l2-1.1c0.5-0.2,1-0.2,1.5,0l2,1.1c0.2,0.1,0.4,0.3,0.3,0.6
						c0,0.1-0.1,0.2-0.3,0.3l-2,1.1c-0.5,0.2-1,0.2-1.5,0l-2-1.1C68.2,20.4,68.2,20.1,68.6,19.8z"/>
					<path id="Path_4792" class="st5" d="M63.7,28.2l11.6-6.7c0.5-0.2,1-0.2,1.5,0l2,1.1c0.2,0.1,0.4,0.3,0.3,0.6
						c0,0.1-0.1,0.2-0.3,0.3l-11.6,6.7c-0.5,0.2-1,0.2-1.5,0l-2-1.1c-0.2-0.1-0.4-0.3-0.3-0.6C63.5,28.4,63.6,28.3,63.7,28.2z"/>
					<path id="Path_4793" class="st5" d="M89.5,7.7l2-1.1c0.5-0.2,1-0.2,1.5,0l2,1.1c0.2,0.1,0.4,0.3,0.3,0.6c0,0.1-0.1,0.2-0.3,0.3
						l-2,1.1c-0.5,0.2-1,0.2-1.5,0l-2-1.1c-0.2-0.1-0.3-0.4-0.2-0.6C89.3,7.9,89.4,7.8,89.5,7.7z"/>
					<path id="Path_4794" class="st5" d="M94.4,10.6l2-1.1c0.5-0.2,1-0.2,1.5,0l2,1.1c0.2,0.1,0.4,0.3,0.3,0.6
						c0,0.1-0.1,0.2-0.3,0.3l-2,1.1c-0.5,0.2-1,0.2-1.5,0l-2-1.1C94,11.1,94,10.8,94.4,10.6z"/>
					<path id="Path_4795" class="st5" d="M88.1,6.9l2-1.1c0.2-0.1,0.4-0.3,0.3-0.6c0-0.1-0.1-0.2-0.3-0.3l-2-1.1
						c-0.5-0.2-1-0.2-1.5,0l-2,1.1c-0.2,0.1-0.4,0.3-0.3,0.6c0,0.1,0.1,0.2,0.3,0.3l2,1.1C87,7.2,87.6,7.2,88.1,6.9z"/>
					<path id="Path_4796" class="st5" d="M84.7,10.6l2-1.1c0.5-0.2,1-0.2,1.5,0l2,1.1c0.2,0.1,0.4,0.3,0.3,0.6
						c0,0.1-0.1,0.2-0.3,0.3l-2,1.1c-0.5,0.2-1,0.2-1.5,0l-2-1.1C84.3,11.1,84.3,10.8,84.7,10.6z"/>
					<path id="Path_4797" class="st5" d="M89.5,13.3l2-1.1c0.5-0.2,1-0.2,1.5,0l2,1.1c0.2,0.1,0.4,0.3,0.3,0.6
						c0,0.1-0.1,0.2-0.3,0.3l-2,1.1c-0.5,0.2-1,0.2-1.5,0l-2-1.1c-0.2,0-0.4-0.2-0.4-0.4C89.1,13.5,89.3,13.3,89.5,13.3z"/>
					<path id="Path_4798" class="st5" d="M78.4,12.5l2-1.1c0.2-0.1,0.4-0.3,0.3-0.6c0-0.1-0.1-0.2-0.3-0.3l-2-1.1
						c-0.5-0.2-1-0.2-1.5,0l-2,1.1c-0.2,0.1-0.4,0.3-0.3,0.6c0,0.1,0.1,0.2,0.3,0.3l2,1.1C77.4,12.7,77.9,12.7,78.4,12.5z"/>
					<path id="Path_4799" class="st5" d="M83.3,9.7l2-1.1c0.2-0.1,0.4-0.3,0.3-0.6c0-0.1-0.1-0.2-0.3-0.3l-2-1.1
						c-0.5-0.2-1-0.2-1.5,0l-2,1.1c-0.2,0.1-0.4,0.3-0.3,0.6c0,0.1,0.1,0.2,0.3,0.3l2,1.1C82.3,9.9,82.8,9.9,83.3,9.7z"/>
					<path id="Path_4800" class="st5" d="M79.8,13.3l2-1.1c0.5-0.2,1-0.2,1.5,0l2,1.1c0.2,0.1,0.4,0.3,0.3,0.6
						c0,0.1-0.1,0.2-0.3,0.3l-2,1.1c-0.5,0.2-1,0.2-1.5,0l-2-1.1c-0.2-0.1-0.4-0.3-0.3-0.6C79.6,13.5,79.7,13.4,79.8,13.3z"/>
					<path id="Path_4801" class="st5" d="M84.7,16.1l2-1.1c0.5-0.2,1-0.2,1.5,0l2,1.1c0.2,0.1,0.4,0.3,0.3,0.6
						c0,0.1-0.1,0.2-0.3,0.3l-2,1.1c-0.5,0.2-1,0.2-1.5,0l-2-1.1C84.3,16.7,84.3,16.4,84.7,16.1z"/>
				</g>
				<path id="Path_4802" class="st3" d="M78.8,68.5l2-1.1c0.5-0.2,1-0.2,1.5,0l2,1.1c0.2,0.1,0.4,0.3,0.3,0.6c0,0.1-0.1,0.2-0.3,0.3
					l-2,1.1c-0.5,0.2-1,0.2-1.5,0l-2-1.1C78.4,69.1,78.4,68.8,78.8,68.5z"/>
				<path id="Path_4803" class="st3" d="M71.1,73l-1.9,1.1c-0.2,0.1-0.4,0.3-0.3,0.6c0,0.1,0.1,0.2,0.3,0.3l2,1.1
					c0.5,0.2,1,0.2,1.5,0l2-1.1c0.2-0.1,0.4-0.3,0.3-0.6c0-0.1-0.1-0.2-0.3-0.3l-2-1.1C72.1,72.7,71.6,72.7,71.1,73z"/>
				<path id="Path_4804" class="st3" d="M75.9,75.8l-2,1.1c-0.2,0.1-0.4,0.3-0.3,0.6c0,0.1,0.1,0.2,0.3,0.3l2,1.1
					c0.5,0.2,1,0.2,1.5,0l2-1.1c0.2-0.1,0.4-0.3,0.3-0.6c0-0.1-0.1-0.2-0.3-0.3l-2-1.1C76.9,75.5,76.4,75.5,75.9,75.8z"/>
				<path id="Path_4805" class="st3" d="M72.5,70.5l2-1.1c0.2-0.1,0.4-0.3,0.3-0.6c0-0.1-0.1-0.2-0.3-0.3l-2-1.1
					c-0.5-0.2-1-0.2-1.5,0l-2,1.1c-0.2,0.1-0.4,0.3-0.3,0.6c0,0.1,0.1,0.2,0.3,0.3l2,1.1C71.6,70.7,72.1,70.7,72.5,70.5z"/>
				<path id="Path_4806" class="st3" d="M77.4,67.7l2-1.1c0.2-0.1,0.4-0.3,0.3-0.6c0-0.1-0.1-0.2-0.3-0.3l-2-1.1
					c-0.5-0.2-1-0.2-1.5,0L74,65.7c-0.2,0.1-0.4,0.3-0.3,0.6c0,0.1,0.1,0.2,0.3,0.3l2,1.1C76.4,67.9,77,67.9,77.4,67.7z"/>
				<path id="Path_4807" class="st3" d="M69.7,72.2l-2,1.1c-0.5,0.2-1,0.2-1.5,0l-2-1.1c-0.2-0.1-0.4-0.3-0.3-0.6
					c0-0.1,0.1-0.2,0.3-0.3l2-1.1c0.5-0.2,1-0.2,1.5,0l2,1.1c0.2,0.1,0.4,0.3,0.3,0.6C69.9,72,69.8,72.1,69.7,72.2z"/>
				<path id="Path_4808" class="st3" d="M74,71.3l2-1.1c0.5-0.2,1-0.2,1.5,0l2,1.1c0.2,0.1,0.4,0.3,0.3,0.6c0,0.1-0.1,0.2-0.3,0.3
					l-2,1.1c-0.5,0.2-1,0.2-1.5,0l-2-1.1c-0.2-0.1-0.4-0.3-0.3-0.6C73.7,71.5,73.8,71.4,74,71.3z"/>
				<path id="Path_4809" class="st3" d="M88.5,62.9l2-1.1c0.5-0.2,1-0.2,1.5,0l2,1.1c0.2,0.1,0.4,0.3,0.3,0.6c0,0.1-0.1,0.2-0.3,0.3
					l-2,1.1c-0.5,0.2-1,0.2-1.5,0l-2-1.1C88.1,63.5,88.1,63.2,88.5,62.9z"/>
				<path id="Path_4810" class="st3" d="M93.3,65.7l2-1.1c0.5-0.2,1-0.2,1.5,0l2,1.1c0.2,0.1,0.4,0.3,0.3,0.6c0,0.1-0.1,0.2-0.3,0.3
					l-2,1.1c-0.5,0.2-1,0.2-1.5,0l-2-1.1c-0.2-0.1-0.4-0.3-0.3-0.6C93.1,65.9,93.2,65.8,93.3,65.7z"/>
				<path id="Path_4811" class="st3" d="M82.2,64.9l2-1.1c0.2-0.1,0.4-0.3,0.3-0.6c0-0.1-0.1-0.2-0.3-0.3l-2-1.1
					c-0.5-0.2-1-0.2-1.5,0l-2,1.1c-0.2,0.1-0.4,0.3-0.3,0.6c0,0.1,0.1,0.2,0.3,0.3l2,1.1C81.2,65.1,81.8,65.1,82.2,64.9z"/>
				<path id="Path_4812" class="st3" d="M87,62.1l2-1.1c0.2-0.1,0.4-0.3,0.3-0.6c0-0.1-0.1-0.2-0.3-0.3L87,59c-0.5-0.2-1-0.2-1.5,0
					l-2,1.1c-0.2,0.1-0.4,0.3-0.3,0.6c0,0.1,0.1,0.2,0.3,0.3l2,1.1C86,62.3,86.6,62.3,87,62.1z"/>
				<path id="Path_4813" class="st3" d="M83.6,65.7l2-1.1c0.5-0.2,1-0.2,1.5,0l2,1.1c0.2,0.1,0.4,0.3,0.3,0.6c0,0.1-0.1,0.2-0.3,0.3
					l-2,1.1c-0.5,0.2-1,0.2-1.5,0l-2-1.1c-0.2-0.1-0.4-0.3-0.3-0.6C83.4,65.9,83.5,65.8,83.6,65.7z"/>
				<path id="Path_4814" class="st3" d="M78.8,74.1l11.6-6.7c0.5-0.2,1-0.2,1.5,0l2,1.1c0.2,0.1,0.4,0.3,0.3,0.6
					c0,0.1-0.1,0.2-0.3,0.3l-11.6,6.7c-0.5,0.2-1,0.2-1.5,0l-2-1.1C78.4,74.7,78.4,74.4,78.8,74.1z"/>
				<path id="Path_4815" class="st3" d="M104.6,53.6l2-1.1c0.5-0.2,1-0.2,1.5,0l2,1.1c0.2,0.1,0.4,0.3,0.3,0.6
					c0,0.1-0.1,0.2-0.3,0.3l-2,1.1c-0.5,0.2-1,0.2-1.5,0l-2-1.1C104.2,54.2,104.2,53.9,104.6,53.6z"/>
				<path id="Path_4816" class="st3" d="M109.4,56.4l2-1.1c0.5-0.2,1-0.2,1.5,0l2,1.1c0.2,0.1,0.4,0.3,0.3,0.6
					c0,0.1-0.1,0.2-0.3,0.3l-2,1.1c-0.5,0.2-1,0.2-1.5,0l-2-1.1c-0.2-0.1-0.4-0.3-0.3-0.6C109.2,56.6,109.3,56.5,109.4,56.4z"/>
				<path id="Path_4817" class="st3" d="M103.1,52.8l2-1.1c0.2-0.1,0.4-0.3,0.3-0.6c0-0.1-0.1-0.2-0.3-0.3l-2-1.1
					c-0.5-0.2-1-0.2-1.5,0l-2,1.1c-0.2,0.1-0.4,0.3-0.3,0.6c0,0.1,0.1,0.2,0.3,0.3l2,1.1C102.1,53,102.7,53,103.1,52.8z"/>
				<path id="Path_4818" class="st3" d="M99.7,56.4l2-1.1c0.5-0.2,1-0.2,1.5,0l2,1.1c0.2,0.1,0.4,0.3,0.3,0.6c0,0.1-0.1,0.2-0.3,0.3
					l-2,1.1c-0.5,0.2-1,0.2-1.5,0l-2-1.1c-0.2-0.1-0.4-0.3-0.3-0.6C99.5,56.6,99.6,56.5,99.7,56.4z"/>
				<path id="Path_4819" class="st3" d="M104.6,59.2l2-1.1c0.5-0.2,1-0.2,1.5,0l2,1.1c0.2,0.1,0.4,0.3,0.3,0.6
					c0,0.1-0.1,0.2-0.3,0.3l-2,1.1c-0.5,0.2-1,0.2-1.5,0l-2-1.1C104.2,59.8,104.2,59.5,104.6,59.2z"/>
				<path id="Path_4820" class="st3" d="M93.5,58.4l2-1.1c0.2-0.1,0.4-0.3,0.3-0.6c0-0.1-0.1-0.2-0.3-0.3l-2-1.1
					c-0.5-0.2-1-0.2-1.5,0l-2,1.1c-0.2,0.1-0.4,0.3-0.3,0.6c0,0.1,0.1,0.2,0.3,0.3l2,1.1C92.5,58.6,93,58.6,93.5,58.4z"/>
				<path id="Path_4821" class="st3" d="M98.3,55.6l2-1.1c0.2-0.1,0.4-0.3,0.3-0.6c0-0.1-0.1-0.2-0.3-0.3l-2-1.1
					c-0.5-0.2-1-0.2-1.5,0l-1.9,1.1c-0.2,0.1-0.4,0.3-0.3,0.6c0,0.1,0.1,0.2,0.3,0.3l2,1.1C97.3,55.8,97.9,55.8,98.3,55.6z"/>
				<path id="Path_4822" class="st3" d="M94.9,59.2l2-1.1c0.5-0.2,1-0.2,1.5,0l2,1.1c0.2,0.1,0.4,0.3,0.3,0.6c0,0.1-0.1,0.2-0.3,0.3
					l-2,1.1c-0.5,0.2-1,0.2-1.5,0l-2-1.1C94.5,59.8,94.5,59.5,94.9,59.2z"/>
				<path id="Path_4823" class="st3" d="M99.7,62l2-1.1c0.5-0.2,1-0.2,1.5,0l2,1.1c0.2,0.1,0.4,0.3,0.3,0.6c0,0.1-0.1,0.2-0.3,0.3
					l-2,1.1c-0.5,0.2-1,0.2-1.5,0l-2-1.1c-0.2-0.1-0.4-0.3-0.3-0.6C99.5,62.2,99.6,62.1,99.7,62z"/>
				<path id="Path_4824" class="st5" d="M54.6,68.6l-1.1-1l-0.1-0.1v-0.1l-0.1-0.1v-0.2V67v-0.2v-0.2v-0.2V34.5v-0.2v-0.2v-0.2v-0.2
					v-0.2l0.1-0.2v-0.2l0.1-0.2l0.1-0.2l0.1-0.2l0.1-0.2l0.1-0.2V32l1.3,0.7v0.1L55.1,33L55,33.2l-0.1,0.2l-0.2,0.2l-0.1,0.2V34
					l-0.1,0.2l-0.1,0.2v0.2v0.2V35v0.2v0.2V36v31.1v0.2v0.2v0.1v0.2V68v0.1v0.1v0.2l0.1,0.1L54.6,68.6z"/>
				<path id="Path_4825" class="st5" d="M86.3,92.4V90h-0.9h-0.2H85h-0.2h-0.2h-0.2h-0.2l-0.3-0.3h-0.2l-0.2-0.1h-0.2l-0.2-0.1
					l-0.2-0.2l-0.2-0.1L55.8,73.6l-0.1-0.1l-0.2-0.1l-0.1-0.1l-0.1-0.1l-0.1-0.1L55.1,73L55,72.9l-0.1-0.1v-0.1l-0.1-0.1v-0.1v-0.1
					v-0.1v2.4v0.1v0.1V75l0.1,0.1v0.1l0.1,0.1l0.1,0.1l0.1,0.1v0.1l0.1,0.1l0.1,0.1l0.2,0.1l0.1,0.1l27,15.6l0.2,0.1l0.2,0.1h0.2
					l0.2,0.1l0.2,0.1h0.2l0.2,0.1h0.2h0.2h0.2h0.2h0.2h0.2L86.3,92.4L86.3,92.4z"/>
			</g>
			<g id="Group_2417" transform="translate(924.653 1353.983)">
				<path id="Path_4456" class="st6" d="M51.2,42l-2.3-1.3V12.5l0.5,0.3l0.9-0.5l0.9-1.6l0.9,0.5l1-0.6L54,9l0.9,0.5l1-0.6l0.9-1.6
					l0.9,0.5l1-0.6l0.9-1.6l1.3,0.6l1-0.6l1-1.6l2.3,1.3l-0.9,1.6l-1,0.6L62.4,7l-1,1.6l-1,0.6l-0.9-0.5l-1,1.6l-1,0.6l-1-0.6
					l-1,1.6l-1,0.6l-1-0.5l-0.9,1.6l-0.9,0.5l-0.5-0.3L51.2,42L51.2,42z M64.6,3.9l-0.9,0.5L66,5.8l0.9-0.5L67.1,5l-2.2-1.4
					L64.6,3.9z"/>
				<path id="Path_4457" class="st3" d="M67.2,11.7v20.9l-0.3-0.2L66,33l-0.9,1.6l-0.9-0.5l-1,0.6l-0.9,1.6l-0.9-0.5l-1,0.6L59.5,38
					l-0.9-0.5l-1,0.6l-0.9,1.6l-0.9-0.5l-1,0.6l-0.9,1.6L53,40.9l-0.9,0.6l-0.5,0.8V13.8l0.5,0.3l0.5-0.5l0.9-1.6l0.9,0.5l1-0.6
					l0.9-1.6l0.9,0.5l1-0.6l0.9-1.6L60,9.1l1-0.6l0.9-1.6l0.9,0.5l1-0.6l0.9-1.6l0.9,0.5l1.3-0.4L67.1,5L67.2,11.7L67.2,11.7z"/>
				<path id="Path_4458" class="st7" d="M53.2,24.3l11.1-6.4v0.5l-11.1,6.4C53.2,24.8,53.2,24.3,53.2,24.3z"/>
				<path id="Path_4459" class="st7" d="M53.2,27l12.1-7v0.6l-12.1,7C53.2,27.6,53.2,27,53.2,27z"/>
				<path id="Path_4460" class="st7" d="M53.2,30l9.5-5.5V25l-9.5,5.5V30z"/>
				<path id="Path_4461" class="st7" d="M53.2,36.5l4.7-2.7v0.5L53.2,37V36.5z"/>
				<path id="Path_4462" class="st7" d="M62.8,31l2.3-1.3v0.5l-2.3,1.4V31z"/>
				<path id="Path_4463" class="st7" d="M53.2,16l3.6-2.1v0.5l-3.6,2.1V16z"/>
				<path id="Path_4464" class="st7" d="M61.1,11.4l4-2.3v0.5l-4,2.3V11.4z"/>
				<path id="Path_4465" class="st7" d="M53.2,18.5l6.7-3.9v0.5L53.1,19L53.2,18.5L53.2,18.5z"/>
				<path id="Path_4466" class="st7" d="M64,12.2l1.1-0.6v0.5l-1.2,0.7v-0.6C63.9,12.2,64,12.2,64,12.2z"/>
				<path id="Path_4467" class="st8" d="M48.9,12.5v28.2l2.3,1.3V13.8L48.9,12.5z"/>
			</g>
		</g>
		<g id="Group_2426" transform="translate(-57 -929)">
			<g class="st9">
				<path class="st10" d="M1082.1,1542.3h3.4l3.2,8.8h0.1l3.2-8.8h3.5v12.4h-2.2v-9.9h0l-3.8,9.9h-1.5l-3.7-9.9h0v9.9h-2.1V1542.3z"
					/>
				<path class="st10" d="M1101.2,1549.3l-4.6-7h2.7l3.1,5.2l3.1-5.2h2.6l-4.6,7v5.4h-2.2V1549.3z"/>
			</g>
			<g class="st9">
				<path class="st10" d="M1012.9,1567.8c-0.3-0.4-0.7-0.7-1.2-1s-1.1-0.4-1.6-0.4c-0.3,0-0.6,0-1,0.1c-0.3,0.1-0.6,0.2-0.9,0.4
					c-0.3,0.2-0.5,0.4-0.6,0.7c-0.2,0.3-0.3,0.6-0.3,1c0,0.3,0.1,0.6,0.2,0.9c0.1,0.2,0.3,0.5,0.6,0.6c0.3,0.2,0.6,0.3,0.9,0.5
					c0.4,0.1,0.8,0.3,1.2,0.4c0.5,0.2,1,0.3,1.5,0.5s1,0.5,1.5,0.8c0.4,0.3,0.8,0.8,1.1,1.3c0.3,0.5,0.4,1.1,0.4,1.9
					c0,0.8-0.2,1.6-0.5,2.2c-0.3,0.6-0.7,1.1-1.2,1.5c-0.5,0.4-1.1,0.7-1.8,0.9c-0.7,0.2-1.4,0.3-2.2,0.3c-1,0-2-0.2-2.9-0.6
					c-1-0.4-1.7-0.9-2.4-1.6l2-1.8c0.4,0.5,0.9,0.9,1.5,1.2c0.6,0.3,1.3,0.5,1.9,0.5c0.3,0,0.6,0,1-0.1c0.3-0.1,0.6-0.2,0.9-0.4
					c0.3-0.2,0.5-0.4,0.7-0.7c0.2-0.3,0.3-0.6,0.3-1.1c0-0.4-0.1-0.7-0.3-1c-0.2-0.3-0.4-0.5-0.8-0.7s-0.7-0.4-1.1-0.5
					s-0.9-0.3-1.4-0.5c-0.5-0.1-0.9-0.3-1.4-0.5c-0.5-0.2-0.9-0.5-1.3-0.8c-0.4-0.3-0.7-0.7-0.9-1.2c-0.2-0.5-0.3-1.1-0.3-1.8
					c0-0.8,0.2-1.5,0.5-2c0.3-0.6,0.8-1,1.3-1.4c0.5-0.4,1.1-0.6,1.8-0.8c0.7-0.2,1.4-0.3,2.1-0.3c0.8,0,1.6,0.1,2.4,0.4
					c0.8,0.3,1.5,0.7,2.1,1.2L1012.9,1567.8z"/>
				<path class="st10" d="M1017.5,1564.6h10.2v2.4h-7.5v3.9h7.1v2.3h-7.1v4.4h7.9v2.4h-10.6V1564.6z"/>
				<path class="st10" d="M1030.9,1564.6h5.4c0.7,0,1.4,0.1,2.1,0.2c0.7,0.2,1.3,0.4,1.8,0.8c0.5,0.3,1,0.8,1.3,1.4
					c0.3,0.6,0.5,1.3,0.5,2.1c0,1.1-0.3,2-1,2.7c-0.6,0.7-1.5,1.2-2.6,1.4l4.1,6.9h-3.3l-3.6-6.6h-2v6.6h-2.8V1564.6z
					 M1035.9,1571.2c0.4,0,0.8,0,1.2-0.1c0.4-0.1,0.7-0.2,1.1-0.3c0.3-0.2,0.6-0.4,0.8-0.7c0.2-0.3,0.3-0.7,0.3-1.1
					c0-0.4-0.1-0.8-0.3-1s-0.4-0.5-0.7-0.6c-0.3-0.2-0.6-0.3-1-0.3c-0.4-0.1-0.7-0.1-1.1-0.1h-2.5v4.3H1035.9z"/>
				<path class="st10" d="M1044.6,1564.6h6c0.6,0,1.2,0.1,1.7,0.2c0.6,0.1,1.1,0.4,1.5,0.7c0.4,0.3,0.8,0.7,1.1,1.2
					c0.3,0.5,0.4,1.1,0.4,1.8c0,0.9-0.2,1.6-0.7,2.2c-0.5,0.6-1.1,1-1.9,1.2v0c1,0.1,1.8,0.5,2.4,1.1s0.9,1.5,0.9,2.5
					c0,0.8-0.2,1.6-0.5,2.1s-0.8,1-1.3,1.4c-0.5,0.3-1.2,0.6-1.9,0.8c-0.7,0.2-1.4,0.2-2.2,0.2h-5.6V1564.6z M1047.3,1570.9h2.4
					c0.9,0,1.6-0.2,2.1-0.5c0.5-0.4,0.7-0.9,0.7-1.6c0-0.7-0.2-1.2-0.7-1.5c-0.5-0.3-1.3-0.4-2.3-0.4h-2.2V1570.9z M1047.3,1577.7
					h2.5c0.3,0,0.7,0,1.1-0.1c0.4-0.1,0.8-0.2,1.1-0.3c0.3-0.2,0.6-0.4,0.9-0.7s0.3-0.7,0.3-1.2c0-0.8-0.3-1.4-0.8-1.7
					c-0.6-0.3-1.4-0.5-2.5-0.5h-2.6V1577.7z"/>
				<path class="st10" d="M1058.7,1564.6h10.2v2.4h-7.5v3.9h7.1v2.3h-7.1v4.4h7.9v2.4h-10.6V1564.6z"/>
				<path class="st10" d="M1079.9,1567.8c-0.3-0.4-0.7-0.7-1.2-1c-0.5-0.3-1.1-0.4-1.6-0.4c-0.3,0-0.6,0-1,0.1s-0.6,0.2-0.9,0.4
					c-0.3,0.2-0.5,0.4-0.6,0.7c-0.2,0.3-0.3,0.6-0.3,1c0,0.3,0.1,0.6,0.2,0.9c0.1,0.2,0.3,0.5,0.6,0.6s0.6,0.3,0.9,0.5
					s0.8,0.3,1.2,0.4c0.5,0.2,1,0.3,1.5,0.5s1,0.5,1.5,0.8s0.8,0.8,1.1,1.3s0.4,1.1,0.4,1.9c0,0.8-0.2,1.6-0.5,2.2s-0.7,1.1-1.2,1.5
					c-0.5,0.4-1.1,0.7-1.8,0.9c-0.7,0.2-1.4,0.3-2.2,0.3c-1,0-2-0.2-2.9-0.6s-1.7-0.9-2.4-1.6l2-1.8c0.4,0.5,0.9,0.9,1.5,1.2
					c0.6,0.3,1.3,0.5,1.9,0.5c0.3,0,0.6,0,1-0.1s0.6-0.2,0.9-0.4c0.3-0.2,0.5-0.4,0.7-0.7c0.2-0.3,0.3-0.6,0.3-1.1
					c0-0.4-0.1-0.7-0.3-1c-0.2-0.3-0.4-0.5-0.8-0.7c-0.3-0.2-0.7-0.4-1.1-0.5c-0.4-0.1-0.9-0.3-1.4-0.5c-0.5-0.1-0.9-0.3-1.4-0.5
					c-0.5-0.2-0.9-0.5-1.3-0.8c-0.4-0.3-0.7-0.7-0.9-1.2c-0.2-0.5-0.3-1.1-0.3-1.8c0-0.8,0.2-1.5,0.5-2c0.3-0.6,0.8-1,1.3-1.4
					c0.5-0.4,1.1-0.6,1.8-0.8c0.7-0.2,1.4-0.3,2.1-0.3c0.8,0,1.6,0.1,2.4,0.4c0.8,0.3,1.5,0.7,2.1,1.2L1079.9,1567.8z"/>
				<path class="st10" d="M1087.4,1567h-4.7v-2.4h12.2v2.4h-4.7v13.1h-2.8V1567z"/>
				<path class="st10" d="M1101.6,1564.6h4.3l4,11h0.1l4-11h4.3v15.5h-2.7v-12.4h0l-4.7,12.4h-1.9l-4.6-12.4h0v12.4h-2.6V1564.6z"/>
				<path class="st10" d="M1121.7,1564.6h10.2v2.4h-7.5v3.9h7.1v2.3h-7.1v4.4h7.9v2.4h-10.6V1564.6z"/>
				<path class="st10" d="M1142.9,1567.8c-0.3-0.4-0.7-0.7-1.2-1c-0.5-0.3-1.1-0.4-1.6-0.4c-0.3,0-0.6,0-1,0.1s-0.6,0.2-0.9,0.4
					c-0.3,0.2-0.5,0.4-0.6,0.7c-0.2,0.3-0.3,0.6-0.3,1c0,0.3,0.1,0.6,0.2,0.9c0.1,0.2,0.3,0.5,0.6,0.6s0.6,0.3,0.9,0.5
					s0.8,0.3,1.2,0.4c0.5,0.2,1,0.3,1.5,0.5s1,0.5,1.5,0.8s0.8,0.8,1.1,1.3s0.4,1.1,0.4,1.9c0,0.8-0.2,1.6-0.5,2.2s-0.7,1.1-1.2,1.5
					c-0.5,0.4-1.1,0.7-1.8,0.9c-0.7,0.2-1.4,0.3-2.2,0.3c-1,0-2-0.2-2.9-0.6s-1.7-0.9-2.4-1.6l2-1.8c0.4,0.5,0.9,0.9,1.5,1.2
					c0.6,0.3,1.3,0.5,1.9,0.5c0.3,0,0.6,0,1-0.1s0.6-0.2,0.9-0.4c0.3-0.2,0.5-0.4,0.7-0.7c0.2-0.3,0.3-0.6,0.3-1.1
					c0-0.4-0.1-0.7-0.3-1c-0.2-0.3-0.4-0.5-0.8-0.7c-0.3-0.2-0.7-0.4-1.1-0.5c-0.4-0.1-0.9-0.3-1.4-0.5c-0.5-0.1-0.9-0.3-1.4-0.5
					c-0.5-0.2-0.9-0.5-1.3-0.8c-0.4-0.3-0.7-0.7-0.9-1.2c-0.2-0.5-0.3-1.1-0.3-1.8c0-0.8,0.2-1.5,0.5-2c0.3-0.6,0.8-1,1.3-1.4
					c0.5-0.4,1.1-0.6,1.8-0.8c0.7-0.2,1.4-0.3,2.1-0.3c0.8,0,1.6,0.1,2.4,0.4c0.8,0.3,1.5,0.7,2.1,1.2L1142.9,1567.8z"/>
				<path class="st10" d="M1147.5,1564.6h2.8v13h6.6v2.4h-9.3V1564.6z"/>
				<path class="st10" d="M1158.7,1564.6h10.2v2.4h-7.5v3.9h7.1v2.3h-7.1v4.4h7.9v2.4h-10.6V1564.6z"/>
				<path class="st10" d="M1172,1564.6h2.8v6.7h0.1l6.5-6.7h3.7l-7.2,7.1l7.7,8.3h-3.9l-6.8-7.8h-0.1v7.8h-2.8V1564.6z"/>
			</g>
			<g class="st9">
				<path class="st10" d="M1041.5,1585.5h4.3l4,11h0.1l4-11h4.3v15.5h-2.7v-12.4h0l-4.7,12.4h-1.9l-4.6-12.4h0v12.4h-2.6V1585.5z"/>
				<path class="st10" d="M1066.4,1585.5h2.4l6.7,15.5h-3.1l-1.4-3.5h-6.7l-1.4,3.5h-3.1L1066.4,1585.5z M1069.9,1595.1l-2.4-6.3
					l-2.4,6.3H1069.9z"/>
				<path class="st10" d="M1077,1585.5h2.8v6.7h0.1l6.5-6.7h3.7l-7.2,7.1l7.7,8.3h-3.9l-6.8-7.8h-0.1v7.8h-2.8V1585.5z"/>
				<path class="st10" d="M1092,1585.5h6c0.6,0,1.2,0.1,1.7,0.2c0.6,0.1,1.1,0.4,1.5,0.7c0.4,0.3,0.8,0.7,1.1,1.2
					c0.3,0.5,0.4,1.1,0.4,1.8c0,0.9-0.2,1.6-0.7,2.2c-0.5,0.6-1.1,1-1.9,1.2v0c1,0.1,1.8,0.5,2.4,1.1s0.9,1.5,0.9,2.5
					c0,0.8-0.2,1.6-0.5,2.1s-0.8,1-1.3,1.4c-0.5,0.3-1.2,0.6-1.9,0.8c-0.7,0.2-1.4,0.2-2.2,0.2h-5.6V1585.5z M1094.8,1591.8h2.4
					c0.9,0,1.6-0.2,2.1-0.5c0.5-0.4,0.7-0.9,0.7-1.6c0-0.7-0.2-1.2-0.7-1.5c-0.5-0.3-1.3-0.4-2.3-0.4h-2.2V1591.8z M1094.8,1598.7
					h2.5c0.3,0,0.7,0,1.1-0.1c0.4-0.1,0.8-0.2,1.1-0.3c0.3-0.2,0.6-0.4,0.9-0.7s0.3-0.7,0.3-1.2c0-0.8-0.3-1.4-0.8-1.7
					c-0.6-0.3-1.4-0.5-2.5-0.5h-2.6V1598.7z"/>
				<path class="st10" d="M1118.5,1595.3c0,0.9-0.2,1.8-0.5,2.5s-0.8,1.4-1.3,1.9c-0.6,0.5-1.2,0.9-2,1.2c-0.8,0.3-1.6,0.4-2.5,0.4
					c-0.9,0-1.7-0.1-2.5-0.4c-0.8-0.3-1.4-0.7-2-1.2s-1-1.2-1.3-1.9c-0.3-0.8-0.5-1.6-0.5-2.5v-9.8h2.8v9.7c0,0.5,0.1,0.9,0.2,1.3
					c0.1,0.4,0.3,0.8,0.6,1.2s0.6,0.6,1.1,0.9c0.4,0.2,1,0.3,1.6,0.3s1.2-0.1,1.6-0.3c0.4-0.2,0.8-0.5,1.1-0.9s0.5-0.7,0.6-1.2
					c0.1-0.4,0.2-0.9,0.2-1.3v-9.7h2.8V1595.3z"/>
				<path class="st10" d="M1120.8,1598.5l8.4-10.6h-8.3v-2.4h11.6v2.5l-8.5,10.5h8.6v2.4h-11.8V1598.5z"/>
				<path class="st10" d="M1147.4,1595.3c0,0.9-0.2,1.8-0.5,2.5s-0.8,1.4-1.3,1.9c-0.6,0.5-1.2,0.9-2,1.2c-0.8,0.3-1.6,0.4-2.5,0.4
					c-0.9,0-1.7-0.1-2.5-0.4c-0.8-0.3-1.4-0.7-2-1.2s-1-1.2-1.3-1.9c-0.3-0.8-0.5-1.6-0.5-2.5v-9.8h2.8v9.7c0,0.5,0.1,0.9,0.2,1.3
					c0.1,0.4,0.3,0.8,0.6,1.2s0.6,0.6,1.1,0.9c0.4,0.2,1,0.3,1.6,0.3s1.2-0.1,1.6-0.3c0.4-0.2,0.8-0.5,1.1-0.9s0.5-0.7,0.6-1.2
					c0.1-0.4,0.2-0.9,0.2-1.3v-9.7h2.8V1595.3z"/>
			</g>
		</g>
	</g>
</g>
</svg>
