<?xml version="1.0" encoding="utf-8"?>
<!-- Generator: Adobe Illustrator 22.1.0, SVG Export Plug-In . SVG Version: 6.00 Build 0)  -->
<svg version="1.1" id="Layer_1" xmlns="http://www.w3.org/2000/svg" xmlns:xlink="http://www.w3.org/1999/xlink" x="0px" y="0px"
	 viewBox="0 0 311.3 121.9" style="enable-background:new 0 0 311.3 121.9;" xml:space="preserve">
<style type="text/css">
	.st0{opacity:3.000000e-03;fill:#040507;enable-background:new    ;}
	.st1{opacity:7.000000e-03;fill:#080A0D;enable-background:new    ;}
	.st2{opacity:1.000000e-02;fill:#0B0E14;enable-background:new    ;}
	.st3{opacity:1.300000e-02;fill:#0F131B;enable-background:new    ;}
	.st4{opacity:1.700000e-02;fill:#131822;enable-background:new    ;}
	.st5{opacity:2.000000e-02;fill:#171D29;enable-background:new    ;}
	.st6{opacity:2.300000e-02;fill:#1B2230;enable-background:new    ;}
	.st7{opacity:2.700000e-02;fill:#1F2737;enable-background:new    ;}
	.st8{opacity:3.000000e-02;fill:#232C3F;enable-background:new    ;}
	.st9{opacity:3.300000e-02;fill:#273246;enable-background:new    ;}
	.st10{opacity:3.700000e-02;fill:#2B374D;enable-background:new    ;}
	.st11{opacity:4.000000e-02;fill:#2F3C54;enable-background:new    ;}
	.st12{opacity:4.300000e-02;fill:#34415C;enable-background:new    ;}
	.st13{opacity:4.700000e-02;fill:#384763;enable-background:new    ;}
	.st14{fill:#34485C;}
	.st15{fill:#3D566E;}
	.st16{fill:#9DD6F5;}
	.st17{fill:#E6EAEB;}
	.st18{fill:#415A73;}
	.st19{fill:#2C3E50;}
	.st20{fill:#BDBDBD;}
	.st21{fill:#676775;}
	.st22{fill:#9C9C9C;}
	.st23{enable-background:new    ;}
	.st24{fill:#1F1E1E;}
</style>
<g id="Group_2697" transform="translate(-939.412 -567)">
	<g id="Group_2465" transform="translate(-4 64.574)">
		<g id="Group_2427" transform="translate(41.412 -837.574)">
			<g id="Group_2416" transform="translate(902 1340)">
				<g id="Group_2414" transform="translate(0 69.73)">
					<path id="Path_4759" class="st0" d="M88.2,5.2c15.1,8.7,15.1,22.8,0,31.6s-39.6,8.7-54.7,0S18.4,14,33.5,5.2
						C48.6-3.4,73.1-3.4,88.2,5.2z"/>
					<path id="Path_4760" class="st1" d="M86.3,6.4c14.1,8.1,14.1,21.3,0,29.5s-37,8.1-51.1,0s-14.1-21.3,0-29.5S72.2-1.8,86.3,6.4z
						"/>
					<path id="Path_4761" class="st2" d="M84.5,7.4c13.1,7.5,13.1,19.8,0,27.4c-13.1,7.5-34.3,7.5-47.4,0S24,15,37.1,7.4
						S71.5-0.1,84.5,7.4z"/>
					<path id="Path_4762" class="st3" d="M82.7,8.5c12.1,6.9,12.1,18.3,0,25.2S51,40.6,39,33.7S26.9,15.4,39,8.5
						C51.1,1.5,70.6,1.5,82.7,8.5z"/>
					<ellipse id="Ellipse_60" class="st4" cx="60.8" cy="21.1" rx="28.3" ry="16.3"/>
					<path id="Path_4763" class="st5" d="M79.1,10.5c10.1,5.8,10.1,15.2,0,21s-26.4,5.8-36.4,0c-10.1-5.8-10.1-15.2,0-21
						C52.7,4.8,69,4.8,79.1,10.5z"/>
					<path id="Path_4764" class="st6" d="M77.2,11.7c9.1,5.2,9.1,13.7,0,18.9s-23.7,5.2-32.7,0s-9.1-13.7,0-18.9S68.2,6.4,77.2,11.7
						z"/>
					<path id="Path_4765" class="st7" d="M75.4,12.7c8,4.6,8,12.2,0,16.8s-21,4.6-29.1,0s-8-12.2,0-16.8S67.3,8.1,75.4,12.7z"/>
					<path id="Path_4766" class="st8" d="M73.5,13.7c7,4,7,10.6,0,14.6s-18.4,4-25.3,0s-7-10.6,0-14.6S66.5,9.7,73.5,13.7z"/>
					<path id="Path_4767" class="st9" d="M71.7,14.8c6,3.5,6,9.1,0,12.6S56,30.9,50,27.4s-6-9.1,0-12.6S65.7,11.3,71.7,14.8z"/>
					<path id="Path_4768" class="st10" d="M69.9,15.9c5,2.8,5,7.5,0,10.4c-5,2.8-13.1,2.8-18.1,0s-5-7.5,0-10.4S64.9,13,69.9,15.9z"
						/>
					<path id="Path_4769" class="st11" d="M68,16.9c3.9,2.3,3.9,6,0,8.3s-10.4,2.3-14.4,0s-3.9-6,0-8.3C57.6,14.7,64.1,14.7,68,16.9
						z"/>
					<path id="Path_4770" class="st12" d="M66.2,18c3,1.7,3,4.4,0,6.2c-3.3,1.7-7.4,1.7-10.7,0c-3-1.7-3-4.4,0-6.2
						C58.9,16.3,62.9,16.3,66.2,18z"/>
					<path id="Path_4771" class="st13" d="M64.3,19.1c2,1.1,2,2.9,0,4.1c-2.2,1.1-4.9,1.1-7,0c-2-1.1-2-2.9,0-4.1
						C59.6,17.9,62.1,17.9,64.3,19.1z"/>
				</g>
				<path id="Path_4772" class="st14" d="M27,64.4l-0.9-0.9H26v-0.1l-0.1-0.1v-0.2V63v-0.2v-0.2v-0.2V35.2V35v-0.2v-0.2v-0.2v-0.2
					L26,34v0l0.1-0.2l0.1-0.2l0.1-0.2l0.1-0.2l0.1-0.2l0.1-0.2l0.1-0.2l0.1-0.2l0.1-0.2L27,32l0.1-0.2l0.1-0.1l0.1-0.2l0.1-0.2
					l0.1-0.2l0.1-0.1l0.2-0.1l0.1-0.2l0.2-0.1l0.3-0.1l0.1-0.1l0.2-0.1l0.2-0.1L66,9.1L66.2,9h0.1l0.2-0.1h0.1h0.2h0.1H67h0.1h0.3
					h0.1h0.1h0.1L67.8,9h0.1l0.9,0.9l-0.1-0.1h-0.1h-0.1h-0.1h-0.6h-0.1h-0.2h-0.1h-0.2l-0.1,0.1h-0.2l0,0.1L29.4,31.7l-0.1,0.1
					l-0.2,0.1L29,32l-0.1,0.1l-0.2,0.1l-0.2,0.1l-0.1,0.2l-0.1,0.1l-0.2,0.3L28,33l0.1,0L28,33.2l-0.1,0.2l-0.1,0.2l-0.2,0.1
					l-0.1,0.2l0,0.1l-0.1,0.2l-0.1,0.2l-0.2,0.2l-0.1,0v0.2V35l-0.1,0.2v0.2v0.2v0.2V36v0v0.5v26.6v0.2v0.2v0.1v0.2V64l0,0v0.1v0.2
					L27,64.4L27,64.4z"/>
				<path id="Path_4773" class="st15" d="M29.4,31.7l37.5-21.6c1.5-0.9,2.8-0.2,2.8,1.6v26.6c-0.1,2-1.1,3.8-2.8,4.8L29.4,64.8
					c-1.5,0.9-2.8,0.2-2.8-1.6V36.5C26.8,34.6,27.8,32.8,29.4,31.7z"/>
				<path id="Path_4774" class="st16" d="M29.7,33.7l9.8-5.7l27.3-15.7c0.7-0.4,1.3-0.1,1.3,0.8V39c0,0.9-0.5,1.7-1.3,2.2L36,59
					l-6.3,3.7c-0.7,0.4-1.3,0.1-1.3-0.7V35.9C28.4,35.1,28.9,34.2,29.7,33.7z"/>
				<path id="Path_4775" class="st17" d="M80,66l-11.1,6.3v-0.6L80,65.4V66z"/>
				<path id="Path_4776" class="st18" d="M95.4,59v2.1v0.1v0.1v0.1l-0.1,0.1l-0.1,0.1l-0.1,0.1L95,62l0-0.1L94.9,62l-0.1,0.1
					l-0.1,0.1l-0.2,0.1l-0.2,0.1L56.7,84.1l-0.2,0.1l-0.2,0.1l-0.2,0.1H56l-0.2,0.1h-0.2l-0.2,0.1h-0.2H55h0h-0.2h-0.2h-0.2h-1.1
					h-0.2h-0.2h-0.2h-0.2h-0.2h-0.2h-0.3h-0.2l-0.2-0.1l-0.2-0.1H51l-0.2-0.2l-0.1-0.1L28.1,70.8L28,70.7l-0.2-0.1l-0.1-0.1
					l-0.2-0.1l-0.1-0.1l-0.1-0.1l-0.1-0.1L27.1,70v0L27,69.9v-0.1v-0.1v-0.1v-2.1v0.1v0.1v0.1l0,0v0.1l0.1,0.1l0.1,0.1l0.1,0.1
					l0.1,0.1l0.1,0.1l0.1,0.1l0.2,0.1l0.3,0.2L51.2,82l0.2,0.1l0.2,0.1l0.2,0.1H52l0.2,0.1h0.2l0.2,0.1h0.2H53h0.2H53h0.2h0.2h1.1
					h0.2h0.2h0.2h0.2h0.2h0.2l0.2-0.1h0.2l0.2-0.1h0.2l0.2-0.1l0.2-0.1l0.2-0.1l37.6-21.7l0.2-0.1l0.2-0.1l0.1-0.1l0.1-0.1l0.1-0.1
					l0.1-0.1l0.1-0.1l0.1-0.1l0.1-0.1l0.1-0.1v-0.1v-0.1L95.4,59z"/>
				<path id="Path_4777" class="st14" d="M28.1,65.5l37.7-21.7c1.8-0.9,3.9-0.9,5.6,0l23.1,13.3c1.5,0.9,1.5,2.3,0,3.3L56.7,82.1
					c-1.8,0.9-3.9,0.9-5.6,0l-23-13.4C26.5,67.8,26.5,66.4,28.1,65.5z"/>
				<path id="Path_4778" class="st18" d="M68.5,73.1l10.3-6L71,62.7l-10.3,5.9L68.5,73.1z"/>
				<path id="Path_4779" class="st15" d="M32.8,66.2l3-1.7l4.4-2.6l4.7-2.7l2.3-1.4c0,0,0.1,0,0.1-0.1l3-1.7l4.4-2.6l4.7-2.7
					l6.1-3.5l1.4-0.8c0.9-0.5,2.1-0.5,3,0l11.6,6.8c0.9,0.5,0.9,1.3,0,1.7L67,63.3v0.1L47.4,74.8c-0.9,0.5-2.1,0.5-3,0L32.8,68
					C31.9,67.5,31.9,66.7,32.8,66.2z"/>
				<g id="Group_2415" transform="translate(15.111 46.226)">
					<path id="Path_4780" class="st19" d="M32.6,18.4l1.7-0.9c0.4-0.2,0.9-0.2,1.3,0l1.7,0.9c0.2,0.1,0.3,0.3,0.3,0.5
						c0,0.1-0.1,0.2-0.3,0.3l-1.7,0.9c-0.4,0.2-0.9,0.2-1.3,0l-1.7-0.9c-0.2-0.1-0.3-0.3-0.3-0.5C32.5,18.6,32.6,18.5,32.6,18.4z"/>
					<path id="Path_4781" class="st19" d="M26.1,22.2l-1.7,0.9c-0.2,0.1-0.3,0.3-0.3,0.5c0,0.1,0.1,0.2,0.3,0.3l1.7,0.9
						c0.4,0.2,0.9,0.2,1.3,0l1.7-0.9c0.2-0.1,0.3-0.3,0.3-0.5c0-0.1-0.1-0.2-0.3-0.3l-1.7-0.9C26.9,22.1,26.5,22.1,26.1,22.2z"/>
					<path id="Path_4782" class="st19" d="M30.3,24.6l-1.7,0.9c-0.2,0.1-0.3,0.3-0.3,0.5c0,0.1,0.1,0.2,0.3,0.3l1.7,0.9
						c0.4,0.2,0.9,0.2,1.3,0l1.7-0.9c0.2-0.1,0.3-0.3,0.3-0.5c0-0.1-0.1-0.2-0.3-0.3l-1.7-0.9C31.1,24.4,30.6,24.4,30.3,24.6z"/>
					<path id="Path_4783" class="st19" d="M27.3,20.1l1.7-0.9c0.2-0.1,0.3-0.3,0.3-0.5c0-0.1-0.1-0.2-0.3-0.3l-1.7-0.9
						c-0.4-0.2-0.9-0.2-1.3,0l-1.7,0.9c-0.2,0.1-0.3,0.3-0.3,0.5c0,0.1,0.1,0.2,0.3,0.3l1.7,0.9C26.5,20.3,26.9,20.3,27.3,20.1z"/>
					<path id="Path_4784" class="st19" d="M31.4,17.7l1.7-0.9c0.2-0.1,0.3-0.3,0.3-0.5c0-0.1-0.1-0.2-0.3-0.3l-1.7-0.9
						c-0.4-0.2-0.9-0.2-1.3,0L28.5,16c-0.2,0.1-0.3,0.3-0.3,0.5c0,0.1,0.1,0.2,0.3,0.3l1.7,0.9C30.6,17.9,31.1,17.9,31.4,17.7z"/>
					<path id="Path_4785" class="st19" d="M24.9,21.5l-1.7,0.9c-0.4,0.2-0.9,0.2-1.3,0l-1.7-0.9c-0.2-0.1-0.3-0.3-0.3-0.5
						c0-0.1,0.1-0.2,0.3-0.3l1.7-0.9c0.4-0.2,0.9-0.2,1.3,0l1.7,0.9C25.2,21,25.2,21.3,24.9,21.5z"/>
					<path id="Path_4786" class="st19" d="M28.5,20.8l1.7-0.9c0.4-0.2,0.9-0.2,1.3,0l1.7,0.9c0.2,0.1,0.3,0.3,0.3,0.5
						c0,0.1-0.1,0.2-0.3,0.3l-1.7,0.9c-0.4,0.2-0.9,0.2-1.3,0l-1.7-0.9C28.2,21.3,28.2,21,28.5,20.8z"/>
					<path id="Path_4787" class="st19" d="M40.9,13.6l1.7-0.9c0.4-0.2,0.9-0.2,1.3,0l1.7,0.9c0.2,0.1,0.3,0.3,0.3,0.5
						c0,0.1-0.1,0.2-0.3,0.3l-1.7,0.9c-0.4,0.2-0.9,0.2-1.3,0l-1.7-0.9c-0.2-0.1-0.3-0.3-0.3-0.5C40.8,13.8,40.9,13.7,40.9,13.6z"/>
					<path id="Path_4788" class="st19" d="M45.1,16l1.7-0.9c0.4-0.2,0.9-0.2,1.3,0l1.7,0.9c0.2,0.1,0.3,0.3,0.3,0.5
						c0,0.1-0.1,0.2-0.3,0.3l-1.7,0.9c-0.4,0.2-0.9,0.2-1.3,0l-1.7-0.9C44.8,16.5,44.8,16.2,45.1,16z"/>
					<path id="Path_4789" class="st19" d="M35.6,15.3l1.7-0.9c0.2-0.1,0.3-0.3,0.3-0.5c0-0.1-0.1-0.2-0.3-0.3l-1.7-0.9
						c-0.4-0.2-0.9-0.2-1.3,0l-1.7,0.9c-0.2,0.1-0.3,0.3-0.3,0.5c0,0.1,0.1,0.2,0.3,0.3l1.7,0.9C34.8,15.5,35.2,15.5,35.6,15.3z"/>
					<path id="Path_4790" class="st19" d="M39.7,12.9l1.7-0.9c0.2-0.1,0.3-0.3,0.3-0.5c0-0.1-0.1-0.2-0.3-0.3l-1.7-0.9
						c-0.4-0.2-0.9-0.2-1.3,0l-1.7,0.9c-0.2,0.1-0.3,0.3-0.3,0.5c0,0.1,0.1,0.2,0.3,0.3l1.7,0.9C38.9,13.2,39.3,13.2,39.7,12.9z"/>
					<path id="Path_4791" class="st19" d="M36.8,16l1.7-0.9c0.4-0.2,0.9-0.2,1.3,0l1.7,0.9c0.2,0.1,0.3,0.3,0.3,0.5
						c0,0.1-0.1,0.2-0.3,0.3l-1.7,0.9c-0.4,0.2-0.9,0.2-1.3,0l-1.7-0.9C36.5,16.5,36.5,16.2,36.8,16z"/>
					<path id="Path_4792" class="st19" d="M32.6,23.2l9.9-5.7c0.4-0.2,0.9-0.2,1.3,0l1.7,0.9c0.2,0.1,0.3,0.3,0.3,0.5
						c0,0.1-0.1,0.2-0.3,0.3l-9.9,5.7c-0.4,0.2-0.9,0.2-1.3,0L32.6,24c-0.2-0.1-0.3-0.3-0.3-0.5C32.5,23.4,32.6,23.3,32.6,23.2z"/>
					<path id="Path_4793" class="st19" d="M54.7,5.6l1.7-0.9c0.4-0.2,0.9-0.2,1.3,0l1.7,0.9c0.2,0.1,0.3,0.3,0.3,0.5
						c0,0.1-0.1,0.2-0.3,0.3l-1.7,0.9c-0.4,0.2-0.9,0.2-1.3,0l-1.7-0.9c-0.2-0.1-0.3-0.3-0.2-0.5C54.6,5.8,54.6,5.7,54.7,5.6z"/>
					<path id="Path_4794" class="st19" d="M58.9,8.1l1.7-0.9C61,7,61.5,7,61.9,7.2l1.7,0.9c0.2,0.1,0.3,0.3,0.3,0.5
						c0,0.1-0.1,0.2-0.3,0.3l-1.7,0.9c-0.4,0.2-0.9,0.2-1.3,0l-1.7-0.9C58.6,8.5,58.6,8.3,58.9,8.1z"/>
					<path id="Path_4795" class="st19" d="M53.5,5l1.7-1c0.2-0.1,0.3-0.3,0.3-0.5c0-0.1-0.1-0.2-0.3-0.3l-1.7-0.9
						c-0.4-0.2-0.9-0.2-1.3,0l-1.7,0.9c-0.2,0.1-0.3,0.3-0.3,0.5c0,0.1,0.1,0.2,0.3,0.3l1.7,1C52.6,5.2,53.1,5.2,53.5,5z"/>
					<path id="Path_4796" class="st19" d="M50.6,8.1l1.7-0.9c0.4-0.2,0.9-0.2,1.3,0l1.7,0.9c0.2,0.1,0.3,0.3,0.3,0.5
						c0,0.1-0.1,0.2-0.3,0.3l-1.7,0.9c-0.4,0.2-0.9,0.2-1.3,0l-1.7-0.9C50.3,8.5,50.3,8.3,50.6,8.1z"/>
					<path id="Path_4797" class="st19" d="M54.7,10.4l1.7-0.9c0.4-0.2,0.9-0.2,1.3,0l1.7,0.9c0.2,0.1,0.3,0.3,0.3,0.5
						c0,0.1-0.1,0.2-0.3,0.3l-1.7,0.9c-0.4,0.2-0.9,0.2-1.3,0l-1.7-0.9c-0.2,0-0.3-0.2-0.3-0.3C54.4,10.6,54.6,10.4,54.7,10.4z"/>
					<path id="Path_4798" class="st19" d="M45.2,9.7l1.7-0.9c0.2-0.1,0.3-0.3,0.3-0.5c0-0.1-0.1-0.2-0.3-0.3l-1.7-0.9
						c-0.4-0.2-0.9-0.2-1.3,0L42.2,8c-0.2,0.1-0.3,0.3-0.3,0.5c0,0.1,0.1,0.2,0.3,0.3l1.7,0.9C44.4,9.9,44.8,9.9,45.2,9.7z"/>
					<path id="Path_4799" class="st19" d="M49.4,7.4l1.7-0.9c0.2-0.1,0.3-0.3,0.3-0.5c0-0.1-0.1-0.2-0.3-0.3l-1.7-0.9
						c-0.4-0.2-0.9-0.2-1.3,0l-1.7,0.9c-0.2,0.1-0.3,0.3-0.3,0.5c0,0.1,0.1,0.2,0.3,0.3l1.7,0.9C48.6,7.5,49,7.5,49.4,7.4z"/>
					<path id="Path_4800" class="st19" d="M46.4,10.4l1.7-0.9c0.4-0.2,0.9-0.2,1.3,0l1.7,0.9c0.2,0.1,0.3,0.3,0.3,0.5
						c0,0.1-0.1,0.2-0.3,0.3l-1.7,0.9c-0.4,0.2-0.9,0.2-1.3,0l-1.7-0.9c-0.2-0.1-0.3-0.3-0.3-0.5C46.3,10.6,46.3,10.5,46.4,10.4z"/>
					<path id="Path_4801" class="st19" d="M50.6,12.8l1.7-0.9c0.4-0.2,0.9-0.2,1.3,0l1.7,0.9c0.2,0.1,0.3,0.3,0.3,0.5
						c0,0.1-0.1,0.2-0.3,0.3l-1.7,0.9c-0.4,0.2-0.9,0.2-1.3,0l-1.7-0.9C50.3,13.3,50.3,13.1,50.6,12.8z"/>
				</g>
				<path id="Path_4802" class="st17" d="M47.7,64.3l1.7-0.9c0.4-0.2,0.9-0.2,1.3,0l1.7,0.9c0.2,0.1,0.3,0.3,0.3,0.5
					c0,0.1-0.1,0.2-0.3,0.3L50.7,66c-0.4,0.2-0.9,0.2-1.3,0l-1.7-0.9C47.4,64.8,47.4,64.6,47.7,64.3z"/>
				<path id="Path_4803" class="st17" d="M41.2,68.2l-1.6,0.9c-0.2,0.1-0.3,0.3-0.3,0.5c0,0.1,0.1,0.2,0.3,0.3l1.7,0.9
					c0.4,0.2,0.9,0.2,1.3,0l1.7-0.9c0.2-0.1,0.3-0.3,0.3-0.5c0-0.1-0.1-0.2-0.3-0.3l-1.7-0.9C42,67.9,41.6,67.9,41.2,68.2z"/>
				<path id="Path_4804" class="st17" d="M45.3,70.6l-1.7,0.9c-0.2,0.1-0.3,0.3-0.3,0.5c0,0.1,0.1,0.2,0.3,0.3l1.7,0.9
					c0.4,0.2,0.9,0.2,1.3,0l1.7-0.9c0.2-0.1,0.3-0.3,0.3-0.5c0-0.1-0.1-0.2-0.3-0.3l-1.7-0.9C46.1,70.3,45.7,70.3,45.3,70.6z"/>
				<path id="Path_4805" class="st17" d="M42.4,66l1.7-0.9c0.2-0.1,0.3-0.3,0.3-0.5c0-0.1-0.1-0.2-0.3-0.3l-1.7-0.9
					c-0.4-0.2-0.9-0.2-1.3,0l-1.7,0.9c-0.2,0.1-0.3,0.3-0.3,0.5c0,0.1,0.1,0.2,0.3,0.3l1.7,0.9C41.6,66.2,42,66.2,42.4,66z"/>
				<path id="Path_4806" class="st17" d="M46.6,63.7l1.7-0.9c0.2-0.1,0.3-0.3,0.3-0.5c0-0.1-0.1-0.2-0.3-0.3l-1.7-1
					c-0.4-0.2-0.9-0.2-1.3,0l-1.6,0.9c-0.2,0.1-0.3,0.3-0.3,0.5c0,0.1,0.1,0.2,0.3,0.3l1.7,0.9C45.7,63.8,46.2,63.8,46.6,63.7z"/>
				<path id="Path_4807" class="st17" d="M40,67.5l-1.7,0.9c-0.4,0.2-0.9,0.2-1.3,0l-1.7-0.9C35.1,67.4,35,67.2,35,67
					c0-0.1,0.1-0.2,0.3-0.3l1.7-0.9c0.4-0.2,0.9-0.2,1.3,0l1.7,0.9c0.2,0.1,0.3,0.3,0.3,0.5C40.1,67.3,40,67.4,40,67.5z"/>
				<path id="Path_4808" class="st17" d="M43.6,66.7l1.7-0.9c0.4-0.2,0.9-0.2,1.3,0l1.7,0.9c0.2,0.1,0.3,0.3,0.3,0.5
					c0,0.1-0.1,0.2-0.3,0.3l-1.7,0.9c-0.4,0.2-0.9,0.2-1.3,0l-1.7-0.9c-0.2-0.1-0.3-0.3-0.3-0.5C43.4,66.9,43.5,66.8,43.6,66.7z"/>
				<path id="Path_4809" class="st17" d="M56,59.5l1.7-0.9c0.4-0.2,0.9-0.2,1.3,0l1.7,0.9c0.2,0.1,0.3,0.3,0.3,0.5
					c0,0.1-0.1,0.2-0.3,0.3l-1.7,1c-0.4,0.2-0.9,0.2-1.3,0l-1.7-1C55.7,60.1,55.7,59.8,56,59.5z"/>
				<path id="Path_4810" class="st17" d="M60.2,61.9l1.7-0.9c0.4-0.2,0.9-0.2,1.3,0l1.7,0.9c0.2,0.1,0.3,0.3,0.3,0.5
					c0,0.1-0.1,0.2-0.3,0.3l-1.7,0.9c-0.4,0.2-0.9,0.2-1.3,0l-1.7-0.9c-0.2-0.1-0.3-0.3-0.3-0.5C60,62.1,60.1,62,60.2,61.9z"/>
				<path id="Path_4811" class="st17" d="M50.7,61.3l1.7-0.9c0.2-0.1,0.3-0.3,0.3-0.5c0-0.1-0.1-0.2-0.3-0.3l-1.7-0.9
					c-0.4-0.2-0.9-0.2-1.3,0l-1.7,0.9c-0.2,0.1-0.3,0.3-0.3,0.5c0,0.1,0.1,0.2,0.3,0.3l1.7,0.9C49.8,61.4,50.3,61.4,50.7,61.3z"/>
				<path id="Path_4812" class="st17" d="M54.8,58.9l1.7-0.9c0.2-0.1,0.3-0.3,0.3-0.5c0-0.1-0.1-0.2-0.3-0.3l-1.7-0.9
					c-0.4-0.2-0.9-0.2-1.3,0l-1.7,0.9c-0.2,0.1-0.3,0.3-0.3,0.5c0,0.1,0.1,0.2,0.3,0.3l1.7,0.9C53.9,59,54.4,59,54.8,58.9z"/>
				<path id="Path_4813" class="st17" d="M51.9,61.9l1.7-0.9c0.4-0.2,0.9-0.2,1.3,0l1.7,0.9c0.2,0.1,0.3,0.3,0.3,0.5
					c0,0.1-0.1,0.2-0.3,0.3l-1.7,0.9c-0.4,0.2-0.9,0.2-1.3,0l-1.7-0.9c-0.2-0.1-0.3-0.3-0.3-0.5C51.7,62.1,51.8,62,51.9,61.9z"/>
				<path id="Path_4814" class="st17" d="M47.7,69.1l9.9-5.7c0.4-0.2,0.9-0.2,1.3,0l1.7,0.9c0.2,0.1,0.3,0.3,0.3,0.5
					c0,0.1-0.1,0.2-0.3,0.3l-9.9,5.7c-0.4,0.2-0.9,0.2-1.3,0l-1.7-0.9C47.4,69.6,47.4,69.4,47.7,69.1z"/>
				<path id="Path_4815" class="st17" d="M69.8,51.6l1.7-0.9c0.4-0.2,0.9-0.2,1.3,0l1.7,0.9c0.2,0.1,0.3,0.3,0.3,0.5
					c0,0.1-0.1,0.2-0.3,0.3l-1.7,0.9c-0.4,0.2-0.9,0.2-1.3,0l-1.7-0.9C69.5,52.1,69.5,51.8,69.8,51.6z"/>
				<path id="Path_4816" class="st17" d="M73.9,54l1.7-0.9c0.4-0.2,0.9-0.2,1.3,0l1.7,0.9c0.2,0.1,0.3,0.3,0.3,0.5
					c0,0.1-0.1,0.2-0.3,0.3l-1.7,0.9c-0.4,0.2-0.9,0.2-1.3,0l-1.7-0.9c-0.2-0.1-0.3-0.3-0.3-0.5C73.8,54.2,73.8,54.1,73.9,54z"/>
				<path id="Path_4817" class="st17" d="M68.5,50.9l1.7-0.9c0.2-0.1,0.3-0.3,0.3-0.5c0-0.1-0.1-0.2-0.3-0.3l-1.7-0.9
					c-0.4-0.2-0.9-0.2-1.3,0l-1.7,0.9c-0.2,0.1-0.3,0.3-0.3,0.5c0,0.1,0.1,0.2,0.3,0.3l1.7,0.9C67.7,51.1,68.2,51.1,68.5,50.9z"/>
				<path id="Path_4818" class="st17" d="M65.6,54l1.7-0.9c0.4-0.2,0.9-0.2,1.3,0l1.7,0.9c0.2,0.1,0.3,0.3,0.3,0.5
					c0,0.1-0.1,0.2-0.3,0.3l-1.7,0.9c-0.4,0.2-0.9,0.2-1.3,0l-1.7-0.9c-0.2-0.1-0.3-0.3-0.3-0.5C65.5,54.2,65.5,54.1,65.6,54z"/>
				<path id="Path_4819" class="st17" d="M69.8,56.4l1.7-0.9c0.4-0.2,0.9-0.2,1.3,0l1.7,0.9c0.2,0.1,0.3,0.3,0.3,0.5
					c0,0.1-0.1,0.2-0.3,0.3l-1.7,0.9c-0.4,0.2-0.9,0.2-1.3,0l-1.7-0.9C69.5,56.9,69.5,56.6,69.8,56.4z"/>
				<path id="Path_4820" class="st17" d="M60.3,55.7l1.7-0.9c0.2-0.1,0.3-0.3,0.3-0.5c0-0.1-0.1-0.2-0.3-0.3l-1.7-1
					c-0.4-0.2-0.9-0.2-1.3,0l-1.7,1c-0.2,0.1-0.3,0.3-0.3,0.5c0,0.1,0.1,0.2,0.3,0.3l1.7,0.9C59.5,55.9,59.9,55.9,60.3,55.7z"/>
				<path id="Path_4821" class="st17" d="M64.4,53.3l1.7-0.9c0.2-0.1,0.3-0.3,0.3-0.5c0-0.1-0.1-0.2-0.3-0.3l-1.7-0.9
					c-0.4-0.2-0.9-0.2-1.3,0l-1.6,0.9c-0.2,0.1-0.3,0.3-0.3,0.5c0,0.1,0.1,0.2,0.3,0.3l1.7,0.9C63.6,53.5,64.1,53.5,64.4,53.3z"/>
				<path id="Path_4822" class="st17" d="M61.5,56.4l1.7-0.9c0.4-0.2,0.9-0.2,1.3,0l1.7,0.9c0.2,0.1,0.3,0.3,0.3,0.5
					c0,0.1-0.1,0.2-0.3,0.3l-1.7,0.9c-0.4,0.2-0.9,0.2-1.3,0l-1.7-0.9C61.2,56.9,61.2,56.6,61.5,56.4z"/>
				<path id="Path_4823" class="st17" d="M65.6,58.8l1.7-0.9c0.4-0.2,0.9-0.2,1.3,0l1.7,0.9c0.2,0.1,0.3,0.3,0.3,0.5
					c0,0.1-0.1,0.2-0.3,0.3l-1.7,0.9c-0.4,0.2-0.9,0.2-1.3,0l-1.7-0.9c-0.2-0.1-0.3-0.3-0.3-0.5C65.5,58.9,65.5,58.9,65.6,58.8z"/>
				<path id="Path_4824" class="st19" d="M27,64.4l-0.9-0.9H26v-0.1l-0.1-0.1v-0.2V63v-0.2v-0.2v-0.2V35.2V35v-0.2v-0.2v-0.2v-0.2
					L26,34v0l0.1-0.2l0.1-0.2l0.1-0.2l0.1-0.2l0.1-0.2v-0.1l1.1,0.6v0.1L27.5,34l-0.1,0.2l-0.1,0.2l-0.2,0.2l-0.1,0v0.2V35l-0.1,0.2
					v0.2v0.2v0.2V36v0v0.5v26.6v0.2v0.2v0.1v0.2V64l0,0v0.1v0.2L27,64.4L27,64.4z"/>
				<path id="Path_4825" class="st19" d="M54.2,84.8v-2.1h-0.8h-0.2H53h-0.2h-0.2h-0.2h-0.2l-0.3-0.3h-0.2l-0.2-0.1h-0.2l-0.2-0.1
					L50.9,82l0.2,0l-23-13.3L28,68.6l-0.2-0.1l-0.1-0.1l-0.1-0.1l-0.1-0.1l-0.1-0.1L27.3,68l0,0v-0.1l-0.1-0.1v-0.1v-0.1v-0.1v2.1
					v0.1v0.1v0.1l0.1,0.1v0.1l0.1,0.1l0.1,0.1l0.1,0.1v0.1l0.1,0.1l0.1,0.1l0.2,0.1l0.1,0.1l23.1,13.3l0.2,0.1l0.2,0.1h0.2l0.2,0.1
					l0.2,0.1h0.2l0.2,0.1h0.2H53h0.2H53h0.2h0.2L54.2,84.8L54.2,84.8z"/>
			</g>
			<g id="Group_2417" transform="translate(924.653 1353.983)">
				<path id="Path_4456" class="st20" d="M20.9,39.6l-2-1.1V14.4l0.4,0.3l0.8-0.4l0.8-1.4l0.8,0.4l0.9-0.5l0.8-1.4l0.8,0.4l0.9-0.5
					l0.8-1.4l0.8,0.4l0.9-0.5l0.8-1.4L29.2,9L30,8.5l0.9-1.4l2,1.1l-0.8,1.4l-0.9,0.5l-0.8-0.4l-0.9,1.4l-0.9,0.5L28,11.1l-0.9,1.4
					L26.3,13l-0.9-0.5l-0.9,1.4l-0.9,0.5L22.8,14L22,15.4l-0.8,0.4l-0.4-0.3L20.9,39.6L20.9,39.6z M32.3,7l-0.8,0.4l2,1.2l0.8-0.4
					L34.5,8l-1.9-1.2L32.3,7z"/>
				<path id="Path_4457" class="st17" d="M34.6,13.7v17.9l-0.3-0.2l-0.8,0.5l-0.8,1.4L32,32.9l-0.9,0.5l-0.8,1.4l-0.8-0.4l-0.9,0.5
					L28,36.2l-0.8-0.4l-0.9,0.5l-0.8,1.4l-0.8-0.4l-0.9,0.5L23,39.2l-0.8-0.4l-0.8,0.5L21,40V15.5l0.4,0.3l0.4-0.4l0.8-1.4l0.8,0.4
					l0.9-0.5l0.8-1.4l0.8,0.4l0.9-0.5l0.8-1.4l0.8,0.4l0.9-0.5L30,9.6l0.8,0.4l0.9-0.5l0.8-1.4l0.8,0.4l1.1-0.3L34.5,8L34.6,13.7
					L34.6,13.7z"/>
				<path id="Path_4458" class="st21" d="M22.6,24.5l9.5-5.5v0.4l-9.5,5.5C22.6,24.9,22.6,24.5,22.6,24.5z"/>
				<path id="Path_4459" class="st21" d="M22.6,26.8l10.4-6v0.5l-10.4,6V26.8z"/>
				<path id="Path_4460" class="st21" d="M22.6,29.4l8.1-4.7v0.4l-8.1,4.7V29.4z"/>
				<path id="Path_4461" class="st21" d="M22.6,34.9l4-2.3V33l-4,2.3V34.9z"/>
				<path id="Path_4462" class="st21" d="M30.8,30.2l2-1.1v0.4l-2,1.2V30.2z"/>
				<path id="Path_4463" class="st21" d="M22.6,17.4l3.1-1.8V16l-3.1,1.8V17.4z"/>
				<path id="Path_4464" class="st21" d="M29.3,13.5l3.4-2v0.4l-3.4,2C29.3,13.9,29.3,13.5,29.3,13.5z"/>
				<path id="Path_4465" class="st21" d="M22.6,19.5l5.7-3.3v0.4L22.5,20L22.6,19.5L22.6,19.5z"/>
				<path id="Path_4466" class="st21" d="M31.8,14.1l0.9-0.5V14l-1,0.6L31.8,14.1L31.8,14.1z"/>
				<path id="Path_4467" class="st22" d="M18.9,14.4v24.1l2,1.1V15.5L18.9,14.4z"/>
			</g>
		</g>
		<g id="Group_2426" transform="translate(-57 -929)">
			<g class="st23">
				<path class="st24" d="M1108.3,1460h3.4l3.1,8.6h0.1l3.1-8.6h3.4v12.1h-2.1v-9.7h0l-3.7,9.7h-1.5l-3.6-9.7h0v9.7h-2.1V1460z"/>
				<path class="st24" d="M1126.9,1466.9l-4.6-6.9h2.6l3,5.1l3.1-5.1h2.5l-4.6,6.9v5.3h-2.2V1466.9z"/>
			</g>
			<g class="st23">
				<path class="st24" d="M1116.3,1485c-0.3-0.4-0.7-0.7-1.2-0.9c-0.5-0.2-1-0.4-1.6-0.4c-0.3,0-0.6,0-0.9,0.1
					c-0.3,0.1-0.6,0.2-0.9,0.4c-0.3,0.2-0.5,0.4-0.6,0.6c-0.2,0.3-0.2,0.6-0.2,1c0,0.3,0.1,0.6,0.2,0.9c0.1,0.2,0.3,0.4,0.6,0.6
					s0.6,0.3,0.9,0.4c0.4,0.1,0.7,0.3,1.2,0.4c0.5,0.2,1,0.3,1.5,0.5c0.5,0.2,1,0.5,1.4,0.8c0.4,0.3,0.8,0.7,1.1,1.2
					c0.3,0.5,0.4,1.1,0.4,1.9c0,0.8-0.1,1.5-0.4,2.1c-0.3,0.6-0.7,1.1-1.2,1.5c-0.5,0.4-1.1,0.7-1.8,0.9c-0.7,0.2-1.4,0.3-2.1,0.3
					c-1,0-1.9-0.2-2.9-0.5c-0.9-0.4-1.7-0.9-2.3-1.6l1.9-1.8c0.4,0.5,0.9,0.9,1.5,1.2c0.6,0.3,1.2,0.4,1.8,0.4c0.3,0,0.6,0,1-0.1
					s0.6-0.2,0.9-0.4c0.3-0.2,0.5-0.4,0.6-0.7c0.2-0.3,0.2-0.6,0.2-1c0-0.4-0.1-0.7-0.3-1c-0.2-0.3-0.4-0.5-0.7-0.7
					c-0.3-0.2-0.7-0.4-1.1-0.5c-0.4-0.1-0.9-0.3-1.3-0.4c-0.5-0.1-0.9-0.3-1.4-0.5c-0.5-0.2-0.9-0.5-1.2-0.8
					c-0.4-0.3-0.7-0.7-0.9-1.2c-0.2-0.5-0.3-1.1-0.3-1.8c0-0.8,0.2-1.4,0.5-2c0.3-0.6,0.7-1,1.3-1.4c0.5-0.4,1.1-0.6,1.8-0.8
					c0.7-0.2,1.3-0.3,2-0.3c0.8,0,1.6,0.1,2.3,0.4s1.5,0.7,2.1,1.2L1116.3,1485z"/>
				<path class="st24" d="M1120.9,1481.8h10v2.4h-7.3v3.8h7v2.3h-7v4.3h7.7v2.4h-10.4V1481.8z"/>
				<path class="st24" d="M1133.9,1481.8h5.3c0.7,0,1.4,0.1,2.1,0.2s1.3,0.4,1.8,0.7c0.5,0.3,0.9,0.8,1.3,1.3c0.3,0.6,0.5,1.2,0.5,2
					c0,1.1-0.3,2-0.9,2.7s-1.5,1.2-2.5,1.4l4,6.7h-3.3l-3.5-6.4h-2v6.4h-2.7V1481.8z M1138.8,1488.3c0.4,0,0.8,0,1.2-0.1
					c0.4-0.1,0.7-0.2,1-0.3s0.6-0.4,0.8-0.7c0.2-0.3,0.3-0.7,0.3-1.1c0-0.4-0.1-0.8-0.3-1c-0.2-0.3-0.4-0.5-0.7-0.6
					c-0.3-0.2-0.6-0.3-1-0.3c-0.4-0.1-0.7-0.1-1.1-0.1h-2.4v4.3H1138.8z"/>
				<path class="st24" d="M1147.4,1481.8h5.9c0.6,0,1.1,0.1,1.7,0.2c0.6,0.1,1.1,0.4,1.5,0.7c0.4,0.3,0.8,0.7,1.1,1.2
					c0.3,0.5,0.4,1.1,0.4,1.8c0,0.9-0.2,1.6-0.7,2.1c-0.5,0.6-1.1,1-1.9,1.2v0c1,0.1,1.7,0.5,2.4,1.1c0.6,0.6,0.9,1.4,0.9,2.5
					c0,0.8-0.2,1.5-0.5,2.1c-0.3,0.6-0.8,1-1.3,1.4c-0.5,0.3-1.1,0.6-1.8,0.7s-1.4,0.2-2.1,0.2h-5.5V1481.8z M1150.1,1488h2.4
					c0.9,0,1.6-0.2,2.1-0.5s0.7-0.9,0.7-1.5c0-0.7-0.2-1.2-0.7-1.5s-1.2-0.4-2.3-0.4h-2.2V1488z M1150.1,1494.7h2.4
					c0.3,0,0.7,0,1.1-0.1c0.4,0,0.8-0.2,1.1-0.3s0.6-0.4,0.8-0.7c0.2-0.3,0.3-0.7,0.3-1.2c0-0.8-0.3-1.4-0.8-1.7
					c-0.5-0.3-1.4-0.5-2.5-0.5h-2.5V1494.7z"/>
				<path class="st24" d="M1161.2,1481.8h10v2.4h-7.3v3.8h7v2.3h-7v4.3h7.7v2.4h-10.4V1481.8z"/>
				<path class="st24" d="M1182,1485c-0.3-0.4-0.7-0.7-1.2-0.9c-0.5-0.2-1-0.4-1.6-0.4c-0.3,0-0.6,0-0.9,0.1
					c-0.3,0.1-0.6,0.2-0.9,0.4s-0.5,0.4-0.6,0.6c-0.2,0.3-0.2,0.6-0.2,1c0,0.3,0.1,0.6,0.2,0.9c0.1,0.2,0.3,0.4,0.6,0.6
					c0.2,0.2,0.6,0.3,0.9,0.4c0.4,0.1,0.7,0.3,1.2,0.4c0.5,0.2,1,0.3,1.5,0.5c0.5,0.2,1,0.5,1.4,0.8c0.4,0.3,0.8,0.7,1.1,1.2
					s0.4,1.1,0.4,1.9c0,0.8-0.1,1.5-0.4,2.1c-0.3,0.6-0.7,1.1-1.2,1.5c-0.5,0.4-1.1,0.7-1.8,0.9c-0.7,0.2-1.4,0.3-2.1,0.3
					c-1,0-1.9-0.2-2.9-0.5c-0.9-0.4-1.7-0.9-2.3-1.6l1.9-1.8c0.4,0.5,0.9,0.9,1.5,1.2c0.6,0.3,1.2,0.4,1.8,0.4c0.3,0,0.6,0,1-0.1
					s0.6-0.2,0.9-0.4s0.5-0.4,0.6-0.7s0.2-0.6,0.2-1c0-0.4-0.1-0.7-0.3-1c-0.2-0.3-0.4-0.5-0.7-0.7s-0.7-0.4-1.1-0.5
					s-0.9-0.3-1.3-0.4c-0.5-0.1-0.9-0.3-1.4-0.5c-0.5-0.2-0.9-0.5-1.2-0.8c-0.4-0.3-0.7-0.7-0.9-1.2c-0.2-0.5-0.3-1.1-0.3-1.8
					c0-0.8,0.2-1.4,0.5-2c0.3-0.6,0.7-1,1.3-1.4c0.5-0.4,1.1-0.6,1.8-0.8c0.7-0.2,1.3-0.3,2-0.3c0.8,0,1.6,0.1,2.3,0.4
					c0.8,0.3,1.5,0.7,2.1,1.2L1182,1485z"/>
				<path class="st24" d="M1189.3,1484.2h-4.6v-2.4h12v2.4h-4.6v12.8h-2.7V1484.2z"/>
				<path class="st24" d="M1203.2,1481.8h4.2l3.9,10.8h0.1l3.9-10.8h4.2v15.1h-2.7v-12.2h0l-4.6,12.2h-1.9l-4.5-12.2h0v12.2h-2.6
					V1481.8z"/>
				<path class="st24" d="M1222.9,1481.8h10v2.4h-7.3v3.8h7v2.3h-7v4.3h7.7v2.4h-10.4V1481.8z"/>
				<path class="st24" d="M1243.7,1485c-0.3-0.4-0.7-0.7-1.2-0.9c-0.5-0.2-1-0.4-1.6-0.4c-0.3,0-0.6,0-0.9,0.1
					c-0.3,0.1-0.6,0.2-0.9,0.4s-0.5,0.4-0.6,0.6c-0.2,0.3-0.2,0.6-0.2,1c0,0.3,0.1,0.6,0.2,0.9c0.1,0.2,0.3,0.4,0.6,0.6
					c0.2,0.2,0.6,0.3,0.9,0.4c0.4,0.1,0.7,0.3,1.2,0.4c0.5,0.2,1,0.3,1.5,0.5c0.5,0.2,1,0.5,1.4,0.8c0.4,0.3,0.8,0.7,1.1,1.2
					s0.4,1.1,0.4,1.9c0,0.8-0.1,1.5-0.4,2.1c-0.3,0.6-0.7,1.1-1.2,1.5c-0.5,0.4-1.1,0.7-1.8,0.9c-0.7,0.2-1.4,0.3-2.1,0.3
					c-1,0-1.9-0.2-2.9-0.5c-0.9-0.4-1.7-0.9-2.3-1.6l1.9-1.8c0.4,0.5,0.9,0.9,1.5,1.2c0.6,0.3,1.2,0.4,1.8,0.4c0.3,0,0.6,0,1-0.1
					s0.6-0.2,0.9-0.4s0.5-0.4,0.6-0.7s0.2-0.6,0.2-1c0-0.4-0.1-0.7-0.3-1c-0.2-0.3-0.4-0.5-0.7-0.7s-0.7-0.4-1.1-0.5
					s-0.9-0.3-1.3-0.4c-0.5-0.1-0.9-0.3-1.4-0.5c-0.5-0.2-0.9-0.5-1.2-0.8c-0.4-0.3-0.7-0.7-0.9-1.2c-0.2-0.5-0.3-1.1-0.3-1.8
					c0-0.8,0.2-1.4,0.5-2c0.3-0.6,0.7-1,1.3-1.4c0.5-0.4,1.1-0.6,1.8-0.8c0.7-0.2,1.3-0.3,2-0.3c0.8,0,1.6,0.1,2.3,0.4
					c0.8,0.3,1.5,0.7,2.1,1.2L1243.7,1485z"/>
				<path class="st24" d="M1248.2,1481.8h2.7v12.7h6.4v2.4h-9.1V1481.8z"/>
				<path class="st24" d="M1259.1,1481.8h10v2.4h-7.3v3.8h7v2.3h-7v4.3h7.7v2.4h-10.4V1481.8z"/>
				<path class="st24" d="M1272.2,1481.8h2.7v6.5h0.1l6.3-6.5h3.6l-7.1,7l7.6,8.1h-3.8l-6.7-7.6h-0.1v7.6h-2.7V1481.8z"/>
			</g>
			<g class="st23">
				<path class="st24" d="M1108.6,1502.3h4.2l3.9,10.8h0.1l3.9-10.8h4.2v15.1h-2.7v-12.2h0l-4.6,12.2h-1.9l-4.5-12.2h0v12.2h-2.6
					V1502.3z"/>
				<path class="st24" d="M1133,1502.3h2.3l6.5,15.1h-3.1l-1.4-3.5h-6.6l-1.4,3.5h-3L1133,1502.3z M1136.5,1511.7l-2.3-6.2l-2.4,6.2
					H1136.5z"/>
				<path class="st24" d="M1143.4,1502.3h2.7v6.5h0.1l6.3-6.5h3.6l-7.1,7l7.6,8.2h-3.8l-6.7-7.6h-0.1v7.6h-2.7V1502.3z"/>
				<path class="st24" d="M1158.1,1502.3h5.9c0.6,0,1.1,0.1,1.7,0.2c0.6,0.1,1.1,0.4,1.5,0.7c0.4,0.3,0.8,0.7,1.1,1.2
					c0.3,0.5,0.4,1.1,0.4,1.8c0,0.9-0.2,1.6-0.7,2.1c-0.5,0.6-1.1,1-1.9,1.2v0c1,0.1,1.7,0.5,2.4,1.1c0.6,0.6,0.9,1.4,0.9,2.5
					c0,0.8-0.2,1.5-0.5,2.1c-0.3,0.6-0.8,1-1.3,1.4c-0.5,0.3-1.1,0.6-1.8,0.7s-1.4,0.2-2.1,0.2h-5.5V1502.3z M1160.8,1508.5h2.4
					c0.9,0,1.6-0.2,2.1-0.5s0.7-0.9,0.7-1.5c0-0.7-0.2-1.2-0.7-1.5s-1.2-0.4-2.3-0.4h-2.2V1508.5z M1160.8,1515.2h2.4
					c0.3,0,0.7,0,1.1-0.1c0.4,0,0.8-0.2,1.1-0.3s0.6-0.4,0.8-0.7c0.2-0.3,0.3-0.7,0.3-1.2c0-0.8-0.3-1.4-0.8-1.7
					c-0.5-0.3-1.4-0.5-2.5-0.5h-2.5V1515.2z"/>
				<path class="st24" d="M1184,1511.9c0,0.9-0.2,1.7-0.5,2.5s-0.7,1.4-1.3,1.9c-0.5,0.5-1.2,0.9-1.9,1.2c-0.7,0.3-1.5,0.4-2.4,0.4
					s-1.7-0.1-2.4-0.4c-0.7-0.3-1.4-0.7-1.9-1.2c-0.5-0.5-1-1.1-1.3-1.9s-0.5-1.6-0.5-2.5v-9.6h2.7v9.5c0,0.4,0.1,0.9,0.2,1.3
					c0.1,0.4,0.3,0.8,0.6,1.2c0.3,0.3,0.6,0.6,1,0.8c0.4,0.2,1,0.3,1.6,0.3s1.2-0.1,1.6-0.3c0.4-0.2,0.8-0.5,1-0.8
					c0.3-0.3,0.5-0.7,0.6-1.2c0.1-0.4,0.2-0.9,0.2-1.3v-9.5h2.7V1511.9z"/>
				<path class="st24" d="M1186.3,1515l8.2-10.4h-8.1v-2.4h11.3v2.4l-8.3,10.3h8.4v2.4h-11.6V1515z"/>
				<path class="st24" d="M1212.4,1511.9c0,0.9-0.2,1.7-0.5,2.5s-0.7,1.4-1.3,1.9c-0.5,0.5-1.2,0.9-1.9,1.2
					c-0.7,0.3-1.5,0.4-2.4,0.4s-1.7-0.1-2.4-0.4c-0.7-0.3-1.4-0.7-1.9-1.2c-0.5-0.5-1-1.1-1.3-1.9s-0.5-1.6-0.5-2.5v-9.6h2.7v9.5
					c0,0.4,0.1,0.9,0.2,1.3c0.1,0.4,0.3,0.8,0.6,1.2c0.3,0.3,0.6,0.6,1,0.8c0.4,0.2,1,0.3,1.6,0.3s1.2-0.1,1.6-0.3
					c0.4-0.2,0.8-0.5,1-0.8c0.3-0.3,0.5-0.7,0.6-1.2c0.1-0.4,0.2-0.9,0.2-1.3v-9.5h2.7V1511.9z"/>
			</g>
		</g>
	</g>
</g>
</svg>
