<svg xmlns="http://www.w3.org/2000/svg" viewBox="0 0 42.426 42.426">
  <defs>
    <style>
      .cls-1 {
        fill: #fff;
        stroke: #b2b2b2;
      }

      .cls-2 {
        fill: #b2b2b2;
      }

      .cls-3 {
        stroke: none;
      }

      .cls-4 {
        fill: none;
      }
    </style>
  </defs>
  <g id="Group_2376" data-name="Group 2376" transform="translate(-437.787 -853.787)">
    <g id="Rectangle_170" data-name="Rectangle 170" class="cls-1" transform="translate(480.213 875) rotate(135)">
      <rect class="cls-3" width="30" height="30" rx="4"/>
      <rect class="cls-4" x="0.5" y="0.5" width="29" height="29" rx="3.5"/>
    </g>
    <path id="Path_4441" data-name="Path 4441" class="cls-2" d="M13.811,2.782a1.532,1.532,0,0,0,.463-1.126A1.532,1.532,0,0,0,13.811.531l-9-9A1.532,1.532,0,0,0,3.68-8.937a1.532,1.532,0,0,0-1.126.463L1.1-6.951A1.532,1.532,0,0,0,.635-5.826,1.532,1.532,0,0,0,1.1-4.7L7.454,1.656,1.1,8.013a1.6,1.6,0,0,0,0,2.251l1.457,1.523a1.532,1.532,0,0,0,1.126.463,1.532,1.532,0,0,0,1.126-.463Z" transform="translate(454.091 873.688)"/>
  </g>
</svg>
