<svg id="Group_2480" data-name="Group 2480" xmlns="http://www.w3.org/2000/svg" viewBox="0 0 97.622 42">
  <defs>
    <style>
      .cls-1 {
        fill: #fff;
      }

      .cls-2 {
        fill: #e12725;
      }
    </style>
  </defs>
  <rect id="Rectangle_195" data-name="Rectangle 195" class="cls-1" width="97.622" height="42"/>
  <g id="Group_2479" data-name="Group 2479" transform="translate(2.669 2.831)">
    <g id="Group_2478" data-name="Group 2478">
      <path id="Path_4979" data-name="Path 4979" class="cls-2" d="M35.23,36.173l1.846-1.552c.723.863,1.417,1.687,2.109,2.514q2,2.389,3.994,4.782a3.012,3.012,0,0,0,1.91.418.337.337,0,0,0,.117-.1,2.648,2.648,0,0,0-.108-2q-2.691-3.224-5.385-6.446c-.208-.249-.411-.5-.661-.809.614-.519,1.211-1.025,1.846-1.563.5.594.982,1.155,1.454,1.72q2.312,2.765,4.619,5.532a2.608,2.608,0,0,0,1.947.452.311.311,0,0,0,.088-.058,2.869,2.869,0,0,0-.013-1.959q-3.316-3.974-6.631-7.945c-.428-.513-.838-1.044-1.3-1.526a1.265,1.265,0,0,0-.685-.319,3.279,3.279,0,0,0-3.011,1.031,34.5,34.5,0,0,1-2.9,2.441,1.348,1.348,0,0,1-.771.282c-1.716.025-3.433,0-5.149.023-.434.006-.558-.134-.551-.554.023-1.246-.007-2.494.023-3.74a1.02,1.02,0,0,1,.315-.678q3.823-3.239,7.688-6.433a1.405,1.405,0,0,1,.836-.246q15.151-.017,30.3-.01H110.6V55.773H18.32V31.27c1.355,1.531,2.666,3.014,4.009,4.53.765-.64,1.464-1.265,2.209-1.83a1.792,1.792,0,0,1,.96-.36c1.282-.04,2.566,0,3.848-.026.406-.007.626.1.737.513.145.539.4,1.051.526,1.593A1.5,1.5,0,0,0,31.7,36.9a2.786,2.786,0,0,1,2.166,2.611,1.29,1.29,0,0,0,.995,1.2A2.858,2.858,0,0,1,37.084,43.4,1.391,1.391,0,0,0,38,44.561a5.392,5.392,0,0,0,2.917,1c.361-.035.474-.127.555-.473a2.2,2.2,0,0,0-.58-2.148c-1.788-2.034-3.494-4.141-5.23-6.22C35.523,36.553,35.4,36.383,35.23,36.173Zm72.963,17.219V22.6c0-.717,0-.721-.7-.721q-34.825,0-69.649.012a1.491,1.491,0,0,0-.869.314c-1.446,1.171-2.864,2.375-4.291,3.569-.651.545-1.29,1.1-1.955,1.632-.385.305-.262.694-.188,1.041.022.1.385.171.593.179a15.074,15.074,0,0,0,1.733,0,1.453,1.453,0,0,0,.772-.28c1.29-1.047,2.549-2.134,3.84-3.179a1.474,1.474,0,0,1,.818-.293c1.029-.036,2.06,0,3.089-.027a.989.989,0,0,1,.875.4q4.45,5.356,8.931,10.684a1.54,1.54,0,0,1,.392,1.073q-.017,7.8-.007,15.609c0,.792,0,.794.789.794h55.823ZM37.942,48.314a8.8,8.8,0,0,0-.312-1.116,1.369,1.369,0,0,0-1.735-.392c-1.191.995-2.365,2.011-3.579,2.976a.963.963,0,0,0-.36,1.136c.14.717.655.9,1.174,1.12a.656.656,0,0,0,.561-.074c1.342-1.1,2.667-2.212,3.991-3.329A2.036,2.036,0,0,0,37.942,48.314Zm-6.294-7.528c-.123-.434-.127-.889-.356-1.138A2.842,2.842,0,0,0,30.141,39c-.142-.049-.406.159-.575.3-1.115.918-2.218,1.849-3.324,2.774-.805.674-.859.7-.437,1.644.149.332.606.561.967.752a.734.734,0,0,0,.653-.071c1.331-1.08,2.638-2.189,3.948-3.293A2.514,2.514,0,0,0,31.647,40.786Zm3.1,3.828c-.061-.921-.346-1.568-1.207-1.748a.9.9,0,0,0-.658.088q-1.975,1.6-3.9,3.264a.878.878,0,0,0-.217.627,1.471,1.471,0,0,0,1.22,1.435.724.724,0,0,0,.564-.074c1.342-1.1,2.664-2.212,3.987-3.329A1.335,1.335,0,0,0,34.742,44.613Zm-7.723-8.88a1.76,1.76,0,0,0-1.616.626c-.752.675-1.542,1.308-2.319,1.956s-.756.642-.474,1.615c.145.5.59.532.919.753a.583.583,0,0,0,.811-.068c1.274-1.094,2.572-2.161,3.854-3.247a.7.7,0,0,0,.263-.379,1.042,1.042,0,0,0-1.143-1.258C27.258,35.734,27.2,35.734,27.02,35.734Z" transform="translate(-18.32 -19.43)"/>
      <path id="Path_4980" data-name="Path 4980" class="cls-2" d="M553.5,171.793c.546-.941,1.017-1.774,1.511-2.593,1.06-1.758.465-1.413,2.5-1.454.163,0,.328.007.491,0,.409-.022.609.16.609.577q0,4.394,0,8.787c0,.421-.2.586-.607.577-.564-.012-1.128-.013-1.691,0-.447.012-.61-.2-.6-.631.015-1.219.006-2.439,0-3.657a1.116,1.116,0,0,0-.153-.613c-.118.189-.24.376-.354.568-.42.7-.83,1.41-1.257,2.108-.3.5-.584.5-.886.009-.458-.744-.895-1.5-1.345-2.248-.087-.144-.189-.28-.286-.418l-.137.038v.568c0,1.2-.012,2.4,0,3.6.007.489-.186.7-.68.676-.564-.023-1.128-.007-1.691-.007a.463.463,0,0,1-.532-.532q.007-4.421,0-8.843c0-.39.178-.565.564-.561.527.006,1.056.017,1.582-.006a.9.9,0,0,1,.921.527C552.1,169.406,552.77,170.531,553.5,171.793Z" transform="translate(-471.89 -146.418)"/>
      <path id="Path_4981" data-name="Path 4981" class="cls-2" d="M343.641,174.4c.5.827,1,1.645,1.482,2.475a3.827,3.827,0,0,1,.242.691,3,3,0,0,1-.747.186c-2.528-.025-1.836.344-3.093-1.777a5.061,5.061,0,0,0-.532-.886,1.145,1.145,0,0,0-.679-.267c-.058-.007-.217.32-.226.5-.029.6-.022,1.2-.007,1.8.01.433-.163.645-.608.638q-.9-.015-1.8,0c-.424.006-.581-.21-.581-.609q0-4.37,0-8.741c0-.323.089-.6.481-.59,1.655.028,3.319-.031,4.962.127a2.76,2.76,0,0,1,2.775,2.284c.339,1.771-.055,3.24-1.467,3.992A1.162,1.162,0,0,0,343.641,174.4Zm-3.563-3.075c0,1.2,0,1.2,1.215,1.11.09-.007.181-.015.27-.029a.9.9,0,0,0,.827-.865c.1-.81-.254-1.228-1.106-1.237C339.824,170.29,340.111,170.163,340.078,171.325Z" transform="translate(-291.042 -146.486)"/>
      <path id="Path_4982" data-name="Path 4982" class="cls-2" d="M404.048,75.617c.532.883,1.04,1.719,1.543,2.56.386.647.286.829-.478.819-2.622-.038-1.885.377-3.209-1.856-.157-.265-.325-.527-.456-.807a.523.523,0,0,0-.724-.284c-.128.051-.22.334-.229.514-.029.6-.028,1.2-.009,1.8.016.475-.194.654-.654.64-.581-.019-1.164-.009-1.745,0-.383,0-.567-.169-.567-.559q.007-4.421,0-8.84c0-.355.154-.57.511-.561,1.706.045,3.422,0,5.113.188a2.655,2.655,0,0,1,2.589,2.328,3.335,3.335,0,0,1-1.409,3.863C404.252,75.466,404.182,75.52,404.048,75.617ZM401.3,73.7c.252-.023.507-.031.756-.074a.772.772,0,0,0,.723-.762c-.006-.37-.087-.985-.291-1.058a5.514,5.514,0,0,0-1.837-.208,4.261,4.261,0,0,0-.166.922,2.032,2.032,0,0,0,0,.326C400.485,73.687,400.485,73.687,401.3,73.7Z" transform="translate(-342.743 -61.888)"/>
      <path id="Path_4983" data-name="Path 4983" class="cls-2" d="M278.15,171.386c0,1.181.085,2.37-.022,3.542a2.93,2.93,0,0,1-2.452,2.718,6.463,6.463,0,0,1-3.453-.079,2.932,2.932,0,0,1-2.162-2.494,14.163,14.163,0,0,1-.114-2.067c-.016-1.474-.006-2.95,0-4.424,0-.814.039-.851.874-.852.418,0,.838,0,1.256,0,.845,0,.878.035.878.9,0,1.584,0,3.169,0,4.752a5.406,5.406,0,0,0,.055.87.953.953,0,0,0,1.031.912.976.976,0,0,0,1.117-.881,3.9,3.9,0,0,0,.052-.76c0-1.639,0-3.278,0-4.915,0-.845.039-.881.906-.883.491,0,.983.016,1.474,0s.645.2.638.656c-.017,1-.006,2-.006,3A.646.646,0,0,1,278.15,171.386Z" transform="translate(-233.591 -146.403)"/>
      <path id="Path_4984" data-name="Path 4984" class="cls-2" d="M402.766,172.623c0-1.4.016-2.8-.007-4.206-.009-.52.184-.711.7-.707q2.732.028,5.462,0c.527-.006.73.2.7.711-.022.326,0,.656,0,.983,0,.711-.082.794-.775.8-.874,0-1.75.028-2.621-.009-.5-.02-.516.243-.511.607s-.023.679.524.653c.854-.042,1.71,0,2.567-.015.415-.006.606.166.6.583-.01.4-.009.8,0,1.2.012.417-.184.594-.594.591-.874-.009-1.748.013-2.621-.007-.363-.009-.468.127-.475.473-.016.893-.031.893.871.893.819,0,1.639.012,2.458,0,.491-.009.7.2.679.691-.017.382-.013.765,0,1.146.016.456-.17.661-.644.658q-2.841-.02-5.68,0c-.478,0-.634-.214-.629-.669C402.776,175.537,402.766,174.08,402.766,172.623Z" transform="translate(-347.217 -146.392)"/>
      <path id="Path_4985" data-name="Path 4985" class="cls-2" d="M341.076,73.9c0-1.419.013-2.838-.007-4.257-.007-.516.192-.718.707-.715q2.729.022,5.457,0c.487,0,.707.191.688.679-.015.382-.015.765,0,1.145.02.482-.178.691-.676.677-.873-.025-1.747.016-2.619-.016-.482-.017-.629.146-.621.624.007.444.079.669.594.644.8-.039,1.6,0,2.4-.015.473-.01.705.154.7.661-.032,2,.23,1.665-1.659,1.7-.473.007-.948.032-1.418-.007-.5-.041-.664.166-.6.629a.842.842,0,0,1,0,.219c-.055.421.109.583.548.57.927-.028,1.856.007,2.782-.013.469-.01.669.175.651.641-.016.436-.007.873-.006,1.31a.466.466,0,0,1-.538.529q-2.919,0-5.839,0c-.44,0-.548-.253-.546-.637C341.081,76.813,341.076,75.357,341.076,73.9Z" transform="translate(-294.44 -61.795)"/>
      <path id="Path_4986" data-name="Path 4986" class="cls-2" d="M274.746,72.905c.334-.8.608-1.506.921-2.194.95-2.086.472-1.742,2.675-1.769,1.25-.015,1.3.083.688,1.2-.82,1.5-1.659,2.991-2.446,4.507a3.343,3.343,0,0,0-.321,1.285c-.051.76-.026,1.528-.01,2.292.01.484-.181.7-.679.683-.581-.022-1.164-.01-1.747,0-.411.006-.612-.178-.591-.593,0-.073-.009-.147,0-.219a7.654,7.654,0,0,0-1.4-5.443c-.613-.919-1.087-1.933-1.61-2.911-.309-.578-.172-.8.49-.8.546-.006,1.093.012,1.637-.006a.888.888,0,0,1,.932.6C273.748,70.621,274.223,71.7,274.746,72.905Z" transform="translate(-233.707 -61.8)"/>
      <path id="Path_4987" data-name="Path 4987" class="cls-2" d="M460.083,167.735c1.037,0,2.074.015,3.11-.007.485-.01.711.166.69.664s-.006.982-.009,1.473a.448.448,0,0,1-.505.5c-.4,0-.8.031-1.2,0-.468-.036-.634.112-.626.607.028,1.964.012,3.929.01,5.894,0,.756-.049.806-.8.811-.455,0-.909,0-1.365,0-.781-.006-.848-.071-.849-.839,0-1.929-.023-3.858.013-5.785.01-.567-.162-.755-.707-.689a6.455,6.455,0,0,1-.873,0c-.651-.01-.734-.089-.742-.718-.006-.437.006-.873,0-1.31s.192-.619.632-.613C457.936,167.744,459.01,167.735,460.083,167.735Z" transform="translate(-392.966 -146.407)"/>
      <path id="Path_4988" data-name="Path 4988" class="cls-2" d="M466.2,72.715c0,1.018.018,2.038-.007,3.055-.01.415.135.536.536.523.8-.025,1.6.007,2.4-.012.481-.012.712.17.693.669-.017.472-.009.945,0,1.419,0,.374-.149.58-.548.578q-2.756-.007-5.511,0c-.392,0-.562-.191-.562-.568q0-4.421,0-8.84a.5.5,0,0,1,.58-.559c.6,0,1.2.006,1.8,0,.431-.006.629.184.624.625C466.192,70.64,466.2,71.677,466.2,72.715Z" transform="translate(-398.924 -61.838)"/>
      <path id="Path_4989" data-name="Path 4989" class="cls-2" d="M517.831,73.964q0-2.076,0-4.15c0-.756.08-.83.855-.832.527,0,1.056,0,1.584,0a.505.505,0,0,1,.573.57q0,4.423,0,8.847c0,.393-.2.554-.583.549-.564-.006-1.129,0-1.693,0-.638,0-.733-.092-.734-.723C517.826,76.8,517.831,75.383,517.831,73.964Z" transform="translate(-445.637 -61.838)"/>
      <path id="Path_4990" data-name="Path 4990" class="cls-2" d="M516.725,172.631c0-1.4.013-2.8-.006-4.2-.007-.517.189-.73.708-.707.581.026,1.164.012,1.747.006.385,0,.57.17.57.559q0,4.423,0,8.846a.471.471,0,0,1-.536.535c-.583,0-1.165.01-1.747,0-.644-.006-.731-.09-.733-.727C516.722,175.507,516.725,174.069,516.725,172.631Z" transform="translate(-444.687 -146.399)"/>
      <path id="Path_4991" data-name="Path 4991" class="cls-2" d="M520.294,52.891h-.109c-1.305,0-1.278.178-1.213-1.4a.663.663,0,0,1,.457-.447,8.74,8.74,0,0,1,1.735-.007c.172.016.32.3.476.456.009.01,0,.035,0,.054C521.742,52.879,521.73,52.891,520.294,52.891Z" transform="translate(-446.591 -46.399)"/>
      <path id="Path_4992" data-name="Path 4992" class="cls-2" d="M518.892,151.527h-.109c-1.257,0-1.38-.127-1.19-1.381a.69.69,0,0,1,.455-.463,8.828,8.828,0,0,1,1.744,0c.169.016.392.275.446.465a3.58,3.58,0,0,1,.022.868.434.434,0,0,1-.491.507h-.874A.011.011,0,0,0,518.892,151.527Z" transform="translate(-445.372 -130.825)"/>
      <path id="Path_4993" data-name="Path 4993" class="cls-2" d="M302.581,151.17h.271c.873,0,.884.015.878.876-.006.72-.044.758-.778.763H302.3c-.862,0-.89-.029-.884-.881C301.421,151.17,301.423,151.17,302.581,151.17Z" transform="translate(-260.499 -132.134)"/>
      <path id="Path_4994" data-name="Path 4994" class="cls-2" d="M280.62,151.17h.217c.9,0,1.211.421.912,1.3a.662.662,0,0,1-.481.32,12.483,12.483,0,0,1-1.3.016.447.447,0,0,1-.511-.492c0-.109-.006-.217-.006-.326,0-.753.058-.813.79-.817Z" transform="translate(-241.708 -132.134)"/>
    </g>
  </g>
</svg>
