<?xml version="1.0" encoding="utf-8"?>
<!-- Generator: Adobe Illustrator 22.1.0, SVG Export Plug-In . SVG Version: 6.00 Build 0)  -->
<svg version="1.1" id="Layer_1" xmlns="http://www.w3.org/2000/svg" xmlns:xlink="http://www.w3.org/1999/xlink" x="0px" y="0px"
	 viewBox="0 0 310 120" style="enable-background:new 0 0 310 120;" xml:space="preserve">
<style type="text/css">
	.st0{fill:#EBEBEB;}
	.st1{fill:#F5F9FA;}
	.st2{fill:#BDBDBD;}
	.st3{fill:#2192FC;}
	.st4{fill:#3D566E;}
	.st5{fill:#9C9C9C;}
	.st6{enable-background:new    ;}
	.st7{fill:#1F1E1E;}
	.st8{opacity:3.000000e-03;fill:#040507;enable-background:new    ;}
	.st9{opacity:7.000000e-03;fill:#080A0D;enable-background:new    ;}
	.st10{opacity:1.000000e-02;fill:#0B0E14;enable-background:new    ;}
	.st11{opacity:1.300000e-02;fill:#0F131B;enable-background:new    ;}
	.st12{opacity:1.700000e-02;fill:#131822;enable-background:new    ;}
	.st13{opacity:2.000000e-02;fill:#171D29;enable-background:new    ;}
	.st14{opacity:2.300000e-02;fill:#1B2230;enable-background:new    ;}
	.st15{opacity:2.700000e-02;fill:#1F2737;enable-background:new    ;}
	.st16{opacity:3.000000e-02;fill:#232C3F;enable-background:new    ;}
	.st17{opacity:3.300000e-02;fill:#273246;enable-background:new    ;}
	.st18{opacity:3.700000e-02;fill:#2B374D;enable-background:new    ;}
	.st19{opacity:4.000000e-02;fill:#2F3C54;enable-background:new    ;}
	.st20{opacity:4.300000e-02;fill:#34415C;enable-background:new    ;}
	.st21{opacity:4.700000e-02;fill:#384763;enable-background:new    ;}
</style>
<g id="Group_2689" transform="translate(-718 -476)">
	<g id="Group_2397" transform="translate(705.345 475.972)">
		<path id="Path_4517" class="st0" d="M54.3,86c0.9,1.1,1.8,2,2.9,2.8L100,64c1.8-1.2,3.1-3.2,3.2-5.5V12L91.4,2.9l-1.1-0.2
			L77.8,2.5L56.1,14.9c-0.6,0.3-1.1,0.9-1.8,1.4V86L54.3,86z"/>
		<path id="Path_4518" class="st1" d="M95.7,20.4l6-3.4c2.9-1.7,4.6-3.1,1.7-5.4L91,2l5,7.7L95.7,20.4L95.7,20.4z"/>
		<path id="Path_4519" class="st2" d="M57.2,88.7l-3.8-2.1l-0.3-0.3l-0.3-0.6L52.5,85v-0.8V20l0.2-0.3l0.2-0.3l0.2-0.3l0.2-0.3
			l0.3-0.3l0.3-0.3l0.3-0.3l0.3-0.3l0.3-0.3l0.3-0.3l0.3-0.3l0.3-0.3l0.3-0.3l0.3-0.3L79.6,2.2c3.4-1.9,5.4-3,9.5-1.1
			c3.7,1.8,6.3,5.1,7.1,8.9v11l-4.5-2.8v-8.1c0.2-3.8-4.1-8.4-9.8-5.4L59.7,17.4l-0.3,0.3l-0.5,0.2l-0.3,0.3l-0.3,0.2L58,18.6
			l-0.3,0.3l-0.3,0.3v0.6l-0.3,0.3l-0.3,0.3v0.3L56.6,21l-0.2,0.3l-0.2,0.3V86l0.2,0.8l0.3,0.6l0.3,0.5v0.9h0.2V88.7z"/>
		<path id="Path_4520" class="st3" d="M91.9,42.8l1.2,0.8l1.5-1.5l0.6,1.5l1.8-0.9l-0.3,1.8h1.5l-0.8,2.1l1.1,0.9l-1.4,1.8l0.5,1.7
			L96,52.8l-0.3,2l-1.8,0.8l-1.1,2.1l-1.5-0.3l-1.5,1.8l-0.8-1l-1.4,1.5v-1.8l-1.8,0.3l0.5-2.1L85,55.6l1.1-2.1L85.3,52l1.5-1.8
			l-0.2-1.8l1.8-1.1l0.6-2.1l1.7-0.3L91.9,42.8L91.9,42.8z M91.9,45.1C89,47,87.3,50.2,87,53.7c0,3.2,2.1,4.5,4.9,2.8
			c2.9-1.8,4.6-5.1,4.9-8.6C96.7,44.7,94.5,43.6,91.9,45.1z M91.9,45.9c-2.5,1.7-4,4.3-4.1,7.2c0,2.6,1.8,3.8,4.1,2.5
			c2.5-1.7,4-4.3,4.1-7.2C95.9,45.7,94.2,44.7,91.9,45.9z"/>
		<path id="Path_4521" class="st4" d="M63.8,39.6l27-15.8V25l-27,16C63.8,41,63.8,39.6,63.8,39.6z"/>
		<path id="Path_4522" class="st4" d="M63.8,46.4L93,29.5v1.2L63.8,47.6V46.4z"/>
		<path id="Path_4523" class="st4" d="M63.8,53.4l23-13.2v1.2l-23,13.4C63.8,54.8,63.8,53.4,63.8,53.4z"/>
		<path id="Path_4524" class="st5" d="M88.1,4.2v-4c0.3,0.2,0.3,0.3,0.5,0.3c3.7,1.8,6.3,5.1,7.1,8.9v11l-3.8-2.3V10
			C91.6,7.5,90.2,5.4,88.1,4.2z"/>
		<path id="Path_4525" class="st5" d="M57.2,88.7l-3.8-2.1l-0.3-0.3l-0.3-0.6L52.6,85v-0.8V20.4l0.2-0.5l0.2-0.3v-0.3l3.8,2.1
			l-0.2,0.3L56.4,22v0.5l-0.2,0.3v63.5l0.2,0.8l0.2,0.6l0.3,0.5L57.2,88.7z"/>
	</g>
	<g id="Group_2423" transform="translate(454 -709)">
		<g class="st6">
			<path class="st7" d="M375.3,1206.8h5l4.6,12.7h0.1l4.6-12.7h5v17.9h-3.2v-14.4h-0.1l-5.4,14.4h-2.2l-5.3-14.4h-0.1v14.4h-3
				V1206.8z"/>
			<path class="st7" d="M402.8,1216.9l-6.7-10.1h3.9l4.5,7.5l4.5-7.5h3.7l-6.7,10.1v7.7h-3.2V1216.9z"/>
		</g>
		<g class="st6">
			<path class="st7" d="M375.8,1238.9h14.8v3.5h-10.8v5.7H390v3.3h-10.2v6.3h11.4v3.5h-15.4V1238.9z"/>
			<path class="st7" d="M401.4,1255.1h-7.6v-3.2h7.6V1255.1z"/>
			<path class="st7" d="M405.1,1238.9h8.7c0.8,0,1.7,0.1,2.5,0.3s1.5,0.5,2.2,1c0.6,0.5,1.2,1,1.6,1.8c0.4,0.7,0.6,1.6,0.6,2.6
				c0,1.3-0.4,2.3-1.1,3.1c-0.7,0.8-1.6,1.4-2.8,1.8v0.1c1.4,0.2,2.6,0.7,3.5,1.6c0.9,0.9,1.4,2.1,1.4,3.6c0,1.2-0.2,2.2-0.7,3.1
				c-0.5,0.8-1.1,1.5-1.9,2c-0.8,0.5-1.7,0.9-2.7,1.1c-1,0.2-2.1,0.3-3.1,0.3h-8V1238.9z M409.1,1248h3.5c1.3,0,2.3-0.3,3-0.8
				c0.7-0.5,1-1.3,1-2.2c0-1-0.4-1.7-1.1-2.1c-0.7-0.4-1.8-0.6-3.3-0.6h-3.2V1248z M409.1,1257.9h3.6c0.5,0,1.1,0,1.6-0.1
				c0.6-0.1,1.1-0.2,1.6-0.5s0.9-0.6,1.2-1c0.3-0.4,0.5-1,0.5-1.8c0-1.2-0.4-2-1.2-2.5c-0.8-0.5-2-0.7-3.6-0.7h-3.7V1257.9z"/>
			<path class="st7" d="M424.4,1250c0-1.8,0.3-3.4,0.9-4.8c0.6-1.4,1.4-2.7,2.5-3.7s2.3-1.8,3.8-2.3c1.5-0.5,3.1-0.8,4.8-0.8
				c1.7,0,3.4,0.3,4.8,0.8c1.5,0.5,2.7,1.3,3.8,2.3s1.9,2.2,2.5,3.7c0.6,1.4,0.9,3.1,0.9,4.8c0,1.7-0.3,3.3-0.9,4.8
				c-0.6,1.4-1.4,2.7-2.5,3.7c-1.1,1-2.3,1.8-3.8,2.4c-1.5,0.6-3.1,0.9-4.8,0.9c-1.7,0-3.3-0.3-4.8-0.9s-2.7-1.4-3.8-2.4
				c-1.1-1-1.9-2.3-2.5-3.7C424.7,1253.4,424.4,1251.8,424.4,1250z M428.8,1250c0,1.2,0.2,2.3,0.6,3.3c0.4,1,0.9,1.9,1.6,2.6
				c0.7,0.7,1.5,1.3,2.4,1.7c0.9,0.4,2,0.6,3.1,0.6c1.1,0,2.2-0.2,3.1-0.6c0.9-0.4,1.8-1,2.4-1.7c0.7-0.7,1.2-1.6,1.6-2.6
				c0.4-1,0.6-2.1,0.6-3.3c0-1.2-0.2-2.2-0.6-3.2s-0.9-1.9-1.6-2.6c-0.7-0.7-1.5-1.3-2.4-1.7c-0.9-0.4-2-0.6-3.2-0.6
				s-2.2,0.2-3.1,0.6s-1.7,1-2.4,1.7c-0.7,0.7-1.2,1.6-1.6,2.6C428.9,1247.8,428.8,1248.9,428.8,1250z"/>
			<path class="st7" d="M452.3,1238.9h7.8c1.1,0,2.1,0.1,3.1,0.3c1,0.2,1.9,0.6,2.6,1.1c0.8,0.5,1.4,1.2,1.8,2
				c0.5,0.8,0.7,1.8,0.7,3c0,1.6-0.5,2.9-1.4,4c-0.9,1-2.2,1.7-3.7,2.1l6,9.9h-4.8l-5.2-9.5h-2.9v9.5h-4V1238.9z M459.5,1248.5
				c0.6,0,1.1,0,1.7-0.1s1.1-0.2,1.5-0.5c0.5-0.2,0.8-0.6,1.1-1c0.3-0.4,0.4-1,0.4-1.7c0-0.6-0.1-1.1-0.4-1.5
				c-0.3-0.4-0.6-0.7-1-0.9c-0.4-0.2-0.9-0.4-1.4-0.5s-1.1-0.1-1.6-0.1h-3.6v6.3H459.5z"/>
			<path class="st7" d="M472.1,1238.9h7.9c1.5,0,2.9,0.2,4.4,0.6c1.5,0.4,2.8,1,4,1.9c1.2,0.9,2.1,2,2.9,3.4
				c0.7,1.4,1.1,3.2,1.1,5.3c0,2-0.4,3.6-1.1,5c-0.7,1.4-1.7,2.6-2.9,3.5c-1.2,0.9-2.5,1.6-4,2c-1.5,0.4-2.9,0.6-4.4,0.6h-7.9
				V1238.9z M479.4,1257.8c1,0,2.1-0.1,3.1-0.4c1-0.2,2-0.7,2.8-1.2c0.8-0.6,1.5-1.4,2-2.3s0.8-2.2,0.8-3.8c0-1.6-0.3-2.9-0.8-3.9
				s-1.2-1.8-2-2.4s-1.8-1-2.8-1.2c-1-0.2-2.1-0.3-3.1-0.3h-3.3v15.5H479.4z"/>
			<path class="st7" d="M496.2,1238.9h7.8c1.1,0,2.1,0.1,3.1,0.3c1,0.2,1.9,0.6,2.6,1.1c0.8,0.5,1.4,1.2,1.8,2
				c0.5,0.8,0.7,1.8,0.7,3c0,1.6-0.5,2.9-1.4,4c-0.9,1-2.2,1.7-3.7,2.1l6,9.9h-4.8l-5.2-9.5h-2.9v9.5h-4V1238.9z M503.4,1248.5
				c0.6,0,1.1,0,1.7-0.1s1.1-0.2,1.5-0.5c0.5-0.2,0.8-0.6,1.1-1c0.3-0.4,0.4-1,0.4-1.7c0-0.6-0.1-1.1-0.4-1.5
				c-0.3-0.4-0.6-0.7-1-0.9c-0.4-0.2-0.9-0.4-1.4-0.5s-1.1-0.1-1.6-0.1h-3.6v6.3H503.4z"/>
			<path class="st7" d="M515,1250c0-1.8,0.3-3.4,0.9-4.8c0.6-1.4,1.4-2.7,2.5-3.7s2.3-1.8,3.8-2.3c1.5-0.5,3.1-0.8,4.8-0.8
				c1.7,0,3.4,0.3,4.8,0.8c1.5,0.5,2.7,1.3,3.8,2.3s1.9,2.2,2.5,3.7c0.6,1.4,0.9,3.1,0.9,4.8c0,1.7-0.3,3.3-0.9,4.8
				c-0.6,1.4-1.4,2.7-2.5,3.7c-1.1,1-2.3,1.8-3.8,2.4c-1.5,0.6-3.1,0.9-4.8,0.9c-1.7,0-3.3-0.3-4.8-0.9s-2.7-1.4-3.8-2.4
				c-1.1-1-1.9-2.3-2.5-3.7C515.3,1253.4,515,1251.8,515,1250z M519.3,1250c0,1.2,0.2,2.3,0.6,3.3c0.4,1,0.9,1.9,1.6,2.6
				c0.7,0.7,1.5,1.3,2.4,1.7c0.9,0.4,2,0.6,3.1,0.6c1.1,0,2.2-0.2,3.1-0.6c0.9-0.4,1.8-1,2.4-1.7c0.7-0.7,1.2-1.6,1.6-2.6
				c0.4-1,0.6-2.1,0.6-3.3c0-1.2-0.2-2.2-0.6-3.2s-0.9-1.9-1.6-2.6c-0.7-0.7-1.5-1.3-2.4-1.7c-0.9-0.4-2-0.6-3.2-0.6
				s-2.2,0.2-3.1,0.6s-1.7,1-2.4,1.7c-0.7,0.7-1.2,1.6-1.6,2.6C519.5,1247.8,519.3,1248.9,519.3,1250z"/>
		</g>
	</g>
	<g id="Group_2435" transform="translate(718 541.447)">
		<path id="Path_4484" class="st8" d="M89.6,22.3c12.9,7.4,12.9,19.5,0,26.7S56,56.4,43.3,49s-12.9-19.5,0-26.7S76.9,14.8,89.6,22.3
			z"/>
		<path id="Path_4485" class="st9" d="M88.1,23c12,6.9,12,18.1,0,25s-31.3,6.9-43.3,0s-12-18.1,0-25S76.1,16.1,88.1,23z"/>
		<path id="Path_4486" class="st10" d="M86.5,24c11,6.4,11,16.7,0,23.2s-29.2,6.4-40.1,0s-11-16.7,0-23.2S75.5,17.5,86.5,24z"/>
		<path id="Path_4487" class="st11" d="M85,24.9c10.3,6,10.3,15.5,0,21.5s-26.9,6-37.1,0s-10.3-15.5,0-21.5S74.7,18.9,85,24.9z"/>
		<path id="Path_4488" class="st12" d="M83.5,25.8c9.4,5.4,9.4,14.3,0,19.6s-24.6,5.4-33.9,0s-9.4-14.3,0-19.6S74,20.3,83.5,25.8z"
			/>
		<path id="Path_4489" class="st13" d="M81.8,26.6c8.4,4.9,8.4,12.9,0,17.8s-22.3,4.9-30.8,0s-8.4-12.9,0.2-17.8
			C59.5,21.7,73.3,21.7,81.8,26.6z"/>
		<path id="Path_4490" class="st14" d="M80.2,27.5c7.7,4.5,7.7,11.7,0,16s-20.1,4.5-27.8,0s-7.7-11.7,0-16S72.6,23,80.2,27.5z"/>
		<path id="Path_4491" class="st15" d="M78.9,28.4c6.8,3.8,6.8,10.3,0,14.3s-17.8,3.8-24.6,0s-6.8-10.3,0-14.3S72,24.4,78.9,28.4z"
			/>
		<path id="Path_4492" class="st16" d="M77.3,29.3c6,3.4,6,8.9,0,12.4s-15.5,3.4-21.6,0s-6-8.9,0-12.4S71.2,25.8,77.3,29.3z"/>
		<path id="Path_4493" class="st17" d="M75.6,30.3c5.1,2.9,5.1,7.7,0,10.6c-5.8,2.9-12.6,2.9-18.4,0c-5.1-2.9-5.1-7.7,0-10.6
			C63.1,27.2,69.8,27.2,75.6,30.3z"/>
		<path id="Path_4494" class="st18" d="M74.1,31.2c4.3,2.5,4.3,6.4,0,8.9c-4.8,2.5-10.4,2.5-15.2,0c-4.3-2.5-4.3-6.4,0-8.9
			C63.7,28.6,69.3,28.6,74.1,31.2z"/>
		<path id="Path_4495" class="st19" d="M72.4,32.1c3.4,1.8,3.4,5.1,0,7.1c-3.8,1.8-8.3,1.8-12.3,0c-3.4-1.8-3.4-5.1,0-7.1
			C64.1,30.1,68.7,30.1,72.4,32.1z"/>
		<path id="Path_4496" class="st20" d="M71,32.9c2.5,1.4,2.5,3.8,0,5.4c-2.9,1.4-6.1,1.4-9.1,0c-2.5-1.4-2.5-3.8,0-5.4
			C64.7,31.5,68.1,31.5,71,32.9z"/>
		<path id="Path_4497" class="st21" d="M69.5,33.8c1.1,0.3,1.5,1.4,1.1,2.3c-0.2,0.5-0.6,1.1-1.1,1.1c-1.8,0.9-4.1,0.9-6,0
			c-1.1-0.3-1.5-1.4-1.1-2.3c0.2-0.5,0.6-1.1,1.1-1.1C65.4,32.9,67.5,32.9,69.5,33.8z"/>
	</g>
</g>
</svg>
