<svg xmlns="http://www.w3.org/2000/svg" width="173" height="100" viewBox="0 0 173 100">
  <g id="Bordro" transform="translate(-221 -207)">
    <rect id="Rectangle_208" data-name="Rectangle 208" width="70" height="100" transform="translate(221 207)" fill="#fff"/>
    <g id="Group_2423" data-name="Group 2423" transform="translate(-30 -986)">
      <text id="MY" transform="translate(324 1216.814)" fill="#1f1e1e" font-size="20" font-family="AvenirNextCondensed-DemiBold, Avenir Next Condensed" font-weight="300"><tspan x="0" y="0">MY</tspan></text>
      <text id="E-BORDRO" transform="translate(324 1245.841)" fill="#1f1e1e" font-size="25" font-family="AvenirNextCondensed-DemiBold, Avenir Next Condensed" font-weight="300"><tspan x="0" y="0">E-BORDRO</tspan></text>
    </g>
    <g id="Group_2696" data-name="Group 2696" transform="translate(-4 -215)">
      <g id="Group_2397" data-name="Group 2397" transform="translate(221.345 427.972)">
        <path id="Path_4517" data-name="Path 4517" d="M19.7,68.631a12.627,12.627,0,0,0,2.317,2.221l33.888-19.6a5.707,5.707,0,0,0,2.51-4.441V9.931L49.05,2.69l-.772-.1L38.237,2.4,21.052,12.248A12.98,12.98,0,0,0,19.7,13.31Z" transform="translate(-0.678 -0.082)" fill="#ebebeb" fill-rule="evenodd"/>
        <path id="Path_4518" data-name="Path 4518" d="M53.558,16.675l4.731-2.7c2.317-1.255,3.572-2.414,1.255-4.248L49.6,2l3.958,6.082Z" transform="translate(-1.711 -0.068)" fill="#f5f9fa" fill-rule="evenodd"/>
        <path id="Path_4519" data-name="Path 4519" d="M21.962,70.77l-2.993-1.738-.29-.29-.29-.386-.193-.483-.1-.579V16.317l.1-.29.1-.29.1-.29.1-.29.193-.29.193-.29.193-.29.193-.29.193-.29.193-.29.193-.29.29-.193.29-.193.29-.193,18.73-10.91C42.14.1,43.685-.675,46.968.87a10.176,10.176,0,0,1,5.6,7.144V16.7l-3.186-1.834V8.4c.1-2.993-3.283-6.662-7.82-4.345L23.893,14.1l-.29.193-.29.193-.29.193-.193.193-.193.29-.193.29-.193.29-.193.29-.193.29-.193.29-.1.29-.1.29-.1.29-.1.29V68.743l.1.579.193.483.29.386Z" transform="translate(-0.623)" fill="#bdbdbd" fill-rule="evenodd"/>
        <path id="Path_4520" data-name="Path 4520" d="M50.307,35.576l.965.579L52.527,34.9l.483,1.159,1.352-.676-.193,1.545h1.159l-.579,1.738.869.676-1.062,1.545.386,1.255L53.686,43.4l-.193,1.641-1.352.579-.772,1.738-1.159-.193-1.159,1.545-.772-.869L46.927,48.9V47.355l-1.352.386L45.962,46,44.9,45.617l.869-1.738-.579-1.062,1.159-1.352-.1-1.545,1.352-.869.483-1.738,1.255-.193.965-1.545Zm0,1.738a8.649,8.649,0,0,0-3.862,6.758c0,2.51,1.738,3.476,3.862,2.221a8.649,8.649,0,0,0,3.862-6.758c0-2.51-1.738-3.379-3.862-2.221Zm0,.676a7.2,7.2,0,0,0-3.283,5.7c0,2.124,1.448,2.993,3.283,1.931a7.2,7.2,0,0,0,3.283-5.7C53.589,37.8,52.141,37.024,50.307,37.99Z" transform="translate(-1.549 -1.204)" fill="#2192fc" fill-rule="evenodd"/>
        <path id="Path_4521" data-name="Path 4521" d="M27.4,32.555,48.833,20.1v.965L27.4,33.52Z" transform="translate(-0.944 -0.693)" fill="#3d566e" fill-rule="evenodd"/>
        <path id="Path_4522" data-name="Path 4522" d="M27.4,38.02,50.571,24.6v.965L27.4,38.986Z" transform="translate(-0.944 -0.848)" fill="#3d566e" fill-rule="evenodd"/>
        <path id="Path_4523" data-name="Path 4523" d="M27.4,43.924,45.647,33.4v.965L27.4,44.986Z" transform="translate(-0.944 -1.152)" fill="#3d566e" fill-rule="evenodd"/>
        <path id="Path_4524" data-name="Path 4524" d="M47.4,3.786V.6c.193.1.29.193.483.193a10.176,10.176,0,0,1,5.6,7.144v8.689L50.3,14.792V8.324A5.169,5.169,0,0,0,47.4,3.786Z" transform="translate(-1.635 -0.02)" fill="#9c9c9c" fill-rule="evenodd"/>
        <path id="Path_4525" data-name="Path 4525" d="M21.965,71.328l-2.993-1.738-.29-.29-.29-.386-.1-.483-.1-.579V17.165l.1-.386.1-.29V16.2l3.09,1.738-.1.29-.1.29V18.9l-.1.29v50.4l.1.579.1.483.29.386Z" transform="translate(-0.627 -0.558)" fill="#9c9c9c" fill-rule="evenodd"/>
      </g>
      <g id="Group_2435" data-name="Group 2435" transform="translate(234 486.447)">
        <path id="Path_4484" data-name="Path 4484" d="M44.419,115c10.16,5.862,10.16,15.371,0,21.232s-26.638,5.862-36.8,0S-2.54,120.858,7.62,115,34.258,109.135,44.419,115Z" transform="translate(0 -110.6)" fill="#040507" fill-rule="evenodd" opacity="0.003"/>
        <path id="Path_4485" data-name="Path 4485" d="M46.806,117.8c9.476,5.471,9.476,14.361,0,19.832s-24.847,5.471-34.323,0-9.476-14.361,0-19.832S37.329,112.332,46.806,117.8Z" transform="translate(-3.625 -112.69)" fill="#080a0d" fill-rule="evenodd" opacity="0.007"/>
        <path id="Path_4486" data-name="Path 4486" d="M49.193,120.61c8.793,5.08,8.793,13.319,0,18.4s-23.056,5.08-31.849,0-8.793-13.319,0-18.4S40.4,115.53,49.193,120.61Z" transform="translate(-7.249 -114.781)" fill="#0b0e14" fill-rule="evenodd" opacity="0.01"/>
        <path id="Path_4487" data-name="Path 4487" d="M51.513,123.317c8.109,4.689,8.109,12.277,0,16.966s-21.265,4.689-29.406,0c-8.109-4.689-8.109-12.277,0-16.966C30.248,118.628,43.4,118.628,51.513,123.317Z" transform="translate(-10.806 -116.804)" fill="#0f131b" fill-rule="evenodd" opacity="0.013"/>
        <path id="Path_4488" data-name="Path 4488" d="M53.9,126.124c7.425,4.3,7.425,11.267,0,15.566s-19.506,4.3-26.931,0-7.425-11.267,0-15.566C34.426,121.825,46.475,121.825,53.9,126.124Z" transform="translate(-14.431 -118.895)" fill="#131822" fill-rule="evenodd" opacity="0.017"/>
        <path id="Path_4489" data-name="Path 4489" d="M56.287,128.931c6.741,3.908,6.741,10.225,0,14.133s-17.715,3.908-24.456,0-6.741-10.225,0-14.133C38.6,125.023,49.546,125.023,56.287,128.931Z" transform="translate(-18.056 -120.985)" fill="#171d29" fill-rule="evenodd" opacity="0.02"/>
        <path id="Path_4490" data-name="Path 4490" d="M58.656,131.738c6.09,3.517,6.09,9.183,0,12.7s-15.924,3.517-22.014,0-6.09-9.183,0-12.7S52.567,128.221,58.656,131.738Z" transform="translate(-21.63 -123.075)" fill="#1b2230" fill-rule="evenodd" opacity="0.023"/>
        <path id="Path_4491" data-name="Path 4491" d="M61.043,134.545c5.406,3.126,5.406,8.174,0,11.267-5.406,3.126-14.133,3.126-19.539,0s-5.406-8.174,0-11.267C46.91,131.418,55.638,131.418,61.043,134.545Z" transform="translate(-25.254 -125.166)" fill="#1f2737" fill-rule="evenodd" opacity="0.027"/>
        <path id="Path_4492" data-name="Path 4492" d="M63.43,137.352c4.722,2.735,4.722,7.132,0,9.867s-12.342,2.735-17.064,0-4.722-7.132,0-9.867C51.056,134.616,58.709,134.616,63.43,137.352Z" transform="translate(-28.879 -127.256)" fill="#232c3f" fill-rule="evenodd" opacity="0.03"/>
        <path id="Path_4493" data-name="Path 4493" d="M65.818,140.159c4.038,2.345,4.038,6.09,0,8.434a16.009,16.009,0,0,1-14.589,0c-4.038-2.345-4.038-6.09,0-8.434A16.009,16.009,0,0,1,65.818,140.159Z" transform="translate(-32.504 -129.347)" fill="#273246" fill-rule="evenodd" opacity="0.033"/>
        <path id="Path_4494" data-name="Path 4494" d="M68.137,142.916c3.354,1.921,3.354,5.08,0,7a13.519,13.519,0,0,1-12.147,0c-3.354-1.921-3.354-5.08,0-7A13.519,13.519,0,0,1,68.137,142.916Z" transform="translate(-36.061 -131.421)" fill="#2b374d" fill-rule="evenodd" opacity="0.037"/>
        <path id="Path_4495" data-name="Path 4495" d="M70.525,145.723c2.67,1.531,2.67,4.038,0,5.6a10.76,10.76,0,0,1-9.672,0c-2.67-1.531-2.67-4.038,0-5.6A10.76,10.76,0,0,1,70.525,145.723Z" transform="translate(-39.686 -133.511)" fill="#2f3c54" fill-rule="evenodd" opacity="0.04"/>
        <path id="Path_4496" data-name="Path 4496" d="M72.912,148.53c1.986,1.14,1.986,3.029,0,4.168a8,8,0,0,1-7.2,0c-1.986-1.14-1.986-3.029,0-4.168A8,8,0,0,1,72.912,148.53Z" transform="translate(-43.31 -135.602)" fill="#34415c" fill-rule="evenodd" opacity="0.043"/>
        <path id="Path_4497" data-name="Path 4497" d="M75.331,151.337a1.446,1.446,0,0,1,0,2.735,5.311,5.311,0,0,1-4.754,0,1.446,1.446,0,0,1,0-2.735A5.311,5.311,0,0,1,75.331,151.337Z" transform="translate(-46.935 -137.692)" fill="#384763" fill-rule="evenodd" opacity="0.047"/>
      </g>
    </g>
  </g>
</svg>
