<svg xmlns="http://www.w3.org/2000/svg" width="170" height="100" viewBox="0 0 170 100">
  <g id="Müstahsil_Makbuz" data-name="Müstahsil Makbuz" transform="translate(-601 -346)">
    <rect id="Rectangle_212" data-name="Rectangle 212" width="70" height="100" transform="translate(601 346)" fill="#fff"/>
    <g id="Group_2425" data-name="Group 2425" transform="translate(86 -1203.814)">
      <text id="MY" transform="translate(589 1585.814)" fill="#1f1e1e" font-size="20" font-family="AvenirNextCondensed-DemiBold, Avenir Next Condensed" font-weight="300"><tspan x="0" y="0">MY</tspan></text>
      <text id="E-KONTÖR" transform="translate(589 1614.841)" fill="#1f1e1e" font-size="25" font-family="AvenirNextCondensed-DemiBold, Avenir Next Condensed" font-weight="300"><tspan x="0" y="0">E-KONTÖR</tspan></text>
    </g>
    <g id="Group_2702" data-name="Group 2702" transform="translate(812.078 308.696)">
      <g id="Group_2701" data-name="Group 2701" transform="translate(-207.569 93.763)">
        <path id="Path_5313" data-name="Path 5313" d="M-153.434,173.981c12.384,7.153,12.384,18.749,0,25.9s-32.463,7.152-44.848,0-12.384-18.748,0-25.9S-165.819,166.829-153.434,173.981Z" transform="translate(207.569 -168.617)" fill="#040507" fill-rule="evenodd" opacity="0.003"/>
        <path id="Path_5314" data-name="Path 5314" d="M-151.462,176.855c11.554,6.673,11.554,17.492,0,24.165s-30.287,6.673-41.841,0-11.555-17.492,0-24.165S-163.015,170.181-151.462,176.855Z" transform="translate(204.094 -170.623)" fill="#080a0d" fill-rule="evenodd" opacity="0.007"/>
        <path id="Path_5315" data-name="Path 5315" d="M-149.488,179.73c10.725,6.195,10.725,16.236,0,22.43s-28.111,6.194-38.836,0-10.725-16.235,0-22.43S-160.212,173.536-149.488,179.73Z" transform="translate(200.618 -172.631)" fill="#0b0e14" fill-rule="evenodd" opacity="0.01"/>
        <ellipse id="Ellipse_84" data-name="Ellipse 84" cx="25.336" cy="14.633" rx="25.336" ry="14.633" transform="translate(6.375 3.681)" fill="#0f131b" opacity="0.013"/>
        <path id="Path_5316" data-name="Path 5316" d="M-145.539,185.482c9.065,5.235,9.065,13.724,0,18.959s-23.761,5.235-32.827,0-9.064-13.724,0-18.959S-154.6,180.246-145.539,185.482Z" transform="translate(193.664 -176.647)" fill="#131822" fill-rule="evenodd" opacity="0.017"/>
        <path id="Path_5317" data-name="Path 5317" d="M-143.568,188.355c8.236,4.757,8.236,12.467,0,17.224s-21.585,4.756-29.821,0-8.235-12.467,0-17.224S-151.8,183.6-143.568,188.355Z" transform="translate(190.189 -178.654)" fill="#171d29" fill-rule="evenodd" opacity="0.02"/>
        <path id="Path_5318" data-name="Path 5318" d="M-141.593,191.232c7.406,4.277,7.406,11.211,0,15.488s-19.41,4.276-26.815,0-7.406-11.21,0-15.488S-149,186.956-141.593,191.232Z" transform="translate(186.712 -180.662)" fill="#1b2230" fill-rule="evenodd" opacity="0.023"/>
        <path id="Path_5319" data-name="Path 5319" d="M-139.62,194.107c6.576,3.8,6.576,9.954,0,13.752s-17.235,3.8-23.81,0-6.576-9.954,0-13.752S-146.194,190.308-139.62,194.107Z" transform="translate(183.236 -182.669)" fill="#1f2737" fill-rule="evenodd" opacity="0.027"/>
        <path id="Path_5320" data-name="Path 5320" d="M-137.645,196.981c5.746,3.319,5.746,8.7,0,12.017s-15.061,3.319-20.806,0-5.745-8.7,0-12.017S-143.39,193.663-137.645,196.981Z" transform="translate(179.76 -184.676)" fill="#232c3f" fill-rule="evenodd" opacity="0.03"/>
        <path id="Path_5321" data-name="Path 5321" d="M-135.672,199.857c4.916,2.839,4.916,7.441,0,10.281s-12.886,2.839-17.8,0-4.916-7.443,0-10.281S-140.588,197.018-135.672,199.857Z" transform="translate(176.284 -186.684)" fill="#273246" fill-rule="evenodd" opacity="0.033"/>
        <path id="Path_5322" data-name="Path 5322" d="M-133.7,202.731c4.085,2.36,4.085,6.186,0,8.547a16.347,16.347,0,0,1-14.8,0c-4.086-2.36-4.086-6.186,0-8.547A16.356,16.356,0,0,1-133.7,202.731Z" transform="translate(172.808 -188.691)" fill="#2b374d" fill-rule="evenodd" opacity="0.037"/>
        <path id="Path_5323" data-name="Path 5323" d="M-131.724,205.606c3.255,1.881,3.255,4.93,0,6.811a13.034,13.034,0,0,1-11.792,0c-3.255-1.881-3.255-4.929,0-6.811A13.029,13.029,0,0,1-131.724,205.606Z" transform="translate(169.331 -190.698)" fill="#2f3c54" fill-rule="evenodd" opacity="0.04"/>
        <path id="Path_5324" data-name="Path 5324" d="M-129.751,208.482c2.427,1.4,2.427,3.672,0,5.074a9.7,9.7,0,0,1-8.786,0c-2.426-1.4-2.426-3.673,0-5.074A9.7,9.7,0,0,1-129.751,208.482Z" transform="translate(165.855 -192.706)" fill="#34415c" fill-rule="evenodd" opacity="0.043"/>
        <path id="Path_5325" data-name="Path 5325" d="M-127.778,211.357c1.6.922,1.6,2.417,0,3.339a6.385,6.385,0,0,1-5.781,0c-1.6-.922-1.6-2.417,0-3.339A6.387,6.387,0,0,1-127.778,211.357Z" transform="translate(162.38 -194.713)" fill="#384763" fill-rule="evenodd" opacity="0.047"/>
      </g>
      <path id="Path_5326" data-name="Path 5326" d="M-172.887,51.414l.646-.363.642-.342.637-.321.634-.3.628-.28.622-.259.619-.238.613-.218.608-.2.6-.178.6-.157.59-.137.584-.118.579-.1.57-.079.565-.06.558-.04.549-.021h.543l.536.018.527.036.52.055.511.074.5.092.494.111.486.129.477.147.467.166.458.183.449.2.439.219.429.236,5.84,3.372-.43-.237-.439-.219-.449-.2-.458-.183-.468-.165-.477-.148-.486-.129-.494-.111-.5-.091-.512-.074-.52-.055-.527-.037-.536-.018-.543,0-.549.021-.558.04-.564.059-.571.078-.579.1-.584.117-.59.138-.6.158-.6.178-.608.2-.613.218-.619.238-.622.26-.628.279-.633.3-.638.321-.642.342-.645.364-.646.382-.642.4-.637.414-.634.43-.628.446-.624.46-.619.475-.613.49-.608.5-.6.517-.6.531-.59.543-.585.555-.577.568-.571.581-.565.592-.558.6-.55.614-.543.626-.536.634-.527.646-.52.654-.512.665-.5.673-.495.681-.486.69-.477.7-.469.705-.458.712-.45.719-.439.725-.43.732-.419.738-.409.743-.4.749-.388.753-.378.759-.366.761-.354.767-.344.768-.331.773-.32.776-.307.777-.3.78-.283.781-.27.783-.258.784-.244.784-.23.785-.217.785-.2.784-.19.784-.176.784-.162.781-.147.781-.133.778-.117.777-.1.773-.088.771-.072.767-.056.763-.041.759-.025.755-.009.75,0,.293,0,.295.006.294.01.295.013.293.014.289.017.286.02.282.037.385.053.368.068.352.085.337.1.321.114.3.128.287.142.27.156.254.168.235.181.219.193.2.205.182.216.165.227.146-5.838-3.371-.228-.146-.216-.165-.205-.183-.193-.2-.181-.218-.168-.236-.156-.253-.142-.27-.129-.286-.113-.3-.1-.321-.085-.335-.068-.352-.053-.369-.037-.384-.02-.282-.017-.287-.015-.29-.013-.293-.009-.293-.007-.295,0-.294,0-.294.008-.75.025-.755.041-.759.057-.764.071-.767.088-.77.1-.774.117-.776.133-.778.147-.781.162-.782.176-.783.19-.784.2-.785.217-.784.23-.785.244-.785.258-.783.269-.783.283-.782.3-.779.307-.778.32-.776.331-.771.343-.77.354-.765.367-.762.378-.758.388-.753.4-.749.409-.743.419-.738.43-.732.439-.727.45-.718.458-.713.467-.706.478-.7.486-.69.495-.681.5-.673.512-.664.52-.655.527-.645.536-.635.543-.625.551-.614.558-.6.565-.592.571-.581.578-.568.585-.557.59-.543.6-.53.6-.517.607-.5.613-.491.619-.475.624-.46.628-.445.633-.431.638-.414.642-.4Z" transform="translate(-5.994)" fill="#2c3e50" fill-rule="evenodd"/>
      <path id="Path_5327" data-name="Path 5327" d="M-157.5,60.3c6.906-3.983,13.158-4.358,17.683-1.74s7.322,8.224,7.319,16.2c0,.779-.034,1.617-.087,2.426A15.557,15.557,0,0,1-134.9,84a14.62,14.62,0,0,1-4.914,5.049l-7.838,4.522a30.608,30.608,0,0,1-3.842,5.93,22.913,22.913,0,0,1-6.022,5.246,11.086,11.086,0,0,1-6.02,1.7,6.222,6.222,0,0,1-3.84-1.5l-7.837,4.521c-1.887,1.088-3.615,1.251-4.913.619s-2.159-2.06-2.312-4.151c-.055-.745-.086-1.547-.086-2.326,0-7.976,2.806-16.814,7.334-24.653S-164.4,64.282-157.5,60.3Z" transform="translate(-15.546 -5.512)" fill="#3d566e" fill-rule="evenodd"/>
      <path id="Path_5328" data-name="Path 5328" d="M-135.707,73.312c-3.724-2.154-8.87-1.846-14.557,1.433s-10.836,8.912-14.563,15.364-6.034,13.727-6.037,20.295c0,.68.02,1.288.068,1.938a1.816,1.816,0,0,0,.9,1.615,2.06,2.06,0,0,0,1.925-.252l8.955-5.165v.008a1.387,1.387,0,0,1,1.847.092,4.037,4.037,0,0,0,2.982,1.468,7.25,7.25,0,0,0,3.912-1.124,14.829,14.829,0,0,0,3.914-3.39,20.025,20.025,0,0,0,2.895-4.7,4.85,4.85,0,0,1,1.939-2.44l8.955-5.167a5.7,5.7,0,0,0,1.925-1.969,6.021,6.021,0,0,0,.9-2.651c.049-.706.069-1.338.07-2.017C-129.679,80.081-131.982,75.465-135.707,73.312Z" transform="translate(-22.781 -14.852)" fill="#e6eaeb" fill-rule="evenodd"/>
      <path id="Path_5329" data-name="Path 5329" d="M-117.328,86.743a2.65,2.65,0,0,1-1.2,2.071c-.658.379-1.2.069-1.2-.691h0a2.649,2.649,0,0,1,1.2-2.071c.659-.38,1.2-.069,1.2.691Z" transform="translate(-54.522 -23.511)" fill="#2c3e50" fill-rule="evenodd"/>
      <path id="Path_5330" data-name="Path 5330" d="M-87.324,83.788c-.467.807-.465,1.684,0,1.953s1.225-.17,1.691-.975h0c.466-.806.465-1.683,0-1.952s-1.225.168-1.69.975Z" transform="translate(-74.41 -21.552)" fill="#2c3e50" fill-rule="evenodd"/>
      <path id="Path_5331" data-name="Path 5331" d="M-163.869,164.541c.659-.381,1.2-.069,1.2.691a2.65,2.65,0,0,1-1.2,2.072h0c-.659.379-1.2.068-1.2-.692a2.652,2.652,0,0,1,1.2-2.071Z" transform="translate(-26.379 -72.223)" fill="#2c3e50" fill-rule="evenodd"/>
      <path id="Path_5332" data-name="Path 5332" d="M-149.731,119.785c.465.269.464,1.147,0,1.953s-1.225,1.244-1.691.976h0c-.465-.27-.464-1.147,0-1.954s1.226-1.245,1.691-.975Z" transform="translate(-34.629 -44.498)" fill="#2c3e50" fill-rule="evenodd"/>
      <path id="Path_5333" data-name="Path 5333" d="M-105.186,92.77l-.716-.413-.064-.025-.068-.014-.071,0-.075.006-.078.016-.08.026-.081.036-.082.045-.082.054-.081.064-.082.074-.078.081-.078.091-.207.258-.241.3-.271.338-.3.373-.326.406-.351.436-.374.463-.392.489-.411.509-.426.53-.438.546-.451.56-.458.57-.466.578-.47.584-.473.587-.472.587-.47.584-.465.579-.459.57-.45.56-.439.545-.426.53-.41.51-.393.489-.373.463-.35.436-.326.406-.3.374-.271.337-.24.3-.208.258-.124-.052-.13-.039-.136-.027-.143-.016-.149,0-.154.011-.16.024-.165.038-.281.092-.279.125-.277.157-.273.186-.267.212-.259.237-.249.259-.239.28-.227.3-.211.315-.195.328-.177.34-.158.35-.136.357-.112.363-.088.365-.092.7.022.622.126.534.223.436.311.325.716.414-.311-.326-.223-.435-.126-.535-.021-.622.091-.7.088-.366.112-.362.136-.357.158-.349.177-.341.2-.327.21-.314.227-.3.239-.28.25-.26.259-.237.267-.212.273-.186.277-.156.279-.126.281-.092.165-.038.16-.024.154-.01.149,0,.142.015.136.027.13.04.124.051.207-.258.24-.3.271-.337.3-.373.326-.406.351-.437.372-.463.393-.489.41-.509.426-.53.439-.546.45-.559.459-.57.465-.578.47-.585.472-.587.473-.587.47-.584.466-.579.458-.57.451-.559.438-.546.426-.53.411-.51.392-.487.374-.465.351-.435.326-.406.3-.374.271-.337.241-.3.207-.258.078-.09.078-.082.082-.073.082-.064.082-.054.082-.045.081-.037.08-.025.078-.017.075-.005.071,0,.068.014Z" transform="translate(-52.057 -27.498)" fill="#c0392b" fill-rule="evenodd"/>
      <path id="Path_5334" data-name="Path 5334" d="M-119.741,115.967c1.492-.4,3.027-2.308,3.429-4.263a3.834,3.834,0,0,0,.031-1.546l9.85-12.247,2.257-2.805a2,2,0,0,0,.4-.824.918.918,0,0,0-.085-.7.448.448,0,0,0-.516-.159,1.306,1.306,0,0,0-.643.47c-2.03,2.522-10.079,12.53-12.108,15.053a1.661,1.661,0,0,0-1.161-.063c-1.493.4-3.028,2.309-3.428,4.263S-121.233,116.366-119.741,115.967Z" transform="translate(-53.222 -28.175)" fill="#e74c3c" fill-rule="evenodd"/>
      <path id="Path_5335" data-name="Path 5335" d="M-73.221,115.016c-.658.379-1.2.068-1.2-.692a2.654,2.654,0,0,1,1.2-2.072h0c.657-.38,1.195-.067,1.194.693a2.652,2.652,0,0,1-1.2,2.071Z" transform="translate(-82.638 -39.772)" fill="#2c3e50" fill-rule="evenodd"/>
      <path id="Path_5336" data-name="Path 5336" d="M-130.153,87.882l-.007-.61-.019-.6-.033-.587-.046-.576-.059-.563-.071-.551-.085-.539-.1-.528-.108-.515-.121-.5-.133-.489-.145-.478-.155-.465-.168-.453-.178-.44-.19-.428-.2-.414-.211-.4-.222-.388-.233-.374-.242-.362-.253-.349-.263-.334-.272-.321-.282-.308-.292-.294-.3-.28-.31-.265-.319-.252-.328-.237-.336-.223-.345-.21.666.385.345.209.337.223.328.237.319.252.31.266.3.28.292.294L-133,77l.272.322.263.334.253.348.242.362.233.375.222.388.21.4.2.414.19.428.178.44.167.453.156.465.145.477.132.491.121.5.109.515.1.527.085.54.071.551.059.563.046.576.033.586.019.6.006.61v.253l0,.25,0,.249-.008.248-.009.249-.013.252-.014.256-.016.261-.036.334-.061.338-.083.338-.1.338-.126.335-.146.33-.164.324-.18.314-.2.3-.212.291-.224.277-.239.261-.249.241-.259.222-.269.2-.276.174-8.955,5.167-.308.2-.295.241-.278.276-.261.305-.238.329-.215.351-.186.364-.157.373-.141.315-.148.314-.152.311-.159.308-.164.307-.17.3-.175.3-.179.3-.184.295-.19.29-.194.287-.2.283-.2.279-.208.275-.212.269-.216.265-.218.257-.222.253-.226.247-.23.241-.234.236-.237.231-.241.223-.244.218-.247.21-.25.2-.254.2-.257.19-.259.182-.262.174-.264.167-.267.159-.266.149-.265.138-.261.127-.26.118-.255.106-.254.1-.251.085-.247.075-.244.065-.241.053-.237.044-.234.034-.23.024-.226.014-.222,0-.218-.006-.445-.044-.426-.086-.407-.125-.387-.166-.365-.2-.665-.385.365.2.387.166.407.126.426.085.445.044.218.006.222,0,.226-.013.23-.025.234-.033.237-.044.241-.053.244-.065.247-.074.251-.085.254-.1.257-.106.259-.116.262-.128.264-.138.266-.149.267-.158.264-.167.262-.175.259-.182.257-.19.254-.2.25-.2.247-.211.245-.217.241-.224.237-.23.234-.236.231-.242.225-.247.222-.252.218-.258.216-.265.212-.269.208-.275.2-.278.2-.284.194-.286.19-.291.184-.294.179-.3.175-.3.17-.3.163-.306.16-.309.152-.311.148-.313.142-.314.157-.374.187-.363.214-.349.239-.33.26-.305.278-.275.3-.242.307-.2,8.955-5.165.276-.174.269-.2.259-.221.249-.242.239-.261.225-.277.211-.292.2-.3.18-.315.164-.324.146-.33.126-.335.106-.338.083-.338.06-.338.036-.333.017-.261.014-.257.013-.252.009-.25.008-.248.005-.247,0-.25v-.254Zm-38.292,27.056,8.955-5.165.008.005.26-.132.265-.1.257-.055.245-.013.232.03.215.076.666.384-.215-.074-.232-.031-.245.013-.258.055-.264.1-.268.135-.008,0-8.947,5.161-.277.145-.267.11-.26.079-.249.046-.238.014-.225-.017-.212-.047-.2-.077-.666-.385-.18-.107.193.111.184.072.212.047.225.017.238-.013.249-.046.26-.078.267-.111Z" transform="translate(-22.975 -16.47)" fill="#2c3e50" fill-rule="evenodd"/>
      <path id="Path_5337" data-name="Path 5337" d="M-137.787,51.512l.646-.363.642-.342.637-.321.634-.3.627-.28.624-.259.619-.238.613-.218.608-.2.6-.177.6-.158.59-.137.584-.118.579-.1.571-.079.564-.06.041,0,5.838,3.37-.041,0-.564.06-.571.078-.579.1-.584.117-.59.138-.6.158-.6.178-.608.2-.613.218-.618.239-.624.259-.628.279-.633.3-.638.321-.642.342-.646.364-.645.382-.642.4-.637.414-.632.43-.629.446-.383.282-5.838-3.37.382-.283.628-.446.633-.43.638-.414.642-.4Z" transform="translate(-41.095 -0.098)" fill="#354c61" fill-rule="evenodd"/>
      <path id="Path_5338" data-name="Path 5338" d="M-184.787,110.154l-.291.511-.409.743-.4.749-.388.754-.378.758-.366.761-.354.767-.344.768-.331.773-.32.776-.307.777-.3.78-.283.781-.27.783-.258.784-.245.784-.23.785-.217.785-.2.784-.19.784-.176.784-.162.781-.147.781-.133.779-.117.776-.1.773-.088.771-.072.767-.056.763-.027.491-5.838-3.37.026-.491.057-.764.071-.767.088-.77.1-.774.117-.776.133-.779.147-.78.162-.782.176-.783.191-.784.2-.785.217-.784.23-.785.244-.785.258-.783.269-.783.283-.782.3-.779.307-.778.32-.776.331-.771.344-.77.353-.765.367-.762.376-.758.388-.754.4-.747.409-.743.291-.511Z" transform="translate(-6.073 -36.478)" fill="#243340" fill-rule="evenodd"/>
    </g>
  </g>
</svg>
