<svg xmlns="http://www.w3.org/2000/svg" width="206" height="100" viewBox="0 0 206 100">
  <g id="Mütabakat" transform="translate(-601 -199)">
    <rect id="Rectangle_211" data-name="Rectangle 211" width="70" height="100" transform="translate(601 199)" fill="#fff"/>
    <g id="Group_2422" data-name="Group 2422" transform="translate(58 -1024.814)">
      <text id="MY" transform="translate(617 1254.814)" fill="#1f1e1e" font-size="20" font-family="AvenirNextCondensed-DemiBold, Avenir Next Condensed" font-weight="300"><tspan x="0" y="0">MY</tspan></text>
      <text id="E-MÜTABAKAT" transform="translate(617 1283.841)" fill="#1f1e1e" font-size="25" font-family="AvenirNextCondensed-DemiBold, Avenir Next Condensed" font-weight="300"><tspan x="0" y="0">E-MÜTABAKAT</tspan></text>
    </g>
    <g id="Group_2698" data-name="Group 2698" transform="translate(8.089 -227)">
      <g id="Group_2400" data-name="Group 2400" transform="translate(592.063 429.387)">
        <g id="Group_2399" data-name="Group 2399" transform="translate(5.848 4.613)">
          <path id="Path_4537" data-name="Path 4537" d="M20.639,2.663l-3.79-2.2L16.49.307,16.132.2l-.41-.1-.41-.051L14.852,0h-.871L13.52.051l-.461.1-.461.1L12.137.41l-.512.2-.512.2-.512.256-.512.307-.512.307-.512.358-.512.358-.512.41-.461.41-.461.41L6.606,4.1l-.461.461-.461.512-.41.512-.41.512-.41.563-.41.512-.358.563L3.329,8.3,2.97,8.86l-.358.615-.307.615L2,10.7l-.256.615-.256.615-.256.615-.2.615-.2.666-.2.615-.154.615-.154.615-.1.615L.1,16.9l-.051.615L0,18.18V19.41l.051.563.051.512L.2,21l.1.512.154.461.154.461.2.41.2.41.2.358.256.358.256.307L2,24.582l.307.256.307.256,1.383.819L6.4,27.3,20.639,2.663ZM19.512,2.3Zm.358.1Zm.358.1h0l.1.051C20.28,2.561,20.28,2.509,20.229,2.509Z" fill="#415a73" fill-rule="evenodd"/>
          <path id="Path_4538" data-name="Path 4538" d="M17.538,28.881c5.531-3.226,10.038-11.011,10.038-17.412S23.069,2.455,17.538,5.682C12.007,8.857,7.5,16.692,7.5,23.094S12.007,32.107,17.538,28.881Z" transform="translate(-3.659 -2.097)" fill="#2c3e50" fill-rule="evenodd"/>
          <path id="Path_4539" data-name="Path 4539" d="M25.72,12.178l-1.383-.819-.256-.1-.256-.1-.307-.051-.307-.051L22.9,11h-.615l-.307.051-.358.051-.358.1-.358.1-.358.154-.358.154-.358.2-.358.2-.358.2-.358.256-.358.256-.41.307-.358.307-.358.307-.358.307-.307.358-.307.358-.307.358-.307.358-.307.41-.307.41-.256.41-.256.41-.256.41-.256.41-.2.41-.2.461-.2.461-.2.461-.154.461-.154.461-.154.461-.154.461-.1.461-.1.461-.051.358-.051.461-.051.461-.051.461v.871l.051.41.051.41.051.358.1.358.1.358.1.307.154.307.154.307.154.256.154.256.2.2.2.2.2.2.2.154.973.563.358.2c1.332.922,2.3,1.434,5.377-.358s7.221-9.013,7.221-12.547c.051-3.534-.871-4.148-2.3-4.814Zm-.871-.256Zm.307.051Zm.256.1Z" transform="translate(-5.952 -5.367)" fill="#e6eaeb" fill-rule="evenodd"/>
          <path id="Path_4540" data-name="Path 4540" d="M22.121,30.311a16.013,16.013,0,0,0,7.221-12.547c0-4.609-3.226-6.5-7.221-4.2A16.013,16.013,0,0,0,14.9,26.112C14.9,30.772,18.126,32.616,22.121,30.311Z" transform="translate(-7.269 -6.139)" fill="#bdbdbd" fill-rule="evenodd"/>
          <path id="Path_4541" data-name="Path 4541" d="M33.078,50.945,26.83,46.028,18.892,30.921l-.2-.154-.2-.2-.2-.2-.154-.2-.154-.256-.154-.256-.154-.256-.1-.307-.154-.256-.1-.307-.051-.358L17.2,27.8l-.051-.358-.051-.41v-.819l.051-.41.051-.41.051-.41.051-.41.1-.41.1-.41.1-.41.154-.41.154-.41.154-.41.154-.41.2-.41.2-.41.2-.41.2-.41.256-.41.256-.41.256-.41.256-.358.256-.358.307-.358c4.916-5.787,15.927-3.79,22.175-1.844a3.534,3.534,0,0,1,2.3,2.049L46.6,21.139a3.559,3.559,0,0,1,.256,2.407l-1.229,5.531,6.76,15.005-7.016,3.892c.154.461-1.536,2.458-3.431,1.895-.256.41-.1,1.28-2.2,1.229.1.41-.41.768-1.383.768L33.9,51.252A1.256,1.256,0,0,1,33.078,50.945Z" transform="translate(-8.343 -6.799)" fill="#e8d5a7" fill-rule="evenodd"/>
          <path id="Path_4542" data-name="Path 4542" d="M60.057,48.369l-3.995-3.124-3.022-4.712L50.378,37.87a6.864,6.864,0,0,1-2.049-4.66l-.1-3.329-5.736-.563-2.3,2.714a2.414,2.414,0,0,1-2.458.871l-2.151-.717a.556.556,0,0,1-.41-.41.7.7,0,0,1,.051-.563l4.455-7.067a1.957,1.957,0,0,1,1.383-.973l9.577-1.485a.609.609,0,0,1,.563.2l5.787,5.07c5.019,4.4,2.612,4.353,7.631,5.531a32.408,32.408,0,0,1,4.609,1.639c3.482,6.965-1.741,12.035-6.914,13.623C62.311,47.806,60.467,48.574,60.057,48.369Z" transform="translate(-17.141 -10.574)" fill="#c2ac78" fill-rule="evenodd"/>
          <path id="Path_4543" data-name="Path 4543" d="M56.018,77.658a8.553,8.553,0,0,1-5.429-1.895c-1.639-1.332-4.916-4.66-4.609-4.968.154-.154,3.38,3.278,4.916,4.558A12.717,12.717,0,0,0,56.018,77.658Z" transform="translate(-22.423 -34.537)" fill="#c2ac78" fill-rule="evenodd"/>
          <path id="Path_4544" data-name="Path 4544" d="M61.463,73.607c-1.792,0-3.585,0-5.224-1.434s-6.35-5.531-6.146-5.787c.256-.307,5.121,4.148,6.5,5.429C58.032,73.146,60.029,73.2,61.463,73.607Z" transform="translate(-24.436 -32.38)" fill="#c2ac78" fill-rule="evenodd"/>
          <path id="Path_4545" data-name="Path 4545" d="M68.98,69.165c-2.3-.256-4.916-.615-6.76-2.2-1.844-1.639-5.787-5.019-5.531-5.275.2-.256,4.455,3.482,6.094,4.968C64.371,68.09,67.034,68.551,68.98,69.165Z" transform="translate(-27.651 -30.09)" fill="#c2ac78" fill-rule="evenodd"/>
          <path id="Path_4546" data-name="Path 4546" d="M52.166,81.115c-1.792-.2-4.148-.563-5.582-1.792s-4.2-3.687-3.995-3.943c.256-.307,3.073,2.765,4.4,3.687A17.048,17.048,0,0,0,52.166,81.115Z" transform="translate(-20.773 -36.765)" fill="#c2ac78" fill-rule="evenodd"/>
          <path id="Path_4547" data-name="Path 4547" d="M92.241,41.163l-3.79-2.2-.358-.154-.358-.1-.41-.1-.41-.051-.41-.051h-.871l-.461.051-.461.1-.563.1-.512.154-.512.2-.512.2-.512.256-.512.307-.512.307-.512.358-.512.358-.512.41-.512.41-.461.41-.461.461-.461.461-.461.512-.41.512-.41.512-.41.563-.41.563-.358.563-.358.563-.358.563-.358.615-.307.615-.307.615-.256.615-.256.615-.256.615-.2.615-.2.615-.2.615-.154.615-.154.615-.1.615-.1.615-.051.615-.051.615v1.229l.051.563.051.563.1.512.1.512.154.461.154.461.2.41.2.41.2.358.256.358.256.307.256.307.307.256.307.256,1.383.819L77.9,65.8l14.34-24.633Zm-1.178-.41Zm.41.1Zm.358.1h0l.051.051Z" transform="translate(-34.883 -18.783)" fill="#415a73" fill-rule="evenodd"/>
          <path id="Path_4548" data-name="Path 4548" d="M89.237,67.281c5.531-3.226,10.038-11.011,10.038-17.412s-4.507-9.013-10.038-5.787S79.2,55.092,79.2,61.494C79.148,67.9,83.655,70.507,89.237,67.281Z" transform="translate(-38.639 -20.831)" fill="#2c3e50" fill-rule="evenodd"/>
          <path id="Path_4549" data-name="Path 4549" d="M29.728,63.011l-2.919-.1a1.709,1.709,0,0,1-1.178-.461l-.461-.41a1.724,1.724,0,0,1-.615-1.332V59.529l-.256-.051a1.842,1.842,0,0,1-.922-.615l-.819-1.024a1.653,1.653,0,0,1-.41-1.075l-.051-.819-.307-.1a2.045,2.045,0,0,1-1.024-.819l-.512-.871a3.133,3.133,0,0,1-.461-1.792V52A3.227,3.227,0,0,1,17.9,48.979v-.871l.1-1.895c.1-1.024.461-1.28,1.332-1.332a2.281,2.281,0,0,1,1.178.154l.461.2a2.648,2.648,0,0,1,.922.768,1.79,1.79,0,0,1,.41,1.127v1.178l.563.256.615.512a1.989,1.989,0,0,1,.717,1.69l-.051,1.69c.256.154.461.256.768.461l.615.461a2.565,2.565,0,0,1,.819,1.844l-.051,2.1a2.513,2.513,0,0,1,1.69.819,2.361,2.361,0,0,1,.768,1.332l.256,1.741Z" transform="translate(-8.731 -21.887)" fill="#c2ac78" fill-rule="evenodd"/>
          <path id="Path_4550" data-name="Path 4550" d="M18.992,47.1l1.28.973-.154,2.2c0,.051-.051.051-.1.051s-.154-.1-.2-.154l-.512-.512c-.154-.154-.358-.358-.307-.563Z" transform="translate(-9.262 -22.979)" fill="#d4be8c" fill-rule="evenodd"/>
          <path id="Path_4551" data-name="Path 4551" d="M22.5,53.8l1.485.973v1.895c0,.051,0,.1-.051.1-.051.051-.051.051-.1.051h-.2a.775.775,0,0,1-.717-.358l-.154-.154a1.079,1.079,0,0,1-.256-.666Z" transform="translate(-10.977 -26.248)" fill="#d4be8c" fill-rule="evenodd"/>
          <path id="Path_4552" data-name="Path 4552" d="M27.3,61.8l1.485,1.127v1.741c0,.051,0,.1-.051.1-.051.051-.051.051-.1.051h-.2a.775.775,0,0,1-.717-.358l-.154-.154a1.079,1.079,0,0,1-.256-.666Z" transform="translate(-13.319 -30.151)" fill="#d4be8c" fill-rule="evenodd"/>
          <path id="Path_4553" data-name="Path 4553" d="M32,71.1l1.485,1.075-.1,1.536a.164.164,0,0,1-.154.154h-.2a.775.775,0,0,1-.717-.358h0a2.078,2.078,0,0,1-.2-.973Z" transform="translate(-15.612 -34.688)" fill="#d4be8c" fill-rule="evenodd"/>
          <path id="Path_4554" data-name="Path 4554" d="M24.3,51.595c-.307.051-.563.051-.717.1a2.406,2.406,0,0,0-1.434.717,9.845,9.845,0,0,0-.41,2.817C21.69,52.824,21.178,51.492,24.3,51.595Z" transform="translate(-10.577 -25.169)" fill="#ab9667" fill-rule="evenodd"/>
          <path id="Path_4555" data-name="Path 4555" d="M36.5,34.7l1.178.154a.282.282,0,0,1,.256.154c.358.563-1.844,2.714-2.2,3.175L34.3,37.926A9.967,9.967,0,0,1,36.195,34.9.37.37,0,0,1,36.5,34.7Z" transform="translate(-16.734 -16.929)" fill="#d4be8c" fill-rule="evenodd"/>
          <path id="Path_4556" data-name="Path 4556" d="M28.283,59.791a2.361,2.361,0,0,0-1.844.871,13.481,13.481,0,0,0-.307,2.561C26.081,61.481,25.569,59.638,28.283,59.791Z" transform="translate(-12.715 -29.166)" fill="#ab9667" fill-rule="evenodd"/>
          <path id="Path_4557" data-name="Path 4557" d="M32.717,69.3c-1.639.1-1.639.819-1.741,2.2C30.925,69.809,30.771,69.246,32.717,69.3Z" transform="translate(-15.1 -33.807)" fill="#ab9667" fill-rule="evenodd"/>
          <path id="Path_4558" data-name="Path 4558" d="M48.451,33.8a2.036,2.036,0,0,1-.051,2.1,1.931,1.931,0,0,1,1.536-.615C49.066,35.08,48.81,34.312,48.451,33.8Z" transform="translate(-23.613 -16.49)" fill="#ab9667" fill-rule="evenodd"/>
          <path id="Path_4559" data-name="Path 4559" d="M61.2,36.2a4.3,4.3,0,0,1-2.3.615c1.229.1.819.512.973,1.28C59.873,36.968,60.59,36.763,61.2,36.2Z" transform="translate(-28.736 -17.661)" fill="#ab9667" fill-rule="evenodd"/>
        </g>
      </g>
      <g id="Group_2436" data-name="Group 2436" transform="translate(602 477.447)">
        <path id="Path_4484" data-name="Path 4484" d="M44.419,115c10.16,5.862,10.16,15.371,0,21.232s-26.638,5.862-36.8,0S-2.54,120.858,7.62,115,34.258,109.135,44.419,115Z" transform="translate(0 -110.6)" fill="#040507" fill-rule="evenodd" opacity="0.003"/>
        <path id="Path_4485" data-name="Path 4485" d="M46.806,117.8c9.476,5.471,9.476,14.361,0,19.832s-24.847,5.471-34.323,0-9.476-14.361,0-19.832S37.329,112.332,46.806,117.8Z" transform="translate(-3.625 -112.69)" fill="#080a0d" fill-rule="evenodd" opacity="0.007"/>
        <path id="Path_4486" data-name="Path 4486" d="M49.193,120.61c8.793,5.08,8.793,13.319,0,18.4s-23.056,5.08-31.849,0-8.793-13.319,0-18.4S40.4,115.53,49.193,120.61Z" transform="translate(-7.249 -114.781)" fill="#0b0e14" fill-rule="evenodd" opacity="0.01"/>
        <path id="Path_4487" data-name="Path 4487" d="M51.513,123.317c8.109,4.689,8.109,12.277,0,16.966s-21.265,4.689-29.406,0c-8.109-4.689-8.109-12.277,0-16.966C30.248,118.628,43.4,118.628,51.513,123.317Z" transform="translate(-10.806 -116.804)" fill="#0f131b" fill-rule="evenodd" opacity="0.013"/>
        <path id="Path_4488" data-name="Path 4488" d="M53.9,126.124c7.425,4.3,7.425,11.267,0,15.566s-19.506,4.3-26.931,0-7.425-11.267,0-15.566C34.426,121.825,46.475,121.825,53.9,126.124Z" transform="translate(-14.431 -118.895)" fill="#131822" fill-rule="evenodd" opacity="0.017"/>
        <path id="Path_4489" data-name="Path 4489" d="M56.287,128.931c6.741,3.908,6.741,10.225,0,14.133s-17.715,3.908-24.456,0-6.741-10.225,0-14.133C38.6,125.023,49.546,125.023,56.287,128.931Z" transform="translate(-18.056 -120.985)" fill="#171d29" fill-rule="evenodd" opacity="0.02"/>
        <path id="Path_4490" data-name="Path 4490" d="M58.656,131.738c6.09,3.517,6.09,9.183,0,12.7s-15.924,3.517-22.014,0-6.09-9.183,0-12.7S52.567,128.221,58.656,131.738Z" transform="translate(-21.63 -123.075)" fill="#1b2230" fill-rule="evenodd" opacity="0.023"/>
        <path id="Path_4491" data-name="Path 4491" d="M61.043,134.545c5.406,3.126,5.406,8.174,0,11.267-5.406,3.126-14.133,3.126-19.539,0s-5.406-8.174,0-11.267C46.91,131.418,55.638,131.418,61.043,134.545Z" transform="translate(-25.254 -125.166)" fill="#1f2737" fill-rule="evenodd" opacity="0.027"/>
        <path id="Path_4492" data-name="Path 4492" d="M63.43,137.352c4.722,2.735,4.722,7.132,0,9.867s-12.342,2.735-17.064,0-4.722-7.132,0-9.867C51.056,134.616,58.709,134.616,63.43,137.352Z" transform="translate(-28.879 -127.256)" fill="#232c3f" fill-rule="evenodd" opacity="0.03"/>
        <path id="Path_4493" data-name="Path 4493" d="M65.818,140.159c4.038,2.345,4.038,6.09,0,8.434a16.009,16.009,0,0,1-14.589,0c-4.038-2.345-4.038-6.09,0-8.434A16.009,16.009,0,0,1,65.818,140.159Z" transform="translate(-32.504 -129.347)" fill="#273246" fill-rule="evenodd" opacity="0.033"/>
        <path id="Path_4494" data-name="Path 4494" d="M68.137,142.916c3.354,1.921,3.354,5.08,0,7a13.519,13.519,0,0,1-12.147,0c-3.354-1.921-3.354-5.08,0-7A13.519,13.519,0,0,1,68.137,142.916Z" transform="translate(-36.061 -131.421)" fill="#2b374d" fill-rule="evenodd" opacity="0.037"/>
        <path id="Path_4495" data-name="Path 4495" d="M70.525,145.723c2.67,1.531,2.67,4.038,0,5.6a10.76,10.76,0,0,1-9.672,0c-2.67-1.531-2.67-4.038,0-5.6A10.76,10.76,0,0,1,70.525,145.723Z" transform="translate(-39.686 -133.511)" fill="#2f3c54" fill-rule="evenodd" opacity="0.04"/>
        <path id="Path_4496" data-name="Path 4496" d="M72.912,148.53c1.986,1.14,1.986,3.029,0,4.168a8,8,0,0,1-7.2,0c-1.986-1.14-1.986-3.029,0-4.168A8,8,0,0,1,72.912,148.53Z" transform="translate(-43.31 -135.602)" fill="#34415c" fill-rule="evenodd" opacity="0.043"/>
        <path id="Path_4497" data-name="Path 4497" d="M75.331,151.337a1.446,1.446,0,0,1,0,2.735,5.311,5.311,0,0,1-4.754,0,1.446,1.446,0,0,1,0-2.735A5.311,5.311,0,0,1,75.331,151.337Z" transform="translate(-46.935 -137.692)" fill="#384763" fill-rule="evenodd" opacity="0.047"/>
      </g>
    </g>
  </g>
</svg>
