<svg xmlns="http://www.w3.org/2000/svg" viewBox="0 0 188.779 47.093">
  <defs>
    <style>
      .cls-1 {
        fill: #fff;
      }
    </style>
  </defs>
  <g id="LOGO" transform="translate(-0.1)">
    <g id="Group_328" data-name="Group 328" transform="translate(54.929 5.768)">
      <g id="Group_327" data-name="Group 327" transform="translate(31.011 1.357)">
        <path id="Path_1449" data-name="Path 1449" class="cls-1" d="M152.318,32.654V14.332h-7.6V32.654h-5.293V14.332h-7.6V32.654H126.6V15.079a8.564,8.564,0,0,1,.2-2.036,2.856,2.856,0,0,1,.679-1.357,3.809,3.809,0,0,1,1.357-.814,6.953,6.953,0,0,1,2.239-.271h21.986c1.7,0,2.918.339,3.529,1.018a5.065,5.065,0,0,1,.95,3.393V32.586h-5.225Z" transform="translate(-126.6 -10.532)"/>
        <path id="Path_1450" data-name="Path 1450" class="cls-1" d="M194.7,32.686V10.7h5.157V32.686H194.7Zm11.4-11.332,8.211,11.332h-6.175l-7.668-11.061L209.493,10.7h5.7Z" transform="translate(-148.489 -10.564)"/>
        <path id="Path_1451" data-name="Path 1451" class="cls-1" d="M232.093,14.364V32.686H226.8V15.111a4.534,4.534,0,0,1,1.018-3.325,4.788,4.788,0,0,1,3.461-1.086h9.364v3.664Z" transform="translate(-158.807 -10.564)"/>
        <path id="Path_1452" data-name="Path 1452" class="cls-1" d="M269.172,28.075a7.568,7.568,0,0,1-.2,1.832,3.474,3.474,0,0,1-.679,1.425,3.152,3.152,0,0,1-1.357.882,6.761,6.761,0,0,1-2.239.339c-.95,0-1.764.068-2.579.068-.679,0-1.289.068-1.9.068h-1.968a14.76,14.76,0,0,1-1.7-.068c-.746,0-1.493-.068-2.307-.068a5.036,5.036,0,0,1-3.257-.95c-.746-.611-1.086-1.7-1.086-3.257V15.182a5.244,5.244,0,0,1,.95-3.325c.611-.746,1.764-1.154,3.529-1.221.882,0,1.7,0,2.443-.068.679,0,1.221-.068,1.764-.068h1.968c.543,0,1.154.068,1.764.068.746,0,1.561.068,2.443.068a13.721,13.721,0,0,1,1.832.2,3.474,3.474,0,0,1,1.425.679,2.926,2.926,0,0,1,.882,1.289,6.7,6.7,0,0,1,.271,2.239V28.075ZM263.947,14.3h-8.754V28.957h8.754Z" transform="translate(-166.232 -10.5)"/>
        <rect id="Rectangle_152" data-name="Rectangle 152" class="cls-1" width="5.293" height="16.557" transform="translate(35.897 5.564)"/>
      </g>
      <circle id="Ellipse_30" data-name="Ellipse 30" class="cls-1" cx="2.714" cy="2.714" r="2.714" transform="translate(66.839)"/>
      <circle id="Ellipse_31" data-name="Ellipse 31" class="cls-1" cx="2.714" cy="2.714" r="2.714" transform="translate(121.6 9.771)"/>
      <path id="Path_1453" data-name="Path 1453" class="cls-1" d="M86.125,23.864v5.021H99.968v3.732H85.311a6.628,6.628,0,0,1-2.171-.339,3.278,3.278,0,0,1-1.357-.95A3.474,3.474,0,0,1,81.1,29.9a6.836,6.836,0,0,1-.2-1.7V15.314a4.946,4.946,0,0,1,1.018-3.393,4.512,4.512,0,0,1,3.461-1.154c.882,0,1.7,0,2.443-.068h5.5c.679,0,1.493.068,2.307.068a7.222,7.222,0,0,1,2.239.271,2.537,2.537,0,0,1,1.357.814,2.856,2.856,0,0,1,.679,1.357,8.664,8.664,0,0,1,.136,1.968v8.686H86.125ZM94.946,14.3H86.125v5.9h8.821Z" transform="translate(-80.9 -9.207)"/>
      <path id="Path_1454" data-name="Path 1454" class="cls-1" d="M112.3,28.075V23.8h7.6v4.275h-7.6Z" transform="translate(-90.993 -13.418)"/>
    </g>
    <g id="Group_329" data-name="Group 329" transform="translate(0.1)">
      <path id="Path_1455" data-name="Path 1455" class="cls-1" d="M46.786,27.143h0a7.477,7.477,0,0,0,.136-1.221v-.068c0-.339.068-.611.068-.95V23.411a24.245,24.245,0,0,0-1.832-9.161,14.242,14.242,0,0,0-1.018-2.036A24.6,24.6,0,0,0,40.882,7.6,23.492,23.492,0,0,0,23.579,0a7.792,7.792,0,0,0-1.289.068h-.407c-.271,0-.611.068-.882.068-.136,0-.339.068-.475.068-.271.068-.543.068-.814.136-.136,0-.339.068-.475.068l-.814.2c-.136,0-.271.068-.407.068a4.389,4.389,0,0,0-.882.271c-.136,0-.2.068-.339.068-.814.271-1.629.543-2.443.882h0a8.833,8.833,0,0,0-1.154.543.237.237,0,0,0-.136.068,4.326,4.326,0,0,0-.95.543c-.068,0-.136.068-.2.068-.339.2-.611.407-.95.611-.068,0-.068.068-.136.068a26.254,26.254,0,0,0-4,3.257c-.611.611,7.193,6.379,7.193,6.379a11.815,11.815,0,0,1,.95-.814l.136-.136a9.926,9.926,0,0,1,.882-.611c.068-.068.136-.068.2-.136a6.781,6.781,0,0,1,.95-.543l.068-.068a13.741,13.741,0,0,1,2.307-.95c.136,0,.2-.068.339-.068.271-.068.543-.136.882-.2.136,0,.271-.068.407-.068.271-.068.611-.068.882-.136a.861.861,0,0,0,.407-.068,7.792,7.792,0,0,1,1.289-.068h0a13.918,13.918,0,0,1,13.1,9.161H.507c-.068.339-.136.746-.2,1.086v.068a5.976,5.976,0,0,0-.136,1.154V21.1c0,.339-.068.611-.068.95v1.493A23.3,23.3,0,0,0,4.782,37.593c.407.611.882,1.154,1.357,1.764a18.426,18.426,0,0,0,1.629,1.629,23.428,23.428,0,0,0,15.811,6.107,7.792,7.792,0,0,0,1.289-.068h.407c.271,0,.611-.068.882-.068.136,0,.339-.068.475-.068.271-.068.543-.068.814-.136.136,0,.339-.068.475-.068l.814-.2c.136,0,.271-.068.407-.068a4.389,4.389,0,0,0,.882-.271c.136,0,.2-.068.339-.068.814-.271,1.629-.543,2.443-.882h0a8.833,8.833,0,0,0,1.154-.543.237.237,0,0,0,.136-.068,4.326,4.326,0,0,0,.95-.543c.068,0,.136-.068.2-.068.339-.2.611-.407.95-.611.068,0,.068-.068.136-.068A26.479,26.479,0,0,0,39.8,40.579c.814-.814-6.65-6.921-6.65-6.921a11.814,11.814,0,0,1-.95.814l-.136.136a9.928,9.928,0,0,1-.882.611c-.068.068-.136.068-.2.136a6.781,6.781,0,0,1-.95.543l-.068.068a13.741,13.741,0,0,1-2.307.95c-.136,0-.2.068-.339.068-.271.068-.543.136-.882.2-.136,0-.271.068-.407.068-.271.068-.611.068-.882.136a.861.861,0,0,0-.407.068,7.792,7.792,0,0,1-1.289.068h0a14.039,14.039,0,0,1-12.961-8.754.964.964,0,0,1-.136-.407h36.1A4.761,4.761,0,0,0,46.786,27.143Z" transform="translate(-0.1)"/>
      <path id="Path_1456" data-name="Path 1456" class="cls-1" d="M55.918,58.05V47.6H45.4Z" transform="translate(-14.661 -15.3)"/>
      <path id="Path_1457" data-name="Path 1457" class="cls-1" d="M8.4,6.4V16.85H18.918Z" transform="translate(-2.768 -2.057)"/>
    </g>
    <g id="Group_330" data-name="Group 330" transform="translate(55.132 34.879)">
      <path id="Path_1458" data-name="Path 1458" class="cls-1" d="M81.946,57.25a2.092,2.092,0,0,0,.068.679,4.674,4.674,0,0,0,.2.543.818.818,0,0,0,.339.339.981.981,0,0,0,.475.136.771.771,0,0,0,.543-.2,2.062,2.062,0,0,0,.339-.475l.679.407a1.852,1.852,0,0,1-.611.814,1.621,1.621,0,0,1-.95.339,1.564,1.564,0,0,1-1.357-.746,3.386,3.386,0,0,1-.475-1.968,5.274,5.274,0,0,1,.136-1.086,2.1,2.1,0,0,1,.407-.882,1.2,1.2,0,0,1,.611-.543,1.368,1.368,0,0,1,.746-.2,1.612,1.612,0,0,1,.814.2,2.065,2.065,0,0,1,.543.543,1.455,1.455,0,0,1,.271.814,4.806,4.806,0,0,1,.068,1.018v.407h-2.85Zm1.832-.746a2.379,2.379,0,0,0-.2-1.086.681.681,0,0,0-.679-.407.981.981,0,0,0-.475.136.865.865,0,0,0-.271.407,1.258,1.258,0,0,0-.136.475,1.325,1.325,0,0,0-.068.475h1.832Z" transform="translate(-81.2 -52.364)"/>
      <path id="Path_1459" data-name="Path 1459" class="cls-1" d="M91,58.179V57.5h1.629v.679Z" transform="translate(-84.35 -53.361)"/>
      <path id="Path_1460" data-name="Path 1460" class="cls-1" d="M103.075,55a4.244,4.244,0,0,1-.679,2.646,2.412,2.412,0,0,1-1.968.95H98.8V51.4h1.629a2.323,2.323,0,0,1,1.968.95A4.739,4.739,0,0,1,103.075,55Zm-.95,0a6.086,6.086,0,0,0-.136-1.221,2.1,2.1,0,0,0-.407-.882,2.065,2.065,0,0,0-.543-.543,1.309,1.309,0,0,0-.679-.2h-.746v5.564h.746a1.146,1.146,0,0,0,.679-.2,1.389,1.389,0,0,0,.543-.543,5.493,5.493,0,0,0,.407-.882A3.845,3.845,0,0,0,102.125,55Z" transform="translate(-86.857 -51.4)"/>
      <path id="Path_1461" data-name="Path 1461" class="cls-1" d="M113.732,56.046a5.274,5.274,0,0,1-.136,1.086,3.408,3.408,0,0,1-.339.882,1.6,1.6,0,0,1-.611.543,1.447,1.447,0,0,1-.814.2,1.368,1.368,0,0,1-.746-.2,4.39,4.39,0,0,1-.611-.543,2.661,2.661,0,0,1-.339-.882,4.411,4.411,0,0,1,0-2.171,3.408,3.408,0,0,1,.339-.882,1.6,1.6,0,0,1,.611-.543,1.447,1.447,0,0,1,.814-.2,1.807,1.807,0,0,1,.814.2,4.39,4.39,0,0,1,.611.543,2.661,2.661,0,0,1,.339.882A5.485,5.485,0,0,1,113.732,56.046Zm-2.171-4a.964.964,0,0,1-.136.407.492.492,0,0,1-.679,0,.574.574,0,0,1-.136-.407.964.964,0,0,1,.136-.407c.068-.136.2-.136.339-.136a.518.518,0,0,1,.339.136C111.561,51.771,111.561,51.839,111.561,52.043Zm1.289,4a2.544,2.544,0,0,0-.068-.746c-.068-.271-.068-.475-.2-.611a1.043,1.043,0,0,0-.271-.407.679.679,0,0,0-.814,0c-.136.068-.2.271-.271.407l-.2.611a2.783,2.783,0,0,0-.068.746,2.544,2.544,0,0,0,.068.746c.068.2.068.475.2.611a1.043,1.043,0,0,0,.271.407.964.964,0,0,0,.407.136.727.727,0,0,0,.407-.136c.136-.068.2-.271.271-.407l.2-.611C112.782,56.589,112.85,56.318,112.85,56.046Zm.271-4a.964.964,0,0,1-.136.407.492.492,0,0,1-.679,0,.574.574,0,0,1-.136-.407.964.964,0,0,1,.136-.407c.068-.136.2-.136.339-.136a.518.518,0,0,1,.339.136C113.121,51.771,113.121,51.839,113.121,52.043Z" transform="translate(-90.457 -51.432)"/>
      <path id="Path_1462" data-name="Path 1462" class="cls-1" d="M123.479,59.525V55.861c0-.136-.068-.271-.068-.407a.937.937,0,0,0-.2-.271.574.574,0,0,0-.407-.136.964.964,0,0,0-.407.136c-.136.068-.2.2-.339.339a3.306,3.306,0,0,0-.2.475,1.879,1.879,0,0,0-.068.611v2.918H120.9V54.436h.814c0,.136.068.339.068.475v.407h0a1.757,1.757,0,0,1,.475-.746,1.082,1.082,0,0,1,.814-.271,1.146,1.146,0,0,1,.679.2,1.381,1.381,0,0,1,.407.475,1.991,1.991,0,0,1,.2.679c0,.271.068.475.068.746v3.121Z" transform="translate(-93.961 -52.332)"/>
      <path id="Path_1463" data-name="Path 1463" class="cls-1" d="M132.45,53.536V57.2c0,.136.068.271.068.407a.937.937,0,0,0,.2.271.574.574,0,0,0,.407.136.964.964,0,0,0,.407-.136c.136-.068.2-.2.339-.339a3.308,3.308,0,0,0,.2-.475,1.879,1.879,0,0,0,.068-.611V53.536h.882v5.089h-.814c0-.136-.068-.339-.068-.475v-.407h0a1.757,1.757,0,0,1-.475.746,1.082,1.082,0,0,1-.814.271,1.146,1.146,0,0,1-.679-.2,2.953,2.953,0,0,1-.407-.475,1.991,1.991,0,0,1-.2-.679,2.784,2.784,0,0,1-.068-.746V53.4h.95Zm.611-1.493a.965.965,0,0,1-.136.407.492.492,0,0,1-.679,0,.574.574,0,0,1-.136-.407.964.964,0,0,1,.136-.407c.068-.136.2-.136.339-.136a.518.518,0,0,1,.339.136A.728.728,0,0,1,133.061,52.043Zm1.493,0a.964.964,0,0,1-.136.407.492.492,0,0,1-.679,0,.574.574,0,0,1-.136-.407.964.964,0,0,1,.136-.407c.068-.136.2-.136.339-.136a.518.518,0,0,1,.339.136C134.554,51.771,134.554,51.839,134.554,52.043Z" transform="translate(-97.368 -51.432)"/>
      <path id="Path_1464" data-name="Path 1464" class="cls-1" d="M144.343,55.354c-.068-.136-.2-.2-.339-.339a.981.981,0,0,0-.475-.136.616.616,0,0,0-.475.2.826.826,0,0,0,0,1.086,2.441,2.441,0,0,0,.611.339l.407.2c.136.068.271.2.407.271a1.419,1.419,0,0,1,.271.407,1.506,1.506,0,0,1,.068.611,1.587,1.587,0,0,1-1.154,1.629l-.339.611h.339a.408.408,0,0,1,.271.068.514.514,0,0,1,.271.136l.2.2a.509.509,0,0,1,.068.339.574.574,0,0,1-.136.407.53.53,0,0,1-.271.271c-.136.068-.2.136-.339.136s-.271.068-.407.068a1.325,1.325,0,0,1-.475-.068.981.981,0,0,1-.475-.136l.2-.407c.068.068.2.068.339.136h.543c.068,0,.136-.068.2-.068.068-.068.136-.068.136-.136a.249.249,0,0,0,.068-.2.353.353,0,0,0-.136-.271.508.508,0,0,0-.339-.068.861.861,0,0,0-.407.068l-.2-.2.475-.814a1.368,1.368,0,0,1-.746-.2,3.729,3.729,0,0,1-.611-.475l.475-.543a1.8,1.8,0,0,0,.407.339c.136.136.339.136.611.136a.771.771,0,0,0,.543-.2.829.829,0,0,0,.2-.611.508.508,0,0,0-.068-.339c-.068-.068-.136-.2-.2-.271s-.2-.136-.271-.2-.2-.068-.339-.136l-.407-.2a.677.677,0,0,1-.339-.271c-.068-.136-.2-.271-.271-.407a1.506,1.506,0,0,1-.068-.611,1.982,1.982,0,0,1,.136-.611,1.217,1.217,0,0,1,.339-.475,1.094,1.094,0,0,1,.475-.271,1.981,1.981,0,0,1,.611-.136,3.406,3.406,0,0,1,.814.136,3.764,3.764,0,0,1,.543.407Z" transform="translate(-100.711 -52.3)"/>
      <path id="Path_1465" data-name="Path 1465" class="cls-1" d="M152.15,53.536V57.2c0,.136.068.271.068.407a.937.937,0,0,0,.2.271.574.574,0,0,0,.407.136.964.964,0,0,0,.407-.136c.136-.068.2-.2.339-.339a3.308,3.308,0,0,0,.2-.475,1.878,1.878,0,0,0,.068-.611V53.536h.882v5.089h-.814c0-.136-.068-.339-.068-.475v-.407h0a1.757,1.757,0,0,1-.475.746,1.082,1.082,0,0,1-.814.271,1.146,1.146,0,0,1-.679-.2,2.952,2.952,0,0,1-.407-.475,1.991,1.991,0,0,1-.2-.679,2.783,2.783,0,0,1-.068-.746V53.4h.95Zm.543-1.493a.964.964,0,0,1-.136.407.492.492,0,0,1-.679,0,.574.574,0,0,1-.136-.407.964.964,0,0,1,.136-.407c.068-.136.2-.136.339-.136a.518.518,0,0,1,.339.136C152.693,51.771,152.693,51.839,152.693,52.043Zm1.561,0a.964.964,0,0,1-.136.407.492.492,0,0,1-.679,0,.574.574,0,0,1-.136-.407.964.964,0,0,1,.136-.407c.068-.136.2-.136.339-.136a.518.518,0,0,1,.339.136C154.254,51.771,154.254,51.839,154.254,52.043Z" transform="translate(-103.7 -51.432)"/>
      <path id="Path_1466" data-name="Path 1466" class="cls-1" d="M163.521,54.571a1.082,1.082,0,0,1,.814-.271,1.006,1.006,0,0,1,.475.068.678.678,0,0,1,.339.271,1.483,1.483,0,0,1,.2.339c.068.136.068.271.136.407h0a1.483,1.483,0,0,1,.2-.339.678.678,0,0,1,.271-.339c.136-.068.271-.2.407-.271a1.383,1.383,0,0,1,1.154.136,1.382,1.382,0,0,1,.407.475,1.991,1.991,0,0,1,.2.679c0,.271.068.475.068.746v3.054h-.882V55.861c0-.136-.068-.271-.068-.407s-.136-.2-.2-.271a.574.574,0,0,0-.407-.136.965.965,0,0,0-.407.136.677.677,0,0,0-.271.339,3.308,3.308,0,0,0-.2.475,1.879,1.879,0,0,0-.068.611v2.918h-.882V55.861c0-.136-.068-.271-.068-.407a.937.937,0,0,0-.2-.271.574.574,0,0,0-.407-.136.965.965,0,0,0-.407.136.677.677,0,0,0-.271.339,3.31,3.31,0,0,0-.2.475,1.879,1.879,0,0,0-.068.611v2.918H162.3V54.436h.814c0,.136.068.339.068.475v.407h0A.972.972,0,0,1,163.521,54.571Z" transform="translate(-107.268 -52.332)"/>
      <path id="Path_1467" data-name="Path 1467" class="cls-1" d="M177.45,53.536V57.2c0,.136.068.271.068.407a.937.937,0,0,0,.2.271.574.574,0,0,0,.407.136.964.964,0,0,0,.407-.136c.136-.068.2-.2.339-.339a3.308,3.308,0,0,0,.2-.475,1.878,1.878,0,0,0,.068-.611V53.536h.882v5.089h-.814c0-.136-.068-.339-.068-.475v-.407h0a1.757,1.757,0,0,1-.475.746,1.082,1.082,0,0,1-.814.271,1.146,1.146,0,0,1-.679-.2,2.952,2.952,0,0,1-.407-.475c-.068-.2-.136-.407-.2-.679a2.784,2.784,0,0,1-.068-.746V53.4h.95Zm.611-1.493a.964.964,0,0,1-.136.407.492.492,0,0,1-.679,0,.574.574,0,0,1-.136-.407.964.964,0,0,1,.136-.407c.068-.136.2-.136.339-.136a.518.518,0,0,1,.339.136A.728.728,0,0,1,178.061,52.043Zm1.561,0a.964.964,0,0,1-.136.407.492.492,0,0,1-.679,0,.574.574,0,0,1-.136-.407.964.964,0,0,1,.136-.407c.068-.136.2-.136.339-.136a.518.518,0,0,1,.339.136A.574.574,0,0,1,179.621,52.043Z" transform="translate(-111.832 -51.432)"/>
      <path id="Path_1468" data-name="Path 1468" class="cls-1" d="M190.079,59.525V55.861c0-.136-.068-.271-.068-.407a.937.937,0,0,0-.2-.271.574.574,0,0,0-.407-.136.965.965,0,0,0-.407.136c-.136.068-.2.2-.339.339a3.308,3.308,0,0,0-.2.475,1.878,1.878,0,0,0-.068.611v2.918H187.5V54.436h.814c0,.136.068.339.068.475v.407h0a1.757,1.757,0,0,1,.475-.746,1.082,1.082,0,0,1,.814-.271,1.146,1.146,0,0,1,.679.2,1.381,1.381,0,0,1,.407.475,1.991,1.991,0,0,1,.2.679c0,.271.068.475.068.746v3.121Z" transform="translate(-115.368 -52.332)"/>
      <path id="Path_1469" data-name="Path 1469" class="cls-1" d="M205.55,54.436V58.1c0,.136.068.271.068.407a.937.937,0,0,0,.2.271.574.574,0,0,0,.407.136.965.965,0,0,0,.407-.136c.136-.068.2-.2.339-.339a3.31,3.31,0,0,0,.2-.475,1.879,1.879,0,0,0,.068-.611V54.436h.882v5.089h-.814c0-.136-.068-.339-.068-.475v-.407h0a1.757,1.757,0,0,1-.475.746,1.082,1.082,0,0,1-.814.271,1.146,1.146,0,0,1-.679-.2,1.381,1.381,0,0,1-.407-.475,1.991,1.991,0,0,1-.2-.679c0-.271-.068-.475-.068-.746V54.3h.95Z" transform="translate(-120.864 -52.332)"/>
      <path id="Path_1470" data-name="Path 1470" class="cls-1" d="M214.9,59.589v-.746l2.036-3.6h-1.9V54.5h2.782v.746l-2.036,3.664h2.036v.679Z" transform="translate(-124.175 -52.396)"/>
      <path id="Path_1471" data-name="Path 1471" class="cls-1" d="M225.721,54.571a1.082,1.082,0,0,1,.814-.271,1.006,1.006,0,0,1,.475.068.677.677,0,0,1,.339.271,1.483,1.483,0,0,1,.2.339c.068.136.068.271.136.407h0a1.484,1.484,0,0,1,.2-.339.677.677,0,0,1,.271-.339c.136-.068.271-.2.407-.271a1.383,1.383,0,0,1,1.154.136,1.382,1.382,0,0,1,.407.475,1.991,1.991,0,0,1,.2.679c0,.271.068.475.068.746v3.054h-.882V55.861c0-.136-.068-.271-.068-.407a.937.937,0,0,0-.2-.271.574.574,0,0,0-.407-.136.965.965,0,0,0-.407.136.677.677,0,0,0-.271.339,3.308,3.308,0,0,0-.2.475,1.878,1.878,0,0,0-.068.611v2.918h-.882V55.861c0-.136-.068-.271-.068-.407a.937.937,0,0,0-.2-.271.574.574,0,0,0-.407-.136.964.964,0,0,0-.407.136.677.677,0,0,0-.271.339,3.308,3.308,0,0,0-.2.475,1.879,1.879,0,0,0-.068.611v2.918H224.5V54.436h.814c0,.136.068.339.068.475v.407h0C225.314,54.979,225.518,54.775,225.721,54.571Z" transform="translate(-127.26 -52.332)"/>
      <path id="Path_1472" data-name="Path 1472" class="cls-1" d="M240.911,59.493c0-.136-.068-.339-.068-.475v-.407h0a1.618,1.618,0,0,1-.407.746,1.082,1.082,0,0,1-.814.271.861.861,0,0,1-.407-.068,1.42,1.42,0,0,1-.407-.271,1.094,1.094,0,0,1-.271-.475,2.007,2.007,0,0,1-.136-.679,1.7,1.7,0,0,1,.2-.882,1.829,1.829,0,0,1,.475-.543,2.032,2.032,0,0,1,.679-.271,2.545,2.545,0,0,1,.679-.068h.339V56.1a1.54,1.54,0,0,0-.2-.882.661.661,0,0,0-.611-.271,1.6,1.6,0,0,0-.543.136,1.152,1.152,0,0,0-.407.407l-.407-.543a1.848,1.848,0,0,1,.679-.543,1.807,1.807,0,0,1,.814-.2,2.44,2.44,0,0,1,.746.136.912.912,0,0,1,.475.407,2.032,2.032,0,0,1,.271.679,3.585,3.585,0,0,1,.068.882v2.579a1.006,1.006,0,0,0,.068.475h-.814Zm-.136-2.511h-.407a1.155,1.155,0,0,0-.475.068.965.965,0,0,0-.407.136.677.677,0,0,0-.271.339,1.278,1.278,0,0,0-.136.543.9.9,0,0,0,.2.679.616.616,0,0,0,.475.2.981.981,0,0,0,.475-.136c.136-.068.2-.271.271-.407a1.278,1.278,0,0,0,.136-.543c0-.2.068-.407.068-.543v-.339Z" transform="translate(-131.728 -52.3)"/>
      <path id="Path_1473" data-name="Path 1473" class="cls-1" d="M251.279,59.525V55.861c0-.136-.068-.271-.068-.407a.937.937,0,0,0-.2-.271.574.574,0,0,0-.407-.136.965.965,0,0,0-.407.136c-.136.068-.2.2-.339.339a3.308,3.308,0,0,0-.2.475,1.879,1.879,0,0,0-.068.611v2.918H248.7V54.436h.814c0,.136.068.339.068.475v.407h0a1.757,1.757,0,0,1,.475-.746,1.082,1.082,0,0,1,.814-.271,1.146,1.146,0,0,1,.679.2,1.381,1.381,0,0,1,.407.475,1.991,1.991,0,0,1,.2.679c0,.271.068.475.068.746v3.121Z" transform="translate(-135.039 -52.332)"/>
      <path id="Path_1474" data-name="Path 1474" class="cls-1" d="M259.5,59.589V54.5h.882v5.089Z" transform="translate(-138.51 -52.396)"/>
      <path id="Path_1475" data-name="Path 1475" class="cls-1" d="M276.232,56.914A5.273,5.273,0,0,1,276.1,58a3.409,3.409,0,0,1-.339.882,1.6,1.6,0,0,1-.611.543,1.447,1.447,0,0,1-.814.2,1.368,1.368,0,0,1-.746-.2,4.39,4.39,0,0,1-.611-.543,2.661,2.661,0,0,1-.339-.882,4.41,4.41,0,0,1,0-2.171,3.409,3.409,0,0,1,.339-.882,1.6,1.6,0,0,1,.611-.543,1.447,1.447,0,0,1,.814-.2,1.612,1.612,0,0,1,.814.2,4.392,4.392,0,0,1,.611.543,1.725,1.725,0,0,1,.339.882C276.164,56.168,276.232,56.507,276.232,56.914Zm-.882,0a2.545,2.545,0,0,0-.068-.746c-.068-.271-.068-.475-.2-.611a1.043,1.043,0,0,0-.271-.407.679.679,0,0,0-.814,0c-.136.068-.2.271-.271.407l-.2.611a2.784,2.784,0,0,0-.068.746,2.545,2.545,0,0,0,.068.746c.068.2.068.475.2.611a1.043,1.043,0,0,0,.271.407.964.964,0,0,0,.407.136.728.728,0,0,0,.407-.136c.136-.068.2-.271.271-.407l.2-.611A2.545,2.545,0,0,0,275.35,56.914Z" transform="translate(-142.689 -52.3)"/>
    </g>
  </g>
</svg>
