<svg id="Logo" xmlns="http://www.w3.org/2000/svg" viewBox="0 0 165 41.094">
  <defs>
    <style>
      .cls-1 {
        fill: #ce0e2d;
      }
    </style>
  </defs>
  <g id="Group_2462" data-name="Group 2462" transform="translate(48.001 5.021)">
    <g id="Group_2461" data-name="Group 2461" transform="translate(27.08 1.209)">
      <path id="Path_4933" data-name="Path 4933" d="M149.07,29.881V13.869h-6.634V29.881h-4.594V13.869h-6.634V29.881H126.65V14.539a7.855,7.855,0,0,1,.166-1.761,2.491,2.491,0,0,1,.611-1.186,2.685,2.685,0,0,1,1.2-.688,7.058,7.058,0,0,1,1.944-.225h19.2a4.073,4.073,0,0,1,3.077.907,4.342,4.342,0,0,1,.818,2.946V29.881Z" transform="translate(-126.65 -10.579)"/>
      <path id="Path_4934" data-name="Path 4934" d="M194.74,29.881V10.68h4.523v19.2Zm9.93-9.894,7.191,9.894h-5.377l-6.669-9.633,7.861-9.562h5Z" transform="translate(-154.375 -10.579)"/>
      <path id="Path_4935" data-name="Path 4935" d="M231.414,13.873V29.886H226.82V14.543a4.058,4.058,0,0,1,.907-2.929,4.118,4.118,0,0,1,3.023-.925h8.193v3.189h-7.529Z" transform="translate(-167.437 -10.583)"/>
      <path id="Path_4936" data-name="Path 4936" d="M266.774,25.888a7.1,7.1,0,0,1-.166,1.612A2.736,2.736,0,0,1,266,28.721a2.923,2.923,0,0,1-1.2.777,6.368,6.368,0,0,1-1.944.314c-.818.024-1.559.047-2.223.077-.569.024-1.115.036-1.63.036h-1.743c-.468,0-.966-.012-1.482-.036-.646-.024-1.322-.047-2.039-.077a4.511,4.511,0,0,1-2.816-.818,3.519,3.519,0,0,1-.966-2.851V14.583a4.509,4.509,0,0,1,.812-2.893,3.991,3.991,0,0,1,3.077-1.073q1.183,0,2.152-.036c.569-.024,1.085-.041,1.559-.053s.741-.018.818-.018q.187,0,.907.018c.48.012,1,.03,1.535.053.64.024,1.346.036,2.11.036a9.136,9.136,0,0,1,1.612.2,2.956,2.956,0,0,1,1.221.575,2.529,2.529,0,0,1,.759,1.15,5.972,5.972,0,0,1,.261,1.927ZM262.18,13.8h-7.636V26.629h7.636V13.8Z" transform="translate(-176.855 -10.51)"/>
      <rect id="Rectangle_185" data-name="Rectangle 185" width="4.594" height="14.465" transform="translate(31.354 4.843)"/>
    </g>
    <circle id="Ellipse_74" data-name="Ellipse 74" class="cls-1" cx="2.365" cy="2.365" r="2.365" transform="translate(58.369)"/>
    <circle id="Ellipse_75" data-name="Ellipse 75" class="cls-1" cx="2.365" cy="2.365" r="2.365" transform="translate(106.222 8.548)"/>
    <path id="Path_4937" data-name="Path 4937" d="M85.505,22.211v4.411H97.563V29.9H84.806a5.118,5.118,0,0,1-1.879-.3,2.891,2.891,0,0,1-1.18-.83,2.98,2.98,0,0,1-.611-1.233,6.294,6.294,0,0,1-.166-1.476V14.789a4.263,4.263,0,0,1,.9-2.946,3.992,3.992,0,0,1,3.006-1.032c.788,0,1.5-.012,2.14-.036q.845,0,1.565-.018c.48-.012.783-.018.9-.018.1,0,.385.006.866.018s.978.018,1.494.018q.925.036,2.027.036a6.991,6.991,0,0,1,1.933.219,2.53,2.53,0,0,1,1.18.682,2.371,2.371,0,0,1,.569,1.18,8.453,8.453,0,0,1,.148,1.713v7.606Zm7.665-8.377h-7.7V19h7.7V13.835Z" transform="translate(-80.97 -9.394)"/>
    <path id="Path_4938" data-name="Path 4938" d="M112.32,27.533V23.81h6.628v3.723Z" transform="translate(-93.735 -14.716)"/>
  </g>
  <g id="Group_2463" data-name="Group 2463">
    <path id="Path_4939" data-name="Path 4939" class="cls-1" d="M40.845,23.737a.211.211,0,0,1,.012-.059q.071-.489.124-.978c0-.018.006-.036.006-.047.03-.267.047-.539.059-.812.006-.077.012-.154.018-.237.018-.35.03-.705.03-1.055a20.517,20.517,0,0,0-1.612-8c-.261-.617-.551-1.215-.866-1.8A20.586,20.586,0,0,0,20.547,0c-.385,0-.771.012-1.15.036-.119.006-.243.018-.362.03-.261.018-.522.041-.777.071L17.85.19c-.243.03-.48.065-.717.107l-.409.071c-.237.036-.48.089-.717.142-.124.03-.249.053-.368.083q-.4.1-.783.213c-.095.024-.184.053-.279.077a20.007,20.007,0,0,0-2.116.771.022.022,0,0,1-.018.006q-.507.213-1,.462l-.142.071c-.285.142-.569.3-.848.456-.047.03-.1.059-.148.089-.285.166-.563.332-.836.51a1.031,1.031,0,0,1-.107.065A20.28,20.28,0,0,0,5.875,6.177c-.528.539,6.3,5.549,6.3,5.549.261-.243.528-.474.806-.7.041-.03.083-.065.124-.095.243-.19.5-.368.753-.539.053-.036.1-.071.154-.1.279-.178.557-.344.848-.5a.592.592,0,0,0,.083-.047,12.435,12.435,0,0,1,2.01-.824c.095-.03.19-.053.285-.077.249-.071.5-.136.759-.19l.35-.071c.255-.047.51-.083.765-.113.113-.012.219-.03.332-.041.368-.036.735-.053,1.109-.053h0A12.172,12.172,0,0,1,31.995,16.4H.421c-.065.314-.119.634-.172.954-.006.018-.006.041-.012.059q-.071.489-.124.978c0,.018-.006.036-.006.047-.03.267-.047.539-.059.812-.006.077-.012.154-.018.237-.018.356-.03.705-.03,1.061a20.446,20.446,0,0,0,4.085,12.3c.4.528.812,1.037,1.257,1.524s.907.954,1.393,1.393a20.473,20.473,0,0,0,13.813,5.335c.385,0,.771-.012,1.15-.036.119-.006.243-.018.362-.03.261-.018.522-.041.777-.071l.409-.053c.243-.03.48-.065.717-.107l.409-.071c.243-.047.48-.095.717-.148.124-.03.249-.053.373-.083.267-.065.528-.136.788-.213.089-.024.184-.053.273-.077a20.008,20.008,0,0,0,2.116-.771c.006,0,.006-.006.012-.006.338-.142.67-.3,1-.462l.142-.071c.285-.142.569-.3.848-.456.053-.03.1-.059.154-.089.285-.16.563-.332.836-.51a1.031,1.031,0,0,1,.107-.065A21.194,21.194,0,0,0,34.739,35.4c.711-.682-5.816-6.035-5.816-6.035-.261.243-.528.474-.806.7-.041.03-.083.065-.124.095-.243.19-.5.368-.753.539-.053.036-.107.071-.154.1-.279.178-.557.344-.848.5a.592.592,0,0,0-.083.047,12.435,12.435,0,0,1-2.01.824c-.095.03-.19.053-.285.083-.249.071-.5.136-.759.19l-.35.071c-.249.047-.51.083-.765.113-.113.012-.219.03-.332.041q-.542.053-1.1.053h0a12.164,12.164,0,0,1-11.3-7.671c-.047-.119-.1-.231-.142-.35H40.679C40.739,24.377,40.8,24.057,40.845,23.737Z"/>
    <path id="Path_4940" data-name="Path 4940" class="cls-1" d="M54.571,56.731V47.56H45.4Z" transform="translate(-18.486 -19.365)"/>
    <path id="Path_4941" data-name="Path 4941" class="cls-1" d="M8.44,6.35v9.171h9.171Z" transform="translate(-3.437 -2.586)"/>
  </g>
  <g id="Group_2464" data-name="Group 2464" transform="translate(48.007 30.471)">
    <path id="Path_4942" data-name="Path 4942" class="cls-1" d="M81.739,56.8a2.734,2.734,0,0,0,.059.6,1.757,1.757,0,0,0,.166.48.867.867,0,0,0,.279.32.678.678,0,0,0,.391.119.63.63,0,0,0,.48-.184,1.43,1.43,0,0,0,.285-.445l.569.326a1.737,1.737,0,0,1-.51.694,1.31,1.31,0,0,1-.848.273,1.382,1.382,0,0,1-1.2-.622,3.007,3.007,0,0,1-.433-1.743,3.839,3.839,0,0,1,.113-.972,2.43,2.43,0,0,1,.326-.753,1.546,1.546,0,0,1,.516-.486,1.425,1.425,0,0,1,1.358,0,1.415,1.415,0,0,1,.468.468,2.174,2.174,0,0,1,.261.7,4.435,4.435,0,0,1,.077.866V56.8Zm1.595-.611a2.026,2.026,0,0,0-.184-.937.6.6,0,0,0-.575-.356.566.566,0,0,0-.385.136,1.1,1.1,0,0,0-.255.332,1.678,1.678,0,0,0-.142.421,2.067,2.067,0,0,0-.041.4Z" transform="translate(-80.98 -52.552)"/>
    <path id="Path_4943" data-name="Path 4943" class="cls-1" d="M91,58.111V57.5h1.4v.611Z" transform="translate(-85.06 -53.884)"/>
    <path id="Path_4944" data-name="Path 4944" class="cls-1" d="M102.454,54.548a3.737,3.737,0,0,1-.622,2.33,2.078,2.078,0,0,1-1.737.8H98.66V51.4h1.446a2.06,2.06,0,0,1,1.737.806A3.816,3.816,0,0,1,102.454,54.548Zm-.794,0a4.5,4.5,0,0,0-.119-1.085,2.4,2.4,0,0,0-.326-.765,1.364,1.364,0,0,0-.492-.451,1.3,1.3,0,0,0-.617-.148H99.46v4.879h.646a1.314,1.314,0,0,0,.617-.148,1.364,1.364,0,0,0,.492-.451,2.42,2.42,0,0,0,.326-.759A4.429,4.429,0,0,0,101.66,54.548Z" transform="translate(-88.179 -51.4)"/>
    <path id="Path_4945" data-name="Path 4945" class="cls-1" d="M113.263,55.489a3.76,3.76,0,0,1-.113.966,2.258,2.258,0,0,1-.32.747,1.533,1.533,0,0,1-.51.486,1.426,1.426,0,0,1-1.358,0,1.476,1.476,0,0,1-.51-.486,2.536,2.536,0,0,1-.32-.747,4.041,4.041,0,0,1-.113-.966,3.888,3.888,0,0,1,.113-.978,2.5,2.5,0,0,1,.314-.753,1.516,1.516,0,0,1,.5-.486,1.438,1.438,0,0,1,1.363,0,1.476,1.476,0,0,1,.51.486,2.506,2.506,0,0,1,.32.753A3.879,3.879,0,0,1,113.263,55.489Zm-1.873-3.551a.446.446,0,0,1-.439.462.383.383,0,0,1-.308-.13.47.47,0,0,1-.113-.332.49.49,0,0,1,.113-.332.387.387,0,0,1,.308-.136.423.423,0,0,1,.308.136A.461.461,0,0,1,111.389,51.938Zm1.091,3.545a4.772,4.772,0,0,0-.047-.676,1.972,1.972,0,0,0-.154-.545,1.01,1.01,0,0,0-.267-.362.6.6,0,0,0-.747,0,.934.934,0,0,0-.261.362,2.135,2.135,0,0,0-.148.545,4.772,4.772,0,0,0-.047.676,4.623,4.623,0,0,0,.047.67,2.156,2.156,0,0,0,.148.539.934.934,0,0,0,.261.362.608.608,0,0,0,.753,0,.934.934,0,0,0,.261-.362,2.156,2.156,0,0,0,.148-.539A3.373,3.373,0,0,0,112.48,55.483Zm.267-3.545a.452.452,0,0,1-.124.332.423.423,0,0,1-.611,0,.488.488,0,0,1,0-.664.414.414,0,0,1,.308-.136.4.4,0,0,1,.308.136A.476.476,0,0,1,112.747,51.938Z" transform="translate(-92.804 -51.428)"/>
    <path id="Path_4946" data-name="Path 4946" class="cls-1" d="M123.1,58.83V55.985c0-.124-.006-.249-.018-.379A1.3,1.3,0,0,0,123,55.25a.59.59,0,0,0-.19-.255.532.532,0,0,0-.338-.095.646.646,0,0,0-.344.1.84.84,0,0,0-.273.285,1.439,1.439,0,0,0-.178.433,2.329,2.329,0,0,0-.059.557v2.561h-.753V55.51c0-.178-.006-.368-.006-.575s-.018-.391-.024-.551h.717c.018.148.03.3.041.445s.012.255.012.326h.018a1.472,1.472,0,0,1,.415-.658,1,1,0,0,1,.705-.267,1.018,1.018,0,0,1,.581.148.972.972,0,0,1,.344.4,2,2,0,0,1,.166.569,4.669,4.669,0,0,1,.041.646v2.84Z" transform="translate(-97.21 -52.552)"/>
    <path id="Path_4947" data-name="Path 4947" class="cls-1" d="M132.357,53.26V56.1c0,.124.006.249.018.379a1.3,1.3,0,0,0,.083.356.59.59,0,0,0,.19.255.532.532,0,0,0,.338.095.646.646,0,0,0,.344-.1.84.84,0,0,0,.273-.285,1.439,1.439,0,0,0,.178-.433,2.313,2.313,0,0,0,.059-.551V53.26h.753v3.326c0,.178.006.368.012.569s.012.385.024.545h-.717c-.018-.148-.03-.3-.042-.445s-.012-.255-.012-.326h-.018a1.472,1.472,0,0,1-.415.658,1,1,0,0,1-.705.267.942.942,0,0,1-.931-.545,1.788,1.788,0,0,1-.166-.563,4.669,4.669,0,0,1-.042-.646V53.26Zm.516-1.322a.446.446,0,0,1-.439.462.383.383,0,0,1-.308-.13.47.47,0,0,1-.113-.332.49.49,0,0,1,.113-.332.387.387,0,0,1,.308-.136.423.423,0,0,1,.308.136A.461.461,0,0,1,132.872,51.938Zm1.358,0a.452.452,0,0,1-.124.332.423.423,0,0,1-.611,0,.488.488,0,0,1,0-.664.423.423,0,0,1,.308-.136.4.4,0,0,1,.308.136A.506.506,0,0,1,134.23,51.938Z" transform="translate(-101.583 -51.428)"/>
    <path id="Path_4948" data-name="Path 4948" class="cls-1" d="M143.925,55.216a.951.951,0,0,0-.3-.279.838.838,0,0,0-.433-.113.548.548,0,0,0-.427.184.687.687,0,0,0-.166.492.555.555,0,0,0,.172.451,1.861,1.861,0,0,0,.528.273,2.95,2.95,0,0,1,.368.172,1.24,1.24,0,0,1,.326.261,1.288,1.288,0,0,1,.237.379,1.371,1.371,0,0,1,.089.522,1.48,1.48,0,0,1-.279.937,1.259,1.259,0,0,1-.729.451l-.308.522a.63.63,0,0,1,.113-.024,1.1,1.1,0,0,1,.148-.006.852.852,0,0,1,.237.036.618.618,0,0,1,.391.314.636.636,0,0,1,.059.29.68.68,0,0,1-.095.379.792.792,0,0,1-.243.243.99.99,0,0,1-.326.13,1.737,1.737,0,0,1-.344.036,2.067,2.067,0,0,1-.4-.041,1.608,1.608,0,0,1-.4-.13l.148-.362a.93.93,0,0,0,.29.095,1.868,1.868,0,0,0,.308.03.764.764,0,0,0,.148-.018.556.556,0,0,0,.166-.059.471.471,0,0,0,.13-.113.259.259,0,0,0,.053-.172.284.284,0,0,0-.119-.249.513.513,0,0,0-.3-.077.915.915,0,0,0-.362.071l-.166-.148.427-.711a1.51,1.51,0,0,1-.676-.184,1.581,1.581,0,0,1-.5-.421l.445-.486a1.7,1.7,0,0,0,.356.326.9.9,0,0,0,.5.136.55.55,0,0,0,.451-.2.843.843,0,0,0,.166-.534.856.856,0,0,0-.059-.32.638.638,0,0,0-.166-.225,1.173,1.173,0,0,0-.255-.16c-.1-.047-.2-.089-.314-.13a2.365,2.365,0,0,1-.332-.148,1.111,1.111,0,0,1-.3-.237,1.053,1.053,0,0,1-.213-.356,1.42,1.42,0,0,1-.077-.51A1.4,1.4,0,0,1,142,55a1.248,1.248,0,0,1,.279-.415,1.313,1.313,0,0,1,.415-.267,1.352,1.352,0,0,1,.516-.095,1.616,1.616,0,0,1,.688.136,1.384,1.384,0,0,1,.474.362Z" transform="translate(-105.7 -52.548)"/>
    <path id="Path_4949" data-name="Path 4949" class="cls-1" d="M152.047,53.26V56.1c0,.124.006.249.018.379a1.3,1.3,0,0,0,.083.356.59.59,0,0,0,.19.255.532.532,0,0,0,.338.095.646.646,0,0,0,.344-.1.84.84,0,0,0,.273-.285,1.439,1.439,0,0,0,.178-.433,2.312,2.312,0,0,0,.059-.551V53.26h.753v3.326c0,.178.006.368.012.569s.012.385.024.545H153.6c-.018-.148-.03-.3-.042-.445s-.012-.255-.012-.326h-.018a1.472,1.472,0,0,1-.415.658,1,1,0,0,1-.705.267.942.942,0,0,1-.931-.545,1.789,1.789,0,0,1-.166-.563,4.669,4.669,0,0,1-.042-.646V53.26Zm.516-1.322a.446.446,0,0,1-.439.462.383.383,0,0,1-.308-.13.47.47,0,0,1-.113-.332.49.49,0,0,1,.113-.332.387.387,0,0,1,.308-.136.423.423,0,0,1,.308.136A.461.461,0,0,1,152.562,51.938Zm1.358,0a.452.452,0,0,1-.125.332.423.423,0,0,1-.611,0,.488.488,0,0,1,0-.664.423.423,0,0,1,.308-.136.4.4,0,0,1,.308.136A.506.506,0,0,1,153.92,51.938Z" transform="translate(-109.601 -51.428)"/>
    <path id="Path_4950" data-name="Path 4950" class="cls-1" d="M163.308,54.483a1.128,1.128,0,0,1,1.138-.19.956.956,0,0,1,.29.207,1.069,1.069,0,0,1,.19.29,2.122,2.122,0,0,1,.113.344h.018a2.356,2.356,0,0,1,.16-.326,1.438,1.438,0,0,1,.243-.3,1.231,1.231,0,0,1,.338-.219,1.1,1.1,0,0,1,.433-.083,1.018,1.018,0,0,1,.581.148.972.972,0,0,1,.344.4,2,2,0,0,1,.166.569,4.672,4.672,0,0,1,.042.646v2.84H166.6V55.965c0-.124-.006-.249-.018-.379a1.3,1.3,0,0,0-.083-.356.59.59,0,0,0-.19-.255.532.532,0,0,0-.338-.095.646.646,0,0,0-.344.1.885.885,0,0,0-.267.285,1.435,1.435,0,0,0-.172.433,2.329,2.329,0,0,0-.059.557v2.561h-.747V55.971c0-.124-.006-.249-.018-.379a1.3,1.3,0,0,0-.083-.356.59.59,0,0,0-.19-.255.532.532,0,0,0-.338-.095.646.646,0,0,0-.344.1.885.885,0,0,0-.267.285,1.344,1.344,0,0,0-.166.433,2.329,2.329,0,0,0-.059.557v2.561h-.747V55.5c0-.178-.006-.368-.006-.575s-.018-.391-.024-.551h.717c.018.148.03.3.042.445s.012.255.012.326h.018A1.316,1.316,0,0,1,163.308,54.483Z" transform="translate(-114.027 -52.544)"/>
    <path id="Path_4951" data-name="Path 4951" class="cls-1" d="M177.367,53.26V56.1c0,.124.006.249.018.379a1.3,1.3,0,0,0,.083.356.59.59,0,0,0,.19.255.532.532,0,0,0,.338.095.646.646,0,0,0,.344-.1.84.84,0,0,0,.273-.285,1.439,1.439,0,0,0,.178-.433,2.312,2.312,0,0,0,.059-.551V53.26h.753v3.326c0,.178,0,.368.012.569s.012.385.024.545h-.717c-.018-.148-.03-.3-.042-.445s-.012-.255-.012-.326h-.018a1.472,1.472,0,0,1-.415.658,1,1,0,0,1-.705.267.942.942,0,0,1-.931-.545,1.958,1.958,0,0,1-.166-.563,4.669,4.669,0,0,1-.042-.646V53.26Zm.51-1.322a.446.446,0,0,1-.439.462.383.383,0,0,1-.308-.13.47.47,0,0,1-.113-.332.49.49,0,0,1,.113-.332.387.387,0,0,1,.308-.136.423.423,0,0,1,.308.136A.461.461,0,0,1,177.876,51.938Zm1.358,0a.452.452,0,0,1-.124.332.423.423,0,0,1-.611,0,.488.488,0,0,1,0-.664.414.414,0,0,1,.308-.136.4.4,0,0,1,.308.136A.467.467,0,0,1,179.234,51.938Z" transform="translate(-119.91 -51.428)"/>
    <path id="Path_4952" data-name="Path 4952" class="cls-1" d="M189.74,58.83V55.985c0-.124-.006-.249-.018-.379a1.3,1.3,0,0,0-.083-.356.59.59,0,0,0-.19-.255.532.532,0,0,0-.338-.095.646.646,0,0,0-.344.1.84.84,0,0,0-.273.285,1.439,1.439,0,0,0-.178.433,2.329,2.329,0,0,0-.059.557v2.561h-.753V55.51c0-.178,0-.368-.012-.575s-.012-.391-.024-.551h.717c.018.148.03.3.042.445s.012.255.012.326h.018a1.472,1.472,0,0,1,.415-.658,1,1,0,0,1,.705-.267,1.018,1.018,0,0,1,.581.148.972.972,0,0,1,.344.4,2,2,0,0,1,.166.569,4.669,4.669,0,0,1,.042.646v2.84Z" transform="translate(-124.34 -52.552)"/>
    <path id="Path_4953" data-name="Path 4953" class="cls-1" d="M205.427,54.49v2.84c0,.124.006.249.018.379a1.3,1.3,0,0,0,.083.356.59.59,0,0,0,.19.255.532.532,0,0,0,.338.095.646.646,0,0,0,.344-.1.84.84,0,0,0,.273-.285,1.439,1.439,0,0,0,.178-.433,2.312,2.312,0,0,0,.059-.551V54.49h.753v3.326c0,.178,0,.368.012.569s.012.385.024.545h-.717c-.018-.148-.03-.3-.042-.445s-.012-.255-.012-.326h-.018a1.472,1.472,0,0,1-.415.658,1,1,0,0,1-.705.267.942.942,0,0,1-.931-.545,1.789,1.789,0,0,1-.166-.563,4.672,4.672,0,0,1-.041-.646V54.49Z" transform="translate(-131.336 -52.658)"/>
    <path id="Path_4954" data-name="Path 4954" class="cls-1" d="M214.85,58.932v-.646l1.79-3.16h-1.66V54.48h2.448v.628l-1.79,3.178h1.8v.646Z" transform="translate(-135.489 -52.654)"/>
    <path id="Path_4955" data-name="Path 4955" class="cls-1" d="M225.47,54.483a1.128,1.128,0,0,1,1.138-.19.956.956,0,0,1,.29.207,1.068,1.068,0,0,1,.19.29,2.125,2.125,0,0,1,.113.344h.018a2.36,2.36,0,0,1,.16-.326,1.439,1.439,0,0,1,.243-.3,1.23,1.23,0,0,1,.338-.219,1.1,1.1,0,0,1,.433-.083,1.018,1.018,0,0,1,.581.148.972.972,0,0,1,.344.4,2,2,0,0,1,.166.569,4.667,4.667,0,0,1,.042.646v2.84h-.765V55.965c0-.124-.006-.249-.018-.379a1.3,1.3,0,0,0-.083-.356.59.59,0,0,0-.19-.255.532.532,0,0,0-.338-.095.646.646,0,0,0-.344.1.885.885,0,0,0-.267.285,1.435,1.435,0,0,0-.172.433,2.318,2.318,0,0,0-.065.557v2.561h-.747V55.971c0-.124-.006-.249-.018-.379a1.3,1.3,0,0,0-.083-.356.59.59,0,0,0-.19-.255.532.532,0,0,0-.338-.095.646.646,0,0,0-.344.1.885.885,0,0,0-.267.285,1.432,1.432,0,0,0-.166.433,2.677,2.677,0,0,0-.059.557v2.561h-.747V55.5c0-.178,0-.368-.012-.575s-.012-.391-.024-.551h.717c.018.148.03.3.042.445s.012.255.012.326h.018A1.429,1.429,0,0,1,225.47,54.483Z" transform="translate(-139.333 -52.544)"/>
    <path id="Path_4956" data-name="Path 4956" class="cls-1" d="M240.547,58.818q-.036-.2-.053-.409c-.012-.136-.018-.243-.018-.326h-.018a1.188,1.188,0,0,1-.35.622,1.017,1.017,0,0,1-.694.225,1.1,1.1,0,0,1-.379-.071.9.9,0,0,1-.35-.231,1.267,1.267,0,0,1-.255-.409,1.664,1.664,0,0,1-.1-.611,1.594,1.594,0,0,1,.172-.783,1.416,1.416,0,0,1,.433-.48,1.625,1.625,0,0,1,.581-.237,3.2,3.2,0,0,1,.611-.065h.29v-.2a1.151,1.151,0,0,0-.2-.759.679.679,0,0,0-.539-.237.9.9,0,0,0-.462.124,1.185,1.185,0,0,0-.362.326l-.379-.468a1.489,1.489,0,0,1,.575-.468,1.7,1.7,0,0,1,.7-.166,1.467,1.467,0,0,1,.64.124,1.036,1.036,0,0,1,.421.362,1.529,1.529,0,0,1,.225.593,4.53,4.53,0,0,1,.065.794v1.8q0,.231.018.5c.012.178.03.326.042.433h-.611Zm-.119-2.193H240.1a2.2,2.2,0,0,0-.4.036.973.973,0,0,0-.344.136.7.7,0,0,0-.243.279.923.923,0,0,0-.095.451.85.85,0,0,0,.178.6.553.553,0,0,0,.409.19.566.566,0,0,0,.385-.136,1.047,1.047,0,0,0,.255-.35,1.655,1.655,0,0,0,.136-.468,2.786,2.786,0,0,0,.041-.486v-.249Z" transform="translate(-145.05 -52.54)"/>
    <path id="Path_4957" data-name="Path 4957" class="cls-1" d="M250.89,58.83V55.985c0-.124-.006-.249-.018-.379a1.3,1.3,0,0,0-.083-.356.59.59,0,0,0-.19-.255.532.532,0,0,0-.338-.095.646.646,0,0,0-.344.1.84.84,0,0,0-.273.285,1.439,1.439,0,0,0-.178.433,2.329,2.329,0,0,0-.059.557v2.561h-.753V55.51c0-.178,0-.368-.012-.575s-.012-.391-.024-.551h.717c.018.148.03.3.042.445s.012.255.012.326h.018a1.472,1.472,0,0,1,.415-.658,1,1,0,0,1,.705-.267,1.018,1.018,0,0,1,.581.148.971.971,0,0,1,.344.4,2,2,0,0,1,.166.569,4.667,4.667,0,0,1,.042.646v2.84Z" transform="translate(-149.239 -52.552)"/>
    <path id="Path_4958" data-name="Path 4958" class="cls-1" d="M259.45,58.932V54.48h.753v4.452h-.753Z" transform="translate(-153.649 -52.654)"/>
    <path id="Path_4959" data-name="Path 4959" class="cls-1" d="M275.763,56.609a3.761,3.761,0,0,1-.113.966,2.389,2.389,0,0,1-.32.747,1.533,1.533,0,0,1-.51.486,1.426,1.426,0,0,1-1.358,0,1.476,1.476,0,0,1-.51-.486,2.535,2.535,0,0,1-.32-.747,4.039,4.039,0,0,1-.113-.966,3.887,3.887,0,0,1,.113-.978,2.36,2.36,0,0,1,.314-.753,1.516,1.516,0,0,1,.5-.486,1.438,1.438,0,0,1,1.363,0,1.476,1.476,0,0,1,.51.486,2.508,2.508,0,0,1,.32.753A3.627,3.627,0,0,1,275.763,56.609Zm-.782-.006a4.778,4.778,0,0,0-.047-.676,1.972,1.972,0,0,0-.154-.545,1.009,1.009,0,0,0-.267-.362.6.6,0,0,0-.747,0,.934.934,0,0,0-.261.362,1.917,1.917,0,0,0-.148.545,4.773,4.773,0,0,0-.047.676,4.624,4.624,0,0,0,.047.67,2.229,2.229,0,0,0,.148.539.934.934,0,0,0,.261.362.609.609,0,0,0,.753,0,.935.935,0,0,0,.261-.362,2.156,2.156,0,0,0,.148-.539A4.651,4.651,0,0,0,274.98,56.6Z" transform="translate(-158.971 -52.548)"/>
  </g>
</svg>
