<?xml version="1.0" encoding="utf-8"?>
<!-- Generator: Adobe Illustrator 22.1.0, SVG Export Plug-In . SVG Version: 6.00 Build 0)  -->
<svg version="1.1" id="Layer_1" xmlns="http://www.w3.org/2000/svg" xmlns:xlink="http://www.w3.org/1999/xlink" x="0px" y="0px"
	 viewBox="0 0 310 120" style="enable-background:new 0 0 310 120;" xml:space="preserve">
<style type="text/css">
	.st0{enable-background:new    ;}
	.st1{fill:#1F1E1E;}
	.st2{fill:#EBEBEB;}
	.st3{fill:#F5F9FA;}
	.st4{fill:#BDBDBD;}
	.st5{fill:#3D566E;}
	.st6{fill:#9C9C9C;}
	.st7{fill:#E6EAEB;}
	.st8{fill:#ABB3B5;}
	.st9{fill:#BFC7C9;}
	.st10{fill:#C9D2D4;}
	.st11{fill:#FAC13C;}
	.st12{fill:#F5BE3D;}
	.st13{fill:#FFDC6A;}
	.st14{fill:#E6B543;}
	.st15{fill:#D19917;}
	.st16{opacity:3.000000e-03;fill:#040507;enable-background:new    ;}
	.st17{opacity:7.000000e-03;fill:#080A0D;enable-background:new    ;}
	.st18{opacity:1.000000e-02;fill:#0B0E14;enable-background:new    ;}
	.st19{opacity:1.300000e-02;fill:#0F131B;enable-background:new    ;}
	.st20{opacity:1.700000e-02;fill:#131822;enable-background:new    ;}
	.st21{opacity:2.000000e-02;fill:#171D29;enable-background:new    ;}
	.st22{opacity:2.300000e-02;fill:#1B2230;enable-background:new    ;}
	.st23{opacity:2.700000e-02;fill:#1F2737;enable-background:new    ;}
	.st24{opacity:3.000000e-02;fill:#232C3F;enable-background:new    ;}
	.st25{opacity:3.300000e-02;fill:#273246;enable-background:new    ;}
	.st26{opacity:3.700000e-02;fill:#2B374D;enable-background:new    ;}
	.st27{opacity:4.000000e-02;fill:#2F3C54;enable-background:new    ;}
	.st28{opacity:4.300000e-02;fill:#34415C;enable-background:new    ;}
	.st29{opacity:4.700000e-02;fill:#384763;enable-background:new    ;}
</style>
<g id="Group_2695" transform="translate(-979 -281)">
	<g id="_3" transform="translate(461 -195)">
		<g id="Group_2430" transform="translate(-36 -107)">
			<g class="st0">
				<path class="st1" d="M674.9,597.4h4.9l4.6,12.5h0.1l4.5-12.5h4.9V615h-3.1v-14.1h0l-5.3,14.1h-2.2l-5.3-14.1h0V615h-3V597.4z"/>
				<path class="st1" d="M702,607.4l-6.6-10h3.8l4.4,7.4l4.5-7.4h3.6l-6.6,10v7.6H702V607.4z"/>
			</g>
			<g class="st0">
				<path class="st1" d="M675.4,629.1H690v3.4h-10.7v5.6h10.1v3.3h-10.1v6.2h11.2v3.5h-15.1V629.1z"/>
				<path class="st1" d="M700.6,645h-7.5v-3.2h7.5V645z"/>
				<path class="st1" d="M704.3,629.1h7.8c1.4,0,2.9,0.2,4.3,0.6s2.8,1,3.9,1.8c1.2,0.9,2.1,2,2.8,3.4c0.7,1.4,1.1,3.1,1.1,5.2
					c0,1.9-0.4,3.6-1.1,5c-0.7,1.4-1.7,2.5-2.8,3.4c-1.2,0.9-2.5,1.5-3.9,2s-2.9,0.6-4.3,0.6h-7.8V629.1z M711.5,647.7
					c1,0,2-0.1,3-0.4s1.9-0.6,2.8-1.2c0.8-0.6,1.5-1.3,2-2.3c0.5-1,0.8-2.2,0.8-3.7c0-1.6-0.3-2.9-0.8-3.9c-0.5-1-1.2-1.8-2-2.3
					s-1.7-0.9-2.8-1.1s-2-0.3-3-0.3h-3.3v15.2H711.5z"/>
				<path class="st1" d="M728,629.1h14.6v3.4h-10.7v5.6H742v3.3h-10.1v6.2h11.2v3.5H728V629.1z"/>
				<path class="st1" d="M747,629.1h14.2v3.4h-10.3v6h9.7v3.3h-9.7v9.3H747V629.1z"/>
				<path class="st1" d="M769.2,632.5h-6.7v-3.4h17.4v3.4h-6.7v18.6h-3.9V632.5z"/>
				<path class="st1" d="M782.4,629.1H797v3.4h-10.7v5.6h10.1v3.3h-10.1v6.2h11.2v3.5h-15.1V629.1z"/>
				<path class="st1" d="M801.4,629.1h7.6c1,0,2,0.1,3,0.3c1,0.2,1.8,0.6,2.6,1.1c0.8,0.5,1.4,1.1,1.8,2c0.5,0.8,0.7,1.8,0.7,3
					c0,1.6-0.5,2.9-1.4,3.9s-2.1,1.7-3.7,2l5.9,9.8h-4.7l-5.1-9.3h-2.9v9.3h-3.9V629.1z M808.5,638.6c0.6,0,1.1,0,1.7-0.1
					c0.6-0.1,1.1-0.2,1.5-0.5c0.4-0.2,0.8-0.6,1.1-1c0.3-0.4,0.4-1,0.4-1.6c0-0.6-0.1-1.1-0.4-1.5c-0.3-0.4-0.6-0.7-1-0.9
					c-0.4-0.2-0.9-0.4-1.4-0.5c-0.5-0.1-1-0.1-1.5-0.1h-3.5v6.2H808.5z"/>
			</g>
		</g>
		<g id="Group_2420" transform="translate(-406.907 -350.305)">
			<g id="Group_2419" transform="translate(928.907 826.305)">
				<g id="Group_2413" transform="translate(0 0)">
					<path id="Path_4517" class="st2" d="M48.6,88.4c0.9,1.2,1.9,1.9,3,2.8l43.1-25c1.9-1.2,3.1-3.4,3.3-5.7V13.7L86,4.5l-1-0.1
						L72.2,4L50.3,16.5c-0.6,0.4-1.2,0.9-1.8,1.3L48.6,88.4L48.6,88.4L48.6,88.4z"/>
					<path id="Path_4518" class="st3" d="M90.3,22.2l6-3.4c3-1.6,4.6-3.1,1.6-5.5L85.3,3.6l5.1,7.7L90.3,22.2L90.3,22.2z"/>
					<path id="Path_4519" class="st4" d="M51.6,91.2L47.7,89l-0.4-0.4l-0.4-0.4l-0.1-0.6l-0.1-0.7v-65l0.1-0.4l0.1-0.4l0.1-0.4
						l0.1-0.4l0.3-0.4l0.3-0.4l0.3-0.4l0.3-0.4l0.3-0.4l0.3-0.4l0.3-0.4l0.4-0.3l0.4-0.3l0.4-0.3l24-14.4c3.4-1.9,5.4-3,9.5-1
						c3.7,1.8,6.4,5.1,7.2,9.1v11l-4.2-2.2v-8.3c0.1-3.9-4.2-8.5-10-5.5L54.4,18L54,18.3l-0.4,0.3l-0.4,0.3l-0.3,0.3l-0.3,0.4
						L52.3,20L52,20.4L51.6,21l-0.3,0.4L51,21.9l-0.1,0.4l-0.1,0.4l-0.1,0.4l-0.1,0.4v64.8l0.1,0.7l0.3,0.6l0.4,0.4L51.6,91.2z"/>
					<path id="Path_4521" class="st5" d="M58,41.7l27.3-15.9V27L58,42.9V41.7z"/>
					<path id="Path_4757" class="st5" d="M58,54.8l27.3-15.9v1.2L58,56V54.8z"/>
					<path id="Path_4522" class="st5" d="M58,48.4l29.5-17v1.2L58,49.6V48.4z"/>
					<path id="Path_4756" class="st5" d="M58,61.5l29.5-17v1.2L58,62.7V61.5z"/>
					<path id="Path_4758" class="st5" d="M58,66.8l29.5-17V51L58,68V66.8z"/>
					<path id="Path_4523" class="st5" d="M58,72.7l23.2-13.4v1.2L58,74.1V72.7z"/>
					<path id="Path_4524" class="st6" d="M82.6,6V1.8c0.3,0.1,0.4,0.3,0.6,0.3c3.7,1.8,6.4,5.1,7.2,9.1v11l-4.2-2.4v-8.2
						C86.3,9.2,84.8,7,82.6,6z"/>
					<path id="Path_4525" class="st6" d="M51.6,91.2L47.7,89l-0.4-0.4l-0.4-0.4l-0.1-0.6v-0.7V22.2l0.1-0.4l0.1-0.4V21l4,2.2
						l-0.1,0.4L50.7,24v0.4l-0.1,0.4V89l0.1,0.7l0.1,0.6l0.4,0.4L51.6,91.2z"/>
				</g>
				<g id="Group_2418" transform="translate(30.449 17.295)">
					<path id="Path_4738" class="st7" d="M61.2,57.8l-0.7-0.4h0.1h0.1h0.1h0.4h0.1h0.1l0.7,0.4H62h-0.1h-0.4h-0.1H61.2L61.2,57.8z"
						/>
					<path id="Path_4739" class="st8" d="M62.4,70.2l-0.7-0.4l-6.3-7.3l0.7,0.4L62.4,70.2z"/>
					<path id="Path_4740" class="st8" d="M56.1,62.9l-0.7-0.4L57.1,49l0.7,0.4L56.1,62.9z"/>
					<path id="Path_4741" class="st9" d="M57.9,49.5L57.1,49l10.1-5.8l0.7,0.4L57.9,49.5z"/>
					<path id="Path_4742" class="st8" d="M63.4,69.7l-0.7-0.4V56.9l0.7,0.4V69.7z"/>
					<path id="Path_4743" class="st7" d="M63.4,57.2l-0.7-0.4l0.1-0.1l0.1-0.1l0.1-0.1l0.1-0.1l0.3-0.3l0.1-0.1l0.1-0.1l0.1-0.3
						l0.7,0.4l-0.1,0.1l0.1-0.1l-0.1,0.1l-0.1,0.3L64,56.6l-0.1,0.1l-0.1,0.1L63.4,57.2z"/>
					<path id="Path_4744" class="st8" d="M64.6,55.7l-0.7-0.4L64,55l0.3-0.4l0.1-0.3v-0.1l0.1-0.3v-0.3v-0.3v-0.4l0.7,0.4v0.3v0.6
						v0.3v0.3l-0.1,0.4L65,55.4l-0.1,0.3H64.6z"/>
					<path id="Path_4745" class="st8" d="M65.3,53.3l-0.7-0.4v-0.3v-0.3V52l-0.1-0.3v-0.1l-0.1-0.1l-0.1-0.1L64,51.1l0.7,0.4
						l0.1,0.1l0.1,0.1V52l0.1,0.3v0.1v0.3V53L65.3,53.3z"/>
					<path id="Path_4746" class="st10" d="M62.9,52c-0.7,0.4-1.2,1-1.8,1.8c-0.4,0.7-0.6,1.5-0.7,2.4c0,0.6,0.3,1.2,0.7,1.5
						s0.9,0.3,1.2,0V70L56,62.7l1.8-13.4L68,43.6l1.8,11.5l-6.4,14.6V57.4c0.4-0.4,0.9-0.9,1.2-1.3c0.4-0.7,0.6-1.5,0.7-2.4
						c0-0.6-0.3-1.2-0.7-1.5C64,51.7,63.4,51.7,62.9,52z"/>
					<path id="Path_4747" class="st9" d="M61.9,36.8c1.9,0,3.9-0.4,5.7-1.3c1.3-0.6,2.2-1.9,2.4-3.3c-0.1-1.3-1-2.7-2.4-3.3
						c-1.8-1-3.6-1.3-5.7-1.3S58,28,56.2,28.9c-1.2,0.6-2.2,1.9-2.4,3.3c0.1,1.3,1,2.7,2.4,3.3C58,36.2,60,36.8,61.9,36.8z"/>
					<path id="Path_4748" class="st9" d="M69.8,45.9V32.8v0.1V33l0,0v0.1l0,0v0.1v0.1v0.1v0.1V34v0.1v0.1v0.1l-0.1,0.1L69,34.5h-0.1
						l-0.1,0.1l-0.1-0.1l-0.1,0.1h-0.1L68,35l-0.1,0.1h-0.1l-0.1,0.1l-0.1,0.1h0.1h-0.1h-0.1l-0.1,0.1H67h-0.1h-0.1h-0.1h-0.1h-0.1
						h-0.1h-0.1L65.7,36h-0.1H65h-0.3h-0.1h-0.1h-0.1h0.3h-0.1h-0.1h-4.2l0,0H60h-0.1h-0.1h-0.1h-0.1h-0.1h-0.1h-1h-0.1h-0.1h-0.1
						H58h-0.1h-0.1L57,36h-0.1h0.3H57h-0.1h-0.1h-0.1l-0.1-0.1l-0.1-0.1l-0.1-0.1L56,35l-0.1-0.1h-0.1l-0.1-0.1L55,34.4l0,0
						l-0.1-0.1l-0.1-0.1V34v-0.1v-0.1v-0.1v-0.1v-0.1v-0.1v0.1h-0.4v-0.1v-0.1v-0.1v-0.1v13.1C54.6,51.8,69.2,51.8,69.8,45.9z"/>
					<path id="Path_4749" class="st11" d="M67.6,35.3L67.6,35.3l0.3-0.1H68l0.1-0.1h0.1l0.1-0.1l0.1-0.1h0.1l0.1-0.1v-0.1h0.1
						l0.1-0.1v-0.1l0.1-0.1l0,0v-0.1l0.1-0.1v-0.1V34l0,0v-0.1v-0.1v0.1v-0.1v-0.1v-0.1v-0.1v-0.3v-0.1V10.3v0.1v0.3v0.1l0,0V11v0.1
						v0.1v0.1v0.1v0.1l0,0v0.1h-0.4v0.1v0.1h-0.1v0.1h-0.1L68.3,12l0,0l-0.1,0.1l-0.1,0.1H68l0,0.7h-0.1L67.8,13l-0.1,0.1h-0.1h0.1
						h-0.1h-0.1l-0.1,0.1H67h-0.1l-0.1,0.1h-0.1h-0.1h-0.1h-0.1h-0.1h0.1h-0.1l-0.7,0.9H65h-0.1h-0.1h-0.1h-0.4H64h-0.3h-0.1h-0.3
						h-0.1h-0.6l-0.1,0.4h-1.6h-0.1H60l-0.1-0.1h-0.3h-0.1h-0.3h-0.1H59h-0.3h-0.1h-0.1h0.4h-0.1l-0.3-0.4H58h-0.1L57.6,14h-0.1
						h-0.1h-0.1v-0.3H57h-0.1l-0.1-0.3h-0.1h-0.1l-0.3-0.3h-0.1L56.1,13L56,12.9h0.1L56,12.8h-0.1v-0.1l-0.1-0.3H55v0.1v-0.1
						l-0.3-0.1h-0.1l0,0v-0.1v-0.1L54.3,12l0,0v-0.1v-0.1l0,0v-0.1V11v-0.1v-0.1v-0.1l0,0v21.9v0.1v0.1v0.1V33v0.1v0.1v-0.1v0.1l0,0
						v0.1l0.1,0.1v0.1V34l0,0l0.1,0.1l0.1,0.1v0.1h0.1l0.4,0.3l0.1,0.1l0,0v-0.1l0.1,0.1h0.1l0.1,0.1h0.1l0.1,0.1h0.1l0.3,0.3h0.1
						l0.1,0.1h0.1h0.1h-0.1l0.1,0.1h0.1h0.1h0.1h0.1H58h0.1h0.1h0.1h0.1h0.1h0.3h0.1H59h0.1h0.1h0.4h0.1h-0.1h0.1h2.5h0.1h0.4h0.1
						H64h0.1h0.1h0.1h0.3h0.1h-0.3h0.1l0.4,0.4H65h0.1h0.1h0.1h0.1h0.1l0,0l0.1-0.1h0.1h0.1h0.1l0.1-0.1h1L67.6,35.3z"/>
					<path id="Path_4750" class="st12" d="M61.9,14.7c1.9,0,3.9-0.4,5.7-1.3c1.3-0.6,2.2-1.9,2.4-3.3c-0.3-1.3-1.2-2.7-2.4-3.3
						c-1.8-0.9-3.7-1.3-5.7-1.3S58,5.9,56.2,6.8c-1.2,0.6-2,1.8-2.2,3.3c0.1,1.3,1,2.7,2.4,3.3C58,14.3,60,14.7,61.9,14.7z"/>
					<path id="Path_4751" class="st7" d="M68,35L68,35L68,35l-0.3,0.3l-0.1,0.1l0,0h-0.1h-0.1l-0.1,0.1H67h-0.1h-0.1h-0.1h-0.1h-0.1
						h-0.1h-0.1l-0.6,0.6h-0.1H65h-0.3h-0.1h-0.1h-0.1l0,0v13.7c1.3-0.3,2.7-0.7,3.6-1.3V35L68,35z"/>
					<path id="Path_4752" class="st13" d="M67.6,35.3L67.6,35.3l0.3-0.1H68l0.1-0.1l0,0V12.9l0,0L68,13.1l-0.1,0.1h-0.1l-0.1,0.1
						h-0.1h-0.1l-0.1,0.1H67h-0.1l-0.1,0.1h-0.1h-0.1h-0.1h-0.1h-0.1h0.1h-0.1l-0.7,0.7H65h-0.1h-0.1h-0.1h-0.3V36h0.3h0.1h0.1H65
						l0.3-0.1h0.1h0.1h0.1h0.1h0.1h0.1h-0.1l0.1-0.1H66h0.1h0.1l0.1-0.1H67L67.6,35.3z"/>
					<path id="Path_4753" class="st8" d="M59.5,36.5L59.5,36.5h-0.3h-0.1H59h-0.1h-0.1h-0.1h-0.3H58h-0.1h-0.1h-0.1h-0.1h-0.1
						l-0.1-0.1H57h-0.1h-0.1h0.4H57h-0.1l-0.1-0.1L56.5,36l-0.1-0.1l0,0v13.7c1.2,0.7,2.5,1.2,3.9,1.3L59.5,36.5L59.5,36.5z"/>
					<path id="Path_4754" class="st14" d="M59.5,14.6L59.5,14.6h-0.3h-0.3h-0.1h-0.1l0,0h-0.1h-0.1h-0.1H58L57.6,14h-0.1h-0.1h-0.1
						v-0.3H57l-0.1-0.1l-0.1-0.1h-0.1h-0.1l-0.3-0.3h-0.1l-0.1-0.1L56,13l0,0v21.9l0,0l0.1,0.1h0.1l0.1,0.1h0.1l0.3,0.3h0.1l0.1,0.1
						H57h0h0.1l0.1,0.1h0.1h0.1h0.1h0.1H58h0.1h0.1h0.1h0.1h0.1h0.3h0.1H59L59.5,14.6z"/>
					<path id="Path_4755" class="st15" d="M61.9,13.5c1.8,0,3.4-0.4,4.9-1.2c1.2-0.6,2.1-1.8,2.2-3c-0.1-1.1-0.8-2.3-2-2.8
						c-1.5-0.9-3.3-1.2-4.9-1.2c-1.6,0-3.4,0.4-4.9,1.2C55.8,7,55,8.2,54.9,9.4c0.1,1.2,0.9,2.4,2.1,2.8
						C58.5,13.1,60.3,13.5,61.9,13.5z"/>
				</g>
			</g>
		</g>
		<g id="Group_2434" transform="translate(518 541.447)">
			<path id="Path_4484" class="st16" d="M100.8,22.5c12.7,7.3,12.7,19.1,0,26.4s-33.1,7.3-45.8,0s-12.7-19.1,0-26.4
				S88.2,15.2,100.8,22.5z"/>
			<path id="Path_4485" class="st17" d="M99.3,23.4c11.8,6.9,11.8,17.9,0,24.6s-30.7,6.9-42.6,0s-11.8-17.9,0-24.6
				S87.5,16.6,99.3,23.4z"/>
			<path id="Path_4486" class="st18" d="M97.8,24.3c10.9,6.4,10.9,16.5,0,22.8s-28.8,6.4-39.5,0s-11-16.5-0.1-22.8
				S86.9,17.9,97.8,24.3z"/>
			<path id="Path_4487" class="st19" d="M96.3,25.2c10.1,5.8,10.1,15.3,0,21.2s-26.5,5.8-36.7,0s-10-15.3,0-21.2
				S86.1,19.4,96.3,25.2z"/>
			<path id="Path_4488" class="st20" d="M94.8,26.1c9.2,5.4,9.2,14,0,19.4s-24.3,5.4-33.4,0s-9.2-14,0-19.4S85.4,20.8,94.8,26.1z"/>
			<path id="Path_4489" class="st21" d="M93.2,26.9c8.3,4.9,8.3,12.7,0,17.6s-22.1,4.9-30.5,0s-8.3-12.7,0.1-17.6
				C71.1,22.1,84.8,22.1,93.2,26.9z"/>
			<path id="Path_4490" class="st22" d="M91.7,27.8c7.6,4.3,7.6,11.5,0,15.8s-19.8,4.3-27.3,0s-7.6-11.5,0-15.8S84.1,23.4,91.7,27.8
				z"/>
			<path id="Path_4491" class="st23" d="M90.2,28.7c6.7,3.9,6.7,10.1,0,14s-17.6,3.9-24.3,0s-6.7-10.1,0-14S83.5,24.8,90.2,28.7z"/>
			<path id="Path_4492" class="st24" d="M88.7,29.7c5.8,3.4,5.8,8.8,0,12.4s-15.3,3.4-21.3,0s-5.8-8.8,0-12.4S82.7,26.1,88.7,29.7z"
				/>
			<path id="Path_4493" class="st25" d="M87,30.6c5,2.8,5,7.6,0,10.4c-5.7,2.8-12.4,2.8-18.2,0c-4.9-2.8-4.9-7.6,0-10.4
				C74.5,27.6,81.2,27.6,87,30.6z"/>
			<path id="Path_4494" class="st26" d="M85.6,31.3c4.2,2.4,4.2,6.4,0,8.6c-4.8,2.4-10.3,2.4-15.1,0c-4.2-2.4-4.2-6.4,0-8.6
				C75.3,29,80.8,29,85.6,31.3z"/>
			<path id="Path_4495" class="st27" d="M83.9,32.2c3.4,1.9,3.4,4.9,0,7c-3.7,1.9-8.2,1.9-12.1,0c-3.4-1.9-3.4-4.9,0-7
				C75.7,30.3,80.2,30.3,83.9,32.2z"/>
			<path id="Path_4496" class="st28" d="M82.4,33.1c2.5,1.3,2.5,3.7,0,5.2c-2.8,1.3-6.1,1.3-8.9,0c-2.5-1.3-2.5-3.7,0-5.2
				C76.3,31.8,79.6,31.8,82.4,33.1z"/>
			<path id="Path_4497" class="st29" d="M80.9,34c1,0.4,1.5,1.3,1.2,2.2c-0.1,0.4-0.6,1-1.2,1.2c-1.9,0.9-4.2,0.9-6,0
				c-1-0.4-1.5-1.3-1.2-2.2c0.1-0.4,0.6-1,1.2-1.2C76.8,33.1,79,33.1,80.9,34z"/>
		</g>
	</g>
</g>
</svg>
