<?xml version="1.0" encoding="utf-8"?>
<!-- Generator: Adobe Illustrator 22.1.0, SVG Export Plug-In . SVG Version: 6.00 Build 0)  -->
<svg version="1.1" id="Layer_1" xmlns="http://www.w3.org/2000/svg" xmlns:xlink="http://www.w3.org/1999/xlink" x="0px" y="0px"
	 viewBox="0 0 310 120" style="enable-background:new 0 0 310 120;" xml:space="preserve">
<style type="text/css">
	.st0{fill:#BDBDBD;}
	.st1{fill:#E6EAEB;}
	.st2{fill:#676775;}
	.st3{fill:#9C9C9C;}
	.st4{enable-background:new    ;}
	.st5{fill:#1F1E1E;}
	.st6{opacity:3.000000e-03;fill:#040507;enable-background:new    ;}
	.st7{opacity:7.000000e-03;fill:#080A0D;enable-background:new    ;}
	.st8{opacity:1.000000e-02;fill:#0B0E14;enable-background:new    ;}
	.st9{opacity:1.300000e-02;fill:#0F131B;enable-background:new    ;}
	.st10{opacity:1.700000e-02;fill:#131822;enable-background:new    ;}
	.st11{opacity:2.000000e-02;fill:#171D29;enable-background:new    ;}
	.st12{opacity:2.300000e-02;fill:#1B2230;enable-background:new    ;}
	.st13{opacity:2.700000e-02;fill:#1F2737;enable-background:new    ;}
	.st14{opacity:3.000000e-02;fill:#232C3F;enable-background:new    ;}
	.st15{opacity:3.300000e-02;fill:#273246;enable-background:new    ;}
	.st16{opacity:3.700000e-02;fill:#2B374D;enable-background:new    ;}
	.st17{opacity:4.000000e-02;fill:#2F3C54;enable-background:new    ;}
	.st18{opacity:4.300000e-02;fill:#34415C;enable-background:new    ;}
	.st19{opacity:4.700000e-02;fill:#384763;enable-background:new    ;}
</style>
<g id="Group_2688" transform="translate(-122.88 -473)">
	<g id="Group_2390" transform="translate(107.503 473)">
		<path id="Path_4456" class="st0" d="M75.5,95.3L69.7,92V22l1.2,0.7l2.4-1.3l2.4-3.9L78,19l2.5-1.5l2.4-3.9l2.4,1.3l2.5-1.5
			l2.4-3.9l2.4,1.3l2.5-1.5l2.4-3.9L99.8,7l2.5-1.5l2.4-3.9l5.8,3.4l-2.4,3.9l-2.4,1L103,8.6l-2.4,3.9L98.1,14l-2.4-1.3l-2.4,3.9
			l-2.5,1.5l-2.4-1.3L86,20.7l-2.5,1.5L81.1,21l-2.4,3.9l-2.4,1.3l-1.2-0.7v70.1h0.4V95.3z M108.9,0.9l-2.4,1.3l5.8,3.3l2.2-1.3
			l0.6-0.9L109.5,0L108.9,0.9z"/>
		<path id="Path_4457" class="st1" d="M115.2,20v51.7l-0.6-0.3l-2.2,1.3l-2.4,3.9l-2.4-1.2l-2.5,1.6l-2.4,3.9l-2.4-1.3l-2.5,1.6
			l-2.2,3.9l-2.2-1.3l-2.5,1.5l-2.4,3.9L86.1,88l-2.5,1.5l-2.2,3.9L79,92.1l-2.4,1.3l-1,2.1v-70l1.2,0.7l2.4-1.3l2.4-3.9l2.2,1.3
			l2.5-1.5l2.4-3.9l2.4,1.3l2.5-1.5l2.2-3.9l2.4,1.3l2.5-1.6l2.4-4.2l2.4,1.3L108,8l2.2-3.9l2.4,1.3l2.2-1.3l0.6-0.9L115.2,20
			L115.2,20z"/>
		<path id="Path_4458" class="st2" d="M80.4,51.3l27.7-16v1.2L80.4,52.6V51.3z"/>
		<path id="Path_4459" class="st2" d="M80.4,58.3L110.5,41v1.3L80.4,59.4V58.3z"/>
		<path id="Path_4460" class="st2" d="M80.4,65.4L104,51.7V53L80.4,66.7V65.4z"/>
		<path id="Path_4461" class="st2" d="M80.4,81.7l11.7-6.8v1.3L80.4,83V81.7z"/>
		<path id="Path_4462" class="st2" d="M104.3,68l5.8-3.3V66l-5.8,3.4V68z"/>
		<path id="Path_4463" class="st2" d="M80.4,30.7l9-5.2v1.3l-9,5.2V30.7z"/>
		<path id="Path_4464" class="st2" d="M100.3,19.3l9.9-5.8v1.3l-9.9,5.8C100.3,20.6,100.3,19.3,100.3,19.3z"/>
		<path id="Path_4465" class="st2" d="M80.4,37.1l16.8-9.8v1.3l-16.8,9.8C80.4,38.4,80.4,37.1,80.4,37.1z"/>
		<path id="Path_4466" class="st2" d="M107.1,21.3l3-1.6v1.5l-3,1.6V21.3z"/>
		<path id="Path_4467" class="st3" d="M69.9,22.1v70l5.8,3.3V25.5L69.9,22.1z"/>
	</g>
	<g id="Group_2428" transform="translate(-51 -110)">
		<g class="st4">
			<path class="st5" d="M296.8,603.4h4.8l4.5,12.3h0.1l4.4-12.3h4.8v17.3h-3v-13.9h0l-5.2,13.9h-2.1l-5.2-13.9h0v13.9h-2.9V603.4z"
				/>
			<path class="st5" d="M323.4,613.2l-6.5-9.8h3.8l4.3,7.3l4.4-7.3h3.6l-6.5,9.8v7.5h-3.1V613.2z"/>
		</g>
		<g class="st4">
			<path class="st5" d="M297.3,634.4h14.3v3.4h-10.4v5.5h9.9v3.2h-9.9v6.1h11v3.4h-14.8V634.4z"/>
			<path class="st5" d="M322,650.1h-7.3V647h7.3V650.1z"/>
			<path class="st5" d="M325.6,634.4h13.9v3.4h-10.1v5.9h9.5v3.2h-9.5v9.1h-3.8V634.4z"/>
			<path class="st5" d="M348.2,634.4h3.3l9.3,21.6h-4.4l-2-4.9H345l-2,4.9h-4.3L348.2,634.4z M353,647.8l-3.3-8.8l-3.4,8.8H353z"/>
			<path class="st5" d="M365.4,637.8h-6.6v-3.4h17.1v3.4h-6.6V656h-3.8V637.8z"/>
			<path class="st5" d="M395.6,648.1c0,1.3-0.2,2.5-0.7,3.5c-0.4,1-1.1,1.9-1.8,2.7s-1.7,1.3-2.7,1.7c-1.1,0.4-2.2,0.6-3.4,0.6
				s-2.4-0.2-3.4-0.6c-1.1-0.4-2-1-2.8-1.7c-0.8-0.7-1.4-1.6-1.8-2.7c-0.4-1-0.7-2.2-0.7-3.5v-13.6h3.8v13.5c0,0.6,0.1,1.3,0.2,1.9
				c0.2,0.6,0.4,1.2,0.8,1.7s0.9,0.9,1.5,1.2c0.6,0.3,1.4,0.5,2.3,0.5s1.7-0.2,2.3-0.5c0.6-0.3,1.1-0.7,1.5-1.2s0.6-1,0.8-1.7
				c0.2-0.6,0.2-1.2,0.2-1.9v-13.5h3.8V648.1z"/>
			<path class="st5" d="M400.1,634.4h7.5c1,0,2,0.1,3,0.3c1,0.2,1.8,0.6,2.5,1.1c0.7,0.5,1.3,1.1,1.8,1.9c0.4,0.8,0.7,1.8,0.7,2.9
				c0,1.6-0.4,2.8-1.3,3.8s-2.1,1.7-3.6,2l5.8,9.6h-4.6l-5-9.1H404v9.1h-3.8V634.4z M407.1,643.7c0.5,0,1.1,0,1.6-0.1
				c0.5-0.1,1-0.2,1.5-0.5c0.4-0.2,0.8-0.5,1.1-1c0.3-0.4,0.4-0.9,0.4-1.6c0-0.6-0.1-1.1-0.4-1.4c-0.3-0.4-0.6-0.7-1-0.9
				c-0.4-0.2-0.9-0.4-1.4-0.5c-0.5-0.1-1-0.1-1.5-0.1H404v6.1H407.1z"/>
			<path class="st5" d="M426.1,634.4h3.3l9.3,21.6h-4.4l-2-4.9h-9.4l-2,4.9h-4.3L426.1,634.4z M430.9,647.8l-3.3-8.8l-3.4,8.8H430.9
				z"/>
		</g>
	</g>
	<g id="Group_2432" transform="translate(122.88 541.447)">
		<path id="Path_4484" class="st6" d="M99.4,20.4c12.5,7.3,12.5,18.8,0,25.8s-32.5,7.3-44.9,0s-12.3-18.7,0.1-25.8
			S87.1,13.2,99.4,20.4z"/>
		<path id="Path_4485" class="st7" d="M97.9,21.3c11.6,6.7,11.6,17.5,0,24.2s-30.2,6.7-41.8,0s-11.6-17.5,0-24.2
			S86.3,14.5,97.9,21.3z"/>
		<path id="Path_4486" class="st8" d="M96.4,22.1c10.7,6.2,10.7,16.2,0,22.4s-28.2,6.2-38.7,0s-10.7-16.2,0-22.4S85.7,16,96.4,22.1z
			"/>
		<path id="Path_4487" class="st9" d="M94.9,22.9c9.9,5.8,9.9,15,0,20.8S69,49.5,59,43.7s-9.9-15,0-20.8S85,17.3,94.9,22.9z"/>
		<path id="Path_4488" class="st10" d="M93.5,23.8c9,5.2,9,13.8,0,19s-23.7,5.2-32.8,0s-9-13.8,0-19S84.3,18.6,93.5,23.8z"/>
		<path id="Path_4489" class="st11" d="M91.8,24.7c8.2,4.7,8.2,12.5,0,17.2s-21.6,4.7-29.8,0s-8.2-12.3,0.1-17.2
			C70.3,20,83.7,20,91.8,24.7z"/>
		<path id="Path_4490" class="st12" d="M90.3,25.6c7.4,4.3,7.4,11.3,0,15.4c-7.4,4.2-19.4,4.3-26.8,0s-7.4-11.3,0-15.4
			S82.9,21.3,90.3,25.6z"/>
		<path id="Path_4491" class="st13" d="M89,26.5c6.5,3.7,6.5,9.9,0,13.8s-17.2,3.7-23.7,0s-6.5-9.9,0-13.8S82.3,22.8,89,26.5z"/>
		<path id="Path_4492" class="st14" d="M87.5,27.4c5.8,3.3,5.8,8.6,0,12s-15,3.3-20.9,0s-5.8-8.6,0-12
			C72.4,24.1,81.6,24.1,87.5,27.4z"/>
		<path id="Path_4493" class="st15" d="M85.9,28.3c4.9,2.8,4.9,7.4,0,10.2c-5.6,2.8-12.2,2.8-17.8,0c-4.9-2.8-4.9-7.4,0-10.2
			C73.7,25.5,80.3,25.5,85.9,28.3z"/>
		<path id="Path_4494" class="st16" d="M84.4,29c4.2,2.4,4.2,6.2,0,8.6c-4.6,2.4-10.1,2.4-14.7,0c-4.2-2.4-4.2-6.2,0-8.6
			C74.3,26.8,79.8,26.8,84.4,29z"/>
		<path id="Path_4495" class="st17" d="M82.8,29.9c3.3,1.8,3.3,4.9,0,6.8c-3.7,1.8-8,1.8-11.9,0c-3.3-1.8-3.3-4.9,0-6.8
			C74.8,28.1,79.2,28.1,82.8,29.9z"/>
		<path id="Path_4496" class="st18" d="M81.4,30.8c2.4,1.3,2.4,3.7,0,5.2c-2.8,1.3-5.9,1.3-8.7,0c-2.4-1.3-2.4-3.7,0-5.2
			C75.4,29.5,78.6,29.5,81.4,30.8z"/>
		<path id="Path_4497" class="st19" d="M80,31.7c1,0.3,1.5,1.3,1,2.2c-0.1,0.4-0.6,0.9-1,1c-1.8,0.9-4,0.9-5.8,0
			c-1-0.3-1.5-1.3-1-2.2c0.1-0.4,0.6-1,1-1C76,30.8,78,30.8,80,31.7z"/>
	</g>
</g>
</svg>
