<?xml version="1.0" encoding="utf-8"?>
<!-- Generator: Adobe Illustrator 22.1.0, SVG Export Plug-In . SVG Version: 6.00 Build 0)  -->
<svg version="1.1" id="Layer_1" xmlns="http://www.w3.org/2000/svg" xmlns:xlink="http://www.w3.org/1999/xlink" x="0px" y="0px"
	 viewBox="0 0 240.3 96" style="enable-background:new 0 0 240.3 96;" xml:space="preserve">
<style type="text/css">
	.st0{enable-background:new    ;}
	.st1{fill:#1F1E1E;}
	.st2{opacity:3.000000e-03;fill:#040507;enable-background:new    ;}
	.st3{opacity:7.000000e-03;fill:#080A0D;enable-background:new    ;}
	.st4{opacity:1.000000e-02;fill:#0B0E14;enable-background:new    ;}
	.st5{opacity:1.300000e-02;fill:#0F131B;enable-background:new    ;}
	.st6{opacity:1.700000e-02;fill:#131822;enable-background:new    ;}
	.st7{opacity:2.000000e-02;fill:#171D29;enable-background:new    ;}
	.st8{opacity:2.300000e-02;fill:#1B2230;enable-background:new    ;}
	.st9{opacity:2.700000e-02;fill:#1F2737;enable-background:new    ;}
	.st10{opacity:3.000000e-02;fill:#232C3F;enable-background:new    ;}
	.st11{opacity:3.300000e-02;fill:#273246;enable-background:new    ;}
	.st12{opacity:3.700000e-02;fill:#2B374D;enable-background:new    ;}
	.st13{opacity:4.000000e-02;fill:#2F3C54;enable-background:new    ;}
	.st14{opacity:4.300000e-02;fill:#34415C;enable-background:new    ;}
	.st15{opacity:4.700000e-02;fill:#384763;enable-background:new    ;}
	.st16{fill:#2C3E50;}
	.st17{fill:#415A73;}
	.st18{fill:#CCCCCC;}
	.st19{fill:#E6EAEB;}
	.st20{fill:#C43E3F;}
	.st21{fill:#E74C3C;}
</style>
<g id="Group_2694" transform="translate(-589 -710.477)">
	<g id="Group_2508" transform="translate(-19 208.013)">
		<g id="Group_2425" transform="translate(105 -1056.828)">
			<g class="st0">
				<path class="st1" d="M584.9,1570.3h3.6l3.4,9.2h0.1l3.3-9.2h3.6v12.9h-2.3v-10.4h0l-3.9,10.4H591l-3.9-10.4h0v10.4h-2.2V1570.3z
					"/>
				<path class="st1" d="M604.8,1577.6l-4.8-7.3h2.8l3.2,5.4l3.3-5.4h2.7l-4.8,7.3v5.6h-2.3V1577.6z"/>
			</g>
			<g class="st0">
				<path class="st1" d="M585.3,1593.5h2.9v13.6h6.9v2.6h-9.7V1593.5z"/>
				<path class="st1" d="M595.5,1601.5c0-1.3,0.2-2.5,0.6-3.5c0.4-1,1-1.9,1.8-2.7s1.7-1.3,2.7-1.7c1.1-0.4,2.2-0.6,3.4-0.6
					c1.3,0,2.4,0.2,3.5,0.6c1.1,0.4,2,1,2.8,1.7s1.4,1.6,1.8,2.7c0.4,1,0.6,2.2,0.6,3.5c0,1.3-0.2,2.4-0.6,3.4c-0.4,1-1,1.9-1.8,2.7
					c-0.8,0.8-1.7,1.3-2.8,1.8c-1.1,0.4-2.2,0.6-3.5,0.6c-1.2,0-2.4-0.2-3.4-0.6c-1.1-0.4-2-1-2.7-1.8c-0.8-0.8-1.4-1.6-1.8-2.7
					C595.7,1604,595.5,1602.8,595.5,1601.5z M598.6,1601.5c0,0.9,0.1,1.7,0.4,2.4c0.3,0.7,0.6,1.3,1.1,1.9c0.5,0.5,1.1,0.9,1.8,1.2
					c0.7,0.3,1.4,0.4,2.2,0.4s1.6-0.1,2.3-0.4s1.3-0.7,1.8-1.2c0.5-0.5,0.9-1.2,1.1-1.9c0.3-0.7,0.4-1.5,0.4-2.4
					c0-0.8-0.1-1.6-0.4-2.3c-0.3-0.7-0.6-1.3-1.1-1.9c-0.5-0.5-1.1-0.9-1.8-1.3c-0.7-0.3-1.4-0.5-2.3-0.5c-0.8,0-1.6,0.2-2.3,0.5
					c-0.7,0.3-1.3,0.7-1.7,1.3c-0.5,0.5-0.9,1.2-1.1,1.9C598.7,1599.9,598.6,1600.7,598.6,1601.5z"/>
				<path class="st1" d="M615.6,1593.5h5.6c0.8,0,1.5,0.1,2.2,0.2c0.7,0.2,1.3,0.4,1.9,0.8c0.6,0.4,1,0.8,1.3,1.4s0.5,1.3,0.5,2.2
					c0,1.2-0.3,2.1-1,2.9s-1.6,1.2-2.7,1.5l4.3,7.2h-3.5l-3.7-6.8h-2.1v6.8h-2.9V1593.5z M620.8,1600.5c0.4,0,0.8,0,1.2-0.1
					c0.4-0.1,0.8-0.2,1.1-0.3c0.3-0.2,0.6-0.4,0.8-0.7c0.2-0.3,0.3-0.7,0.3-1.2c0-0.4-0.1-0.8-0.3-1.1c-0.2-0.3-0.4-0.5-0.8-0.7
					c-0.3-0.2-0.6-0.3-1-0.3c-0.4-0.1-0.8-0.1-1.1-0.1h-2.6v4.5H620.8z"/>
				<path class="st1" d="M629.9,1593.5h10.7v2.5h-7.8v4.1h7.4v2.4h-7.4v4.6h8.2v2.6h-11.1V1593.5z"/>
				<path class="st1" d="M643.8,1593.5h4.5l4.2,11.5h0.1l4.1-11.5h4.5v16.1h-2.8v-13h0l-4.9,13h-2l-4.8-13h0v13h-2.7V1593.5z"/>
			</g>
			<g class="st0">
				<path class="st1" d="M585.3,1615.4h2.9v16.1h-2.9V1615.4z"/>
				<path class="st1" d="M591.7,1615.4h5.3c0.9,0,1.8,0.1,2.5,0.2c0.7,0.2,1.4,0.4,1.9,0.8c0.5,0.4,0.9,0.9,1.2,1.5
					c0.3,0.6,0.4,1.3,0.4,2.1c0,0.9-0.2,1.6-0.5,2.3c-0.3,0.6-0.8,1.1-1.4,1.5c-0.6,0.4-1.2,0.6-2,0.8c-0.8,0.2-1.6,0.3-2.4,0.3
					h-2.2v6.7h-2.9V1615.4z M596.6,1622.4c0.5,0,0.9,0,1.3-0.1s0.8-0.2,1.1-0.4s0.6-0.4,0.8-0.7c0.2-0.3,0.3-0.7,0.3-1.2
					c0-0.5-0.1-0.9-0.3-1.2c-0.2-0.3-0.5-0.5-0.8-0.7c-0.3-0.2-0.7-0.3-1.1-0.3c-0.4-0.1-0.8-0.1-1.3-0.1h-2.1v4.6H596.6z"/>
				<path class="st1" d="M613.8,1618.8c-0.3-0.4-0.7-0.7-1.3-1c-0.6-0.3-1.1-0.4-1.7-0.4c-0.3,0-0.7,0-1,0.1
					c-0.3,0.1-0.6,0.2-0.9,0.4c-0.3,0.2-0.5,0.4-0.7,0.7c-0.2,0.3-0.3,0.6-0.3,1c0,0.4,0.1,0.7,0.2,0.9c0.2,0.3,0.4,0.5,0.6,0.7
					c0.3,0.2,0.6,0.3,1,0.5c0.4,0.1,0.8,0.3,1.3,0.4c0.5,0.2,1.1,0.4,1.6,0.6s1.1,0.5,1.5,0.8c0.5,0.3,0.8,0.8,1.1,1.3
					c0.3,0.5,0.4,1.2,0.4,2c0,0.9-0.2,1.6-0.5,2.3c-0.3,0.6-0.7,1.2-1.3,1.6s-1.2,0.7-1.9,1c-0.7,0.2-1.5,0.3-2.3,0.3
					c-1,0-2.1-0.2-3.1-0.6c-1-0.4-1.8-1-2.5-1.7l2-1.9c0.4,0.5,0.9,1,1.6,1.3c0.7,0.3,1.3,0.5,1.9,0.5c0.3,0,0.7,0,1-0.1
					c0.3-0.1,0.7-0.2,0.9-0.4s0.5-0.4,0.7-0.7s0.3-0.7,0.3-1.1c0-0.4-0.1-0.8-0.3-1.1c-0.2-0.3-0.5-0.5-0.8-0.7s-0.7-0.4-1.2-0.5
					s-0.9-0.3-1.4-0.5c-0.5-0.2-1-0.3-1.5-0.5c-0.5-0.2-0.9-0.5-1.3-0.8s-0.7-0.8-0.9-1.3c-0.2-0.5-0.4-1.1-0.4-1.9
					c0-0.8,0.2-1.5,0.5-2.1c0.3-0.6,0.8-1.1,1.3-1.5c0.6-0.4,1.2-0.7,1.9-0.9c0.7-0.2,1.4-0.3,2.2-0.3c0.8,0,1.7,0.1,2.5,0.4
					c0.8,0.3,1.6,0.7,2.2,1.3L613.8,1618.8z"/>
				<path class="st1" d="M631.5,1625.6c0,1-0.2,1.8-0.5,2.6c-0.3,0.8-0.8,1.4-1.4,2c-0.6,0.5-1.3,1-2,1.3c-0.8,0.3-1.6,0.4-2.6,0.4
					c-0.9,0-1.8-0.1-2.6-0.4c-0.8-0.3-1.5-0.7-2.1-1.3c-0.6-0.5-1-1.2-1.4-2c-0.3-0.8-0.5-1.7-0.5-2.6v-10.2h2.9v10.1
					c0,0.5,0.1,0.9,0.2,1.4c0.1,0.5,0.3,0.9,0.6,1.2c0.3,0.4,0.7,0.7,1.1,0.9s1,0.3,1.7,0.3c0.7,0,1.3-0.1,1.7-0.3s0.8-0.5,1.1-0.9
					c0.3-0.4,0.5-0.8,0.6-1.2c0.1-0.5,0.2-0.9,0.2-1.4v-10.1h2.9V1625.6z"/>
				<path class="st1" d="M634.9,1615.4h4.5l4.2,11.5h0.1l4.1-11.5h4.5v16.1h-2.8v-13h0l-4.9,13h-2l-4.8-13h0v13h-2.7V1615.4z"/>
				<path class="st1" d="M661.6,1615.4h5.7c1,0,2.1,0.1,3.2,0.4c1.1,0.3,2,0.7,2.9,1.4c0.8,0.6,1.5,1.5,2.1,2.5
					c0.5,1,0.8,2.3,0.8,3.8c0,1.4-0.3,2.6-0.8,3.6c-0.5,1-1.2,1.9-2.1,2.5c-0.9,0.7-1.8,1.1-2.9,1.4c-1.1,0.3-2.1,0.5-3.2,0.5h-5.7
					V1615.4z M666.8,1629c0.7,0,1.5-0.1,2.2-0.3c0.7-0.2,1.4-0.5,2-0.9c0.6-0.4,1.1-1,1.5-1.7c0.4-0.7,0.6-1.6,0.6-2.7
					c0-1.2-0.2-2.1-0.6-2.8s-0.9-1.3-1.5-1.7s-1.3-0.7-2-0.8c-0.7-0.2-1.5-0.2-2.2-0.2h-2.4v11.2H666.8z"/>
				<path class="st1" d="M678.2,1623.4c0-1.3,0.2-2.5,0.6-3.5c0.4-1,1-1.9,1.8-2.7s1.7-1.3,2.7-1.7c1.1-0.4,2.2-0.6,3.5-0.6
					c1.3,0,2.4,0.2,3.5,0.6c1.1,0.4,2,1,2.8,1.7s1.4,1.6,1.8,2.7c0.4,1,0.6,2.2,0.6,3.5c0,1.3-0.2,2.4-0.6,3.4c-0.4,1-1,1.9-1.8,2.7
					c-0.8,0.8-1.7,1.3-2.8,1.8c-1.1,0.4-2.2,0.6-3.5,0.6c-1.2,0-2.4-0.2-3.5-0.6c-1.1-0.4-2-1-2.7-1.8c-0.8-0.8-1.4-1.6-1.8-2.7
					C678.4,1625.8,678.2,1624.7,678.2,1623.4z M681.3,1623.4c0,0.9,0.1,1.7,0.4,2.4c0.3,0.7,0.6,1.3,1.1,1.9
					c0.5,0.5,1.1,0.9,1.8,1.2s1.4,0.4,2.2,0.4c0.8,0,1.6-0.1,2.3-0.4c0.7-0.3,1.3-0.7,1.8-1.2c0.5-0.5,0.9-1.2,1.1-1.9
					c0.3-0.7,0.4-1.5,0.4-2.4c0-0.8-0.1-1.6-0.4-2.3c-0.3-0.7-0.6-1.3-1.1-1.9c-0.5-0.5-1.1-0.9-1.8-1.3c-0.7-0.3-1.4-0.5-2.3-0.5
					s-1.6,0.2-2.3,0.5c-0.7,0.3-1.3,0.7-1.7,1.3c-0.5,0.5-0.9,1.2-1.1,1.9C681.5,1621.8,681.3,1622.6,681.3,1623.4z"/>
				<path class="st1" d="M698.3,1615.4h2.9v13.6h6.9v2.6h-9.7V1615.4z"/>
				<path class="st1" d="M708.5,1623.4c0-1.3,0.2-2.5,0.6-3.5c0.4-1,1-1.9,1.8-2.7s1.7-1.3,2.7-1.7c1.1-0.4,2.2-0.6,3.5-0.6
					c1.3,0,2.4,0.2,3.5,0.6c1.1,0.4,2,1,2.8,1.7s1.4,1.6,1.8,2.7c0.4,1,0.6,2.2,0.6,3.5c0,1.3-0.2,2.4-0.6,3.4c-0.4,1-1,1.9-1.8,2.7
					c-0.8,0.8-1.7,1.3-2.8,1.8c-1.1,0.4-2.2,0.6-3.5,0.6c-1.2,0-2.4-0.2-3.5-0.6c-1.1-0.4-2-1-2.7-1.8c-0.8-0.8-1.4-1.6-1.8-2.7
					C708.7,1625.8,708.5,1624.7,708.5,1623.4z M711.6,1623.4c0,0.9,0.1,1.7,0.4,2.4c0.3,0.7,0.6,1.3,1.1,1.9
					c0.5,0.5,1.1,0.9,1.8,1.2s1.4,0.4,2.2,0.4c0.8,0,1.6-0.1,2.3-0.4c0.7-0.3,1.3-0.7,1.8-1.2c0.5-0.5,0.9-1.2,1.1-1.9
					c0.3-0.7,0.4-1.5,0.4-2.4c0-0.8-0.1-1.6-0.4-2.3c-0.3-0.7-0.6-1.3-1.1-1.9c-0.5-0.5-1.1-0.9-1.8-1.3c-0.7-0.3-1.4-0.5-2.3-0.5
					s-1.6,0.2-2.3,0.5c-0.7,0.3-1.3,0.7-1.7,1.3c-0.5,0.5-0.9,1.2-1.1,1.9C711.7,1621.8,711.6,1622.6,711.6,1623.4z"/>
				<path class="st1" d="M728.6,1615.4h5.6c0.8,0,1.5,0.1,2.2,0.2c0.7,0.2,1.3,0.4,1.9,0.8c0.6,0.4,1,0.8,1.3,1.4s0.5,1.3,0.5,2.2
					c0,1.2-0.3,2.1-1,2.9s-1.6,1.2-2.7,1.5l4.3,7.2h-3.5l-3.7-6.8h-2.1v6.8h-2.9V1615.4z M733.8,1622.3c0.4,0,0.8,0,1.2-0.1
					c0.4-0.1,0.8-0.2,1.1-0.3c0.3-0.2,0.6-0.4,0.8-0.7c0.2-0.3,0.3-0.7,0.3-1.2c0-0.4-0.1-0.8-0.3-1.1c-0.2-0.3-0.4-0.5-0.8-0.7
					c-0.3-0.2-0.6-0.3-1-0.3c-0.4-0.1-0.8-0.1-1.1-0.1h-2.6v4.5H733.8z"/>
			</g>
		</g>
		<g id="Group_2511" transform="translate(608.002 502.384)">
			<g id="Group_2509" transform="translate(-0.002 58.388)">
				<path id="Path_5091" class="st2" d="M65,0.7C79.3,9,79.3,22.5,65,30.8s-37.6,8.2-52,0S-1.3,9.2,13,0.7S50.5-7.5,65,0.7z"/>
				<path id="Path_5092" class="st3" d="M63.2,1.8c13.5,7.7,13.5,20.3,0,27.9s-35.1,7.7-48.5,0S1.3,9.4,14.7,1.8S49.8-6,63.2,1.8z"
					/>
				<ellipse id="Ellipse_80" class="st4" cx="38.9" cy="15.8" rx="31.8" ry="18.4"/>
				<ellipse id="Ellipse_81" class="st5" cx="38.9" cy="15.8" rx="29.4" ry="16.9"/>
				<path id="Path_5093" class="st6" d="M57.9,4.7c10.6,6.1,10.6,16,0,22s-27.6,6.1-38,0s-10.6-16,0-22S47.5-1.3,57.9,4.7z"/>
				<path id="Path_5094" class="st7" d="M56.3,5.8c9.5,5.5,9.5,14.4,0,20s-25,5.5-34.5,0s-9.5-14.4,0-20S46.6,0.3,56.3,5.8z"/>
				<path id="Path_5095" class="st8" d="M54.5,6.8c8.6,4.9,8.6,13,0,18s-22.5,4.9-31,0s-8.6-12.9,0-18S45.9,1.9,54.5,6.8z"/>
				<path id="Path_5096" class="st9" d="M52.7,7.9c7.6,4.3,7.6,11.5,0,16s-20,4.3-27.6,0s-7.6-11.5,0-16S45.1,3.3,52.7,7.9z"/>
				<path id="Path_5097" class="st10" d="M51,8.8c6.7,3.9,6.7,10.1,0,14s-17.4,3.9-24.1,0s-6.7-10.1,0-14S44.3,5,51,8.8z"/>
				<path id="Path_5098" class="st11" d="M49.2,9.9c5.6,3.3,5.6,8.7,0,12s-14.9,3.3-20.5,0s-5.6-8.7,0-12S43.6,6.6,49.2,9.9z"/>
				<path id="Path_5099" class="st12" d="M47.5,10.8c4.8,2.7,4.8,7.2,0,9.9s-12.4,2.7-17.1,0s-4.8-7.2,0-9.9S42.8,8,47.5,10.8z"/>
				<path id="Path_5100" class="st13" d="M45.8,11.8c3.8,2.2,3.8,5.6,0,7.9c-4.2,2.2-9.4,2.2-13.6,0c-3.8-2.2-3.8-5.6,0-7.9
					C36.4,9.7,41.5,9.7,45.8,11.8z"/>
				<path id="Path_5101" class="st14" d="M44.1,12.8c2.8,1.6,2.8,4.2,0,5.9c-3.2,1.6-6.9,1.6-10.1,0c-2.8-1.6-2.8-4.2,0-5.9
					C37,11.2,40.8,11.2,44.1,12.8z"/>
				<path id="Path_5102" class="st15" d="M42.3,13.8c1.9,1.1,1.9,2.8,0,3.9c-2.1,1.1-4.6,1.1-6.7,0c-1.9-1.1-1.9-2.8,0-3.9
					C37.7,12.7,40.2,12.7,42.3,13.8z"/>
			</g>
			<g id="Group_2510" transform="translate(12.184 0.08)">
				<path id="Path_5103" class="st16" d="M7.5,66.2l-6-3.4H1.4l-0.1-0.1l-0.1-0.1v-0.1l-0.1-0.2V62v-0.2v-0.1V13.5v-0.1v-0.1
					l0.1-0.1L1.3,13l0.1-0.1l0.1-0.1l0.1-0.1l0.1-0.1l0.1-0.1L2,12.3l0.1-0.1l0.1-0.1L2.4,12l0.1-0.1l0.1-0.1l0.1-0.1l0.1-0.1
					L3,11.4h0.4l0.1-0.1l0.1-0.1L3.7,11l0.1-0.1l0.1-0.1L4,10.7h0.1h0.1h0.1l5.8,4l0,0H10H9.9l-0.1,0.1l-0.1,0.1L9.5,15l-0.1,0.1
					l-0.1,0.1L9,15.1v0.1l0,0l-0.1,0.1l-0.1,0.1l-0.1,0.1l-0.1,0.1H8.1L8,15.8H7.9l-0.1,0.1L7.7,16l-0.1,0.1l-0.1,0.1l-0.1,0.1
					l-0.1,0.1L7,16.7v0.1v0.1V17v39.6L44.5,35l0.1-0.1h0.1h0.1H45l6,3.4h-0.1h-0.1h-0.1l-0.1,0.1l-40.3,23L7,59.5v5.6v0.2v0.2v0.2
					L7.1,66l0.1,0.1l0.1,0.1H7.5L7.5,66.2z"/>
				<path id="Path_5104" class="st17" d="M8.7,66.2c-0.5,0.4-1.1,0.4-1.5-0.1C7,65.9,6.8,65.6,7,65.3V17c0-0.4,0.2-0.7,0.6-0.9
					c0.7-0.4,1.5-0.8,2.2-1.3c0.4-0.2,0.6,0,0.6,0.4v46.4l40.2-23.4c0.4-0.2,0.6,0,0.6,0.4V41c0,0.4-0.2,0.7-0.6,0.9L8.7,66.2z"/>
				<path id="Path_5105" class="st18" d="M10.2,23.1V22L36.9,6.7l0.7,0.7L10.2,23.1z"/>
				<path id="Path_5106" class="st19" d="M37.7,42.6L10.2,58.3V23.1L37.6,7.4v35.2C37.6,42.6,37.7,42.6,37.7,42.6z"/>
				<path id="Path_5107" class="st20" d="M13.8,51.9l-2.2-1.3l-0.1-0.1h-0.1l0,0l-0.1-0.1l-0.1-0.1v-0.1V50v-0.2v-0.2v-0.2v-0.2V49
					l0.1-0.2l0.1-0.2l0.1-0.2l8.2-16.9l0.1-0.2l0.1-0.2l0.1-0.2l0.1-0.2l0.1-0.1l0.1-0.1l0.1-0.1l0.1-0.1l0.1-0.1l0.1-0.1l-0.1,0.5
					l0.1-0.1l0.1-0.1l0.1-0.1l0.1-0.1l0.1-0.1l8.7-4.9l3.8-10.1l2.2,1.3l-3.9,10.1l-8.7,4.9l-0.1,0.1L23,30.9L22.9,31l0.1,0.1
					l-0.1,0.1l-0.1,0.1l-0.1,0.1l-0.2,0.2l-0.1,0.1l-0.1,0.1L22.1,32L22,32.2v0.1l-0.1,0.2v0.1l-0.1,0.2l-8.2,16.8v0.2L13.5,50
					l-0.1,0.2v0.2v0.2v0.2l0,0V51v0.2v0.1l0.1,0.1l0.1,0.1l0.1,0.1L13.8,51.9L13.8,51.9L13.8,51.9z M40.3,20.2l-2.2-1.3l-0.2-0.1
					l-0.2-0.2l-0.1-0.4v-0.4l-0.1-2.9l2.2,1.3l0.1,2.9v0.4l0.1,0.4l0.1,0.2L40.3,20.2L40.3,20.2z M31.9,19.1L31.9,19.1l-0.2-0.2
					l-0.1-0.1L31,17.7v-0.1v-0.1v-0.2V17l0,0v-0.2v-0.2v-0.2l0.1-0.2l0.1-0.2l0.1-0.2l0.1-0.2l0.1-0.2l0.1-0.2l0.1-0.2l0.1-0.2
					l0.4-0.4l0.4-0.4l0.4-0.4l0.4-0.4l0.4-0.4l0.4-0.4l0.4-0.4l0.4-0.4l0.4-0.4l0.4-0.4l0.4-0.4l0.4-0.4L37,9.6l0.1-0.7l0.4-0.4
					l0.4-0.4l0.4-0.4l-0.3,0l0.4-0.6l0.4-0.4L39,6.4L39.4,6l0.4-0.4l0.4-0.4L40.4,5l0.4-0.4L41,4l0.4-0.5l0.4-0.4l0.4-0.4l0.4-0.4
					L42.8,2l-2.2-1.3L40.2,1l-0.4,0.5l-0.4,0.4L39,2.3l-0.4,0.4l-0.4,0.4l-0.4,0.4l-0.4,0.4L38,4l-0.5,0.4l-0.4,0.4l-0.4,0.4
					l-0.4,0.4L35.9,6L36,6.3l-0.4,0.4L35.3,7l-0.5,0.5l-0.4,0.4L34,8.3l-0.5,0.5L33.3,9l-0.4,0.4L32.4,10L32,10.8l-0.4,0.4l-0.5,0.4
					L30.9,12l-0.4,0.4l-0.4,0.4L29.9,13l-0.4,0.4l-0.1,0.2l-0.1,0.2L29.2,14L29,14.3l-0.1,0.4l-0.1,0.2l-0.1,0.2l-0.1,0.2v0.2v0.2
					l0,0v0.2v0.2v0.2v0.1l0.1,0.1l0.6,1.1l0.1,0.1l0.1,0.1l0.1,0.1L31.9,19.1z"/>
				<path id="Path_5108" class="st21" d="M13.7,49.8l8.2-16.9c0.2-0.4,0.5-0.8,0.8-1.2c0.4-0.4,0.6-0.6,0.9-0.8l8.7-4.9l3.8-10.1
					l-2.5,2.7c-0.8,0.9-1.6,0.9-2,0.4L31,17.8c-0.4-0.9,0-2,0.7-2.8L43.9,0.9c0.2,5.2,0.4,10.3,0.5,15.5c0,1.1-0.6,2.1-1.5,2.7
					L41.5,20c-0.8,0.5-1.6,0.2-1.6-0.8l-0.1-2.9l-4.5,11.6c-0.2,0.5-0.5,0.9-0.8,1.3c-0.4,0.4-0.7,0.7-1.1,0.9l-8.8,5l-7.4,15.6
					c-0.5,1.1-1.5,1.8-2.1,1.6L14,52.1C13.3,51.9,13.1,50.7,13.7,49.8z"/>
			</g>
		</g>
	</g>
</g>
</svg>
