<?xml version="1.0" encoding="utf-8"?>
<!-- Generator: Adobe Illustrator 22.1.0, SVG Export Plug-In . SVG Version: 6.00 Build 0)  -->
<svg version="1.1" id="Layer_1" xmlns="http://www.w3.org/2000/svg" xmlns:xlink="http://www.w3.org/1999/xlink" x="0px" y="0px"
	 viewBox="0 0 16.2 13.8" style="enable-background:new 0 0 16.2 13.8;" xml:space="preserve">
<style type="text/css">
	.st0{fill:#1F1E1E;}
</style>
<path id="Path_229" class="st0" d="M16.2,6.9c0-0.3-0.1-0.6-0.3-0.8l-5.7-5.7C9.9,0.1,9.6,0,9.3,0C9,0,8.7,0.1,8.5,0.3L7.8,1
	C7.6,1.2,7.5,1.5,7.5,1.8c0,0.3,0.1,0.6,0.3,0.8l2.6,2.6H1c-0.6,0-1,0.5-1,1.1c0,0,0,0,0,0.1v1.1C0,8,0.4,8.5,1,8.6c0,0,0,0,0.1,0
	h9.4l-2.6,2.6c-0.2,0.2-0.3,0.5-0.3,0.8c0,0.3,0.1,0.6,0.3,0.8l0.7,0.7c0.2,0.2,0.5,0.3,0.8,0.3c0.3,0,0.6-0.1,0.8-0.3l5.7-5.7
	C16,7.5,16.2,7.2,16.2,6.9z"/>
</svg>
