<svg xmlns="http://www.w3.org/2000/svg" viewBox="0 0 16.156 13.751">
  <defs>
    <style>
      .cls-1 {
        fill: #fff;
      }
    </style>
  </defs>
  <path id="Path_229" data-name="Path 229" class="cls-1" d="M12.156-8.247a1.1,1.1,0,0,0-.327-.794L6.083-14.787a1.143,1.143,0,0,0-.8-.335,1.123,1.123,0,0,0-.794.335l-.662.662a1.108,1.108,0,0,0-.335.794,1.108,1.108,0,0,0,.335.794L6.41-9.942H-2.967A1.057,1.057,0,0,0-4-8.812v1.13a1.057,1.057,0,0,0,1.033,1.13H6.41L3.824-3.966a1.143,1.143,0,0,0-.335.8,1.143,1.143,0,0,0,.335.8l.662.662a1.153,1.153,0,0,0,.794.327,1.174,1.174,0,0,0,.8-.327l5.746-5.746A1.135,1.135,0,0,0,12.156-8.247Z" transform="translate(4 15.123)"/>
</svg>
