<svg xmlns="http://www.w3.org/2000/svg" viewBox="0 0 6.857 10.286">
  <defs>
    <style>
      .cls-1 {
        fill: #fff;
      }
    </style>
  </defs>
  <path id="Path_584" data-name="Path 584" class="cls-1" d="M5.143-6A1.718,1.718,0,0,1,3.429-4.286,1.718,1.718,0,0,1,1.714-6,1.718,1.718,0,0,1,3.429-7.714,1.718,1.718,0,0,1,5.143-6ZM6.857-6A3.427,3.427,0,0,0,3.429-9.429,3.427,3.427,0,0,0,0-6,2.808,2.808,0,0,0,.221-4.8L2.665.382a.837.837,0,0,0,.763.475A.855.855,0,0,0,4.2.382L6.636-4.8A2.808,2.808,0,0,0,6.857-6Z" transform="translate(0 9.428)"/>
</svg>
