<?xml version="1.0" encoding="utf-8"?>
<!-- Generator: Adobe Illustrator 22.1.0, SVG Export Plug-In . SVG Version: 6.00 Build 0)  -->
<svg version="1.1" id="Layer_1" xmlns="http://www.w3.org/2000/svg" xmlns:xlink="http://www.w3.org/1999/xlink" x="0px" y="0px"
	 viewBox="0 0 196.3 96" style="enable-background:new 0 0 196.3 96;" xml:space="preserve">
<style type="text/css">
	.st0{fill:#EBEBEB;}
	.st1{fill:#F5F9FA;}
	.st2{fill:#BDBDBD;}
	.st3{fill:#2192FC;}
	.st4{fill:#3D566E;}
	.st5{fill:#9C9C9C;}
	.st6{enable-background:new    ;}
	.st7{fill:#1F1E1E;}
	.st8{opacity:3.000000e-03;fill:#040507;enable-background:new    ;}
	.st9{opacity:7.000000e-03;fill:#080A0D;enable-background:new    ;}
	.st10{opacity:1.000000e-02;fill:#0B0E14;enable-background:new    ;}
	.st11{opacity:1.300000e-02;fill:#0F131B;enable-background:new    ;}
	.st12{opacity:1.700000e-02;fill:#131822;enable-background:new    ;}
	.st13{opacity:2.000000e-02;fill:#171D29;enable-background:new    ;}
	.st14{opacity:2.300000e-02;fill:#1B2230;enable-background:new    ;}
	.st15{opacity:2.700000e-02;fill:#1F2737;enable-background:new    ;}
	.st16{opacity:3.000000e-02;fill:#232C3F;enable-background:new    ;}
	.st17{opacity:3.300000e-02;fill:#273246;enable-background:new    ;}
	.st18{opacity:3.700000e-02;fill:#2B374D;enable-background:new    ;}
	.st19{opacity:4.000000e-02;fill:#2F3C54;enable-background:new    ;}
	.st20{opacity:4.300000e-02;fill:#34415C;enable-background:new    ;}
	.st21{opacity:4.700000e-02;fill:#384763;enable-background:new    ;}
</style>
<g id="Group_2689" transform="translate(-718 -476)">
	<g id="Group_2397" transform="translate(705.345 475.972)">
		<path id="Path_4517" class="st0" d="M35,65.1c0.6,0.7,1.2,1.3,1.9,1.8l27.9-16.1c1.2-0.8,2-2.1,2.1-3.6V16.9L59.2,11l-0.7-0.1
			l-8.2-0.2l-14.1,8.1c-0.4,0.2-0.7,0.6-1.2,0.9L35,65.1L35,65.1z"/>
		<path id="Path_4518" class="st1" d="M62,22.4l3.9-2.2c1.9-1.1,3-2,1.1-3.5l-8.1-6.3l3.3,5L62,22.4L62,22.4z"/>
		<path id="Path_4519" class="st2" d="M36.9,66.9l-2.5-1.4l-0.2-0.2L34,64.9l-0.2-0.4V64V22.1l0.1-0.2l0.1-0.2l0.1-0.2l0.1-0.2
			l0.2-0.2l0.2-0.2l0.2-0.2l0.2-0.2l0.2-0.2l0.2-0.2l0.2-0.2l0.2-0.2l0.2-0.2l0.2-0.2l15.3-8.8c2.2-1.2,3.5-1.9,6.2-0.7
			c2.4,1.2,4.1,3.3,4.6,5.8v7.2L59.4,21v-5.3c0.1-2.5-2.7-5.5-6.4-3.5l-14.5,8.2l-0.2,0.2L38,20.7l-0.2,0.2L37.6,21l-0.2,0.2
			l-0.2,0.2L37,21.6l0,0.4l-0.2,0.2l-0.2,0.2v0.2l-0.1,0.2L36.4,23l-0.1,0.2v41.9l0.1,0.5l0.2,0.4l0.2,0.3L36.9,66.9L36.9,66.9z"/>
		<path id="Path_4520" class="st3" d="M59.5,37l0.8,0.5l1-1l0.4,1l1.2-0.6l-0.2,1.2h1l-0.5,1.4l0.7,0.6L63,41.3l0.3,1.1l-1.1,1.1
			L62,44.8l-1.2,0.5l-0.7,1.4l-1-0.2l-1,1.2L57.6,47l-0.9,1v-1.2L55.5,47l0.3-1.4L55,45.3l0.7-1.4L55.2,43l1-1.2l-0.1-1.2l1.2-0.7
			l0.4-1.4l1.1-0.2L59.5,37L59.5,37z M59.5,38.5c-1.9,1.2-3,3.3-3.2,5.6c0,2.1,1.4,2.9,3.2,1.8c1.9-1.2,3-3.3,3.2-5.6
			C62.6,38.2,61.2,37.5,59.5,38.5z M59.5,39c-1.6,1.1-2.6,2.8-2.7,4.7c0,1.7,1.2,2.5,2.7,1.6c1.6-1.1,2.6-2.8,2.7-4.7
			C62.1,38.9,61,38.2,59.5,39z"/>
		<path id="Path_4521" class="st4" d="M41.2,34.9l17.6-10.3v0.8L41.2,35.8V34.9z"/>
		<path id="Path_4522" class="st4" d="M41.2,39.3l19-11v0.8l-19,11V39.3z"/>
		<path id="Path_4523" class="st4" d="M41.2,43.9l15-8.6v0.8l-15,8.7V43.9z"/>
		<path id="Path_4524" class="st5" d="M57,11.8V9.2c0.2,0.1,0.2,0.2,0.3,0.2c2.4,1.2,4.1,3.3,4.6,5.8v7.2l-2.5-1.5v-5.3
			C59.3,14,58.4,12.6,57,11.8z"/>
		<path id="Path_4525" class="st5" d="M36.9,66.9l-2.5-1.4l-0.2-0.2L34,64.9l-0.1-0.4V64V22.4l0.1-0.3l0.1-0.2v-0.2l2.5,1.4
			l-0.1,0.2l-0.1,0.2v0.3L36.3,24v41.4l0.1,0.5l0.1,0.4l0.2,0.3L36.9,66.9z"/>
	</g>
	<g id="Group_2423" transform="translate(454 -709)">
		<g class="st6">
			<path class="st7" d="M331.7,1208.3h3.2l3,8.3h0l3-8.3h3.3v11.6h-2.1v-9.4h0l-3.5,9.4h-1.4l-3.5-9.4h0v9.4h-2V1208.3z"/>
			<path class="st7" d="M349.7,1214.9l-4.4-6.6h2.5l2.9,4.9l3-4.9h2.4l-4.4,6.6v5h-2.1V1214.9z"/>
		</g>
		<g class="st6">
			<path class="st7" d="M332,1229.2h9.6v2.3h-7v3.7h6.7v2.2h-6.7v4.1h7.4v2.3h-10V1229.2z"/>
			<path class="st7" d="M348.7,1239.8h-4.9v-2.1h4.9V1239.8z"/>
			<path class="st7" d="M351.2,1229.2h5.7c0.5,0,1.1,0.1,1.6,0.2c0.5,0.1,1,0.3,1.4,0.6c0.4,0.3,0.8,0.7,1,1.1
				c0.3,0.5,0.4,1,0.4,1.7c0,0.8-0.2,1.5-0.7,2c-0.5,0.5-1.1,0.9-1.8,1.2v0c0.9,0.1,1.7,0.5,2.3,1.1c0.6,0.6,0.9,1.4,0.9,2.4
				c0,0.8-0.2,1.5-0.5,2c-0.3,0.5-0.7,1-1.2,1.3c-0.5,0.3-1.1,0.6-1.8,0.7c-0.7,0.1-1.3,0.2-2,0.2h-5.2V1229.2z M353.7,1235.1h2.3
				c0.9,0,1.5-0.2,2-0.5c0.5-0.3,0.7-0.8,0.7-1.5c0-0.7-0.2-1.1-0.7-1.4c-0.5-0.3-1.2-0.4-2.2-0.4h-2.1V1235.1z M353.7,1241.6h2.3
				c0.3,0,0.7,0,1.1-0.1c0.4,0,0.7-0.1,1.1-0.3c0.3-0.2,0.6-0.4,0.8-0.7c0.2-0.3,0.3-0.7,0.3-1.2c0-0.8-0.3-1.3-0.8-1.6
				c-0.5-0.3-1.3-0.5-2.4-0.5h-2.4V1241.6z"/>
			<path class="st7" d="M363.8,1236.5c0-1.2,0.2-2.2,0.6-3.2c0.4-0.9,0.9-1.7,1.6-2.4c0.7-0.7,1.5-1.2,2.5-1.5s2-0.5,3.1-0.5
				c1.1,0,2.2,0.2,3.1,0.5s1.8,0.9,2.5,1.5c0.7,0.7,1.2,1.5,1.6,2.4c0.4,0.9,0.6,2,0.6,3.2c0,1.1-0.2,2.2-0.6,3.1
				c-0.4,0.9-0.9,1.7-1.6,2.4c-0.7,0.7-1.5,1.2-2.5,1.6s-2,0.6-3.1,0.6c-1.1,0-2.2-0.2-3.1-0.6s-1.8-0.9-2.5-1.6
				c-0.7-0.7-1.2-1.5-1.6-2.4C363.9,1238.6,363.8,1237.6,363.8,1236.5z M366.6,1236.5c0,0.8,0.1,1.5,0.4,2.1c0.2,0.7,0.6,1.2,1,1.7
				c0.4,0.5,1,0.9,1.6,1.1c0.6,0.3,1.3,0.4,2,0.4c0.7,0,1.4-0.1,2-0.4c0.6-0.3,1.1-0.6,1.6-1.1c0.4-0.5,0.8-1,1-1.7
				c0.2-0.7,0.4-1.4,0.4-2.1c0-0.8-0.1-1.5-0.4-2.1c-0.2-0.6-0.6-1.2-1-1.7c-0.4-0.5-1-0.9-1.6-1.1c-0.6-0.3-1.3-0.4-2.1-0.4
				s-1.4,0.1-2,0.4c-0.6,0.3-1.1,0.7-1.6,1.1c-0.4,0.5-0.8,1-1,1.7C366.7,1235,366.6,1235.7,366.6,1236.5z"/>
			<path class="st7" d="M381.9,1229.2h5.1c0.7,0,1.3,0.1,2,0.2c0.6,0.1,1.2,0.4,1.7,0.7c0.5,0.3,0.9,0.8,1.2,1.3
				c0.3,0.5,0.5,1.2,0.5,2c0,1.1-0.3,1.9-0.9,2.6c-0.6,0.7-1.4,1.1-2.4,1.3l3.9,6.5h-3.1l-3.4-6.2h-1.9v6.2h-2.6V1229.2z
				 M386.6,1235.5c0.4,0,0.7,0,1.1-0.1c0.4-0.1,0.7-0.2,1-0.3s0.5-0.4,0.7-0.6c0.2-0.3,0.3-0.6,0.3-1.1c0-0.4-0.1-0.7-0.3-1
				c-0.2-0.3-0.4-0.5-0.7-0.6c-0.3-0.2-0.6-0.3-0.9-0.3c-0.3-0.1-0.7-0.1-1-0.1h-2.3v4.1H386.6z"/>
			<path class="st7" d="M394.8,1229.2h5.2c0.9,0,1.9,0.1,2.9,0.4c1,0.2,1.8,0.7,2.6,1.2c0.8,0.6,1.4,1.3,1.9,2.2
				c0.5,0.9,0.7,2.1,0.7,3.4c0,1.3-0.2,2.4-0.7,3.3c-0.5,0.9-1.1,1.7-1.9,2.3c-0.8,0.6-1.6,1-2.6,1.3c-1,0.3-1.9,0.4-2.9,0.4h-5.2
				V1229.2z M399.6,1241.5c0.7,0,1.3-0.1,2-0.2c0.7-0.2,1.3-0.4,1.8-0.8c0.5-0.4,1-0.9,1.3-1.5c0.3-0.6,0.5-1.5,0.5-2.4
				c0-1-0.2-1.9-0.5-2.5c-0.3-0.7-0.8-1.2-1.3-1.5c-0.5-0.4-1.1-0.6-1.8-0.8c-0.7-0.1-1.3-0.2-2-0.2h-2.2v10.1H399.6z"/>
			<path class="st7" d="M410.5,1229.2h5.1c0.7,0,1.3,0.1,2,0.2c0.6,0.1,1.2,0.4,1.7,0.7c0.5,0.3,0.9,0.8,1.2,1.3
				c0.3,0.5,0.5,1.2,0.5,2c0,1.1-0.3,1.9-0.9,2.6c-0.6,0.7-1.4,1.1-2.4,1.3l3.9,6.5h-3.1l-3.4-6.2h-1.9v6.2h-2.6V1229.2z
				 M415.2,1235.5c0.4,0,0.7,0,1.1-0.1c0.4-0.1,0.7-0.2,1-0.3s0.5-0.4,0.7-0.6c0.2-0.3,0.3-0.6,0.3-1.1c0-0.4-0.1-0.7-0.3-1
				c-0.2-0.3-0.4-0.5-0.7-0.6c-0.3-0.2-0.6-0.3-0.9-0.3c-0.3-0.1-0.7-0.1-1-0.1h-2.3v4.1H415.2z"/>
			<path class="st7" d="M422.7,1236.5c0-1.2,0.2-2.2,0.6-3.2c0.4-0.9,0.9-1.7,1.6-2.4c0.7-0.7,1.5-1.2,2.5-1.5s2-0.5,3.1-0.5
				c1.1,0,2.2,0.2,3.1,0.5s1.8,0.9,2.5,1.5c0.7,0.7,1.2,1.5,1.6,2.4c0.4,0.9,0.6,2,0.6,3.2c0,1.1-0.2,2.2-0.6,3.1
				c-0.4,0.9-0.9,1.7-1.6,2.4c-0.7,0.7-1.5,1.2-2.5,1.6s-2,0.6-3.1,0.6c-1.1,0-2.2-0.2-3.1-0.6s-1.8-0.9-2.5-1.6
				c-0.7-0.7-1.2-1.5-1.6-2.4C422.9,1238.6,422.7,1237.6,422.7,1236.5z M425.6,1236.5c0,0.8,0.1,1.5,0.4,2.1c0.2,0.7,0.6,1.2,1,1.7
				c0.4,0.5,1,0.9,1.6,1.1c0.6,0.3,1.3,0.4,2,0.4c0.7,0,1.4-0.1,2-0.4c0.6-0.3,1.1-0.6,1.6-1.1c0.4-0.5,0.8-1,1-1.7
				c0.2-0.7,0.4-1.4,0.4-2.1c0-0.8-0.1-1.5-0.4-2.1c-0.2-0.6-0.6-1.2-1-1.7c-0.4-0.5-1-0.9-1.6-1.1c-0.6-0.3-1.3-0.4-2.1-0.4
				s-1.4,0.1-2,0.4c-0.6,0.3-1.1,0.7-1.6,1.1c-0.4,0.5-0.8,1-1,1.7C425.7,1235,425.6,1235.7,425.6,1236.5z"/>
		</g>
	</g>
	<g id="Group_2435" transform="translate(718 541.447)">
		<path id="Path_4484" class="st8" d="M53.6,0.8c8.4,4.8,8.4,12.7,0,17.4s-21.9,4.8-30.2,0S15,5.5,23.4,0.8S45.3-4.1,53.6,0.8z"/>
		<path id="Path_4485" class="st9" d="M52.6,1.3c7.8,4.5,7.8,11.8,0,16.3s-20.4,4.5-28.2,0s-7.8-11.8,0-16.3S44.8-3.2,52.6,1.3z"/>
		<path id="Path_4486" class="st10" d="M51.6,1.9c7.2,4.2,7.2,10.9,0,15.1s-19,4.2-26.1,0s-7.2-10.9,0-15.1S44.4-2.3,51.6,1.9z"/>
		<path id="Path_4487" class="st11" d="M50.6,2.5c6.7,3.9,6.7,10.1,0,14s-17.5,3.9-24.2,0s-6.7-10.1,0-14S43.9-1.4,50.6,2.5z"/>
		<path id="Path_4488" class="st12" d="M49.6,3.1c6.1,3.5,6.1,9.3,0,12.8s-16,3.5-22.1,0s-6.1-9.3,0-12.8S43.4-0.5,49.6,3.1z"/>
		<path id="Path_4489" class="st13" d="M48.5,3.6c5.5,3.2,5.5,8.4,0,11.6s-14.5,3.2-20.1,0s-5.5-8.4,0.1-11.6
			C34,0.4,43,0.4,48.5,3.6z"/>
		<path id="Path_4490" class="st14" d="M47.5,4.2c5,2.9,5,7.6,0,10.4s-13.1,2.9-18.1,0s-5-7.6,0-10.4S42.5,1.3,47.5,4.2z"/>
		<path id="Path_4491" class="st15" d="M46.6,4.8c4.4,2.5,4.4,6.7,0,9.3s-11.6,2.5-16,0s-4.4-6.7,0-9.3S42.1,2.2,46.6,4.8z"/>
		<path id="Path_4492" class="st16" d="M45.6,5.4c3.9,2.2,3.9,5.8,0,8.1s-10.1,2.2-14.1,0s-3.9-5.8,0-8.1S41.6,3.1,45.6,5.4z"/>
		<path id="Path_4493" class="st17" d="M44.5,6c3.3,1.9,3.3,5,0,6.9c-3.8,1.9-8.2,1.9-12,0c-3.3-1.9-3.3-5,0-6.9
			C36.3,4,40.7,4,44.5,6z"/>
		<path id="Path_4494" class="st18" d="M43.5,6.6c2.8,1.6,2.8,4.2,0,5.8c-3.1,1.6-6.8,1.6-9.9,0c-2.8-1.6-2.8-4.2,0-5.8
			C36.7,4.9,40.4,4.9,43.5,6.6z"/>
		<path id="Path_4495" class="st19" d="M42.4,7.2c2.2,1.2,2.2,3.3,0,4.6c-2.5,1.2-5.4,1.2-8,0c-2.2-1.2-2.2-3.3,0-4.6
			C37,5.9,40,5.9,42.4,7.2z"/>
		<path id="Path_4496" class="st20" d="M41.5,7.7c1.6,0.9,1.6,2.5,0,3.5c-1.9,0.9-4,0.9-5.9,0c-1.6-0.9-1.6-2.5,0-3.5
			C37.4,6.8,39.6,6.8,41.5,7.7z"/>
		<path id="Path_4497" class="st21" d="M40.5,8.3c0.7,0.2,1,0.9,0.7,1.5c-0.1,0.3-0.4,0.7-0.7,0.7c-1.2,0.6-2.7,0.6-3.9,0
			c-0.7-0.2-1-0.9-0.7-1.5c0.1-0.3,0.4-0.7,0.7-0.7C37.8,7.7,39.2,7.7,40.5,8.3z"/>
	</g>
</g>
</svg>
