<?xml version="1.0" encoding="utf-8"?>
<!-- Generator: Adobe Illustrator 22.1.0, SVG Export Plug-In . SVG Version: 6.00 Build 0)  -->
<svg version="1.1" id="Layer_1" xmlns="http://www.w3.org/2000/svg" xmlns:xlink="http://www.w3.org/1999/xlink" x="0px" y="0px"
	 viewBox="0 0 120 172.7" style="enable-background:new 0 0 120 172.7;" xml:space="preserve">
<style type="text/css">
	.st0{enable-background:new    ;}
	.st1{fill:#7B8C91;}
	.st2{fill:#E6EAEB;}
	.st3{fill:#E8B02C;}
	.st4{fill:#D49D1E;}
	.st5{fill:#FAC13C;}
	.st6{fill:#475357;}
	.st7{fill:#A0ADB0;}
	.st8{fill:#30383B;}
	.st9{fill:#0D8FB3;}
	.st10{fill:#067796;}
	.st11{fill:#0D99BF;}
	.st12{fill:#BFC7C9;}
</style>
<g id="Group_2698" transform="translate(-639.784 -625.343)">
	<g class="st0">
		<path d="M685.9,745.8h3.9l3.7,10.1h0.1l3.6-10.1h4V760h-2.5v-11.4h0l-4.3,11.4h-1.8l-4.2-11.4h0V760h-2.4V745.8z"/>
		<path d="M707.7,753.9l-5.3-8h3.1l3.6,6l3.6-6h2.9l-5.3,8v6.1h-2.5V753.9z"/>
	</g>
	<g class="st0">
		<path d="M655.9,771.3h11.7v2.8h-8.6v4.5h8.1v2.7h-8.1v5h9v2.8h-12.2V771.3z"/>
		<path d="M676.2,784.2h-6v-2.5h6V784.2z"/>
		<path d="M684.7,771.3h2.7l7.6,17.7h-3.6l-1.7-4h-7.7l-1.6,4H677L684.7,771.3z M688.7,782.3l-2.7-7.2l-2.8,7.2H688.7z"/>
		<path d="M696.8,771.3h6.1c0.8,0,1.6,0.1,2.4,0.3c0.8,0.2,1.5,0.5,2.1,0.9c0.6,0.4,1.1,0.9,1.5,1.6c0.4,0.7,0.5,1.4,0.5,2.4
			c0,1.3-0.4,2.3-1.1,3.1c-0.7,0.8-1.7,1.4-3,1.6l4.7,7.8h-3.8l-4.1-7.5H700v7.5h-3.1V771.3z M702.6,779c0.5,0,0.9,0,1.4-0.1
			c0.4-0.1,0.9-0.2,1.2-0.4s0.7-0.4,0.9-0.8c0.2-0.3,0.3-0.8,0.3-1.3c0-0.5-0.1-0.9-0.3-1.2c-0.2-0.3-0.5-0.6-0.8-0.7
			c-0.3-0.2-0.7-0.3-1.1-0.4c-0.4-0.1-0.8-0.1-1.2-0.1H700v5H702.6z"/>
		<path d="M721.6,775c-0.3-0.4-0.8-0.8-1.4-1.1c-0.6-0.3-1.2-0.4-1.8-0.4c-0.4,0-0.7,0-1.1,0.1c-0.4,0.1-0.7,0.2-1,0.4
			c-0.3,0.2-0.5,0.4-0.7,0.8c-0.2,0.3-0.3,0.7-0.3,1.1c0,0.4,0.1,0.7,0.2,1c0.2,0.3,0.4,0.5,0.7,0.7c0.3,0.2,0.6,0.4,1.1,0.5
			c0.4,0.2,0.9,0.3,1.4,0.5c0.6,0.2,1.2,0.4,1.8,0.6s1.2,0.5,1.7,0.9c0.5,0.4,0.9,0.9,1.2,1.5c0.3,0.6,0.5,1.3,0.5,2.2
			c0,0.9-0.1,1.7-0.4,2.3c-0.3,0.7-0.7,1.2-1.2,1.7c-0.5,0.5-1.1,0.8-1.8,1.1c-0.7,0.3-1.4,0.4-2.2,0.5l-0.8,1.2c0.1,0,0.2,0,0.3,0
			s0.1,0,0.2,0c0.3,0,0.6,0,0.9,0.1c0.3,0.1,0.6,0.2,0.8,0.3c0.2,0.2,0.5,0.4,0.6,0.6s0.2,0.6,0.2,1.1c0,0.4-0.1,0.8-0.3,1.1
			c-0.2,0.3-0.5,0.6-0.8,0.7s-0.7,0.3-1.1,0.4s-0.8,0.1-1.2,0.1c-0.5,0-1-0.1-1.5-0.2c-0.5-0.1-0.9-0.3-1.3-0.5l0.6-1.2
			c0.6,0.3,1.3,0.5,2,0.5c0.1,0,0.3,0,0.5,0c0.2,0,0.3-0.1,0.5-0.1c0.1-0.1,0.3-0.2,0.4-0.3c0.1-0.1,0.1-0.3,0.1-0.5
			c0-0.2,0-0.3-0.1-0.5s-0.2-0.2-0.3-0.3c-0.1-0.1-0.3-0.1-0.4-0.1c-0.2,0-0.3,0-0.4,0c-0.1,0-0.3,0-0.5,0c-0.2,0-0.3,0.1-0.5,0.1
			l-0.6-0.6l1.2-1.8c-1-0.1-2.1-0.3-3-0.8c-1-0.4-1.8-1-2.4-1.8l2.2-2.1c0.4,0.6,1,1.1,1.7,1.4c0.7,0.3,1.4,0.5,2.1,0.5
			c0.4,0,0.7,0,1.1-0.1c0.4-0.1,0.7-0.2,1-0.5c0.3-0.2,0.6-0.5,0.8-0.8s0.3-0.7,0.3-1.2c0-0.5-0.1-0.9-0.3-1.2
			c-0.2-0.3-0.5-0.6-0.9-0.8c-0.4-0.2-0.8-0.4-1.3-0.6c-0.5-0.2-1-0.3-1.6-0.5c-0.5-0.2-1.1-0.4-1.6-0.6c-0.5-0.2-1-0.5-1.4-0.9
			c-0.4-0.4-0.8-0.9-1-1.4s-0.4-1.3-0.4-2.1c0-0.9,0.2-1.7,0.6-2.3c0.4-0.6,0.9-1.2,1.5-1.6s1.3-0.7,2.1-1c0.8-0.2,1.6-0.3,2.4-0.3
			c0.9,0,1.8,0.2,2.7,0.5s1.7,0.8,2.4,1.4L721.6,775z"/>
		<path d="M726.5,768c0-0.5,0.2-0.9,0.5-1.3c0.4-0.4,0.8-0.5,1.4-0.5c0.6,0,1,0.2,1.4,0.5s0.6,0.8,0.6,1.3s-0.2,0.9-0.6,1.3
			s-0.8,0.5-1.4,0.5c-0.5,0-1-0.2-1.4-0.5S726.5,768.4,726.5,768z M726.9,771.3h3.1V789h-3.1V771.3z"/>
		<path d="M731.8,771.3h3.5l4.9,13.6h0.1l4.9-13.6h3.4l-7.1,17.7h-2.7L731.8,771.3z"/>
	</g>
	<g id="Group_2505" transform="translate(617.444 625.343)">
		<g id="Group_2504" transform="translate(22.34)">
			<path id="Path_5057" class="st1" d="M103,67L59.2,41.7l-0.1-0.1h-0.2h-0.2h-0.2h-0.2l-0.2,0.1l-0.2,0.1l-0.2,0.1L18.5,64.5
				l-0.2,0.1l-0.2,0.2L17.9,65l-0.2,0.2l-0.2,0.2l-0.2,0.2l-0.2,0.2L17,66.1l43.8,25.3l0.2-0.2l0.2-0.2l0.2-0.2l0.2-0.2l0.2-0.2
				l0.2-0.2l0.2-0.2l0.2-0.1l39.2-22.6l0.2-0.1l0.2-0.1l0.2-0.1h0.2h0.2h0.2L103,67L103,67z"/>
			<path id="Path_5058" class="st2" d="M103.6,68.3c0.1-0.7-0.3-1.4-1-1.5c-0.4-0.1-0.8,0-1.1,0.3L62.3,89.8
				c-0.6,0.4-1.1,0.9-1.5,1.6l0,0c-0.4,0.6-0.6,1.4-0.6,2.1v13.4c-0.1,0.7,0.3,1.4,1,1.5c0.4,0.1,0.8,0,1.1-0.3l39.2-22.6
				c0.6-0.4,1.1-0.9,1.5-1.6l0,0c0.4-0.6,0.6-1.4,0.6-2.1V68.3z"/>
			<g id="Group_2501" transform="translate(81.077 74.286)">
				<path id="Path_5059" class="st3" d="M20.8,0.3L20.2,0l-3.8,2.2L17,2.5L20.8,0.3z"/>
				<path id="Path_5060" class="st4" d="M17,2.5l-0.6-0.4v4.4L17,6.9V2.5z"/>
				<path id="Path_5061" class="st5" d="M17,6.9l3.8-2.2V0.4L17,2.5V6.9z"/>
			</g>
			<path id="Path_5062" class="st6" d="M64.5,98.2c-0.3,0.2-0.5,0-0.5-0.3c0-0.4,0.2-0.7,0.5-0.9L87,84c0.3-0.2,0.5,0,0.5,0.3
				c0,0.4-0.2,0.7-0.5,0.9L64.5,98.2z"/>
			<path id="Path_5063" class="st7" d="M60.8,91.3L17,66.1l0,0l-0.1,0.3l-0.1,0.3L16.7,67l-0.1,0.3l-0.1,0.3l-0.1,0.3v0.3v0.3v13.4
				v0.2v0.2l0.1,0.2l0.1,0.2l0.1,0.2l0.1,0.1l0.1,0.1l0.1,0.1l43.8,25.3l-0.1-0.1l-0.1-0.1l-0.1-0.1l-0.1-0.2l-0.1-0.2l-0.1-0.2
				v-0.2v-0.2V93.4v-0.3v-0.3l0.1-0.3l0.1-0.3l0.1-0.3l0.1-0.3L60.8,91.3L60.8,91.3z"/>
			<path id="Path_5064" class="st8" d="M86,84.6l1.1-0.6c0.3-0.2,0.5,0,0.5,0.3c0,0.4-0.2,0.7-0.5,0.9l0,0L86,84.6z"/>
			<path id="Path_5065" class="st9" d="M96.4,77.8l-0.6-0.3L92,79.6l0.6,0.3L96.4,77.8z"/>
			<path id="Path_5066" class="st10" d="M92.6,80L92,79.6V84l0.6,0.3V80z"/>
			<path id="Path_5067" class="st11" d="M92.6,84.3l3.8-2.2v-4.4L92.6,80V84.3z"/>
			<path id="Path_5068" class="st1" d="M103,46.4L59.2,21.1L59.1,21h-0.2h-0.2h-0.2h-0.2l-0.2,0.1l-0.2,0.1l-0.2,0.1L18.5,43.9
				L18.3,44l-0.2,0.2l-0.2,0.2l-0.2,0.2l-0.2,0.2L17.3,45l-0.2,0.2L17,45.5l43.8,25.3l0.2-0.2l0.2-0.2l0.2-0.2l0.2-0.2l0.2-0.2
				l0.2-0.2l0.2-0.2l0.2-0.1l39.2-22.6l0.2-0.1l0.2-0.1l0.2-0.1h0.2h0.2h0.2L103,46.4L103,46.4z"/>
			<path id="Path_5069" class="st2" d="M103.6,47.8c0.1-0.7-0.3-1.4-1-1.5c-0.4-0.1-0.8,0-1.1,0.3L62.3,69.2
				c-0.6,0.4-1.1,0.9-1.5,1.6l0,0c-0.4,0.6-0.6,1.4-0.6,2.1v13.4c-0.1,0.7,0.3,1.4,1,1.5c0.4,0.1,0.8,0,1.1-0.3l39.2-22.6
				c0.6-0.4,1.1-0.9,1.5-1.6l0,0c0.4-0.6,0.6-1.4,0.6-2.1V47.8z"/>
			<g id="Group_2502" transform="translate(81.077 53.71)">
				<path id="Path_5070" class="st3" d="M20.8,0.3L20.2,0l-3.8,2.2L17,2.5L20.8,0.3z"/>
				<path id="Path_5071" class="st4" d="M17,2.5l-0.6-0.3v4.4L17,6.9V2.5z"/>
				<path id="Path_5072" class="st5" d="M17,6.9l3.8-2.2V0.4L17,2.5V6.9z"/>
			</g>
			<path id="Path_5073" class="st6" d="M64.5,77.7c-0.3,0.2-0.5,0-0.5-0.3c0-0.4,0.2-0.7,0.5-0.9l22.5-13c0.3-0.2,0.5,0,0.5,0.3
				c0,0.4-0.2,0.7-0.5,0.9L64.5,77.7z"/>
			<path id="Path_5074" class="st7" d="M60.8,70.8L17,45.5l0,0l-0.1,0.3L16.7,46l-0.1,0.3l-0.1,0.3l-0.1,0.3l-0.1,0.3v0.3v0.3V61
				v0.2v0.2l0.1,0.2l0.1,0.2l0.1,0.2l0.1,0.1l0.1,0.1l0.1,0.1l43.8,25.3l-0.1-0.1l-0.1-0.1l-0.1-0.1l-0.1-0.2l-0.1-0.2l-0.1-0.2
				v-0.2v-0.2V72.9v-0.3v-0.3l0.1-0.3l0.1-0.3l0.1-0.3l0.1-0.3l0.1-0.3L60.8,70.8z"/>
			<path id="Path_5075" class="st8" d="M86,64l1.1-0.6c0.3-0.2,0.5,0,0.5,0.3c0,0.4-0.2,0.7-0.5,0.9l0,0L86,64z"/>
			<path id="Path_5076" class="st9" d="M96.4,57.2l-0.6-0.3L92,59l0.6,0.4L96.4,57.2z"/>
			<path id="Path_5077" class="st10" d="M92.6,59.4L92,59v4.4l0.6,0.3V59.4z"/>
			<path id="Path_5078" class="st11" d="M92.6,63.8l3.8-2.2v-4.4l-3.8,2.2V63.8z"/>
			<path id="Path_5079" class="st12" d="M103,25.4L59.2,0.1L59.1,0h-0.2h-0.2h-0.2h-0.2l-0.2,0.1l-0.2,0.1l-0.2,0.1L18.5,22.9
				L18.3,23l-0.2,0.2l-0.2,0.2l-0.2,0.2l-0.2,0.2L17.3,24l-0.2,0.2L17,24.5l43.8,25.3l0.2-0.2l0.2-0.2l0.2-0.2l0.2-0.2l0.2-0.2
				l0.2-0.2l0.2-0.2l0.2-0.1l39.2-22.6l0.2-0.1l0.2-0.1l0.2-0.1h0.2h0.2h0.2L103,25.4L103,25.4z"/>
			<path id="Path_5080" class="st2" d="M103.6,26.8c0.1-0.7-0.3-1.4-1-1.5c-0.4-0.1-0.8,0-1.1,0.3L62.3,48.2
				c-0.6,0.4-1.1,0.9-1.5,1.6l0,0c-0.4,0.6-0.6,1.4-0.6,2.1v13.4c-0.1,0.7,0.3,1.4,1,1.5c0.4,0.1,0.8,0,1.1-0.3l39.2-22.6
				c0.6-0.4,1.1-0.9,1.5-1.6l0,0c0.4-0.6,0.6-1.4,0.6-2.1V26.8z"/>
			<g id="Group_2503" transform="translate(81.077 32.722)">
				<path id="Path_5081" class="st3" d="M20.8,0.4L20.2,0l-3.8,2.2L17,2.5L20.8,0.4z"/>
				<path id="Path_5082" class="st4" d="M17,2.5l-0.6-0.4v4.4L17,6.9V2.5z"/>
				<path id="Path_5083" class="st5" d="M17,6.9l3.8-2.2V0.4L17,2.5V6.9z"/>
			</g>
			<path id="Path_5084" class="st6" d="M64.5,56.7c-0.3,0.2-0.5,0-0.5-0.3c0-0.4,0.2-0.7,0.5-0.9l22.5-13c0.3-0.2,0.5,0,0.5,0.3
				c0,0.4-0.2,0.7-0.5,0.9L64.5,56.7z"/>
			<path id="Path_5085" class="st7" d="M60.8,49.8L17,24.5l0,0l-0.1,0.3L16.7,25l-0.1,0.3l-0.1,0.3l-0.1,0.3l-0.1,0.3v0.3v0.3V40
				v0.2v0.2l0.1,0.2l0.1,0.2l0.1,0.2l0.1,0.1l0.1,0.1l0.1,0.1l43.8,25.3l-0.1-0.1l-0.1-0.1l-0.1-0.1l-0.1-0.2l-0.1-0.2l-0.1-0.2
				v-0.2v-0.2V51.9v-0.3v-0.3l0.1-0.3l0.1-0.3l0.1-0.3l0.1-0.3l0.1-0.3L60.8,49.8z"/>
			<path id="Path_5086" class="st8" d="M86,43l1.1-0.6c0.3-0.2,0.5,0,0.5,0.3c0,0.4-0.2,0.7-0.5,0.9l0,0L86,43z"/>
			<path id="Path_5087" class="st9" d="M96.4,36.2l-0.6-0.3L92,38.1l0.6,0.3L96.4,36.2z"/>
			<path id="Path_5088" class="st10" d="M92.6,38.4L92,38.1v4.4l0.6,0.3V38.4z"/>
			<path id="Path_5089" class="st11" d="M92.6,42.8l3.8-2.2v-4.4l-3.8,2.2V42.8z"/>
		</g>
	</g>
</g>
</svg>
