<?xml version="1.0" encoding="utf-8"?>
<!-- Generator: Adobe Illustrator 22.1.0, SVG Export Plug-In . SVG Version: 6.00 Build 0)  -->
<svg version="1.1" id="Layer_1" xmlns="http://www.w3.org/2000/svg" xmlns:xlink="http://www.w3.org/1999/xlink" x="0px" y="0px"
	 viewBox="0 0 151.5 96" style="enable-background:new 0 0 151.5 96;" xml:space="preserve">
<style type="text/css">
	.st0{enable-background:new    ;}
	.st1{opacity:3.000000e-03;fill:#040507;enable-background:new    ;}
	.st2{opacity:7.000000e-03;fill:#080A0D;enable-background:new    ;}
	.st3{opacity:1.000000e-02;fill:#0B0E14;enable-background:new    ;}
	.st4{opacity:1.300000e-02;fill:#0F131B;enable-background:new    ;}
	.st5{opacity:1.700000e-02;fill:#131822;enable-background:new    ;}
	.st6{opacity:2.000000e-02;fill:#171D29;enable-background:new    ;}
	.st7{opacity:2.300000e-02;fill:#1B2230;enable-background:new    ;}
	.st8{opacity:2.700000e-02;fill:#1F2737;enable-background:new    ;}
	.st9{opacity:3.000000e-02;fill:#232C3F;enable-background:new    ;}
	.st10{opacity:3.300000e-02;fill:#273246;enable-background:new    ;}
	.st11{opacity:3.700000e-02;fill:#2B374D;enable-background:new    ;}
	.st12{opacity:4.000000e-02;fill:#2F3C54;enable-background:new    ;}
	.st13{opacity:4.300000e-02;fill:#34415C;enable-background:new    ;}
	.st14{opacity:4.700000e-02;fill:#384763;enable-background:new    ;}
	.st15{fill:#7B8C91;}
	.st16{fill:#E6EAEB;}
	.st17{fill:#E8B02C;}
	.st18{fill:#D49D1E;}
	.st19{fill:#FAC13C;}
	.st20{fill:#475357;}
	.st21{fill:#A0ADB0;}
	.st22{fill:#30383B;}
	.st23{fill:#0D8FB3;}
	.st24{fill:#067796;}
	.st25{fill:#0D99BF;}
	.st26{fill:#BFC7C9;}
</style>
<g id="Group_2691" transform="translate(-597.49 -275.265)">
	<g id="Group_2499">
		<g id="Group_2429" transform="translate(248 -304)">
			<g class="st0">
				<path d="M418.2,601.4h2.9l2.7,7.3h0l2.7-7.3h2.9v10.3h-1.8v-8.3h0l-3.1,8.3h-1.3l-3.1-8.3h0v8.3h-1.8V601.4z"/>
				<path d="M434.1,607.3l-3.9-5.9h2.2l2.6,4.3l2.6-4.3h2.1l-3.9,5.9v4.5h-1.8V607.3z"/>
			</g>
			<g class="st0">
				<path d="M418.5,620h8.6v2h-6.3v3.3h5.9v1.9h-5.9v3.6h6.6v2h-8.9V620z"/>
				<path d="M433.3,629.4h-4.4v-1.9h4.4V629.4z"/>
				<path d="M439.5,620h2l5.6,12.9h-2.6l-1.2-3h-5.6l-1.2,3h-2.6L439.5,620z M442.4,628l-2-5.3l-2,5.3H442.4z"/>
				<path d="M448.3,620h4.5c0.6,0,1.2,0.1,1.8,0.2c0.6,0.1,1.1,0.3,1.5,0.6c0.4,0.3,0.8,0.7,1.1,1.1c0.3,0.5,0.4,1.1,0.4,1.7
					c0,0.9-0.3,1.7-0.8,2.3s-1.2,1-2.2,1.2l3.4,5.7h-2.8l-3-5.5h-1.7v5.5h-2.3V620z M452.5,625.6c0.3,0,0.7,0,1-0.1
					c0.3,0,0.6-0.1,0.9-0.3c0.3-0.1,0.5-0.3,0.6-0.6c0.2-0.2,0.3-0.6,0.3-1c0-0.4-0.1-0.6-0.2-0.9s-0.4-0.4-0.6-0.5
					s-0.5-0.2-0.8-0.3c-0.3,0-0.6-0.1-0.9-0.1h-2.1v3.6H452.5z"/>
				<path d="M466.4,622.7c-0.2-0.3-0.6-0.6-1-0.8c-0.4-0.2-0.9-0.3-1.3-0.3c-0.3,0-0.5,0-0.8,0.1c-0.3,0.1-0.5,0.2-0.7,0.3
					c-0.2,0.1-0.4,0.3-0.5,0.5c-0.1,0.2-0.2,0.5-0.2,0.8c0,0.3,0.1,0.5,0.2,0.7c0.1,0.2,0.3,0.4,0.5,0.5c0.2,0.1,0.5,0.3,0.8,0.4
					s0.6,0.2,1,0.3c0.4,0.1,0.8,0.3,1.3,0.5c0.4,0.2,0.9,0.4,1.2,0.7c0.4,0.3,0.7,0.6,0.9,1.1c0.2,0.4,0.4,1,0.4,1.6
					c0,0.6-0.1,1.2-0.3,1.7c-0.2,0.5-0.5,0.9-0.9,1.2c-0.4,0.3-0.8,0.6-1.3,0.8c-0.5,0.2-1,0.3-1.6,0.4l-0.6,0.9c0.1,0,0.1,0,0.2,0
					s0.1,0,0.2,0c0.2,0,0.5,0,0.7,0.1s0.4,0.1,0.6,0.2c0.2,0.1,0.3,0.3,0.4,0.5c0.1,0.2,0.2,0.5,0.2,0.8c0,0.3-0.1,0.6-0.2,0.8
					c-0.2,0.2-0.4,0.4-0.6,0.5c-0.2,0.1-0.5,0.2-0.8,0.3s-0.6,0.1-0.8,0.1c-0.4,0-0.7,0-1.1-0.1c-0.4-0.1-0.7-0.2-0.9-0.3l0.4-0.9
					c0.5,0.2,1,0.4,1.5,0.4c0.1,0,0.2,0,0.3,0c0.1,0,0.2-0.1,0.3-0.1s0.2-0.1,0.3-0.2c0.1-0.1,0.1-0.2,0.1-0.4c0-0.1,0-0.2-0.1-0.3
					c-0.1-0.1-0.1-0.2-0.2-0.2c-0.1,0-0.2-0.1-0.3-0.1s-0.2,0-0.3,0s-0.2,0-0.3,0s-0.3,0-0.4,0.1l-0.4-0.5l0.9-1.3
					c-0.8-0.1-1.5-0.2-2.2-0.5s-1.3-0.7-1.8-1.3l1.6-1.5c0.3,0.4,0.7,0.8,1.3,1c0.5,0.3,1,0.4,1.6,0.4c0.3,0,0.5,0,0.8-0.1
					c0.3-0.1,0.5-0.2,0.8-0.3c0.2-0.2,0.4-0.4,0.5-0.6c0.1-0.2,0.2-0.5,0.2-0.9c0-0.3-0.1-0.6-0.2-0.8c-0.2-0.2-0.4-0.4-0.6-0.6
					s-0.6-0.3-0.9-0.4c-0.4-0.1-0.7-0.2-1.1-0.4c-0.4-0.1-0.8-0.3-1.2-0.4c-0.4-0.2-0.7-0.4-1-0.7c-0.3-0.3-0.6-0.6-0.8-1
					c-0.2-0.4-0.3-0.9-0.3-1.5c0-0.7,0.1-1.2,0.4-1.7s0.6-0.9,1.1-1.2c0.4-0.3,0.9-0.5,1.5-0.7c0.6-0.2,1.1-0.2,1.7-0.2
					c0.7,0,1.3,0.1,2,0.3c0.7,0.2,1.3,0.6,1.8,1L466.4,622.7z"/>
				<path d="M470,617.5c0-0.4,0.1-0.7,0.4-0.9c0.3-0.3,0.6-0.4,1-0.4s0.7,0.1,1,0.4s0.4,0.6,0.4,0.9s-0.1,0.7-0.4,0.9
					s-0.6,0.4-1,0.4s-0.7-0.1-1-0.4S470,617.9,470,617.5z M470.3,620h2.3v12.9h-2.3V620z"/>
				<path d="M473.8,620h2.6l3.6,9.9h0.1l3.6-9.9h2.5l-5.2,12.9h-2L473.8,620z"/>
			</g>
		</g>
		<g id="Group_2498" transform="translate(597.48 275.265)">
			<g id="Group_2493" transform="translate(0.01 58.313)">
				<path id="Path_4996" class="st1" d="M60.7-0.7c11.2,6.5,11.2,16.9,0,23.4s-29.3,6.5-40.4,0S9,5.7,20.2-0.7S49.5-7.2,60.7-0.7z"
					/>
				<path id="Path_4997" class="st2" d="M59.3,0.1c10.5,6.1,10.5,15.9,0,21.8S32,28,21.5,21.9S11,6.1,21.5,0.1S48.9-6,59.3,0.1z"/>
				<path id="Path_4998" class="st3" d="M58,0.8c9.7,5.6,9.7,14.7,0,20.3s-25.4,5.6-35.1,0s-9.7-14.7,0-20.3S48.3-4.7,58,0.8z"/>
				<path id="Path_4999" class="st4" d="M56.6,1.7c9,5.1,9,13.5,0,18.7s-23.4,5.1-32.4,0s-9-13.5,0-18.7S47.6-3.5,56.6,1.7z"/>
				<path id="Path_5000" class="st5" d="M55.3,2.4c8.2,4.7,8.2,12.4,0,17.1s-21.4,4.7-29.6,0s-8.2-12.4,0-17.1S47-2.3,55.3,2.4z"/>
				<path id="Path_5001" class="st6" d="M53.8,3.2c7.5,4.3,7.5,11.3,0,15.6s-19.5,4.3-26.9,0s-7.5-11.3,0-15.6S46.5-1.1,53.8,3.2z"
					/>
				<path id="Path_5002" class="st7" d="M52.5,4c6.6,3.8,6.6,10.1,0,14S35,21.9,28.3,18s-6.6-10.1,0-14S45.9,0.2,52.5,4z"/>
				<path id="Path_5003" class="st8" d="M51.1,4.7c5.9,3.5,5.9,9,0,12.5s-15.6,3.5-21.6,0s-5.9-9,0-12.5S45.3,1.3,51.1,4.7z"/>
				<path id="Path_5004" class="st9" d="M49.8,5.5c5.2,3,5.2,7.8,0,10.8s-13.6,3-18.8,0s-5.2-7.8,0-10.8S44.6,2.6,49.8,5.5z"/>
				<path id="Path_5005" class="st10" d="M48.4,6.4c4.4,2.6,4.4,6.8,0,9.2s-11.7,2.6-16.1,0s-4.4-6.8,0-9.2S44,3.8,48.4,6.4z"/>
				<path id="Path_5006" class="st11" d="M47.2,7.2c3.7,2.1,3.7,5.6,0,7.7s-9.7,2.1-13.4,0c-3.7-2.1-3.7-5.6,0-7.7
					C37.5,5.1,43.4,5,47.2,7.2z"/>
				<path id="Path_5007" class="st12" d="M45.8,7.9c2.9,1.6,2.9,4.4,0,6.2c-3.4,1.6-7.3,1.6-10.7,0c-2.9-1.6-2.9-4.4,0-6.2
					C38.4,6.2,42.4,6.2,45.8,7.9z"/>
				<path id="Path_5008" class="st13" d="M44.4,8.7c2.2,1.3,2.2,3.3,0,4.5c-2.6,1.3-5.5,1.3-7.9,0c-2.1-1.3-2.1-3.4,0.1-4.5
					C39,7.4,41.9,7.4,44.4,8.7z"/>
				<path id="Path_5009" class="st14" d="M43,9.5c1.4,0.8,1.4,2.2,0,3c-1.6,0.8-3.6,0.8-5.2,0c-1.4-0.8-1.4-2.2,0-3
					C39.5,8.7,41.3,8.7,43,9.5z"/>
			</g>
			<g id="Group_2497" transform="translate(9.262)">
				<path id="Path_5010" class="st15" d="M52.5,43.7L30.6,31h-0.1h-0.1h-0.1h-0.1H30h-0.1l0.1,0.1v0.1L10.3,42.4h-0.1l-0.1,0.1
					L10,42.6l-0.1,0.1l-0.1,0.1L9.6,43l-0.1,0.1l-0.1,0.1l21.9,12.6l0.1-0.1l0.1-0.1l0.1-0.1l0.1-0.1l0.1-0.1l0.1-0.1l0.1-0.1
					l0.1-0.1l19.6-11.3l0.1-0.1l0.1-0.1H52h0.1h0.1H52L52.5,43.7L52.5,43.7z"/>
				<path id="Path_5011" class="st16" d="M52.9,44.3c0.1-0.3-0.1-0.7-0.5-0.7c-0.1,0-0.5,0-0.6,0.1L32.1,55
					c-0.3,0.1-0.6,0.5-0.7,0.7l0,0c-0.1,0.3-0.3,0.7-0.3,1v6.8c-0.1,0.3,0.1,0.7,0.5,0.7c0.1,0,0.5,0,0.6-0.1l19.6-11.3
					c0.3-0.1,0.6-0.5,0.7-0.7l0,0c0.1-0.3,0.3-0.7,0.3-1C52.9,51,52.9,44.3,52.9,44.3z"/>
				<g id="Group_2494" transform="translate(55.507 50.858)">
					<path id="Path_5012" class="st17" d="M-3.5-3.4l-0.3-0.2l-1.9,1l0.3,0.1L-3.5-3.4z"/>
					<path id="Path_5013" class="st18" d="M-5.5-2.3l-0.3-0.1v2.2l0.3,0.1V-2.3z"/>
					<path id="Path_5014" class="st19" d="M-5.5-0.1l2-1v-2.2l-1.9,1L-5.5-0.1C-5.4-0.1-5.5-0.1-5.5-0.1z"/>
				</g>
				<path id="Path_5015" class="st20" d="M33.3,59.3c-0.1,0.1-0.2,0-0.2-0.1s0.1-0.3,0.2-0.5l11.3-6.5c0.1-0.1,0.2,0,0.2,0.1
					s-0.1,0.3-0.2,0.5L33.3,59.3z"/>
				<path id="Path_5016" class="st21" d="M31.4,55.8L9.5,43.2l0,0l-0.1,0.1v0.1l-0.1,0.1l-0.1,0.1v0.1v0.1V44v0.5v6.8v0.1v0.1l0,0
					l0,0l0.1,0.1l0.1,0.1l0.1,0.1L9.6,52l21.9,12.6l-0.1-0.1l-0.1-0.2l-0.1-0.1V64v-0.1v-0.1v-0.1v-0.1v-6.8v-0.1v-0.1v-0.1v-0.1
					l0.1-0.1L31.4,55.8L31.4,55.8L31.4,55.8z"/>
				<path id="Path_5017" class="st22" d="M44,52.4l0.5-0.3c0.1-0.1,0.2,0,0.2,0.1s-0.1,0.3-0.2,0.5l0,0L44,52.4z"/>
				<path id="Path_5018" class="st23" d="M49.3,49L49,48.9l-1.9,1l0.3,0.1L49.3,49z"/>
				<path id="Path_5019" class="st24" d="M47.3,50.1L46.9,50v2.2l0.3,0.1L47.3,50.1L47.3,50.1z"/>
				<path id="Path_5020" class="st25" d="M47.3,52.3l1.9-1V49l-1.9,1V52.3z"/>
				<path id="Path_5021" class="st15" d="M52.5,33.4L30.6,20.7h-0.1h-0.1h-0.1h-0.1H30h-0.1l0.1,0.1v0.1L10.3,32.1h-0.1l-0.1,0.1
					L10,32.4l-0.1,0.1l-0.1,0.1l-0.1,0.1l-0.1,0.1L9.4,33l21.9,12.6l0.1-0.1l0.1-0.1l0.1-0.1l0.1-0.1l0.1-0.1l0.1-0.1l0.1-0.1
					l0.1-0.1l19.6-11.3l0.1-0.1l0.1-0.1H52h0.1H52h0.1L52.5,33.4L52.5,33.4z"/>
				<path id="Path_5022" class="st16" d="M52.9,34c0.1-0.3-0.1-0.7-0.5-0.7c-0.1,0-0.5,0-0.6,0.1L32.3,44.7
					c-0.3,0.1-0.6,0.5-0.7,0.7l0,0c-0.1,0.3-0.3,0.7-0.3,1v6.8c-0.1,0.3,0.1,0.7,0.5,0.7c0.1,0,0.5,0,0.6-0.1L52,42.5
					c0.3-0.1,0.6-0.5,0.7-0.7l0,0c0.1-0.3,0.3-0.7,0.3-1L52.9,34L52.9,34z"/>
				<g id="Group_2495" transform="translate(55.507 36.771)">
					<path id="Path_5023" class="st17" d="M-3.5,0.5l-0.3-0.2l-1.9,1l0.3,0.1L-3.5,0.5z"/>
					<path id="Path_5024" class="st18" d="M-5.5,1.5l-0.3-0.1v2.2l0.3,0.1V1.5z"/>
					<path id="Path_5025" class="st19" d="M-5.5,3.7l2-1V0.5l-1.9,1L-5.5,3.7L-5.5,3.7z"/>
				</g>
				<path id="Path_5026" class="st20" d="M33.3,49c-0.1,0.1-0.2,0-0.2-0.1s0.1-0.3,0.2-0.5l11.3-6.5c0.1-0.1,0.2,0,0.2,0.1
					s-0.1,0.3-0.2,0.5L33.3,49z"/>
				<path id="Path_5027" class="st21" d="M31.4,45.5L9.5,33l0,0l-0.1,0.1v0.1l-0.1,0.1l-0.1,0.1v0.1v0.1V34v0.1v6.8V41v0.1v0.1v0.1
					l0.1,0.1l0.1,0.1l0.1,0.1l0.1,0.1l21.9,12.6L31.4,54l-0.1-0.2l-0.1-0.1v-0.1v-0.1v-0.1v-0.1v-0.1v-6.6v-0.1v-0.1v-0.1V46
					l0.1-0.1L31.4,45.5L31.4,45.5L31.4,45.5z"/>
				<path id="Path_5028" class="st22" d="M44,42.2l0.5-0.3c0.1-0.1,0.2,0,0.2,0.1s-0.1,0.3-0.2,0.5l0,0L44,42.2z"/>
				<path id="Path_5029" class="st23" d="M49.3,38.8L49,38.7l-1.9,1l0.3,0.1L49.3,38.8z"/>
				<path id="Path_5030" class="st24" d="M47.3,39.8L47,39.7v2.2l0.3,0.1V39.8z"/>
				<path id="Path_5031" class="st25" d="M47.3,42l1.9-1v-2.2l-1.9,1V42z"/>
				<path id="Path_5032" class="st26" d="M52.5,22.8L30.6,10.2h-0.1h-0.1h-0.1h-0.1H30h-0.1l0.1,0.1l0,0L10.3,21.6l-0.1,0.1
					l-0.1,0.1L10,22l-0.1,0.1l-0.1,0.1l-0.1,0.1l-0.1,0.1l0.1-0.1l21.9,12.6l0.1-0.1l0.1-0.1l0.1-0.1l0.1-0.1l0.1-0.1l0.1-0.1
					l0.1-0.1l0.1-0.1L52,22.8l0.1-0.1l0.1-0.1h0.1h0.1h-0.3h0.1L52.5,22.8L52.5,22.8z"/>
				<path id="Path_5033" class="st16" d="M52.9,23.6c0.1-0.3-0.1-0.7-0.5-0.7c-0.1,0-0.5,0-0.6,0.1L32.3,34.4
					c-0.3,0.1-0.6,0.5-0.7,0.7l0,0c-0.1,0.3-0.3,0.7-0.3,1v6.8c-0.1,0.3,0.1,0.7,0.5,0.7c0.1,0,0.5,0,0.6-0.1L52,32.2
					c0.3-0.1,0.6-0.5,0.7-0.7l0,0c0.1-0.3,0.3-0.7,0.3-1C52.9,30.4,52.9,23.6,52.9,23.6z"/>
				<g id="Group_2496" transform="translate(55.507 22.402)">
					<path id="Path_5034" class="st17" d="M-3.5,4.3l-0.3-0.1l-1.9,1l0.3,0.1L-3.5,4.3z"/>
					<path id="Path_5035" class="st18" d="M-5.5,5.4l-0.3-0.1v2.1l0.3,0.1V5.4z"/>
					<path id="Path_5036" class="st19" d="M-5.5,7.6l2-1V4.3l-1.9,1L-5.5,7.6L-5.5,7.6z"/>
				</g>
				<path id="Path_5037" class="st20" d="M33.3,38.5c-0.1,0.1-0.2,0-0.2-0.1s0.1-0.3,0.2-0.5l11.3-6.5c0.1-0.1,0.2,0,0.2,0.1
					s-0.1,0.3-0.2,0.5L33.3,38.5z"/>
				<path id="Path_5038" class="st21" d="M31.4,35.1L9.5,22.5l0,0l-0.1,0.1v0.1l-0.1,0.1l-0.1,0.1V23v0.1v0.3v0.1v6.8v0.1v0.1v0.1
					v0.1L9.3,31l0.1,0.1l0.1,0.1l0.1,0.1l21.9,12.6l-0.1-0.1l-0.1-0.5h-0.1v-0.1v-0.1V43v-0.1v-0.1v-6.6V36v-0.1v-0.1v-0.1l0.1-0.1
					l0.1-0.1V35.1L31.4,35.1z"/>
				<path id="Path_5039" class="st22" d="M44,31.7l0.5-0.3c0.1-0.1,0.2,0,0.2,0.1s-0.1,0.3-0.2,0.5l0,0L44,31.7z"/>
				<path id="Path_5040" class="st23" d="M49.3,28.3L49,28.2l-1.9,1l0.3,0.1L49.3,28.3z"/>
				<path id="Path_5041" class="st24" d="M47.3,29.5L47,29.4v2.2l0.3,0.1V29.5z"/>
				<path id="Path_5042" class="st25" d="M47.3,31.6l1.9-1v-2.2l-1.9,1V31.6z"/>
			</g>
		</g>
	</g>
</g>
</svg>
