<svg xmlns="http://www.w3.org/2000/svg" viewBox="0 0 9.429 9.428">
  <defs>
    <style>
      .cls-1 {
        fill: #fff;
      }
    </style>
  </defs>
  <path id="Path_585" data-name="Path 585" class="cls-1" d="M9.429-1.982a.342.342,0,0,0-.02-.141c-.047-.141-.375-.288-.509-.355-.382-.214-.77-.422-1.145-.643-.174-.107-.388-.308-.6-.308-.408,0-1,1.212-1.366,1.212a1.44,1.44,0,0,1-.576-.261A6.663,6.663,0,0,1,2.478-5.217a1.44,1.44,0,0,1-.261-.576c0-.362,1.212-.958,1.212-1.366,0-.208-.2-.422-.308-.6C2.9-8.129,2.692-8.518,2.478-8.9c-.067-.134-.214-.462-.355-.509a.342.342,0,0,0-.141-.02,2.979,2.979,0,0,0-.931.208,1.764,1.764,0,0,0-.71.817A2.559,2.559,0,0,0,0-7.158,5.158,5.158,0,0,0,.462-5.4a6.26,6.26,0,0,0,.556,1.172A11.3,11.3,0,0,0,4.232-1.018,6.26,6.26,0,0,0,5.4-.462,5.158,5.158,0,0,0,7.158,0,2.559,2.559,0,0,0,8.4-.342a1.764,1.764,0,0,0,.817-.71A2.979,2.979,0,0,0,9.429-1.982Z" transform="translate(0 9.428)"/>
</svg>
