<?xml version="1.0" encoding="utf-8"?>
<!-- Generator: Adobe Illustrator 22.1.0, SVG Export Plug-In . SVG Version: 6.00 Build 0)  -->
<svg version="1.1" xmlns="http://www.w3.org/2000/svg" xmlns:xlink="http://www.w3.org/1999/xlink" x="0px" y="0px"
	 viewBox="0 0 42.4 42.4" style="enable-background:new 0 0 42.4 42.4;" xml:space="preserve">
<style type="text/css">
	.st0{fill:#FFFFFF;}
	.st1{fill:none;stroke:#B2B2B2;}
	.st2{fill:#B2B2B2;}
</style>
<g id="Layer_2">
</g>
<g id="Layer_1">
	<g id="Group_2376" transform="translate(-437.787 -853.787)">
		<g id="Rectangle_170" transform="translate(480.213 875) rotate(135)">
			<path class="st0" d="M26,30H4c-2.2,0-4-1.8-4-4V4c0-2.2,1.8-4,4-4h22c2.2,0,4,1.8,4,4v22C30,28.2,28.2,30,26,30z"/>
			<path class="st1" d="M26,29.5H4c-1.9,0-3.5-1.6-3.5-3.5V4c0-1.9,1.6-3.5,3.5-3.5h22c1.9,0,3.5,1.6,3.5,3.5v22
				C29.5,27.9,27.9,29.5,26,29.5z"/>
		</g>
		<path id="Path_4441" class="st2" d="M450.1,873.5c-0.3,0.3-0.5,0.7-0.5,1.1c0,0.4,0.2,0.8,0.5,1.1l9,9c0.3,0.3,0.7,0.5,1.1,0.5
			s0.8-0.2,1.1-0.5l1.5-1.5c0.3-0.3,0.5-0.7,0.5-1.1c0-0.4-0.2-0.8-0.5-1.1l-6.4-6.4l6.4-6.4c0.6-0.6,0.6-1.6,0-2.3l-1.5-1.5
			c-0.3-0.3-0.7-0.5-1.1-0.5s-0.8,0.2-1.1,0.5L450.1,873.5z"/>
	</g>
</g>
</svg>
