<?xml version="1.0" encoding="utf-8"?>
<!-- Generator: Adobe Illustrator 22.1.0, SVG Export Plug-In . SVG Version: 6.00 Build 0)  -->
<svg version="1.1" id="Layer_1" xmlns:sketch="http://www.bohemiancoding.com/sketch/ns"
	 xmlns="http://www.w3.org/2000/svg" xmlns:xlink="http://www.w3.org/1999/xlink" x="0px" y="0px" viewBox="0 0 60 60"
	 style="enable-background:new 0 0 60 60;" xml:space="preserve">
<style type="text/css">
	.st0{fill:#FFFFFF;}
</style>
<title></title>
<desc></desc>
<g id="black">
	<g id="slice" transform="translate(-500.000000, -100.000000)">
	</g>
	<g id="youtube" transform="translate(10.000000, 16.000000)">
		<path id="Fill-195" class="st0" d="M38.8,6.8c0,0-0.4-2.6-1.5-3.8c-1.5-1.5-3.1-1.5-3.8-1.6C28.1,0.9,20,0.9,20,0.9h0
			c0,0-8,0-13.4,0.4C5.8,1.4,4.2,1.4,2.7,3C1.6,4.1,1.2,6.8,1.2,6.8S0.8,9.9,0.8,13v2.9c0,3.1,0.4,6.2,0.4,6.2s0.4,2.6,1.5,3.8
			c1.5,1.5,3.4,1.5,4.2,1.6c3.1,0.3,13,0.4,13,0.4s8.1,0,13.4-0.4c0.7-0.1,2.4-0.1,3.8-1.6c1.2-1.2,1.5-3.8,1.5-3.8s0.4-3.1,0.4-6.2
			V13C39.2,9.9,38.8,6.8,38.8,6.8z M16,19.4l0-10.8L26.4,14L16,19.4z"/>
	</g>
</g>
</svg>
