<?xml version="1.0" encoding="utf-8"?>
<!-- Generator: Adobe Illustrator 22.1.0, SVG Export Plug-In . SVG Version: 6.00 Build 0)  -->
<svg version="1.1" id="Layer_1" xmlns="http://www.w3.org/2000/svg" xmlns:xlink="http://www.w3.org/1999/xlink" x="0px" y="0px"
	 viewBox="0 0 310 120" style="enable-background:new 0 0 310 120;" xml:space="preserve">
<style type="text/css">
	.st0{fill:#415A73;}
	.st1{fill:#2C3E50;}
	.st2{fill:#E6EAEB;}
	.st3{fill:#BDBDBD;}
	.st4{fill:#E8D5A7;}
	.st5{fill:#C2AC78;}
	.st6{fill:#D4BE8C;}
	.st7{fill:#AB9667;}
	.st8{enable-background:new    ;}
	.st9{fill:#1F1E1E;}
	.st10{opacity:3.000000e-03;fill:#040507;enable-background:new    ;}
	.st11{opacity:7.000000e-03;fill:#080A0D;enable-background:new    ;}
	.st12{opacity:1.000000e-02;fill:#0B0E14;enable-background:new    ;}
	.st13{opacity:1.300000e-02;fill:#0F131B;enable-background:new    ;}
	.st14{opacity:1.700000e-02;fill:#131822;enable-background:new    ;}
	.st15{opacity:2.000000e-02;fill:#171D29;enable-background:new    ;}
	.st16{opacity:2.300000e-02;fill:#1B2230;enable-background:new    ;}
	.st17{opacity:2.700000e-02;fill:#1F2737;enable-background:new    ;}
	.st18{opacity:3.000000e-02;fill:#232C3F;enable-background:new    ;}
	.st19{opacity:3.300000e-02;fill:#273246;enable-background:new    ;}
	.st20{opacity:3.700000e-02;fill:#2B374D;enable-background:new    ;}
	.st21{opacity:4.000000e-02;fill:#2F3C54;enable-background:new    ;}
	.st22{opacity:4.300000e-02;fill:#34415C;enable-background:new    ;}
	.st23{opacity:4.700000e-02;fill:#384763;enable-background:new    ;}
</style>
<g id="Group_2692" transform="translate(-942.911 -488)">
	<g id="Group_2400" transform="translate(937.063 483.387)">
		<g id="Group_2399" transform="translate(5.848 4.613)">
			<path id="Path_4537" class="st0" d="M30.3,14l-4.4-2.6l-0.5-0.2L25,11l-0.5-0.2L24,10.6h-0.7h-0.7l-0.7,0.2L21.2,11l-0.7,0.2
				l-0.7,0.2l-0.7,0.2L19,11.8l-0.7,0.4l-0.5,0.2l-0.5,0.3l-0.7,0.5L16,13.8l-0.7,0.5l-0.5,0.5l-0.7,0.6l-0.2,0.4l-0.7,0.7L12.5,17
				L12,17.7l-0.5,0.7l-0.2,0.5l-0.5,0.5l-0.4,0.7L10,20.7l-0.4,0.7L9.1,22l-0.4,0.7l-0.4,0.7l-0.4,0.7l-0.2,0.7l-0.2,0.7l-0.2,0.7
				L7,27l-0.2,0.7l-0.2,0.7L6.2,29L6,29.7v1.1v0.7v0.7v1.4l0.2,0.7L6.4,35l0.2,0.7l0.2,0.7L7,37l0.2,0.7l0.2,0.5v0.4l0.2,0.5L8,39.6
				L8.6,40l0.2,0.2l0.4,0.4L9.6,41l1.7,0.9l2.9,1.7L30.3,14z M29.9,13.8L29.9,13.8L29.9,13.8C30.1,13.8,30.1,13.8,29.9,13.8
				L29.9,13.8z"/>
			<path id="Path_4538" class="st1" d="M22.6,42.4c6.5-3.8,11.8-13.1,11.8-20.5S29,11.3,22.6,15.1s-11.8,13-11.8,20.5
				S15.8,46.3,22.6,42.4z"/>
			<path id="Path_4539" class="st2" d="M29.4,18.9L27.8,18l-0.4-0.2L27,17.6l-0.2-0.1h-0.4L26,17.3h-0.7h-0.5l-0.4,0.2l-0.5,0.2
				l-0.4,0.2L23,18.1l-0.2,0.2l-0.5,0.2l-0.5,0.2l-0.5,0.2l-0.5,0.4l-0.2,0.2l-0.2,0.2l-0.5,0.4l-0.6,0.3L18.9,21l-0.4,0.5L18.1,22
				l-0.2,0.2l-0.4,0.5L17,23.1l-0.2,0.4L16.4,24L16,24.5L15.6,25l-0.4,0.5L14.8,26l-0.2,0.7l-0.2,0.7L14.1,28v0.5l0.2,0.2L14,29.4
				l-0.2,0.5l-0.2,0.7l-0.2,0.7l-0.2,0.5L13,32.5l0,0.5l0.2,0.2v0.7l0.2,0.5l0.2,0.5l0.2,0.5l0.2,0.5l0.2,0.5l0.2,0.4l0.2,0.4
				l-0.2,0.2l0.2,0.4l0.2,0.4l0.2,0.2l0.2,0.2l0.2,0.2l0.2,0.2l1.4,1l0.5,0.2c1.6,1.1,2.7,1.7,6.4-0.5c3.7-2.1,8.5-10.5,8.5-14.7
				C32.2,20.3,31.1,19.7,29.4,18.9L29.4,18.9z"/>
			<path id="Path_4540" class="st3" d="M23.7,39.3c5.1-3.2,8.1-8.9,8.4-14.7c0-5.5-3.8-7.7-8.4-5c-5.1,3.2-8.2,8.9-8.4,14.7
				C15.1,39.9,18.8,42,23.7,39.3z"/>
			<path id="Path_4541" class="st4" d="M35.1,62.9l-7.3-5.7l-9.4-17.9l-0.2-0.2l-0.4-0.2l-0.2-0.2l-0.2-0.2l-0.2-0.4L17,37.7
				l-0.2-0.4l-0.2-0.4v-0.2l0.2-0.2L16.6,36l-0.2-0.5L16.2,35L16,34.3v-0.8l0.2-0.5l0.2-0.5l0.2-0.5l0.2-0.5L17,31l0.2-0.5l0.2-0.5
				l0.2-0.5l0.2-0.5l0.2-0.5l0.2-0.5l0.2-0.5l0.2-0.5l0.2-0.5L19,26l0.4-0.5l0.4-0.5l0.4-0.5l0.4-0.5l0.4-0.5l0.4-0.5
				c5.7-6.8,18.8-4.4,26.2-2.1c1.2,0.4,2.2,1.3,2.7,2.3l1.8,3.8c0.5,0.7,0.7,1.8,0.4,2.9L51,36l8.1,17.7L51,58.3
				c0.2,0.7-1.8,3-4.1,2.2c-0.4,0.5-0.2,1.6-2.6,1.4c0.2,0.5-0.5,0.9-1.7,0.9l-5.3-0.7C36,63.2,35.6,63.2,35.1,62.9z"/>
			<path id="Path_4542" class="st5" d="M56.7,55.5L52,51.9l-3.5-5.6l-3.2-3.1c-1.6-1.4-2.3-3.4-2.3-5.6l-0.2-3.9L36.2,33l-2.7,3.1
				c-0.7,0.7-1.8,1.3-3,1.1l-2.6-0.7c-0.2,0-0.5-0.2-0.5-0.5c-0.2-0.2,0-0.5,0.2-0.7l5.3-8.4c0.4-0.7,0.9-1.1,1.7-1.2l11.3-1.8
				c0.2,0,0.5,0,0.7,0.2l6.8,6c5.9,5.2,3.1,5.2,9,6.5c1.8,0.5,3.6,1.2,5.5,1.8c4.1,8.2-2,14.2-8.1,16C59.4,54.7,57.2,55.6,56.7,55.5
				z"/>
			<path id="Path_4543" class="st5" d="M45.7,61.8c-2.3,0-4.6-0.7-6.4-2.2c-1.8-1.6-5.7-5.6-5.5-5.9s4.1,3.9,5.7,5.5
				C41.4,60.3,43.5,61.3,45.7,61.8z"/>
			<path id="Path_4544" class="st5" d="M49.7,59.4c-2.1,0-4.3,0-6.1-1.7s-7.5-6.5-7.2-6.8c0.4-0.4,6,4.8,7.7,6.4
				C45.7,58.9,48.1,59,49.7,59.4z"/>
			<path id="Path_4545" class="st5" d="M54.9,56.9c-2.7-0.4-5.7-0.7-8.1-2.6c-2.1-1.8-6.8-5.9-6.5-6.3c0.2-0.4,5.3,4.1,7.2,5.9
				C49.4,55.6,52.5,56.1,54.9,56.9z"/>
			<path id="Path_4546" class="st5" d="M43.1,63.2c-2.1-0.2-4.8-0.7-6.6-2.1s-5-4.3-4.7-4.6c0.4-0.4,3.6,3.2,5.2,4.3
				C38.8,61.9,41,62.7,43.1,63.2z"/>
			<path id="Path_4547" class="st0" d="M73.7,37.1l-4.4-2.6l-0.5-0.2l-0.5-0.2L67.9,34h-0.4H67h-1.1h-0.5l-0.7,0.2L64,34.4l-0.7,0.2
				l-0.7,0.2L61.9,35l-0.2,0.2L61,35.6L60.3,36l-0.7,0.4l-0.7,0.5l-0.6,0.6l-0.2,0.2l-0.7,0.5l-0.7,0.7L56,39.6l-0.5,0.5L55,40.8
				l-0.5,0.7L54,42.2l-0.5,0.7l-0.7,0.7l-0.5,0.7L51.8,45l-0.5,0.7l-0.4,0.7L50.5,47l-0.4,0.7l-0.2,0.7l-0.4,0.7L50,50l-0.2,0.7
				l-0.2,0.6L49.4,52l-0.2,0.7L49,53.4l-0.2,0.7l-0.1,0.7V56v1.4l0.2,0.7l0.2,0.7l0.2,0.7l0.2,0.7l0.2,0.7l0.2,0.7l0.2,0.5l0.2,0.5
				l0.2,0.5l0.4,0.5l0.4,0.4l0.4,0.4l0.4,0.4l0.4,0.4l1.7,0.9l2.9,1.7L73.7,37.1L73.7,37.1z M73.2,37L73.2,37L73.2,37L73.2,37z"/>
			<path id="Path_4548" class="st1" d="M65.8,65.6c6.5-3.8,11.8-13,11.8-20.5s-5.3-10.5-11.8-6.8S54,51.4,54,58.8
				C53.8,66.3,59.2,69.3,65.8,65.6z"/>
			<path id="Path_4549" class="st5" d="M30.8,59.4l-3.4-0.2c-0.5,0-1.1-0.2-1.4-0.7L25.3,58c-0.5-0.4-0.7-0.9-0.7-1.6V55h-0.4
				c-0.5-0.2-0.7-0.4-1.1-0.7l-0.9-1.2c-0.4-0.4-0.5-0.7-0.5-1.3l-0.1-1.1l-0.4-0.2c-0.5-0.2-0.9-0.5-1.2-0.9l-0.7-1.1
				c-0.3-0.6-0.7-1.3-0.7-2V46c-1.4-0.7-2.2-2-2.2-3.5v-1.1l0.2-2.2c0.2-1.2,0.7-1.6,1.6-1.6c0.5-0.2,0.9,0,1.4,0.2l0.7,0.2
				c0.5,0.2,0.7,0.5,1.1,0.9s0.5,0.7,0.5,1.3V42l0.7,0.4l0.7,0.7c0.7,0.5,0.9,1.2,0.7,2l-0.2,2c0.4,0.2,0.7,0.4,0.9,0.7l0.7,0.7
				c0.7,0.7,0.9,1.3,0.9,2.1L26.2,53c0.7,0,1.6,0.4,2,0.9c0.5,0.4,0.7,0.9,0.9,1.6l0.4,2L30.8,59.4z"/>
			<path id="Path_4550" class="st6" d="M17.6,39.3l1.6,1.2L18.9,43c0,0.2-0.2,0.2-0.2,0.2L18.5,43l-0.7-0.7
				c-0.2-0.2-0.5-0.5-0.4-0.7v-2.2L17.6,39.3L17.6,39.3z"/>
			<path id="Path_4551" class="st6" d="M19.7,43.3l1.8,1.2v2.2c0,0.2,0,0.2-0.2,0.2C21.1,47,21.1,47,21.1,47h-0.2
				c-0.4,0-0.7-0.2-0.7-0.5L20,46.3c-0.2-0.2-0.2-0.5-0.4-0.7L19.7,43.3z"/>
			<path id="Path_4552" class="st6" d="M22.6,48.2l1.8,1.3v2c0,0.2,0,0.2-0.2,0.2c-0.1,0.1-0.1,0.1-0.1,0.1H24
				c-0.4,0-0.7-0.2-0.7-0.5L22.9,51c-0.2-0.2-0.2-0.4-0.2-0.7L22.6,48.2L22.6,48.2z"/>
			<path id="Path_4553" class="st6" d="M25.4,53.8l1.8,1.3L27,56.9c0,0.2-0.2,0.2-0.2,0.2h-0.2c-0.4,0-0.7-0.2-0.7-0.5l0,0
				c-0.2-0.4-0.2-0.7-0.2-1.2L25.4,53.8z"/>
			<path id="Path_4554" class="st7" d="M22.2,42c-0.4,0.2-0.7,0.2-0.7,0.2c-0.7,0.2-1.3,0.4-1.7,0.7c-0.4,1.1-0.5,2.2-0.5,3.2
				C19.2,43.4,18.6,42,22.2,42z"/>
			<path id="Path_4555" class="st6" d="M29.4,31.8l1.4,0.2c0.2,0,0.2,0.2,0.4,0.2c0.5,0.7-2.1,3.1-2.6,3.8L27,35.7
				c0.5-1.3,1.3-2.5,2.2-3.5C29,31.9,29.2,31.8,29.4,31.8z"/>
			<path id="Path_4556" class="st7" d="M24.5,46.9c-0.7,0-1.7,0.4-2.1,1.1c-0.2,0.9-0.4,2-0.4,3.1C21.9,49,21.3,46.8,24.5,46.9z"/>
			<path id="Path_4557" class="st7" d="M26.8,52.8c-1.8,0.1-1.8,0.9-1.9,2.6C24.7,53.3,24.6,52.6,26.8,52.8z"/>
			<path id="Path_4558" class="st7" d="M35.3,31.3c0.5,0.7,0.5,1.8-0.2,2.5c0.5-0.5,1.2-0.7,1.8-0.7C36.2,32.8,35.8,31.9,35.3,31.3z
				"/>
			<path id="Path_4559" class="st7" d="M44.4,32.7c-0.7,0.5-1.8,0.7-2.7,0.7c1.4,0.2,0.9,0.7,1.2,1.6C42.7,33.6,43.8,33.3,44.4,32.7
				z"/>
		</g>
	</g>
	<g id="Group_2422" transform="translate(403 -743.814)">
		<g class="st8">
			<path class="st9" d="M638.7,1253.1h4.6l4.3,11.9h0.1l4.3-11.9h4.7v16.7h-2.9v-13.4h0l-5.1,13.4h-2.1l-5-13.4h0v13.4h-2.8V1253.1z
				"/>
			<path class="st9" d="M664.5,1262.5l-6.3-9.5h3.6l4.2,7l4.2-7h3.4l-6.3,9.5v7.2h-3V1262.5z"/>
		</g>
		<g class="st8">
			<path class="st9" d="M639.2,1283.1H653v3.2h-10.1v5.3h9.6v3.1h-9.6v5.9h10.6v3.3h-14.4V1283.1z"/>
			<path class="st9" d="M663.1,1298.3h-7.1v-3h7.1V1298.3z"/>
			<path class="st9" d="M666.6,1283.1h5.8l5.4,14.8h0.1l5.4-14.8h5.8v20.9h-3.7v-16.8h-0.1l-6.3,16.8h-2.6l-6.3-16.8h-0.1v16.8h-3.5
				V1283.1z"/>
			<path class="st9" d="M710.4,1296.3c0,1.3-0.2,2.4-0.6,3.4s-1,1.9-1.8,2.6s-1.6,1.3-2.7,1.6c-1,0.4-2.1,0.6-3.3,0.6
				c-1.2,0-2.3-0.2-3.3-0.6c-1-0.4-1.9-0.9-2.7-1.6s-1.3-1.6-1.8-2.6s-0.6-2.1-0.6-3.4v-13.2h3.7v13.1c0,0.6,0.1,1.2,0.2,1.8
				c0.2,0.6,0.4,1.1,0.8,1.6c0.4,0.5,0.8,0.9,1.4,1.2c0.6,0.3,1.3,0.4,2.2,0.4s1.6-0.1,2.2-0.4c0.6-0.3,1.1-0.7,1.4-1.2
				c0.4-0.5,0.6-1,0.8-1.6c0.2-0.6,0.2-1.2,0.2-1.8v-13.1h3.7V1296.3z M697,1279.1c0-0.5,0.2-1,0.6-1.4c0.4-0.4,0.9-0.6,1.5-0.6
				c0.6,0,1.1,0.2,1.5,0.6c0.4,0.4,0.6,0.9,0.6,1.5c0,0.6-0.2,1.1-0.6,1.5c-0.4,0.4-0.9,0.6-1.5,0.6c-0.6,0-1.1-0.2-1.5-0.6
				C697.2,1280.2,697,1279.7,697,1279.1z M702.8,1279.1c0-0.5,0.2-1,0.6-1.4c0.4-0.4,0.9-0.6,1.5-0.6s1.1,0.2,1.5,0.6
				c0.4,0.4,0.6,0.9,0.6,1.5c0,0.6-0.2,1.1-0.6,1.5c-0.4,0.4-0.9,0.6-1.5,0.6s-1.1-0.2-1.5-0.6S702.8,1279.7,702.8,1279.1z"/>
			<path class="st9" d="M719,1286.4h-6.4v-3.2h16.5v3.2h-6.4v17.6H719V1286.4z"/>
			<path class="st9" d="M736.3,1283.1h3.2l9,20.9h-4.2l-1.9-4.8h-9.1l-1.9,4.8h-4.2L736.3,1283.1z M741.1,1296l-3.2-8.5l-3.3,8.5
				H741.1z"/>
			<path class="st9" d="M750.6,1283.1h8.1c0.8,0,1.6,0.1,2.3,0.3c0.8,0.2,1.4,0.5,2,0.9s1.1,1,1.5,1.6c0.4,0.7,0.6,1.5,0.6,2.4
				c0,1.2-0.3,2.2-1,2.9c-0.7,0.8-1.5,1.3-2.6,1.7v0.1c1.3,0.2,2.4,0.7,3.2,1.5c0.8,0.8,1.3,2,1.3,3.4c0,1.1-0.2,2.1-0.7,2.9
				s-1,1.4-1.8,1.9s-1.6,0.8-2.5,1s-1.9,0.3-2.9,0.3h-7.5V1283.1z M754.3,1291.6h3.3c1.2,0,2.2-0.2,2.8-0.7c0.6-0.5,1-1.2,1-2.1
				c0-0.9-0.3-1.6-1-2c-0.7-0.4-1.7-0.6-3.1-0.6h-3V1291.6z M754.3,1300.9h3.3c0.5,0,1,0,1.5-0.1c0.5-0.1,1.1-0.2,1.5-0.4
				c0.5-0.2,0.8-0.5,1.2-0.9c0.3-0.4,0.5-1,0.5-1.7c0-1.1-0.4-1.9-1.1-2.3c-0.7-0.4-1.9-0.6-3.4-0.6h-3.5V1300.9z"/>
			<path class="st9" d="M776.2,1283.1h3.2l9,20.9h-4.2l-1.9-4.8h-9.1l-1.9,4.8h-4.2L776.2,1283.1z M780.9,1296l-3.2-8.5l-3.3,8.5
				H780.9z"/>
			<path class="st9" d="M790.5,1283.1h3.7v9h0.1l8.7-9h5l-9.8,9.6l10.4,11.2h-5.2l-9.2-10.5h-0.1v10.5h-3.7V1283.1z"/>
			<path class="st9" d="M817,1283.1h3.2l9,20.9H825l-1.9-4.8H814l-1.9,4.8h-4.2L817,1283.1z M821.7,1296l-3.2-8.5l-3.3,8.5H821.7z"
				/>
			<path class="st9" d="M833.7,1286.4h-6.4v-3.2h16.5v3.2h-6.4v17.6h-3.7V1286.4z"/>
		</g>
	</g>
	<g id="Group_2436" transform="translate(947 541.447)">
		<path id="Path_4484" class="st10" d="M59.2,25.7c12,6.9,12,18.1,0,25s-31.4,6.9-43.4,0s-12-18.1,0-25S47.2,18.7,59.2,25.7z"/>
		<path id="Path_4485" class="st11" d="M57.8,26.5C69,33,69,43.4,57.8,49.8s-29.2,6.5-40.4,0s-11.2-16.9,0-23.4S46.5,19.9,57.8,26.5
			z"/>
		<path id="Path_4486" class="st12" d="M56.2,27.2c10.4,6,10.4,15.7,0,21.8S29,55,18.7,49s-10.4-15.7,0-21.8S45.9,21.3,56.2,27.2z"
			/>
		<path id="Path_4487" class="st13" d="M54.7,28.1c9.5,5.6,9.5,14.5,0,20s-25.1,5.6-34.6,0.1s-9.5-14.5,0-20S45.3,22.6,54.7,28.1z"
			/>
		<path id="Path_4488" class="st14" d="M53.3,29c8.7,5.1,8.7,13.3,0,18.4s-22.9,5.1-31.6,0S13,34.1,21.7,29S44.6,23.9,53.3,29z"/>
		<path id="Path_4489" class="st15" d="M51.9,29.7c8,4.6,8,12,0,16.7S31,51,23,46.4s-8-12,0-16.7C30.9,25.2,44,25.2,51.9,29.7z"/>
		<path id="Path_4490" class="st16" d="M50.4,30.6c7.2,4.1,7.2,10.9,0,15s-18.8,4.1-25.9,0s-7.2-10.9,0-15S43.3,26.5,50.4,30.6z"/>
		<path id="Path_4491" class="st17" d="M49,31.5c6.4,3.6,6.4,9.6,0,13.3c-6.4,3.6-16.7,3.6-22.9,0c-6.3-3.6-6.4-9.6,0-13.3
			S42.6,27.8,49,31.5z"/>
		<path id="Path_4492" class="st18" d="M47.6,32.4c5.6,3.1,5.6,8.4,0,11.8s-14.5,3.1-20.2,0s-5.6-8.4,0-11.8S42,29.1,47.6,32.4z"/>
		<path id="Path_4493" class="st19" d="M46,33.3c4.7,2.7,4.7,7.2,0,9.9c-5.5,2.7-11.8,2.7-17.2-0.1c-4.7-2.7-4.7-7.2,0-9.9
			C34.3,30.4,40.7,30.4,46,33.3z"/>
		<path id="Path_4494" class="st20" d="M44.6,34c4.1,2.2,4.1,6,0,8.2c-4.4,2.2-9.8,2.2-14.3,0c-4.1-2.2-4.1-6,0-8.2
			C34.9,31.7,40.2,31.7,44.6,34z"/>
		<path id="Path_4495" class="st21" d="M43.1,34.9c3.1,1.8,3.1,4.7,0,6.6c-3.5,1.8-7.8,1.8-11.4,0c-3.1-1.8-3.1-4.7,0-6.6
			C35.4,33,39.7,33,43.1,34.9z"/>
		<path id="Path_4496" class="st22" d="M41.7,35.8c2.3,1.3,2.3,3.5,0,5c-2.7,1.3-5.7,1.3-8.4,0c-2.3-1.3-2.3-3.5,0-5
			C35.9,34.3,39,34.3,41.7,35.8z"/>
		<path id="Path_4497" class="st23" d="M40.3,36.5c0.9,0.4,1.4,1.3,1.1,2.1c-0.2,0.5-0.7,0.9-1.1,1.1c-1.8,0.7-3.9,0.7-5.6,0
			c-0.9-0.4-1.4-1.3-1-2.1c0.2-0.5,0.7-0.9,1.1-1.1C36.4,35.8,38.5,35.8,40.3,36.5z"/>
	</g>
</g>
</svg>
