<?xml version="1.0" encoding="utf-8"?>
<!-- Generator: Adobe Illustrator 22.1.0, SVG Export Plug-In . SVG Version: 6.00 Build 0)  -->
<svg version="1.1" id="Layer_1" xmlns="http://www.w3.org/2000/svg" xmlns:xlink="http://www.w3.org/1999/xlink" x="0px" y="0px"
	 viewBox="0 0 310 120" style="enable-background:new 0 0 310 120;" xml:space="preserve">
<style type="text/css">
	.st0{enable-background:new    ;}
	.st1{opacity:3.000000e-03;fill:#040507;enable-background:new    ;}
	.st2{opacity:7.000000e-03;fill:#080A0D;enable-background:new    ;}
	.st3{opacity:1.000000e-02;fill:#0B0E14;enable-background:new    ;}
	.st4{opacity:1.300000e-02;fill:#0F131B;enable-background:new    ;}
	.st5{opacity:1.700000e-02;fill:#131822;enable-background:new    ;}
	.st6{opacity:2.000000e-02;fill:#171D29;enable-background:new    ;}
	.st7{opacity:2.300000e-02;fill:#1B2230;enable-background:new    ;}
	.st8{opacity:2.700000e-02;fill:#1F2737;enable-background:new    ;}
	.st9{opacity:3.000000e-02;fill:#232C3F;enable-background:new    ;}
	.st10{opacity:3.300000e-02;fill:#273246;enable-background:new    ;}
	.st11{opacity:3.700000e-02;fill:#2B374D;enable-background:new    ;}
	.st12{opacity:4.000000e-02;fill:#2F3C54;enable-background:new    ;}
	.st13{opacity:4.300000e-02;fill:#34415C;enable-background:new    ;}
	.st14{opacity:4.700000e-02;fill:#384763;enable-background:new    ;}
	.st15{fill:#7B8C91;}
	.st16{fill:#E6EAEB;}
	.st17{fill:#E8B02C;}
	.st18{fill:#D49D1E;}
	.st19{fill:#FAC13C;}
	.st20{fill:#475357;}
	.st21{fill:#A0ADB0;}
	.st22{fill:#30383B;}
	.st23{fill:#0D8FB3;}
	.st24{fill:#067796;}
	.st25{fill:#0D99BF;}
	.st26{fill:#BFC7C9;}
</style>
<g id="Group_2691" transform="translate(-597.49 -275.265)">
	<g id="Group_2499">
		<g id="Group_2429" transform="translate(248 -304)">
			<g class="st0">
				<path d="M495.7,598.2h4.6l4.3,11.6h0.1l4.2-11.6h4.6v16.4h-2.9v-13.2h0l-5,13.2h-2l-4.9-13.2h0v13.2h-2.8V598.2z"/>
				<path d="M521,607.5l-6.2-9.3h3.6l4.1,6.9l4.2-6.9h3.4l-6.2,9.3v7.1H521V607.5z"/>
			</g>
			<g class="st0">
				<path d="M496.2,627.7h13.6v3.2h-9.9v5.2h9.4v3.1h-9.4v5.8h10.4v3.2h-14.1V627.7z"/>
				<path d="M519.7,642.5h-6.9v-3h6.9V642.5z"/>
				<path d="M529.5,627.7h3.2l8.8,20.5h-4.2l-1.9-4.7h-8.9l-1.9,4.7h-4.1L529.5,627.7z M534.1,640.4L531,632l-3.2,8.3H534.1z"/>
				<path d="M543.5,627.7h7.1c1,0,1.9,0.1,2.8,0.3s1.7,0.5,2.4,1c0.7,0.5,1.3,1.1,1.7,1.8c0.4,0.8,0.6,1.7,0.6,2.7
					c0,1.5-0.4,2.7-1.3,3.6c-0.8,0.9-2,1.6-3.4,1.9l5.5,9.1h-4.4l-4.7-8.7h-2.7v8.7h-3.6V627.7z M550.1,636.5c0.5,0,1,0,1.6-0.1
					s1-0.2,1.4-0.4c0.4-0.2,0.8-0.5,1-0.9c0.3-0.4,0.4-0.9,0.4-1.5c0-0.6-0.1-1-0.4-1.4c-0.3-0.4-0.6-0.6-1-0.9s-0.8-0.4-1.3-0.4
					c-0.5-0.1-1-0.1-1.4-0.1h-3.3v5.8H550.1z"/>
				<path d="M572.1,632c-0.4-0.5-0.9-0.9-1.6-1.3c-0.7-0.3-1.4-0.5-2.1-0.5c-0.4,0-0.8,0.1-1.3,0.2c-0.4,0.1-0.8,0.3-1.2,0.5
					c-0.3,0.2-0.6,0.5-0.9,0.9c-0.2,0.4-0.3,0.8-0.3,1.3c0,0.5,0.1,0.9,0.3,1.2c0.2,0.3,0.5,0.6,0.8,0.8s0.7,0.4,1.2,0.6
					c0.5,0.2,1,0.3,1.6,0.5c0.7,0.2,1.3,0.5,2,0.7c0.7,0.3,1.3,0.6,1.9,1.1s1.1,1,1.4,1.7c0.4,0.7,0.6,1.5,0.6,2.5
					c0,1-0.2,1.9-0.5,2.7c-0.3,0.8-0.8,1.4-1.4,2c-0.6,0.5-1.3,1-2.1,1.3c-0.8,0.3-1.6,0.5-2.5,0.6l-1,1.4c0.1,0,0.2,0,0.3,0
					c0.1,0,0.2,0,0.2,0c0.4,0,0.7,0,1.1,0.1c0.4,0.1,0.7,0.2,1,0.4c0.3,0.2,0.5,0.4,0.7,0.7c0.2,0.3,0.3,0.7,0.3,1.2
					c0,0.5-0.1,1-0.4,1.3c-0.3,0.4-0.6,0.6-0.9,0.8c-0.4,0.2-0.8,0.3-1.3,0.4s-0.9,0.1-1.3,0.1c-0.6,0-1.2-0.1-1.7-0.2
					s-1.1-0.3-1.5-0.5l0.7-1.4c0.7,0.4,1.5,0.6,2.4,0.6c0.2,0,0.3,0,0.5,0c0.2,0,0.4-0.1,0.5-0.2s0.3-0.2,0.4-0.4
					c0.1-0.2,0.2-0.4,0.2-0.6c0-0.2-0.1-0.4-0.2-0.5c-0.1-0.1-0.2-0.2-0.4-0.3s-0.3-0.1-0.5-0.2c-0.2,0-0.3,0-0.5,0
					c-0.2,0-0.3,0-0.5,0c-0.2,0-0.4,0.1-0.6,0.1l-0.7-0.7l1.4-2.1c-1.2-0.1-2.4-0.4-3.5-0.9s-2-1.2-2.8-2l2.6-2.4
					c0.5,0.7,1.2,1.2,2,1.6c0.8,0.4,1.7,0.6,2.5,0.6c0.4,0,0.9-0.1,1.3-0.2c0.4-0.1,0.8-0.3,1.2-0.5c0.4-0.3,0.6-0.6,0.9-0.9
					s0.3-0.8,0.3-1.4c0-0.5-0.1-1-0.4-1.3c-0.3-0.4-0.6-0.7-1-0.9c-0.4-0.3-0.9-0.5-1.5-0.7c-0.6-0.2-1.2-0.4-1.8-0.6
					c-0.6-0.2-1.2-0.4-1.9-0.7c-0.6-0.3-1.2-0.6-1.7-1.1c-0.5-0.4-0.9-1-1.2-1.6c-0.3-0.6-0.5-1.5-0.5-2.4c0-1,0.2-1.9,0.7-2.7
					c0.4-0.8,1-1.4,1.7-1.9c0.7-0.5,1.5-0.9,2.4-1.1c0.9-0.2,1.8-0.4,2.7-0.4c1,0,2.1,0.2,3.2,0.5c1.1,0.4,2,0.9,2.8,1.6L572.1,632z
					"/>
				<path d="M577.8,623.8c0-0.6,0.2-1,0.6-1.5c0.4-0.4,0.9-0.6,1.6-0.6c0.6,0,1.2,0.2,1.6,0.6c0.4,0.4,0.7,0.9,0.7,1.5
					s-0.2,1.1-0.7,1.5c-0.4,0.4-1,0.6-1.6,0.6c-0.6,0-1.2-0.2-1.6-0.6C578.1,624.8,577.8,624.3,577.8,623.8z M578.3,627.7h3.6v20.5
					h-3.6V627.7z"/>
				<path d="M583.9,627.7h4.1l5.6,15.8h0.1l5.7-15.8h3.9l-8.2,20.5H592L583.9,627.7z"/>
			</g>
		</g>
		<g id="Group_2498" transform="translate(597.48 275.265)">
			<g id="Group_2493" transform="translate(0.01 58.313)">
				<path id="Path_4996" class="st1" d="M133.5,16.9c17.8,10.3,17.8,26.8,0,37.1S87,64.3,69.4,54s-17.9-27-0.2-37.1
					S115.8,6.6,133.5,16.9z"/>
				<path id="Path_4997" class="st2" d="M131.3,18.1c16.6,9.7,16.6,25.2,0,34.6s-43.3,9.7-59.9,0s-16.6-25.1,0-34.6
					S114.8,8.5,131.3,18.1z"/>
				<path id="Path_4998" class="st3" d="M129.2,19.2c15.4,8.9,15.4,23.3,0,32.2s-40.3,8.9-55.6,0s-15.4-23.3,0-32.2
					S113.9,10.5,129.2,19.2z"/>
				<path id="Path_4999" class="st4" d="M127,20.7c14.3,8.1,14.3,21.4,0,29.6s-37.1,8.1-51.4,0s-14.3-21.4,0-29.6
					S112.8,12.4,127,20.7z"/>
				<path id="Path_5000" class="st5" d="M125,21.8c13,7.5,13,19.7,0,27.1s-34,7.4-47,0s-13-19.7,0-27.1S111.8,14.3,125,21.8z"/>
				<path id="Path_5001" class="st6" d="M122.6,23c11.9,6.8,11.9,17.9,0,24.7s-30.9,6.8-42.6,0S68,29.9,79.9,23S111,16.2,122.6,23z"
					/>
				<path id="Path_5002" class="st7" d="M120.5,24.3c10.5,6,10.5,16,0,22.2s-27.7,6.2-38.4,0s-10.5-16,0-22.2S110.1,18.3,120.5,24.3
					z"/>
				<path id="Path_5003" class="st8" d="M118.3,25.4c9.4,5.5,9.4,14.3,0,19.8s-24.7,5.5-34.2,0s-9.4-14.3,0-19.8
					S109.1,20,118.3,25.4z"/>
				<path id="Path_5004" class="st9" d="M116.2,26.7c8.2,4.8,8.2,12.4,0,17.1s-21.6,4.8-29.8,0s-8.2-12.4,0-17.1
					S108,22.1,116.2,26.7z"/>
				<path id="Path_5005" class="st10" d="M114,28.1c7,4.1,7,10.8,0,14.6s-18.5,4.1-25.5,0s-7-10.8,0-14.6S107.1,24,114,28.1z"/>
				<path id="Path_5006" class="st11" d="M112.1,29.4c5.9,3.3,5.9,8.9,0,12.2s-15.4,3.3-21.2,0c-5.9-3.3-5.9-8.9,0-12.2
					C96.7,26.1,106.1,25.9,112.1,29.4z"/>
				<path id="Path_5007" class="st12" d="M109.9,30.5c4.6,2.5,4.6,7,0,9.8c-5.4,2.5-11.6,2.5-17,0c-4.6-2.5-4.6-7,0-9.8
					C98.2,27.8,104.5,27.8,109.9,30.5z"/>
				<path id="Path_5008" class="st13" d="M107.7,31.8c3.5,2.1,3.5,5.2,0,7.1c-4.1,2.1-8.7,2.1-12.5,0c-3.3-2.1-3.3-5.4,0.2-7.1
					C99.1,29.7,103.7,29.7,107.7,31.8z"/>
				<path id="Path_5009" class="st14" d="M105.5,33c2.2,1.3,2.2,3.5,0,4.8c-2.5,1.3-5.7,1.3-8.2,0c-2.2-1.3-2.2-3.5,0-4.8
					C99.9,31.8,102.8,31.8,105.5,33z"/>
			</g>
			<g id="Group_2497" transform="translate(9.262)">
				<path id="Path_5010" class="st15" d="M125.9,53.1L91.2,33H91h-0.2h-0.2h-0.2h-0.3h-0.2l0.2,0.2v0.2L59,51.1h-0.2l-0.2,0.2
					l-0.2,0.2l-0.2,0.2L58,51.9L57.9,52l-0.2,0.2l-0.2,0.2l34.7,20l0.2-0.2l0.2-0.2l0.2-0.2l0.2-0.2l0.2-0.2l0.2-0.2l0.2-0.2
					l0.2-0.2l31.1-17.9l0.2-0.2l0.2-0.2h0.2h0.2h0.2h-0.3L125.9,53.1L125.9,53.1z"/>
				<path id="Path_5011" class="st16" d="M126.6,54.1c0.2-0.5-0.2-1.1-0.8-1.1c-0.2,0-0.8,0-1,0.2L93.6,71c-0.5,0.2-1,0.8-1.1,1.1
					l0,0c-0.2,0.5-0.5,1.1-0.5,1.6v10.8c-0.2,0.5,0.2,1.1,0.8,1.1c0.2,0,0.8,0,1-0.2l31.1-17.9c0.5-0.2,1-0.8,1.1-1.1l0,0
					c0.2-0.5,0.5-1.1,0.5-1.6C126.6,64.7,126.6,54.1,126.6,54.1z"/>
				<g id="Group_2494" transform="translate(55.507 50.858)">
					<path id="Path_5012" class="st17" d="M69.7,8.2l-0.5-0.3l-3,1.6l0.5,0.2L69.7,8.2z"/>
					<path id="Path_5013" class="st18" d="M66.5,10L66,9.8v3.5l0.5,0.2V10z"/>
					<path id="Path_5014" class="st19" d="M66.5,13.4l3.2-1.6V8.4l-3,1.6L66.5,13.4C66.6,13.4,66.5,13.4,66.5,13.4z"/>
				</g>
				<path id="Path_5015" class="st20" d="M95.5,77.8c-0.2,0.2-0.3,0-0.3-0.2s0.2-0.5,0.3-0.8l17.9-10.3c0.2-0.2,0.3,0,0.3,0.2
					s-0.2,0.5-0.3,0.8L95.5,77.8z"/>
				<path id="Path_5016" class="st21" d="M92.5,72.3l-34.7-20l0,0l-0.2,0.2v0.2l-0.2,0.2L57.3,53v0.2v0.2v0.3v0.8v10.8v0.2v0.2l0,0
					l0,0l0.2,0.2l0.2,0.2l0.2,0.2l0.2,0.3l34.7,20l-0.2-0.2l-0.2-0.3l-0.2-0.2v-0.3v-0.2V85v-0.2v-0.2V73.9v-0.2v-0.2v-0.2v-0.2
					l0.2-0.2L92.5,72.3L92.5,72.3L92.5,72.3z"/>
				<path id="Path_5017" class="st22" d="M112.5,66.9l0.8-0.5c0.2-0.2,0.3,0,0.3,0.2s-0.2,0.5-0.3,0.8l0,0L112.5,66.9z"/>
				<path id="Path_5018" class="st23" d="M120.9,61.5l-0.5-0.2l-3,1.6l0.5,0.2L120.9,61.5z"/>
				<path id="Path_5019" class="st24" d="M117.7,63.3l-0.6-0.2v3.5l0.5,0.2L117.7,63.3C117.6,63.3,117.7,63.3,117.7,63.3z"/>
				<path id="Path_5020" class="st25" d="M117.7,66.7l3-1.6v-3.6l-3,1.6V66.7z"/>
				<path id="Path_5021" class="st15" d="M125.9,36.8L91.2,16.6H91h-0.2h-0.2h-0.2h-0.3h-0.2l0.2,0.2V17L59,34.7h-0.2l-0.2,0.2
					l-0.2,0.3l-0.2,0.2L58,35.6l-0.2,0.2L57.6,36l-0.3,0.3l34.7,20l0.2-0.2l0.2-0.2l0.2-0.2l0.2-0.2l0.2-0.2l0.2-0.2l0.2-0.2
					l0.2-0.2l31.1-17.9l0.2-0.2l0.2-0.2h0.2h0.2h-0.2h0.2L125.9,36.8L125.9,36.8z"/>
				<path id="Path_5022" class="st16" d="M126.6,37.7c0.2-0.5-0.2-1.1-0.8-1.1c-0.2,0-0.8,0-1,0.2L93.9,54.7c-0.5,0.2-1,0.8-1.1,1.1
					l0,0c-0.2,0.5-0.5,1.1-0.5,1.6v10.8c-0.2,0.5,0.2,1.1,0.8,1.1c0.2,0,0.8,0,1-0.2l31.1-17.9c0.5-0.2,1-0.8,1.1-1.1l0,0
					c0.2-0.5,0.5-1.1,0.5-1.6V37.7H126.6z"/>
				<g id="Group_2495" transform="translate(55.507 36.771)">
					<path id="Path_5023" class="st17" d="M69.7,6.1l-0.5-0.3l-3,1.6l0.5,0.2L69.7,6.1z"/>
					<path id="Path_5024" class="st18" d="M66.5,7.7L66,7.6v3.5l0.5,0.2V7.7z"/>
					<path id="Path_5025" class="st19" d="M66.5,11.2l3.2-1.6V6.1l-3,1.6L66.5,11.2L66.5,11.2z"/>
				</g>
				<path id="Path_5026" class="st20" d="M95.5,61.5c-0.2,0.2-0.3,0-0.3-0.2s0.2-0.5,0.3-0.8l17.9-10.3c0.2-0.2,0.3,0,0.3,0.2
					s-0.2,0.5-0.3,0.8L95.5,61.5z"/>
				<path id="Path_5027" class="st21" d="M92.5,56L57.8,36.1l0,0l-0.2,0.2v0.2l-0.2,0.2l-0.2,0.2v0.2v0.2v0.6v0.2v10.8v0.2V49v0.2
					v0.2l0.2,0.2l0.2,0.2l0.2,0.2l0.2,0.2l34.7,20l-0.2-0.5l-0.2-0.3L92.2,69v-0.2v-0.2v-0.2v-0.2V68V57.7v-0.2v-0.2v-0.2v-0.5
					l0.2-0.2L92.5,56L92.5,56L92.5,56z"/>
				<path id="Path_5028" class="st22" d="M112.5,50.7l0.8-0.5c0.2-0.2,0.3,0,0.3,0.2s-0.2,0.5-0.3,0.8l0,0L112.5,50.7z"/>
				<path id="Path_5029" class="st23" d="M120.9,45.3l-0.5-0.2l-3,1.6l0.5,0.2L120.9,45.3z"/>
				<path id="Path_5030" class="st24" d="M117.7,46.9l-0.5-0.2v3.5l0.5,0.2V46.9z"/>
				<path id="Path_5031" class="st25" d="M117.7,50.4l3-1.6v-3.5l-3,1.6V50.4z"/>
				<path id="Path_5032" class="st26" d="M125.9,20L91.2,0H91h-0.2h-0.2h-0.2h-0.3h-0.2l0.2,0.2l0,0L59,18.1l-0.2,0.2l-0.2,0.2
					l-0.2,0.3L58.2,19l0,0L58,19.2l-0.2,0.2l0.2-0.2l34.7,20L93,39l0.2-0.2l0.2-0.2l0.2-0.2l0.2-0.2L94,38l0.2-0.2l0.2-0.2L125.2,20
					l0.2-0.2l0.2-0.2h0.2h0.2h-0.5h0.2L125.9,20L125.9,20z"/>
				<path id="Path_5033" class="st16" d="M126.6,21.2c0.2-0.5-0.2-1.1-0.8-1.1c-0.2,0-0.8,0-1,0.2L93.9,38.4c-0.5,0.2-1,0.8-1.1,1.1
					l0,0c-0.2,0.5-0.5,1.1-0.5,1.6v10.8c-0.2,0.5,0.2,1.1,0.8,1.1c0.2,0,0.8,0,1-0.2l31.1-17.9c0.5-0.2,1-0.8,1.1-1.1l0,0
					c0.2-0.5,0.5-1.1,0.5-1.6C126.6,32,126.6,21.2,126.6,21.2z"/>
				<g id="Group_2496" transform="translate(55.507 22.402)">
					<path id="Path_5034" class="st17" d="M69.7,3.8l-0.5-0.2l-3,1.6l0.5,0.2L69.7,3.8z"/>
					<path id="Path_5035" class="st18" d="M66.5,5.5L66,5.3v3.3l0.5,0.2V5.5z"/>
					<path id="Path_5036" class="st19" d="M66.5,9l3.2-1.6V3.8l-3,1.6L66.5,9L66.5,9z"/>
				</g>
				<path id="Path_5037" class="st20" d="M95.5,44.9c-0.2,0.2-0.3,0-0.3-0.2s0.2-0.5,0.3-0.8l17.9-10.3c0.2-0.2,0.3,0,0.3,0.2
					s-0.2,0.5-0.3,0.8L95.5,44.9z"/>
				<path id="Path_5038" class="st21" d="M92.5,39.5l-34.7-20l0,0l-0.2,0.2v0.2L57.5,20l-0.2,0.2v0.2v0.2v0.5v0.2v10.8V32v0.2v0.2
					v0.2l0.2,0.5l0.2,0.2l0.2,0.2l0.2,0.2l34.7,20l-0.2-0.2l-0.2-0.8h-0.2v-0.2v-0.2V52v-0.2v-0.2V41.2v-0.3v-0.2v-0.2v-0.2l0.2-0.2
					l0.2-0.2v-0.4H92.5z"/>
				<path id="Path_5039" class="st22" d="M112.5,34.1l0.8-0.5c0.2-0.2,0.3,0,0.3,0.2s-0.2,0.5-0.3,0.8l0,0L112.5,34.1z"/>
				<path id="Path_5040" class="st23" d="M120.9,28.7l-0.5-0.2l-3,1.6l0.5,0.2L120.9,28.7z"/>
				<path id="Path_5041" class="st24" d="M117.7,30.6l-0.5-0.2v3.5l0.5,0.2V30.6z"/>
				<path id="Path_5042" class="st25" d="M117.7,33.9l3-1.6v-3.5l-3,1.6V33.9z"/>
			</g>
		</g>
	</g>
</g>
</svg>
