<?xml version="1.0" encoding="utf-8"?>
<!-- Generator: Adobe Illustrator 22.1.0, SVG Export Plug-In . SVG Version: 6.00 Build 0)  -->
<svg version="1.1" id="Layer_1" xmlns="http://www.w3.org/2000/svg" xmlns:xlink="http://www.w3.org/1999/xlink" x="0px" y="0px"
	 viewBox="0 0 310 120" style="enable-background:new 0 0 310 120;" xml:space="preserve">
<style type="text/css">
	.st0{opacity:3.000000e-03;fill:#040507;enable-background:new    ;}
	.st1{opacity:7.000000e-03;fill:#080A0D;enable-background:new    ;}
	.st2{opacity:1.000000e-02;fill:#0B0E14;enable-background:new    ;}
	.st3{opacity:1.300000e-02;fill:#0F131B;enable-background:new    ;}
	.st4{opacity:1.700000e-02;fill:#131822;enable-background:new    ;}
	.st5{opacity:2.000000e-02;fill:#171D29;enable-background:new    ;}
	.st6{opacity:2.300000e-02;fill:#1B2230;enable-background:new    ;}
	.st7{opacity:2.700000e-02;fill:#1F2737;enable-background:new    ;}
	.st8{opacity:3.000000e-02;fill:#232C3F;enable-background:new    ;}
	.st9{opacity:3.300000e-02;fill:#273246;enable-background:new    ;}
	.st10{opacity:3.700000e-02;fill:#2B374D;enable-background:new    ;}
	.st11{opacity:4.000000e-02;fill:#2F3C54;enable-background:new    ;}
	.st12{opacity:4.300000e-02;fill:#34415C;enable-background:new    ;}
	.st13{opacity:4.700000e-02;fill:#384763;enable-background:new    ;}
	.st14{fill:#9C9C9C;}
	.st15{fill:#E6EAEB;}
	.st16{fill:#30383B;}
	.st17{fill:#D44F3E;}
	.st18{fill:#F25E4B;}
	.st19{fill:#F0B11D;}
	.st20{fill:#FAC13C;}
	.st21{enable-background:new    ;}
	.st22{fill:#1F1E1E;}
</style>
<g id="Group_2690" transform="translate(-216.1 -581)">
	<g id="Group_2404" transform="translate(216.15 581)">
		<g id="Group_2401" transform="translate(-0.05 53.791)">
			<path id="Path_4560" class="st0" d="M114.9,22.1C132,32,132,48.2,114.9,58s-45.1,9.9-62.3,0c-17.1-9.9-17.1-26.1,0-35.9
				C69.8,12.1,97.6,12.1,114.9,22.1z"/>
			<path id="Path_4561" class="st1" d="M112.7,23.3c15.9,9.3,15.9,24.3,0,33.4s-42,9.1-58,0c-15.9-9.3-15.9-24.3,0-33.4
				S96.8,14,112.7,23.3z"/>
			<ellipse id="Ellipse_52" class="st2" cx="83.8" cy="40.1" rx="38" ry="21.9"/>
			<path id="Path_4562" class="st3" d="M108.5,25.6c13.7,8,13.7,20.8,0,28.7s-35.9,8-49.6,0s-13.7-20.8,0-28.7S94.9,17.8,108.5,25.6
				z"/>
			<path id="Path_4563" class="st4" d="M106.5,26.8C119,34,119,45.9,106.5,53s-33,7.2-45.5,0s-12.5-19.1,0-26.2
				C73.6,19.6,94,19.6,106.5,26.8z"/>
			<path id="Path_4564" class="st5" d="M104.4,28.1c11.5,6.5,11.5,17.2,0,23.9S74.5,58.5,63,52s-11.5-17.2,0-23.9
				S92.9,21.5,104.4,28.1z"/>
			<path id="Path_4565" class="st6" d="M102.4,29.3c10.3,5.9,10.3,15.5,0,21.5s-26.9,5.9-37.3,0s-10.3-15.5,0-21.5
				S92.1,23.3,102.4,29.3z"/>
			<path id="Path_4566" class="st7" d="M100.3,30.5c9.1,5.3,9.1,13.8,0,19.1s-23.9,5.3-33,0s-9.1-13.8,0-19.1
				C76.3,25.2,91.2,25.2,100.3,30.5z"/>
			<path id="Path_4567" class="st8" d="M98.1,31.7c8,4.7,8,12.1,0,16.6c-8,4.7-20.9,4.7-28.9,0s-8-12.1,0-16.6S90.1,27.1,98.1,31.7z
				"/>
			<path id="Path_4568" class="st9" d="M96.2,32.8c6.8,4,6.8,10.3,0,14.1c-6.8,4-17.8,4-24.6,0c-6.8-4-6.8-10.3,0-14.1
				S89.3,29,96.2,32.8z"/>
			<path id="Path_4569" class="st10" d="M94,34.2c5.6,3.2,5.6,8.5,0,11.8c-5.6,3.2-14.9,3.2-20.5,0s-5.6-8.5,0-11.8
				S88.4,30.8,94,34.2z"/>
			<path id="Path_4570" class="st11" d="M91.9,35.2c4.6,2.7,4.6,6.8,0,9.4c-5.2,2.7-11.2,2.7-16.3,0c-4.6-2.7-4.6-6.8,0-9.4
				C80.7,32.7,86.8,32.7,91.9,35.2z"/>
			<path id="Path_4571" class="st12" d="M89.8,36.5c3.2,1.9,3.2,5.2,0,7.1c-3.8,1.9-8.2,1.9-12.2,0c-3.2-1.9-3.2-5.2,0-7.1
				C81.5,34.5,86,34.5,89.8,36.5z"/>
			<path id="Path_4572" class="st13" d="M87.8,37.7c2.2,1.3,2.2,3.2,0,4.7c-2.5,1.3-5.6,1.3-8.1,0c-2.2-1.3-2.2-3.2,0-4.7
				C82.3,36.4,85.3,36.4,87.8,37.7z"/>
		</g>
		<g id="Group_2403" transform="translate(8.258)">
			<path id="Path_4573" class="st14" d="M41.9,85.6V86l0.1,0.3l0.1,0.3l0.1,0.3l0.1,0.3l0.1,0.3l0.3,0.1l0.3,0.1l2.5,1.3l0,0H45
				l-0.1-0.3l-0.1-0.3L44.6,88l-0.1-0.1v-0.4V41.4l0.1-0.4l0.1-0.4l0.1-0.4l0.1-0.4l0.1-0.4l0.3-0.4c0.1-0.3,0.3-0.4,0.4-0.7
				l0.3-0.4l0.3-0.4l0.3-0.3l0.3-0.3l0.3-0.4l0.3-0.3l0.4-0.3l57.7-32.8L106,3l0.3-0.1l0.3-0.1l0.3-0.1h0.6l0.1,0.1l0.3,0.1
				l-2.5-1.3l-0.3-0.1l-0.3-0.1h-0.6l-0.3,0.1l-0.3,0.1l-0.3,0.1l-0.4,0.1L45,34.8l-0.4,0.3l-0.3,0.1L44,35.5l-0.3,0.3l-0.3,0.4
				l-0.3,0.4v0.1c-0.1,0.3-0.3,0.4-0.4,0.7L42.4,38l-0.3,0.4L42,38.8l0.1,0.3L42,39.5v0.4v45.7H41.9z"/>
			<path id="Path_4574" class="st15" d="M106,55.3c0.9-0.6,1.6-1.3,2.2-2.2l0,0c0.4-1,0.9-2.1,0.9-3.1V4.6c0.1-0.7-0.3-1.6-0.9-2.1
				c-0.7-0.4-1.5-0.3-2.2,0.3L47.4,36.4c-0.9,0.6-1.6,1.3-2.2,2.4l0,0c-0.4,0.9-0.9,1.9-0.9,2.9v45.4c-0.1,0.7,0.3,1.6,0.9,2.1
				c0.7,0.4,1.5,0.3,2.2-0.3L106,55.3z"/>
			<path id="Path_4575" class="st16" d="M55.8,70.4C55.3,70.7,55,70.6,55,70s0.4-1,0.7-1.3l20.9-12.1c0.4-0.3,0.7-0.1,0.7,0.4
				c0,0.6-0.4,0.9-0.7,1.3L55.8,70.4z M76.7,49.2L55.8,61.3C55.3,61.6,55,62,55,62.6c0,0.4,0.4,0.7,0.7,0.4l21-12
				c0.4-0.3,0.7-0.7,0.7-1.3C77.6,49.2,77.1,49.1,76.7,49.2z M55.8,45c-0.4,0.3-0.7,0.1-0.7-0.4c0-0.6,0.4-1,0.7-1.3l41.7-24.1
				c0.4-0.3,0.7-0.1,0.7,0.4s-0.4,1-0.7,1.3L55.8,45z"/>
			<g id="Group_2402" transform="translate(31.43 39.09)">
				<path id="Path_4576" class="st17" d="M51.8,29.1l-0.4-0.3l0,0V29l0,0v0.1l0.4,0.3V29.1L51.8,29.1L51.8,29.1z"/>
				<path id="Path_4577" class="st17" d="M51.8,29.1l-0.4-0.3L50,31.9l0.4,0.3L51.8,29.1z"/>
				<path id="Path_4578" class="st17" d="M54.7,29.3L54.3,29l0.1,0.1v0.1l0.4,0.3L54.7,29.3L54.7,29.3z"/>
				<path id="Path_4579" class="st17" d="M54.7,29.6l-0.4-0.3l1.2,3.2l0.4,0.3L54.7,29.6z"/>
				<path id="Path_4580" class="st17" d="M60.9,20l-0.4-0.4l0,0L60.9,20z"/>
				<path id="Path_4581" class="st17" d="M60.9,20l-0.4-0.4h-0.1L60.9,20L60.9,20z"/>
				<path id="Path_4582" class="st17" d="M60.8,20l-0.4-0.4v0.1L60.8,20L60.8,20z"/>
				<path id="Path_4583" class="st17" d="M60.8,20l-0.4-0.3l0,0L60.8,20z"/>
				<path id="Path_4584" class="st17" d="M60.8,20l-0.4-0.3l0,0L60.8,20L60.8,20z"/>
				<path id="Path_4585" class="st17" d="M60.6,20l-0.4-0.3H60L60.6,20z"/>
				<path id="Path_4586" class="st17" d="M60.6,20l-0.4-0.3l0,0L60.6,20L60.6,20z"/>
				<path id="Path_4587" class="st17" d="M60.6,20l-0.4-0.3l0,0L60.6,20z"/>
				<path id="Path_4588" class="st17" d="M60.6,20l-0.4-0.3L60,19.9L60.6,20L60.6,20z"/>
				<path id="Path_4589" class="st17" d="M60.6,20.1l-0.4-0.3l0,0L60.6,20.1z"/>
				<path id="Path_4590" class="st17" d="M60.6,20.1l-0.4-0.3H60L60.6,20.1L60.6,20.1z"/>
				<path id="Path_4591" class="st17" d="M60.5,20.1L60,19.9l0,0L60.5,20.1z"/>
				<path id="Path_4592" class="st17" d="M60.5,20.1L60,19.9l0,0L60.5,20.1L60.5,20.1z"/>
				<path id="Path_4593" class="st17" d="M60.5,20.1L60,19.9l0,0L60.5,20.1z"/>
				<path id="Path_4594" class="st17" d="M60.5,20.1L60,19.9h-0.1L60.5,20.1L60.5,20.1z"/>
				<path id="Path_4595" class="st17" d="M60.3,20.1l-0.4-0.3V20L60.3,20.1L60.3,20.1z"/>
				<path id="Path_4596" class="st17" d="M60.3,20.1l-0.4-0.3h-0.1L60.3,20.1C60.2,20.1,60.3,20.1,60.3,20.1z"/>
				<path id="Path_4597" class="st17" d="M60.2,20.1l-0.4-0.3l0,0L60.2,20.1L60.2,20.1z"/>
				<path id="Path_4598" class="st17" d="M60.2,20.1l-0.4-0.3l0,0L60.2,20.1z"/>
				<path id="Path_4599" class="st17" d="M60.2,20.1l-0.4-0.3h-0.1L60.2,20.1L60.2,20.1z"/>
				<path id="Path_4600" class="st17" d="M60,20.1l-0.4-0.3l0,0L60,20.1z"/>
				<path id="Path_4601" class="st17" d="M60,20.1l-0.4-0.3V20L60,20.1L60,20.1z"/>
				<path id="Path_4602" class="st17" d="M59.9,20.1L59.4,20l0,0L59.9,20.1L59.9,20.1z"/>
				<path id="Path_4603" class="st17" d="M59.9,20.3L59.4,20l0,0L59.9,20.3L59.9,20.3z"/>
				<path id="Path_4604" class="st17" d="M59.9,20.3L59.4,20l0,0L59.9,20.3z"/>
				<path id="Path_4605" class="st17" d="M59.9,20.3L59.4,20h-0.1L59.9,20.3L59.9,20.3z"/>
				<path id="Path_4606" class="st17" d="M59.9,20.3L59.4,20l0,0L59.9,20.3L59.9,20.3z"/>
				<path id="Path_4607" class="st17" d="M59.9,20.3L59.4,20l0,0L59.9,20.3z"/>
				<path id="Path_4608" class="st17" d="M59.9,20.3L59.4,20l0,0L59.9,20.3L59.9,20.3z"/>
				<path id="Path_4609" class="st17" d="M59.7,20.3L59.3,20h-0.1L59.7,20.3z"/>
				<path id="Path_4610" class="st17" d="M59.7,20.3L59.3,20l0,0L59.7,20.3L59.7,20.3z"/>
				<path id="Path_4611" class="st17" d="M59.7,20.3L59.3,20h-0.1L59.7,20.3L59.7,20.3z"/>
				<path id="Path_4612" class="st17" d="M59.6,20.3L59.1,20l0,0L59.6,20.3z"/>
				<path id="Path_4613" class="st17" d="M59.6,20.3L59.1,20l0,0L59.6,20.3L59.6,20.3z"/>
				<path id="Path_4614" class="st17" d="M59.4,20.3L59,20l0,0L59.4,20.3z"/>
				<path id="Path_4615" class="st17" d="M59.4,20.3L59,20h-0.1L59.4,20.3L59.4,20.3z"/>
				<path id="Path_4616" class="st17" d="M59.4,20.3L59,20v0.1L59.4,20.3z"/>
				<path id="Path_4617" class="st17" d="M59.4,20.3L59,20h-0.1L59.4,20.3L59.4,20.3z"/>
				<path id="Path_4618" class="st17" d="M59.3,20.3L58.8,20l0,0L59.3,20.3L59.3,20.3z"/>
				<path id="Path_4619" class="st17" d="M59.3,20.3L58.8,20l0,0L59.3,20.3z"/>
				<path id="Path_4620" class="st17" d="M59.3,20.3L58.8,20h-0.1L59.3,20.3L59.3,20.3z"/>
				<path id="Path_4621" class="st17" d="M59.1,20.3L58.7,20l0,0L59.1,20.3z"/>
				<path id="Path_4622" class="st17" d="M59.1,20.3L58.7,20l0,0L59.1,20.3L59.1,20.3z"/>
				<path id="Path_4623" class="st17" d="M59.1,20.3L58.7,20l0,0L59.1,20.3z"/>
				<path id="Path_4624" class="st17" d="M59.1,20.3L58.7,20l0,0L59.1,20.3z"/>
				<path id="Path_4625" class="st17" d="M59.1,20.3L58.7,20h-0.1L59.1,20.3L59.1,20.3z"/>
				<path id="Path_4626" class="st17" d="M59,20.3L58.6,20l0,0L59,20.3z"/>
				<path id="Path_4627" class="st17" d="M59,20.3L58.6,20l0,0L59,20.3L59,20.3z"/>
				<path id="Path_4628" class="st17" d="M59,20.3L58.6,20l0,0L59,20.3z"/>
				<path id="Path_4629" class="st17" d="M59,20.3L58.6,20l0,0L59,20.3L59,20.3z"/>
				<path id="Path_4630" class="st17" d="M59,20.3L58.6,20h-0.1L59,20.3z"/>
				<path id="Path_4631" class="st17" d="M59,20.3L58.6,20l0,0L59,20.3L59,20.3z"/>
				<path id="Path_4632" class="st17" d="M58.8,20.3L58.4,20h-0.1L58.8,20.3z"/>
				<path id="Path_4633" class="st17" d="M58.8,20.3L58.4,20l0,0L58.8,20.3L58.8,20.3z"/>
				<path id="Path_4634" class="st17" d="M58.8,20.3L58.4,20l0,0L58.8,20.3z"/>
				<path id="Path_4635" class="st17" d="M58.8,20.3L58.4,20l0,0L58.8,20.3z"/>
				<path id="Path_4636" class="st17" d="M58.8,20.3L58.4,20h-0.1L58.8,20.3L58.8,20.3z"/>
				<path id="Path_4637" class="st17" d="M58.7,20.3L58.3,20l0,0L58.7,20.3z"/>
				<path id="Path_4638" class="st17" d="M58.7,20.3L58.3,20l0,0L58.7,20.3L58.7,20.3z"/>
				<path id="Path_4639" class="st17" d="M58.7,20.3L58.3,20l0,0L58.7,20.3z"/>
				<path id="Path_4640" class="st17" d="M58.7,20.3L58.3,20l0,0L58.7,20.3z"/>
				<path id="Path_4641" class="st17" d="M58.7,20.3L58.3,20h-0.1L58.7,20.3L58.7,20.3z"/>
				<path id="Path_4642" class="st17" d="M58.6,20.3L58.1,20l0,0L58.6,20.3L58.6,20.3z"/>
				<path id="Path_4643" class="st17" d="M58.6,20.3L58.1,20l0,0L58.6,20.3z"/>
				<path id="Path_4644" class="st17" d="M58.6,20.3L58.1,20L58,19.9L58.6,20.3L58.6,20.3z"/>
				<path id="Path_4645" class="st17" d="M58.4,20.1L58,19.9l0,0L58.4,20.1z"/>
				<path id="Path_4646" class="st17" d="M58.4,20.1L58,19.9l0,0L58.4,20.1L58.4,20.1z"/>
				<path id="Path_4647" class="st17" d="M58.3,20.1L58,19.9l0,0L58.3,20.1z"/>
				<path id="Path_4648" class="st17" d="M58.3,20.1L58,19.9l0,0L58.3,20.1z"/>
				<path id="Path_4649" class="st17" d="M58.3,20.1L58,19.9h-0.1L58.3,20.1L58.3,20.1z"/>
				<path id="Path_4650" class="st17" d="M58.3,20.1l-0.4-0.3l0,0L58.3,20.1z"/>
				<path id="Path_4651" class="st17" d="M58.3,20.1l-0.4-0.3h-0.1L58.3,20.1L58.3,20.1z"/>
				<path id="Path_4652" class="st17" d="M58.1,20.1l-0.4-0.3l0,0L58.1,20.1z"/>
				<path id="Path_4653" class="st17" d="M58.1,20.1l-0.4-0.3l0,0L58.1,20.1L58.1,20.1z"/>
				<path id="Path_4654" class="st17" d="M58.1,20.1l-0.4-0.3l0,0L58.1,20.1z"/>
				<path id="Path_4655" class="st17" d="M58.1,20.1l-0.4-0.3l0,0L58.1,20.1z"/>
				<path id="Path_4656" class="st17" d="M58.1,20.1l-0.4-0.3h-0.1L58.1,20.1L58.1,20.1z"/>
				<path id="Path_4657" class="st17" d="M58.1,20.1l-0.4-0.3l0,0L58.1,20.1z"/>
				<path id="Path_4658" class="st17" d="M58.1,20.1l-0.4-0.3l0,0L58.1,20.1z"/>
				<path id="Path_4659" class="st17" d="M58.1,20.1l-0.4-0.3l0,0L58.1,20.1L58.1,20.1z"/>
				<path id="Path_4660" class="st17" d="M58.1,20.1"/>
				<path id="Path_4661" class="st17" d="M58.1,20.1l-0.4-0.3l-0.1-0.1L58.1,20.1L58.1,20.1z"/>
				<path id="Path_4662" class="st17" d="M58,20l-0.4-0.3l0,0L58,20L58,20z"/>
				<path id="Path_4663" class="st17" d="M58,20l-0.4-0.3l0,0L58,20z"/>
				<path id="Path_4664" class="st17" d="M58,20l-0.4-0.3l0,0L58,20z"/>
				<path id="Path_4665" class="st17" d="M58,20l-0.4-0.3h-0.1L58,20L58,20z"/>
				<path id="Path_4666" class="st17" d="M57.8,20l-0.4-0.3v-0.1L57.8,20L57.8,20z"/>
				<path id="Path_4667" class="st17" d="M57.8,20l-0.4-0.4l0,0L57.8,20L57.8,20z"/>
				<path id="Path_4668" class="st17" d="M57.7,20l-0.4-0.4h-0.1L57.7,20z"/>
				<path id="Path_4669" class="st17" d="M57.7,20l-0.4-0.4l0,0L57.7,20L57.7,20z"/>
				<path id="Path_4670" class="st17" d="M57.7,19.9l-0.4-0.3h-0.1L57.7,19.9L57.7,19.9z"/>
				<path id="Path_4671" class="st17" d="M57.5,19.9l-0.4-0.3l0,0L57.5,19.9L57.5,19.9z"/>
				<path id="Path_4672" class="st17" d="M57.5,19.9l-0.4-0.3l0,0L57.5,19.9z"/>
				<path id="Path_4673" class="st17" d="M57.5,19.9l-0.4-0.4l0,0L57.5,19.9L57.5,19.9z"/>
				<path id="Path_4674" class="st17" d="M57.4,19.9L57,19.5l0,0L57.4,19.9z"/>
				<path id="Path_4675" class="st17" d="M56.1,17.9l-0.4-0.3l-4.3,11l0.4,0.3L56.1,17.9z"/>
				<path id="Path_4676" class="st17" d="M63.3,18.5l-0.4-0.3l4.9,7.1l0.4,0.3L63.3,18.5z"/>
				<path id="Path_4677" class="st17" d="M68.1,11l-0.4-0.3l-0.1,0.4l-0.1,0.4L67.2,12l-0.1,0.4l-0.3,0.3l-0.3,0.4l-0.3,0.4
					l-0.3,0.4l0.6,0.6l0.3-0.4l0.3-0.4l0.1-0.4l0.3-0.4l0.1-0.4l0.1-0.4l0.3-0.4C68.1,11.6,68.1,11,68.1,11z"/>
				<path id="Path_4678" class="st17" d="M66.7,14.6l-0.4-0.3l0,0L66.7,14.6L66.7,14.6z"/>
				<path id="Path_4679" class="st17" d="M66.7,14.6l-0.4-0.3L65.8,15l-0.4,0.6L64.9,16l-0.1,0.4l-0.4,0.4L64,17.2l-0.6,0.6L63,18.2
					l0.4,0.3l0.6-0.4l0.4-0.4l0.4-0.4l0.4-0.4l0.4-0.4l0.4-0.6l0.4-0.6L66.7,14.6z"/>
			</g>
			<path id="Path_4680" class="st18" d="M94.7,57.6l4.9,7.1l1.2-4.7c0.1-0.4,0.4-0.7,0.7-0.9l3.5-1.3l-1.3-1.8c0,0,0-0.1-0.1-0.1
				l0,0l-4.3-6c-0.4,1.3-0.9,2.4-1.5,3.5l0,0C97.3,55.3,96.1,56.6,94.7,57.6z M83.2,68.2C83.2,68.2,83,68.2,83.2,68.2l-1.3,3.2
				l3.5-2.9c0.3-0.3,0.6-0.3,0.7,0.1l1.2,3.2l5-12.8h-3.1l-0.1,0h-0.3c-0.4-0.3-0.9-0.7-1.2-1.3l0,0c-0.1-0.1-0.1-0.1-0.1-0.3l0,0
				v-0.1l0,0V57l0,0v0.1l0,0L83.2,68.2z"/>
			<path id="Path_4681" class="st19" d="M98.6,44.5l-0.7-0.4l-0.4-0.3L97,43.6h-0.6H96l-0.6,0.1l-0.7,0.1l-0.6,0.3l-0.6,0.4
				l-0.6,0.4l-0.6,0.4l-0.6,0.6l-0.6,0.6l-0.9,0.6l-0.4,0.6l-0.4,0.6L89,49l-0.1,0.1l-0.3,0.4L88.3,50L88,50.4l-0.3,0.4l-0.1,0.4
				l-0.1,0.4L87.1,52l0.1,0.1l-0.1,0.4v0.7L87,53.8l-0.1,0.4l-0.1,0.4L86.7,55v2.2l0,0v0.1l0,0v0.1l0,0v0.1l0,0v0.1l0,0v0.1l0,0v0.1
				l0,0v0.1l0,0V58l0,0v0.1l0,0v0.1l0,0v-0.4l0,0v0.1l0,0V58l0,0v0.1l0,0V59l0,0v0.1l0,0v0.1l0,0l0.1,0.3l0.1,0.3L87,60l0.1,0.1
				l0.1,0.1l0.1,0.1l0.1,0.1l0.1,0.1h0.1l0.7,0.4h-0.1l0.1,0.1l0.3-0.7l-0.1-0.1L88.3,60l-0.1-0.1L88,59.7l-0.1-0.3l-0.1-0.3l0,0V59
				l0,0v-0.1l0,0l0,0l0,0l0,0l0,0v-0.1l0,0v-0.3l0,0v-0.1l0,0v-0.1l0,0v-0.1l0,0v-0.1l0,0V58l0,0v-0.1l0,0v-0.1l0,0v-0.1l0,0V57l0,0
				v-0.1l0,0v-0.1l0,0v0.1l0,0v-2.2l0.1-0.4l0.1-0.4l0.1-0.4l0.1-0.4l0.1-0.4l0.1-0.4l0.1-0.4l0.1-0.4l0.1-0.4l0.1-0.4l0.3-0.4
				l0.3-0.4l0.3-0.4l0.3-0.4l0.1-0.1l0.4-0.7l0.4-0.7l0.4-0.6l0.6-0.6l0.6-0.6l0.6-0.6l0.6-0.4l0.6-0.4l0.6-0.4l0.6-0.3l0.6-0.1
				l0.6-0.1h0.6l0.6,0.1l0.4,0.1L98.6,44.5L98.6,44.5z M98.6,55L98.6,55l-0.7-0.4l0,0L98.6,55z M90.4,60.7l-0.7-0.4l0,0L90.4,60.7z
				 M89.8,60.4L89.1,60l0,0L89.8,60.4z M87,57.2l0.7,0.4l0,0L87,57.2z"/>
			<path id="Path_4682" class="st20" d="M98.6,44.5c-1.3-0.7-2.8-0.6-4.7,0.4c-1.9,1.2-3.5,2.8-4.6,4.7l-0.1,0.1
				c-1.2,1.9-1.9,4.1-1.9,6.5c0,0.4,0,0.7,0.1,1v0.1l0,0v0.1l0,0v0.1l0,0v0.1l0,0v0.1l0,0v0.1l0,0v0.1l0,0V58l0,0v-0.1l0,0V58l0,0
				v0.1l0,0v0.1l0,0V59l0,0v0.1l0,0v0.1l0,0v0.1l0,0v-0.6l0,0V59l0,0v0.1c0.1,0.1,0.1,0.1,0.1,0.3l0,0c0.3,0.4,0.6,0.9,1.2,1.3h0.1
				l0.1,0.1H93l0.1-0.1l0,0l0.1-0.1l0.1-0.1l0,0l0.1-0.1h0.4l0.1-0.1l0,0l0.1-0.1l0.1-0.1l0,0l0.1-0.1l0,0l0.1-0.1l0,0l0.1-0.1l0,0
				l0.1-0.1l0,0c1.3-1.2,2.7-2.5,3.5-4.1l0,0c0.7-1.3,1.3-2.7,1.6-4V51l0,0l0,0l0,0v-0.1l0,0v-0.1l0,0c0-0.1,0.1-0.3,0.1-0.4l0,0V50
				c0-0.4,0.1-0.7,0.1-1.2C100.5,46.6,99.8,45.1,98.6,44.5z"/>
		</g>
	</g>
	<g id="Group_2424" transform="translate(-30 -973.512)">
		<g class="st21">
			<path class="st22" d="M385.8,1576.8h5l4.6,12.6h0.1l4.6-12.6h5v17.8h-3.1v-14.3h0l-5.4,14.3h-2.2l-5.3-14.3h-0.1v14.3h-3V1576.8z
				"/>
			<path class="st22" d="M413.2,1586.9l-6.7-10.1h3.9l4.5,7.5l4.5-7.5h3.7l-6.7,10.1v7.7h-3.2V1586.9z"/>
		</g>
		<g class="st21">
			<path class="st22" d="M385.8,1604.6c0-0.6,0.2-1.1,0.7-1.6c0.5-0.5,1-0.7,1.7-0.7s1.3,0.2,1.7,0.6c0.5,0.4,0.7,1,0.7,1.6
				c0,0.6-0.2,1.2-0.7,1.6c-0.5,0.4-1.1,0.6-1.7,0.6s-1.3-0.2-1.7-0.7C386,1605.8,385.8,1605.2,385.8,1604.6z M386.3,1608.9h4v22.3
				h-4V1608.9z"/>
			<path class="st22" d="M395.1,1608.9h7.7c1,0,2.1,0.1,3,0.3c1,0.2,1.9,0.6,2.6,1.1c0.8,0.5,1.4,1.2,1.8,2c0.5,0.8,0.7,1.8,0.7,3
				c0,1.6-0.5,2.9-1.4,3.9c-0.9,1-2.2,1.7-3.7,2.1l5.9,9.9h-4.8l-5.2-9.4h-2.9v9.4h-4V1608.9z M402.3,1618.5c0.6,0,1.1,0,1.7-0.1
				c0.6-0.1,1.1-0.2,1.5-0.5c0.5-0.2,0.8-0.6,1.1-1c0.3-0.4,0.4-1,0.4-1.7c0-0.6-0.1-1.1-0.4-1.5c-0.3-0.4-0.6-0.7-1-0.9
				c-0.4-0.2-0.9-0.4-1.4-0.5c-0.5-0.1-1.1-0.1-1.6-0.1h-3.6v6.3H402.3z"/>
			<path class="st22" d="M426.2,1613.5c-0.4-0.5-1-1-1.8-1.4c-0.8-0.4-1.5-0.5-2.3-0.5c-0.5,0-0.9,0.1-1.4,0.2
				c-0.5,0.1-0.9,0.3-1.3,0.5c-0.4,0.2-0.7,0.6-0.9,0.9c-0.2,0.4-0.4,0.9-0.4,1.4c0,0.5,0.1,0.9,0.3,1.3c0.2,0.4,0.5,0.7,0.9,0.9
				c0.4,0.3,0.8,0.5,1.3,0.7c0.5,0.2,1.1,0.4,1.7,0.6c0.7,0.2,1.5,0.5,2.2,0.8c0.8,0.3,1.5,0.7,2.1,1.2c0.6,0.5,1.2,1.1,1.6,1.8
				c0.4,0.7,0.6,1.6,0.6,2.7c0,1.2-0.2,2.2-0.7,3.1c-0.4,0.9-1,1.6-1.8,2.2c-0.7,0.6-1.6,1-2.6,1.3c-1,0.3-2,0.4-3.1,0.4
				c-1.4,0-2.9-0.3-4.2-0.8c-1.4-0.5-2.5-1.3-3.4-2.4l2.8-2.6c0.5,0.8,1.3,1.4,2.2,1.8c0.9,0.4,1.8,0.7,2.7,0.7
				c0.5,0,0.9-0.1,1.4-0.2c0.5-0.1,0.9-0.3,1.3-0.6c0.4-0.3,0.7-0.6,0.9-1c0.2-0.4,0.4-0.9,0.4-1.5c0-0.6-0.1-1.1-0.4-1.5
				c-0.3-0.4-0.6-0.7-1.1-1s-1-0.5-1.6-0.7c-0.6-0.2-1.3-0.4-2-0.7c-0.7-0.2-1.3-0.5-2-0.8c-0.7-0.3-1.3-0.7-1.8-1.2
				c-0.5-0.5-1-1.1-1.3-1.8s-0.5-1.6-0.5-2.6c0-1.1,0.2-2.1,0.7-2.9c0.5-0.8,1.1-1.5,1.9-2s1.6-0.9,2.6-1.2c1-0.3,2-0.4,3-0.4
				c1.1,0,2.3,0.2,3.4,0.6c1.2,0.4,2.2,1,3,1.8L426.2,1613.5z"/>
			<path class="st22" d="M439.9,1608.9h3.4l9.6,22.3h-4.5l-2.1-5.1h-9.6l-2,5.1h-4.4L439.9,1608.9z M444.9,1622.6l-3.4-9.1l-3.5,9.1
				H444.9z"/>
			<path class="st22" d="M455.1,1608.9h4v18.7h9.5v3.5h-13.4V1608.9z"/>
			<path class="st22" d="M470.7,1604.6c0-0.6,0.2-1.1,0.7-1.6c0.5-0.5,1-0.7,1.7-0.7s1.3,0.2,1.7,0.6c0.5,0.4,0.7,1,0.7,1.6
				c0,0.6-0.2,1.2-0.7,1.6c-0.5,0.4-1.1,0.6-1.7,0.6s-1.3-0.2-1.7-0.7C470.9,1605.8,470.7,1605.2,470.7,1604.6z M471.2,1608.9h4
				v22.3h-4V1608.9z"/>
			<path class="st22" d="M485.4,1621.5l-8.4-12.6h4.8l5.6,9.4l5.7-9.4h4.6l-8.4,12.6v9.6h-4V1621.5z"/>
			<path class="st22" d="M499.6,1608.9h14.7v3.5h-10.8v5.7h10.2v3.3h-10.2v6.3h11.3v3.5h-15.3V1608.9z"/>
		</g>
	</g>
</g>
</svg>
