<?xml version="1.0" encoding="utf-8"?>
<!-- Generator: Adobe Illustrator 22.1.0, SVG Export Plug-In . SVG Version: 6.00 Build 0)  -->
<svg version="1.1" id="Layer_1" xmlns="http://www.w3.org/2000/svg" xmlns:xlink="http://www.w3.org/1999/xlink" x="0px" y="0px"
	 viewBox="0 0 310 120" style="enable-background:new 0 0 310 120;" xml:space="preserve">
<style type="text/css">
	.st0{opacity:3.000000e-03;fill:#040507;enable-background:new    ;}
	.st1{opacity:7.000000e-03;fill:#080A0D;enable-background:new    ;}
	.st2{opacity:1.000000e-02;fill:#0B0E14;enable-background:new    ;}
	.st3{opacity:1.300000e-02;fill:#0F131B;enable-background:new    ;}
	.st4{opacity:1.700000e-02;fill:#131822;enable-background:new    ;}
	.st5{opacity:2.000000e-02;fill:#171D29;enable-background:new    ;}
	.st6{opacity:2.300000e-02;fill:#1B2230;enable-background:new    ;}
	.st7{opacity:2.700000e-02;fill:#1F2737;enable-background:new    ;}
	.st8{opacity:3.000000e-02;fill:#232C3F;enable-background:new    ;}
	.st9{opacity:3.300000e-02;fill:#273246;enable-background:new    ;}
	.st10{opacity:3.700000e-02;fill:#2B374D;enable-background:new    ;}
	.st11{opacity:4.000000e-02;fill:#2F3C54;enable-background:new    ;}
	.st12{opacity:4.300000e-02;fill:#34415C;enable-background:new    ;}
	.st13{opacity:4.700000e-02;fill:#384763;enable-background:new    ;}
	.st14{fill:#34485C;}
	.st15{fill:#3D566E;}
	.st16{fill:#9DD6F5;}
	.st17{fill:#E6EAEB;}
	.st18{fill:#415A73;}
	.st19{fill:#2C3E50;}
	.st20{fill:#BDBDBD;}
	.st21{fill:#676775;}
	.st22{fill:#9C9C9C;}
	.st23{enable-background:new    ;}
	.st24{fill:#1F1E1E;}
</style>
<g id="Group_2697" transform="translate(-939.412 -567)">
	<g id="Group_2465" transform="translate(-4 64.574)">
		<g id="Group_2427" transform="translate(41.412 -837.574)">
			<g id="Group_2416" transform="translate(902 1340)">
				<g id="Group_2414" transform="translate(0 69.73)">
					<path id="Path_4759" class="st0" d="M79.3,6.4c17.5,10.1,17.5,26.4,0,36.6S33.5,53,16,43S-1.4,16.6,16,6.4
						C33.5-3.6,61.9-3.6,79.3,6.4z"/>
					<path id="Path_4760" class="st1" d="M77.1,7.8c16.3,9.4,16.3,24.7,0,34.1s-42.8,9.4-59.1,0S1.7,17.3,18,7.8S60.8-1.7,77.1,7.8z
						"/>
					<path id="Path_4761" class="st2" d="M75.1,8.9c15.2,8.7,15.2,22.9,0,31.7c-15.2,8.7-39.7,8.7-54.9,0S5,17.7,20.2,8.9
						S60,0.3,75.1,8.9z"/>
					<path id="Path_4762" class="st3" d="M73,10.2c14,8,14,21.2,0,29.2s-36.7,8-50.6,0s-14-21.2,0-29.2C36.4,2.1,59,2.1,73,10.2z"/>
					<ellipse id="Ellipse_60" class="st4" cx="47.6" cy="24.8" rx="32.8" ry="18.9"/>
					<path id="Path_4763" class="st5" d="M68.8,12.5c11.7,6.7,11.7,17.6,0,24.3s-30.6,6.7-42.1,0C15,30.1,15,19.2,26.7,12.5
						C38.3,5.9,57.1,5.9,68.8,12.5z"/>
					<path id="Path_4764" class="st6" d="M66.6,13.9c10.5,6,10.5,15.9,0,21.9s-27.4,6-37.8,0s-10.5-15.9,0-21.9S56.2,7.8,66.6,13.9z
						"/>
					<path id="Path_4765" class="st7" d="M64.5,15.1c9.3,5.3,9.3,14.1,0,19.4s-24.3,5.3-33.7,0s-9.3-14.1,0-19.4S55.2,9.8,64.5,15.1
						z"/>
					<path id="Path_4766" class="st8" d="M62.3,16.2c8.1,4.6,8.1,12.3,0,16.9S41,37.8,33,33.1s-8.1-12.3,0-16.9S54.2,11.6,62.3,16.2
						z"/>
					<path id="Path_4767" class="st9" d="M60.2,17.5c6.9,4.1,6.9,10.5,0,14.6s-18.2,4.1-25.1,0s-6.9-10.5,0-14.6
						S53.3,13.5,60.2,17.5z"/>
					<path id="Path_4768" class="st10" d="M58.2,18.8c5.8,3.2,5.8,8.7,0,12C52.4,34,43,34,37.3,30.8s-5.8-8.7,0-12
						C43,15.4,52.4,15.4,58.2,18.8z"/>
					<path id="Path_4769" class="st11" d="M56,19.9c4.5,2.7,4.5,6.9,0,9.6s-12,2.7-16.7,0c-4.6-2.7-4.5-6.9,0-9.6
						C43.9,17.4,51.4,17.4,56,19.9z"/>
					<path id="Path_4770" class="st12" d="M53.9,21.2c3.5,2,3.5,5.1,0,7.2c-3.8,2-8.6,2-12.4,0c-3.5-2-3.5-5.1,0-7.2
						C45.4,19.2,50.1,19.2,53.9,21.2z"/>
					<path id="Path_4771" class="st13" d="M51.7,22.5c2.3,1.3,2.3,3.4,0,4.7c-2.5,1.3-5.7,1.3-8.1,0c-2.3-1.3-2.3-3.4,0-4.7
						C46.2,21.1,49.1,21.1,51.7,22.5z"/>
				</g>
				<path id="Path_4772" class="st14" d="M8.5,63.9l-1-1H7.4v-0.1l-0.1-0.1v-0.2v-0.1v-0.2V62v-0.2V30.1v-0.2v-0.2v-0.2v-0.2V29
					l0.1-0.2l0,0l0.1-0.2l0.1-0.2l0.1-0.2L7.8,28l0.1-0.2L8,27.4l0.1-0.2L8.2,27l0.1-0.2l0.1-0.2l0.1-0.2l0.1-0.1l0.1-0.2L9,25.6
					l0.1-0.2l0.1-0.1l0.2-0.1L9.5,25l0.2-0.1l0.3-0.1l0.1-0.1l0.2-0.1l0.2-0.1L53.6-0.1l0.2-0.1H54l0.2-0.1h0.1h0.2h0.1h0.1h0.1h0.3
					h0.1h0.1h0.1l0.1,0.1h0.1l1,1l-0.1-0.1h-0.1h-0.1h-0.1h-0.7h-0.1h-0.2h-0.1H55l-0.1,0.1h-0.2v0.1L11.3,26.1l-0.1,0.1L11,26.3
					l-0.1,0.1l-0.1,0.1l-0.2,0.1l-0.2,0.1L10.1,27L10,27.1l-0.2,0.3l-0.1,0.1h0.1l-0.1,0.2l-0.1,0.2l-0.1,0.2l-0.2,0.1l-0.1,0.2v0.1
					L9,29l-0.1,0.2l-0.2,0.2H8.6v0.2v0.2L8.5,30v0.2v0.2v0.2v0.2l0,0v0.6v30.8v0.2v0.2V63v0.2v0.2l0,0v0.1v0.2L8.5,63.9L8.5,63.9z"
					/>
				<path id="Path_4773" class="st15" d="M11.3,26.1l43.4-25c1.7-1,3.2-0.2,3.2,1.9v30.8c-0.1,2.3-1.3,4.4-3.2,5.6l-43.4,25
					c-1.7,1-3.2,0.2-3.2-1.9V31.6C8.3,29.5,9.4,27.4,11.3,26.1z"/>
				<path id="Path_4774" class="st16" d="M11.6,28.4L23,21.8L54.6,3.6c0.8-0.5,1.5-0.1,1.5,0.9v30c0,1-0.6,2-1.5,2.5L18.9,57.7
					L11.6,62c-0.8,0.5-1.5,0.1-1.5-0.8V31C10.1,30,10.7,29,11.6,28.4z"/>
				<path id="Path_4775" class="st17" d="M69.9,65.8L57,73.1v-0.7l12.8-7.3L69.9,65.8L69.9,65.8z"/>
				<path id="Path_4776" class="st18" d="M87.7,57.7v2.4v0.1v0.1v0.1l-0.1,0.1l-0.1,0.1l-0.1,0.1L87.3,61v-0.1L87.2,61L87,61.3
					l-0.1,0.1l-0.2,0.1l-0.2,0.1L42.9,86.7l-0.2,0.1L42.4,87l-0.2,0.1h-0.1l-0.2,0.1h-0.2l-0.2,0.1h-0.2h-0.2l0,0h-0.2h-0.2h-0.2H39
					h-0.2h-0.2h-0.2H38h-0.2h-0.2h-0.3H37l-0.2-0.1l-0.2-0.1h-0.2l-0.2-0.2l-0.1-0.1L9.8,71.3l-0.1-0.1l-0.2-0.1L9.3,71l-0.2-0.1
					L9,70.8l-0.1-0.1l-0.1-0.1l-0.1-0.1l0,0l-0.1-0.1v-0.1v-0.1V70v-2.4v0.1v0.1v0.1l0,0V68l0.1,0.1l0.1,0.1l0.1,0.1L9,68.5l0.1,0.1
					l0.1,0.1l0.2,0.1L9.8,69l26.7,15.3l0.2,0.1l0.2,0.1l0.2,0.1h0.2l0.2,0.1h0.2l0.2,0.1h0.2h0.2h0.2h-0.2h0.2h0.2H40h0.2h0.2H41
					h0.2h0.2h0.2l0.2-0.1H42l0.2-0.1h0.2l0.2-0.1l0.2-0.1l0.2-0.1l43.5-25.1l0.2-0.1l0.2-0.1l0.1-0.1l0.1-0.1l0.1-0.1l0.1-0.1
					l0.1-0.1l0.1-0.1l0.1-0.1l0.1-0.1v-0.1V58L87.7,57.7z"/>
				<path id="Path_4777" class="st14" d="M9.8,65.2l43.6-25.1c2.1-1,4.5-1,6.5,0l26.7,15.4c1.7,1,1.7,2.7,0,3.8L42.9,84.4
					c-2.1,1-4.5,1-6.5,0L9.8,68.9C7.9,67.9,7.9,66.3,9.8,65.2z"/>
				<path id="Path_4778" class="st18" d="M56.5,74l11.9-6.9l-9-5.1l-11.9,6.8L56.5,74z"/>
				<path id="Path_4779" class="st15" d="M15.2,66l3.5-2l5.1-3l5.4-3.1l2.7-1.6c0,0,0.1,0,0.1-0.1l3.5-2l5.1-3l5.4-3.1l7.1-4.1
					l1.6-0.9c1-0.6,2.4-0.6,3.5,0L71.6,51c1,0.6,1,1.5,0,2l-16.8,9.7v0.1L32.1,76c-1,0.6-2.4,0.6-3.5,0l-13.4-7.9
					C14.2,67.5,14.2,66.6,15.2,66z"/>
				<g id="Group_2415" transform="translate(15.111 46.226)">
					<path id="Path_4780" class="st19" d="M17.4,18l2-1c0.5-0.2,1-0.2,1.5,0l2,1c0.2,0.1,0.3,0.3,0.3,0.6c0,0.1-0.1,0.2-0.3,0.3
						l-2,1c-0.5,0.2-1,0.2-1.5,0l-2-1c-0.2-0.1-0.3-0.3-0.3-0.6C17.3,18.2,17.4,18.1,17.4,18z"/>
					<path id="Path_4781" class="st19" d="M9.8,22.4l-2,1c-0.2,0.1-0.3,0.3-0.3,0.6c0,0.1,0.1,0.2,0.3,0.3l2,1c0.5,0.2,1,0.2,1.5,0
						l2-1c0.2-0.1,0.3-0.3,0.3-0.6c0-0.1-0.1-0.2-0.3-0.3l-2-1C10.8,22.3,10.3,22.3,9.8,22.4z"/>
					<path id="Path_4782" class="st19" d="M14.7,25.2l-2,1c-0.2,0.1-0.3,0.3-0.3,0.6c0,0.1,0.1,0.2,0.3,0.3l2,1c0.5,0.2,1,0.2,1.5,0
						l2-1c0.2-0.1,0.3-0.3,0.3-0.6c0-0.1-0.1-0.2-0.3-0.3l-2-1C15.6,24.9,15.1,24.9,14.7,25.2z"/>
					<path id="Path_4783" class="st19" d="M11.2,19.9l2-1c0.2-0.1,0.3-0.3,0.3-0.6c0-0.1-0.1-0.2-0.3-0.3l-2-1c-0.5-0.2-1-0.2-1.5,0
						l-2,1c-0.2,0.1-0.3,0.3-0.3,0.6c0,0.1,0.1,0.2,0.3,0.3l2,1C10.3,20.2,10.8,20.2,11.2,19.9z"/>
					<path id="Path_4784" class="st19" d="M16,17.2l2-1c0.2-0.1,0.3-0.3,0.3-0.6c0-0.1-0.1-0.2-0.3-0.3l-2-1c-0.5-0.2-1-0.2-1.5,0
						l-1.9,1c-0.2,0.1-0.3,0.3-0.3,0.6c0,0.1,0.1,0.2,0.3,0.3l2,1C15.1,17.4,15.6,17.4,16,17.2z"/>
					<path id="Path_4785" class="st19" d="M8.5,21.6l-2,1c-0.5,0.2-1,0.2-1.5,0l-2-1c-0.2-0.1-0.3-0.3-0.3-0.6
						c0-0.1,0.1-0.2,0.3-0.3l2-1c0.5-0.2,1-0.2,1.5,0l2,1C8.8,21,8.8,21.3,8.5,21.6z"/>
					<path id="Path_4786" class="st19" d="M12.6,20.8l2-1c0.5-0.2,1-0.2,1.5,0l2,1c0.2,0.1,0.3,0.3,0.3,0.6c0,0.1-0.1,0.2-0.3,0.3
						l-2,1c-0.5,0.2-1,0.2-1.5,0l-2-1C12.3,21.3,12.3,21,12.6,20.8z"/>
					<path id="Path_4787" class="st19" d="M27,12.4l2-1c0.5-0.2,1-0.2,1.5,0l2,1c0.2,0.1,0.3,0.3,0.3,0.6c0,0.1-0.1,0.2-0.3,0.3
						l-2,1c-0.5,0.2-1,0.2-1.5,0l-2-1c-0.2-0.1-0.3-0.3-0.3-0.6C26.9,12.7,27,12.5,27,12.4z"/>
					<path id="Path_4788" class="st19" d="M31.8,15.2l2-1c0.5-0.2,1-0.2,1.5,0l2,1c0.2,0.1,0.3,0.3,0.3,0.6c0,0.1-0.1,0.2-0.3,0.3
						l-2,1c-0.5,0.2-1,0.2-1.5,0l-2-1C31.5,15.8,31.5,15.4,31.8,15.2z"/>
					<path id="Path_4789" class="st19" d="M20.8,14.4l2-1c0.2-0.1,0.3-0.3,0.3-0.6c0-0.1-0.1-0.2-0.3-0.3l-2-1c-0.5-0.2-1-0.2-1.5,0
						l-2,1c-0.2,0-0.3,0.3-0.3,0.5c0,0.1,0.1,0.2,0.3,0.3l2,1C19.9,14.6,20.4,14.6,20.8,14.4z"/>
					<path id="Path_4790" class="st19" d="M25.6,11.6l2-1c0.2-0.1,0.3-0.3,0.3-0.6c0-0.1-0.1-0.2-0.3-0.3l-2-1c-0.5-0.2-1-0.2-1.5,0
						l-2,1c-0.2,0.1-0.3,0.3-0.3,0.6c0,0.1,0.1,0.2,0.3,0.3l2,1C24.7,12,25.1,12,25.6,11.6z"/>
					<path id="Path_4791" class="st19" d="M22.2,15.2l2-1c0.5-0.2,1-0.2,1.5,0l2,1c0.2,0.1,0.3,0.3,0.3,0.6c0,0.1-0.1,0.2-0.3,0.3
						l-2,1c-0.5,0.2-1,0.2-1.5,0l-2-1C21.9,15.8,21.9,15.4,22.2,15.2z"/>
					<path id="Path_4792" class="st19" d="M17.4,23.5l11.5-6.6c0.5-0.2,1-0.2,1.5,0l2,1c0.2,0.1,0.3,0.3,0.3,0.6
						c0,0.1-0.1,0.2-0.3,0.3l-11.5,6.6c-0.5,0.2-1,0.2-1.5,0l-2-1c-0.2-0.1-0.3-0.3-0.3-0.6C17.3,23.8,17.4,23.6,17.4,23.5z"/>
					<path id="Path_4793" class="st19" d="M42.9,3.2l2-1c0.5-0.2,1-0.2,1.5,0l2,1c0.2,0.1,0.3,0.3,0.3,0.6c0,0.1-0.1,0.2-0.3,0.3
						l-2,1c-0.5,0.2-1,0.2-1.5,0l-2-1c-0.2-0.1-0.3-0.3-0.2-0.6C42.8,3.4,42.8,3.3,42.9,3.2z"/>
					<path id="Path_4794" class="st19" d="M47.8,6.1l2-1c0.5-0.2,1-0.2,1.5,0l2,1c0.2,0.1,0.3,0.3,0.3,0.6c0,0.1-0.1,0.2-0.3,0.3
						l-2,1c-0.5,0.2-1,0.2-1.5,0l-2-1C47.5,6.5,47.5,6.3,47.8,6.1z"/>
					<path id="Path_4795" class="st19" d="M41.6,2.5l2-1.2c0.2-0.1,0.3-0.3,0.3-0.6c0-0.1-0.1-0.2-0.3-0.3l-2-1
						c-0.5-0.2-1-0.2-1.5,0l-2,1c-0.2,0.1-0.3,0.3-0.3,0.6c0,0.1,0.1,0.2,0.3,0.3l2,1.2C40.5,2.7,41.1,2.7,41.6,2.5z"/>
					<path id="Path_4796" class="st19" d="M38.2,6.1l2-1c0.5-0.2,1-0.2,1.5,0l2,1C43.9,6.2,44,6.4,44,6.6c0,0.1-0.1,0.2-0.3,0.3
						l-2,1c-0.5,0.2-1,0.2-1.5,0l-2-1C37.9,6.5,37.9,6.3,38.2,6.1z"/>
					<path id="Path_4797" class="st19" d="M42.9,8.7l2-1c0.5-0.2,1-0.2,1.5,0l2,1c0.2,0.1,0.3,0.3,0.3,0.6c0,0.1-0.1,0.2-0.3,0.3
						l-2,1c-0.5,0.2-1,0.2-1.5,0l-2-1c-0.2,0-0.3-0.2-0.3-0.3C42.6,8.9,42.8,8.7,42.9,8.7z"/>
					<path id="Path_4798" class="st19" d="M32,7.9l2-1c0.2-0.1,0.3-0.3,0.3-0.6c0-0.1-0.1-0.2-0.3-0.3l-2-1c-0.5-0.2-1-0.2-1.5,0
						l-2,1c-0.2,0.1-0.3,0.3-0.3,0.6c0,0.1,0.1,0.2,0.3,0.3l2,1C31,8.1,31.5,8.1,32,7.9z"/>
					<path id="Path_4799" class="st19" d="M36.8,5.2l2-1c0.2-0.1,0.3-0.3,0.3-0.6c0-0.1-0.1-0.2-0.3-0.3l-2-1c-0.5-0.2-1-0.2-1.5,0
						l-2,1C33.1,3.4,33,3.6,33,3.9c0,0.1,0.1,0.2,0.3,0.3l2,1C35.9,5.4,36.4,5.4,36.8,5.2z"/>
					<path id="Path_4800" class="st19" d="M33.3,8.7l2-1c0.5-0.2,1-0.2,1.5,0l2,1C39,8.8,39.1,9,39.1,9.3c0,0.1-0.1,0.2-0.3,0.3
						l-2,1c-0.5,0.2-1,0.2-1.5,0l-2-1C33.1,9.5,33,9.3,33,9.1C33.2,8.9,33.2,8.8,33.3,8.7z"/>
					<path id="Path_4801" class="st19" d="M38.2,11.5l2-1c0.5-0.2,1-0.2,1.5,0l2,1c0.2,0.1,0.3,0.3,0.3,0.6c0,0.1-0.1,0.2-0.3,0.3
						l-2,1c-0.5,0.2-1,0.2-1.5,0l-2-1C37.9,12.1,37.9,11.8,38.2,11.5z"/>
				</g>
				<path id="Path_4802" class="st17" d="M32.5,63.8l2-1c0.5-0.2,1-0.2,1.5,0l2,1c0.2,0.1,0.3,0.3,0.3,0.6c0,0.1-0.1,0.2-0.3,0.3
					l-2,1c-0.5,0.2-1,0.2-1.5,0l-2-1C32.1,64.4,32.1,64.2,32.5,63.8z"/>
				<path id="Path_4803" class="st17" d="M24.9,68.3l-1.9,1c-0.2,0.1-0.3,0.3-0.3,0.6c0,0.1,0.1,0.2,0.3,0.3l2,1
					c0.5,0.2,1,0.2,1.5,0l2-1c0.2-0.1,0.3-0.3,0.3-0.6c0-0.1-0.1-0.2-0.3-0.3l-2-1C25.9,68,25.4,68,24.9,68.3z"/>
				<path id="Path_4804" class="st17" d="M29.7,71.1l-2,1c-0.2,0.1-0.3,0.3-0.3,0.6c0,0.1,0.1,0.2,0.3,0.3l2,1c0.5,0.2,1,0.2,1.5,0
					l2-1c0.2-0.1,0.3-0.3,0.3-0.6c0-0.1-0.1-0.2-0.3-0.3l-2-1C30.6,70.8,30.2,70.8,29.7,71.1z"/>
				<path id="Path_4805" class="st17" d="M26.3,65.8l2-1c0.2-0.1,0.3-0.3,0.3-0.6c0-0.1-0.1-0.2-0.3-0.3l-2-1c-0.5-0.2-1-0.2-1.5,0
					l-2,1c-0.2,0.1-0.3,0.3-0.3,0.6c0,0.1,0.1,0.2,0.3,0.3l2,1C25.4,66,25.9,66,26.3,65.8z"/>
				<path id="Path_4806" class="st17" d="M31.2,63.1l2-1c0.2-0.1,0.3-0.3,0.3-0.6c0-0.1-0.1-0.2-0.3-0.3l-2-1.2
					c-0.5-0.2-1-0.2-1.5,0l-1.9,1c-0.2,0.1-0.3,0.3-0.3,0.6c0,0.1,0.1,0.2,0.3,0.3l2,1C30.2,63.2,30.7,63.2,31.2,63.1z"/>
				<path id="Path_4807" class="st17" d="M23.6,67.5l-2,1c-0.5,0.2-1,0.2-1.5,0l-2-1c-0.2-0.1-0.3-0.3-0.3-0.6
					c0-0.1,0.1-0.2,0.3-0.3l2-1c0.5-0.2,1-0.2,1.5,0l2,1c0.2,0.1,0.3,0.3,0.3,0.6C23.7,67.3,23.6,67.4,23.6,67.5z"/>
				<path id="Path_4808" class="st17" d="M27.7,66.6l2-1c0.5-0.2,1-0.2,1.5,0l2,1c0.2,0.1,0.3,0.3,0.3,0.6c0,0.1-0.1,0.2-0.3,0.3
					l-2,1c-0.5,0.2-1,0.2-1.5,0l-2-1c-0.2-0.1-0.3-0.3-0.3-0.6C27.5,66.8,27.6,66.7,27.7,66.6z"/>
				<path id="Path_4809" class="st17" d="M42.1,58.3l2-1c0.5-0.2,1-0.2,1.5,0l2,1c0.2,0.1,0.3,0.3,0.3,0.6c0,0.1-0.1,0.2-0.3,0.3
					l-2,1.2c-0.5,0.2-1,0.2-1.5,0l-2-1.2C41.7,59,41.7,58.6,42.1,58.3z"/>
				<path id="Path_4810" class="st17" d="M46.9,61l2-1c0.5-0.2,1-0.2,1.5,0l2,1c0.2,0.1,0.3,0.3,0.3,0.6c0,0.1-0.1,0.2-0.3,0.3l-2,1
					c-0.5,0.2-1,0.2-1.5,0l-2-1c-0.2-0.1-0.3-0.3-0.3-0.6C46.7,61.3,46.8,61.2,46.9,61z"/>
				<path id="Path_4811" class="st17" d="M35.9,60.4l2-1c0.2-0.1,0.3-0.3,0.3-0.6c0-0.1-0.1-0.2-0.3-0.3l-2-1c-0.5-0.2-1-0.2-1.5,0
					l-2,1c-0.2,0.1-0.3,0.3-0.3,0.6c0,0.1,0.1,0.2,0.3,0.3l2,1C34.9,60.5,35.5,60.5,35.9,60.4z"/>
				<path id="Path_4812" class="st17" d="M40.7,57.6l2-1c0.2-0.1,0.3-0.3,0.3-0.6c0-0.1-0.1-0.2-0.3-0.3l-2-1c-0.5-0.2-1-0.2-1.5,0
					l-2,1c-0.2,0.1-0.3,0.3-0.3,0.6c0,0.1,0.1,0.2,0.3,0.3l2,1C39.6,57.7,40.2,57.7,40.7,57.6z"/>
				<path id="Path_4813" class="st17" d="M37.3,61l2-1c0.5-0.2,1-0.2,1.5,0l2,1c0.2,0.1,0.3,0.3,0.3,0.6c0,0.1-0.1,0.2-0.3,0.3l-2,1
					c-0.5,0.2-1,0.2-1.5,0l-2-1c-0.2-0.1-0.3-0.3-0.3-0.6C37.1,61.3,37.2,61.2,37.3,61z"/>
				<path id="Path_4814" class="st17" d="M32.5,69.4L44,62.8c0.5-0.2,1-0.2,1.5,0l2,1c0.2,0.1,0.3,0.3,0.3,0.6
					c0,0.1-0.1,0.2-0.3,0.3L36,71.3c-0.5,0.2-1,0.2-1.5,0l-2-1C32.1,70,32.1,69.7,32.5,69.4z"/>
				<path id="Path_4815" class="st17" d="M58,49.1l2-1c0.5-0.2,1-0.2,1.5,0l2,1c0.2,0.1,0.3,0.3,0.3,0.6c0,0.1-0.1,0.2-0.3,0.3l-2,1
					c-0.5,0.2-1,0.2-1.5,0l-2-1C57.7,49.7,57.7,49.4,58,49.1z"/>
				<path id="Path_4816" class="st17" d="M62.8,51.9l2-1c0.5-0.2,1-0.2,1.5,0l2,1c0.2,0.1,0.3,0.3,0.3,0.6c0,0.1-0.1,0.2-0.3,0.3
					l-2,1c-0.5,0.2-1,0.2-1.5,0l-2-1c-0.2-0.1-0.3-0.3-0.3-0.6C62.7,52.1,62.7,52,62.8,51.9z"/>
				<path id="Path_4817" class="st17" d="M56.5,48.3l2-1c0.2-0.1,0.3-0.3,0.3-0.6c0-0.1-0.1-0.2-0.3-0.3l-2-1c-0.5-0.2-1-0.2-1.5,0
					l-2,1c-0.2,0.1-0.3,0.3-0.3,0.6c0,0.1,0.1,0.2,0.3,0.3l2,1C55.6,48.5,56.2,48.5,56.5,48.3z"/>
				<path id="Path_4818" class="st17" d="M53.2,51.9l2-1c0.5-0.2,1-0.2,1.5,0l2,1c0.2,0.1,0.3,0.3,0.3,0.6c0,0.1-0.1,0.2-0.3,0.3
					l-2,1c-0.5,0.2-1,0.2-1.5,0l-2-1c-0.2-0.1-0.3-0.3-0.3-0.6C53.1,52.1,53.1,52,53.2,51.9z"/>
				<path id="Path_4819" class="st17" d="M58,54.7l2-1c0.5-0.2,1-0.2,1.5,0l2,1c0.2,0.1,0.3,0.3,0.3,0.6c0,0.1-0.1,0.2-0.3,0.3l-2,1
					c-0.5,0.2-1,0.2-1.5,0l-2-1C57.7,55.3,57.7,54.9,58,54.7z"/>
				<path id="Path_4820" class="st17" d="M47.1,53.9l2-1c0.2-0.1,0.3-0.3,0.3-0.6c0-0.1-0.1-0.2-0.3-0.3l-2-1.2
					c-0.5-0.2-1-0.2-1.5,0l-2,1.2c-0.2,0.1-0.3,0.3-0.3,0.6c0,0.1,0.1,0.2,0.3,0.3l2,1C46.1,54.1,46.6,54.1,47.1,53.9z"/>
				<path id="Path_4821" class="st17" d="M51.8,51.1l2-1c0.2-0.1,0.3-0.3,0.3-0.6c0-0.1-0.1-0.2-0.3-0.3l-2-1c-0.5-0.2-1-0.2-1.5,0
					l-1.9,1c-0.2,0.1-0.3,0.3-0.3,0.6c0,0.1,0.1,0.2,0.3,0.3l2,1C50.9,51.3,51.4,51.3,51.8,51.1z"/>
				<path id="Path_4822" class="st17" d="M48.4,54.7l2-1c0.5-0.2,1-0.2,1.5,0l2,1c0.2,0.1,0.3,0.3,0.3,0.6c0,0.1-0.1,0.2-0.3,0.3
					l-2,1c-0.5,0.2-1,0.2-1.5,0l-2-1C48.1,55.3,48.1,54.9,48.4,54.7z"/>
				<path id="Path_4823" class="st17" d="M53.2,57.5l2-1c0.5-0.2,1-0.2,1.5,0l2,1c0.2,0.1,0.3,0.3,0.3,0.6c0,0.1-0.1,0.2-0.3,0.3
					l-2,1c-0.5,0.2-1,0.2-1.5,0l-2-1c-0.2-0.1-0.3-0.3-0.3-0.6C53.1,57.6,53.1,57.6,53.2,57.5z"/>
				<path id="Path_4824" class="st19" d="M8.5,63.9l-1-1H7.4v-0.1l-0.1-0.1v-0.2v-0.1v-0.2V62v-0.2V30.1v-0.2v-0.2v-0.2v-0.2V29
					l0.1-0.2l0,0l0.1-0.2l0.1-0.2l0.1-0.2L7.8,28l0.1-0.2v-0.1l1.3,0.7v0.1L9.1,29L9,29l-0.1,0.2l-0.2,0.2H8.6v0.2v0.2L8.5,30v0.2
					v0.2v0.2v0.2l0,0v0.6v30.8v0.2v0.2V63v0.2v0.2l0,0v0.1v0.2L8.5,63.9L8.5,63.9z"/>
				<path id="Path_4825" class="st19" d="M40,87.5v-2.4h-0.9h-0.2h-0.2h-0.2h-0.2h-0.2h-0.2l-0.3-0.3h-0.2l-0.2-0.1H37l-0.2-0.1
					l-0.2-0.2h0.2l-27-15.5l-0.1-0.1l-0.2-0.1l-0.1-0.1l-0.1-0.1l-0.1-0.1L9,68.2l-0.1-0.1l0,0V68l-0.1-0.1v-0.1v-0.1v-0.1V70v0.1
					v0.1v0.1l0.1,0.1v0.1L9,70.7l0.1,0.1l0.1,0.1V71l0.1,0.1l0.1,0.1l0.2,0.1l0.1,0.1l26.7,15.4l0.2,0.1l0.2,0.1H37l0.2,0.1l0.2,0.1
					h0.2l0.2,0.1H38h0.2h0.2h-0.2h0.2h0.2L40,87.5L40,87.5z"/>
			</g>
			<g id="Group_2417" transform="translate(924.653 1353.983)">
				<path id="Path_4456" class="st20" d="M5,37.4l-2.3-1.3V8.3l0.5,0.3l0.9-0.5L5,6.5L5.9,7l1-0.6l0.9-1.6l0.9,0.5l1-0.6l0.9-1.6
					l0.9,0.5l1-0.6l0.9-1.6L14.6,2l0.9-0.6l1-1.6l2.3,1.3L18,2.7l-1,0.6l-1-0.5l-1,1.6L14,5l-0.7-0.6l-1,1.6l-0.9,0.6l-1-0.6l-1,1.6
					l-1,0.6L7.2,7.8L6.3,9.4L5.4,9.9L4.9,9.5L5,37.4L5,37.4z M18.2-0.3l-0.9,0.5l2.3,1.4l0.9-0.5l0.2-0.2l-2.2-1.4L18.2-0.3z"/>
				<path id="Path_4457" class="st17" d="M20.9,7.5v20.7L20.6,28l-0.9,0.6l-0.9,1.6L18,29.7l-1,0.6l-0.9,1.6L15,31.4L14,32l-0.7,1.5
					l-1-0.5l-1,0.6l-0.9,1.6l-0.9-0.5l-1,0.6L7.4,37l-0.9-0.5l-0.9,0.6l-0.5,0.8V9.5l0.5,0.3l0.5-0.5L7,7.8l0.9,0.5l1-0.6l0.9-1.6
					l0.9,0.5l1-0.6l0.9-1.6l0.9,0.5l1-0.6l0.8-1.5l0.9,0.5l1-0.6L18.4,1l0.9,0.5l1.3-0.3L20.7,1L20.9,7.5L20.9,7.5z"/>
				<path id="Path_4458" class="st21" d="M7,20l11-6.4v0.5L7,20.4V20z"/>
				<path id="Path_4459" class="st21" d="M7,22.6l12-6.9v0.6L7,23.2V22.6z"/>
				<path id="Path_4460" class="st21" d="M7,25.6l9.4-5.4v0.5L7,26.1V25.6z"/>
				<path id="Path_4461" class="st21" d="M7,32l4.6-2.7v0.5L7,32.5V32z"/>
				<path id="Path_4462" class="st21" d="M16.5,26.6l2.3-1.3v0.5l-2.3,1.4V26.6z"/>
				<path id="Path_4463" class="st21" d="M7,11.7l3.6-2.1v0.5L7,12.2V11.7z"/>
				<path id="Path_4464" class="st21" d="M14.7,7.2l3.9-2.3v0.5l-3.9,2.3C14.7,7.7,14.7,7.2,14.7,7.2z"/>
				<path id="Path_4465" class="st21" d="M7,14.2l6.6-3.8v0.5l-6.7,3.9L7,14.2L7,14.2z"/>
				<path id="Path_4466" class="st21" d="M17.6,7.9l1-0.6v0.5l-1.2,0.7L17.6,7.9L17.6,7.9z"/>
				<path id="Path_4467" class="st22" d="M2.7,8.3v27.9L5,37.4V9.5L2.7,8.3z"/>
			</g>
		</g>
		<g id="Group_2426" transform="translate(-57 -929)">
			<g class="st23">
				<path class="st24" d="M1102.5,1453.9h3.9l3.6,10h0.1l3.6-10h3.9v14h-2.5v-11.3h0l-4.3,11.3h-1.7l-4.2-11.3h0v11.3h-2.4V1453.9z"
					/>
				<path class="st24" d="M1124.1,1461.8l-5.3-7.9h3l3.5,5.9l3.6-5.9h2.9l-5.3,7.9v6.1h-2.5V1461.8z"/>
			</g>
			<g class="st23">
				<path class="st24" d="M1111.8,1482.8c-0.3-0.4-0.8-0.8-1.4-1.1c-0.6-0.3-1.2-0.4-1.8-0.4c-0.4,0-0.7,0-1.1,0.1s-0.7,0.2-1,0.4
					c-0.3,0.2-0.5,0.4-0.7,0.7s-0.3,0.7-0.3,1.1c0,0.4,0.1,0.7,0.2,1c0.2,0.3,0.4,0.5,0.7,0.7c0.3,0.2,0.6,0.4,1.1,0.5
					c0.4,0.1,0.9,0.3,1.4,0.4c0.6,0.2,1.1,0.4,1.7,0.6s1.2,0.5,1.7,0.9c0.5,0.4,0.9,0.9,1.2,1.4c0.3,0.6,0.5,1.3,0.5,2.2
					c0,0.9-0.2,1.8-0.5,2.5c-0.3,0.7-0.8,1.3-1.4,1.7c-0.6,0.5-1.3,0.8-2,1c-0.8,0.2-1.6,0.3-2.5,0.3c-1.1,0-2.3-0.2-3.3-0.6
					c-1.1-0.4-2-1-2.7-1.9l2.2-2.1c0.4,0.6,1,1.1,1.7,1.4s1.4,0.5,2.1,0.5c0.4,0,0.7,0,1.1-0.1c0.4-0.1,0.7-0.2,1-0.5
					c0.3-0.2,0.6-0.5,0.7-0.8c0.2-0.3,0.3-0.7,0.3-1.2c0-0.5-0.1-0.8-0.3-1.2s-0.5-0.6-0.9-0.8c-0.4-0.2-0.8-0.4-1.3-0.6
					s-1-0.3-1.6-0.5c-0.5-0.2-1.1-0.4-1.6-0.6c-0.5-0.2-1-0.5-1.4-0.9s-0.8-0.8-1-1.4s-0.4-1.2-0.4-2.1c0-0.9,0.2-1.7,0.6-2.3
					s0.9-1.2,1.5-1.6c0.6-0.4,1.3-0.7,2.1-0.9c0.8-0.2,1.5-0.3,2.3-0.3c0.9,0,1.8,0.2,2.7,0.5c0.9,0.3,1.7,0.8,2.4,1.4
					L1111.8,1482.8z"/>
				<path class="st24" d="M1117.1,1479.1h11.6v2.7h-8.5v4.5h8v2.6h-8v5h8.9v2.8h-12.1V1479.1z"/>
				<path class="st24" d="M1132.2,1479.1h6.1c0.8,0,1.6,0.1,2.4,0.3c0.8,0.2,1.5,0.5,2.1,0.9c0.6,0.4,1.1,0.9,1.4,1.6
					s0.5,1.4,0.5,2.4c0,1.3-0.4,2.3-1.1,3.1s-1.7,1.3-2.9,1.6l4.7,7.8h-3.8l-4.1-7.4h-2.3v7.4h-3.1V1479.1z M1137.9,1486.7
					c0.4,0,0.9,0,1.3-0.1c0.4-0.1,0.8-0.2,1.2-0.4c0.4-0.2,0.6-0.4,0.9-0.8c0.2-0.3,0.3-0.8,0.3-1.3c0-0.5-0.1-0.9-0.3-1.2
					c-0.2-0.3-0.5-0.5-0.8-0.7s-0.7-0.3-1.1-0.4c-0.4-0.1-0.8-0.1-1.2-0.1h-2.8v4.9H1137.9z"/>
				<path class="st24" d="M1147.8,1479.1h6.8c0.7,0,1.3,0.1,2,0.2s1.2,0.4,1.7,0.8s0.9,0.8,1.2,1.4s0.5,1.2,0.5,2
					c0,1-0.3,1.8-0.8,2.5c-0.6,0.6-1.3,1.1-2.2,1.4v0c1.1,0.1,2,0.6,2.7,1.3c0.7,0.7,1.1,1.7,1.1,2.8c0,1-0.2,1.8-0.6,2.4
					c-0.4,0.7-0.9,1.2-1.5,1.6c-0.6,0.4-1.3,0.7-2.1,0.9c-0.8,0.2-1.6,0.3-2.4,0.3h-6.3V1479.1z M1150.9,1486.3h2.8
					c1,0,1.8-0.2,2.4-0.6c0.5-0.4,0.8-1,0.8-1.8c0-0.8-0.3-1.4-0.8-1.7c-0.6-0.3-1.4-0.5-2.6-0.5h-2.5V1486.3z M1150.9,1494h2.8
					c0.4,0,0.8,0,1.3-0.1c0.5-0.1,0.9-0.2,1.3-0.4c0.4-0.2,0.7-0.4,1-0.8s0.4-0.8,0.4-1.4c0-0.9-0.3-1.6-0.9-1.9
					c-0.6-0.4-1.6-0.5-2.8-0.5h-2.9V1494z"/>
				<path class="st24" d="M1163.8,1479.1h11.6v2.7h-8.5v4.5h8v2.6h-8v5h8.9v2.8h-12.1V1479.1z"/>
				<path class="st24" d="M1187.8,1482.8c-0.3-0.4-0.8-0.8-1.4-1.1c-0.6-0.3-1.2-0.4-1.8-0.4c-0.4,0-0.7,0-1.1,0.1s-0.7,0.2-1,0.4
					c-0.3,0.2-0.5,0.4-0.7,0.7s-0.3,0.7-0.3,1.1c0,0.4,0.1,0.7,0.2,1c0.2,0.3,0.4,0.5,0.7,0.7c0.3,0.2,0.6,0.4,1.1,0.5
					c0.4,0.1,0.9,0.3,1.4,0.4c0.6,0.2,1.1,0.4,1.7,0.6s1.2,0.5,1.7,0.9c0.5,0.4,0.9,0.9,1.2,1.4c0.3,0.6,0.5,1.3,0.5,2.2
					c0,0.9-0.2,1.8-0.5,2.5c-0.3,0.7-0.8,1.3-1.4,1.7c-0.6,0.5-1.3,0.8-2,1c-0.8,0.2-1.6,0.3-2.5,0.3c-1.1,0-2.3-0.2-3.3-0.6
					c-1.1-0.4-2-1-2.7-1.9l2.2-2.1c0.4,0.6,1,1.1,1.7,1.4c0.7,0.3,1.4,0.5,2.1,0.5c0.4,0,0.7,0,1.1-0.1c0.4-0.1,0.7-0.2,1-0.5
					c0.3-0.2,0.6-0.5,0.7-0.8c0.2-0.3,0.3-0.7,0.3-1.2c0-0.5-0.1-0.8-0.3-1.2c-0.2-0.3-0.5-0.6-0.9-0.8s-0.8-0.4-1.3-0.6
					s-1-0.3-1.6-0.5c-0.5-0.2-1.1-0.4-1.6-0.6c-0.5-0.2-1-0.5-1.4-0.9s-0.8-0.8-1-1.4s-0.4-1.2-0.4-2.1c0-0.9,0.2-1.7,0.6-2.3
					s0.9-1.2,1.5-1.6s1.3-0.7,2.1-0.9c0.8-0.2,1.5-0.3,2.3-0.3c0.9,0,1.8,0.2,2.7,0.5c0.9,0.3,1.7,0.8,2.4,1.4L1187.8,1482.8z"/>
				<path class="st24" d="M1196.3,1481.9h-5.4v-2.7h13.9v2.7h-5.4v14.8h-3.1V1481.9z"/>
				<path class="st24" d="M1212.4,1479.1h4.9l4.6,12.5h0.1l4.5-12.5h4.9v17.5h-3.1v-14.1h0l-5.3,14.1h-2.2l-5.2-14.1h0v14.1h-3
					V1479.1z"/>
				<path class="st24" d="M1235.1,1479.1h11.6v2.7h-8.5v4.5h8v2.6h-8v5h8.9v2.8h-12.1V1479.1z"/>
				<path class="st24" d="M1259.2,1482.8c-0.3-0.4-0.8-0.8-1.4-1.1c-0.6-0.3-1.2-0.4-1.8-0.4c-0.4,0-0.7,0-1.1,0.1s-0.7,0.2-1,0.4
					c-0.3,0.2-0.5,0.4-0.7,0.7s-0.3,0.7-0.3,1.1c0,0.4,0.1,0.7,0.2,1c0.2,0.3,0.4,0.5,0.7,0.7c0.3,0.2,0.6,0.4,1.1,0.5
					c0.4,0.1,0.9,0.3,1.4,0.4c0.6,0.2,1.1,0.4,1.7,0.6s1.2,0.5,1.7,0.9c0.5,0.4,0.9,0.9,1.2,1.4c0.3,0.6,0.5,1.3,0.5,2.2
					c0,0.9-0.2,1.8-0.5,2.5c-0.3,0.7-0.8,1.3-1.4,1.7c-0.6,0.5-1.3,0.8-2,1c-0.8,0.2-1.6,0.3-2.5,0.3c-1.1,0-2.3-0.2-3.3-0.6
					c-1.1-0.4-2-1-2.7-1.9l2.2-2.1c0.4,0.6,1,1.1,1.7,1.4c0.7,0.3,1.4,0.5,2.1,0.5c0.4,0,0.7,0,1.1-0.1c0.4-0.1,0.7-0.2,1-0.5
					c0.3-0.2,0.6-0.5,0.7-0.8c0.2-0.3,0.3-0.7,0.3-1.2c0-0.5-0.1-0.8-0.3-1.2c-0.2-0.3-0.5-0.6-0.9-0.8s-0.8-0.4-1.3-0.6
					s-1-0.3-1.6-0.5c-0.5-0.2-1.1-0.4-1.6-0.6c-0.5-0.2-1-0.5-1.4-0.9s-0.8-0.8-1-1.4s-0.4-1.2-0.4-2.1c0-0.9,0.2-1.7,0.6-2.3
					s0.9-1.2,1.5-1.6s1.3-0.7,2.1-0.9c0.8-0.2,1.5-0.3,2.3-0.3c0.9,0,1.8,0.2,2.7,0.5c0.9,0.3,1.7,0.8,2.4,1.4L1259.2,1482.8z"/>
				<path class="st24" d="M1264.5,1479.1h3.1v14.8h7.5v2.8h-10.6V1479.1z"/>
				<path class="st24" d="M1277.1,1479.1h11.6v2.7h-8.5v4.5h8v2.6h-8v5h8.9v2.8h-12.1V1479.1z"/>
				<path class="st24" d="M1292.2,1479.1h3.1v7.6h0.1l7.3-7.6h4.2l-8.2,8.1l8.7,9.4h-4.4l-7.7-8.8h-0.1v8.8h-3.1V1479.1z"/>
			</g>
			<g class="st23">
				<path class="st24" d="M1102.9,1502.9h4.9l4.6,12.5h0.1l4.5-12.5h4.9v17.5h-3.1v-14.1h0l-5.3,14.1h-2.2l-5.2-14.1h0v14.1h-3
					V1502.9z"/>
				<path class="st24" d="M1131.2,1502.9h2.7l7.6,17.5h-3.6l-1.6-4h-7.6l-1.6,4h-3.5L1131.2,1502.9z M1135.1,1513.8l-2.7-7.1
					l-2.7,7.1H1135.1z"/>
				<path class="st24" d="M1143.1,1502.9h3.1v7.6h0.1l7.3-7.6h4.2l-8.2,8.1l8.7,9.4h-4.4l-7.7-8.8h-0.1v8.8h-3.1V1502.9z"/>
				<path class="st24" d="M1160.2,1502.9h6.8c0.7,0,1.3,0.1,2,0.2s1.2,0.4,1.7,0.8s0.9,0.8,1.2,1.4s0.5,1.2,0.5,2
					c0,1-0.3,1.8-0.8,2.5c-0.6,0.6-1.3,1.1-2.2,1.4v0c1.1,0.1,2,0.6,2.7,1.3c0.7,0.7,1.1,1.7,1.1,2.8c0,1-0.2,1.8-0.6,2.4
					c-0.4,0.7-0.9,1.2-1.5,1.6c-0.6,0.4-1.3,0.7-2.1,0.9c-0.8,0.2-1.6,0.3-2.4,0.3h-6.3V1502.9z M1163.3,1510h2.8
					c1,0,1.8-0.2,2.4-0.6c0.5-0.4,0.8-1,0.8-1.8c0-0.8-0.3-1.4-0.8-1.7c-0.6-0.3-1.4-0.5-2.6-0.5h-2.5V1510z M1163.3,1517.8h2.8
					c0.4,0,0.8,0,1.3-0.1c0.5-0.1,0.9-0.2,1.3-0.4c0.4-0.2,0.7-0.4,1-0.8s0.4-0.8,0.4-1.4c0-0.9-0.3-1.6-0.9-1.9
					c-0.6-0.4-1.6-0.5-2.8-0.5h-2.9V1517.8z"/>
				<path class="st24" d="M1190.2,1514c0,1.1-0.2,2-0.5,2.9c-0.4,0.8-0.9,1.6-1.5,2.2c-0.6,0.6-1.4,1.1-2.2,1.4s-1.8,0.5-2.8,0.5
					c-1,0-1.9-0.2-2.8-0.5c-0.9-0.3-1.6-0.8-2.2-1.4c-0.6-0.6-1.1-1.3-1.5-2.2c-0.4-0.9-0.5-1.8-0.5-2.9v-11.1h3.1v11
					c0,0.5,0.1,1,0.2,1.5c0.1,0.5,0.4,1,0.7,1.3c0.3,0.4,0.7,0.7,1.2,1c0.5,0.2,1.1,0.4,1.9,0.4c0.7,0,1.4-0.1,1.9-0.4
					c0.5-0.2,0.9-0.6,1.2-1c0.3-0.4,0.5-0.8,0.7-1.3c0.1-0.5,0.2-1,0.2-1.5v-11h3.1V1514z"/>
				<path class="st24" d="M1192.8,1517.6l9.5-12h-9.4v-2.7h13.1v2.8l-9.6,11.9h9.7v2.8h-13.4V1517.6z"/>
				<path class="st24" d="M1223,1514c0,1.1-0.2,2-0.5,2.9c-0.4,0.8-0.9,1.6-1.5,2.2c-0.6,0.6-1.4,1.1-2.2,1.4s-1.8,0.5-2.8,0.5
					c-1,0-1.9-0.2-2.8-0.5c-0.9-0.3-1.6-0.8-2.2-1.4c-0.6-0.6-1.1-1.3-1.5-2.2c-0.4-0.9-0.5-1.8-0.5-2.9v-11.1h3.1v11
					c0,0.5,0.1,1,0.2,1.5c0.1,0.5,0.4,1,0.7,1.3c0.3,0.4,0.7,0.7,1.2,1c0.5,0.2,1.1,0.4,1.9,0.4c0.7,0,1.4-0.1,1.9-0.4
					c0.5-0.2,0.9-0.6,1.2-1c0.3-0.4,0.5-0.8,0.7-1.3c0.1-0.5,0.2-1,0.2-1.5v-11h3.1V1514z"/>
			</g>
		</g>
	</g>
</g>
</svg>
